%TF.GenerationSoftware,KiCad,Pcbnew,(5.1.10)-1*%
%TF.CreationDate,2022-03-13T22:52:12+08:00*%
%TF.ProjectId,interface,696e7465-7266-4616-9365-2e6b69636164,rev?*%
%TF.SameCoordinates,Original*%
%TF.FileFunction,Legend,Bot*%
%TF.FilePolarity,Positive*%
%FSLAX46Y46*%
G04 Gerber Fmt 4.6, Leading zero omitted, Abs format (unit mm)*
G04 Created by KiCad (PCBNEW (5.1.10)-1) date 2022-03-13 22:52:12*
%MOMM*%
%LPD*%
G01*
G04 APERTURE LIST*
%ADD10C,0.150000*%
G04 APERTURE END LIST*
D10*
X69436160Y47752785D02*
X69388540Y47848023D01*
X69388540Y47990880D01*
X69436160Y48133738D01*
X69531398Y48228976D01*
X69626636Y48276595D01*
X69817112Y48324214D01*
X69959969Y48324214D01*
X70150445Y48276595D01*
X70245683Y48228976D01*
X70340921Y48133738D01*
X70388540Y47990880D01*
X70388540Y47895642D01*
X70340921Y47752785D01*
X70293302Y47705166D01*
X69959969Y47705166D01*
X69959969Y47895642D01*
X70388540Y47276595D02*
X69388540Y47276595D01*
X70388540Y46705166D01*
X69388540Y46705166D01*
X70388540Y46228976D02*
X69388540Y46228976D01*
X69388540Y45990880D01*
X69436160Y45848023D01*
X69531398Y45752785D01*
X69626636Y45705166D01*
X69817112Y45657547D01*
X69959969Y45657547D01*
X70150445Y45705166D01*
X70245683Y45752785D01*
X70340921Y45848023D01*
X70388540Y45990880D01*
X70388540Y46228976D01*
X69436160Y61087785D02*
X69388540Y61183023D01*
X69388540Y61325880D01*
X69436160Y61468738D01*
X69531398Y61563976D01*
X69626636Y61611595D01*
X69817112Y61659214D01*
X69959969Y61659214D01*
X70150445Y61611595D01*
X70245683Y61563976D01*
X70340921Y61468738D01*
X70388540Y61325880D01*
X70388540Y61230642D01*
X70340921Y61087785D01*
X70293302Y61040166D01*
X69959969Y61040166D01*
X69959969Y61230642D01*
X70388540Y60611595D02*
X69388540Y60611595D01*
X70388540Y60040166D01*
X69388540Y60040166D01*
X70388540Y59563976D02*
X69388540Y59563976D01*
X69388540Y59325880D01*
X69436160Y59183023D01*
X69531398Y59087785D01*
X69626636Y59040166D01*
X69817112Y58992547D01*
X69959969Y58992547D01*
X70150445Y59040166D01*
X70245683Y59087785D01*
X70340921Y59183023D01*
X70388540Y59325880D01*
X70388540Y59563976D01*
X69436160Y75184785D02*
X69388540Y75280023D01*
X69388540Y75422880D01*
X69436160Y75565738D01*
X69531398Y75660976D01*
X69626636Y75708595D01*
X69817112Y75756214D01*
X69959969Y75756214D01*
X70150445Y75708595D01*
X70245683Y75660976D01*
X70340921Y75565738D01*
X70388540Y75422880D01*
X70388540Y75327642D01*
X70340921Y75184785D01*
X70293302Y75137166D01*
X69959969Y75137166D01*
X69959969Y75327642D01*
X70388540Y74708595D02*
X69388540Y74708595D01*
X70388540Y74137166D01*
X69388540Y74137166D01*
X70388540Y73660976D02*
X69388540Y73660976D01*
X69388540Y73422880D01*
X69436160Y73280023D01*
X69531398Y73184785D01*
X69626636Y73137166D01*
X69817112Y73089547D01*
X69959969Y73089547D01*
X70150445Y73137166D01*
X70245683Y73184785D01*
X70340921Y73280023D01*
X70388540Y73422880D01*
X70388540Y73660976D01*
X69436160Y88011785D02*
X69388540Y88107023D01*
X69388540Y88249880D01*
X69436160Y88392738D01*
X69531398Y88487976D01*
X69626636Y88535595D01*
X69817112Y88583214D01*
X69959969Y88583214D01*
X70150445Y88535595D01*
X70245683Y88487976D01*
X70340921Y88392738D01*
X70388540Y88249880D01*
X70388540Y88154642D01*
X70340921Y88011785D01*
X70293302Y87964166D01*
X69959969Y87964166D01*
X69959969Y88154642D01*
X70388540Y87535595D02*
X69388540Y87535595D01*
X70388540Y86964166D01*
X69388540Y86964166D01*
X70388540Y86487976D02*
X69388540Y86487976D01*
X69388540Y86249880D01*
X69436160Y86107023D01*
X69531398Y86011785D01*
X69626636Y85964166D01*
X69817112Y85916547D01*
X69959969Y85916547D01*
X70150445Y85964166D01*
X70245683Y86011785D01*
X70340921Y86107023D01*
X70388540Y86249880D01*
X70388540Y86487976D01*
M02*
