M48
; DRILL file {KiCad (5.1.10)-1} date 03/13/22 22:52:12
; FORMAT={-:-/ absolute / metric / decimal}
; #@! TF.CreationDate,2022-03-13T22:52:12+08:00
; #@! TF.GenerationSoftware,Kicad,Pcbnew,(5.1.10)-1
; #@! TF.FileFunction,Plated,1,2,PTH
FMAT,2
METRIC
T1C0.400
T2C0.600
T3C0.800
T4C0.900
T5C1.000
T6C1.100
T7C1.200
T8C1.300
T9C1.500
T10C1.700
T11C3.500
%
G90
G05
T1
X16.977Y15.495
X17.03Y25.667
X22.027Y15.055
X22.738Y26.739
X22.739Y24.799
X22.739Y22.716
X26.502Y9.907
X27.102Y54.547
X28.026Y5.081
X28.885Y6.673
X29.007Y19.111
X32.334Y13.729
X35.539Y14.115
X36.048Y24.037
X36.144Y7.887
X36.662Y1.652
X40.162Y18.611
X42.016Y18.814
X43.739Y28.549
X44.048Y18.814
X44.227Y33.486
X44.399Y26.556
X45.649Y35.019
X46.08Y17.544
X47.282Y31.184
X47.3Y29.168
X47.447Y54.877
X48.796Y32.471
X49.338Y25.611
X49.841Y23.087
X51.257Y54.877
X51.377Y24.023
X53.162Y24.524
X53.162Y54.877
X55.732Y21.227
X56.484Y30.22
X56.591Y25.794
X56.713Y54.872
X58.115Y58.179
X59.01Y29.339
X60.05Y22.878
X74.782Y30.879
X76.231Y16.487
X82.275Y21.481
X85.831Y13.861
X91.216Y37.813
X92.753Y19.83
T2
X22.672Y16.675
X34.112Y84.722
T3
X2.519Y41.588
X2.519Y31.428
X2.616Y51.194
X3.124Y46.368
X5.624Y46.368
X6.934Y54.496
X9.474Y54.496
X12.014Y54.496
X12.776Y51.194
X12.786Y11.939
X12.786Y9.399
X12.786Y6.859
X12.786Y4.319
X14.554Y54.496
X17.094Y54.496
X19.634Y54.496
X20.396Y47.344
X20.396Y44.844
X20.599Y76.177
X22.946Y11.939
X22.946Y9.399
X22.946Y6.859
X22.946Y4.319
X23.099Y76.177
X38.43Y47.928
X38.43Y40.308
X40.772Y14.684
X40.772Y12.144
X40.97Y47.928
X40.97Y40.308
X44.326Y47.928
X44.326Y40.308
X46.866Y47.928
X46.866Y40.308
X48.392Y14.684
X48.392Y12.144
X50.222Y47.928
X50.222Y40.308
X52.762Y47.928
X52.762Y40.308
X53.116Y6.266
X53.116Y2.766
X56.119Y47.928
X56.119Y40.308
X57.734Y68.212
X58.659Y47.928
X58.659Y40.308
X63.317Y16.833
X63.317Y14.293
X63.317Y11.753
X63.317Y9.213
X63.317Y5.804
X63.317Y3.264
X68.839Y39.205
X70.937Y16.833
X70.937Y14.293
X70.937Y11.753
X70.937Y9.213
X70.937Y5.804
X70.937Y3.264
X71.374Y28.37
X71.374Y20.75
X71.379Y39.205
X73.914Y28.37
X73.914Y20.75
X73.919Y39.205
X76.454Y28.37
X76.454Y20.75
X76.459Y39.205
X78.994Y28.37
X78.994Y20.75
X78.999Y39.205
X81.539Y39.205
X81.981Y28.522
X89.88Y35.736
X89.88Y33.236
X92.141Y28.522
T4
X6.309Y38.609
X6.309Y36.069
X6.309Y33.529
X26.131Y44.646
X27.361Y2.477
X28.671Y44.646
X29.901Y2.477
X31.211Y44.646
X32.441Y2.477
X32.522Y17.188
X33.751Y44.646
X35.062Y17.188
X37.602Y17.188
X60.685Y36.34
X63.225Y36.34
X64.282Y26.759
X66.822Y26.759
T5
X25.815Y68.268
X25.815Y65.728
X25.815Y63.188
T6
X10.52Y34.46
X10.52Y29.96
X12.522Y83.388
X17.02Y34.46
X17.02Y29.96
X22.682Y83.388
T7
X3.5Y87.35
X3.5Y82.35
X3.5Y26.569
X3.5Y21.569
X3.5Y16.569
X4.277Y11.431
X6.292Y70.498
X9.357Y11.431
X13.792Y70.498
X40.705Y3.493
X45.705Y3.493
X78.034Y3.498
X83.034Y3.498
X88.034Y3.498
X88.117Y14.75
X89.337Y10.991
X96.535Y88.406
X96.535Y83.406
X96.535Y76.64
X96.535Y71.64
X96.535Y47.338
X96.535Y42.338
T8
X63.104Y91.841
X63.104Y84.341
X63.104Y78.314
X63.104Y70.814
X63.104Y64.787
X63.104Y57.287
X63.104Y51.26
X63.104Y43.76
X78.104Y91.841
X78.104Y84.341
X78.104Y78.314
X78.104Y70.814
X78.104Y64.787
X78.104Y57.287
X78.104Y51.26
X78.104Y43.76
X83.104Y91.841
X83.104Y84.341
X83.104Y78.314
X83.104Y70.814
X83.104Y64.787
X83.104Y57.287
X83.104Y51.26
X83.104Y43.76
X88.104Y91.841
X88.104Y84.341
X88.104Y78.314
X88.104Y70.814
X88.104Y64.787
X88.104Y57.287
X88.104Y51.26
X88.104Y43.76
T9
X15.449Y92.913
X38.049Y92.913
T10
X31.363Y76.974
X31.363Y53.974
T11
X5.0Y95.0
X5.0Y5.0
X95.0Y95.0
X95.0Y5.0
T0
M30
