%TF.GenerationSoftware,KiCad,Pcbnew,(5.1.10)-1*%
%TF.CreationDate,2022-03-13T22:52:12+08:00*%
%TF.ProjectId,interface,696e7465-7266-4616-9365-2e6b69636164,rev?*%
%TF.SameCoordinates,Original*%
%TF.FileFunction,Copper,L1,Top*%
%TF.FilePolarity,Positive*%
%FSLAX46Y46*%
G04 Gerber Fmt 4.6, Leading zero omitted, Abs format (unit mm)*
G04 Created by KiCad (PCBNEW (5.1.10)-1) date 2022-03-13 22:52:12*
%MOMM*%
%LPD*%
G01*
G04 APERTURE LIST*
%TA.AperFunction,ComponentPad*%
%ADD10C,2.000000*%
%TD*%
%TA.AperFunction,ComponentPad*%
%ADD11C,2.800000*%
%TD*%
%TA.AperFunction,SMDPad,CuDef*%
%ADD12R,0.600000X1.550000*%
%TD*%
%TA.AperFunction,ComponentPad*%
%ADD13R,1.600000X1.600000*%
%TD*%
%TA.AperFunction,ComponentPad*%
%ADD14O,1.600000X1.600000*%
%TD*%
%TA.AperFunction,SMDPad,CuDef*%
%ADD15R,1.200000X1.200000*%
%TD*%
%TA.AperFunction,SMDPad,CuDef*%
%ADD16R,2.500000X2.300000*%
%TD*%
%TA.AperFunction,SMDPad,CuDef*%
%ADD17R,1.550000X0.600000*%
%TD*%
%TA.AperFunction,ComponentPad*%
%ADD18C,2.500000*%
%TD*%
%TA.AperFunction,ComponentPad*%
%ADD19C,1.600000*%
%TD*%
%TA.AperFunction,SMDPad,CuDef*%
%ADD20R,2.600000X1.100000*%
%TD*%
%TA.AperFunction,SMDPad,CuDef*%
%ADD21R,0.600000X1.500000*%
%TD*%
%TA.AperFunction,SMDPad,CuDef*%
%ADD22R,3.800000X2.000000*%
%TD*%
%TA.AperFunction,SMDPad,CuDef*%
%ADD23R,1.500000X2.000000*%
%TD*%
%TA.AperFunction,ComponentPad*%
%ADD24R,1.800000X1.800000*%
%TD*%
%TA.AperFunction,ComponentPad*%
%ADD25O,1.800000X1.800000*%
%TD*%
%TA.AperFunction,ComponentPad*%
%ADD26C,2.400000*%
%TD*%
%TA.AperFunction,ComponentPad*%
%ADD27O,2.400000X2.400000*%
%TD*%
%TA.AperFunction,ComponentPad*%
%ADD28C,1.800000*%
%TD*%
%TA.AperFunction,ComponentPad*%
%ADD29O,4.000000X2.500000*%
%TD*%
%TA.AperFunction,ComponentPad*%
%ADD30R,2.200000X2.200000*%
%TD*%
%TA.AperFunction,ComponentPad*%
%ADD31O,2.200000X2.200000*%
%TD*%
%TA.AperFunction,ComponentPad*%
%ADD32R,2.400000X2.400000*%
%TD*%
%TA.AperFunction,ViaPad*%
%ADD33C,6.000000*%
%TD*%
%TA.AperFunction,ViaPad*%
%ADD34C,1.400000*%
%TD*%
%TA.AperFunction,ViaPad*%
%ADD35C,1.000000*%
%TD*%
%TA.AperFunction,ViaPad*%
%ADD36C,1.200000*%
%TD*%
%TA.AperFunction,ViaPad*%
%ADD37C,1.100000*%
%TD*%
%TA.AperFunction,ViaPad*%
%ADD38C,2.400000*%
%TD*%
%TA.AperFunction,Conductor*%
%ADD39C,0.762000*%
%TD*%
%TA.AperFunction,Conductor*%
%ADD40C,0.381000*%
%TD*%
%TA.AperFunction,Conductor*%
%ADD41C,1.000000*%
%TD*%
%TA.AperFunction,Conductor*%
%ADD42C,0.508000*%
%TD*%
%TA.AperFunction,Conductor*%
%ADD43C,2.000000*%
%TD*%
%TA.AperFunction,Conductor*%
%ADD44C,1.016000*%
%TD*%
%TA.AperFunction,Conductor*%
%ADD45C,0.254000*%
%TD*%
%TA.AperFunction,Conductor*%
%ADD46C,7.000000*%
%TD*%
%TA.AperFunction,Conductor*%
%ADD47C,6.000000*%
%TD*%
%TA.AperFunction,Conductor*%
%ADD48C,5.000000*%
%TD*%
%TA.AperFunction,Conductor*%
%ADD49C,3.000000*%
%TD*%
%TA.AperFunction,Conductor*%
%ADD50C,0.350000*%
%TD*%
%ADD51C,0.350000*%
G04 APERTURE END LIST*
D10*
%TO.P,U1,4*%
%TO.N,+5V*%
X9474000Y54496000D03*
%TO.P,U1,1*%
%TO.N,+24V*%
X14554000Y54496000D03*
%TO.P,U1,4*%
%TO.N,+5V*%
X6934000Y54496000D03*
%TO.P,U1,3*%
%TO.N,GNDS*%
X12014000Y54496000D03*
%TO.P,U1,2*%
%TO.N,GNDPWR*%
X17094000Y54496000D03*
%TO.P,U1,1*%
%TO.N,+24V*%
X19634000Y54496000D03*
%TD*%
%TO.P,U3,4*%
%TO.N,+5VD*%
X78998880Y39205200D03*
%TO.P,U3,1*%
%TO.N,+24V*%
X73918880Y39205200D03*
%TO.P,U3,4*%
%TO.N,+5VD*%
X81538880Y39205200D03*
%TO.P,U3,3*%
%TO.N,Earth*%
X76458880Y39205200D03*
%TO.P,U3,2*%
%TO.N,GNDPWR*%
X71378880Y39205200D03*
%TO.P,U3,1*%
%TO.N,+24V*%
X68838880Y39205200D03*
%TD*%
D11*
%TO.P,Ref\u002A\u002A,0*%
%TO.N,N/C*%
X31362542Y53974194D03*
X31362542Y76974194D03*
%TD*%
D12*
%TO.P,U14,1*%
%TO.N,Net-(U14-Pad1)*%
X12849560Y17582200D03*
%TO.P,U14,2*%
%TO.N,Net-(R29-Pad1)*%
X14119560Y17582200D03*
%TO.P,U14,3*%
%TO.N,GNDPWR*%
X15389560Y17582200D03*
%TO.P,U14,4*%
X16659560Y17582200D03*
%TO.P,U14,5*%
%TO.N,N/C*%
X16659560Y22982200D03*
%TO.P,U14,6*%
X15389560Y22982200D03*
%TO.P,U14,7*%
X14119560Y22982200D03*
%TO.P,U14,8*%
%TO.N,+24V*%
X12849560Y22982200D03*
%TD*%
D13*
%TO.P,U15,1*%
%TO.N,Net-(U14-Pad1)*%
X12786160Y11938880D03*
D14*
%TO.P,U15,5*%
%TO.N,GNDS*%
X22946160Y4318880D03*
%TO.P,U15,2*%
%TO.N,Net-(R28-Pad1)*%
X12786160Y9398880D03*
%TO.P,U15,6*%
%TO.N,Net-(JP3-Pad2)*%
X22946160Y6858880D03*
%TO.P,U15,3*%
%TO.N,Net-(R29-Pad1)*%
X12786160Y6858880D03*
%TO.P,U15,7*%
%TO.N,Net-(U15-Pad7)*%
X22946160Y9398880D03*
%TO.P,U15,4*%
%TO.N,GNDPWR*%
X12786160Y4318880D03*
%TO.P,U15,8*%
%TO.N,Net-(U15-Pad8)*%
X22946160Y11938880D03*
%TD*%
D15*
%TO.P,R33,1*%
%TO.N,Net-(R33-Pad1)*%
X73842680Y6164880D03*
%TO.P,R33,2*%
%TO.N,Earth*%
X73842680Y8264880D03*
%TD*%
%TO.P,R46,1*%
%TO.N,Net-(R33-Pad1)*%
X73842680Y2159880D03*
%TO.P,R46,2*%
%TO.N,Net-(R46-Pad2)*%
X73842680Y4259880D03*
%TD*%
%TO.P,F3,1*%
%TO.N,/A485*%
X93332680Y10482880D03*
%TO.P,F3,2*%
%TO.N,Net-(D9-Pad2)*%
X95432680Y10482880D03*
%TD*%
%TO.P,F2,1*%
%TO.N,/B485*%
X78668680Y9271880D03*
%TO.P,F2,2*%
%TO.N,Net-(D8-Pad1)*%
X78668680Y11371880D03*
%TD*%
%TO.P,R45,1*%
%TO.N,+3V3*%
X46211000Y24778000D03*
%TO.P,R45,2*%
%TO.N,Net-(R45-Pad2)*%
X44111000Y24778000D03*
%TD*%
D13*
%TO.P,U9,1*%
%TO.N,+3V3*%
X50222372Y40307560D03*
D14*
%TO.P,U9,3*%
%TO.N,Net-(R15-Pad1)*%
X52762372Y47927560D03*
%TO.P,U9,2*%
%TO.N,Net-(R17-Pad2)*%
X52762372Y40307560D03*
%TO.P,U9,4*%
%TO.N,+24V*%
X50222372Y47927560D03*
%TD*%
D16*
%TO.P,D9,1*%
%TO.N,Earth*%
X91368680Y14038880D03*
%TO.P,D9,2*%
%TO.N,Net-(D9-Pad2)*%
X95668680Y14038880D03*
%TD*%
D15*
%TO.P,C20,1*%
%TO.N,+5VD*%
X73698480Y15004080D03*
%TO.P,C20,2*%
%TO.N,Earth*%
X75798480Y15004080D03*
%TD*%
D17*
%TO.P,U19,1*%
%TO.N,Net-(U18-Pad3)*%
X78666160Y17864120D03*
%TO.P,U19,2*%
%TO.N,Net-(R46-Pad2)*%
X78666160Y16594120D03*
%TO.P,U19,3*%
X78666160Y15324120D03*
%TO.P,U19,4*%
%TO.N,Net-(R44-Pad2)*%
X78666160Y14054120D03*
%TO.P,U19,5*%
%TO.N,Earth*%
X84066160Y14054120D03*
%TO.P,U19,6*%
%TO.N,Net-(D9-Pad2)*%
X84066160Y15324120D03*
%TO.P,U19,7*%
%TO.N,Net-(D8-Pad1)*%
X84066160Y16594120D03*
%TO.P,U19,8*%
%TO.N,+5VD*%
X84066160Y17864120D03*
%TD*%
D18*
%TO.P,K4,5*%
%TO.N,/24VAC-master*%
X88103560Y43760040D03*
%TO.P,K4,6*%
%TO.N,/PGSW3*%
X83103560Y43760040D03*
%TO.P,K4,7*%
%TO.N,Net-(JP7-Pad1)*%
X78103560Y43760040D03*
%TO.P,K4,4*%
%TO.N,/24VAC-master*%
X88103560Y51260040D03*
%TO.P,K4,3*%
%TO.N,/PGSW3*%
X83103560Y51260040D03*
%TO.P,K4,2*%
%TO.N,Net-(JP7-Pad1)*%
X78103560Y51260040D03*
%TO.P,K4,8*%
%TO.N,Net-(K4-Pad8)*%
X63103560Y43760040D03*
%TO.P,K4,1*%
%TO.N,+24V*%
X63103560Y51260040D03*
%TD*%
D19*
%TO.P,R30,1*%
%TO.N,Net-(J9-Pad1)*%
X2519480Y31427720D03*
D14*
%TO.P,R30,2*%
%TO.N,+24V*%
X2519480Y41587720D03*
%TD*%
D16*
%TO.P,D8,1*%
%TO.N,Net-(D8-Pad1)*%
X81462680Y10609880D03*
%TO.P,D8,2*%
%TO.N,Earth*%
X85762680Y10609880D03*
%TD*%
%TO.P,D2,1*%
%TO.N,VAC*%
X26722000Y84722000D03*
%TO.P,D2,2*%
%TO.N,GNDPWR*%
X31022000Y84722000D03*
%TD*%
D13*
%TO.P,U20,1*%
%TO.N,Net-(U20-Pad1)*%
X63316920Y16832880D03*
D14*
%TO.P,U20,5*%
%TO.N,Earth*%
X70936920Y9212880D03*
%TO.P,U20,2*%
%TO.N,Net-(R43-Pad2)*%
X63316920Y14292880D03*
%TO.P,U20,6*%
%TO.N,Net-(R44-Pad2)*%
X70936920Y11752880D03*
%TO.P,U20,3*%
%TO.N,TXD*%
X63316920Y11752880D03*
%TO.P,U20,7*%
%TO.N,Net-(U20-Pad7)*%
X70936920Y14292880D03*
%TO.P,U20,4*%
%TO.N,Net-(U20-Pad4)*%
X63316920Y9212880D03*
%TO.P,U20,8*%
%TO.N,+5VD*%
X70936920Y16832880D03*
%TD*%
D13*
%TO.P,U18,1*%
%TO.N,Net-(U18-Pad1)*%
X71373800Y20749560D03*
D14*
%TO.P,U18,5*%
%TO.N,GNDS*%
X78993800Y28369560D03*
%TO.P,U18,2*%
%TO.N,Net-(R41-Pad1)*%
X73913800Y20749560D03*
%TO.P,U18,6*%
%TO.N,RXD*%
X76453800Y28369560D03*
%TO.P,U18,3*%
%TO.N,Net-(U18-Pad3)*%
X76453800Y20749560D03*
%TO.P,U18,7*%
%TO.N,Net-(U18-Pad7)*%
X73913800Y28369560D03*
%TO.P,U18,4*%
%TO.N,Net-(U18-Pad4)*%
X78993800Y20749560D03*
%TO.P,U18,8*%
%TO.N,+3V3*%
X71373800Y28369560D03*
%TD*%
D17*
%TO.P,U17,1*%
%TO.N,Net-(R34-Pad1)*%
X28369080Y11788440D03*
%TO.P,U17,2*%
%TO.N,Net-(JP3-Pad2)*%
X28369080Y10518440D03*
%TO.P,U17,3*%
%TO.N,GNDS*%
X28369080Y9248440D03*
%TO.P,U17,4*%
X28369080Y7978440D03*
%TO.P,U17,5*%
%TO.N,N/C*%
X33769080Y7978440D03*
%TO.P,U17,6*%
X33769080Y9248440D03*
%TO.P,U17,7*%
X33769080Y10518440D03*
%TO.P,U17,8*%
%TO.N,+3V3*%
X33769080Y11788440D03*
%TD*%
D13*
%TO.P,U16,1*%
%TO.N,Net-(R32-Pad2)*%
X63316920Y5804200D03*
D14*
%TO.P,U16,3*%
%TO.N,Net-(R33-Pad1)*%
X70936920Y3264200D03*
%TO.P,U16,2*%
%TO.N,RW*%
X63316920Y3264200D03*
%TO.P,U16,4*%
%TO.N,+5VD*%
X70936920Y5804200D03*
%TD*%
D17*
%TO.P,U13,1*%
%TO.N,GNDS*%
X47668000Y22619000D03*
%TO.P,U13,2*%
X47668000Y21349000D03*
%TO.P,U13,3*%
X47668000Y20079000D03*
%TO.P,U13,4*%
X47668000Y18809000D03*
%TO.P,U13,5*%
%TO.N,/SDA*%
X53068000Y18809000D03*
%TO.P,U13,6*%
%TO.N,/SCL*%
X53068000Y20079000D03*
%TO.P,U13,7*%
%TO.N,Net-(U11-Pad6)*%
X53068000Y21349000D03*
%TO.P,U13,8*%
%TO.N,+3V3*%
X53068000Y22619000D03*
%TD*%
D20*
%TO.P,U12,8*%
%TO.N,+3V3*%
X25485160Y20734560D03*
%TO.P,U12,9*%
%TO.N,GNDS*%
X41235160Y20734560D03*
%TO.P,U12,7*%
%TO.N,Net-(U11-Pad12)*%
X25485160Y22734560D03*
%TO.P,U12,10*%
%TO.N,Net-(R26-Pad2)*%
X41235160Y22734560D03*
%TO.P,U12,6*%
%TO.N,Net-(U11-Pad11)*%
X25485160Y24734560D03*
%TO.P,U12,11*%
%TO.N,Net-(R45-Pad2)*%
X41235160Y24734560D03*
%TO.P,U12,5*%
%TO.N,/SDA*%
X25485160Y26734560D03*
%TO.P,U12,12*%
%TO.N,/SCL*%
X41235160Y26734560D03*
%TO.P,U12,4*%
%TO.N,LIMIT*%
X25485160Y28734560D03*
%TO.P,U12,13*%
%TO.N,Net-(U11-Pad14)*%
X41235160Y28734560D03*
%TO.P,U12,3*%
%TO.N,Net-(R16-Pad2)*%
X25485160Y30734560D03*
%TO.P,U12,14*%
%TO.N,RW*%
X41235160Y30734560D03*
%TO.P,U12,2*%
%TO.N,POT*%
X25485160Y32734560D03*
%TO.P,U12,15*%
%TO.N,RXD*%
X41235160Y32734560D03*
%TO.P,U12,1*%
%TO.N,Net-(SW1-Pad2)*%
X25485160Y34734560D03*
%TO.P,U12,16*%
%TO.N,TXD*%
X41235160Y34734560D03*
%TD*%
D21*
%TO.P,U11,1*%
%TO.N,Net-(J5-Pad2)*%
X54895000Y33450000D03*
%TO.P,U11,2*%
%TO.N,Net-(R22-Pad1)*%
X53625000Y33450000D03*
%TO.P,U11,3*%
%TO.N,Net-(R17-Pad1)*%
X52355000Y33450000D03*
%TO.P,U11,4*%
%TO.N,Net-(R11-Pad1)*%
X51085000Y33450000D03*
%TO.P,U11,5*%
%TO.N,Net-(R6-Pad1)*%
X49815000Y33450000D03*
%TO.P,U11,6*%
%TO.N,Net-(U11-Pad6)*%
X48545000Y33450000D03*
%TO.P,U11,7*%
%TO.N,Net-(U11-Pad7)*%
X47275000Y33450000D03*
%TO.P,U11,8*%
%TO.N,GNDS*%
X46005000Y33450000D03*
%TO.P,U11,9*%
%TO.N,Net-(U11-Pad9)*%
X46005000Y28050000D03*
%TO.P,U11,10*%
%TO.N,+3V3*%
X47275000Y28050000D03*
%TO.P,U11,11*%
%TO.N,Net-(U11-Pad11)*%
X48545000Y28050000D03*
%TO.P,U11,12*%
%TO.N,Net-(U11-Pad12)*%
X49815000Y28050000D03*
%TO.P,U11,13*%
%TO.N,Net-(R45-Pad2)*%
X51085000Y28050000D03*
%TO.P,U11,14*%
%TO.N,Net-(U11-Pad14)*%
X52355000Y28050000D03*
%TO.P,U11,15*%
%TO.N,Net-(J7-Pad2)*%
X53625000Y28050000D03*
%TO.P,U11,16*%
%TO.N,+3V3*%
X54895000Y28050000D03*
%TD*%
D13*
%TO.P,U10,1*%
%TO.N,+3V3*%
X56118560Y40307560D03*
D14*
%TO.P,U10,3*%
%TO.N,Net-(R21-Pad1)*%
X58658560Y47927560D03*
%TO.P,U10,2*%
%TO.N,Net-(R22-Pad2)*%
X58658560Y40307560D03*
%TO.P,U10,4*%
%TO.N,+24V*%
X56118560Y47927560D03*
%TD*%
D13*
%TO.P,U8,1*%
%TO.N,+3V3*%
X44326186Y40307560D03*
D14*
%TO.P,U8,3*%
%TO.N,Net-(R12-Pad2)*%
X46866186Y47927560D03*
%TO.P,U8,2*%
%TO.N,Net-(R11-Pad2)*%
X46866186Y40307560D03*
%TO.P,U8,4*%
%TO.N,+24V*%
X44326186Y47927560D03*
%TD*%
D13*
%TO.P,U7,1*%
%TO.N,Net-(R5-Pad2)*%
X48391880Y12144040D03*
D14*
%TO.P,U7,3*%
%TO.N,GNDS*%
X40771880Y14684040D03*
%TO.P,U7,2*%
%TO.N,GNDPWR*%
X48391880Y14684040D03*
%TO.P,U7,4*%
%TO.N,LIMIT*%
X40771880Y12144040D03*
%TD*%
D13*
%TO.P,U6,1*%
%TO.N,+3V3*%
X38430000Y40307560D03*
D14*
%TO.P,U6,3*%
%TO.N,Net-(R4-Pad1)*%
X40970000Y47927560D03*
%TO.P,U6,2*%
%TO.N,Net-(R6-Pad2)*%
X40970000Y40307560D03*
%TO.P,U6,4*%
%TO.N,+24V*%
X38430000Y47927560D03*
%TD*%
D22*
%TO.P,U5,2*%
%TO.N,+3V3*%
X13538000Y41694000D03*
D23*
X13538000Y47994000D03*
%TO.P,U5,3*%
%TO.N,+5V*%
X11238000Y47994000D03*
%TO.P,U5,1*%
%TO.N,GNDS*%
X15838000Y47994000D03*
%TD*%
D21*
%TO.P,U4,1*%
%TO.N,Net-(R4-Pad2)*%
X48341080Y60178000D03*
%TO.P,U4,2*%
%TO.N,Net-(R9-Pad2)*%
X49611080Y60178000D03*
%TO.P,U4,3*%
%TO.N,Net-(R15-Pad2)*%
X50881080Y60178000D03*
%TO.P,U4,4*%
%TO.N,Net-(R21-Pad2)*%
X52151080Y60178000D03*
%TO.P,U4,5*%
%TO.N,GNDPWR*%
X53421080Y60178000D03*
%TO.P,U4,6*%
X54691080Y60178000D03*
%TO.P,U4,7*%
X55961080Y60178000D03*
%TO.P,U4,8*%
X57231080Y60178000D03*
%TO.P,U4,9*%
%TO.N,+24V*%
X57231080Y65578000D03*
%TO.P,U4,10*%
%TO.N,Net-(U4-Pad10)*%
X55961080Y65578000D03*
%TO.P,U4,11*%
%TO.N,Net-(U4-Pad11)*%
X54691080Y65578000D03*
%TO.P,U4,12*%
%TO.N,Net-(U4-Pad12)*%
X53421080Y65578000D03*
%TO.P,U4,13*%
%TO.N,Net-(K4-Pad8)*%
X52151080Y65578000D03*
%TO.P,U4,14*%
%TO.N,Net-(K3-Pad8)*%
X50881080Y65578000D03*
%TO.P,U4,15*%
%TO.N,Net-(K2-Pad8)*%
X49611080Y65578000D03*
%TO.P,U4,16*%
%TO.N,Net-(K1-Pad8)*%
X48341080Y65578000D03*
%TD*%
D24*
%TO.P,U2,1*%
%TO.N,Net-(C4-Pad1)*%
X25814542Y68268194D03*
D25*
%TO.P,U2,2*%
%TO.N,GNDPWR*%
X25814542Y65728194D03*
%TO.P,U2,3*%
%TO.N,+24V*%
X25814542Y63188194D03*
%TD*%
D10*
%TO.P,SW1,2*%
%TO.N,Net-(SW1-Pad2)*%
X17020480Y34459600D03*
%TO.P,SW1,1*%
%TO.N,GNDS*%
X17020480Y29959600D03*
%TO.P,SW1,2*%
%TO.N,Net-(SW1-Pad2)*%
X10520480Y34459600D03*
%TO.P,SW1,1*%
%TO.N,GNDS*%
X10520480Y29959600D03*
%TD*%
D15*
%TO.P,R44,1*%
%TO.N,+5VD*%
X73673800Y12962400D03*
%TO.P,R44,2*%
%TO.N,Net-(R44-Pad2)*%
X75773800Y12962400D03*
%TD*%
%TO.P,R43,1*%
%TO.N,+3V3*%
X58909040Y14343680D03*
%TO.P,R43,2*%
%TO.N,Net-(R43-Pad2)*%
X61009040Y14343680D03*
%TD*%
%TO.P,R42,1*%
%TO.N,+5VD*%
X91072480Y17734580D03*
%TO.P,R42,2*%
%TO.N,Net-(D9-Pad2)*%
X88972480Y17734580D03*
%TD*%
%TO.P,R41,1*%
%TO.N,Net-(R41-Pad1)*%
X75231480Y18179080D03*
%TO.P,R41,2*%
%TO.N,+5VD*%
X73131480Y18179080D03*
%TD*%
%TO.P,R40,1*%
%TO.N,Net-(D9-Pad2)*%
X86847480Y17607580D03*
%TO.P,R40,2*%
%TO.N,Net-(D8-Pad1)*%
X86847480Y19707580D03*
%TD*%
%TO.P,R39,1*%
%TO.N,+3V3*%
X77381480Y30752080D03*
%TO.P,R39,2*%
%TO.N,RXD*%
X79481480Y30752080D03*
%TD*%
%TO.P,R38,1*%
%TO.N,Net-(JP3-Pad3)*%
X35031480Y3499840D03*
%TO.P,R38,2*%
%TO.N,Net-(JP3-Pad2)*%
X35031480Y1399840D03*
%TD*%
%TO.P,R37,1*%
%TO.N,Net-(R34-Pad1)*%
X31201160Y5230160D03*
%TO.P,R37,2*%
%TO.N,Net-(JP3-Pad3)*%
X33301160Y5230160D03*
%TD*%
%TO.P,R36,1*%
%TO.N,GNDS*%
X26121160Y5080880D03*
%TO.P,R36,2*%
%TO.N,Net-(R34-Pad1)*%
X26121160Y7180880D03*
%TD*%
%TO.P,R35,1*%
%TO.N,Net-(D8-Pad1)*%
X88942980Y19830080D03*
%TO.P,R35,2*%
%TO.N,Earth*%
X91042980Y19830080D03*
%TD*%
%TO.P,R34,1*%
%TO.N,Net-(R34-Pad1)*%
X26121160Y11684880D03*
%TO.P,R34,2*%
%TO.N,POT*%
X26121160Y13784880D03*
%TD*%
%TO.P,R32,1*%
%TO.N,+3V3*%
X58909040Y5794040D03*
%TO.P,R32,2*%
%TO.N,Net-(R32-Pad2)*%
X61009040Y5794040D03*
%TD*%
%TO.P,R31,1*%
%TO.N,Net-(J9-Pad2)*%
X9987080Y24833880D03*
%TO.P,R31,2*%
%TO.N,Net-(JP2-Pad2)*%
X9987080Y26933880D03*
%TD*%
%TO.P,R29,1*%
%TO.N,Net-(R29-Pad1)*%
X10617000Y19503000D03*
%TO.P,R29,2*%
%TO.N,Net-(JP2-Pad2)*%
X10617000Y21603000D03*
%TD*%
D26*
%TO.P,R28,1*%
%TO.N,Net-(R28-Pad1)*%
X4277160Y11430880D03*
D27*
%TO.P,R28,2*%
%TO.N,+24V*%
X9357160Y11430880D03*
%TD*%
D15*
%TO.P,R26,1*%
%TO.N,GNDS*%
X44104360Y20526040D03*
%TO.P,R26,2*%
%TO.N,Net-(R26-Pad2)*%
X44104360Y22626040D03*
%TD*%
%TO.P,R25,1*%
%TO.N,/SDA*%
X55410480Y17406920D03*
%TO.P,R25,2*%
%TO.N,+3V3*%
X57510480Y17406920D03*
%TD*%
%TO.P,R24,1*%
%TO.N,/SCL*%
X55380000Y19530360D03*
%TO.P,R24,2*%
%TO.N,+3V3*%
X57480000Y19530360D03*
%TD*%
%TO.P,R23,1*%
%TO.N,GNDPWR*%
X57183906Y53036480D03*
%TO.P,R23,2*%
%TO.N,Net-(R21-Pad1)*%
X57183906Y50936480D03*
%TD*%
%TO.P,R22,1*%
%TO.N,Net-(R22-Pad1)*%
X54619960Y37914880D03*
%TO.P,R22,2*%
%TO.N,Net-(R22-Pad2)*%
X56719960Y37914880D03*
%TD*%
%TO.P,R21,1*%
%TO.N,Net-(R21-Pad1)*%
X59263080Y50936480D03*
%TO.P,R21,2*%
%TO.N,Net-(R21-Pad2)*%
X59263080Y53036480D03*
%TD*%
%TO.P,R20,1*%
%TO.N,GNDPWR*%
X53025564Y53036480D03*
%TO.P,R20,2*%
%TO.N,Net-(R15-Pad1)*%
X53025564Y50936480D03*
%TD*%
%TO.P,R19,1*%
%TO.N,TXD*%
X31233160Y38769880D03*
%TO.P,R19,2*%
%TO.N,Net-(J8-Pad3)*%
X31233160Y40869880D03*
%TD*%
%TO.P,R18,1*%
%TO.N,RXD*%
X29106680Y38769880D03*
%TO.P,R18,2*%
%TO.N,Net-(J8-Pad2)*%
X29106680Y40869880D03*
%TD*%
%TO.P,R17,1*%
%TO.N,Net-(R17-Pad1)*%
X50376200Y37914880D03*
%TO.P,R17,2*%
%TO.N,Net-(R17-Pad2)*%
X52476200Y37914880D03*
%TD*%
%TO.P,R16,1*%
%TO.N,+3V3*%
X20419440Y30721600D03*
%TO.P,R16,2*%
%TO.N,Net-(R16-Pad2)*%
X22519440Y30721600D03*
%TD*%
%TO.P,R15,1*%
%TO.N,Net-(R15-Pad1)*%
X55104735Y50936480D03*
%TO.P,R15,2*%
%TO.N,Net-(R15-Pad2)*%
X55104735Y53036480D03*
%TD*%
%TO.P,R14,1*%
%TO.N,Net-(D6-Pad2)*%
X35326120Y38769880D03*
%TO.P,R14,2*%
%TO.N,+3V3*%
X35326120Y40869880D03*
%TD*%
%TO.P,R13,1*%
%TO.N,Net-(D5-Pad2)*%
X25013720Y38769880D03*
%TO.P,R13,2*%
%TO.N,+3V3*%
X25013720Y40869880D03*
%TD*%
%TO.P,R12,1*%
%TO.N,GNDPWR*%
X50946393Y53036480D03*
%TO.P,R12,2*%
%TO.N,Net-(R12-Pad2)*%
X50946393Y50936480D03*
%TD*%
%TO.P,R11,1*%
%TO.N,Net-(R11-Pad1)*%
X47624800Y37914880D03*
%TO.P,R11,2*%
%TO.N,Net-(R11-Pad2)*%
X45524800Y37914880D03*
%TD*%
%TO.P,R10,1*%
%TO.N,Net-(J7-Pad2)*%
X62209480Y22126240D03*
%TO.P,R10,2*%
%TO.N,Net-(D4-Pad1)*%
X64309480Y22126240D03*
%TD*%
%TO.P,R9,1*%
%TO.N,Net-(R12-Pad2)*%
X48867222Y50936480D03*
%TO.P,R9,2*%
%TO.N,Net-(R9-Pad2)*%
X48867222Y53036480D03*
%TD*%
%TO.P,R8,1*%
%TO.N,Net-(J5-Pad2)*%
X58834400Y31798560D03*
%TO.P,R8,2*%
%TO.N,Net-(D3-Pad1)*%
X60934400Y31798560D03*
%TD*%
%TO.P,R7,1*%
%TO.N,GNDPWR*%
X46788051Y53036480D03*
%TO.P,R7,2*%
%TO.N,Net-(R4-Pad1)*%
X46788051Y50936480D03*
%TD*%
%TO.P,R6,1*%
%TO.N,Net-(R6-Pad1)*%
X41710120Y37914880D03*
%TO.P,R6,2*%
%TO.N,Net-(R6-Pad2)*%
X39610120Y37914880D03*
%TD*%
%TO.P,R5,1*%
%TO.N,Net-(C12-Pad1)*%
X53100000Y10300000D03*
%TO.P,R5,2*%
%TO.N,Net-(R5-Pad2)*%
X51000000Y10300000D03*
%TD*%
%TO.P,R4,1*%
%TO.N,Net-(R4-Pad1)*%
X44708880Y50936480D03*
%TO.P,R4,2*%
%TO.N,Net-(R4-Pad2)*%
X44708880Y53036480D03*
%TD*%
%TO.P,R3,1*%
%TO.N,LIMIT*%
X38277600Y9625920D03*
%TO.P,R3,2*%
%TO.N,+3V3*%
X38277600Y11725920D03*
%TD*%
D19*
%TO.P,R2,1*%
%TO.N,+5VD*%
X81980840Y28521960D03*
D14*
%TO.P,R2,2*%
%TO.N,Earth*%
X92140840Y28521960D03*
%TD*%
D19*
%TO.P,R1,1*%
%TO.N,+5V*%
X2616000Y51194000D03*
D14*
%TO.P,R1,2*%
%TO.N,GNDS*%
X12776000Y51194000D03*
%TD*%
D18*
%TO.P,K3,5*%
%TO.N,/24VAC-master*%
X88103560Y57287028D03*
%TO.P,K3,6*%
%TO.N,/PGSW2*%
X83103560Y57287028D03*
%TO.P,K3,7*%
%TO.N,Net-(JP6-Pad1)*%
X78103560Y57287028D03*
%TO.P,K3,4*%
%TO.N,/24VAC-master*%
X88103560Y64787028D03*
%TO.P,K3,3*%
%TO.N,/PGSW2*%
X83103560Y64787028D03*
%TO.P,K3,2*%
%TO.N,Net-(JP6-Pad1)*%
X78103560Y64787028D03*
%TO.P,K3,8*%
%TO.N,Net-(K3-Pad8)*%
X63103560Y57287028D03*
%TO.P,K3,1*%
%TO.N,+24V*%
X63103560Y64787028D03*
%TD*%
%TO.P,K2,5*%
%TO.N,/24VAC-master*%
X88103560Y70814014D03*
%TO.P,K2,6*%
%TO.N,/PGSW1*%
X83103560Y70814014D03*
%TO.P,K2,7*%
%TO.N,Net-(JP5-Pad1)*%
X78103560Y70814014D03*
%TO.P,K2,4*%
%TO.N,/24VAC-master*%
X88103560Y78314014D03*
%TO.P,K2,3*%
%TO.N,/PGSW1*%
X83103560Y78314014D03*
%TO.P,K2,2*%
%TO.N,Net-(JP5-Pad1)*%
X78103560Y78314014D03*
%TO.P,K2,8*%
%TO.N,Net-(K2-Pad8)*%
X63103560Y70814014D03*
%TO.P,K2,1*%
%TO.N,+24V*%
X63103560Y78314014D03*
%TD*%
%TO.P,K1,5*%
%TO.N,VAC*%
X88103560Y84341000D03*
%TO.P,K1,6*%
%TO.N,/24VAC-master*%
X83103560Y84341000D03*
%TO.P,K1,7*%
%TO.N,Net-(JP4-Pad1)*%
X78103560Y84341000D03*
%TO.P,K1,4*%
%TO.N,VAC*%
X88103560Y91841000D03*
%TO.P,K1,3*%
%TO.N,/24VAC-master*%
X83103560Y91841000D03*
%TO.P,K1,2*%
%TO.N,Net-(JP4-Pad1)*%
X78103560Y91841000D03*
%TO.P,K1,8*%
%TO.N,Net-(K1-Pad8)*%
X63103560Y84341000D03*
%TO.P,K1,1*%
%TO.N,+24V*%
X63103560Y91841000D03*
%TD*%
D28*
%TO.P,JP3,3*%
%TO.N,Net-(JP3-Pad3)*%
X32440680Y2476800D03*
%TO.P,JP3,2*%
%TO.N,Net-(JP3-Pad2)*%
X29900680Y2476800D03*
%TO.P,JP3,1*%
%TO.N,Net-(JP3-Pad1)*%
X27360680Y2476800D03*
%TD*%
%TO.P,JP2,3*%
%TO.N,Net-(JP2-Pad3)*%
X6309160Y38608880D03*
%TO.P,JP2,2*%
%TO.N,Net-(JP2-Pad2)*%
X6309160Y36068880D03*
%TO.P,JP2,1*%
%TO.N,Net-(J9-Pad1)*%
X6309160Y33528880D03*
%TD*%
%TO.P,JP1,3*%
%TO.N,GNDS*%
X32521960Y17188480D03*
%TO.P,JP1,2*%
%TO.N,/SCL*%
X35061960Y17188480D03*
%TO.P,JP1,1*%
%TO.N,Net-(JP1-Pad1)*%
X37601960Y17188480D03*
%TD*%
D18*
%TO.P,J10,3*%
%TO.N,/A485*%
X88033680Y3497880D03*
%TO.P,J10,2*%
%TO.N,Earth*%
X83033680Y3497880D03*
%TO.P,J10,1*%
%TO.N,/B485*%
X78033680Y3497880D03*
%TD*%
%TO.P,J9,3*%
%TO.N,GNDPWR*%
X3499920Y16568720D03*
%TO.P,J9,2*%
%TO.N,Net-(J9-Pad2)*%
X3499920Y21568720D03*
%TO.P,J9,1*%
%TO.N,Net-(J9-Pad1)*%
X3499920Y26568720D03*
%TD*%
D28*
%TO.P,J8,4*%
%TO.N,GNDS*%
X33751320Y44645880D03*
%TO.P,J8,3*%
%TO.N,Net-(J8-Pad3)*%
X31211320Y44645880D03*
%TO.P,J8,1*%
%TO.N,+3V3*%
X26131320Y44645880D03*
%TO.P,J8,2*%
%TO.N,Net-(J8-Pad2)*%
X28671320Y44645880D03*
%TD*%
%TO.P,J7,2*%
%TO.N,Net-(J7-Pad2)*%
X64282120Y26759200D03*
%TO.P,J7,1*%
%TO.N,+3V3*%
X66822120Y26759200D03*
%TD*%
D18*
%TO.P,J6,2*%
%TO.N,GNDPWR*%
X96535040Y47338280D03*
%TO.P,J6,1*%
X96535040Y42338280D03*
%TD*%
D28*
%TO.P,J5,2*%
%TO.N,Net-(J5-Pad2)*%
X60685480Y36340080D03*
%TO.P,J5,1*%
%TO.N,+3V3*%
X63225480Y36340080D03*
%TD*%
D18*
%TO.P,J4,2*%
%TO.N,GNDPWR*%
X45704560Y3492800D03*
%TO.P,J4,1*%
%TO.N,Net-(C12-Pad1)*%
X40704560Y3492800D03*
%TD*%
%TO.P,J3,2*%
%TO.N,/PGSW2*%
X96535040Y76639720D03*
%TO.P,J3,1*%
%TO.N,/PGSW3*%
X96535040Y71639720D03*
%TD*%
%TO.P,J2,2*%
%TO.N,/24VAC-master*%
X96535040Y88406280D03*
%TO.P,J2,1*%
%TO.N,/PGSW1*%
X96535040Y83406280D03*
%TD*%
%TO.P,J1,2*%
%TO.N,GNDPWR*%
X3499920Y82349640D03*
%TO.P,J1,1*%
%TO.N,Net-(F1-Pad2)*%
X3499920Y87349640D03*
%TD*%
D29*
%TO.P,F1,2*%
%TO.N,Net-(F1-Pad2)*%
X15449000Y92913500D03*
%TO.P,F1,1*%
%TO.N,VAC*%
X38049000Y92913500D03*
%TD*%
D15*
%TO.P,D7,2*%
%TO.N,POT*%
X28229360Y13723920D03*
%TO.P,D7,1*%
%TO.N,GNDS*%
X30429360Y13723920D03*
%TD*%
%TO.P,D6,2*%
%TO.N,Net-(D6-Pad2)*%
X33279640Y40869880D03*
%TO.P,D6,1*%
%TO.N,TXD*%
X33279640Y38669880D03*
%TD*%
%TO.P,D5,2*%
%TO.N,Net-(D5-Pad2)*%
X27060200Y40869880D03*
%TO.P,D5,1*%
%TO.N,RXD*%
X27060200Y38669880D03*
%TD*%
%TO.P,D4,2*%
%TO.N,+3V3*%
X68346480Y22151640D03*
%TO.P,D4,1*%
%TO.N,Net-(D4-Pad1)*%
X66146480Y22151640D03*
%TD*%
%TO.P,D3,2*%
%TO.N,+3V3*%
X65029240Y31742680D03*
%TO.P,D3,1*%
%TO.N,Net-(D3-Pad1)*%
X62829240Y31742680D03*
%TD*%
D30*
%TO.P,D1,1*%
%TO.N,Net-(C4-Pad1)*%
X12522000Y83388500D03*
D31*
%TO.P,D1,2*%
%TO.N,VAC*%
X22682000Y83388500D03*
%TD*%
D15*
%TO.P,C19,1*%
%TO.N,GNDS*%
X73131480Y30879080D03*
%TO.P,C19,2*%
%TO.N,+3V3*%
X71031480Y30879080D03*
%TD*%
%TO.P,C18,1*%
%TO.N,+5VD*%
X84322720Y19728480D03*
%TO.P,C18,2*%
%TO.N,Earth*%
X82222720Y19728480D03*
%TD*%
%TO.P,C17,1*%
%TO.N,+3V3*%
X36093200Y11719280D03*
%TO.P,C17,2*%
%TO.N,GNDS*%
X36093200Y9619280D03*
%TD*%
%TO.P,C16,1*%
%TO.N,+24V*%
X12904560Y25677160D03*
%TO.P,C16,2*%
%TO.N,GNDPWR*%
X15004560Y25677160D03*
%TD*%
%TO.P,C15,1*%
%TO.N,GNDS*%
X58391280Y22928880D03*
%TO.P,C15,2*%
%TO.N,+3V3*%
X56291280Y22928880D03*
%TD*%
%TO.P,C14,1*%
%TO.N,+3V3*%
X22692160Y20383800D03*
%TO.P,C14,2*%
%TO.N,GNDS*%
X22692160Y18283800D03*
%TD*%
%TO.P,C13,1*%
%TO.N,GNDS*%
X58907480Y27831080D03*
%TO.P,C13,2*%
%TO.N,+3V3*%
X56807480Y27831080D03*
%TD*%
D13*
%TO.P,C12,1*%
%TO.N,Net-(C12-Pad1)*%
X53116280Y6266480D03*
D19*
%TO.P,C12,2*%
%TO.N,GNDPWR*%
X53116280Y2766480D03*
%TD*%
D13*
%TO.P,C11,1*%
%TO.N,+3V3*%
X20396000Y44844000D03*
D19*
%TO.P,C11,2*%
%TO.N,GNDS*%
X20396000Y47344000D03*
%TD*%
D15*
%TO.P,C10,1*%
%TO.N,+5VD*%
X87814240Y38961360D03*
%TO.P,C10,2*%
%TO.N,Earth*%
X89914240Y38961360D03*
%TD*%
D13*
%TO.P,C9,1*%
%TO.N,+5VD*%
X89880240Y35735560D03*
D19*
%TO.P,C9,2*%
%TO.N,Earth*%
X89880240Y33235560D03*
%TD*%
D15*
%TO.P,C8,1*%
%TO.N,+24V*%
X65103520Y39840200D03*
%TO.P,C8,2*%
%TO.N,GNDPWR*%
X63003520Y39840200D03*
%TD*%
%TO.P,C7,1*%
%TO.N,+24V*%
X22428000Y63068500D03*
%TO.P,C7,2*%
%TO.N,GNDPWR*%
X22428000Y65168500D03*
%TD*%
%TO.P,C6,1*%
%TO.N,Net-(C4-Pad1)*%
X22686500Y72149000D03*
%TO.P,C6,2*%
%TO.N,GNDPWR*%
X20586500Y72149000D03*
%TD*%
D13*
%TO.P,C5,1*%
%TO.N,Net-(C4-Pad1)*%
X23098560Y76177440D03*
D19*
%TO.P,C5,2*%
%TO.N,GNDPWR*%
X20598560Y76177440D03*
%TD*%
D32*
%TO.P,C4,1*%
%TO.N,Net-(C4-Pad1)*%
X13792000Y70498000D03*
D26*
%TO.P,C4,2*%
%TO.N,GNDPWR*%
X6292000Y70498000D03*
%TD*%
D15*
%TO.P,C3,1*%
%TO.N,+5V*%
X8458000Y48434000D03*
%TO.P,C3,2*%
%TO.N,GNDS*%
X8458000Y46334000D03*
%TD*%
D13*
%TO.P,C2,1*%
%TO.N,+5V*%
X3124000Y46368000D03*
D19*
%TO.P,C2,2*%
%TO.N,GNDS*%
X5624000Y46368000D03*
%TD*%
D15*
%TO.P,C1,1*%
%TO.N,+24V*%
X23376000Y54496000D03*
%TO.P,C1,2*%
%TO.N,GNDPWR*%
X25476000Y54496000D03*
%TD*%
D33*
%TO.N,*%
X95000000Y5000000D03*
D34*
%TO.N,+24V*%
X57734000Y68212000D03*
D33*
%TO.N,GNDPWR*%
X5000000Y95000000D03*
X95000000Y95000000D03*
X5000000Y5000000D03*
D35*
X17030500Y25667000D03*
X47447000Y54877000D03*
X51257000Y54877000D03*
X53162000Y54877000D03*
X56713312Y54872312D03*
X58115000Y58179000D03*
D36*
X34112000Y84722000D03*
D35*
X27101600Y54546800D03*
X16977160Y15494880D03*
D37*
%TO.N,GNDS*%
X22671840Y16675400D03*
D35*
X32334000Y13729000D03*
X36144000Y7887000D03*
X60050480Y22878080D03*
X42016480Y18814080D03*
X44048480Y18814080D03*
X46080480Y17544080D03*
X74782480Y30879080D03*
X45648680Y35019280D03*
X28884680Y6672874D03*
X28026160Y5080880D03*
%TO.N,Earth*%
X82275480Y21481080D03*
X76230982Y16487281D03*
X85831480Y13861080D03*
X92752980Y19830080D03*
D38*
X88117480Y14750080D03*
D35*
X91216280Y37813280D03*
D38*
X89336696Y10990880D03*
D35*
%TO.N,+3V3*%
X35539480Y14115080D03*
X22026680Y15054880D03*
X47282252Y31183989D03*
X47300104Y29167978D03*
%TO.N,TXD*%
X59009800Y29339467D03*
X44227000Y33485600D03*
%TO.N,RXD*%
X56483733Y30220467D03*
%TO.N,Net-(J7-Pad2)*%
X56591000Y25794000D03*
%TO.N,/SCL*%
X43739163Y28549167D03*
X53161998Y24524000D03*
%TO.N,LIMIT*%
X40162280Y18610880D03*
X29006980Y19110879D03*
%TO.N,/SDA*%
X22737880Y26738880D03*
X51377274Y24022707D03*
%TO.N,Net-(U11-Pad6)*%
X55732480Y21227080D03*
X48796499Y32471329D03*
%TO.N,Net-(U11-Pad11)*%
X22738600Y24798800D03*
X44398994Y26556000D03*
%TO.N,Net-(U11-Pad12)*%
X22738600Y22716000D03*
X49337929Y25610827D03*
%TO.N,RW*%
X36048200Y24036800D03*
X49840782Y23086805D03*
%TO.N,Net-(JP3-Pad2)*%
X36662160Y1651880D03*
X26502160Y9906880D03*
%TD*%
D39*
%TO.N,+24V*%
X19634000Y54496000D02*
X23376000Y54496000D01*
D40*
X12904560Y23037200D02*
X12849560Y22982200D01*
X12904560Y25677160D02*
X12904560Y23037200D01*
D41*
X25694848Y63068500D02*
X25814542Y63188194D01*
X22428000Y63068500D02*
X25694848Y63068500D01*
X25814542Y59347542D02*
X23376000Y56909000D01*
X25814542Y63188194D02*
X25814542Y59347542D01*
X23376000Y56909000D02*
X23376000Y54496000D01*
D39*
X23376000Y53134000D02*
X26459000Y50051000D01*
X23376000Y54496000D02*
X23376000Y53134000D01*
X36306560Y50051000D02*
X38430000Y47927560D01*
X26459000Y50051000D02*
X36306560Y50051000D01*
D42*
X57231080Y67836080D02*
X57231080Y65578000D01*
X57734000Y68212000D02*
X57231080Y67836080D01*
D41*
X64353559Y79564013D02*
X63103560Y78314014D01*
X65862000Y81072454D02*
X64353559Y79564013D01*
X65862000Y89082560D02*
X65862000Y81072454D01*
X63103560Y91841000D02*
X65862000Y89082560D01*
X64353559Y66037027D02*
X63103560Y64787028D01*
X65234561Y66918029D02*
X64353559Y66037027D01*
X65234561Y76183013D02*
X65234561Y66918029D01*
X63103560Y78314014D02*
X65234561Y76183013D01*
X64353559Y52510039D02*
X63103560Y51260040D01*
X65234561Y53391041D02*
X64353559Y52510039D01*
X65234561Y62656027D02*
X65234561Y53391041D01*
X63103560Y64787028D02*
X65234561Y62656027D01*
D42*
X65738520Y39205200D02*
X65103520Y39840200D01*
X68838880Y39205200D02*
X65738520Y39205200D01*
D39*
X68838880Y45524720D02*
X68838880Y39205200D01*
X63103560Y51260040D02*
X68838880Y45524720D01*
X67838881Y40205199D02*
X68838880Y39205200D01*
X66714879Y41329201D02*
X67838881Y40205199D01*
X62431653Y41329201D02*
X66714879Y41329201D01*
X56918559Y46842295D02*
X62431653Y41329201D01*
X56918559Y47127561D02*
X56918559Y46842295D01*
X56118560Y47927560D02*
X56918559Y47127561D01*
X43526187Y47127561D02*
X44326186Y47927560D01*
X42764185Y46365559D02*
X43526187Y47127561D01*
X38860631Y46365559D02*
X42764185Y46365559D01*
X38430000Y46796190D02*
X38860631Y46365559D01*
X38430000Y47927560D02*
X38430000Y46796190D01*
X49422373Y47127561D02*
X50222372Y47927560D01*
X48660371Y46365559D02*
X49422373Y47127561D01*
X45888187Y46365559D02*
X48660371Y46365559D01*
X44326186Y47927560D02*
X45888187Y46365559D01*
X55318561Y47127561D02*
X56118560Y47927560D01*
X54556559Y46365559D02*
X55318561Y47127561D01*
X51784373Y46365559D02*
X54556559Y46365559D01*
X50222372Y47927560D02*
X51784373Y46365559D01*
D40*
X12904560Y26658160D02*
X12904560Y25677160D01*
X12904560Y34401342D02*
X12904560Y26658160D01*
X5718182Y41587720D02*
X12904560Y34401342D01*
X2519480Y41587720D02*
X5718182Y41587720D01*
X9357160Y13127936D02*
X9357160Y11430880D01*
X9357160Y13595262D02*
X9357160Y13127936D01*
X4435201Y18517221D02*
X9357160Y13595262D01*
X2564639Y18517221D02*
X4435201Y18517221D01*
X1147979Y19933881D02*
X2564639Y18517221D01*
X1147979Y40216219D02*
X1147979Y19933881D01*
X2519480Y41587720D02*
X1147979Y40216219D01*
D43*
X68838880Y40619413D02*
X68838880Y39205200D01*
X68954481Y41713201D02*
X68880160Y41638880D01*
X68880160Y41638880D02*
X68838880Y40619413D01*
X72825092Y41713201D02*
X68954481Y41713201D01*
X73918880Y40619413D02*
X72825092Y41713201D01*
X73918880Y39205200D02*
X73918880Y40619413D01*
X19634000Y55910213D02*
X19634000Y54496000D01*
X18540212Y57004001D02*
X19634000Y55910213D01*
X15647788Y57004001D02*
X18540212Y57004001D01*
X14554000Y55910213D02*
X15647788Y57004001D01*
X14554000Y54496000D02*
X14554000Y55910213D01*
D39*
X853991Y51923849D02*
X853991Y43253209D01*
X22428000Y63068500D02*
X11998642Y63068500D01*
X11998642Y63068500D02*
X853991Y51923849D01*
X853991Y43253209D02*
X2519480Y41587720D01*
D40*
%TO.N,GNDPWR*%
X15985560Y25677160D02*
X15995720Y25667000D01*
X15004560Y25677160D02*
X15985560Y25677160D01*
X15995720Y25667000D02*
X17030500Y25667000D01*
D41*
X20598560Y72161060D02*
X20586500Y72149000D01*
X20598560Y76177440D02*
X20598560Y72161060D01*
D39*
X23790000Y65168500D02*
X22428000Y65168500D01*
X24312994Y65691494D02*
X23790000Y65168500D01*
X24312994Y65728194D02*
X24312994Y65691494D01*
X25814542Y65728194D02*
X24312994Y65728194D01*
D40*
X46788051Y53036480D02*
X46788051Y54218051D01*
X46788051Y54218051D02*
X47447000Y54877000D01*
X50946393Y53036480D02*
X50946393Y54566393D01*
X50946393Y54566393D02*
X51257000Y54877000D01*
X53025564Y53036480D02*
X53025564Y54740564D01*
X53025564Y54740564D02*
X53162000Y54877000D01*
X57183906Y53036480D02*
X57183906Y54401718D01*
X57183906Y54401718D02*
X56713312Y54872312D01*
X57231080Y58184080D02*
X57231080Y60178000D01*
X57226000Y58179000D02*
X57231080Y58184080D01*
X55961080Y58184080D02*
X55956000Y58179000D01*
X55961080Y60178000D02*
X55961080Y58184080D01*
X55956000Y58179000D02*
X57226000Y58179000D01*
X54686000Y59041920D02*
X54686000Y58179000D01*
X54691080Y59047000D02*
X54686000Y59041920D01*
X54691080Y60178000D02*
X54691080Y59047000D01*
X54686000Y58179000D02*
X55956000Y58179000D01*
X53421080Y60178000D02*
X53421080Y58681920D01*
X53924000Y58179000D02*
X54686000Y58179000D01*
X53421080Y58681920D02*
X53924000Y58179000D01*
X57226000Y58179000D02*
X58115000Y58179000D01*
D39*
X31022000Y84722000D02*
X34112000Y84722000D01*
D42*
X25476000Y54496000D02*
X27050800Y54496000D01*
X27050800Y54496000D02*
X27101600Y54546800D01*
D40*
X70378881Y38205201D02*
X71378880Y39205200D01*
X69680379Y37506699D02*
X70378881Y38205201D01*
X64356021Y37506699D02*
X69680379Y37506699D01*
X63003520Y38859200D02*
X64356021Y37506699D01*
X63003520Y39840200D02*
X63003520Y38859200D01*
X16659560Y15812480D02*
X16977160Y15494880D01*
X16239880Y16256880D02*
X16659560Y16256880D01*
X15389560Y17107200D02*
X16239880Y16256880D01*
X15389560Y17582200D02*
X15389560Y17107200D01*
X16659560Y17582200D02*
X16659560Y16256880D01*
X16659560Y16256880D02*
X16659560Y15812480D01*
D41*
%TO.N,+5V*%
X6934000Y54496000D02*
X5918000Y54496000D01*
X2616000Y46876000D02*
X3124000Y46368000D01*
X2616000Y51194000D02*
X2616000Y46876000D01*
X10798000Y48434000D02*
X11238000Y47994000D01*
X8458000Y48434000D02*
X10798000Y48434000D01*
D42*
X3124000Y47676000D02*
X3124000Y46368000D01*
X3882000Y48434000D02*
X3124000Y47676000D01*
X8458000Y48434000D02*
X3882000Y48434000D01*
D43*
X2816009Y51394009D02*
X2816009Y51194000D01*
X2616000Y51194000D02*
X2816009Y51394009D01*
D41*
X2616000Y51194000D02*
X5918000Y54496000D01*
X6934000Y54496000D02*
X9474000Y54496000D01*
D42*
%TO.N,GNDS*%
X22692160Y18283800D02*
X22692160Y16695720D01*
D41*
X12014000Y51956000D02*
X12776000Y51194000D01*
X12014000Y54496000D02*
X12014000Y51956000D01*
X19746000Y47994000D02*
X20396000Y47344000D01*
X15838000Y47994000D02*
X19746000Y47994000D01*
X8424000Y46368000D02*
X8458000Y46334000D01*
X5624000Y46368000D02*
X8424000Y46368000D01*
D40*
X30429360Y13723920D02*
X32328920Y13723920D01*
X32328920Y13723920D02*
X32334000Y13729000D01*
D42*
X36093200Y9619280D02*
X36093200Y7937800D01*
X36093200Y7937800D02*
X36144000Y7887000D01*
X58391280Y22928880D02*
X59999680Y22928880D01*
X59999680Y22928880D02*
X60050480Y22878080D01*
X41235160Y20734560D02*
X41235160Y19595400D01*
X41235160Y19595400D02*
X42016480Y18814080D01*
X44104360Y20526040D02*
X44104360Y18869960D01*
X44104360Y18869960D02*
X44048480Y18814080D01*
X46385000Y22619000D02*
X46080480Y22314480D01*
X47668000Y22619000D02*
X46385000Y22619000D01*
X46080480Y17925080D02*
X46080480Y17544080D01*
X46085560Y18809000D02*
X46080480Y18814080D01*
X47668000Y18809000D02*
X46085560Y18809000D01*
X46080480Y18814080D02*
X46080480Y17925080D01*
X46212560Y20079000D02*
X46080480Y20211080D01*
X47668000Y20079000D02*
X46212560Y20079000D01*
X46080480Y20211080D02*
X46080480Y18814080D01*
X46202400Y21349000D02*
X46080480Y21227080D01*
X47668000Y21349000D02*
X46202400Y21349000D01*
X46080480Y22314480D02*
X46080480Y21227080D01*
X46080480Y21227080D02*
X46080480Y20211080D01*
X73131480Y30879080D02*
X74782480Y30879080D01*
X46005000Y33450000D02*
X46005000Y34662960D01*
X46005000Y34662960D02*
X45648680Y35019280D01*
D44*
X58907480Y24021080D02*
X60042471Y22886089D01*
X58907480Y27831080D02*
X58907480Y24021080D01*
X58907480Y23445080D02*
X58391280Y22928880D01*
X58907480Y27831080D02*
X58907480Y23445080D01*
D40*
X28369080Y7978440D02*
X28369080Y7188474D01*
X28384681Y7172873D02*
X28884680Y6672874D01*
X28369080Y7188474D02*
X28384681Y7172873D01*
X26121160Y5080880D02*
X28026160Y5080880D01*
D45*
X27340080Y9248440D02*
X27010160Y8918520D01*
X28369080Y9248440D02*
X27340080Y9248440D01*
X27010160Y8918520D02*
X27010160Y8862360D01*
X27340080Y7978440D02*
X28369080Y7978440D01*
X27010160Y8308360D02*
X27340080Y7978440D01*
X27010160Y8918520D02*
X27010160Y8308360D01*
D41*
%TO.N,Net-(C4-Pad1)*%
X23098560Y77977440D02*
X23098560Y76177440D01*
X17687500Y83388500D02*
X23098560Y77977440D01*
X12522000Y83388500D02*
X17687500Y83388500D01*
X25814542Y70620958D02*
X25814542Y68268194D01*
X22686500Y72149000D02*
X24286500Y72149000D01*
X24286500Y72149000D02*
X25814542Y70620958D01*
X22686500Y73965380D02*
X22686500Y72149000D01*
X23098560Y76177440D02*
X23098560Y74377440D01*
X23098560Y74377440D02*
X22686500Y73965380D01*
X22686500Y71158400D02*
X22686500Y72149000D01*
X22026100Y70498000D02*
X22686500Y71158400D01*
X13792000Y70498000D02*
X22026100Y70498000D01*
D40*
%TO.N,+5VD*%
X84066160Y17864120D02*
X84500520Y17864120D01*
X84500520Y17864120D02*
X84815480Y18179080D01*
X84815480Y18179080D02*
X84815480Y19957080D01*
X73698480Y15004080D02*
X72717480Y15004080D01*
X72496480Y15004080D02*
X71099480Y16401080D01*
X72717480Y15004080D02*
X72496480Y15004080D01*
X73258480Y16944080D02*
X74055480Y16147080D01*
X73258480Y17925080D02*
X73258480Y16944080D01*
X74055480Y14785080D02*
X74020480Y14750080D01*
X74055480Y16147080D02*
X74055480Y14785080D01*
D42*
X73131480Y18179080D02*
X71201278Y18179080D01*
X71201278Y18179080D02*
X69938799Y19441559D01*
X77843279Y24384399D02*
X81980840Y28521960D01*
X84322720Y27561840D02*
X84322720Y22116080D01*
X83362600Y28521960D02*
X84322720Y27561840D01*
X81980840Y28521960D02*
X83362600Y28521960D01*
X69974161Y23132080D02*
X71226480Y24384399D01*
X69938799Y23132080D02*
X69974161Y23132080D01*
X71226480Y24384399D02*
X77843279Y24384399D01*
X69938799Y19441559D02*
X69938799Y23132080D01*
X84322720Y22116080D02*
X84322720Y21163580D01*
X84322720Y21163580D02*
X84322720Y19728480D01*
X92180480Y17734580D02*
X91072480Y17734580D01*
X92337282Y17734580D02*
X92180480Y17734580D01*
X93887981Y19285279D02*
X92337282Y17734580D01*
X93887981Y20374881D02*
X93887981Y19285279D01*
X92146782Y22116080D02*
X93887981Y20374881D01*
X84322720Y22116080D02*
X92146782Y22116080D01*
D39*
X81538880Y39205200D02*
X87570400Y39205200D01*
X87814240Y37801560D02*
X89880240Y35735560D01*
X87814240Y38961360D02*
X87814240Y37801560D01*
X89194440Y35735560D02*
X89880240Y35735560D01*
X81980840Y28521960D02*
X89194440Y35735560D01*
D42*
X69938799Y18217081D02*
X69976800Y18179080D01*
X69938799Y23132080D02*
X69938799Y18217081D01*
X73131480Y18179080D02*
X69976800Y18179080D01*
D40*
X73698480Y12987080D02*
X73673800Y12962400D01*
X73698480Y15004080D02*
X73698480Y12987080D01*
D39*
X70136921Y6604199D02*
X70936920Y5804200D01*
X69374919Y7366201D02*
X70136921Y6604199D01*
X69374919Y16402249D02*
X69374919Y7366201D01*
X69805550Y16832880D02*
X69374919Y16402249D01*
X70936920Y16832880D02*
X69805550Y16832880D01*
D41*
X79242720Y38961360D02*
X78998880Y39205200D01*
X87814240Y38961360D02*
X79242720Y38961360D01*
D39*
X87570400Y39205200D02*
X87814240Y38961360D01*
D40*
%TO.N,Earth*%
X82222720Y19728480D02*
X82222720Y21428320D01*
X82222720Y21428320D02*
X82275480Y21481080D01*
X75798480Y15004080D02*
X75798480Y16054779D01*
X75798480Y16054779D02*
X76230982Y16487281D01*
X84066160Y14054120D02*
X85638440Y14054120D01*
X85638440Y14054120D02*
X85831480Y13861080D01*
D42*
X91042980Y19830080D02*
X92752980Y19830080D01*
X89914240Y38961360D02*
X89966600Y38961360D01*
X89966600Y38961360D02*
X91114680Y37813280D01*
X91114680Y37813280D02*
X91216280Y37813280D01*
D43*
X89012680Y10609880D02*
X89336696Y10933896D01*
X89336696Y10933896D02*
X89336696Y10990880D01*
X85762680Y10609880D02*
X89012680Y10609880D01*
X89336696Y13530864D02*
X88117480Y14750080D01*
X89336696Y10990880D02*
X89336696Y13530864D01*
X88828680Y14038880D02*
X88117480Y14750080D01*
X91368680Y14038880D02*
X88828680Y14038880D01*
D39*
X71884920Y8264880D02*
X70936920Y9212880D01*
X73842680Y8264880D02*
X71884920Y8264880D01*
D42*
%TO.N,+3V3*%
X22580160Y20495800D02*
X22692160Y20383800D01*
X25485160Y20734560D02*
X23058160Y20734560D01*
D39*
X21958000Y44844000D02*
X20396000Y44844000D01*
X14438000Y41694000D02*
X13538000Y41694000D01*
X17588000Y44844000D02*
X14438000Y41694000D01*
X20396000Y44844000D02*
X17588000Y44844000D01*
X25933200Y44844000D02*
X26131320Y44645880D01*
X20396000Y44844000D02*
X25933200Y44844000D01*
D41*
X26131320Y44645880D02*
X26131320Y42959320D01*
X25013720Y41841720D02*
X25013720Y41669000D01*
X26131320Y42959320D02*
X25013720Y41841720D01*
X25013720Y41669000D02*
X25013720Y40869880D01*
X35326120Y40869880D02*
X36054120Y40869880D01*
X36616440Y40307560D02*
X38430000Y40307560D01*
X36054120Y40869880D02*
X36616440Y40307560D01*
D42*
X13538000Y49502000D02*
X13538000Y47994000D01*
X14996320Y50960320D02*
X13538000Y49502000D01*
X22047000Y50960320D02*
X14996320Y50960320D01*
X26131320Y46876000D02*
X22047000Y50960320D01*
X26131320Y44645880D02*
X26131320Y46876000D01*
X38215080Y11788440D02*
X38277600Y11725920D01*
X33769080Y11788440D02*
X38215080Y11788440D01*
X64125479Y35440081D02*
X64125479Y35404521D01*
X63225480Y36340080D02*
X64125479Y35440081D01*
X65227000Y34303000D02*
X65227000Y31636000D01*
X64125479Y35404521D02*
X65227000Y34303000D01*
D39*
X19057440Y30721600D02*
X20419440Y30721600D01*
X17150717Y31721601D02*
X18057439Y31721601D01*
X15258479Y33613839D02*
X17150717Y31721601D01*
X15258479Y38144479D02*
X15258479Y33613839D01*
X20396000Y43282000D02*
X15258479Y38144479D01*
X18057439Y31721601D02*
X19057440Y30721600D01*
X20396000Y44844000D02*
X20396000Y43282000D01*
D42*
X36093200Y13307360D02*
X36093200Y11719280D01*
D39*
X20465160Y20383800D02*
X20419440Y20338080D01*
D42*
X20419440Y21294520D02*
X20419440Y20338080D01*
X20419440Y20338080D02*
X20419440Y16535120D01*
D39*
X20419440Y30721600D02*
X20419440Y22624080D01*
X20419440Y22624080D02*
X20419440Y21294520D01*
X22692160Y20383800D02*
X20465160Y20383800D01*
D42*
X21354160Y20383800D02*
X20419440Y19449080D01*
X22692160Y20383800D02*
X21354160Y20383800D01*
D39*
X20419440Y19449080D02*
X20419440Y16535120D01*
D42*
X21516720Y20383800D02*
X20419440Y21481080D01*
X22692160Y20383800D02*
X21516720Y20383800D01*
D39*
X20419440Y22624080D02*
X20419440Y21481080D01*
X20419440Y21481080D02*
X20419440Y19449080D01*
D42*
X56807480Y28939080D02*
X56807480Y27831080D01*
X58376079Y30507679D02*
X56807480Y28939080D01*
X63794239Y30507679D02*
X58376079Y30507679D01*
X65029240Y31742680D02*
X63794239Y30507679D01*
X56807480Y27831080D02*
X55097480Y27831080D01*
X56291280Y22928880D02*
X55183280Y22928880D01*
X55183280Y22928880D02*
X54873400Y22619000D01*
X57510480Y19499880D02*
X57480000Y19530360D01*
X57510480Y17406920D02*
X57510480Y19499880D01*
X57510480Y15742240D02*
X58909040Y14343680D01*
X57510480Y17406920D02*
X57510480Y15742240D01*
X58909040Y14343680D02*
X58909040Y5794040D01*
X56291280Y22928880D02*
X56291280Y22446280D01*
X57480000Y21257560D02*
X57480000Y19530360D01*
X56291280Y22446280D02*
X57480000Y21257560D01*
X66137240Y31742680D02*
X65029240Y31742680D01*
X66822120Y31057800D02*
X66137240Y31742680D01*
X66822120Y26759200D02*
X66822120Y31057800D01*
X68712240Y23259640D02*
X68712240Y22151640D01*
X66822120Y25149760D02*
X68712240Y23259640D01*
X66822120Y26759200D02*
X66822120Y25149760D01*
X67035480Y26561080D02*
X66908480Y26688080D01*
X71031480Y30879080D02*
X69321480Y30879080D01*
X69321480Y30879080D02*
X68686480Y30244080D01*
X68178480Y26561080D02*
X68686480Y27069080D01*
X68686480Y30244080D02*
X68686480Y27069080D01*
X68178480Y26561080D02*
X67035480Y26561080D01*
X71031480Y28711880D02*
X71373800Y28369560D01*
X71031480Y30879080D02*
X71031480Y28711880D01*
D39*
X36093200Y13561360D02*
X36093200Y13307360D01*
X35539480Y14115080D02*
X36093200Y13561360D01*
X36093200Y13561360D02*
X36093200Y11719280D01*
D42*
X27031319Y45545879D02*
X26131320Y44645880D01*
X27666321Y46180881D02*
X27031319Y45545879D01*
X34488121Y46180881D02*
X27666321Y46180881D01*
X35326120Y45342882D02*
X34488121Y46180881D01*
X35326120Y40869880D02*
X35326120Y45342882D01*
D39*
X44326186Y40307560D02*
X44326187Y41869561D01*
X56118560Y40307560D02*
X56118561Y41869561D01*
D40*
X77381480Y31733080D02*
X77381480Y30752080D01*
X77063979Y32050581D02*
X77381480Y31733080D01*
X71221981Y32050581D02*
X77063979Y32050581D01*
X71031480Y31860080D02*
X71221981Y32050581D01*
X71031480Y30879080D02*
X71031480Y31860080D01*
D42*
X54432000Y22619000D02*
X53068000Y22619000D01*
X54873400Y22619000D02*
X54432000Y22619000D01*
X56807480Y27831080D02*
X57726001Y26912559D01*
X57726001Y26912559D02*
X57726001Y24617601D01*
X57726001Y24617601D02*
X56113480Y23005080D01*
D39*
X20546440Y16535120D02*
X21526681Y15554879D01*
X20419440Y16535120D02*
X20546440Y16535120D01*
X21526681Y15554879D02*
X22026680Y15054880D01*
D42*
X38430000Y41615560D02*
X39233320Y42418880D01*
X38430000Y40307560D02*
X38430000Y41615560D01*
X43776868Y42418880D02*
X44326187Y41869561D01*
X50222372Y41615560D02*
X50222372Y40307560D01*
X45129506Y42418880D02*
X49419052Y42418880D01*
X44326186Y41615560D02*
X45129506Y42418880D01*
X44326186Y40307560D02*
X44326186Y41615560D01*
X55569242Y42418880D02*
X56118561Y41869561D01*
X62325481Y37240079D02*
X63225480Y36340080D01*
X61641519Y37924041D02*
X62325481Y37240079D01*
X61641519Y39448403D02*
X61641519Y37924041D01*
X59153641Y41936281D02*
X61641519Y39448403D01*
X49914520Y42152348D02*
X49800052Y42037880D01*
X50759160Y42152348D02*
X49914520Y42152348D01*
X49800052Y42037880D02*
X50222372Y41615560D01*
X49419052Y42418880D02*
X49800052Y42037880D01*
X50759160Y42152348D02*
X51025692Y42418880D01*
X50222372Y41615560D02*
X50759160Y42152348D01*
X49419052Y42418880D02*
X51025692Y42418880D01*
X58671042Y42418880D02*
X59153641Y41936281D01*
X56601160Y42098160D02*
X56601160Y42418880D01*
X56118560Y41615560D02*
X56601160Y42098160D01*
X56118560Y40307560D02*
X56118560Y41615560D01*
X55569242Y42418880D02*
X56601160Y42418880D01*
X56661440Y42098160D02*
X56982160Y42418880D01*
X56601160Y42098160D02*
X56661440Y42098160D01*
X56601160Y42418880D02*
X56982160Y42418880D01*
X56982160Y42418880D02*
X58671042Y42418880D01*
X43266160Y42418880D02*
X45129506Y42418880D01*
X39233320Y42418880D02*
X43266160Y42418880D01*
X44323480Y41615560D02*
X43520160Y42418880D01*
X44326186Y41615560D02*
X44323480Y41615560D01*
X43266160Y42418880D02*
X43520160Y42418880D01*
X43520160Y42418880D02*
X43776868Y42418880D01*
X56118560Y41631480D02*
X55331160Y42418880D01*
X56118560Y41615560D02*
X56118560Y41631480D01*
X51025692Y42418880D02*
X55331160Y42418880D01*
X55331160Y42418880D02*
X55569242Y42418880D01*
D45*
X46894185Y24094815D02*
X49973842Y24094815D01*
X49973842Y24094815D02*
X51538028Y25659001D01*
X54432000Y24745840D02*
X54432000Y22619000D01*
X46211000Y24778000D02*
X46894185Y24094815D01*
X51538028Y25659001D02*
X53518839Y25659001D01*
X53518839Y25659001D02*
X54432000Y24745840D01*
X54895000Y28050000D02*
X54895000Y29054000D01*
X47924934Y31183989D02*
X47282252Y31183989D01*
X48626810Y30482113D02*
X47924934Y31183989D01*
X53466887Y30482113D02*
X48626810Y30482113D01*
X54895000Y29054000D02*
X53466887Y30482113D01*
X47275000Y29142874D02*
X47300104Y29167978D01*
X47275000Y28050000D02*
X47275000Y29142874D01*
D46*
%TO.N,VAC*%
X38049000Y92913500D02*
X54032010Y92913500D01*
D47*
X54032010Y92913500D02*
X57461010Y96342500D01*
X57461010Y96342500D02*
X60401000Y96342500D01*
D43*
X25388500Y83388500D02*
X26722000Y84722000D01*
X22682000Y83388500D02*
X25388500Y83388500D01*
X34049000Y92913500D02*
X38049000Y92913500D01*
X31763500Y92913500D02*
X34049000Y92913500D01*
X26722000Y87872000D02*
X31763500Y92913500D01*
X26722000Y84722000D02*
X26722000Y87872000D01*
D48*
X84903902Y96342500D02*
X88103560Y93142842D01*
X57461010Y96342500D02*
X84903902Y96342500D01*
X88103560Y93142842D02*
X88103560Y86108766D01*
X88103560Y86108766D02*
X88103560Y84341000D01*
D39*
%TO.N,Net-(D3-Pad1)*%
X62773360Y31798560D02*
X62829240Y31742680D01*
X60934400Y31798560D02*
X62773360Y31798560D01*
%TO.N,Net-(D4-Pad1)*%
X66121080Y22126240D02*
X66146480Y22151640D01*
X64309480Y22126240D02*
X66121080Y22126240D01*
D40*
%TO.N,TXD*%
X33179640Y38769880D02*
X33279640Y38669880D01*
X31233160Y38769880D02*
X33179640Y38769880D01*
D42*
X39427160Y34734560D02*
X41235160Y34734560D01*
X36106960Y34734560D02*
X39427160Y34734560D01*
X33279640Y37561880D02*
X36106960Y34734560D01*
X33279640Y38669880D02*
X33279640Y37561880D01*
D40*
X62726861Y21081739D02*
X61253879Y21081739D01*
X65563000Y12867590D02*
X65563000Y18245600D01*
X59091933Y29421600D02*
X59009800Y29339467D01*
X61121981Y21213637D02*
X61121981Y26645959D01*
X63316920Y11752880D02*
X64448290Y11752880D01*
X61121981Y26645959D02*
X61757701Y27281679D01*
X65563000Y18245600D02*
X62726861Y21081739D01*
X60646422Y29421600D02*
X59091933Y29421600D01*
X64448290Y11752880D02*
X65563000Y12867590D01*
X61253879Y21081739D02*
X61121981Y21213637D01*
X61757701Y27281679D02*
X61757701Y28310321D01*
X61757701Y28310321D02*
X60646422Y29421600D01*
X42978040Y34734560D02*
X41235160Y34734560D01*
X44227000Y33485600D02*
X42978040Y34734560D01*
D45*
%TO.N,Net-(D5-Pad2)*%
X25013720Y38823400D02*
X27060200Y40869880D01*
X25013720Y38769880D02*
X25013720Y38823400D01*
D40*
%TO.N,RXD*%
X29006680Y38669880D02*
X29106680Y38769880D01*
X27060200Y38669880D02*
X29006680Y38669880D01*
D42*
X39427160Y32734560D02*
X41235160Y32734560D01*
X34034000Y32734560D02*
X39427160Y32734560D01*
X29106680Y37661880D02*
X34034000Y32734560D01*
X29106680Y38769880D02*
X29106680Y37661880D01*
D40*
X77253799Y29169559D02*
X76453800Y28369560D01*
X77791819Y29707579D02*
X77253799Y29169559D01*
X78436979Y29707579D02*
X77791819Y29707579D01*
X79481480Y30752080D02*
X78436979Y29707579D01*
D45*
X48878971Y31127992D02*
X55576208Y31127992D01*
X47814965Y32191999D02*
X48878971Y31127992D01*
X41777721Y32191999D02*
X47814965Y32191999D01*
X41235160Y32734560D02*
X41777721Y32191999D01*
X55576208Y31127992D02*
X56483733Y30220467D01*
%TO.N,Net-(D6-Pad2)*%
X33279640Y40816360D02*
X35326120Y38769880D01*
X33279640Y40869880D02*
X33279640Y40816360D01*
D40*
%TO.N,POT*%
X27166160Y32734560D02*
X29951480Y29949240D01*
X25485160Y32734560D02*
X27166160Y32734560D01*
X29951480Y29949240D02*
X29951480Y16782080D01*
X28229360Y15059960D02*
X28229360Y14496080D01*
X29951480Y16782080D02*
X28229360Y15059960D01*
X28229360Y13723920D02*
X28229360Y14496080D01*
X28168400Y13784880D02*
X28229360Y13723920D01*
X26121160Y13784880D02*
X28168400Y13784880D01*
D42*
%TO.N,/B485*%
X78668680Y4132880D02*
X78033680Y3497880D01*
X78668680Y9271880D02*
X78668680Y4132880D01*
%TO.N,/A485*%
X88033680Y5265646D02*
X88033680Y3497880D01*
X88033680Y6774116D02*
X88033680Y5265646D01*
X91742444Y10482880D02*
X88033680Y6774116D01*
X93332680Y10482880D02*
X91742444Y10482880D01*
D47*
%TO.N,Net-(F1-Pad2)*%
X3499920Y87349640D02*
X6640640Y87349640D01*
D48*
X7275640Y87349640D02*
X12776000Y92850000D01*
X6640640Y87349640D02*
X7275640Y87349640D01*
X12776000Y92850000D02*
X15385500Y92850000D01*
D49*
%TO.N,/24VAC-master*%
X83103560Y90056000D02*
X83103560Y85738000D01*
D43*
X83103560Y85738000D02*
X83103560Y84341000D01*
X83103560Y91841000D02*
X83103560Y90056000D01*
D48*
X88103560Y78314014D02*
X88103560Y51260040D01*
D49*
X89622536Y79832990D02*
X88103560Y78314014D01*
X89970838Y79832990D02*
X89622536Y79832990D01*
X93277039Y83139191D02*
X89970838Y79832990D01*
X93277039Y85148279D02*
X93277039Y83139191D01*
X96535040Y88406280D02*
X93277039Y85148279D01*
D43*
%TO.N,/PGSW3*%
X86443388Y47252030D02*
X89763732Y47252030D01*
X84095550Y49599868D02*
X86443388Y47252030D01*
X83103560Y51260040D02*
X84095550Y51260040D01*
X84095550Y51260040D02*
X84095550Y49599868D01*
D49*
X96535040Y71639720D02*
X96535040Y54023338D01*
X96123338Y54023338D02*
X92913000Y50813000D01*
X96535040Y54023338D02*
X96123338Y54023338D01*
D43*
X89763732Y47252030D02*
X92913000Y50813000D01*
X83103560Y51260040D02*
X83103560Y43760040D01*
X84353559Y45162201D02*
X86443388Y47252030D01*
X84353559Y45010039D02*
X84353559Y45162201D01*
X83103560Y43760040D02*
X84353559Y45010039D01*
D42*
%TO.N,Net-(J5-Pad2)*%
X58496000Y31890000D02*
X58623000Y31763000D01*
X56132000Y31763000D02*
X58750000Y31763000D01*
X54895000Y33000000D02*
X56132000Y31763000D01*
X54895000Y33450000D02*
X54895000Y33000000D01*
X58834400Y34489000D02*
X58834400Y33927080D01*
X60685480Y36340080D02*
X58834400Y34489000D01*
X58834400Y33927080D02*
X58834400Y31798560D01*
%TO.N,Net-(J7-Pad2)*%
X62563120Y25040200D02*
X62563120Y22126240D01*
X64282120Y26759200D02*
X62563120Y25040200D01*
D40*
X53625000Y28050000D02*
X53625000Y26919000D01*
X53625000Y26919000D02*
X54750000Y25794000D01*
X54750000Y25794000D02*
X55883894Y25794000D01*
X55883894Y25794000D02*
X56591000Y25794000D01*
%TO.N,Net-(J8-Pad3)*%
X31211320Y40891720D02*
X31233160Y40869880D01*
X31211320Y44645880D02*
X31211320Y40891720D01*
%TO.N,Net-(J8-Pad2)*%
X28905000Y43139408D02*
X28905000Y41161000D01*
X28671320Y43373088D02*
X28905000Y43139408D01*
X28671320Y44645880D02*
X28671320Y43373088D01*
D45*
%TO.N,Net-(J9-Pad1)*%
X4208000Y31427720D02*
X6309160Y33528880D01*
X2519480Y31427720D02*
X4208000Y31427720D01*
D40*
X2519480Y27549160D02*
X3499920Y26568720D01*
X2519480Y31427720D02*
X2519480Y27549160D01*
%TO.N,Net-(J9-Pad2)*%
X6765080Y24833880D02*
X3499920Y21568720D01*
X9987080Y24833880D02*
X6765080Y24833880D01*
%TO.N,/SCL*%
X40485160Y26734560D02*
X41235160Y26734560D01*
X35061960Y21311360D02*
X40485160Y26734560D01*
X35061960Y17188480D02*
X35061960Y21311360D01*
D42*
X54831360Y20079000D02*
X55380000Y19530360D01*
X53068000Y20079000D02*
X54831360Y20079000D01*
D45*
X41985160Y26734560D02*
X43739163Y28488563D01*
X41235160Y26734560D02*
X41985160Y26734560D01*
X43739163Y28488563D02*
X43739163Y28549167D01*
X53068000Y20079000D02*
X52039000Y20079000D01*
X51784999Y23147001D02*
X53161998Y24524000D01*
X51784999Y20333001D02*
X51784999Y23147001D01*
X52039000Y20079000D02*
X51784999Y20333001D01*
D40*
%TO.N,Net-(JP2-Pad2)*%
X9987080Y26933880D02*
X10112120Y26933880D01*
D45*
X9987080Y27787880D02*
X9987080Y26933880D01*
X7833160Y29941800D02*
X9987080Y27787880D01*
X7833160Y34544880D02*
X7833160Y29941800D01*
X6309160Y36068880D02*
X7833160Y34544880D01*
X11008160Y26035880D02*
X10627160Y26416880D01*
X10627160Y26416880D02*
X9865160Y26416880D01*
X11008160Y26035880D02*
X11008160Y21971880D01*
D40*
%TO.N,Net-(JP3-Pad3)*%
X34008440Y2476800D02*
X35031480Y3499840D01*
X32440680Y2476800D02*
X34008440Y2476800D01*
D45*
X33743680Y5230160D02*
X32889680Y5230160D01*
X34155160Y5230160D02*
X33743680Y5230160D01*
X35031480Y4353840D02*
X34155160Y5230160D01*
X35031480Y3499840D02*
X35031480Y4353840D01*
D42*
%TO.N,Net-(K1-Pad8)*%
X48341080Y69578520D02*
X63103560Y84341000D01*
X48341080Y65578000D02*
X48341080Y69578520D01*
%TO.N,Net-(K2-Pad8)*%
X49611080Y66836000D02*
X54839093Y72064013D01*
X61853561Y72064013D02*
X63103560Y70814014D01*
X49611080Y65578000D02*
X49611080Y66836000D01*
X54839093Y72064013D02*
X61853561Y72064013D01*
%TO.N,Net-(K3-Pad8)*%
X50881080Y65578000D02*
X50881080Y66836000D01*
X50881080Y66836000D02*
X54535092Y70490012D01*
X58848438Y70490012D02*
X61218559Y68119891D01*
X54535092Y70490012D02*
X58848438Y70490012D01*
X61218559Y59172029D02*
X61853561Y58537027D01*
X61218559Y68119891D02*
X61218559Y59172029D01*
X61853561Y58537027D02*
X63103560Y57287028D01*
%TO.N,Net-(K4-Pad8)*%
X52151080Y65578000D02*
X52151080Y66836000D01*
X52151080Y66836000D02*
X53773082Y68458002D01*
X61853561Y45010039D02*
X63103560Y43760040D01*
X55043082Y69728002D02*
X58532802Y69728002D01*
X52151080Y66836000D02*
X55043082Y69728002D01*
X60456548Y46407052D02*
X61853561Y45010039D01*
X60456548Y67804256D02*
X60456548Y46407052D01*
X58532802Y69728002D02*
X60456548Y67804256D01*
D40*
%TO.N,LIMIT*%
X40771880Y11139200D02*
X40771880Y12144040D01*
X39258600Y9625920D02*
X40771880Y11139200D01*
X38277600Y9625920D02*
X39258600Y9625920D01*
X42143381Y12384171D02*
X42143381Y16782179D01*
X40771880Y12144040D02*
X41903250Y12144040D01*
X41903250Y12144040D02*
X42143381Y12384171D01*
X42143381Y16782179D02*
X40314680Y18610880D01*
X40314680Y18610880D02*
X40162280Y18610880D01*
X29006980Y26893740D02*
X29006980Y25316480D01*
X27166160Y28734560D02*
X29006980Y26893740D01*
X25485160Y28734560D02*
X27166160Y28734560D01*
X29006980Y19110879D02*
X29006980Y25316480D01*
%TO.N,Net-(R4-Pad1)*%
X43978920Y50936480D02*
X44708880Y50936480D01*
X40970000Y47927560D02*
X43978920Y50936480D01*
X44708880Y50936480D02*
X46788051Y50936480D01*
%TO.N,Net-(R4-Pad2)*%
X48336000Y57644600D02*
X48336000Y60211000D01*
X44708880Y54017480D02*
X48336000Y57644600D01*
X44708880Y53036480D02*
X44708880Y54017480D01*
D42*
%TO.N,Net-(R5-Pad2)*%
X49155960Y12144040D02*
X51000000Y10300000D01*
X48391880Y12144040D02*
X49155960Y12144040D01*
D40*
%TO.N,Net-(R6-Pad1)*%
X49815000Y33450000D02*
X49815000Y34581000D01*
X42330000Y36314000D02*
X48082000Y36314000D01*
X41710120Y36933880D02*
X42330000Y36314000D01*
X41710120Y37914880D02*
X41710120Y36933880D01*
X49815000Y34581000D02*
X48082000Y36314000D01*
D45*
%TO.N,Net-(R6-Pad2)*%
X39610120Y38947680D02*
X39610120Y37914880D01*
X40970000Y40307560D02*
X39610120Y38947680D01*
D40*
%TO.N,Net-(R12-Pad2)*%
X48867222Y49928596D02*
X48867222Y50936480D01*
X46866186Y47927560D02*
X48867222Y49928596D01*
X48867222Y50936480D02*
X50946393Y50936480D01*
%TO.N,Net-(R9-Pad2)*%
X49606000Y54756258D02*
X49606000Y60465000D01*
X48867222Y54017480D02*
X49606000Y54756258D01*
X48867222Y53036480D02*
X48867222Y54017480D01*
%TO.N,Net-(R11-Pad1)*%
X47807000Y37859000D02*
X47701000Y37859000D01*
X51085000Y34581000D02*
X47807000Y37859000D01*
X51085000Y33450000D02*
X51085000Y34581000D01*
D45*
%TO.N,Net-(R11-Pad2)*%
X45524800Y38966174D02*
X45524800Y37914880D01*
X46866186Y40307560D02*
X45524800Y38966174D01*
D40*
%TO.N,Net-(R15-Pad1)*%
X52762372Y50673288D02*
X53025564Y50936480D01*
X52762372Y47927560D02*
X52762372Y50673288D01*
X53025564Y50936480D02*
X55104735Y50936480D01*
%TO.N,Net-(R15-Pad2)*%
X50881080Y59047000D02*
X50881080Y60178000D01*
X50881080Y58926881D02*
X50881080Y59047000D01*
X55104735Y54703226D02*
X50881080Y58926881D01*
X55104735Y53036480D02*
X55104735Y54703226D01*
D42*
%TO.N,Net-(R16-Pad2)*%
X25472200Y30721600D02*
X25485160Y30734560D01*
X22519440Y30721600D02*
X25472200Y30721600D01*
D40*
%TO.N,Net-(R17-Pad1)*%
X52355000Y34581000D02*
X52355000Y33450000D01*
X52355000Y34955080D02*
X52355000Y34581000D01*
X50376200Y36933880D02*
X52355000Y34955080D01*
X50376200Y37914880D02*
X50376200Y36933880D01*
D45*
%TO.N,Net-(R17-Pad2)*%
X52762372Y38201052D02*
X52476200Y37914880D01*
X52762372Y40307560D02*
X52762372Y38201052D01*
D40*
%TO.N,Net-(R21-Pad1)*%
X58658560Y50331960D02*
X59263080Y50936480D01*
X58658560Y47927560D02*
X58658560Y50331960D01*
X57183906Y50936480D02*
X59263080Y50936480D01*
%TO.N,Net-(R21-Pad2)*%
X59263080Y54017480D02*
X57006560Y56274000D01*
X59263080Y53036480D02*
X59263080Y54017480D01*
X52151080Y59047000D02*
X52151080Y60178000D01*
X52151080Y58554920D02*
X52151080Y59047000D01*
X54432000Y56274000D02*
X52151080Y58554920D01*
X57006560Y56274000D02*
X54432000Y56274000D01*
%TO.N,Net-(R22-Pad1)*%
X53625000Y34581000D02*
X53625000Y33450000D01*
X53625000Y35938920D02*
X53625000Y34581000D01*
X54619960Y36933880D02*
X53625000Y35938920D01*
X54619960Y37914880D02*
X54619960Y36933880D01*
D45*
%TO.N,Net-(R22-Pad2)*%
X58658560Y40307560D02*
X58658560Y38910560D01*
X57662880Y37914880D02*
X56719960Y37914880D01*
X58658560Y38910560D02*
X57662880Y37914880D01*
D42*
%TO.N,/SDA*%
X54008400Y18809000D02*
X55410480Y17406920D01*
X53068000Y18809000D02*
X54008400Y18809000D01*
D40*
X25485160Y26734560D02*
X22742200Y26734560D01*
X22742200Y26734560D02*
X22737880Y26738880D01*
D45*
X53068000Y18809000D02*
X52039000Y18809000D01*
X52039000Y18809000D02*
X50802276Y20045724D01*
X50802276Y23447709D02*
X51377274Y24022707D01*
X50802276Y20045724D02*
X50802276Y23447709D01*
D42*
%TO.N,Net-(R26-Pad2)*%
X43995840Y22734560D02*
X44104360Y22626040D01*
X41235160Y22734560D02*
X43995840Y22734560D01*
D40*
%TO.N,Net-(R28-Pad1)*%
X6309160Y9398880D02*
X12786160Y9398880D01*
X4277160Y11430880D02*
X6309160Y9398880D01*
D42*
%TO.N,Net-(R32-Pad2)*%
X63306760Y5794040D02*
X63316920Y5804200D01*
X61009040Y5794040D02*
X63306760Y5794040D01*
D40*
%TO.N,Net-(R34-Pad1)*%
X26224720Y11788440D02*
X26121160Y11684880D01*
X28369080Y11788440D02*
X27137160Y11788440D01*
X27137160Y11788440D02*
X26224720Y11788440D01*
X30208600Y11788440D02*
X28369080Y11788440D01*
X30789680Y5230160D02*
X30789680Y11207360D01*
X30789680Y11207360D02*
X30208600Y11788440D01*
D45*
X26121160Y8034880D02*
X26121160Y7180880D01*
X25621159Y8534881D02*
X26121160Y8034880D01*
X25621159Y10330879D02*
X25621159Y8534881D01*
X26121160Y10830880D02*
X25621159Y10330879D01*
X26121160Y11684880D02*
X26121160Y10830880D01*
D40*
%TO.N,Net-(R41-Pad1)*%
X75231480Y18247080D02*
X75163480Y18179080D01*
X75231480Y19431880D02*
X75231480Y18247080D01*
X73913800Y20749560D02*
X75231480Y19431880D01*
%TO.N,Net-(R43-Pad2)*%
X63266120Y14343680D02*
X63316920Y14292880D01*
X61009040Y14343680D02*
X63266120Y14343680D01*
%TO.N,Net-(R44-Pad2)*%
X75773800Y11981400D02*
X75773800Y12962400D01*
X75545280Y11752880D02*
X75773800Y11981400D01*
X70936920Y11752880D02*
X75545280Y11752880D01*
X77099440Y12962400D02*
X75773800Y12962400D01*
X78666160Y14054120D02*
X78191160Y14054120D01*
X78191160Y14054120D02*
X77099440Y12962400D01*
D42*
%TO.N,Net-(SW1-Pad2)*%
X17295440Y34734560D02*
X17020480Y34459600D01*
X25485160Y34734560D02*
X17295440Y34734560D01*
%TO.N,Net-(U11-Pad6)*%
X53068000Y21349000D02*
X55610560Y21349000D01*
X55610560Y21349000D02*
X55732480Y21227080D01*
D45*
X48545000Y32722828D02*
X48796499Y32471329D01*
X48545000Y33450000D02*
X48545000Y32722828D01*
%TO.N,Net-(U11-Pad11)*%
X25485160Y24734560D02*
X22802840Y24734560D01*
X22802840Y24734560D02*
X22738600Y24798800D01*
X47969296Y26394012D02*
X44560982Y26394012D01*
X48545000Y26969716D02*
X47969296Y26394012D01*
X48545000Y28050000D02*
X48545000Y26969716D01*
X44560982Y26394012D02*
X44398994Y26556000D01*
%TO.N,Net-(U11-Pad12)*%
X25485160Y22734560D02*
X22757160Y22734560D01*
X22757160Y22734560D02*
X22738600Y22716000D01*
X49815000Y26087898D02*
X49337929Y25610827D01*
X49815000Y28050000D02*
X49815000Y26087898D01*
%TO.N,Net-(U11-Pad14)*%
X43426588Y30175988D02*
X48034894Y30175988D01*
X41235160Y28734560D02*
X41985160Y28734560D01*
X52355000Y29054000D02*
X52355000Y28050000D01*
X51561898Y29847102D02*
X52355000Y29054000D01*
X48034894Y30175988D02*
X48363780Y29847102D01*
X41985160Y28734560D02*
X43426588Y30175988D01*
X48363780Y29847102D02*
X51561898Y29847102D01*
D40*
%TO.N,RW*%
X40485160Y30734560D02*
X41235160Y30734560D01*
X36048200Y26297600D02*
X40485160Y30734560D01*
X36048200Y24036800D02*
X36048200Y26297600D01*
X49840782Y19982180D02*
X49840782Y23086805D01*
X63316920Y3264200D02*
X59210178Y3264200D01*
X59210178Y3264200D02*
X54144501Y8329877D01*
X54144501Y15678461D02*
X49840782Y19982180D01*
X54144501Y8329877D02*
X54144501Y15678461D01*
%TO.N,Net-(U18-Pad3)*%
X76453800Y19618190D02*
X76453800Y20749560D01*
X76453800Y19601480D02*
X76453800Y19618190D01*
X78191160Y17864120D02*
X76453800Y19601480D01*
X78666160Y17864120D02*
X78191160Y17864120D01*
D42*
%TO.N,Net-(C12-Pad1)*%
X53100000Y6282760D02*
X53116280Y6266480D01*
X53100000Y10300000D02*
X53100000Y6282760D01*
X43478240Y6266480D02*
X40704560Y3492800D01*
X53116280Y6266480D02*
X43478240Y6266480D01*
D45*
%TO.N,Net-(R45-Pad2)*%
X44067560Y24734560D02*
X44111000Y24778000D01*
X41235160Y24734560D02*
X44067560Y24734560D01*
X45219001Y25886001D02*
X47758873Y25886001D01*
X51085000Y26104014D02*
X51085000Y28050000D01*
X47758873Y25886001D02*
X48915048Y24729826D01*
X44111000Y24778000D02*
X45219001Y25886001D01*
X48915048Y24729826D02*
X49710812Y24729826D01*
X49710812Y24729826D02*
X51085000Y26104014D01*
D42*
%TO.N,Net-(D8-Pad1)*%
X85739479Y18976079D02*
X86339480Y19576080D01*
X85739479Y16984439D02*
X85739479Y18976079D01*
X85349160Y16594120D02*
X85739479Y16984439D01*
X84066160Y16594120D02*
X85349160Y16594120D01*
X88820480Y19707580D02*
X88942980Y19830080D01*
X86847480Y19707580D02*
X88820480Y19707580D01*
D39*
X80700680Y11371880D02*
X81462680Y10609880D01*
X78668680Y11371880D02*
X80700680Y11371880D01*
D40*
X82910160Y16594120D02*
X84066160Y16594120D01*
X82842181Y16594120D02*
X82910160Y16594120D01*
X81462680Y15214619D02*
X82842181Y16594120D01*
X81462680Y10609880D02*
X81462680Y15214619D01*
D42*
%TO.N,Net-(D9-Pad2)*%
X86847480Y16499580D02*
X86847480Y17607580D01*
X85672020Y15324120D02*
X86847480Y16499580D01*
X84066160Y15324120D02*
X85672020Y15324120D01*
X88845480Y17607580D02*
X88972480Y17734580D01*
X86847480Y17607580D02*
X88845480Y17607580D01*
D40*
X95568680Y14038880D02*
X95668680Y14038880D01*
X93044481Y16563079D02*
X95568680Y14038880D01*
X89162981Y16563079D02*
X93044481Y16563079D01*
X88972480Y16753580D02*
X89162981Y16563079D01*
X88972480Y17734580D02*
X88972480Y16753580D01*
D42*
X95668680Y10718880D02*
X95432680Y10482880D01*
X95668680Y14038880D02*
X95668680Y10718880D01*
D40*
%TO.N,Net-(R33-Pad1)*%
X72041240Y2159880D02*
X70936920Y3264200D01*
X73842680Y2159880D02*
X72041240Y2159880D01*
X73837600Y6164880D02*
X70936920Y3264200D01*
X73842680Y6164880D02*
X73837600Y6164880D01*
%TO.N,Net-(R46-Pad2)*%
X77510160Y16594120D02*
X77342800Y16426760D01*
X78666160Y16594120D02*
X77510160Y16594120D01*
X77342800Y16426760D02*
X77342800Y15481600D01*
X77500280Y15324120D02*
X78666160Y15324120D01*
X77342800Y15481600D02*
X77500280Y15324120D01*
X74823680Y4259880D02*
X73842680Y4259880D01*
X75014181Y9979102D02*
X75014181Y4450381D01*
X77451460Y12416381D02*
X75014181Y9979102D01*
X78903523Y12416381D02*
X77451460Y12416381D01*
X79885661Y13398519D02*
X78903523Y12416381D01*
X79885661Y15260619D02*
X79885661Y13398519D01*
X79822160Y15324120D02*
X79885661Y15260619D01*
X75014181Y4450381D02*
X74823680Y4259880D01*
X78666160Y15324120D02*
X79822160Y15324120D01*
%TO.N,Net-(U14-Pad1)*%
X12849560Y12002280D02*
X12786160Y11938880D01*
X12849560Y17582200D02*
X12849560Y12002280D01*
%TO.N,Net-(JP3-Pad2)*%
X35031480Y1399840D02*
X36410120Y1399840D01*
X36410120Y1399840D02*
X36662160Y1651880D01*
D45*
X31487600Y889880D02*
X35138160Y889880D01*
X29900680Y2476800D02*
X31487600Y889880D01*
X29900680Y3749592D02*
X29900680Y2476800D01*
X29900680Y10015840D02*
X29900680Y3749592D01*
X29398080Y10518440D02*
X29900680Y10015840D01*
X28369080Y10518440D02*
X29398080Y10518440D01*
X28369080Y10518440D02*
X27113720Y10518440D01*
X27113720Y10518440D02*
X26502160Y9906880D01*
%TO.N,Net-(R29-Pad1)*%
X14119560Y18611200D02*
X14119560Y17582200D01*
X13227760Y19503000D02*
X14119560Y18611200D01*
X10617000Y19503000D02*
X13227760Y19503000D01*
D40*
X13586159Y7658879D02*
X12786160Y6858880D01*
X14284661Y8357381D02*
X13586159Y7658879D01*
X14284661Y16261099D02*
X14284661Y8357381D01*
X14119560Y16426200D02*
X14284661Y16261099D01*
X14119560Y17582200D02*
X14119560Y16426200D01*
%TD*%
D45*
%TO.N,+3V3*%
X22299779Y44463006D02*
X22301000Y44463114D01*
X22301000Y37986000D01*
X18490657Y37986000D01*
X10508907Y37964428D01*
X9220000Y39253334D01*
X9220000Y44588773D01*
X22299779Y44463006D01*
%TA.AperFunction,Conductor*%
D50*
G36*
X22299779Y44463006D02*
G01*
X22301000Y44463114D01*
X22301000Y37986000D01*
X18490657Y37986000D01*
X10508907Y37964428D01*
X9220000Y39253334D01*
X9220000Y44588773D01*
X22299779Y44463006D01*
G37*
%TD.AperFunction*%
%TD*%
D45*
%TO.N,/24VAC-master*%
X84968561Y87637103D02*
X84968561Y86262777D01*
X84968560Y86262767D01*
X84968560Y84186998D01*
X85013922Y83726433D01*
X85193184Y83135483D01*
X85484291Y82590860D01*
X85876056Y82113495D01*
X86353421Y81721731D01*
X86898044Y81430624D01*
X87488994Y81251362D01*
X88103560Y81190832D01*
X88718127Y81251362D01*
X88891711Y81304018D01*
X89865000Y79732851D01*
X89865000Y50731389D01*
X86436000Y51795562D01*
X86436000Y77864000D01*
X86433560Y77888776D01*
X86426333Y77912601D01*
X86414597Y77934557D01*
X86395238Y77957231D01*
X81355391Y82619090D01*
X81239035Y93207500D01*
X81517873Y93207500D01*
X84968561Y87637103D01*
%TA.AperFunction,Conductor*%
D50*
G36*
X84968561Y87637103D02*
G01*
X84968561Y86262777D01*
X84968560Y86262767D01*
X84968560Y84186998D01*
X85013922Y83726433D01*
X85193184Y83135483D01*
X85484291Y82590860D01*
X85876056Y82113495D01*
X86353421Y81721731D01*
X86898044Y81430624D01*
X87488994Y81251362D01*
X88103560Y81190832D01*
X88718127Y81251362D01*
X88891711Y81304018D01*
X89865000Y79732851D01*
X89865000Y50731389D01*
X86436000Y51795562D01*
X86436000Y77864000D01*
X86433560Y77888776D01*
X86426333Y77912601D01*
X86414597Y77934557D01*
X86395238Y77957231D01*
X81355391Y82619090D01*
X81239035Y93207500D01*
X81517873Y93207500D01*
X84968561Y87637103D01*
G37*
%TD.AperFunction*%
%TD*%
D45*
%TO.N,/24VAC-master*%
X84912000Y91900843D02*
X84912000Y87453853D01*
X81344739Y93207500D01*
X83605344Y93207500D01*
X84912000Y91900843D01*
%TA.AperFunction,Conductor*%
D50*
G36*
X84912000Y91900843D02*
G01*
X84912000Y87453853D01*
X81344739Y93207500D01*
X83605344Y93207500D01*
X84912000Y91900843D01*
G37*
%TD.AperFunction*%
%TD*%
D45*
%TO.N,/PGSW3*%
X86974480Y47461018D02*
X86974480Y47445317D01*
X83230560Y44046841D01*
X83230560Y50967113D01*
X86974480Y47461018D01*
%TA.AperFunction,Conductor*%
D50*
G36*
X86974480Y47461018D02*
G01*
X86974480Y47445317D01*
X83230560Y44046841D01*
X83230560Y50967113D01*
X86974480Y47461018D01*
G37*
%TD.AperFunction*%
%TD*%
D45*
%TO.N,+5VD*%
X89759858Y35848730D02*
X87634880Y34210727D01*
X87634880Y38195060D01*
X89759858Y35848730D01*
%TA.AperFunction,Conductor*%
D50*
G36*
X89759858Y35848730D02*
G01*
X87634880Y34210727D01*
X87634880Y38195060D01*
X89759858Y35848730D01*
G37*
%TD.AperFunction*%
%TD*%
D45*
%TO.N,+5VD*%
X84426693Y27173925D02*
X80581661Y27265474D01*
X84197822Y31110505D01*
X84426693Y27173925D01*
%TA.AperFunction,Conductor*%
D50*
G36*
X84426693Y27173925D02*
G01*
X80581661Y27265474D01*
X84197822Y31110505D01*
X84426693Y27173925D01*
G37*
%TD.AperFunction*%
%TD*%
D45*
%TO.N,+3V3*%
X26217680Y44859746D02*
X26217680Y46271480D01*
X27747058Y46271480D01*
X26217680Y44859746D01*
%TA.AperFunction,Conductor*%
D50*
G36*
X26217680Y44859746D02*
G01*
X26217680Y46271480D01*
X27747058Y46271480D01*
X26217680Y44859746D01*
G37*
%TD.AperFunction*%
%TD*%
D45*
%TO.N,+5VD*%
X70285254Y22115347D02*
X70219306Y22080097D01*
X70122615Y22000745D01*
X70043263Y21904054D01*
X69984298Y21793740D01*
X69947988Y21674042D01*
X69935728Y21549560D01*
X69935728Y19949560D01*
X69947988Y19825078D01*
X69984298Y19705380D01*
X70043263Y19595066D01*
X70122615Y19498375D01*
X70219306Y19419023D01*
X70329620Y19360058D01*
X70449318Y19323748D01*
X70573800Y19311488D01*
X72172313Y19311488D01*
X73017936Y18055031D01*
X69749400Y18095000D01*
X69795060Y22843695D01*
X70285254Y22115347D01*
%TA.AperFunction,Conductor*%
D50*
G36*
X70285254Y22115347D02*
G01*
X70219306Y22080097D01*
X70122615Y22000745D01*
X70043263Y21904054D01*
X69984298Y21793740D01*
X69947988Y21674042D01*
X69935728Y21549560D01*
X69935728Y19949560D01*
X69947988Y19825078D01*
X69984298Y19705380D01*
X70043263Y19595066D01*
X70122615Y19498375D01*
X70219306Y19419023D01*
X70329620Y19360058D01*
X70449318Y19323748D01*
X70573800Y19311488D01*
X72172313Y19311488D01*
X73017936Y18055031D01*
X69749400Y18095000D01*
X69795060Y22843695D01*
X70285254Y22115347D01*
G37*
%TD.AperFunction*%
%TD*%
D45*
%TO.N,+5V*%
X4063800Y48323800D02*
X3987600Y48323800D01*
X3962824Y48321360D01*
X3938999Y48314133D01*
X3915075Y48301055D01*
X2882606Y47582815D01*
X2542699Y48527000D01*
X4063800Y48527000D01*
X4063800Y48323800D01*
%TA.AperFunction,Conductor*%
D50*
G36*
X4063800Y48323800D02*
G01*
X3987600Y48323800D01*
X3962824Y48321360D01*
X3938999Y48314133D01*
X3915075Y48301055D01*
X2882606Y47582815D01*
X2542699Y48527000D01*
X4063800Y48527000D01*
X4063800Y48323800D01*
G37*
%TD.AperFunction*%
%TD*%
D45*
%TO.N,+24V*%
X68783000Y39129000D02*
X65856381Y39129000D01*
X68783000Y43181242D01*
X68783000Y39129000D01*
%TA.AperFunction,Conductor*%
D50*
G36*
X68783000Y39129000D02*
G01*
X65856381Y39129000D01*
X68783000Y43181242D01*
X68783000Y39129000D01*
G37*
%TD.AperFunction*%
%TD*%
D51*
X95000000Y5000000D03*
X57734000Y68212000D03*
X5000000Y95000000D03*
X95000000Y95000000D03*
X5000000Y5000000D03*
X17030500Y25667000D03*
X47447000Y54877000D03*
X51257000Y54877000D03*
X53162000Y54877000D03*
X56713312Y54872312D03*
X58115000Y58179000D03*
X34112000Y84722000D03*
X27101600Y54546800D03*
X16977160Y15494880D03*
X22671840Y16675400D03*
X32334000Y13729000D03*
X36144000Y7887000D03*
X60050480Y22878080D03*
X42016480Y18814080D03*
X44048480Y18814080D03*
X46080480Y17544080D03*
X74782480Y30879080D03*
X45648680Y35019280D03*
X28884680Y6672874D03*
X28026160Y5080880D03*
X82275480Y21481080D03*
X76230982Y16487281D03*
X85831480Y13861080D03*
X92752980Y19830080D03*
X88117480Y14750080D03*
X91216280Y37813280D03*
X89336696Y10990880D03*
X35539480Y14115080D03*
X22026680Y15054880D03*
X47282252Y31183989D03*
X47300104Y29167978D03*
X59009800Y29339467D03*
X44227000Y33485600D03*
X56483733Y30220467D03*
X56591000Y25794000D03*
X43739163Y28549167D03*
X53161998Y24524000D03*
X40162280Y18610880D03*
X29006980Y19110879D03*
X22737880Y26738880D03*
X51377274Y24022707D03*
X55732480Y21227080D03*
X48796499Y32471329D03*
X22738600Y24798800D03*
X44398994Y26556000D03*
X22738600Y22716000D03*
X49337929Y25610827D03*
X36048200Y24036800D03*
X49840782Y23086805D03*
X36662160Y1651880D03*
X26502160Y9906880D03*
X9474000Y54496000D03*
X14554000Y54496000D03*
X6934000Y54496000D03*
X12014000Y54496000D03*
X17094000Y54496000D03*
X19634000Y54496000D03*
X78998880Y39205200D03*
X73918880Y39205200D03*
X81538880Y39205200D03*
X76458880Y39205200D03*
X71378880Y39205200D03*
X68838880Y39205200D03*
X31362542Y53974194D03*
X31362542Y76974194D03*
X12786160Y11938880D03*
X22946160Y4318880D03*
X12786160Y9398880D03*
X22946160Y6858880D03*
X12786160Y6858880D03*
X22946160Y9398880D03*
X12786160Y4318880D03*
X22946160Y11938880D03*
X50222372Y40307560D03*
X52762372Y47927560D03*
X52762372Y40307560D03*
X50222372Y47927560D03*
X88103560Y43760040D03*
X83103560Y43760040D03*
X78103560Y43760040D03*
X88103560Y51260040D03*
X83103560Y51260040D03*
X78103560Y51260040D03*
X63103560Y43760040D03*
X63103560Y51260040D03*
X2519480Y31427720D03*
X2519480Y41587720D03*
X63316920Y16832880D03*
X70936920Y9212880D03*
X63316920Y14292880D03*
X70936920Y11752880D03*
X63316920Y11752880D03*
X70936920Y14292880D03*
X63316920Y9212880D03*
X70936920Y16832880D03*
X71373800Y20749560D03*
X78993800Y28369560D03*
X73913800Y20749560D03*
X76453800Y28369560D03*
X76453800Y20749560D03*
X73913800Y28369560D03*
X78993800Y20749560D03*
X71373800Y28369560D03*
X63316920Y5804200D03*
X70936920Y3264200D03*
X63316920Y3264200D03*
X70936920Y5804200D03*
X56118560Y40307560D03*
X58658560Y47927560D03*
X58658560Y40307560D03*
X56118560Y47927560D03*
X44326186Y40307560D03*
X46866186Y47927560D03*
X46866186Y40307560D03*
X44326186Y47927560D03*
X48391880Y12144040D03*
X40771880Y14684040D03*
X48391880Y14684040D03*
X40771880Y12144040D03*
X38430000Y40307560D03*
X40970000Y47927560D03*
X40970000Y40307560D03*
X38430000Y47927560D03*
X25814542Y68268194D03*
X25814542Y65728194D03*
X25814542Y63188194D03*
X17020480Y34459600D03*
X17020480Y29959600D03*
X10520480Y34459600D03*
X10520480Y29959600D03*
X4277160Y11430880D03*
X9357160Y11430880D03*
X81980840Y28521960D03*
X92140840Y28521960D03*
X2616000Y51194000D03*
X12776000Y51194000D03*
X88103560Y57287028D03*
X83103560Y57287028D03*
X78103560Y57287028D03*
X88103560Y64787028D03*
X83103560Y64787028D03*
X78103560Y64787028D03*
X63103560Y57287028D03*
X63103560Y64787028D03*
X88103560Y70814014D03*
X83103560Y70814014D03*
X78103560Y70814014D03*
X88103560Y78314014D03*
X83103560Y78314014D03*
X78103560Y78314014D03*
X63103560Y70814014D03*
X63103560Y78314014D03*
X88103560Y84341000D03*
X83103560Y84341000D03*
X78103560Y84341000D03*
X88103560Y91841000D03*
X83103560Y91841000D03*
X78103560Y91841000D03*
X63103560Y84341000D03*
X63103560Y91841000D03*
X32440680Y2476800D03*
X29900680Y2476800D03*
X27360680Y2476800D03*
X6309160Y38608880D03*
X6309160Y36068880D03*
X6309160Y33528880D03*
X32521960Y17188480D03*
X35061960Y17188480D03*
X37601960Y17188480D03*
X88033680Y3497880D03*
X83033680Y3497880D03*
X78033680Y3497880D03*
X3499920Y16568720D03*
X3499920Y21568720D03*
X3499920Y26568720D03*
X33751320Y44645880D03*
X31211320Y44645880D03*
X26131320Y44645880D03*
X28671320Y44645880D03*
X64282120Y26759200D03*
X66822120Y26759200D03*
X96535040Y47338280D03*
X96535040Y42338280D03*
X60685480Y36340080D03*
X63225480Y36340080D03*
X45704560Y3492800D03*
X40704560Y3492800D03*
X96535040Y76639720D03*
X96535040Y71639720D03*
X96535040Y88406280D03*
X96535040Y83406280D03*
X3499920Y82349640D03*
X3499920Y87349640D03*
X15449000Y92913500D03*
X38049000Y92913500D03*
X12522000Y83388500D03*
X22682000Y83388500D03*
X53116280Y6266480D03*
X53116280Y2766480D03*
X20396000Y44844000D03*
X20396000Y47344000D03*
X89880240Y35735560D03*
X89880240Y33235560D03*
X23098560Y76177440D03*
X20598560Y76177440D03*
X13792000Y70498000D03*
X6292000Y70498000D03*
X3124000Y46368000D03*
X5624000Y46368000D03*
M02*
