%TF.GenerationSoftware,KiCad,Pcbnew,(6.0.0-rc1-dev-882-gdbc9130da)*%
%TF.CreationDate,2018-12-23T18:02:24+08:00*%
%TF.ProjectId,interface,696E746572666163652E6B696361645F,rev?*%
%TF.SameCoordinates,Original*%
%TF.FileFunction,Copper,L2,Bot,Signal*%
%TF.FilePolarity,Positive*%
%FSLAX46Y46*%
G04 Gerber Fmt 4.6, Leading zero omitted, Abs format (unit mm)*
G04 Created by KiCad (PCBNEW (6.0.0-rc1-dev-882-gdbc9130da)) date 2018/12/23 18:02:24*
%MOMM*%
%LPD*%
G01*
G04 APERTURE LIST*
%ADD10C,0.150000*%
%ADD11R,1.600000X1.600000*%
%ADD12O,1.600000X1.600000*%
%ADD13C,2.500000*%
%ADD14C,2.000000*%
%ADD15C,1.600000*%
%ADD16C,2.800000*%
%ADD17R,1.800000X1.800000*%
%ADD18O,1.800000X1.800000*%
%ADD19C,2.400000*%
%ADD20O,2.400000X2.400000*%
%ADD21C,1.800000*%
%ADD22O,4.000000X2.500000*%
%ADD23R,2.200000X2.200000*%
%ADD24O,2.200000X2.200000*%
%ADD25R,2.400000X2.400000*%
%ADD26C,1.400000*%
%ADD27C,6.000000*%
%ADD28C,1.000000*%
%ADD29C,1.200000*%
%ADD30C,1.100000*%
%ADD31C,0.762000*%
%ADD32C,2.000000*%
%ADD33C,7.000000*%
%ADD34C,5.000000*%
%ADD35C,0.381000*%
%ADD36C,0.254000*%
%ADD37C,6.000000*%
%ADD38C,3.000000*%
G04 APERTURE END LIST*
D10*
X100000000Y-150000000D02*
X200000000Y-150000000D01*
X200000000Y-150000000D02*
X200000000Y-50000000D01*
X100000000Y-50000000D02*
X200000000Y-50000000D01*
X100000000Y-50000000D02*
X100000000Y-150000000D01*
D11*
X150222372Y-109692440D03*
D12*
X152762372Y-102072440D03*
X152762372Y-109692440D03*
X150222372Y-102072440D03*
D13*
X188103560Y-106239960D03*
X183103560Y-106239960D03*
X178103560Y-106239960D03*
X188103560Y-98739960D03*
X183103560Y-98739960D03*
X178103560Y-98739960D03*
X163103560Y-106239960D03*
X163103560Y-98739960D03*
D14*
X106934000Y-95504000D03*
X112014000Y-95504000D03*
X117094000Y-95504000D03*
X119634000Y-95504000D03*
D15*
X102519480Y-118572280D03*
D12*
X102519480Y-108412280D03*
D16*
X131362542Y-96025806D03*
X131362542Y-73025806D03*
D11*
X163316920Y-133167120D03*
D12*
X170936920Y-140787120D03*
X163316920Y-135707120D03*
X170936920Y-138247120D03*
X163316920Y-138247120D03*
X170936920Y-135707120D03*
X163316920Y-140787120D03*
X170936920Y-133167120D03*
D11*
X171373800Y-129250440D03*
D12*
X178993800Y-121630440D03*
X173913800Y-129250440D03*
X176453800Y-121630440D03*
X176453800Y-129250440D03*
X173913800Y-121630440D03*
X178993800Y-129250440D03*
X171373800Y-121630440D03*
D11*
X163316920Y-144195800D03*
D12*
X170936920Y-146735800D03*
X163316920Y-146735800D03*
X170936920Y-144195800D03*
D11*
X116037360Y-137972800D03*
D12*
X123657360Y-145592800D03*
X116037360Y-140512800D03*
X123657360Y-143052800D03*
X116037360Y-143052800D03*
X123657360Y-140512800D03*
X116037360Y-145592800D03*
X123657360Y-137972800D03*
D11*
X156118560Y-109692440D03*
D12*
X158658560Y-102072440D03*
X158658560Y-109692440D03*
X156118560Y-102072440D03*
D11*
X144326186Y-109692440D03*
D12*
X146866186Y-102072440D03*
X146866186Y-109692440D03*
X144326186Y-102072440D03*
D11*
X148391880Y-137855960D03*
D12*
X140771880Y-135315960D03*
X148391880Y-135315960D03*
X140771880Y-137855960D03*
D11*
X138430000Y-109692440D03*
D12*
X140970000Y-102072440D03*
X140970000Y-109692440D03*
X138430000Y-102072440D03*
D14*
X181538880Y-110794800D03*
X176458880Y-110794800D03*
X171378880Y-110794800D03*
X168838880Y-110794800D03*
D17*
X125814542Y-81731806D03*
D18*
X125814542Y-84271806D03*
X125814542Y-86811806D03*
D14*
X117020480Y-115540400D03*
X117020480Y-120040400D03*
X110520480Y-115540400D03*
X110520480Y-120040400D03*
D19*
X111394240Y-138663680D03*
D20*
X111394240Y-143743680D03*
D15*
X181980840Y-121478040D03*
D12*
X192140840Y-121478040D03*
D15*
X102616000Y-98806000D03*
D12*
X112776000Y-98806000D03*
D13*
X188103560Y-92712972D03*
X183103560Y-92712972D03*
X178103560Y-92712972D03*
X188103560Y-85212972D03*
X183103560Y-85212972D03*
X178103560Y-85212972D03*
X163103560Y-92712972D03*
X163103560Y-85212972D03*
X188103560Y-79185986D03*
X183103560Y-79185986D03*
X178103560Y-79185986D03*
X188103560Y-71685986D03*
X183103560Y-71685986D03*
X178103560Y-71685986D03*
X163103560Y-79185986D03*
X163103560Y-71685986D03*
X188103560Y-65659000D03*
X183103560Y-65659000D03*
X178103560Y-65659000D03*
X188103560Y-58159000D03*
X183103560Y-58159000D03*
X178103560Y-58159000D03*
X163103560Y-65659000D03*
X163103560Y-58159000D03*
D21*
X132440680Y-147523200D03*
X129900680Y-147523200D03*
X127360680Y-147523200D03*
X107416600Y-116443760D03*
X107416600Y-113903760D03*
X107416600Y-111363760D03*
X132521960Y-132811520D03*
X135061960Y-132811520D03*
X137601960Y-132811520D03*
D13*
X188033680Y-146502120D03*
X183033680Y-146502120D03*
X178033680Y-146502120D03*
X103499920Y-133431280D03*
X103499920Y-128431280D03*
X103499920Y-123431280D03*
D21*
X133751320Y-105354120D03*
X131211320Y-105354120D03*
X126131320Y-105354120D03*
X128671320Y-105354120D03*
X164282120Y-123240800D03*
X166822120Y-123240800D03*
D13*
X196535040Y-102661720D03*
X196535040Y-107661720D03*
D21*
X160685480Y-113659920D03*
X163225480Y-113659920D03*
D13*
X145704560Y-146507200D03*
X140704560Y-146507200D03*
X196535040Y-73360280D03*
X196535040Y-78360280D03*
X196535040Y-61593720D03*
X196535040Y-66593720D03*
X103499920Y-67650360D03*
X103499920Y-62650360D03*
D22*
X115449000Y-57086500D03*
X138049000Y-57086500D03*
D23*
X112522000Y-66611500D03*
D24*
X122682000Y-66611500D03*
D11*
X153116280Y-143733520D03*
D15*
X153116280Y-147233520D03*
D11*
X120396000Y-105156000D03*
D15*
X120396000Y-102656000D03*
D11*
X189880240Y-114264440D03*
D15*
X189880240Y-116764440D03*
D11*
X123098560Y-73822560D03*
D15*
X120598560Y-73822560D03*
D25*
X113792000Y-79502000D03*
D19*
X106292000Y-79502000D03*
D11*
X103124000Y-103632000D03*
D15*
X105624000Y-103632000D03*
D26*
X157734000Y-81788000D03*
D27*
X105000000Y-55000000D03*
X195000000Y-55000000D03*
X105000000Y-145000000D03*
X195000000Y-145000000D03*
D28*
X117030500Y-124333000D03*
X147447000Y-95123000D03*
X151257000Y-95123000D03*
X153162000Y-95123000D03*
X156713312Y-95127688D03*
X158115000Y-91821000D03*
D29*
X134112000Y-65278000D03*
D28*
X127101600Y-95453200D03*
X116977160Y-134505120D03*
X109103154Y-128409120D03*
D30*
X122671840Y-133324600D03*
D28*
X132334000Y-136271000D03*
X136144000Y-142113000D03*
X160050480Y-127121920D03*
X142016480Y-131185920D03*
X144048480Y-131185920D03*
X146080480Y-132455920D03*
X174782480Y-119120920D03*
X145648680Y-114980720D03*
X128884680Y-143327126D03*
X136662160Y-148348120D03*
X182275480Y-128518920D03*
X176230982Y-133512719D03*
X185831480Y-136138920D03*
X192752980Y-130169920D03*
D19*
X188117480Y-135249920D03*
D28*
X191216280Y-112186720D03*
D19*
X189336696Y-139009120D03*
D28*
X135539480Y-135884920D03*
X122026680Y-134945120D03*
X159009800Y-120660533D03*
X144227000Y-116514400D03*
X156483733Y-119779533D03*
X156591000Y-124206000D03*
X143739163Y-121450833D03*
X153161998Y-125476000D03*
X140162280Y-131389120D03*
X129006980Y-130889121D03*
X122737880Y-123261120D03*
X151003000Y-125603020D03*
X155732480Y-128772920D03*
X148717000Y-117991008D03*
X122738600Y-125201200D03*
X144398994Y-123444000D03*
X122738600Y-127284000D03*
X148821931Y-123894249D03*
X136048200Y-125963200D03*
X149840782Y-126881692D03*
D31*
X159512000Y-81788000D02*
X163103560Y-85212972D01*
X157734000Y-81788000D02*
X159512000Y-81788000D01*
D32*
X169367399Y-126942439D02*
X168628919Y-127680919D01*
X179754119Y-119170039D02*
X183088681Y-119170039D01*
X183088681Y-119170039D02*
X184288841Y-120370199D01*
X184288841Y-120370199D02*
X184288841Y-122585881D01*
X184288841Y-122585881D02*
X179932283Y-126942439D01*
X179932283Y-126942439D02*
X169367399Y-126942439D01*
X168628919Y-127680919D02*
X168628919Y-134139081D01*
X168628919Y-134139081D02*
X166624000Y-136144000D01*
X179754119Y-119170039D02*
X176662080Y-116078000D01*
X176662080Y-116078000D02*
X172974000Y-116078000D01*
D31*
X134599680Y-134945120D02*
X122733786Y-134945120D01*
X122733786Y-134945120D02*
X122026680Y-134945120D01*
X135539480Y-135884920D02*
X134599680Y-134945120D01*
D33*
X138049000Y-57086500D02*
X155575000Y-57086500D01*
D34*
X188103560Y-63891234D02*
X188103560Y-65659000D01*
X188103560Y-56391234D02*
X188103560Y-63891234D01*
X185613325Y-53900999D02*
X188103560Y-56391234D01*
X159205001Y-53900999D02*
X185613325Y-53900999D01*
X158750000Y-54356000D02*
X159205001Y-53900999D01*
X158305500Y-54356000D02*
X158750000Y-54356000D01*
D33*
X155575000Y-57086500D02*
X158305500Y-54356000D01*
D35*
X144227000Y-116514400D02*
X151694600Y-116514400D01*
X158302694Y-120660533D02*
X159009800Y-120660533D01*
X158239193Y-120724034D02*
X158302694Y-120660533D01*
X155904234Y-120724034D02*
X158239193Y-120724034D01*
X151694600Y-116514400D02*
X155904234Y-120724034D01*
D36*
X166592933Y-119779533D02*
X169751841Y-122938441D01*
X156483733Y-119779533D02*
X166592933Y-119779533D01*
X169751841Y-122938441D02*
X175145799Y-122938441D01*
X175145799Y-122938441D02*
X176453800Y-121630440D01*
D37*
X103499920Y-62650360D02*
X106605562Y-62650360D01*
D34*
X107529640Y-62650360D02*
X106605562Y-62650360D01*
X115449000Y-57086500D02*
X113093500Y-57086500D01*
X113093500Y-57086500D02*
X107529640Y-62650360D01*
D32*
X183103560Y-58159000D02*
X183103560Y-65659000D01*
X183103560Y-66685986D02*
X188103560Y-71685986D01*
X183103560Y-65659000D02*
X183103560Y-66685986D01*
D38*
X184353559Y-77935987D02*
X183103560Y-79185986D01*
X186361561Y-74943987D02*
X186361561Y-75927985D01*
X183103560Y-71685986D02*
X186361561Y-74943987D01*
X183103560Y-71685986D02*
X183103560Y-79185986D01*
X189300388Y-75311000D02*
X187579000Y-75311000D01*
X195285041Y-69326347D02*
X189300388Y-75311000D01*
X195285041Y-67843719D02*
X195285041Y-69326347D01*
X196535040Y-66593720D02*
X195285041Y-67843719D01*
X186361561Y-75927985D02*
X187579000Y-75311000D01*
X187579000Y-75311000D02*
X184353559Y-77935987D01*
X184353559Y-86462971D02*
X183103560Y-85212972D01*
X186361561Y-88470973D02*
X184353559Y-86462971D01*
X186361561Y-89454971D02*
X186361561Y-88470973D01*
X183103560Y-85212972D02*
X183103560Y-92712972D01*
X191389000Y-78506320D02*
X191389000Y-88011000D01*
X196535040Y-73360280D02*
X191389000Y-78506320D01*
X190500000Y-88900000D02*
X187198000Y-88900000D01*
X191389000Y-88011000D02*
X190500000Y-88900000D01*
X183103560Y-92712972D02*
X187198000Y-88900000D01*
X187198000Y-88900000D02*
X186361561Y-89454971D01*
D35*
X163316920Y-124206000D02*
X157298106Y-124206000D01*
X164282120Y-123240800D02*
X163316920Y-124206000D01*
X157298106Y-124206000D02*
X156591000Y-124206000D01*
D36*
X143739163Y-121450833D02*
X149136831Y-121450833D01*
X152661999Y-124976001D02*
X153161998Y-125476000D01*
X149136831Y-121450833D02*
X152661999Y-124976001D01*
D35*
X140162280Y-131389120D02*
X139662281Y-130889121D01*
X129146681Y-130889121D02*
X129006980Y-130889121D01*
X139662281Y-130889121D02*
X129006980Y-130889121D01*
X143945639Y-122372499D02*
X148733605Y-122372499D01*
X143557017Y-122761121D02*
X143945639Y-122372499D01*
X148733605Y-122372499D02*
X151003000Y-124641894D01*
X123237879Y-122761121D02*
X143557017Y-122761121D01*
X151003000Y-124641894D02*
X151003000Y-124895914D01*
X151003000Y-124895914D02*
X151003000Y-125603020D01*
X122737880Y-123261120D02*
X123237879Y-122761121D01*
D36*
X155732480Y-125006488D02*
X155732480Y-128772920D01*
X148717000Y-117991008D02*
X155732480Y-125006488D01*
X124495800Y-123444000D02*
X143691888Y-123444000D01*
X143691888Y-123444000D02*
X144398994Y-123444000D01*
X122738600Y-125201200D02*
X124495800Y-123444000D01*
X148256180Y-124460000D02*
X148321932Y-124394248D01*
X148321932Y-124394248D02*
X148821931Y-123894249D01*
X125562600Y-124460000D02*
X148256180Y-124460000D01*
X122738600Y-127284000D02*
X125562600Y-124460000D01*
D35*
X148922290Y-125963200D02*
X149340783Y-126381693D01*
X136048200Y-125963200D02*
X148922290Y-125963200D01*
X149340783Y-126381693D02*
X149840782Y-126881692D01*
D36*
G36*
X188536765Y-75688550D02*
X183384552Y-80361487D01*
X183264734Y-70536338D01*
X188536765Y-75688550D01*
X188536765Y-75688550D01*
G37*
X188536765Y-75688550D02*
X183384552Y-80361487D01*
X183264734Y-70536338D01*
X188536765Y-75688550D01*
G36*
X188001982Y-88903638D02*
X183259970Y-92578698D01*
X183231555Y-85461919D01*
X188001982Y-88903638D01*
X188001982Y-88903638D01*
G37*
X188001982Y-88903638D02*
X183259970Y-92578698D01*
X183231555Y-85461919D01*
X188001982Y-88903638D01*
G36*
X180152794Y-109868647D02*
X179903880Y-110469578D01*
X179903880Y-111120022D01*
X180152794Y-111720953D01*
X180612727Y-112180886D01*
X181213658Y-112429800D01*
X181864102Y-112429800D01*
X182465033Y-112180886D01*
X182924966Y-111720953D01*
X183173880Y-111120022D01*
X183173880Y-110469578D01*
X182924966Y-109868647D01*
X182911319Y-109855000D01*
X199290000Y-109855000D01*
X199290000Y-149290000D01*
X168783000Y-149290000D01*
X168783000Y-144195800D01*
X169473807Y-144195800D01*
X169585180Y-144755709D01*
X169902343Y-145230377D01*
X170254678Y-145465800D01*
X169902343Y-145701223D01*
X169585180Y-146175891D01*
X169473807Y-146735800D01*
X169585180Y-147295709D01*
X169902343Y-147770377D01*
X170377011Y-148087540D01*
X170795587Y-148170800D01*
X171078253Y-148170800D01*
X171496829Y-148087540D01*
X171971497Y-147770377D01*
X172288660Y-147295709D01*
X172400033Y-146735800D01*
X172288660Y-146175891D01*
X172256106Y-146127170D01*
X176148680Y-146127170D01*
X176148680Y-146877070D01*
X176435654Y-147569887D01*
X176965913Y-148100146D01*
X177658730Y-148387120D01*
X178408630Y-148387120D01*
X179101447Y-148100146D01*
X179631706Y-147569887D01*
X179918680Y-146877070D01*
X179918680Y-146127170D01*
X186148680Y-146127170D01*
X186148680Y-146877070D01*
X186435654Y-147569887D01*
X186965913Y-148100146D01*
X187658730Y-148387120D01*
X188408630Y-148387120D01*
X189101447Y-148100146D01*
X189631706Y-147569887D01*
X189918680Y-146877070D01*
X189918680Y-146127170D01*
X189631706Y-145434353D01*
X189101447Y-144904094D01*
X188408630Y-144617120D01*
X187658730Y-144617120D01*
X186965913Y-144904094D01*
X186435654Y-145434353D01*
X186148680Y-146127170D01*
X179918680Y-146127170D01*
X179631706Y-145434353D01*
X179101447Y-144904094D01*
X178408630Y-144617120D01*
X177658730Y-144617120D01*
X176965913Y-144904094D01*
X176435654Y-145434353D01*
X176148680Y-146127170D01*
X172256106Y-146127170D01*
X171971497Y-145701223D01*
X171619162Y-145465800D01*
X171971497Y-145230377D01*
X172288660Y-144755709D01*
X172400033Y-144195800D01*
X172288660Y-143635891D01*
X171971497Y-143161223D01*
X171496829Y-142844060D01*
X171078253Y-142760800D01*
X170795587Y-142760800D01*
X170377011Y-142844060D01*
X169902343Y-143161223D01*
X169585180Y-143635891D01*
X169473807Y-144195800D01*
X168783000Y-144195800D01*
X168783000Y-140970000D01*
X190881000Y-140970000D01*
X190881000Y-149098000D01*
X190890667Y-149146601D01*
X190918197Y-149187803D01*
X190959399Y-149215333D01*
X191008000Y-149225000D01*
X199136000Y-149225000D01*
X199184601Y-149215333D01*
X199225803Y-149187803D01*
X199253333Y-149146601D01*
X199263000Y-149098000D01*
X199263000Y-140970000D01*
X199253333Y-140921399D01*
X199225803Y-140880197D01*
X199184601Y-140852667D01*
X199136000Y-140843000D01*
X191008000Y-140843000D01*
X190959399Y-140852667D01*
X190918197Y-140880197D01*
X190890667Y-140921399D01*
X190881000Y-140970000D01*
X168783000Y-140970000D01*
X168783000Y-136297239D01*
X169498808Y-135581431D01*
X169473807Y-135707120D01*
X169585180Y-136267029D01*
X169902343Y-136741697D01*
X170254678Y-136977120D01*
X169902343Y-137212543D01*
X169585180Y-137687211D01*
X169473807Y-138247120D01*
X169585180Y-138807029D01*
X169902343Y-139281697D01*
X170377011Y-139598860D01*
X170795587Y-139682120D01*
X171078253Y-139682120D01*
X171496829Y-139598860D01*
X171971497Y-139281697D01*
X172288660Y-138807029D01*
X172400033Y-138247120D01*
X172288660Y-137687211D01*
X171971497Y-137212543D01*
X171619162Y-136977120D01*
X171971497Y-136741697D01*
X172288660Y-136267029D01*
X172400033Y-135707120D01*
X172288660Y-135147211D01*
X171971497Y-134672543D01*
X171619162Y-134437120D01*
X171971497Y-134201697D01*
X172288660Y-133727029D01*
X172400033Y-133167120D01*
X172288660Y-132607211D01*
X171971497Y-132132543D01*
X171496829Y-131815380D01*
X171078253Y-131732120D01*
X170795587Y-131732120D01*
X170377011Y-131815380D01*
X170263919Y-131890946D01*
X170263919Y-130607092D01*
X170326035Y-130648597D01*
X170573800Y-130697880D01*
X172173800Y-130697880D01*
X172421565Y-130648597D01*
X172631609Y-130508249D01*
X172771957Y-130298205D01*
X172798585Y-130164334D01*
X172879223Y-130285017D01*
X173353891Y-130602180D01*
X173772467Y-130685440D01*
X174055133Y-130685440D01*
X174473709Y-130602180D01*
X174948377Y-130285017D01*
X175183800Y-129932682D01*
X175419223Y-130285017D01*
X175893891Y-130602180D01*
X176312467Y-130685440D01*
X176595133Y-130685440D01*
X177013709Y-130602180D01*
X177488377Y-130285017D01*
X177723800Y-129932682D01*
X177959223Y-130285017D01*
X178433891Y-130602180D01*
X178852467Y-130685440D01*
X179135133Y-130685440D01*
X179553709Y-130602180D01*
X180028377Y-130285017D01*
X180345540Y-129810349D01*
X180456913Y-129250440D01*
X180345540Y-128690531D01*
X180249249Y-128546422D01*
X180570228Y-128482575D01*
X181111052Y-128121208D01*
X181202271Y-127984689D01*
X185331094Y-123855867D01*
X185467610Y-123764650D01*
X185828977Y-123223826D01*
X185923841Y-122746912D01*
X185923841Y-122746908D01*
X185955871Y-122585882D01*
X185923841Y-122424856D01*
X185923841Y-120531230D01*
X185955872Y-120370199D01*
X185828977Y-119732253D01*
X185558827Y-119327945D01*
X185558825Y-119327943D01*
X185467610Y-119191430D01*
X185331096Y-119100215D01*
X184358669Y-118127788D01*
X184267450Y-117991270D01*
X183726626Y-117629903D01*
X183249712Y-117535039D01*
X183249711Y-117535039D01*
X183088681Y-117503008D01*
X182927651Y-117535039D01*
X180431358Y-117535039D01*
X177932068Y-115035750D01*
X177840849Y-114899231D01*
X177300025Y-114537864D01*
X176823111Y-114443000D01*
X176823110Y-114443000D01*
X176662080Y-114410969D01*
X176501050Y-114443000D01*
X174117000Y-114443000D01*
X174117000Y-113464440D01*
X188432800Y-113464440D01*
X188432800Y-115064440D01*
X188482083Y-115312205D01*
X188622431Y-115522249D01*
X188832475Y-115662597D01*
X189080240Y-115711880D01*
X190680240Y-115711880D01*
X190928005Y-115662597D01*
X191138049Y-115522249D01*
X191278397Y-115312205D01*
X191327680Y-115064440D01*
X191327680Y-113464440D01*
X191278397Y-113216675D01*
X191138049Y-113006631D01*
X190928005Y-112866283D01*
X190680240Y-112817000D01*
X189080240Y-112817000D01*
X188832475Y-112866283D01*
X188622431Y-113006631D01*
X188482083Y-113216675D01*
X188432800Y-113464440D01*
X174117000Y-113464440D01*
X174117000Y-109855000D01*
X180166441Y-109855000D01*
X180152794Y-109868647D01*
X180152794Y-109868647D01*
G37*
X180152794Y-109868647D02*
X179903880Y-110469578D01*
X179903880Y-111120022D01*
X180152794Y-111720953D01*
X180612727Y-112180886D01*
X181213658Y-112429800D01*
X181864102Y-112429800D01*
X182465033Y-112180886D01*
X182924966Y-111720953D01*
X183173880Y-111120022D01*
X183173880Y-110469578D01*
X182924966Y-109868647D01*
X182911319Y-109855000D01*
X199290000Y-109855000D01*
X199290000Y-149290000D01*
X168783000Y-149290000D01*
X168783000Y-144195800D01*
X169473807Y-144195800D01*
X169585180Y-144755709D01*
X169902343Y-145230377D01*
X170254678Y-145465800D01*
X169902343Y-145701223D01*
X169585180Y-146175891D01*
X169473807Y-146735800D01*
X169585180Y-147295709D01*
X169902343Y-147770377D01*
X170377011Y-148087540D01*
X170795587Y-148170800D01*
X171078253Y-148170800D01*
X171496829Y-148087540D01*
X171971497Y-147770377D01*
X172288660Y-147295709D01*
X172400033Y-146735800D01*
X172288660Y-146175891D01*
X172256106Y-146127170D01*
X176148680Y-146127170D01*
X176148680Y-146877070D01*
X176435654Y-147569887D01*
X176965913Y-148100146D01*
X177658730Y-148387120D01*
X178408630Y-148387120D01*
X179101447Y-148100146D01*
X179631706Y-147569887D01*
X179918680Y-146877070D01*
X179918680Y-146127170D01*
X186148680Y-146127170D01*
X186148680Y-146877070D01*
X186435654Y-147569887D01*
X186965913Y-148100146D01*
X187658730Y-148387120D01*
X188408630Y-148387120D01*
X189101447Y-148100146D01*
X189631706Y-147569887D01*
X189918680Y-146877070D01*
X189918680Y-146127170D01*
X189631706Y-145434353D01*
X189101447Y-144904094D01*
X188408630Y-144617120D01*
X187658730Y-144617120D01*
X186965913Y-144904094D01*
X186435654Y-145434353D01*
X186148680Y-146127170D01*
X179918680Y-146127170D01*
X179631706Y-145434353D01*
X179101447Y-144904094D01*
X178408630Y-144617120D01*
X177658730Y-144617120D01*
X176965913Y-144904094D01*
X176435654Y-145434353D01*
X176148680Y-146127170D01*
X172256106Y-146127170D01*
X171971497Y-145701223D01*
X171619162Y-145465800D01*
X171971497Y-145230377D01*
X172288660Y-144755709D01*
X172400033Y-144195800D01*
X172288660Y-143635891D01*
X171971497Y-143161223D01*
X171496829Y-142844060D01*
X171078253Y-142760800D01*
X170795587Y-142760800D01*
X170377011Y-142844060D01*
X169902343Y-143161223D01*
X169585180Y-143635891D01*
X169473807Y-144195800D01*
X168783000Y-144195800D01*
X168783000Y-140970000D01*
X190881000Y-140970000D01*
X190881000Y-149098000D01*
X190890667Y-149146601D01*
X190918197Y-149187803D01*
X190959399Y-149215333D01*
X191008000Y-149225000D01*
X199136000Y-149225000D01*
X199184601Y-149215333D01*
X199225803Y-149187803D01*
X199253333Y-149146601D01*
X199263000Y-149098000D01*
X199263000Y-140970000D01*
X199253333Y-140921399D01*
X199225803Y-140880197D01*
X199184601Y-140852667D01*
X199136000Y-140843000D01*
X191008000Y-140843000D01*
X190959399Y-140852667D01*
X190918197Y-140880197D01*
X190890667Y-140921399D01*
X190881000Y-140970000D01*
X168783000Y-140970000D01*
X168783000Y-136297239D01*
X169498808Y-135581431D01*
X169473807Y-135707120D01*
X169585180Y-136267029D01*
X169902343Y-136741697D01*
X170254678Y-136977120D01*
X169902343Y-137212543D01*
X169585180Y-137687211D01*
X169473807Y-138247120D01*
X169585180Y-138807029D01*
X169902343Y-139281697D01*
X170377011Y-139598860D01*
X170795587Y-139682120D01*
X171078253Y-139682120D01*
X171496829Y-139598860D01*
X171971497Y-139281697D01*
X172288660Y-138807029D01*
X172400033Y-138247120D01*
X172288660Y-137687211D01*
X171971497Y-137212543D01*
X171619162Y-136977120D01*
X171971497Y-136741697D01*
X172288660Y-136267029D01*
X172400033Y-135707120D01*
X172288660Y-135147211D01*
X171971497Y-134672543D01*
X171619162Y-134437120D01*
X171971497Y-134201697D01*
X172288660Y-133727029D01*
X172400033Y-133167120D01*
X172288660Y-132607211D01*
X171971497Y-132132543D01*
X171496829Y-131815380D01*
X171078253Y-131732120D01*
X170795587Y-131732120D01*
X170377011Y-131815380D01*
X170263919Y-131890946D01*
X170263919Y-130607092D01*
X170326035Y-130648597D01*
X170573800Y-130697880D01*
X172173800Y-130697880D01*
X172421565Y-130648597D01*
X172631609Y-130508249D01*
X172771957Y-130298205D01*
X172798585Y-130164334D01*
X172879223Y-130285017D01*
X173353891Y-130602180D01*
X173772467Y-130685440D01*
X174055133Y-130685440D01*
X174473709Y-130602180D01*
X174948377Y-130285017D01*
X175183800Y-129932682D01*
X175419223Y-130285017D01*
X175893891Y-130602180D01*
X176312467Y-130685440D01*
X176595133Y-130685440D01*
X177013709Y-130602180D01*
X177488377Y-130285017D01*
X177723800Y-129932682D01*
X177959223Y-130285017D01*
X178433891Y-130602180D01*
X178852467Y-130685440D01*
X179135133Y-130685440D01*
X179553709Y-130602180D01*
X180028377Y-130285017D01*
X180345540Y-129810349D01*
X180456913Y-129250440D01*
X180345540Y-128690531D01*
X180249249Y-128546422D01*
X180570228Y-128482575D01*
X181111052Y-128121208D01*
X181202271Y-127984689D01*
X185331094Y-123855867D01*
X185467610Y-123764650D01*
X185828977Y-123223826D01*
X185923841Y-122746912D01*
X185923841Y-122746908D01*
X185955871Y-122585882D01*
X185923841Y-122424856D01*
X185923841Y-120531230D01*
X185955872Y-120370199D01*
X185828977Y-119732253D01*
X185558827Y-119327945D01*
X185558825Y-119327943D01*
X185467610Y-119191430D01*
X185331096Y-119100215D01*
X184358669Y-118127788D01*
X184267450Y-117991270D01*
X183726626Y-117629903D01*
X183249712Y-117535039D01*
X183249711Y-117535039D01*
X183088681Y-117503008D01*
X182927651Y-117535039D01*
X180431358Y-117535039D01*
X177932068Y-115035750D01*
X177840849Y-114899231D01*
X177300025Y-114537864D01*
X176823111Y-114443000D01*
X176823110Y-114443000D01*
X176662080Y-114410969D01*
X176501050Y-114443000D01*
X174117000Y-114443000D01*
X174117000Y-113464440D01*
X188432800Y-113464440D01*
X188432800Y-115064440D01*
X188482083Y-115312205D01*
X188622431Y-115522249D01*
X188832475Y-115662597D01*
X189080240Y-115711880D01*
X190680240Y-115711880D01*
X190928005Y-115662597D01*
X191138049Y-115522249D01*
X191278397Y-115312205D01*
X191327680Y-115064440D01*
X191327680Y-113464440D01*
X191278397Y-113216675D01*
X191138049Y-113006631D01*
X190928005Y-112866283D01*
X190680240Y-112817000D01*
X189080240Y-112817000D01*
X188832475Y-112866283D01*
X188622431Y-113006631D01*
X188482083Y-113216675D01*
X188432800Y-113464440D01*
X174117000Y-113464440D01*
X174117000Y-109855000D01*
X180166441Y-109855000D01*
X180152794Y-109868647D01*
G36*
X106007847Y-94117914D02*
X105547914Y-94577847D01*
X105299000Y-95178778D01*
X105299000Y-95829222D01*
X105547914Y-96430153D01*
X106007847Y-96890086D01*
X106608778Y-97139000D01*
X107259222Y-97139000D01*
X107860153Y-96890086D01*
X108320086Y-96430153D01*
X108569000Y-95829222D01*
X108569000Y-95178778D01*
X108320086Y-94577847D01*
X107860153Y-94117914D01*
X107833804Y-94107000D01*
X114427000Y-94107000D01*
X114427000Y-99568000D01*
X114436667Y-99616601D01*
X114464197Y-99657803D01*
X114505399Y-99685333D01*
X114554000Y-99695000D01*
X123642132Y-99695000D01*
X126398381Y-102701817D01*
X126438348Y-102731111D01*
X126492000Y-102743000D01*
X136144000Y-102743000D01*
X136144000Y-109728000D01*
X136153667Y-109776601D01*
X136181197Y-109817803D01*
X136222399Y-109845333D01*
X136271000Y-109855000D01*
X136982560Y-109855000D01*
X136982560Y-110492440D01*
X137031843Y-110740205D01*
X137172191Y-110950249D01*
X137382235Y-111090597D01*
X137630000Y-111139880D01*
X139230000Y-111139880D01*
X139477765Y-111090597D01*
X139687809Y-110950249D01*
X139828157Y-110740205D01*
X139854785Y-110606334D01*
X139935423Y-110727017D01*
X140410091Y-111044180D01*
X140828667Y-111127440D01*
X141111333Y-111127440D01*
X141529909Y-111044180D01*
X142004577Y-110727017D01*
X142321740Y-110252349D01*
X142400778Y-109855000D01*
X142878746Y-109855000D01*
X142878746Y-110492440D01*
X142928029Y-110740205D01*
X143068377Y-110950249D01*
X143278421Y-111090597D01*
X143526186Y-111139880D01*
X145126186Y-111139880D01*
X145373951Y-111090597D01*
X145583995Y-110950249D01*
X145724343Y-110740205D01*
X145750971Y-110606334D01*
X145831609Y-110727017D01*
X146306277Y-111044180D01*
X146724853Y-111127440D01*
X147007519Y-111127440D01*
X147426095Y-111044180D01*
X147900763Y-110727017D01*
X148217926Y-110252349D01*
X148296964Y-109855000D01*
X148774932Y-109855000D01*
X148774932Y-110492440D01*
X148824215Y-110740205D01*
X148964563Y-110950249D01*
X149174607Y-111090597D01*
X149422372Y-111139880D01*
X151022372Y-111139880D01*
X151270137Y-111090597D01*
X151480181Y-110950249D01*
X151620529Y-110740205D01*
X151647157Y-110606334D01*
X151727795Y-110727017D01*
X152202463Y-111044180D01*
X152621039Y-111127440D01*
X152903705Y-111127440D01*
X153322281Y-111044180D01*
X153796949Y-110727017D01*
X154114112Y-110252349D01*
X154193150Y-109855000D01*
X154671120Y-109855000D01*
X154671120Y-110492440D01*
X154720403Y-110740205D01*
X154860751Y-110950249D01*
X155070795Y-111090597D01*
X155318560Y-111139880D01*
X156918560Y-111139880D01*
X157166325Y-111090597D01*
X157376369Y-110950249D01*
X157516717Y-110740205D01*
X157543345Y-110606334D01*
X157623983Y-110727017D01*
X158098651Y-111044180D01*
X158517227Y-111127440D01*
X158799893Y-111127440D01*
X159218469Y-111044180D01*
X159693137Y-110727017D01*
X160010300Y-110252349D01*
X160089338Y-109855000D01*
X160147000Y-109855000D01*
X160147000Y-112221494D01*
X159815973Y-112358610D01*
X159384170Y-112790413D01*
X159150480Y-113354590D01*
X159150480Y-113965250D01*
X159384170Y-114529427D01*
X159815973Y-114961230D01*
X160147000Y-115098346D01*
X160147000Y-117602000D01*
X160156667Y-117650601D01*
X160184197Y-117691803D01*
X160225399Y-117719333D01*
X160274000Y-117729000D01*
X176000842Y-117729000D01*
X178484133Y-120212292D01*
X178575350Y-120348808D01*
X179116174Y-120710175D01*
X179593088Y-120805039D01*
X179593092Y-120805039D01*
X179754118Y-120837069D01*
X179915144Y-120805039D01*
X180706374Y-120805039D01*
X180545840Y-121192601D01*
X180545840Y-121763479D01*
X180764306Y-122290902D01*
X181167978Y-122694574D01*
X181662904Y-122899579D01*
X179255045Y-125307439D01*
X169528424Y-125307439D01*
X169367398Y-125275409D01*
X169206372Y-125307439D01*
X169206368Y-125307439D01*
X168729454Y-125402303D01*
X168188630Y-125763670D01*
X168097411Y-125900189D01*
X167586669Y-126410931D01*
X167450150Y-126502150D01*
X167088783Y-127042975D01*
X166995933Y-127509766D01*
X166961888Y-127680919D01*
X166993919Y-127841949D01*
X166993920Y-133223000D01*
X164764360Y-133223000D01*
X164764360Y-132367120D01*
X164715077Y-132119355D01*
X164574729Y-131909311D01*
X164364685Y-131768963D01*
X164116920Y-131719680D01*
X162516920Y-131719680D01*
X162269155Y-131768963D01*
X162059111Y-131909311D01*
X161918763Y-132119355D01*
X161869480Y-132367120D01*
X161869480Y-133223000D01*
X144780000Y-133223000D01*
X144731399Y-133232667D01*
X144690197Y-133260197D01*
X144662667Y-133301399D01*
X144653000Y-133350000D01*
X144653000Y-136852085D01*
X137325786Y-143926636D01*
X137297538Y-143967349D01*
X137287000Y-144018000D01*
X137287000Y-149290000D01*
X119761000Y-149290000D01*
X119761000Y-147217870D01*
X125825680Y-147217870D01*
X125825680Y-147828530D01*
X126059370Y-148392707D01*
X126491173Y-148824510D01*
X127055350Y-149058200D01*
X127666010Y-149058200D01*
X128230187Y-148824510D01*
X128630680Y-148424017D01*
X129031173Y-148824510D01*
X129595350Y-149058200D01*
X130206010Y-149058200D01*
X130770187Y-148824510D01*
X131170680Y-148424017D01*
X131571173Y-148824510D01*
X132135350Y-149058200D01*
X132746010Y-149058200D01*
X133310187Y-148824510D01*
X133741990Y-148392707D01*
X133975680Y-147828530D01*
X133975680Y-147217870D01*
X133741990Y-146653693D01*
X133310187Y-146221890D01*
X132746010Y-145988200D01*
X132135350Y-145988200D01*
X131571173Y-146221890D01*
X131170680Y-146622383D01*
X130770187Y-146221890D01*
X130206010Y-145988200D01*
X129595350Y-145988200D01*
X129031173Y-146221890D01*
X128630680Y-146622383D01*
X128230187Y-146221890D01*
X127666010Y-145988200D01*
X127055350Y-145988200D01*
X126491173Y-146221890D01*
X126059370Y-146653693D01*
X125825680Y-147217870D01*
X119761000Y-147217870D01*
X119761000Y-137972800D01*
X122194247Y-137972800D01*
X122305620Y-138532709D01*
X122622783Y-139007377D01*
X122975118Y-139242800D01*
X122622783Y-139478223D01*
X122305620Y-139952891D01*
X122194247Y-140512800D01*
X122305620Y-141072709D01*
X122622783Y-141547377D01*
X122975118Y-141782800D01*
X122622783Y-142018223D01*
X122305620Y-142492891D01*
X122194247Y-143052800D01*
X122305620Y-143612709D01*
X122622783Y-144087377D01*
X122975118Y-144322800D01*
X122622783Y-144558223D01*
X122305620Y-145032891D01*
X122194247Y-145592800D01*
X122305620Y-146152709D01*
X122622783Y-146627377D01*
X123097451Y-146944540D01*
X123516027Y-147027800D01*
X123798693Y-147027800D01*
X124217269Y-146944540D01*
X124691937Y-146627377D01*
X125009100Y-146152709D01*
X125120473Y-145592800D01*
X125009100Y-145032891D01*
X124691937Y-144558223D01*
X124339602Y-144322800D01*
X124691937Y-144087377D01*
X125009100Y-143612709D01*
X125120473Y-143052800D01*
X125009100Y-142492891D01*
X124691937Y-142018223D01*
X124339602Y-141782800D01*
X124691937Y-141547377D01*
X125009100Y-141072709D01*
X125120473Y-140512800D01*
X125009100Y-139952891D01*
X124691937Y-139478223D01*
X124339602Y-139242800D01*
X124691937Y-139007377D01*
X125009100Y-138532709D01*
X125120473Y-137972800D01*
X125097233Y-137855960D01*
X139308767Y-137855960D01*
X139420140Y-138415869D01*
X139737303Y-138890537D01*
X140211971Y-139207700D01*
X140630547Y-139290960D01*
X140913213Y-139290960D01*
X141331789Y-139207700D01*
X141806457Y-138890537D01*
X142123620Y-138415869D01*
X142234993Y-137855960D01*
X142123620Y-137296051D01*
X141806457Y-136821383D01*
X141331789Y-136504220D01*
X140913213Y-136420960D01*
X140630547Y-136420960D01*
X140211971Y-136504220D01*
X139737303Y-136821383D01*
X139420140Y-137296051D01*
X139308767Y-137855960D01*
X125097233Y-137855960D01*
X125009100Y-137412891D01*
X124691937Y-136938223D01*
X124217269Y-136621060D01*
X123798693Y-136537800D01*
X123516027Y-136537800D01*
X123097451Y-136621060D01*
X122622783Y-136938223D01*
X122305620Y-137412891D01*
X122194247Y-137972800D01*
X119761000Y-137972800D01*
X119761000Y-134719354D01*
X120891680Y-134719354D01*
X120891680Y-135170886D01*
X121064473Y-135588046D01*
X121383754Y-135907327D01*
X121800914Y-136080120D01*
X122252446Y-136080120D01*
X122539738Y-135961120D01*
X134178840Y-135961120D01*
X134458273Y-136240553D01*
X134577273Y-136527846D01*
X134896554Y-136847127D01*
X135313714Y-137019920D01*
X135765246Y-137019920D01*
X136182406Y-136847127D01*
X136501687Y-136527846D01*
X136674480Y-136110686D01*
X136674480Y-135659154D01*
X136501687Y-135241994D01*
X136182406Y-134922713D01*
X135895113Y-134803713D01*
X135417233Y-134325833D01*
X135931467Y-134112830D01*
X136331960Y-133712337D01*
X136732453Y-134112830D01*
X137296630Y-134346520D01*
X137907290Y-134346520D01*
X138471467Y-134112830D01*
X138903270Y-133681027D01*
X139136960Y-133116850D01*
X139136960Y-132506190D01*
X138903270Y-131942013D01*
X138675878Y-131714621D01*
X139068592Y-131714621D01*
X139200073Y-132032046D01*
X139519354Y-132351327D01*
X139936514Y-132524120D01*
X140388046Y-132524120D01*
X140805206Y-132351327D01*
X141124487Y-132032046D01*
X141297280Y-131614886D01*
X141297280Y-131163354D01*
X141124487Y-130746194D01*
X140805206Y-130426913D01*
X140388046Y-130254120D01*
X140197795Y-130254120D01*
X139984375Y-130111517D01*
X139743584Y-130063621D01*
X139743582Y-130063621D01*
X139662281Y-130047449D01*
X139580980Y-130063621D01*
X129786613Y-130063621D01*
X129649906Y-129926914D01*
X129232746Y-129754121D01*
X128781214Y-129754121D01*
X128364054Y-129926914D01*
X128044773Y-130246195D01*
X127871980Y-130663355D01*
X127871980Y-131114887D01*
X128044773Y-131532047D01*
X128364054Y-131851328D01*
X128781214Y-132024121D01*
X129232746Y-132024121D01*
X129649906Y-131851328D01*
X129786613Y-131714621D01*
X133988042Y-131714621D01*
X133760650Y-131942013D01*
X133526960Y-132506190D01*
X133526960Y-133116850D01*
X133760650Y-133681027D01*
X134008743Y-133929120D01*
X122539738Y-133929120D01*
X122252446Y-133810120D01*
X121800914Y-133810120D01*
X121383754Y-133982913D01*
X121064473Y-134302194D01*
X120891680Y-134719354D01*
X119761000Y-134719354D01*
X119761000Y-123035354D01*
X121602880Y-123035354D01*
X121602880Y-123486886D01*
X121775673Y-123904046D01*
X122094954Y-124223327D01*
X122114225Y-124231309D01*
X122095674Y-124238993D01*
X121776393Y-124558274D01*
X121603600Y-124975434D01*
X121603600Y-125426966D01*
X121776393Y-125844126D01*
X122095674Y-126163407D01*
X122286863Y-126242600D01*
X122095674Y-126321793D01*
X121776393Y-126641074D01*
X121603600Y-127058234D01*
X121603600Y-127509766D01*
X121776393Y-127926926D01*
X122095674Y-128246207D01*
X122512834Y-128419000D01*
X122964366Y-128419000D01*
X123381526Y-128246207D01*
X123700807Y-127926926D01*
X123873600Y-127509766D01*
X123873600Y-127226630D01*
X125878231Y-125222000D01*
X135184267Y-125222000D01*
X135085993Y-125320274D01*
X134913200Y-125737434D01*
X134913200Y-126188966D01*
X135085993Y-126606126D01*
X135405274Y-126925407D01*
X135822434Y-127098200D01*
X136273966Y-127098200D01*
X136691126Y-126925407D01*
X136827833Y-126788700D01*
X148580357Y-126788700D01*
X148705782Y-126914125D01*
X148705782Y-127107458D01*
X148878575Y-127524618D01*
X149197856Y-127843899D01*
X149615016Y-128016692D01*
X150066548Y-128016692D01*
X150483708Y-127843899D01*
X150802989Y-127524618D01*
X150975782Y-127107458D01*
X150975782Y-126738020D01*
X151228766Y-126738020D01*
X151645926Y-126565227D01*
X151965207Y-126245946D01*
X152108806Y-125899268D01*
X152199791Y-126118926D01*
X152519072Y-126438207D01*
X152936232Y-126611000D01*
X153387764Y-126611000D01*
X153804924Y-126438207D01*
X154124205Y-126118926D01*
X154296998Y-125701766D01*
X154296998Y-125250234D01*
X154124205Y-124833074D01*
X153804924Y-124513793D01*
X153387764Y-124341000D01*
X153104629Y-124341000D01*
X149728714Y-120965086D01*
X149686202Y-120901462D01*
X149434148Y-120733045D01*
X149211879Y-120688833D01*
X149211874Y-120688833D01*
X149136831Y-120673906D01*
X149061788Y-120688833D01*
X144582296Y-120688833D01*
X144382089Y-120488626D01*
X143964929Y-120315833D01*
X143513397Y-120315833D01*
X143096237Y-120488626D01*
X142776956Y-120807907D01*
X142604163Y-121225067D01*
X142604163Y-121676599D01*
X142711453Y-121935621D01*
X123319176Y-121935621D01*
X123237878Y-121919450D01*
X123156580Y-121935621D01*
X123156576Y-121935621D01*
X122915785Y-121983517D01*
X122702365Y-122126120D01*
X122512114Y-122126120D01*
X122094954Y-122298913D01*
X121775673Y-122618194D01*
X121602880Y-123035354D01*
X119761000Y-123035354D01*
X119761000Y-122428000D01*
X119751333Y-122379399D01*
X119723803Y-122338197D01*
X119682601Y-122310667D01*
X119634000Y-122301000D01*
X108585000Y-122301000D01*
X108585000Y-117446177D01*
X108717910Y-117313267D01*
X108951600Y-116749090D01*
X108951600Y-116138430D01*
X108717910Y-115574253D01*
X108585000Y-115441343D01*
X108585000Y-115215178D01*
X108885480Y-115215178D01*
X108885480Y-115865622D01*
X109134394Y-116466553D01*
X109594327Y-116926486D01*
X110195258Y-117175400D01*
X110845702Y-117175400D01*
X111446633Y-116926486D01*
X111906566Y-116466553D01*
X112155480Y-115865622D01*
X112155480Y-115215178D01*
X115385480Y-115215178D01*
X115385480Y-115865622D01*
X115634394Y-116466553D01*
X116094327Y-116926486D01*
X116695258Y-117175400D01*
X117345702Y-117175400D01*
X117946633Y-116926486D01*
X118406566Y-116466553D01*
X118480262Y-116288634D01*
X143092000Y-116288634D01*
X143092000Y-116740166D01*
X143264793Y-117157326D01*
X143584074Y-117476607D01*
X144001234Y-117649400D01*
X144452766Y-117649400D01*
X144869926Y-117476607D01*
X145006633Y-117339900D01*
X147762975Y-117339900D01*
X147754793Y-117348082D01*
X147582000Y-117765242D01*
X147582000Y-118216774D01*
X147754793Y-118633934D01*
X148074074Y-118953215D01*
X148491234Y-119126008D01*
X148774370Y-119126008D01*
X154970480Y-125322119D01*
X154970481Y-127929786D01*
X154770273Y-128129994D01*
X154597480Y-128547154D01*
X154597480Y-128998686D01*
X154770273Y-129415846D01*
X155089554Y-129735127D01*
X155506714Y-129907920D01*
X155958246Y-129907920D01*
X156375406Y-129735127D01*
X156694687Y-129415846D01*
X156867480Y-128998686D01*
X156867480Y-128547154D01*
X156694687Y-128129994D01*
X156494480Y-127929787D01*
X156494480Y-125341000D01*
X156816766Y-125341000D01*
X157233926Y-125168207D01*
X157370633Y-125031500D01*
X163235619Y-125031500D01*
X163316920Y-125047672D01*
X163398221Y-125031500D01*
X163398223Y-125031500D01*
X163639014Y-124983604D01*
X163912072Y-124801152D01*
X163939369Y-124760300D01*
X163976790Y-124775800D01*
X164587450Y-124775800D01*
X165151627Y-124542110D01*
X165552120Y-124141617D01*
X165952613Y-124542110D01*
X166516790Y-124775800D01*
X167127450Y-124775800D01*
X167691627Y-124542110D01*
X168123430Y-124110307D01*
X168357120Y-123546130D01*
X168357120Y-122935470D01*
X168135004Y-122399234D01*
X169159959Y-123424190D01*
X169202470Y-123487812D01*
X169454524Y-123656229D01*
X169676793Y-123700441D01*
X169676794Y-123700441D01*
X169751841Y-123715369D01*
X169826888Y-123700441D01*
X175070756Y-123700441D01*
X175145799Y-123715368D01*
X175220842Y-123700441D01*
X175220847Y-123700441D01*
X175443116Y-123656229D01*
X175695170Y-123487812D01*
X175737682Y-123424188D01*
X176132273Y-123029597D01*
X176312467Y-123065440D01*
X176595133Y-123065440D01*
X177013709Y-122982180D01*
X177488377Y-122665017D01*
X177805540Y-122190349D01*
X177916913Y-121630440D01*
X177805540Y-121070531D01*
X177488377Y-120595863D01*
X177013709Y-120278700D01*
X176595133Y-120195440D01*
X176312467Y-120195440D01*
X175893891Y-120278700D01*
X175419223Y-120595863D01*
X175183800Y-120948198D01*
X174948377Y-120595863D01*
X174473709Y-120278700D01*
X174055133Y-120195440D01*
X173772467Y-120195440D01*
X173353891Y-120278700D01*
X172879223Y-120595863D01*
X172643800Y-120948198D01*
X172408377Y-120595863D01*
X171933709Y-120278700D01*
X171515133Y-120195440D01*
X171232467Y-120195440D01*
X170813891Y-120278700D01*
X170339223Y-120595863D01*
X170022060Y-121070531D01*
X169910687Y-121630440D01*
X170007331Y-122116300D01*
X167184816Y-119293786D01*
X167142304Y-119230162D01*
X166890250Y-119061745D01*
X166667981Y-119017533D01*
X166667976Y-119017533D01*
X166592933Y-119002606D01*
X166517890Y-119017533D01*
X157326866Y-119017533D01*
X157126659Y-118817326D01*
X156709499Y-118644533D01*
X156257967Y-118644533D01*
X155840807Y-118817326D01*
X155521526Y-119136607D01*
X155510605Y-119162972D01*
X152335809Y-115988177D01*
X152289752Y-115919248D01*
X152016694Y-115736796D01*
X151775903Y-115688900D01*
X151775901Y-115688900D01*
X151694600Y-115672728D01*
X151613299Y-115688900D01*
X145006633Y-115688900D01*
X144869926Y-115552193D01*
X144452766Y-115379400D01*
X144001234Y-115379400D01*
X143584074Y-115552193D01*
X143264793Y-115871474D01*
X143092000Y-116288634D01*
X118480262Y-116288634D01*
X118655480Y-115865622D01*
X118655480Y-115215178D01*
X118406566Y-114614247D01*
X117946633Y-114154314D01*
X117345702Y-113905400D01*
X116695258Y-113905400D01*
X116094327Y-114154314D01*
X115634394Y-114614247D01*
X115385480Y-115215178D01*
X112155480Y-115215178D01*
X111906566Y-114614247D01*
X111446633Y-114154314D01*
X110845702Y-113905400D01*
X110195258Y-113905400D01*
X109594327Y-114154314D01*
X109134394Y-114614247D01*
X108885480Y-115215178D01*
X108585000Y-115215178D01*
X108585000Y-114906177D01*
X108717910Y-114773267D01*
X108951600Y-114209090D01*
X108951600Y-113598430D01*
X108717910Y-113034253D01*
X108585000Y-112901343D01*
X108585000Y-112366177D01*
X108717910Y-112233267D01*
X108951600Y-111669090D01*
X108951600Y-111058430D01*
X108717910Y-110494253D01*
X108585000Y-110361343D01*
X108585000Y-105664000D01*
X108575333Y-105615399D01*
X108547803Y-105574197D01*
X108506601Y-105546667D01*
X108458000Y-105537000D01*
X105029000Y-105537000D01*
X105029000Y-104356000D01*
X118948560Y-104356000D01*
X118948560Y-105956000D01*
X118997843Y-106203765D01*
X119138191Y-106413809D01*
X119348235Y-106554157D01*
X119596000Y-106603440D01*
X121196000Y-106603440D01*
X121443765Y-106554157D01*
X121653809Y-106413809D01*
X121794157Y-106203765D01*
X121843440Y-105956000D01*
X121843440Y-105048790D01*
X124596320Y-105048790D01*
X124596320Y-105659450D01*
X124830010Y-106223627D01*
X125261813Y-106655430D01*
X125825990Y-106889120D01*
X126436650Y-106889120D01*
X127000827Y-106655430D01*
X127401320Y-106254937D01*
X127801813Y-106655430D01*
X128365990Y-106889120D01*
X128976650Y-106889120D01*
X129540827Y-106655430D01*
X129941320Y-106254937D01*
X130341813Y-106655430D01*
X130905990Y-106889120D01*
X131516650Y-106889120D01*
X132080827Y-106655430D01*
X132512630Y-106223627D01*
X132746320Y-105659450D01*
X132746320Y-105048790D01*
X132512630Y-104484613D01*
X132080827Y-104052810D01*
X131516650Y-103819120D01*
X130905990Y-103819120D01*
X130341813Y-104052810D01*
X129941320Y-104453303D01*
X129540827Y-104052810D01*
X128976650Y-103819120D01*
X128365990Y-103819120D01*
X127801813Y-104052810D01*
X127401320Y-104453303D01*
X127000827Y-104052810D01*
X126436650Y-103819120D01*
X125825990Y-103819120D01*
X125261813Y-104052810D01*
X124830010Y-104484613D01*
X124596320Y-105048790D01*
X121843440Y-105048790D01*
X121843440Y-104356000D01*
X121794157Y-104108235D01*
X121653809Y-103898191D01*
X121443765Y-103757843D01*
X121196000Y-103708560D01*
X119596000Y-103708560D01*
X119348235Y-103757843D01*
X119138191Y-103898191D01*
X118997843Y-104108235D01*
X118948560Y-104356000D01*
X105029000Y-104356000D01*
X105029000Y-94107000D01*
X106034196Y-94107000D01*
X106007847Y-94117914D01*
X106007847Y-94117914D01*
G37*
X106007847Y-94117914D02*
X105547914Y-94577847D01*
X105299000Y-95178778D01*
X105299000Y-95829222D01*
X105547914Y-96430153D01*
X106007847Y-96890086D01*
X106608778Y-97139000D01*
X107259222Y-97139000D01*
X107860153Y-96890086D01*
X108320086Y-96430153D01*
X108569000Y-95829222D01*
X108569000Y-95178778D01*
X108320086Y-94577847D01*
X107860153Y-94117914D01*
X107833804Y-94107000D01*
X114427000Y-94107000D01*
X114427000Y-99568000D01*
X114436667Y-99616601D01*
X114464197Y-99657803D01*
X114505399Y-99685333D01*
X114554000Y-99695000D01*
X123642132Y-99695000D01*
X126398381Y-102701817D01*
X126438348Y-102731111D01*
X126492000Y-102743000D01*
X136144000Y-102743000D01*
X136144000Y-109728000D01*
X136153667Y-109776601D01*
X136181197Y-109817803D01*
X136222399Y-109845333D01*
X136271000Y-109855000D01*
X136982560Y-109855000D01*
X136982560Y-110492440D01*
X137031843Y-110740205D01*
X137172191Y-110950249D01*
X137382235Y-111090597D01*
X137630000Y-111139880D01*
X139230000Y-111139880D01*
X139477765Y-111090597D01*
X139687809Y-110950249D01*
X139828157Y-110740205D01*
X139854785Y-110606334D01*
X139935423Y-110727017D01*
X140410091Y-111044180D01*
X140828667Y-111127440D01*
X141111333Y-111127440D01*
X141529909Y-111044180D01*
X142004577Y-110727017D01*
X142321740Y-110252349D01*
X142400778Y-109855000D01*
X142878746Y-109855000D01*
X142878746Y-110492440D01*
X142928029Y-110740205D01*
X143068377Y-110950249D01*
X143278421Y-111090597D01*
X143526186Y-111139880D01*
X145126186Y-111139880D01*
X145373951Y-111090597D01*
X145583995Y-110950249D01*
X145724343Y-110740205D01*
X145750971Y-110606334D01*
X145831609Y-110727017D01*
X146306277Y-111044180D01*
X146724853Y-111127440D01*
X147007519Y-111127440D01*
X147426095Y-111044180D01*
X147900763Y-110727017D01*
X148217926Y-110252349D01*
X148296964Y-109855000D01*
X148774932Y-109855000D01*
X148774932Y-110492440D01*
X148824215Y-110740205D01*
X148964563Y-110950249D01*
X149174607Y-111090597D01*
X149422372Y-111139880D01*
X151022372Y-111139880D01*
X151270137Y-111090597D01*
X151480181Y-110950249D01*
X151620529Y-110740205D01*
X151647157Y-110606334D01*
X151727795Y-110727017D01*
X152202463Y-111044180D01*
X152621039Y-111127440D01*
X152903705Y-111127440D01*
X153322281Y-111044180D01*
X153796949Y-110727017D01*
X154114112Y-110252349D01*
X154193150Y-109855000D01*
X154671120Y-109855000D01*
X154671120Y-110492440D01*
X154720403Y-110740205D01*
X154860751Y-110950249D01*
X155070795Y-111090597D01*
X155318560Y-111139880D01*
X156918560Y-111139880D01*
X157166325Y-111090597D01*
X157376369Y-110950249D01*
X157516717Y-110740205D01*
X157543345Y-110606334D01*
X157623983Y-110727017D01*
X158098651Y-111044180D01*
X158517227Y-111127440D01*
X158799893Y-111127440D01*
X159218469Y-111044180D01*
X159693137Y-110727017D01*
X160010300Y-110252349D01*
X160089338Y-109855000D01*
X160147000Y-109855000D01*
X160147000Y-112221494D01*
X159815973Y-112358610D01*
X159384170Y-112790413D01*
X159150480Y-113354590D01*
X159150480Y-113965250D01*
X159384170Y-114529427D01*
X159815973Y-114961230D01*
X160147000Y-115098346D01*
X160147000Y-117602000D01*
X160156667Y-117650601D01*
X160184197Y-117691803D01*
X160225399Y-117719333D01*
X160274000Y-117729000D01*
X176000842Y-117729000D01*
X178484133Y-120212292D01*
X178575350Y-120348808D01*
X179116174Y-120710175D01*
X179593088Y-120805039D01*
X179593092Y-120805039D01*
X179754118Y-120837069D01*
X179915144Y-120805039D01*
X180706374Y-120805039D01*
X180545840Y-121192601D01*
X180545840Y-121763479D01*
X180764306Y-122290902D01*
X181167978Y-122694574D01*
X181662904Y-122899579D01*
X179255045Y-125307439D01*
X169528424Y-125307439D01*
X169367398Y-125275409D01*
X169206372Y-125307439D01*
X169206368Y-125307439D01*
X168729454Y-125402303D01*
X168188630Y-125763670D01*
X168097411Y-125900189D01*
X167586669Y-126410931D01*
X167450150Y-126502150D01*
X167088783Y-127042975D01*
X166995933Y-127509766D01*
X166961888Y-127680919D01*
X166993919Y-127841949D01*
X166993920Y-133223000D01*
X164764360Y-133223000D01*
X164764360Y-132367120D01*
X164715077Y-132119355D01*
X164574729Y-131909311D01*
X164364685Y-131768963D01*
X164116920Y-131719680D01*
X162516920Y-131719680D01*
X162269155Y-131768963D01*
X162059111Y-131909311D01*
X161918763Y-132119355D01*
X161869480Y-132367120D01*
X161869480Y-133223000D01*
X144780000Y-133223000D01*
X144731399Y-133232667D01*
X144690197Y-133260197D01*
X144662667Y-133301399D01*
X144653000Y-133350000D01*
X144653000Y-136852085D01*
X137325786Y-143926636D01*
X137297538Y-143967349D01*
X137287000Y-144018000D01*
X137287000Y-149290000D01*
X119761000Y-149290000D01*
X119761000Y-147217870D01*
X125825680Y-147217870D01*
X125825680Y-147828530D01*
X126059370Y-148392707D01*
X126491173Y-148824510D01*
X127055350Y-149058200D01*
X127666010Y-149058200D01*
X128230187Y-148824510D01*
X128630680Y-148424017D01*
X129031173Y-148824510D01*
X129595350Y-149058200D01*
X130206010Y-149058200D01*
X130770187Y-148824510D01*
X131170680Y-148424017D01*
X131571173Y-148824510D01*
X132135350Y-149058200D01*
X132746010Y-149058200D01*
X133310187Y-148824510D01*
X133741990Y-148392707D01*
X133975680Y-147828530D01*
X133975680Y-147217870D01*
X133741990Y-146653693D01*
X133310187Y-146221890D01*
X132746010Y-145988200D01*
X132135350Y-145988200D01*
X131571173Y-146221890D01*
X131170680Y-146622383D01*
X130770187Y-146221890D01*
X130206010Y-145988200D01*
X129595350Y-145988200D01*
X129031173Y-146221890D01*
X128630680Y-146622383D01*
X128230187Y-146221890D01*
X127666010Y-145988200D01*
X127055350Y-145988200D01*
X126491173Y-146221890D01*
X126059370Y-146653693D01*
X125825680Y-147217870D01*
X119761000Y-147217870D01*
X119761000Y-137972800D01*
X122194247Y-137972800D01*
X122305620Y-138532709D01*
X122622783Y-139007377D01*
X122975118Y-139242800D01*
X122622783Y-139478223D01*
X122305620Y-139952891D01*
X122194247Y-140512800D01*
X122305620Y-141072709D01*
X122622783Y-141547377D01*
X122975118Y-141782800D01*
X122622783Y-142018223D01*
X122305620Y-142492891D01*
X122194247Y-143052800D01*
X122305620Y-143612709D01*
X122622783Y-144087377D01*
X122975118Y-144322800D01*
X122622783Y-144558223D01*
X122305620Y-145032891D01*
X122194247Y-145592800D01*
X122305620Y-146152709D01*
X122622783Y-146627377D01*
X123097451Y-146944540D01*
X123516027Y-147027800D01*
X123798693Y-147027800D01*
X124217269Y-146944540D01*
X124691937Y-146627377D01*
X125009100Y-146152709D01*
X125120473Y-145592800D01*
X125009100Y-145032891D01*
X124691937Y-144558223D01*
X124339602Y-144322800D01*
X124691937Y-144087377D01*
X125009100Y-143612709D01*
X125120473Y-143052800D01*
X125009100Y-142492891D01*
X124691937Y-142018223D01*
X124339602Y-141782800D01*
X124691937Y-141547377D01*
X125009100Y-141072709D01*
X125120473Y-140512800D01*
X125009100Y-139952891D01*
X124691937Y-139478223D01*
X124339602Y-139242800D01*
X124691937Y-139007377D01*
X125009100Y-138532709D01*
X125120473Y-137972800D01*
X125097233Y-137855960D01*
X139308767Y-137855960D01*
X139420140Y-138415869D01*
X139737303Y-138890537D01*
X140211971Y-139207700D01*
X140630547Y-139290960D01*
X140913213Y-139290960D01*
X141331789Y-139207700D01*
X141806457Y-138890537D01*
X142123620Y-138415869D01*
X142234993Y-137855960D01*
X142123620Y-137296051D01*
X141806457Y-136821383D01*
X141331789Y-136504220D01*
X140913213Y-136420960D01*
X140630547Y-136420960D01*
X140211971Y-136504220D01*
X139737303Y-136821383D01*
X139420140Y-137296051D01*
X139308767Y-137855960D01*
X125097233Y-137855960D01*
X125009100Y-137412891D01*
X124691937Y-136938223D01*
X124217269Y-136621060D01*
X123798693Y-136537800D01*
X123516027Y-136537800D01*
X123097451Y-136621060D01*
X122622783Y-136938223D01*
X122305620Y-137412891D01*
X122194247Y-137972800D01*
X119761000Y-137972800D01*
X119761000Y-134719354D01*
X120891680Y-134719354D01*
X120891680Y-135170886D01*
X121064473Y-135588046D01*
X121383754Y-135907327D01*
X121800914Y-136080120D01*
X122252446Y-136080120D01*
X122539738Y-135961120D01*
X134178840Y-135961120D01*
X134458273Y-136240553D01*
X134577273Y-136527846D01*
X134896554Y-136847127D01*
X135313714Y-137019920D01*
X135765246Y-137019920D01*
X136182406Y-136847127D01*
X136501687Y-136527846D01*
X136674480Y-136110686D01*
X136674480Y-135659154D01*
X136501687Y-135241994D01*
X136182406Y-134922713D01*
X135895113Y-134803713D01*
X135417233Y-134325833D01*
X135931467Y-134112830D01*
X136331960Y-133712337D01*
X136732453Y-134112830D01*
X137296630Y-134346520D01*
X137907290Y-134346520D01*
X138471467Y-134112830D01*
X138903270Y-133681027D01*
X139136960Y-133116850D01*
X139136960Y-132506190D01*
X138903270Y-131942013D01*
X138675878Y-131714621D01*
X139068592Y-131714621D01*
X139200073Y-132032046D01*
X139519354Y-132351327D01*
X139936514Y-132524120D01*
X140388046Y-132524120D01*
X140805206Y-132351327D01*
X141124487Y-132032046D01*
X141297280Y-131614886D01*
X141297280Y-131163354D01*
X141124487Y-130746194D01*
X140805206Y-130426913D01*
X140388046Y-130254120D01*
X140197795Y-130254120D01*
X139984375Y-130111517D01*
X139743584Y-130063621D01*
X139743582Y-130063621D01*
X139662281Y-130047449D01*
X139580980Y-130063621D01*
X129786613Y-130063621D01*
X129649906Y-129926914D01*
X129232746Y-129754121D01*
X128781214Y-129754121D01*
X128364054Y-129926914D01*
X128044773Y-130246195D01*
X127871980Y-130663355D01*
X127871980Y-131114887D01*
X128044773Y-131532047D01*
X128364054Y-131851328D01*
X128781214Y-132024121D01*
X129232746Y-132024121D01*
X129649906Y-131851328D01*
X129786613Y-131714621D01*
X133988042Y-131714621D01*
X133760650Y-131942013D01*
X133526960Y-132506190D01*
X133526960Y-133116850D01*
X133760650Y-133681027D01*
X134008743Y-133929120D01*
X122539738Y-133929120D01*
X122252446Y-133810120D01*
X121800914Y-133810120D01*
X121383754Y-133982913D01*
X121064473Y-134302194D01*
X120891680Y-134719354D01*
X119761000Y-134719354D01*
X119761000Y-123035354D01*
X121602880Y-123035354D01*
X121602880Y-123486886D01*
X121775673Y-123904046D01*
X122094954Y-124223327D01*
X122114225Y-124231309D01*
X122095674Y-124238993D01*
X121776393Y-124558274D01*
X121603600Y-124975434D01*
X121603600Y-125426966D01*
X121776393Y-125844126D01*
X122095674Y-126163407D01*
X122286863Y-126242600D01*
X122095674Y-126321793D01*
X121776393Y-126641074D01*
X121603600Y-127058234D01*
X121603600Y-127509766D01*
X121776393Y-127926926D01*
X122095674Y-128246207D01*
X122512834Y-128419000D01*
X122964366Y-128419000D01*
X123381526Y-128246207D01*
X123700807Y-127926926D01*
X123873600Y-127509766D01*
X123873600Y-127226630D01*
X125878231Y-125222000D01*
X135184267Y-125222000D01*
X135085993Y-125320274D01*
X134913200Y-125737434D01*
X134913200Y-126188966D01*
X135085993Y-126606126D01*
X135405274Y-126925407D01*
X135822434Y-127098200D01*
X136273966Y-127098200D01*
X136691126Y-126925407D01*
X136827833Y-126788700D01*
X148580357Y-126788700D01*
X148705782Y-126914125D01*
X148705782Y-127107458D01*
X148878575Y-127524618D01*
X149197856Y-127843899D01*
X149615016Y-128016692D01*
X150066548Y-128016692D01*
X150483708Y-127843899D01*
X150802989Y-127524618D01*
X150975782Y-127107458D01*
X150975782Y-126738020D01*
X151228766Y-126738020D01*
X151645926Y-126565227D01*
X151965207Y-126245946D01*
X152108806Y-125899268D01*
X152199791Y-126118926D01*
X152519072Y-126438207D01*
X152936232Y-126611000D01*
X153387764Y-126611000D01*
X153804924Y-126438207D01*
X154124205Y-126118926D01*
X154296998Y-125701766D01*
X154296998Y-125250234D01*
X154124205Y-124833074D01*
X153804924Y-124513793D01*
X153387764Y-124341000D01*
X153104629Y-124341000D01*
X149728714Y-120965086D01*
X149686202Y-120901462D01*
X149434148Y-120733045D01*
X149211879Y-120688833D01*
X149211874Y-120688833D01*
X149136831Y-120673906D01*
X149061788Y-120688833D01*
X144582296Y-120688833D01*
X144382089Y-120488626D01*
X143964929Y-120315833D01*
X143513397Y-120315833D01*
X143096237Y-120488626D01*
X142776956Y-120807907D01*
X142604163Y-121225067D01*
X142604163Y-121676599D01*
X142711453Y-121935621D01*
X123319176Y-121935621D01*
X123237878Y-121919450D01*
X123156580Y-121935621D01*
X123156576Y-121935621D01*
X122915785Y-121983517D01*
X122702365Y-122126120D01*
X122512114Y-122126120D01*
X122094954Y-122298913D01*
X121775673Y-122618194D01*
X121602880Y-123035354D01*
X119761000Y-123035354D01*
X119761000Y-122428000D01*
X119751333Y-122379399D01*
X119723803Y-122338197D01*
X119682601Y-122310667D01*
X119634000Y-122301000D01*
X108585000Y-122301000D01*
X108585000Y-117446177D01*
X108717910Y-117313267D01*
X108951600Y-116749090D01*
X108951600Y-116138430D01*
X108717910Y-115574253D01*
X108585000Y-115441343D01*
X108585000Y-115215178D01*
X108885480Y-115215178D01*
X108885480Y-115865622D01*
X109134394Y-116466553D01*
X109594327Y-116926486D01*
X110195258Y-117175400D01*
X110845702Y-117175400D01*
X111446633Y-116926486D01*
X111906566Y-116466553D01*
X112155480Y-115865622D01*
X112155480Y-115215178D01*
X115385480Y-115215178D01*
X115385480Y-115865622D01*
X115634394Y-116466553D01*
X116094327Y-116926486D01*
X116695258Y-117175400D01*
X117345702Y-117175400D01*
X117946633Y-116926486D01*
X118406566Y-116466553D01*
X118480262Y-116288634D01*
X143092000Y-116288634D01*
X143092000Y-116740166D01*
X143264793Y-117157326D01*
X143584074Y-117476607D01*
X144001234Y-117649400D01*
X144452766Y-117649400D01*
X144869926Y-117476607D01*
X145006633Y-117339900D01*
X147762975Y-117339900D01*
X147754793Y-117348082D01*
X147582000Y-117765242D01*
X147582000Y-118216774D01*
X147754793Y-118633934D01*
X148074074Y-118953215D01*
X148491234Y-119126008D01*
X148774370Y-119126008D01*
X154970480Y-125322119D01*
X154970481Y-127929786D01*
X154770273Y-128129994D01*
X154597480Y-128547154D01*
X154597480Y-128998686D01*
X154770273Y-129415846D01*
X155089554Y-129735127D01*
X155506714Y-129907920D01*
X155958246Y-129907920D01*
X156375406Y-129735127D01*
X156694687Y-129415846D01*
X156867480Y-128998686D01*
X156867480Y-128547154D01*
X156694687Y-128129994D01*
X156494480Y-127929787D01*
X156494480Y-125341000D01*
X156816766Y-125341000D01*
X157233926Y-125168207D01*
X157370633Y-125031500D01*
X163235619Y-125031500D01*
X163316920Y-125047672D01*
X163398221Y-125031500D01*
X163398223Y-125031500D01*
X163639014Y-124983604D01*
X163912072Y-124801152D01*
X163939369Y-124760300D01*
X163976790Y-124775800D01*
X164587450Y-124775800D01*
X165151627Y-124542110D01*
X165552120Y-124141617D01*
X165952613Y-124542110D01*
X166516790Y-124775800D01*
X167127450Y-124775800D01*
X167691627Y-124542110D01*
X168123430Y-124110307D01*
X168357120Y-123546130D01*
X168357120Y-122935470D01*
X168135004Y-122399234D01*
X169159959Y-123424190D01*
X169202470Y-123487812D01*
X169454524Y-123656229D01*
X169676793Y-123700441D01*
X169676794Y-123700441D01*
X169751841Y-123715369D01*
X169826888Y-123700441D01*
X175070756Y-123700441D01*
X175145799Y-123715368D01*
X175220842Y-123700441D01*
X175220847Y-123700441D01*
X175443116Y-123656229D01*
X175695170Y-123487812D01*
X175737682Y-123424188D01*
X176132273Y-123029597D01*
X176312467Y-123065440D01*
X176595133Y-123065440D01*
X177013709Y-122982180D01*
X177488377Y-122665017D01*
X177805540Y-122190349D01*
X177916913Y-121630440D01*
X177805540Y-121070531D01*
X177488377Y-120595863D01*
X177013709Y-120278700D01*
X176595133Y-120195440D01*
X176312467Y-120195440D01*
X175893891Y-120278700D01*
X175419223Y-120595863D01*
X175183800Y-120948198D01*
X174948377Y-120595863D01*
X174473709Y-120278700D01*
X174055133Y-120195440D01*
X173772467Y-120195440D01*
X173353891Y-120278700D01*
X172879223Y-120595863D01*
X172643800Y-120948198D01*
X172408377Y-120595863D01*
X171933709Y-120278700D01*
X171515133Y-120195440D01*
X171232467Y-120195440D01*
X170813891Y-120278700D01*
X170339223Y-120595863D01*
X170022060Y-121070531D01*
X169910687Y-121630440D01*
X170007331Y-122116300D01*
X167184816Y-119293786D01*
X167142304Y-119230162D01*
X166890250Y-119061745D01*
X166667981Y-119017533D01*
X166667976Y-119017533D01*
X166592933Y-119002606D01*
X166517890Y-119017533D01*
X157326866Y-119017533D01*
X157126659Y-118817326D01*
X156709499Y-118644533D01*
X156257967Y-118644533D01*
X155840807Y-118817326D01*
X155521526Y-119136607D01*
X155510605Y-119162972D01*
X152335809Y-115988177D01*
X152289752Y-115919248D01*
X152016694Y-115736796D01*
X151775903Y-115688900D01*
X151775901Y-115688900D01*
X151694600Y-115672728D01*
X151613299Y-115688900D01*
X145006633Y-115688900D01*
X144869926Y-115552193D01*
X144452766Y-115379400D01*
X144001234Y-115379400D01*
X143584074Y-115552193D01*
X143264793Y-115871474D01*
X143092000Y-116288634D01*
X118480262Y-116288634D01*
X118655480Y-115865622D01*
X118655480Y-115215178D01*
X118406566Y-114614247D01*
X117946633Y-114154314D01*
X117345702Y-113905400D01*
X116695258Y-113905400D01*
X116094327Y-114154314D01*
X115634394Y-114614247D01*
X115385480Y-115215178D01*
X112155480Y-115215178D01*
X111906566Y-114614247D01*
X111446633Y-114154314D01*
X110845702Y-113905400D01*
X110195258Y-113905400D01*
X109594327Y-114154314D01*
X109134394Y-114614247D01*
X108885480Y-115215178D01*
X108585000Y-115215178D01*
X108585000Y-114906177D01*
X108717910Y-114773267D01*
X108951600Y-114209090D01*
X108951600Y-113598430D01*
X108717910Y-113034253D01*
X108585000Y-112901343D01*
X108585000Y-112366177D01*
X108717910Y-112233267D01*
X108951600Y-111669090D01*
X108951600Y-111058430D01*
X108717910Y-110494253D01*
X108585000Y-110361343D01*
X108585000Y-105664000D01*
X108575333Y-105615399D01*
X108547803Y-105574197D01*
X108506601Y-105546667D01*
X108458000Y-105537000D01*
X105029000Y-105537000D01*
X105029000Y-104356000D01*
X118948560Y-104356000D01*
X118948560Y-105956000D01*
X118997843Y-106203765D01*
X119138191Y-106413809D01*
X119348235Y-106554157D01*
X119596000Y-106603440D01*
X121196000Y-106603440D01*
X121443765Y-106554157D01*
X121653809Y-106413809D01*
X121794157Y-106203765D01*
X121843440Y-105956000D01*
X121843440Y-105048790D01*
X124596320Y-105048790D01*
X124596320Y-105659450D01*
X124830010Y-106223627D01*
X125261813Y-106655430D01*
X125825990Y-106889120D01*
X126436650Y-106889120D01*
X127000827Y-106655430D01*
X127401320Y-106254937D01*
X127801813Y-106655430D01*
X128365990Y-106889120D01*
X128976650Y-106889120D01*
X129540827Y-106655430D01*
X129941320Y-106254937D01*
X130341813Y-106655430D01*
X130905990Y-106889120D01*
X131516650Y-106889120D01*
X132080827Y-106655430D01*
X132512630Y-106223627D01*
X132746320Y-105659450D01*
X132746320Y-105048790D01*
X132512630Y-104484613D01*
X132080827Y-104052810D01*
X131516650Y-103819120D01*
X130905990Y-103819120D01*
X130341813Y-104052810D01*
X129941320Y-104453303D01*
X129540827Y-104052810D01*
X128976650Y-103819120D01*
X128365990Y-103819120D01*
X127801813Y-104052810D01*
X127401320Y-104453303D01*
X127000827Y-104052810D01*
X126436650Y-103819120D01*
X125825990Y-103819120D01*
X125261813Y-104052810D01*
X124830010Y-104484613D01*
X124596320Y-105048790D01*
X121843440Y-105048790D01*
X121843440Y-104356000D01*
X121794157Y-104108235D01*
X121653809Y-103898191D01*
X121443765Y-103757843D01*
X121196000Y-103708560D01*
X119596000Y-103708560D01*
X119348235Y-103757843D01*
X119138191Y-103898191D01*
X118997843Y-104108235D01*
X118948560Y-104356000D01*
X105029000Y-104356000D01*
X105029000Y-94107000D01*
X106034196Y-94107000D01*
X106007847Y-94117914D01*
G36*
X161918763Y-134214885D02*
X162059111Y-134424929D01*
X162269155Y-134565277D01*
X162403026Y-134591905D01*
X162282343Y-134672543D01*
X161965180Y-135147211D01*
X161853807Y-135707120D01*
X161965180Y-136267029D01*
X162282343Y-136741697D01*
X162634678Y-136977120D01*
X162282343Y-137212543D01*
X161965180Y-137687211D01*
X161853807Y-138247120D01*
X161965180Y-138807029D01*
X162282343Y-139281697D01*
X162634678Y-139517120D01*
X162282343Y-139752543D01*
X161965180Y-140227211D01*
X161853807Y-140787120D01*
X161965180Y-141347029D01*
X162282343Y-141821697D01*
X162757011Y-142138860D01*
X163175587Y-142222120D01*
X163458253Y-142222120D01*
X163876829Y-142138860D01*
X164351497Y-141821697D01*
X164668660Y-141347029D01*
X164780033Y-140787120D01*
X164668660Y-140227211D01*
X164351497Y-139752543D01*
X163999162Y-139517120D01*
X164351497Y-139281697D01*
X164668660Y-138807029D01*
X164780033Y-138247120D01*
X164668660Y-137687211D01*
X164351497Y-137212543D01*
X163999162Y-136977120D01*
X164351497Y-136741697D01*
X164668660Y-136267029D01*
X164780033Y-135707120D01*
X164668660Y-135147211D01*
X164351497Y-134672543D01*
X164230814Y-134591905D01*
X164364685Y-134565277D01*
X164574729Y-134424929D01*
X164715077Y-134214885D01*
X164760803Y-133985000D01*
X167515000Y-133985000D01*
X167757936Y-149290000D01*
X138303000Y-149290000D01*
X138303000Y-146132250D01*
X138819560Y-146132250D01*
X138819560Y-146882150D01*
X139106534Y-147574967D01*
X139636793Y-148105226D01*
X140329610Y-148392200D01*
X141079510Y-148392200D01*
X141772327Y-148105226D01*
X142302586Y-147574967D01*
X142589560Y-146882150D01*
X142589560Y-146735800D01*
X161853807Y-146735800D01*
X161965180Y-147295709D01*
X162282343Y-147770377D01*
X162757011Y-148087540D01*
X163175587Y-148170800D01*
X163458253Y-148170800D01*
X163876829Y-148087540D01*
X164351497Y-147770377D01*
X164668660Y-147295709D01*
X164780033Y-146735800D01*
X164668660Y-146175891D01*
X164351497Y-145701223D01*
X164230814Y-145620585D01*
X164364685Y-145593957D01*
X164574729Y-145453609D01*
X164715077Y-145243565D01*
X164764360Y-144995800D01*
X164764360Y-143395800D01*
X164715077Y-143148035D01*
X164574729Y-142937991D01*
X164364685Y-142797643D01*
X164116920Y-142748360D01*
X162516920Y-142748360D01*
X162269155Y-142797643D01*
X162059111Y-142937991D01*
X161918763Y-143148035D01*
X161869480Y-143395800D01*
X161869480Y-144995800D01*
X161918763Y-145243565D01*
X162059111Y-145453609D01*
X162269155Y-145593957D01*
X162403026Y-145620585D01*
X162282343Y-145701223D01*
X161965180Y-146175891D01*
X161853807Y-146735800D01*
X142589560Y-146735800D01*
X142589560Y-146132250D01*
X142302586Y-145439433D01*
X141772327Y-144909174D01*
X141079510Y-144622200D01*
X140329610Y-144622200D01*
X139636793Y-144909174D01*
X139106534Y-145439433D01*
X138819560Y-146132250D01*
X138303000Y-146132250D01*
X138303000Y-144325871D01*
X139743362Y-142933520D01*
X151668840Y-142933520D01*
X151668840Y-144533520D01*
X151718123Y-144781285D01*
X151858471Y-144991329D01*
X152068515Y-145131677D01*
X152316280Y-145180960D01*
X153916280Y-145180960D01*
X154164045Y-145131677D01*
X154374089Y-144991329D01*
X154514437Y-144781285D01*
X154563720Y-144533520D01*
X154563720Y-142933520D01*
X154514437Y-142685755D01*
X154374089Y-142475711D01*
X154164045Y-142335363D01*
X153916280Y-142286080D01*
X152316280Y-142286080D01*
X152068515Y-142335363D01*
X151858471Y-142475711D01*
X151718123Y-142685755D01*
X151668840Y-142933520D01*
X139743362Y-142933520D01*
X145823597Y-137055960D01*
X146944440Y-137055960D01*
X146944440Y-138655960D01*
X146993723Y-138903725D01*
X147134071Y-139113769D01*
X147344115Y-139254117D01*
X147591880Y-139303400D01*
X149191880Y-139303400D01*
X149439645Y-139254117D01*
X149649689Y-139113769D01*
X149790037Y-138903725D01*
X149839320Y-138655960D01*
X149839320Y-137055960D01*
X149790037Y-136808195D01*
X149649689Y-136598151D01*
X149439645Y-136457803D01*
X149191880Y-136408520D01*
X147591880Y-136408520D01*
X147344115Y-136457803D01*
X147134071Y-136598151D01*
X146993723Y-136808195D01*
X146944440Y-137055960D01*
X145823597Y-137055960D01*
X145884268Y-136997312D01*
X145912492Y-136956582D01*
X145923000Y-136906000D01*
X145923000Y-133985000D01*
X161873037Y-133985000D01*
X161918763Y-134214885D01*
X161918763Y-134214885D01*
G37*
X161918763Y-134214885D02*
X162059111Y-134424929D01*
X162269155Y-134565277D01*
X162403026Y-134591905D01*
X162282343Y-134672543D01*
X161965180Y-135147211D01*
X161853807Y-135707120D01*
X161965180Y-136267029D01*
X162282343Y-136741697D01*
X162634678Y-136977120D01*
X162282343Y-137212543D01*
X161965180Y-137687211D01*
X161853807Y-138247120D01*
X161965180Y-138807029D01*
X162282343Y-139281697D01*
X162634678Y-139517120D01*
X162282343Y-139752543D01*
X161965180Y-140227211D01*
X161853807Y-140787120D01*
X161965180Y-141347029D01*
X162282343Y-141821697D01*
X162757011Y-142138860D01*
X163175587Y-142222120D01*
X163458253Y-142222120D01*
X163876829Y-142138860D01*
X164351497Y-141821697D01*
X164668660Y-141347029D01*
X164780033Y-140787120D01*
X164668660Y-140227211D01*
X164351497Y-139752543D01*
X163999162Y-139517120D01*
X164351497Y-139281697D01*
X164668660Y-138807029D01*
X164780033Y-138247120D01*
X164668660Y-137687211D01*
X164351497Y-137212543D01*
X163999162Y-136977120D01*
X164351497Y-136741697D01*
X164668660Y-136267029D01*
X164780033Y-135707120D01*
X164668660Y-135147211D01*
X164351497Y-134672543D01*
X164230814Y-134591905D01*
X164364685Y-134565277D01*
X164574729Y-134424929D01*
X164715077Y-134214885D01*
X164760803Y-133985000D01*
X167515000Y-133985000D01*
X167757936Y-149290000D01*
X138303000Y-149290000D01*
X138303000Y-146132250D01*
X138819560Y-146132250D01*
X138819560Y-146882150D01*
X139106534Y-147574967D01*
X139636793Y-148105226D01*
X140329610Y-148392200D01*
X141079510Y-148392200D01*
X141772327Y-148105226D01*
X142302586Y-147574967D01*
X142589560Y-146882150D01*
X142589560Y-146735800D01*
X161853807Y-146735800D01*
X161965180Y-147295709D01*
X162282343Y-147770377D01*
X162757011Y-148087540D01*
X163175587Y-148170800D01*
X163458253Y-148170800D01*
X163876829Y-148087540D01*
X164351497Y-147770377D01*
X164668660Y-147295709D01*
X164780033Y-146735800D01*
X164668660Y-146175891D01*
X164351497Y-145701223D01*
X164230814Y-145620585D01*
X164364685Y-145593957D01*
X164574729Y-145453609D01*
X164715077Y-145243565D01*
X164764360Y-144995800D01*
X164764360Y-143395800D01*
X164715077Y-143148035D01*
X164574729Y-142937991D01*
X164364685Y-142797643D01*
X164116920Y-142748360D01*
X162516920Y-142748360D01*
X162269155Y-142797643D01*
X162059111Y-142937991D01*
X161918763Y-143148035D01*
X161869480Y-143395800D01*
X161869480Y-144995800D01*
X161918763Y-145243565D01*
X162059111Y-145453609D01*
X162269155Y-145593957D01*
X162403026Y-145620585D01*
X162282343Y-145701223D01*
X161965180Y-146175891D01*
X161853807Y-146735800D01*
X142589560Y-146735800D01*
X142589560Y-146132250D01*
X142302586Y-145439433D01*
X141772327Y-144909174D01*
X141079510Y-144622200D01*
X140329610Y-144622200D01*
X139636793Y-144909174D01*
X139106534Y-145439433D01*
X138819560Y-146132250D01*
X138303000Y-146132250D01*
X138303000Y-144325871D01*
X139743362Y-142933520D01*
X151668840Y-142933520D01*
X151668840Y-144533520D01*
X151718123Y-144781285D01*
X151858471Y-144991329D01*
X152068515Y-145131677D01*
X152316280Y-145180960D01*
X153916280Y-145180960D01*
X154164045Y-145131677D01*
X154374089Y-144991329D01*
X154514437Y-144781285D01*
X154563720Y-144533520D01*
X154563720Y-142933520D01*
X154514437Y-142685755D01*
X154374089Y-142475711D01*
X154164045Y-142335363D01*
X153916280Y-142286080D01*
X152316280Y-142286080D01*
X152068515Y-142335363D01*
X151858471Y-142475711D01*
X151718123Y-142685755D01*
X151668840Y-142933520D01*
X139743362Y-142933520D01*
X145823597Y-137055960D01*
X146944440Y-137055960D01*
X146944440Y-138655960D01*
X146993723Y-138903725D01*
X147134071Y-139113769D01*
X147344115Y-139254117D01*
X147591880Y-139303400D01*
X149191880Y-139303400D01*
X149439645Y-139254117D01*
X149649689Y-139113769D01*
X149790037Y-138903725D01*
X149839320Y-138655960D01*
X149839320Y-137055960D01*
X149790037Y-136808195D01*
X149649689Y-136598151D01*
X149439645Y-136457803D01*
X149191880Y-136408520D01*
X147591880Y-136408520D01*
X147344115Y-136457803D01*
X147134071Y-136598151D01*
X146993723Y-136808195D01*
X146944440Y-137055960D01*
X145823597Y-137055960D01*
X145884268Y-136997312D01*
X145912492Y-136956582D01*
X145923000Y-136906000D01*
X145923000Y-133985000D01*
X161873037Y-133985000D01*
X161918763Y-134214885D01*
G36*
X153757018Y-52697500D02*
X137616724Y-52697500D01*
X136336497Y-52952153D01*
X134884708Y-53922208D01*
X133914653Y-55373997D01*
X133574015Y-57086500D01*
X133914653Y-58799003D01*
X134884708Y-60250792D01*
X136336497Y-61220847D01*
X137616724Y-61475500D01*
X155142728Y-61475500D01*
X155575000Y-61561484D01*
X156007272Y-61475500D01*
X156007276Y-61475500D01*
X157287503Y-61220847D01*
X158739292Y-60250792D01*
X158984159Y-59884323D01*
X160964560Y-57903922D01*
X160964560Y-58584473D01*
X161290204Y-59370646D01*
X161891914Y-59972356D01*
X162678087Y-60298000D01*
X163529033Y-60298000D01*
X164315206Y-59972356D01*
X164916916Y-59370646D01*
X165242560Y-58584473D01*
X165242560Y-57733527D01*
X165058844Y-57289999D01*
X176148276Y-57289999D01*
X175964560Y-57733527D01*
X175964560Y-58584473D01*
X176290204Y-59370646D01*
X176891914Y-59972356D01*
X177678087Y-60298000D01*
X178529033Y-60298000D01*
X179315206Y-59972356D01*
X179916916Y-59370646D01*
X180242560Y-58584473D01*
X180242560Y-57733527D01*
X180058844Y-57289999D01*
X181148276Y-57289999D01*
X180964560Y-57733527D01*
X180964560Y-58584473D01*
X181214560Y-59188026D01*
X181214561Y-64629972D01*
X180964560Y-65233527D01*
X180964560Y-66084473D01*
X181189285Y-66627006D01*
X181177553Y-66685986D01*
X181214560Y-66872032D01*
X181324162Y-67423037D01*
X181741668Y-68047879D01*
X181899390Y-68153266D01*
X183014102Y-69267977D01*
X182171419Y-69435597D01*
X181381187Y-69963613D01*
X181039931Y-70474340D01*
X180864557Y-70736806D01*
X180853171Y-70753846D01*
X180794517Y-71048720D01*
X180667757Y-71685986D01*
X180714560Y-71921280D01*
X180714561Y-78950687D01*
X180667757Y-79185986D01*
X180853172Y-80118128D01*
X181039931Y-80397632D01*
X181381188Y-80908359D01*
X181956052Y-81292471D01*
X182171418Y-81436374D01*
X182171419Y-81436374D01*
X182171420Y-81436375D01*
X183103560Y-81621789D01*
X184035701Y-81436375D01*
X184825933Y-80908359D01*
X184959219Y-80708882D01*
X185956379Y-79711723D01*
X185993558Y-79681465D01*
X186290204Y-80397632D01*
X186891914Y-80999342D01*
X187678087Y-81324986D01*
X188529033Y-81324986D01*
X189000000Y-81129905D01*
X189000001Y-83269053D01*
X188529033Y-83073972D01*
X187678087Y-83073972D01*
X186891914Y-83399616D01*
X186290204Y-84001326D01*
X185991530Y-84722387D01*
X184959219Y-83690076D01*
X184825933Y-83490599D01*
X184177875Y-83057581D01*
X184035702Y-82962584D01*
X184035701Y-82962584D01*
X184035700Y-82962583D01*
X183103560Y-82777169D01*
X182171419Y-82962583D01*
X181381187Y-83490599D01*
X180853171Y-84280832D01*
X180761718Y-84740599D01*
X180667757Y-85212972D01*
X180714560Y-85448266D01*
X180714561Y-92434682D01*
X180669299Y-92626324D01*
X180714561Y-92905429D01*
X180714561Y-92948267D01*
X180752169Y-93137337D01*
X180821437Y-93564471D01*
X180844582Y-93601930D01*
X180853172Y-93645113D01*
X181093563Y-94004883D01*
X181321008Y-94372984D01*
X181356725Y-94398733D01*
X181381188Y-94435345D01*
X181740961Y-94675738D01*
X182091955Y-94928777D01*
X182134809Y-94938898D01*
X182171420Y-94963361D01*
X182595811Y-95047778D01*
X183016912Y-95147233D01*
X183060374Y-95140185D01*
X183103560Y-95148775D01*
X183527952Y-95064358D01*
X183955059Y-94995095D01*
X183992515Y-94971951D01*
X184035701Y-94963361D01*
X184395486Y-94722960D01*
X184559484Y-94621628D01*
X184590834Y-94592433D01*
X184825933Y-94435345D01*
X184935333Y-94271617D01*
X186016779Y-93264513D01*
X186290204Y-93924618D01*
X186891914Y-94526328D01*
X187678087Y-94851972D01*
X188529033Y-94851972D01*
X189315206Y-94526328D01*
X189916916Y-93924618D01*
X190242560Y-93138445D01*
X190242560Y-92287499D01*
X189916916Y-91501326D01*
X189704590Y-91289000D01*
X190264706Y-91289000D01*
X190500000Y-91335803D01*
X190735294Y-91289000D01*
X190735295Y-91289000D01*
X191432141Y-91150389D01*
X192222373Y-90622373D01*
X192355660Y-90422895D01*
X192911895Y-89866660D01*
X193111373Y-89733373D01*
X193639389Y-88943141D01*
X193778000Y-88246295D01*
X193778000Y-88246294D01*
X193824803Y-88011000D01*
X193778000Y-87775706D01*
X193778000Y-79495875D01*
X194423010Y-78850865D01*
X194721684Y-79571926D01*
X195323394Y-80173636D01*
X196109567Y-80499280D01*
X196960513Y-80499280D01*
X197746686Y-80173636D01*
X198348396Y-79571926D01*
X198674040Y-78785753D01*
X198674040Y-77934807D01*
X198348396Y-77148634D01*
X197746686Y-76546924D01*
X197025626Y-76248251D01*
X198390697Y-74883180D01*
X198785428Y-74292422D01*
X198970843Y-73360280D01*
X198785428Y-72428138D01*
X198257413Y-71637907D01*
X197467182Y-71109892D01*
X197025274Y-71021991D01*
X197535430Y-70258488D01*
X197674041Y-69561641D01*
X197674041Y-69561638D01*
X197720843Y-69326348D01*
X197674041Y-69091058D01*
X197674041Y-68833275D01*
X198390697Y-68116619D01*
X198785428Y-67525862D01*
X198970843Y-66593720D01*
X198785428Y-65661578D01*
X198257413Y-64871347D01*
X197467182Y-64343332D01*
X196535040Y-64157917D01*
X195602898Y-64343332D01*
X195012141Y-64738063D01*
X193762145Y-65988060D01*
X193562668Y-66121346D01*
X193235158Y-66611500D01*
X193062003Y-66870646D01*
X193034652Y-66911579D01*
X192923438Y-67470691D01*
X192849238Y-67843719D01*
X192896041Y-68079013D01*
X192896041Y-68336791D01*
X190163408Y-71069424D01*
X189916916Y-70474340D01*
X189315206Y-69872630D01*
X188711654Y-69622630D01*
X188186850Y-69097827D01*
X189425882Y-68851368D01*
X190546893Y-68102333D01*
X191295928Y-66981322D01*
X191492560Y-65992785D01*
X191492560Y-61168247D01*
X194396040Y-61168247D01*
X194396040Y-62019193D01*
X194721684Y-62805366D01*
X195323394Y-63407076D01*
X196109567Y-63732720D01*
X196960513Y-63732720D01*
X197746686Y-63407076D01*
X198348396Y-62805366D01*
X198674040Y-62019193D01*
X198674040Y-61168247D01*
X198348396Y-60382074D01*
X197746686Y-59780364D01*
X196960513Y-59454720D01*
X196109567Y-59454720D01*
X195323394Y-59780364D01*
X194721684Y-60382074D01*
X194396040Y-61168247D01*
X191492560Y-61168247D01*
X191492560Y-56725017D01*
X191558954Y-56391233D01*
X191417147Y-55678322D01*
X191295928Y-55068912D01*
X190546893Y-53947901D01*
X190263922Y-53758826D01*
X188245735Y-51740640D01*
X188056658Y-51457666D01*
X187317834Y-50964000D01*
X199036001Y-50964000D01*
X199036000Y-108839000D01*
X173482000Y-108839000D01*
X173433399Y-108848667D01*
X173392197Y-108876197D01*
X173364667Y-108917399D01*
X173355000Y-108966000D01*
X173355000Y-116967000D01*
X161163000Y-116967000D01*
X161163000Y-115398524D01*
X161698867Y-115176561D01*
X161955480Y-114919948D01*
X162212093Y-115176561D01*
X162869626Y-115448920D01*
X163581334Y-115448920D01*
X164238867Y-115176561D01*
X164742121Y-114673307D01*
X165014480Y-114015774D01*
X165014480Y-113304066D01*
X164742121Y-112646533D01*
X164238867Y-112143279D01*
X163581334Y-111870920D01*
X162869626Y-111870920D01*
X162212093Y-112143279D01*
X161955480Y-112399892D01*
X161698867Y-112143279D01*
X161163000Y-111921316D01*
X161163000Y-110419054D01*
X166949880Y-110419054D01*
X166949880Y-111170546D01*
X167237463Y-111864833D01*
X167768847Y-112396217D01*
X168463134Y-112683800D01*
X169214626Y-112683800D01*
X169908913Y-112396217D01*
X170440297Y-111864833D01*
X170727880Y-111170546D01*
X170727880Y-110419054D01*
X170440297Y-109724767D01*
X169908913Y-109193383D01*
X169214626Y-108905800D01*
X168463134Y-108905800D01*
X167768847Y-109193383D01*
X167237463Y-109724767D01*
X166949880Y-110419054D01*
X161163000Y-110419054D01*
X161163000Y-107144509D01*
X161290204Y-107451606D01*
X161891914Y-108053316D01*
X162678087Y-108378960D01*
X163529033Y-108378960D01*
X164315206Y-108053316D01*
X164916916Y-107451606D01*
X165242560Y-106665433D01*
X165242560Y-105814487D01*
X180964560Y-105814487D01*
X180964560Y-106665433D01*
X181290204Y-107451606D01*
X181891914Y-108053316D01*
X182678087Y-108378960D01*
X183529033Y-108378960D01*
X184315206Y-108053316D01*
X184916916Y-107451606D01*
X185242560Y-106665433D01*
X185242560Y-105814487D01*
X185964560Y-105814487D01*
X185964560Y-106665433D01*
X186290204Y-107451606D01*
X186891914Y-108053316D01*
X187678087Y-108378960D01*
X188529033Y-108378960D01*
X189315206Y-108053316D01*
X189916916Y-107451606D01*
X190242560Y-106665433D01*
X190242560Y-105814487D01*
X189916916Y-105028314D01*
X189315206Y-104426604D01*
X188529033Y-104100960D01*
X187678087Y-104100960D01*
X186891914Y-104426604D01*
X186290204Y-105028314D01*
X185964560Y-105814487D01*
X185242560Y-105814487D01*
X184916916Y-105028314D01*
X184315206Y-104426604D01*
X183529033Y-104100960D01*
X182678087Y-104100960D01*
X181891914Y-104426604D01*
X181290204Y-105028314D01*
X180964560Y-105814487D01*
X165242560Y-105814487D01*
X164916916Y-105028314D01*
X164315206Y-104426604D01*
X163529033Y-104100960D01*
X162678087Y-104100960D01*
X161891914Y-104426604D01*
X161290204Y-105028314D01*
X161163000Y-105335411D01*
X161163000Y-102870000D01*
X161153333Y-102821399D01*
X161125803Y-102780197D01*
X161084601Y-102752667D01*
X161036000Y-102743000D01*
X160241849Y-102743000D01*
X160249563Y-102731455D01*
X160380649Y-102072440D01*
X160249563Y-101413425D01*
X159876261Y-100854739D01*
X159317575Y-100481437D01*
X158824910Y-100383440D01*
X158492210Y-100383440D01*
X157999545Y-100481437D01*
X157440859Y-100854739D01*
X157388560Y-100933010D01*
X157336261Y-100854739D01*
X156777575Y-100481437D01*
X156284910Y-100383440D01*
X155952210Y-100383440D01*
X155459545Y-100481437D01*
X154900859Y-100854739D01*
X154527557Y-101413425D01*
X154440466Y-101851262D01*
X154353375Y-101413425D01*
X153980073Y-100854739D01*
X153421387Y-100481437D01*
X152928722Y-100383440D01*
X152596022Y-100383440D01*
X152103357Y-100481437D01*
X151544671Y-100854739D01*
X151492372Y-100933010D01*
X151440073Y-100854739D01*
X150881387Y-100481437D01*
X150388722Y-100383440D01*
X150056022Y-100383440D01*
X149563357Y-100481437D01*
X149004671Y-100854739D01*
X148631369Y-101413425D01*
X148544279Y-101851257D01*
X148457189Y-101413425D01*
X148083887Y-100854739D01*
X147525201Y-100481437D01*
X147032536Y-100383440D01*
X146699836Y-100383440D01*
X146207171Y-100481437D01*
X145648485Y-100854739D01*
X145596186Y-100933010D01*
X145543887Y-100854739D01*
X144985201Y-100481437D01*
X144492536Y-100383440D01*
X144159836Y-100383440D01*
X143667171Y-100481437D01*
X143108485Y-100854739D01*
X142735183Y-101413425D01*
X142648093Y-101851257D01*
X142561003Y-101413425D01*
X142187701Y-100854739D01*
X141629015Y-100481437D01*
X141136350Y-100383440D01*
X140803650Y-100383440D01*
X140310985Y-100481437D01*
X139752299Y-100854739D01*
X139700000Y-100933010D01*
X139647701Y-100854739D01*
X139089015Y-100481437D01*
X138596350Y-100383440D01*
X138263650Y-100383440D01*
X137770985Y-100481437D01*
X137212299Y-100854739D01*
X136838997Y-101413425D01*
X136827147Y-101473000D01*
X127061877Y-101473000D01*
X124814013Y-98600729D01*
X124776447Y-98568414D01*
X124714000Y-98552000D01*
X115443000Y-98552000D01*
X115443000Y-95128254D01*
X117745000Y-95128254D01*
X117745000Y-95879746D01*
X118032583Y-96574033D01*
X118563967Y-97105417D01*
X119258254Y-97393000D01*
X120009746Y-97393000D01*
X120704033Y-97105417D01*
X121235417Y-96574033D01*
X121523000Y-95879746D01*
X121523000Y-95570496D01*
X129073542Y-95570496D01*
X129073542Y-96481116D01*
X129422022Y-97322420D01*
X130065928Y-97966326D01*
X130907232Y-98314806D01*
X131817852Y-98314806D01*
X131818622Y-98314487D01*
X160964560Y-98314487D01*
X160964560Y-99165433D01*
X161290204Y-99951606D01*
X161891914Y-100553316D01*
X162678087Y-100878960D01*
X163529033Y-100878960D01*
X164315206Y-100553316D01*
X164916916Y-99951606D01*
X165242560Y-99165433D01*
X165242560Y-98314487D01*
X180964560Y-98314487D01*
X180964560Y-99165433D01*
X181290204Y-99951606D01*
X181891914Y-100553316D01*
X182678087Y-100878960D01*
X183529033Y-100878960D01*
X184315206Y-100553316D01*
X184916916Y-99951606D01*
X185242560Y-99165433D01*
X185242560Y-98314487D01*
X185964560Y-98314487D01*
X185964560Y-99165433D01*
X186290204Y-99951606D01*
X186891914Y-100553316D01*
X187678087Y-100878960D01*
X188529033Y-100878960D01*
X189315206Y-100553316D01*
X189916916Y-99951606D01*
X190242560Y-99165433D01*
X190242560Y-98314487D01*
X189916916Y-97528314D01*
X189315206Y-96926604D01*
X188529033Y-96600960D01*
X187678087Y-96600960D01*
X186891914Y-96926604D01*
X186290204Y-97528314D01*
X185964560Y-98314487D01*
X185242560Y-98314487D01*
X184916916Y-97528314D01*
X184315206Y-96926604D01*
X183529033Y-96600960D01*
X182678087Y-96600960D01*
X181891914Y-96926604D01*
X181290204Y-97528314D01*
X180964560Y-98314487D01*
X165242560Y-98314487D01*
X164916916Y-97528314D01*
X164315206Y-96926604D01*
X163529033Y-96600960D01*
X162678087Y-96600960D01*
X161891914Y-96926604D01*
X161290204Y-97528314D01*
X160964560Y-98314487D01*
X131818622Y-98314487D01*
X132659156Y-97966326D01*
X133303062Y-97322420D01*
X133651542Y-96481116D01*
X133651542Y-95570496D01*
X133303062Y-94729192D01*
X132659156Y-94085286D01*
X131817852Y-93736806D01*
X130907232Y-93736806D01*
X130065928Y-94085286D01*
X129422022Y-94729192D01*
X129073542Y-95570496D01*
X121523000Y-95570496D01*
X121523000Y-95128254D01*
X121235417Y-94433967D01*
X120704033Y-93902583D01*
X120009746Y-93615000D01*
X119258254Y-93615000D01*
X118563967Y-93902583D01*
X118032583Y-94433967D01*
X117745000Y-95128254D01*
X115443000Y-95128254D01*
X115443000Y-93218000D01*
X115433333Y-93169399D01*
X115405803Y-93128197D01*
X115364601Y-93100667D01*
X115316000Y-93091000D01*
X100964000Y-93091000D01*
X100964000Y-92287499D01*
X160964560Y-92287499D01*
X160964560Y-93138445D01*
X161290204Y-93924618D01*
X161891914Y-94526328D01*
X162678087Y-94851972D01*
X163529033Y-94851972D01*
X164315206Y-94526328D01*
X164916916Y-93924618D01*
X165242560Y-93138445D01*
X165242560Y-92287499D01*
X164916916Y-91501326D01*
X164315206Y-90899616D01*
X163529033Y-90573972D01*
X162678087Y-90573972D01*
X161891914Y-90899616D01*
X161290204Y-91501326D01*
X160964560Y-92287499D01*
X100964000Y-92287499D01*
X100964000Y-86811806D01*
X123990494Y-86811806D01*
X124129341Y-87509839D01*
X124524745Y-88101603D01*
X125116509Y-88497007D01*
X125638343Y-88600806D01*
X125990741Y-88600806D01*
X126512575Y-88497007D01*
X127104339Y-88101603D01*
X127499743Y-87509839D01*
X127638590Y-86811806D01*
X127499743Y-86113773D01*
X127104339Y-85522009D01*
X126512575Y-85126605D01*
X125990741Y-85022806D01*
X125638343Y-85022806D01*
X125116509Y-85126605D01*
X124524745Y-85522009D01*
X124129341Y-86113773D01*
X123990494Y-86811806D01*
X100964000Y-86811806D01*
X100964000Y-78302000D01*
X111685584Y-78302000D01*
X111685584Y-80702000D01*
X111754581Y-81048870D01*
X111951067Y-81342933D01*
X112245130Y-81539419D01*
X112592000Y-81608416D01*
X114992000Y-81608416D01*
X115338870Y-81539419D01*
X115632933Y-81342933D01*
X115829419Y-81048870D01*
X115872595Y-80831806D01*
X124008126Y-80831806D01*
X124008126Y-82631806D01*
X124077123Y-82978676D01*
X124273609Y-83272739D01*
X124567672Y-83469225D01*
X124914542Y-83538222D01*
X126714542Y-83538222D01*
X127061412Y-83469225D01*
X127355475Y-83272739D01*
X127551961Y-82978676D01*
X127620958Y-82631806D01*
X127620958Y-81471928D01*
X156145000Y-81471928D01*
X156145000Y-82104072D01*
X156386911Y-82688096D01*
X156833904Y-83135089D01*
X157417928Y-83377000D01*
X158050072Y-83377000D01*
X158634096Y-83135089D01*
X158711185Y-83058000D01*
X159003524Y-83058000D01*
X160964560Y-84928077D01*
X160964560Y-85638445D01*
X161290204Y-86424618D01*
X161891914Y-87026328D01*
X162678087Y-87351972D01*
X163529033Y-87351972D01*
X164315206Y-87026328D01*
X164916916Y-86424618D01*
X165242560Y-85638445D01*
X165242560Y-84787499D01*
X164916916Y-84001326D01*
X164315206Y-83399616D01*
X163529033Y-83073972D01*
X162700770Y-83073972D01*
X160490004Y-80965750D01*
X160427618Y-80872382D01*
X160308940Y-80793084D01*
X160297938Y-80782592D01*
X160205048Y-80723665D01*
X160007529Y-80591687D01*
X159992194Y-80588637D01*
X159978994Y-80580263D01*
X159745015Y-80539470D01*
X159637080Y-80518000D01*
X159621871Y-80518000D01*
X159481266Y-80493486D01*
X159371686Y-80518000D01*
X158711185Y-80518000D01*
X158634096Y-80440911D01*
X158050072Y-80199000D01*
X157417928Y-80199000D01*
X156833904Y-80440911D01*
X156386911Y-80887904D01*
X156145000Y-81471928D01*
X127620958Y-81471928D01*
X127620958Y-80831806D01*
X127551961Y-80484936D01*
X127355475Y-80190873D01*
X127061412Y-79994387D01*
X126714542Y-79925390D01*
X124914542Y-79925390D01*
X124567672Y-79994387D01*
X124273609Y-80190873D01*
X124077123Y-80484936D01*
X124008126Y-80831806D01*
X115872595Y-80831806D01*
X115898416Y-80702000D01*
X115898416Y-78760513D01*
X160964560Y-78760513D01*
X160964560Y-79611459D01*
X161290204Y-80397632D01*
X161891914Y-80999342D01*
X162678087Y-81324986D01*
X163529033Y-81324986D01*
X164315206Y-80999342D01*
X164916916Y-80397632D01*
X165242560Y-79611459D01*
X165242560Y-78760513D01*
X164916916Y-77974340D01*
X164315206Y-77372630D01*
X163529033Y-77046986D01*
X162678087Y-77046986D01*
X161891914Y-77372630D01*
X161290204Y-77974340D01*
X160964560Y-78760513D01*
X115898416Y-78760513D01*
X115898416Y-78302000D01*
X115829419Y-77955130D01*
X115632933Y-77661067D01*
X115338870Y-77464581D01*
X114992000Y-77395584D01*
X112592000Y-77395584D01*
X112245130Y-77464581D01*
X111951067Y-77661067D01*
X111754581Y-77955130D01*
X111685584Y-78302000D01*
X100964000Y-78302000D01*
X100964000Y-73022560D01*
X121392144Y-73022560D01*
X121392144Y-74622560D01*
X121461141Y-74969430D01*
X121657627Y-75263493D01*
X121951690Y-75459979D01*
X122298560Y-75528976D01*
X123898560Y-75528976D01*
X124245430Y-75459979D01*
X124539493Y-75263493D01*
X124735979Y-74969430D01*
X124804976Y-74622560D01*
X124804976Y-73022560D01*
X124735979Y-72675690D01*
X124665691Y-72570496D01*
X129073542Y-72570496D01*
X129073542Y-73481116D01*
X129422022Y-74322420D01*
X130065928Y-74966326D01*
X130907232Y-75314806D01*
X131817852Y-75314806D01*
X132659156Y-74966326D01*
X133303062Y-74322420D01*
X133651542Y-73481116D01*
X133651542Y-72570496D01*
X133303062Y-71729192D01*
X132834383Y-71260513D01*
X160964560Y-71260513D01*
X160964560Y-72111459D01*
X161290204Y-72897632D01*
X161891914Y-73499342D01*
X162678087Y-73824986D01*
X163529033Y-73824986D01*
X164315206Y-73499342D01*
X164916916Y-72897632D01*
X165242560Y-72111459D01*
X165242560Y-71260513D01*
X164916916Y-70474340D01*
X164315206Y-69872630D01*
X163529033Y-69546986D01*
X162678087Y-69546986D01*
X161891914Y-69872630D01*
X161290204Y-70474340D01*
X160964560Y-71260513D01*
X132834383Y-71260513D01*
X132659156Y-71085286D01*
X131817852Y-70736806D01*
X130907232Y-70736806D01*
X130065928Y-71085286D01*
X129422022Y-71729192D01*
X129073542Y-72570496D01*
X124665691Y-72570496D01*
X124539493Y-72381627D01*
X124245430Y-72185141D01*
X123898560Y-72116144D01*
X122298560Y-72116144D01*
X121951690Y-72185141D01*
X121657627Y-72381627D01*
X121461141Y-72675690D01*
X121392144Y-73022560D01*
X100964000Y-73022560D01*
X100964000Y-65633173D01*
X101982507Y-66313718D01*
X103116887Y-66539360D01*
X106988595Y-66539360D01*
X108122975Y-66313718D01*
X108817646Y-65849554D01*
X108851962Y-65842728D01*
X109347680Y-65511500D01*
X110515584Y-65511500D01*
X110515584Y-67711500D01*
X110584581Y-68058370D01*
X110781067Y-68352433D01*
X111075130Y-68548919D01*
X111422000Y-68617916D01*
X113622000Y-68617916D01*
X113968870Y-68548919D01*
X114262933Y-68352433D01*
X114459419Y-68058370D01*
X114528416Y-67711500D01*
X114528416Y-66611500D01*
X120654034Y-66611500D01*
X120808404Y-67387569D01*
X121248011Y-68045489D01*
X121905931Y-68485096D01*
X122486105Y-68600500D01*
X122877895Y-68600500D01*
X123458069Y-68485096D01*
X124115989Y-68045489D01*
X124555596Y-67387569D01*
X124709966Y-66611500D01*
X124555596Y-65835431D01*
X124153418Y-65233527D01*
X160964560Y-65233527D01*
X160964560Y-66084473D01*
X161290204Y-66870646D01*
X161891914Y-67472356D01*
X162678087Y-67798000D01*
X163529033Y-67798000D01*
X164315206Y-67472356D01*
X164916916Y-66870646D01*
X165242560Y-66084473D01*
X165242560Y-65233527D01*
X175964560Y-65233527D01*
X175964560Y-66084473D01*
X176290204Y-66870646D01*
X176891914Y-67472356D01*
X177678087Y-67798000D01*
X178529033Y-67798000D01*
X179315206Y-67472356D01*
X179916916Y-66870646D01*
X180242560Y-66084473D01*
X180242560Y-65233527D01*
X179916916Y-64447354D01*
X179315206Y-63845644D01*
X178529033Y-63520000D01*
X177678087Y-63520000D01*
X176891914Y-63845644D01*
X176290204Y-64447354D01*
X175964560Y-65233527D01*
X165242560Y-65233527D01*
X164916916Y-64447354D01*
X164315206Y-63845644D01*
X163529033Y-63520000D01*
X162678087Y-63520000D01*
X161891914Y-63845644D01*
X161290204Y-64447354D01*
X160964560Y-65233527D01*
X124153418Y-65233527D01*
X124115989Y-65177511D01*
X123458069Y-64737904D01*
X122877895Y-64622500D01*
X122486105Y-64622500D01*
X121905931Y-64737904D01*
X121248011Y-65177511D01*
X120808404Y-65835431D01*
X120654034Y-66611500D01*
X114528416Y-66611500D01*
X114528416Y-65511500D01*
X114459419Y-65164630D01*
X114262933Y-64870567D01*
X113968870Y-64674081D01*
X113622000Y-64605084D01*
X111422000Y-64605084D01*
X111075130Y-64674081D01*
X110781067Y-64870567D01*
X110584581Y-65164630D01*
X110515584Y-65511500D01*
X109347680Y-65511500D01*
X109972973Y-65093693D01*
X110162050Y-64810719D01*
X114497270Y-60475500D01*
X115782785Y-60475500D01*
X116771322Y-60278868D01*
X117892333Y-59529833D01*
X118641368Y-58408822D01*
X118904394Y-57086500D01*
X118641368Y-55764178D01*
X117892333Y-54643167D01*
X116771322Y-53894132D01*
X115782785Y-53697500D01*
X113427283Y-53697500D01*
X113093499Y-53631106D01*
X112759715Y-53697500D01*
X111771178Y-53894132D01*
X110650167Y-54643167D01*
X110461092Y-54926138D01*
X106625871Y-58761360D01*
X103116887Y-58761360D01*
X101982507Y-58987002D01*
X100964000Y-59667547D01*
X100964000Y-50964000D01*
X155490518Y-50964000D01*
X153757018Y-52697500D01*
X153757018Y-52697500D01*
G37*
X153757018Y-52697500D02*
X137616724Y-52697500D01*
X136336497Y-52952153D01*
X134884708Y-53922208D01*
X133914653Y-55373997D01*
X133574015Y-57086500D01*
X133914653Y-58799003D01*
X134884708Y-60250792D01*
X136336497Y-61220847D01*
X137616724Y-61475500D01*
X155142728Y-61475500D01*
X155575000Y-61561484D01*
X156007272Y-61475500D01*
X156007276Y-61475500D01*
X157287503Y-61220847D01*
X158739292Y-60250792D01*
X158984159Y-59884323D01*
X160964560Y-57903922D01*
X160964560Y-58584473D01*
X161290204Y-59370646D01*
X161891914Y-59972356D01*
X162678087Y-60298000D01*
X163529033Y-60298000D01*
X164315206Y-59972356D01*
X164916916Y-59370646D01*
X165242560Y-58584473D01*
X165242560Y-57733527D01*
X165058844Y-57289999D01*
X176148276Y-57289999D01*
X175964560Y-57733527D01*
X175964560Y-58584473D01*
X176290204Y-59370646D01*
X176891914Y-59972356D01*
X177678087Y-60298000D01*
X178529033Y-60298000D01*
X179315206Y-59972356D01*
X179916916Y-59370646D01*
X180242560Y-58584473D01*
X180242560Y-57733527D01*
X180058844Y-57289999D01*
X181148276Y-57289999D01*
X180964560Y-57733527D01*
X180964560Y-58584473D01*
X181214560Y-59188026D01*
X181214561Y-64629972D01*
X180964560Y-65233527D01*
X180964560Y-66084473D01*
X181189285Y-66627006D01*
X181177553Y-66685986D01*
X181214560Y-66872032D01*
X181324162Y-67423037D01*
X181741668Y-68047879D01*
X181899390Y-68153266D01*
X183014102Y-69267977D01*
X182171419Y-69435597D01*
X181381187Y-69963613D01*
X181039931Y-70474340D01*
X180864557Y-70736806D01*
X180853171Y-70753846D01*
X180794517Y-71048720D01*
X180667757Y-71685986D01*
X180714560Y-71921280D01*
X180714561Y-78950687D01*
X180667757Y-79185986D01*
X180853172Y-80118128D01*
X181039931Y-80397632D01*
X181381188Y-80908359D01*
X181956052Y-81292471D01*
X182171418Y-81436374D01*
X182171419Y-81436374D01*
X182171420Y-81436375D01*
X183103560Y-81621789D01*
X184035701Y-81436375D01*
X184825933Y-80908359D01*
X184959219Y-80708882D01*
X185956379Y-79711723D01*
X185993558Y-79681465D01*
X186290204Y-80397632D01*
X186891914Y-80999342D01*
X187678087Y-81324986D01*
X188529033Y-81324986D01*
X189000000Y-81129905D01*
X189000001Y-83269053D01*
X188529033Y-83073972D01*
X187678087Y-83073972D01*
X186891914Y-83399616D01*
X186290204Y-84001326D01*
X185991530Y-84722387D01*
X184959219Y-83690076D01*
X184825933Y-83490599D01*
X184177875Y-83057581D01*
X184035702Y-82962584D01*
X184035701Y-82962584D01*
X184035700Y-82962583D01*
X183103560Y-82777169D01*
X182171419Y-82962583D01*
X181381187Y-83490599D01*
X180853171Y-84280832D01*
X180761718Y-84740599D01*
X180667757Y-85212972D01*
X180714560Y-85448266D01*
X180714561Y-92434682D01*
X180669299Y-92626324D01*
X180714561Y-92905429D01*
X180714561Y-92948267D01*
X180752169Y-93137337D01*
X180821437Y-93564471D01*
X180844582Y-93601930D01*
X180853172Y-93645113D01*
X181093563Y-94004883D01*
X181321008Y-94372984D01*
X181356725Y-94398733D01*
X181381188Y-94435345D01*
X181740961Y-94675738D01*
X182091955Y-94928777D01*
X182134809Y-94938898D01*
X182171420Y-94963361D01*
X182595811Y-95047778D01*
X183016912Y-95147233D01*
X183060374Y-95140185D01*
X183103560Y-95148775D01*
X183527952Y-95064358D01*
X183955059Y-94995095D01*
X183992515Y-94971951D01*
X184035701Y-94963361D01*
X184395486Y-94722960D01*
X184559484Y-94621628D01*
X184590834Y-94592433D01*
X184825933Y-94435345D01*
X184935333Y-94271617D01*
X186016779Y-93264513D01*
X186290204Y-93924618D01*
X186891914Y-94526328D01*
X187678087Y-94851972D01*
X188529033Y-94851972D01*
X189315206Y-94526328D01*
X189916916Y-93924618D01*
X190242560Y-93138445D01*
X190242560Y-92287499D01*
X189916916Y-91501326D01*
X189704590Y-91289000D01*
X190264706Y-91289000D01*
X190500000Y-91335803D01*
X190735294Y-91289000D01*
X190735295Y-91289000D01*
X191432141Y-91150389D01*
X192222373Y-90622373D01*
X192355660Y-90422895D01*
X192911895Y-89866660D01*
X193111373Y-89733373D01*
X193639389Y-88943141D01*
X193778000Y-88246295D01*
X193778000Y-88246294D01*
X193824803Y-88011000D01*
X193778000Y-87775706D01*
X193778000Y-79495875D01*
X194423010Y-78850865D01*
X194721684Y-79571926D01*
X195323394Y-80173636D01*
X196109567Y-80499280D01*
X196960513Y-80499280D01*
X197746686Y-80173636D01*
X198348396Y-79571926D01*
X198674040Y-78785753D01*
X198674040Y-77934807D01*
X198348396Y-77148634D01*
X197746686Y-76546924D01*
X197025626Y-76248251D01*
X198390697Y-74883180D01*
X198785428Y-74292422D01*
X198970843Y-73360280D01*
X198785428Y-72428138D01*
X198257413Y-71637907D01*
X197467182Y-71109892D01*
X197025274Y-71021991D01*
X197535430Y-70258488D01*
X197674041Y-69561641D01*
X197674041Y-69561638D01*
X197720843Y-69326348D01*
X197674041Y-69091058D01*
X197674041Y-68833275D01*
X198390697Y-68116619D01*
X198785428Y-67525862D01*
X198970843Y-66593720D01*
X198785428Y-65661578D01*
X198257413Y-64871347D01*
X197467182Y-64343332D01*
X196535040Y-64157917D01*
X195602898Y-64343332D01*
X195012141Y-64738063D01*
X193762145Y-65988060D01*
X193562668Y-66121346D01*
X193235158Y-66611500D01*
X193062003Y-66870646D01*
X193034652Y-66911579D01*
X192923438Y-67470691D01*
X192849238Y-67843719D01*
X192896041Y-68079013D01*
X192896041Y-68336791D01*
X190163408Y-71069424D01*
X189916916Y-70474340D01*
X189315206Y-69872630D01*
X188711654Y-69622630D01*
X188186850Y-69097827D01*
X189425882Y-68851368D01*
X190546893Y-68102333D01*
X191295928Y-66981322D01*
X191492560Y-65992785D01*
X191492560Y-61168247D01*
X194396040Y-61168247D01*
X194396040Y-62019193D01*
X194721684Y-62805366D01*
X195323394Y-63407076D01*
X196109567Y-63732720D01*
X196960513Y-63732720D01*
X197746686Y-63407076D01*
X198348396Y-62805366D01*
X198674040Y-62019193D01*
X198674040Y-61168247D01*
X198348396Y-60382074D01*
X197746686Y-59780364D01*
X196960513Y-59454720D01*
X196109567Y-59454720D01*
X195323394Y-59780364D01*
X194721684Y-60382074D01*
X194396040Y-61168247D01*
X191492560Y-61168247D01*
X191492560Y-56725017D01*
X191558954Y-56391233D01*
X191417147Y-55678322D01*
X191295928Y-55068912D01*
X190546893Y-53947901D01*
X190263922Y-53758826D01*
X188245735Y-51740640D01*
X188056658Y-51457666D01*
X187317834Y-50964000D01*
X199036001Y-50964000D01*
X199036000Y-108839000D01*
X173482000Y-108839000D01*
X173433399Y-108848667D01*
X173392197Y-108876197D01*
X173364667Y-108917399D01*
X173355000Y-108966000D01*
X173355000Y-116967000D01*
X161163000Y-116967000D01*
X161163000Y-115398524D01*
X161698867Y-115176561D01*
X161955480Y-114919948D01*
X162212093Y-115176561D01*
X162869626Y-115448920D01*
X163581334Y-115448920D01*
X164238867Y-115176561D01*
X164742121Y-114673307D01*
X165014480Y-114015774D01*
X165014480Y-113304066D01*
X164742121Y-112646533D01*
X164238867Y-112143279D01*
X163581334Y-111870920D01*
X162869626Y-111870920D01*
X162212093Y-112143279D01*
X161955480Y-112399892D01*
X161698867Y-112143279D01*
X161163000Y-111921316D01*
X161163000Y-110419054D01*
X166949880Y-110419054D01*
X166949880Y-111170546D01*
X167237463Y-111864833D01*
X167768847Y-112396217D01*
X168463134Y-112683800D01*
X169214626Y-112683800D01*
X169908913Y-112396217D01*
X170440297Y-111864833D01*
X170727880Y-111170546D01*
X170727880Y-110419054D01*
X170440297Y-109724767D01*
X169908913Y-109193383D01*
X169214626Y-108905800D01*
X168463134Y-108905800D01*
X167768847Y-109193383D01*
X167237463Y-109724767D01*
X166949880Y-110419054D01*
X161163000Y-110419054D01*
X161163000Y-107144509D01*
X161290204Y-107451606D01*
X161891914Y-108053316D01*
X162678087Y-108378960D01*
X163529033Y-108378960D01*
X164315206Y-108053316D01*
X164916916Y-107451606D01*
X165242560Y-106665433D01*
X165242560Y-105814487D01*
X180964560Y-105814487D01*
X180964560Y-106665433D01*
X181290204Y-107451606D01*
X181891914Y-108053316D01*
X182678087Y-108378960D01*
X183529033Y-108378960D01*
X184315206Y-108053316D01*
X184916916Y-107451606D01*
X185242560Y-106665433D01*
X185242560Y-105814487D01*
X185964560Y-105814487D01*
X185964560Y-106665433D01*
X186290204Y-107451606D01*
X186891914Y-108053316D01*
X187678087Y-108378960D01*
X188529033Y-108378960D01*
X189315206Y-108053316D01*
X189916916Y-107451606D01*
X190242560Y-106665433D01*
X190242560Y-105814487D01*
X189916916Y-105028314D01*
X189315206Y-104426604D01*
X188529033Y-104100960D01*
X187678087Y-104100960D01*
X186891914Y-104426604D01*
X186290204Y-105028314D01*
X185964560Y-105814487D01*
X185242560Y-105814487D01*
X184916916Y-105028314D01*
X184315206Y-104426604D01*
X183529033Y-104100960D01*
X182678087Y-104100960D01*
X181891914Y-104426604D01*
X181290204Y-105028314D01*
X180964560Y-105814487D01*
X165242560Y-105814487D01*
X164916916Y-105028314D01*
X164315206Y-104426604D01*
X163529033Y-104100960D01*
X162678087Y-104100960D01*
X161891914Y-104426604D01*
X161290204Y-105028314D01*
X161163000Y-105335411D01*
X161163000Y-102870000D01*
X161153333Y-102821399D01*
X161125803Y-102780197D01*
X161084601Y-102752667D01*
X161036000Y-102743000D01*
X160241849Y-102743000D01*
X160249563Y-102731455D01*
X160380649Y-102072440D01*
X160249563Y-101413425D01*
X159876261Y-100854739D01*
X159317575Y-100481437D01*
X158824910Y-100383440D01*
X158492210Y-100383440D01*
X157999545Y-100481437D01*
X157440859Y-100854739D01*
X157388560Y-100933010D01*
X157336261Y-100854739D01*
X156777575Y-100481437D01*
X156284910Y-100383440D01*
X155952210Y-100383440D01*
X155459545Y-100481437D01*
X154900859Y-100854739D01*
X154527557Y-101413425D01*
X154440466Y-101851262D01*
X154353375Y-101413425D01*
X153980073Y-100854739D01*
X153421387Y-100481437D01*
X152928722Y-100383440D01*
X152596022Y-100383440D01*
X152103357Y-100481437D01*
X151544671Y-100854739D01*
X151492372Y-100933010D01*
X151440073Y-100854739D01*
X150881387Y-100481437D01*
X150388722Y-100383440D01*
X150056022Y-100383440D01*
X149563357Y-100481437D01*
X149004671Y-100854739D01*
X148631369Y-101413425D01*
X148544279Y-101851257D01*
X148457189Y-101413425D01*
X148083887Y-100854739D01*
X147525201Y-100481437D01*
X147032536Y-100383440D01*
X146699836Y-100383440D01*
X146207171Y-100481437D01*
X145648485Y-100854739D01*
X145596186Y-100933010D01*
X145543887Y-100854739D01*
X144985201Y-100481437D01*
X144492536Y-100383440D01*
X144159836Y-100383440D01*
X143667171Y-100481437D01*
X143108485Y-100854739D01*
X142735183Y-101413425D01*
X142648093Y-101851257D01*
X142561003Y-101413425D01*
X142187701Y-100854739D01*
X141629015Y-100481437D01*
X141136350Y-100383440D01*
X140803650Y-100383440D01*
X140310985Y-100481437D01*
X139752299Y-100854739D01*
X139700000Y-100933010D01*
X139647701Y-100854739D01*
X139089015Y-100481437D01*
X138596350Y-100383440D01*
X138263650Y-100383440D01*
X137770985Y-100481437D01*
X137212299Y-100854739D01*
X136838997Y-101413425D01*
X136827147Y-101473000D01*
X127061877Y-101473000D01*
X124814013Y-98600729D01*
X124776447Y-98568414D01*
X124714000Y-98552000D01*
X115443000Y-98552000D01*
X115443000Y-95128254D01*
X117745000Y-95128254D01*
X117745000Y-95879746D01*
X118032583Y-96574033D01*
X118563967Y-97105417D01*
X119258254Y-97393000D01*
X120009746Y-97393000D01*
X120704033Y-97105417D01*
X121235417Y-96574033D01*
X121523000Y-95879746D01*
X121523000Y-95570496D01*
X129073542Y-95570496D01*
X129073542Y-96481116D01*
X129422022Y-97322420D01*
X130065928Y-97966326D01*
X130907232Y-98314806D01*
X131817852Y-98314806D01*
X131818622Y-98314487D01*
X160964560Y-98314487D01*
X160964560Y-99165433D01*
X161290204Y-99951606D01*
X161891914Y-100553316D01*
X162678087Y-100878960D01*
X163529033Y-100878960D01*
X164315206Y-100553316D01*
X164916916Y-99951606D01*
X165242560Y-99165433D01*
X165242560Y-98314487D01*
X180964560Y-98314487D01*
X180964560Y-99165433D01*
X181290204Y-99951606D01*
X181891914Y-100553316D01*
X182678087Y-100878960D01*
X183529033Y-100878960D01*
X184315206Y-100553316D01*
X184916916Y-99951606D01*
X185242560Y-99165433D01*
X185242560Y-98314487D01*
X185964560Y-98314487D01*
X185964560Y-99165433D01*
X186290204Y-99951606D01*
X186891914Y-100553316D01*
X187678087Y-100878960D01*
X188529033Y-100878960D01*
X189315206Y-100553316D01*
X189916916Y-99951606D01*
X190242560Y-99165433D01*
X190242560Y-98314487D01*
X189916916Y-97528314D01*
X189315206Y-96926604D01*
X188529033Y-96600960D01*
X187678087Y-96600960D01*
X186891914Y-96926604D01*
X186290204Y-97528314D01*
X185964560Y-98314487D01*
X185242560Y-98314487D01*
X184916916Y-97528314D01*
X184315206Y-96926604D01*
X183529033Y-96600960D01*
X182678087Y-96600960D01*
X181891914Y-96926604D01*
X181290204Y-97528314D01*
X180964560Y-98314487D01*
X165242560Y-98314487D01*
X164916916Y-97528314D01*
X164315206Y-96926604D01*
X163529033Y-96600960D01*
X162678087Y-96600960D01*
X161891914Y-96926604D01*
X161290204Y-97528314D01*
X160964560Y-98314487D01*
X131818622Y-98314487D01*
X132659156Y-97966326D01*
X133303062Y-97322420D01*
X133651542Y-96481116D01*
X133651542Y-95570496D01*
X133303062Y-94729192D01*
X132659156Y-94085286D01*
X131817852Y-93736806D01*
X130907232Y-93736806D01*
X130065928Y-94085286D01*
X129422022Y-94729192D01*
X129073542Y-95570496D01*
X121523000Y-95570496D01*
X121523000Y-95128254D01*
X121235417Y-94433967D01*
X120704033Y-93902583D01*
X120009746Y-93615000D01*
X119258254Y-93615000D01*
X118563967Y-93902583D01*
X118032583Y-94433967D01*
X117745000Y-95128254D01*
X115443000Y-95128254D01*
X115443000Y-93218000D01*
X115433333Y-93169399D01*
X115405803Y-93128197D01*
X115364601Y-93100667D01*
X115316000Y-93091000D01*
X100964000Y-93091000D01*
X100964000Y-92287499D01*
X160964560Y-92287499D01*
X160964560Y-93138445D01*
X161290204Y-93924618D01*
X161891914Y-94526328D01*
X162678087Y-94851972D01*
X163529033Y-94851972D01*
X164315206Y-94526328D01*
X164916916Y-93924618D01*
X165242560Y-93138445D01*
X165242560Y-92287499D01*
X164916916Y-91501326D01*
X164315206Y-90899616D01*
X163529033Y-90573972D01*
X162678087Y-90573972D01*
X161891914Y-90899616D01*
X161290204Y-91501326D01*
X160964560Y-92287499D01*
X100964000Y-92287499D01*
X100964000Y-86811806D01*
X123990494Y-86811806D01*
X124129341Y-87509839D01*
X124524745Y-88101603D01*
X125116509Y-88497007D01*
X125638343Y-88600806D01*
X125990741Y-88600806D01*
X126512575Y-88497007D01*
X127104339Y-88101603D01*
X127499743Y-87509839D01*
X127638590Y-86811806D01*
X127499743Y-86113773D01*
X127104339Y-85522009D01*
X126512575Y-85126605D01*
X125990741Y-85022806D01*
X125638343Y-85022806D01*
X125116509Y-85126605D01*
X124524745Y-85522009D01*
X124129341Y-86113773D01*
X123990494Y-86811806D01*
X100964000Y-86811806D01*
X100964000Y-78302000D01*
X111685584Y-78302000D01*
X111685584Y-80702000D01*
X111754581Y-81048870D01*
X111951067Y-81342933D01*
X112245130Y-81539419D01*
X112592000Y-81608416D01*
X114992000Y-81608416D01*
X115338870Y-81539419D01*
X115632933Y-81342933D01*
X115829419Y-81048870D01*
X115872595Y-80831806D01*
X124008126Y-80831806D01*
X124008126Y-82631806D01*
X124077123Y-82978676D01*
X124273609Y-83272739D01*
X124567672Y-83469225D01*
X124914542Y-83538222D01*
X126714542Y-83538222D01*
X127061412Y-83469225D01*
X127355475Y-83272739D01*
X127551961Y-82978676D01*
X127620958Y-82631806D01*
X127620958Y-81471928D01*
X156145000Y-81471928D01*
X156145000Y-82104072D01*
X156386911Y-82688096D01*
X156833904Y-83135089D01*
X157417928Y-83377000D01*
X158050072Y-83377000D01*
X158634096Y-83135089D01*
X158711185Y-83058000D01*
X159003524Y-83058000D01*
X160964560Y-84928077D01*
X160964560Y-85638445D01*
X161290204Y-86424618D01*
X161891914Y-87026328D01*
X162678087Y-87351972D01*
X163529033Y-87351972D01*
X164315206Y-87026328D01*
X164916916Y-86424618D01*
X165242560Y-85638445D01*
X165242560Y-84787499D01*
X164916916Y-84001326D01*
X164315206Y-83399616D01*
X163529033Y-83073972D01*
X162700770Y-83073972D01*
X160490004Y-80965750D01*
X160427618Y-80872382D01*
X160308940Y-80793084D01*
X160297938Y-80782592D01*
X160205048Y-80723665D01*
X160007529Y-80591687D01*
X159992194Y-80588637D01*
X159978994Y-80580263D01*
X159745015Y-80539470D01*
X159637080Y-80518000D01*
X159621871Y-80518000D01*
X159481266Y-80493486D01*
X159371686Y-80518000D01*
X158711185Y-80518000D01*
X158634096Y-80440911D01*
X158050072Y-80199000D01*
X157417928Y-80199000D01*
X156833904Y-80440911D01*
X156386911Y-80887904D01*
X156145000Y-81471928D01*
X127620958Y-81471928D01*
X127620958Y-80831806D01*
X127551961Y-80484936D01*
X127355475Y-80190873D01*
X127061412Y-79994387D01*
X126714542Y-79925390D01*
X124914542Y-79925390D01*
X124567672Y-79994387D01*
X124273609Y-80190873D01*
X124077123Y-80484936D01*
X124008126Y-80831806D01*
X115872595Y-80831806D01*
X115898416Y-80702000D01*
X115898416Y-78760513D01*
X160964560Y-78760513D01*
X160964560Y-79611459D01*
X161290204Y-80397632D01*
X161891914Y-80999342D01*
X162678087Y-81324986D01*
X163529033Y-81324986D01*
X164315206Y-80999342D01*
X164916916Y-80397632D01*
X165242560Y-79611459D01*
X165242560Y-78760513D01*
X164916916Y-77974340D01*
X164315206Y-77372630D01*
X163529033Y-77046986D01*
X162678087Y-77046986D01*
X161891914Y-77372630D01*
X161290204Y-77974340D01*
X160964560Y-78760513D01*
X115898416Y-78760513D01*
X115898416Y-78302000D01*
X115829419Y-77955130D01*
X115632933Y-77661067D01*
X115338870Y-77464581D01*
X114992000Y-77395584D01*
X112592000Y-77395584D01*
X112245130Y-77464581D01*
X111951067Y-77661067D01*
X111754581Y-77955130D01*
X111685584Y-78302000D01*
X100964000Y-78302000D01*
X100964000Y-73022560D01*
X121392144Y-73022560D01*
X121392144Y-74622560D01*
X121461141Y-74969430D01*
X121657627Y-75263493D01*
X121951690Y-75459979D01*
X122298560Y-75528976D01*
X123898560Y-75528976D01*
X124245430Y-75459979D01*
X124539493Y-75263493D01*
X124735979Y-74969430D01*
X124804976Y-74622560D01*
X124804976Y-73022560D01*
X124735979Y-72675690D01*
X124665691Y-72570496D01*
X129073542Y-72570496D01*
X129073542Y-73481116D01*
X129422022Y-74322420D01*
X130065928Y-74966326D01*
X130907232Y-75314806D01*
X131817852Y-75314806D01*
X132659156Y-74966326D01*
X133303062Y-74322420D01*
X133651542Y-73481116D01*
X133651542Y-72570496D01*
X133303062Y-71729192D01*
X132834383Y-71260513D01*
X160964560Y-71260513D01*
X160964560Y-72111459D01*
X161290204Y-72897632D01*
X161891914Y-73499342D01*
X162678087Y-73824986D01*
X163529033Y-73824986D01*
X164315206Y-73499342D01*
X164916916Y-72897632D01*
X165242560Y-72111459D01*
X165242560Y-71260513D01*
X164916916Y-70474340D01*
X164315206Y-69872630D01*
X163529033Y-69546986D01*
X162678087Y-69546986D01*
X161891914Y-69872630D01*
X161290204Y-70474340D01*
X160964560Y-71260513D01*
X132834383Y-71260513D01*
X132659156Y-71085286D01*
X131817852Y-70736806D01*
X130907232Y-70736806D01*
X130065928Y-71085286D01*
X129422022Y-71729192D01*
X129073542Y-72570496D01*
X124665691Y-72570496D01*
X124539493Y-72381627D01*
X124245430Y-72185141D01*
X123898560Y-72116144D01*
X122298560Y-72116144D01*
X121951690Y-72185141D01*
X121657627Y-72381627D01*
X121461141Y-72675690D01*
X121392144Y-73022560D01*
X100964000Y-73022560D01*
X100964000Y-65633173D01*
X101982507Y-66313718D01*
X103116887Y-66539360D01*
X106988595Y-66539360D01*
X108122975Y-66313718D01*
X108817646Y-65849554D01*
X108851962Y-65842728D01*
X109347680Y-65511500D01*
X110515584Y-65511500D01*
X110515584Y-67711500D01*
X110584581Y-68058370D01*
X110781067Y-68352433D01*
X111075130Y-68548919D01*
X111422000Y-68617916D01*
X113622000Y-68617916D01*
X113968870Y-68548919D01*
X114262933Y-68352433D01*
X114459419Y-68058370D01*
X114528416Y-67711500D01*
X114528416Y-66611500D01*
X120654034Y-66611500D01*
X120808404Y-67387569D01*
X121248011Y-68045489D01*
X121905931Y-68485096D01*
X122486105Y-68600500D01*
X122877895Y-68600500D01*
X123458069Y-68485096D01*
X124115989Y-68045489D01*
X124555596Y-67387569D01*
X124709966Y-66611500D01*
X124555596Y-65835431D01*
X124153418Y-65233527D01*
X160964560Y-65233527D01*
X160964560Y-66084473D01*
X161290204Y-66870646D01*
X161891914Y-67472356D01*
X162678087Y-67798000D01*
X163529033Y-67798000D01*
X164315206Y-67472356D01*
X164916916Y-66870646D01*
X165242560Y-66084473D01*
X165242560Y-65233527D01*
X175964560Y-65233527D01*
X175964560Y-66084473D01*
X176290204Y-66870646D01*
X176891914Y-67472356D01*
X177678087Y-67798000D01*
X178529033Y-67798000D01*
X179315206Y-67472356D01*
X179916916Y-66870646D01*
X180242560Y-66084473D01*
X180242560Y-65233527D01*
X179916916Y-64447354D01*
X179315206Y-63845644D01*
X178529033Y-63520000D01*
X177678087Y-63520000D01*
X176891914Y-63845644D01*
X176290204Y-64447354D01*
X175964560Y-65233527D01*
X165242560Y-65233527D01*
X164916916Y-64447354D01*
X164315206Y-63845644D01*
X163529033Y-63520000D01*
X162678087Y-63520000D01*
X161891914Y-63845644D01*
X161290204Y-64447354D01*
X160964560Y-65233527D01*
X124153418Y-65233527D01*
X124115989Y-65177511D01*
X123458069Y-64737904D01*
X122877895Y-64622500D01*
X122486105Y-64622500D01*
X121905931Y-64737904D01*
X121248011Y-65177511D01*
X120808404Y-65835431D01*
X120654034Y-66611500D01*
X114528416Y-66611500D01*
X114528416Y-65511500D01*
X114459419Y-65164630D01*
X114262933Y-64870567D01*
X113968870Y-64674081D01*
X113622000Y-64605084D01*
X111422000Y-64605084D01*
X111075130Y-64674081D01*
X110781067Y-64870567D01*
X110584581Y-65164630D01*
X110515584Y-65511500D01*
X109347680Y-65511500D01*
X109972973Y-65093693D01*
X110162050Y-64810719D01*
X114497270Y-60475500D01*
X115782785Y-60475500D01*
X116771322Y-60278868D01*
X117892333Y-59529833D01*
X118641368Y-58408822D01*
X118904394Y-57086500D01*
X118641368Y-55764178D01*
X117892333Y-54643167D01*
X116771322Y-53894132D01*
X115782785Y-53697500D01*
X113427283Y-53697500D01*
X113093499Y-53631106D01*
X112759715Y-53697500D01*
X111771178Y-53894132D01*
X110650167Y-54643167D01*
X110461092Y-54926138D01*
X106625871Y-58761360D01*
X103116887Y-58761360D01*
X101982507Y-58987002D01*
X100964000Y-59667547D01*
X100964000Y-50964000D01*
X155490518Y-50964000D01*
X153757018Y-52697500D01*
G36*
X104267000Y-102297477D02*
X104171765Y-102233843D01*
X103924000Y-102184560D01*
X102324000Y-102184560D01*
X102076235Y-102233843D01*
X101866191Y-102374191D01*
X101725843Y-102584235D01*
X101676560Y-102832000D01*
X101676560Y-104432000D01*
X101725843Y-104679765D01*
X101866191Y-104889809D01*
X102076235Y-105030157D01*
X102324000Y-105079440D01*
X103924000Y-105079440D01*
X104171765Y-105030157D01*
X104267000Y-104966523D01*
X104267000Y-106426000D01*
X104276667Y-106474601D01*
X104304197Y-106515803D01*
X104345399Y-106543333D01*
X104394000Y-106553000D01*
X107569000Y-106553000D01*
X107569000Y-109828760D01*
X107111270Y-109828760D01*
X106547093Y-110062450D01*
X106115290Y-110494253D01*
X105881600Y-111058430D01*
X105881600Y-111669090D01*
X106115290Y-112233267D01*
X106515783Y-112633760D01*
X106115290Y-113034253D01*
X105881600Y-113598430D01*
X105881600Y-114209090D01*
X106115290Y-114773267D01*
X106515783Y-115173760D01*
X106115290Y-115574253D01*
X105881600Y-116138430D01*
X105881600Y-116749090D01*
X106115290Y-117313267D01*
X106547093Y-117745070D01*
X107111270Y-117978760D01*
X107569000Y-117978760D01*
X107569000Y-123190000D01*
X107578667Y-123238601D01*
X107606197Y-123279803D01*
X107647399Y-123307333D01*
X107696000Y-123317000D01*
X118745000Y-123317000D01*
X118745000Y-149290000D01*
X100710000Y-149290000D01*
X100710000Y-143743680D01*
X109523291Y-143743680D01*
X109665709Y-144459661D01*
X110071279Y-145066641D01*
X110678259Y-145472211D01*
X111213513Y-145578680D01*
X111574967Y-145578680D01*
X112110221Y-145472211D01*
X112717201Y-145066641D01*
X113122771Y-144459661D01*
X113265189Y-143743680D01*
X113122771Y-143027699D01*
X112717201Y-142420719D01*
X112110221Y-142015149D01*
X111574967Y-141908680D01*
X111213513Y-141908680D01*
X110678259Y-142015149D01*
X110071279Y-142420719D01*
X109665709Y-143027699D01*
X109523291Y-143743680D01*
X100710000Y-143743680D01*
X100710000Y-140512800D01*
X114574247Y-140512800D01*
X114685620Y-141072709D01*
X115002783Y-141547377D01*
X115355118Y-141782800D01*
X115002783Y-142018223D01*
X114685620Y-142492891D01*
X114574247Y-143052800D01*
X114685620Y-143612709D01*
X115002783Y-144087377D01*
X115355118Y-144322800D01*
X115002783Y-144558223D01*
X114685620Y-145032891D01*
X114574247Y-145592800D01*
X114685620Y-146152709D01*
X115002783Y-146627377D01*
X115477451Y-146944540D01*
X115896027Y-147027800D01*
X116178693Y-147027800D01*
X116597269Y-146944540D01*
X117071937Y-146627377D01*
X117389100Y-146152709D01*
X117500473Y-145592800D01*
X117389100Y-145032891D01*
X117071937Y-144558223D01*
X116719602Y-144322800D01*
X117071937Y-144087377D01*
X117389100Y-143612709D01*
X117500473Y-143052800D01*
X117389100Y-142492891D01*
X117071937Y-142018223D01*
X116719602Y-141782800D01*
X117071937Y-141547377D01*
X117389100Y-141072709D01*
X117500473Y-140512800D01*
X117389100Y-139952891D01*
X117071937Y-139478223D01*
X116951254Y-139397585D01*
X117085125Y-139370957D01*
X117295169Y-139230609D01*
X117435517Y-139020565D01*
X117484800Y-138772800D01*
X117484800Y-137172800D01*
X117435517Y-136925035D01*
X117295169Y-136714991D01*
X117085125Y-136574643D01*
X116837360Y-136525360D01*
X115237360Y-136525360D01*
X114989595Y-136574643D01*
X114779551Y-136714991D01*
X114639203Y-136925035D01*
X114589920Y-137172800D01*
X114589920Y-138772800D01*
X114639203Y-139020565D01*
X114779551Y-139230609D01*
X114989595Y-139370957D01*
X115123466Y-139397585D01*
X115002783Y-139478223D01*
X114685620Y-139952891D01*
X114574247Y-140512800D01*
X100710000Y-140512800D01*
X100710000Y-138298676D01*
X109559240Y-138298676D01*
X109559240Y-139028684D01*
X109838602Y-139703124D01*
X110354796Y-140219318D01*
X111029236Y-140498680D01*
X111759244Y-140498680D01*
X112433684Y-140219318D01*
X112949878Y-139703124D01*
X113229240Y-139028684D01*
X113229240Y-138298676D01*
X112949878Y-137624236D01*
X112433684Y-137108042D01*
X111759244Y-136828680D01*
X111029236Y-136828680D01*
X110354796Y-137108042D01*
X109838602Y-137624236D01*
X109559240Y-138298676D01*
X100710000Y-138298676D01*
X100710000Y-128056330D01*
X101614920Y-128056330D01*
X101614920Y-128806230D01*
X101901894Y-129499047D01*
X102432153Y-130029306D01*
X103124970Y-130316280D01*
X103874870Y-130316280D01*
X104567687Y-130029306D01*
X105097946Y-129499047D01*
X105384920Y-128806230D01*
X105384920Y-128056330D01*
X105097946Y-127363513D01*
X104567687Y-126833254D01*
X103874870Y-126546280D01*
X103124970Y-126546280D01*
X102432153Y-126833254D01*
X101901894Y-127363513D01*
X101614920Y-128056330D01*
X100710000Y-128056330D01*
X100710000Y-123056330D01*
X101614920Y-123056330D01*
X101614920Y-123806230D01*
X101901894Y-124499047D01*
X102432153Y-125029306D01*
X103124970Y-125316280D01*
X103874870Y-125316280D01*
X104567687Y-125029306D01*
X105097946Y-124499047D01*
X105384920Y-123806230D01*
X105384920Y-123056330D01*
X105097946Y-122363513D01*
X104567687Y-121833254D01*
X103874870Y-121546280D01*
X103124970Y-121546280D01*
X102432153Y-121833254D01*
X101901894Y-122363513D01*
X101614920Y-123056330D01*
X100710000Y-123056330D01*
X100710000Y-118286841D01*
X101084480Y-118286841D01*
X101084480Y-118857719D01*
X101302946Y-119385142D01*
X101706618Y-119788814D01*
X102234041Y-120007280D01*
X102804919Y-120007280D01*
X103332342Y-119788814D01*
X103736014Y-119385142D01*
X103954480Y-118857719D01*
X103954480Y-118286841D01*
X103736014Y-117759418D01*
X103332342Y-117355746D01*
X102804919Y-117137280D01*
X102234041Y-117137280D01*
X101706618Y-117355746D01*
X101302946Y-117759418D01*
X101084480Y-118286841D01*
X100710000Y-118286841D01*
X100710000Y-108412280D01*
X101056367Y-108412280D01*
X101167740Y-108972189D01*
X101484903Y-109446857D01*
X101959571Y-109764020D01*
X102378147Y-109847280D01*
X102660813Y-109847280D01*
X103079389Y-109764020D01*
X103554057Y-109446857D01*
X103871220Y-108972189D01*
X103982593Y-108412280D01*
X103871220Y-107852371D01*
X103554057Y-107377703D01*
X103079389Y-107060540D01*
X102660813Y-106977280D01*
X102378147Y-106977280D01*
X101959571Y-107060540D01*
X101484903Y-107377703D01*
X101167740Y-107852371D01*
X101056367Y-108412280D01*
X100710000Y-108412280D01*
X100710000Y-98520561D01*
X101181000Y-98520561D01*
X101181000Y-99091439D01*
X101399466Y-99618862D01*
X101803138Y-100022534D01*
X102330561Y-100241000D01*
X102901439Y-100241000D01*
X103428862Y-100022534D01*
X103832534Y-99618862D01*
X104051000Y-99091439D01*
X104051000Y-98520561D01*
X103832534Y-97993138D01*
X103428862Y-97589466D01*
X102901439Y-97371000D01*
X102330561Y-97371000D01*
X101803138Y-97589466D01*
X101399466Y-97993138D01*
X101181000Y-98520561D01*
X100710000Y-98520561D01*
X100710000Y-92837000D01*
X104267000Y-92837000D01*
X104267000Y-102297477D01*
X104267000Y-102297477D01*
G37*
X104267000Y-102297477D02*
X104171765Y-102233843D01*
X103924000Y-102184560D01*
X102324000Y-102184560D01*
X102076235Y-102233843D01*
X101866191Y-102374191D01*
X101725843Y-102584235D01*
X101676560Y-102832000D01*
X101676560Y-104432000D01*
X101725843Y-104679765D01*
X101866191Y-104889809D01*
X102076235Y-105030157D01*
X102324000Y-105079440D01*
X103924000Y-105079440D01*
X104171765Y-105030157D01*
X104267000Y-104966523D01*
X104267000Y-106426000D01*
X104276667Y-106474601D01*
X104304197Y-106515803D01*
X104345399Y-106543333D01*
X104394000Y-106553000D01*
X107569000Y-106553000D01*
X107569000Y-109828760D01*
X107111270Y-109828760D01*
X106547093Y-110062450D01*
X106115290Y-110494253D01*
X105881600Y-111058430D01*
X105881600Y-111669090D01*
X106115290Y-112233267D01*
X106515783Y-112633760D01*
X106115290Y-113034253D01*
X105881600Y-113598430D01*
X105881600Y-114209090D01*
X106115290Y-114773267D01*
X106515783Y-115173760D01*
X106115290Y-115574253D01*
X105881600Y-116138430D01*
X105881600Y-116749090D01*
X106115290Y-117313267D01*
X106547093Y-117745070D01*
X107111270Y-117978760D01*
X107569000Y-117978760D01*
X107569000Y-123190000D01*
X107578667Y-123238601D01*
X107606197Y-123279803D01*
X107647399Y-123307333D01*
X107696000Y-123317000D01*
X118745000Y-123317000D01*
X118745000Y-149290000D01*
X100710000Y-149290000D01*
X100710000Y-143743680D01*
X109523291Y-143743680D01*
X109665709Y-144459661D01*
X110071279Y-145066641D01*
X110678259Y-145472211D01*
X111213513Y-145578680D01*
X111574967Y-145578680D01*
X112110221Y-145472211D01*
X112717201Y-145066641D01*
X113122771Y-144459661D01*
X113265189Y-143743680D01*
X113122771Y-143027699D01*
X112717201Y-142420719D01*
X112110221Y-142015149D01*
X111574967Y-141908680D01*
X111213513Y-141908680D01*
X110678259Y-142015149D01*
X110071279Y-142420719D01*
X109665709Y-143027699D01*
X109523291Y-143743680D01*
X100710000Y-143743680D01*
X100710000Y-140512800D01*
X114574247Y-140512800D01*
X114685620Y-141072709D01*
X115002783Y-141547377D01*
X115355118Y-141782800D01*
X115002783Y-142018223D01*
X114685620Y-142492891D01*
X114574247Y-143052800D01*
X114685620Y-143612709D01*
X115002783Y-144087377D01*
X115355118Y-144322800D01*
X115002783Y-144558223D01*
X114685620Y-145032891D01*
X114574247Y-145592800D01*
X114685620Y-146152709D01*
X115002783Y-146627377D01*
X115477451Y-146944540D01*
X115896027Y-147027800D01*
X116178693Y-147027800D01*
X116597269Y-146944540D01*
X117071937Y-146627377D01*
X117389100Y-146152709D01*
X117500473Y-145592800D01*
X117389100Y-145032891D01*
X117071937Y-144558223D01*
X116719602Y-144322800D01*
X117071937Y-144087377D01*
X117389100Y-143612709D01*
X117500473Y-143052800D01*
X117389100Y-142492891D01*
X117071937Y-142018223D01*
X116719602Y-141782800D01*
X117071937Y-141547377D01*
X117389100Y-141072709D01*
X117500473Y-140512800D01*
X117389100Y-139952891D01*
X117071937Y-139478223D01*
X116951254Y-139397585D01*
X117085125Y-139370957D01*
X117295169Y-139230609D01*
X117435517Y-139020565D01*
X117484800Y-138772800D01*
X117484800Y-137172800D01*
X117435517Y-136925035D01*
X117295169Y-136714991D01*
X117085125Y-136574643D01*
X116837360Y-136525360D01*
X115237360Y-136525360D01*
X114989595Y-136574643D01*
X114779551Y-136714991D01*
X114639203Y-136925035D01*
X114589920Y-137172800D01*
X114589920Y-138772800D01*
X114639203Y-139020565D01*
X114779551Y-139230609D01*
X114989595Y-139370957D01*
X115123466Y-139397585D01*
X115002783Y-139478223D01*
X114685620Y-139952891D01*
X114574247Y-140512800D01*
X100710000Y-140512800D01*
X100710000Y-138298676D01*
X109559240Y-138298676D01*
X109559240Y-139028684D01*
X109838602Y-139703124D01*
X110354796Y-140219318D01*
X111029236Y-140498680D01*
X111759244Y-140498680D01*
X112433684Y-140219318D01*
X112949878Y-139703124D01*
X113229240Y-139028684D01*
X113229240Y-138298676D01*
X112949878Y-137624236D01*
X112433684Y-137108042D01*
X111759244Y-136828680D01*
X111029236Y-136828680D01*
X110354796Y-137108042D01*
X109838602Y-137624236D01*
X109559240Y-138298676D01*
X100710000Y-138298676D01*
X100710000Y-128056330D01*
X101614920Y-128056330D01*
X101614920Y-128806230D01*
X101901894Y-129499047D01*
X102432153Y-130029306D01*
X103124970Y-130316280D01*
X103874870Y-130316280D01*
X104567687Y-130029306D01*
X105097946Y-129499047D01*
X105384920Y-128806230D01*
X105384920Y-128056330D01*
X105097946Y-127363513D01*
X104567687Y-126833254D01*
X103874870Y-126546280D01*
X103124970Y-126546280D01*
X102432153Y-126833254D01*
X101901894Y-127363513D01*
X101614920Y-128056330D01*
X100710000Y-128056330D01*
X100710000Y-123056330D01*
X101614920Y-123056330D01*
X101614920Y-123806230D01*
X101901894Y-124499047D01*
X102432153Y-125029306D01*
X103124970Y-125316280D01*
X103874870Y-125316280D01*
X104567687Y-125029306D01*
X105097946Y-124499047D01*
X105384920Y-123806230D01*
X105384920Y-123056330D01*
X105097946Y-122363513D01*
X104567687Y-121833254D01*
X103874870Y-121546280D01*
X103124970Y-121546280D01*
X102432153Y-121833254D01*
X101901894Y-122363513D01*
X101614920Y-123056330D01*
X100710000Y-123056330D01*
X100710000Y-118286841D01*
X101084480Y-118286841D01*
X101084480Y-118857719D01*
X101302946Y-119385142D01*
X101706618Y-119788814D01*
X102234041Y-120007280D01*
X102804919Y-120007280D01*
X103332342Y-119788814D01*
X103736014Y-119385142D01*
X103954480Y-118857719D01*
X103954480Y-118286841D01*
X103736014Y-117759418D01*
X103332342Y-117355746D01*
X102804919Y-117137280D01*
X102234041Y-117137280D01*
X101706618Y-117355746D01*
X101302946Y-117759418D01*
X101084480Y-118286841D01*
X100710000Y-118286841D01*
X100710000Y-108412280D01*
X101056367Y-108412280D01*
X101167740Y-108972189D01*
X101484903Y-109446857D01*
X101959571Y-109764020D01*
X102378147Y-109847280D01*
X102660813Y-109847280D01*
X103079389Y-109764020D01*
X103554057Y-109446857D01*
X103871220Y-108972189D01*
X103982593Y-108412280D01*
X103871220Y-107852371D01*
X103554057Y-107377703D01*
X103079389Y-107060540D01*
X102660813Y-106977280D01*
X102378147Y-106977280D01*
X101959571Y-107060540D01*
X101484903Y-107377703D01*
X101167740Y-107852371D01*
X101056367Y-108412280D01*
X100710000Y-108412280D01*
X100710000Y-98520561D01*
X101181000Y-98520561D01*
X101181000Y-99091439D01*
X101399466Y-99618862D01*
X101803138Y-100022534D01*
X102330561Y-100241000D01*
X102901439Y-100241000D01*
X103428862Y-100022534D01*
X103832534Y-99618862D01*
X104051000Y-99091439D01*
X104051000Y-98520561D01*
X103832534Y-97993138D01*
X103428862Y-97589466D01*
X102901439Y-97371000D01*
X102330561Y-97371000D01*
X101803138Y-97589466D01*
X101399466Y-97993138D01*
X101181000Y-98520561D01*
X100710000Y-98520561D01*
X100710000Y-92837000D01*
X104267000Y-92837000D01*
X104267000Y-102297477D01*
M02*
