M48
;DRILL file {KiCad (6.0.0-rc1-dev-882-gdbc9130da)} date 2018/12/23 18:08:44
;FORMAT={-:-/ absolute / inch / decimal}
FMAT,2
INCH
T1C0.0157
T2C0.0236
T3C0.0315
T4C0.0354
T5C0.0394
T6C0.0433
T7C0.0472
T8C0.0512
T9C0.0591
T10C0.0669
T11C0.1378
%
G90
G05
M72
T1
X4.2954Y-5.0555
X4.6054Y-5.2955
X4.6075Y-4.895
X4.8042Y-5.3128
X4.8322Y-4.8528
X4.8322Y-4.9292
X4.8322Y-5.0112
X5.004Y-3.758
X5.0742Y-5.6428
X5.079Y-5.1531
X5.21Y-5.365
X5.3362Y-5.3498
X5.3562Y-4.9592
X5.36Y-5.595
X5.3804Y-5.8405
X5.5182Y-5.1728
X5.5912Y-5.1648
X5.659Y-4.7815
X5.6712Y-5.1648
X5.6782Y-4.5872
X5.685Y-4.86
X5.7342Y-4.5268
X5.7512Y-5.2148
X5.805Y-3.745
X5.855Y-4.6453
X5.8591Y-4.8777
X5.8992Y-4.9953
X5.945Y-4.945
X5.955Y-3.745
X6.03Y-4.94
X6.03Y-3.745
X6.1312Y-5.0698
X6.1608Y-4.7157
X6.165Y-4.89
X6.1698Y-3.7452
X6.225Y-3.615
X6.2602Y-4.7504
X6.3012Y-5.0048
X6.8812Y-4.6898
X6.9382Y-5.2564
X7.1762Y-5.0598
X7.3162Y-5.3598
X7.5282Y-4.4168
X7.5887Y-5.1248
T2
X4.8296Y-5.249
X5.28Y-2.57
T3
X6.21Y-3.22
X7.4756Y-4.4986
X7.4756Y-4.597
X5.45Y-4.0186
X5.45Y-4.3186
X5.55Y-4.0186
X5.55Y-4.3186
X4.06Y-4.08
X4.1584Y-4.08
X6.0282Y-5.6588
X6.0282Y-5.7966
X5.6821Y-4.0186
X5.6821Y-4.3186
X5.7821Y-4.0186
X5.7821Y-4.3186
X4.04Y-3.89
X4.44Y-3.89
X4.74Y-4.0416
X4.74Y-4.14
X5.9143Y-4.0186
X5.9143Y-4.3186
X6.0143Y-4.0186
X6.0143Y-4.3186
X4.21Y-3.76
X4.41Y-3.76
X4.61Y-3.76
X4.71Y-3.76
X6.6472Y-4.362
X6.7472Y-4.362
X6.9472Y-4.362
X7.1472Y-4.362
X4.748Y-2.9064
X4.8464Y-2.9064
X6.1464Y-4.0186
X6.1464Y-4.3186
X6.2464Y-4.0186
X6.2464Y-4.3186
X4.5684Y-5.432
X4.5684Y-5.532
X4.5684Y-5.632
X4.5684Y-5.732
X4.8684Y-5.432
X4.8684Y-5.532
X4.8684Y-5.632
X4.8684Y-5.732
X5.5422Y-5.3274
X5.5422Y-5.4274
X5.8422Y-5.3274
X5.8422Y-5.4274
X4.0362Y-4.2682
X4.0362Y-4.6682
X6.4298Y-5.2428
X6.4298Y-5.3428
X6.4298Y-5.4428
X6.4298Y-5.5428
X6.7298Y-5.2428
X6.7298Y-5.3428
X6.7298Y-5.4428
X6.7298Y-5.5428
X6.747Y-4.7886
X6.747Y-5.0886
X6.847Y-4.7886
X6.847Y-5.0886
X6.947Y-4.7886
X6.947Y-5.0886
X7.047Y-4.7886
X7.047Y-5.0886
X7.1646Y-4.7826
X7.5646Y-4.7826
X6.4298Y-5.677
X6.4298Y-5.777
X6.7298Y-5.677
X6.7298Y-5.777
T4
X4.9658Y-4.1478
X5.0658Y-4.1478
X5.1658Y-4.1478
X5.2658Y-4.1478
X6.4678Y-4.852
X6.5678Y-4.852
X6.3262Y-4.4748
X6.4262Y-4.4748
X4.229Y-4.3844
X4.229Y-4.4844
X4.229Y-4.5844
X5.0142Y-5.808
X5.1142Y-5.808
X5.2142Y-5.808
X5.2174Y-5.2288
X5.3174Y-5.2288
X5.4174Y-5.2288
T5
X4.9533Y-3.2178
X4.9533Y-3.3178
X4.9533Y-3.4178
T6
X4.3512Y-4.5488
X4.3512Y-4.726
X4.6071Y-4.5488
X4.6071Y-4.726
X4.43Y-2.6225
X4.83Y-2.6225
T7
X7.4062Y-5.3248
X7.4542Y-5.4728
X7.7376Y-2.8882
X7.7376Y-3.0851
X7.0092Y-5.7678
X7.2061Y-5.7678
X7.4029Y-5.7678
X7.7376Y-4.0418
X7.7376Y-4.2387
X5.5395Y-5.768
X5.7364Y-5.768
X4.0748Y-4.8595
X4.0748Y-5.0563
X4.0748Y-5.2532
X4.3856Y-5.4592
X4.3856Y-5.6592
X4.0748Y-2.4665
X4.0748Y-2.6634
X4.1847Y-3.13
X4.48Y-3.13
X7.7376Y-2.4249
X7.7376Y-2.6218
T8
X6.4214Y-3.3548
X6.4214Y-3.6501
X7.012Y-3.3548
X7.012Y-3.6501
X7.2088Y-3.3548
X7.2088Y-3.6501
X7.4057Y-3.3548
X7.4057Y-3.6501
X6.4214Y-2.2897
X6.4214Y-2.585
X7.012Y-2.2897
X7.012Y-2.585
X7.2088Y-2.2897
X7.2088Y-2.585
X7.4057Y-2.2897
X7.4057Y-2.585
X6.4214Y-3.8874
X6.4214Y-4.1827
X7.012Y-3.8874
X7.012Y-4.1827
X7.2088Y-3.8874
X7.2088Y-4.1827
X7.4057Y-3.8874
X7.4057Y-4.1827
X6.4214Y-2.8223
X6.4214Y-3.1176
X7.012Y-2.8223
X7.012Y-3.1176
X7.2088Y-2.8223
X7.2088Y-3.1176
X7.4057Y-2.8223
X7.4057Y-3.1176
T9
X4.5452Y-2.2475
X5.435Y-2.2475
T10
X5.1718Y-2.875
X5.1718Y-3.7805
T11
X4.1339Y-2.1654
X4.1339Y-5.7087
X7.6772Y-2.1654
X7.6772Y-5.7087
T0
M30
