%TF.GenerationSoftware,KiCad,Pcbnew,(5.1.10)-1*%
%TF.CreationDate,2022-06-11T01:01:33+08:00*%
%TF.ProjectId,interface,696e7465-7266-4616-9365-2e6b69636164,rev?*%
%TF.SameCoordinates,Original*%
%TF.FileFunction,Paste,Top*%
%TF.FilePolarity,Positive*%
%FSLAX46Y46*%
G04 Gerber Fmt 4.6, Leading zero omitted, Abs format (unit mm)*
G04 Created by KiCad (PCBNEW (5.1.10)-1) date 2022-06-11 01:01:33*
%MOMM*%
%LPD*%
G01*
G04 APERTURE LIST*
%ADD10O,0.280000X0.900000*%
%ADD11O,0.900000X0.280000*%
%ADD12R,2.500000X2.500000*%
%ADD13R,1.160000X1.470000*%
%ADD14R,1.470000X1.160000*%
%ADD15R,1.800000X1.130000*%
%ADD16R,0.360000X0.400000*%
%ADD17R,5.400000X3.900000*%
%ADD18R,0.400000X0.360000*%
%ADD19R,2.000000X2.000000*%
%ADD20R,1.500000X1.500000*%
%ADD21R,2.750000X3.050000*%
%ADD22R,1.200000X2.200000*%
%ADD23O,0.700000X1.800000*%
%ADD24O,1.800000X0.700000*%
%ADD25R,1.250000X0.700000*%
%ADD26R,0.700000X1.250000*%
%ADD27R,1.500000X0.900000*%
%ADD28O,1.900000X0.700000*%
%ADD29O,3.500000X2.000000*%
%ADD30O,2.100000X0.700000*%
%ADD31R,0.900000X2.000000*%
%ADD32R,2.000000X0.900000*%
%ADD33R,5.000000X5.000000*%
%ADD34R,1.650000X2.380000*%
%ADD35R,1.450000X0.300000*%
%ADD36O,2.000000X0.800000*%
%ADD37O,0.800000X2.000000*%
%ADD38R,2.000000X1.780000*%
%ADD39O,0.600000X1.800000*%
%ADD40R,2.200000X1.000000*%
%ADD41R,2.200000X3.500000*%
%ADD42R,2.720000X1.160000*%
%ADD43R,1.130000X1.800000*%
G04 APERTURE END LIST*
D10*
%TO.C,U7*%
X34250000Y45500000D03*
X34750000Y45500000D03*
X35250000Y45500000D03*
X35750000Y45500000D03*
X36250000Y45500000D03*
X36750000Y45500000D03*
D11*
X37500000Y44750000D03*
X37500000Y44250000D03*
X37500000Y43750000D03*
X37500000Y43250000D03*
X37500000Y42750000D03*
X37500000Y42250000D03*
D10*
X36750000Y41500000D03*
X36250000Y41500000D03*
X35750000Y41500000D03*
X35250000Y41500000D03*
X34750000Y41500000D03*
X34250000Y41500000D03*
D11*
X33500000Y42250000D03*
X33500000Y42750000D03*
X33500000Y43250000D03*
X33500000Y43750000D03*
X33500000Y44250000D03*
X33500000Y44750000D03*
D12*
X35500000Y43500000D03*
%TD*%
D13*
%TO.C,C40*%
X49310000Y2500000D03*
X51090000Y2500000D03*
%TD*%
%TO.C,C39*%
X49300000Y5300000D03*
X51080000Y5300000D03*
%TD*%
%TO.C,C29*%
X41210000Y11500000D03*
X42990000Y11500000D03*
%TD*%
D14*
%TO.C,R3*%
X37500000Y20310000D03*
X37500000Y22090000D03*
%TD*%
D15*
%TO.C,J2*%
X69250000Y67260000D03*
X69250000Y70240000D03*
%TD*%
D14*
%TO.C,C23*%
X15600000Y20220000D03*
X15600000Y22000000D03*
%TD*%
D13*
%TO.C,C34*%
X53110000Y54250000D03*
X54890000Y54250000D03*
%TD*%
D16*
%TO.C,R16*%
X69820000Y52610000D03*
X69250000Y52610000D03*
%TD*%
D13*
%TO.C,R70*%
X46890000Y4250000D03*
X45110000Y4250000D03*
%TD*%
D14*
%TO.C,R69*%
X24000000Y13400000D03*
X24000000Y11620000D03*
%TD*%
%TO.C,R25*%
X22000000Y22040000D03*
X22000000Y20260000D03*
%TD*%
%TO.C,C24*%
X39000000Y35860000D03*
X39000000Y37640000D03*
%TD*%
D17*
%TO.C,L2*%
X51750000Y49750000D03*
X51750000Y37750000D03*
%TD*%
D18*
%TO.C,R44*%
X33750000Y53715000D03*
X33750000Y54285000D03*
%TD*%
D14*
%TO.C,F3*%
X10250000Y60110000D03*
X10250000Y61890000D03*
%TD*%
%TO.C,F2*%
X28500000Y64360000D03*
X28500000Y66140000D03*
%TD*%
D19*
%TO.C,D10*%
X92750000Y34650000D03*
X92750000Y38850000D03*
%TD*%
%TO.C,D3*%
X92250000Y16900000D03*
X92250000Y21100000D03*
%TD*%
D20*
%TO.C,SW1*%
X8250000Y14950000D03*
X8250000Y22750000D03*
%TD*%
D13*
%TO.C,R15*%
X46890000Y8000000D03*
X45110000Y8000000D03*
%TD*%
%TO.C,R53*%
G36*
G01*
X89299999Y8925000D02*
X92200001Y8925000D01*
G75*
G02*
X92450000Y8675001I0J-249999D01*
G01*
X92450000Y7874999D01*
G75*
G02*
X92200001Y7625000I-249999J0D01*
G01*
X89299999Y7625000D01*
G75*
G02*
X89050000Y7874999I0J249999D01*
G01*
X89050000Y8675001D01*
G75*
G02*
X89299999Y8925000I249999J0D01*
G01*
G37*
G36*
G01*
X89299999Y13375000D02*
X92200001Y13375000D01*
G75*
G02*
X92450000Y13125001I0J-249999D01*
G01*
X92450000Y12324999D01*
G75*
G02*
X92200001Y12075000I-249999J0D01*
G01*
X89299999Y12075000D01*
G75*
G02*
X89050000Y12324999I0J249999D01*
G01*
X89050000Y13125001D01*
G75*
G02*
X89299999Y13375000I249999J0D01*
G01*
G37*
%TD*%
%TO.C,R30*%
G36*
G01*
X89950001Y36325000D02*
X87049999Y36325000D01*
G75*
G02*
X86800000Y36574999I0J249999D01*
G01*
X86800000Y37375001D01*
G75*
G02*
X87049999Y37625000I249999J0D01*
G01*
X89950001Y37625000D01*
G75*
G02*
X90200000Y37375001I0J-249999D01*
G01*
X90200000Y36574999D01*
G75*
G02*
X89950001Y36325000I-249999J0D01*
G01*
G37*
G36*
G01*
X89950001Y31875000D02*
X87049999Y31875000D01*
G75*
G02*
X86800000Y32124999I0J249999D01*
G01*
X86800000Y32925001D01*
G75*
G02*
X87049999Y33175000I249999J0D01*
G01*
X89950001Y33175000D01*
G75*
G02*
X90200000Y32925001I0J-249999D01*
G01*
X90200000Y32124999D01*
G75*
G02*
X89950001Y31875000I-249999J0D01*
G01*
G37*
%TD*%
D21*
%TO.C,U3*%
X69725000Y66075000D03*
X72775000Y62725000D03*
X72775000Y66075000D03*
X69725000Y62725000D03*
D22*
X68970000Y70700000D03*
X73530000Y70700000D03*
%TD*%
D21*
%TO.C,Q2*%
X61775000Y68675000D03*
X58725000Y72025000D03*
X58725000Y68675000D03*
X61775000Y72025000D03*
D22*
X62530000Y64050000D03*
X57970000Y64050000D03*
%TD*%
D15*
%TO.C,C38*%
X76750000Y64990000D03*
X76750000Y62010000D03*
%TD*%
%TO.C,C20*%
X65750000Y69260000D03*
X65750000Y72240000D03*
%TD*%
D23*
%TO.C,U17*%
X58245000Y10600000D03*
X59515000Y10600000D03*
X60785000Y10600000D03*
X62055000Y10600000D03*
X62055000Y5400000D03*
X60785000Y5400000D03*
X59515000Y5400000D03*
X58245000Y5400000D03*
%TD*%
%TO.C,U14*%
X76695000Y21350000D03*
X77965000Y21350000D03*
X79235000Y21350000D03*
X80505000Y21350000D03*
X80505000Y16150000D03*
X79235000Y16150000D03*
X77965000Y16150000D03*
X76695000Y16150000D03*
%TD*%
D24*
%TO.C,U13*%
X26150000Y23095000D03*
X26150000Y24365000D03*
X26150000Y25635000D03*
X26150000Y26905000D03*
X31350000Y26905000D03*
X31350000Y25635000D03*
X31350000Y24365000D03*
X31350000Y23095000D03*
%TD*%
%TO.C,R48*%
G36*
G01*
X67799999Y7425000D02*
X70700001Y7425000D01*
G75*
G02*
X70950000Y7175001I0J-249999D01*
G01*
X70950000Y6374999D01*
G75*
G02*
X70700001Y6125000I-249999J0D01*
G01*
X67799999Y6125000D01*
G75*
G02*
X67550000Y6374999I0J249999D01*
G01*
X67550000Y7175001D01*
G75*
G02*
X67799999Y7425000I249999J0D01*
G01*
G37*
G36*
G01*
X67799999Y11875000D02*
X70700001Y11875000D01*
G75*
G02*
X70950000Y11625001I0J-249999D01*
G01*
X70950000Y10824999D01*
G75*
G02*
X70700001Y10575000I-249999J0D01*
G01*
X67799999Y10575000D01*
G75*
G02*
X67550000Y10824999I0J249999D01*
G01*
X67550000Y11625001D01*
G75*
G02*
X67799999Y11875000I249999J0D01*
G01*
G37*
%TD*%
D25*
%TO.C,Q3*%
X55250000Y71500000D03*
X52750000Y70550000D03*
X52750000Y72450000D03*
%TD*%
D26*
%TO.C,Q1*%
X54200000Y62750000D03*
X53250000Y65250000D03*
X55150000Y65250000D03*
%TD*%
D27*
%TO.C,D4*%
X50500000Y65000000D03*
X50500000Y68500000D03*
%TD*%
D13*
%TO.C,C10*%
X60610000Y42750000D03*
X62390000Y42750000D03*
%TD*%
D28*
%TO.C,U4*%
X53250000Y33000000D03*
D29*
X50750000Y31500000D03*
D30*
X53150000Y31500000D03*
D28*
X53250000Y30000000D03*
%TD*%
D23*
%TO.C,U21*%
X20095000Y52850000D03*
X21365000Y52850000D03*
X22635000Y52850000D03*
X23905000Y52850000D03*
X23905000Y47650000D03*
X22635000Y47650000D03*
X21365000Y47650000D03*
X20095000Y47650000D03*
%TD*%
D31*
%TO.C,U2*%
X1995000Y44000000D03*
X3265000Y44000000D03*
X4535000Y44000000D03*
X5805000Y44000000D03*
X7075000Y44000000D03*
X8345000Y44000000D03*
X9615000Y44000000D03*
X10885000Y44000000D03*
X12155000Y44000000D03*
X13425000Y44000000D03*
X14695000Y44000000D03*
X15965000Y44000000D03*
X17235000Y44000000D03*
X18505000Y44000000D03*
D32*
X19505000Y41215000D03*
X19505000Y39945000D03*
X19505000Y38675000D03*
X19505000Y37405000D03*
X19505000Y36135000D03*
X19505000Y34865000D03*
X19505000Y33595000D03*
X19505000Y32325000D03*
X19505000Y31055000D03*
X19505000Y29785000D03*
D31*
X18505000Y27000000D03*
X17235000Y27000000D03*
X15965000Y27000000D03*
X14695000Y27000000D03*
X13425000Y27000000D03*
X12155000Y27000000D03*
X10885000Y27000000D03*
X9615000Y27000000D03*
X8345000Y27000000D03*
X7075000Y27000000D03*
X5805000Y27000000D03*
X4535000Y27000000D03*
X3265000Y27000000D03*
X1995000Y27000000D03*
D33*
X9495000Y34500000D03*
%TD*%
D34*
%TO.C,U22*%
X65000000Y54000000D03*
D35*
X62800000Y53000000D03*
X62800000Y53500000D03*
X62800000Y54000000D03*
X62800000Y54500000D03*
X67200000Y55000000D03*
X67200000Y54500000D03*
X67200000Y54000000D03*
X67200000Y53500000D03*
X62800000Y55000000D03*
X67200000Y53000000D03*
%TD*%
D36*
%TO.C,U20*%
X10500000Y54980000D03*
X10500000Y57520000D03*
X16500000Y57520000D03*
X16500000Y54980000D03*
%TD*%
D37*
%TO.C,U19*%
X7520000Y55500000D03*
X4980000Y55500000D03*
X4980000Y61500000D03*
X7520000Y61500000D03*
%TD*%
%TO.C,U18*%
X27530000Y57750000D03*
X30070000Y57750000D03*
X30070000Y51750000D03*
X27530000Y51750000D03*
%TD*%
D38*
%TO.C,U15*%
X74060000Y4390000D03*
X85540000Y12010000D03*
X74060000Y6930000D03*
X85540000Y9470000D03*
X74060000Y9470000D03*
X85540000Y6930000D03*
X74060000Y12010000D03*
X85540000Y4390000D03*
%TD*%
D36*
%TO.C,U12*%
X69000000Y25730000D03*
X69000000Y28270000D03*
X75000000Y28270000D03*
X75000000Y25730000D03*
%TD*%
D39*
%TO.C,U11*%
X40305000Y21650000D03*
X41575000Y21650000D03*
X42845000Y21650000D03*
X44115000Y21650000D03*
X45385000Y21650000D03*
X46655000Y21650000D03*
X47925000Y21650000D03*
X49195000Y21650000D03*
X49195000Y26850000D03*
X47925000Y26850000D03*
X46655000Y26850000D03*
X45385000Y26850000D03*
X44115000Y26850000D03*
X42845000Y26850000D03*
X41575000Y26850000D03*
X40305000Y26850000D03*
%TD*%
D36*
%TO.C,U10*%
X69000000Y31730000D03*
X69000000Y34270000D03*
X75000000Y34270000D03*
X75000000Y31730000D03*
%TD*%
D38*
%TO.C,U9*%
X57010000Y14440000D03*
X68490000Y22060000D03*
X57010000Y16980000D03*
X68490000Y19520000D03*
X57010000Y19520000D03*
X68490000Y16980000D03*
X57010000Y22060000D03*
X68490000Y14440000D03*
%TD*%
D40*
%TO.C,U5*%
X63000000Y33300000D03*
D41*
X57000000Y31000000D03*
D40*
X63000000Y31000000D03*
X63000000Y28700000D03*
%TD*%
D13*
%TO.C,R68*%
X63640000Y57500000D03*
X61860000Y57500000D03*
%TD*%
%TO.C,R67*%
X55140000Y57250000D03*
X53360000Y57250000D03*
%TD*%
%TO.C,R66*%
X65860000Y57500000D03*
X67640000Y57500000D03*
%TD*%
%TO.C,R65*%
X57610000Y57250000D03*
X59390000Y57250000D03*
%TD*%
D14*
%TO.C,R64*%
X73000000Y56390000D03*
X73000000Y54610000D03*
%TD*%
%TO.C,R63*%
X75750000Y54610000D03*
X75750000Y56390000D03*
%TD*%
%TO.C,R62*%
X2650000Y66390000D03*
X2650000Y64610000D03*
%TD*%
%TO.C,R61*%
X25000000Y57890000D03*
X25000000Y56110000D03*
%TD*%
%TO.C,R60*%
X28500000Y68360000D03*
X28500000Y70140000D03*
%TD*%
%TO.C,R59*%
X2500000Y60360000D03*
X2500000Y62140000D03*
%TD*%
%TO.C,R58*%
X28500000Y62140000D03*
X28500000Y60360000D03*
%TD*%
%TO.C,R57*%
X17000000Y51530000D03*
X17000000Y49750000D03*
%TD*%
%TO.C,R56*%
X22250000Y57890000D03*
X22250000Y56110000D03*
%TD*%
%TO.C,R55*%
X6750000Y66390000D03*
X6750000Y64610000D03*
%TD*%
%TO.C,R54*%
X27250000Y47110000D03*
X27250000Y48890000D03*
%TD*%
%TO.C,R52*%
X93000000Y44390000D03*
X93000000Y42610000D03*
%TD*%
D13*
%TO.C,R51*%
X91610000Y24500000D03*
X93390000Y24500000D03*
%TD*%
%TO.C,R50*%
X85140000Y19000000D03*
X83360000Y19000000D03*
%TD*%
D14*
%TO.C,R49*%
X81750000Y34140000D03*
X81750000Y32360000D03*
%TD*%
D13*
%TO.C,R47*%
X34590000Y20600000D03*
X32810000Y20600000D03*
%TD*%
D14*
%TO.C,R46*%
X64800000Y8510000D03*
X64800000Y10290000D03*
%TD*%
D13*
%TO.C,R45*%
X53610000Y5250000D03*
X55390000Y5250000D03*
%TD*%
D14*
%TO.C,R43*%
X36250000Y49560000D03*
X36250000Y51340000D03*
%TD*%
D13*
%TO.C,R42*%
X3860000Y12000000D03*
X5640000Y12000000D03*
%TD*%
D14*
%TO.C,R41*%
X33450000Y49560000D03*
X33450000Y51340000D03*
%TD*%
%TO.C,R40*%
X42100000Y49610000D03*
X42100000Y51390000D03*
%TD*%
%TO.C,R39*%
X26000000Y44640000D03*
X26000000Y42860000D03*
%TD*%
%TO.C,R38*%
X23250000Y42860000D03*
X23250000Y44640000D03*
%TD*%
D13*
%TO.C,R37*%
X59890000Y2500000D03*
X58110000Y2500000D03*
%TD*%
D14*
%TO.C,R36*%
X30000000Y48890000D03*
X30000000Y47110000D03*
%TD*%
%TO.C,R35*%
X39300000Y49610000D03*
X39300000Y51390000D03*
%TD*%
D13*
%TO.C,R34*%
X53610000Y2500000D03*
X55390000Y2500000D03*
%TD*%
D14*
%TO.C,R33*%
X12250000Y11750000D03*
X12250000Y9970000D03*
%TD*%
%TO.C,R32*%
X35250000Y33190000D03*
X35250000Y31410000D03*
%TD*%
%TO.C,R31*%
X38750000Y31360000D03*
X38750000Y33140000D03*
%TD*%
D13*
%TO.C,R29*%
X85140000Y16250000D03*
X83360000Y16250000D03*
%TD*%
%TO.C,R28*%
G36*
G01*
X65425000Y4700001D02*
X65425000Y1799999D01*
G75*
G02*
X65175001Y1550000I-249999J0D01*
G01*
X64374999Y1550000D01*
G75*
G02*
X64125000Y1799999I0J249999D01*
G01*
X64125000Y4700001D01*
G75*
G02*
X64374999Y4950000I249999J0D01*
G01*
X65175001Y4950000D01*
G75*
G02*
X65425000Y4700001I0J-249999D01*
G01*
G37*
G36*
G01*
X69875000Y4700001D02*
X69875000Y1799999D01*
G75*
G02*
X69625001Y1550000I-249999J0D01*
G01*
X68824999Y1550000D01*
G75*
G02*
X68575000Y1799999I0J249999D01*
G01*
X68575000Y4700001D01*
G75*
G02*
X68824999Y4950000I249999J0D01*
G01*
X69625001Y4950000D01*
G75*
G02*
X69875000Y4700001I0J-249999D01*
G01*
G37*
%TD*%
%TO.C,R27*%
X17640000Y8000000D03*
X15860000Y8000000D03*
%TD*%
%TO.C,R26*%
X30610000Y8000000D03*
X32390000Y8000000D03*
%TD*%
D14*
%TO.C,R24*%
X18750000Y22040000D03*
X18750000Y20260000D03*
%TD*%
D13*
%TO.C,R23*%
X49360000Y8000000D03*
X51140000Y8000000D03*
%TD*%
D14*
%TO.C,R22*%
X41500000Y35890000D03*
X41500000Y34110000D03*
%TD*%
%TO.C,R21*%
X33700000Y37640000D03*
X33700000Y35860000D03*
%TD*%
%TO.C,R20*%
X36350000Y37640000D03*
X36350000Y35860000D03*
%TD*%
D13*
%TO.C,R19*%
X7200000Y47900000D03*
X5420000Y47900000D03*
%TD*%
%TO.C,R18*%
X11890000Y47900000D03*
X10110000Y47900000D03*
%TD*%
%TO.C,R17*%
X43140000Y38500000D03*
X41360000Y38500000D03*
%TD*%
%TO.C,R14*%
X28610000Y41000000D03*
X30390000Y41000000D03*
%TD*%
D14*
%TO.C,R13*%
X80330000Y66110000D03*
X80330000Y67890000D03*
%TD*%
%TO.C,R12*%
X76750000Y70140000D03*
X76750000Y68360000D03*
%TD*%
D13*
%TO.C,R11*%
X56780000Y60250000D03*
X55000000Y60250000D03*
%TD*%
D14*
%TO.C,R10*%
X2500000Y57140000D03*
X2500000Y55360000D03*
%TD*%
D13*
%TO.C,R9*%
X53110000Y68000000D03*
X54890000Y68000000D03*
%TD*%
D14*
%TO.C,R8*%
X50500000Y58110000D03*
X50500000Y59890000D03*
%TD*%
%TO.C,R7*%
X50250000Y70860000D03*
X50250000Y72640000D03*
%TD*%
%TO.C,R6*%
X46650000Y31440000D03*
X46650000Y29660000D03*
%TD*%
%TO.C,R5*%
X84750000Y32360000D03*
X84750000Y34140000D03*
%TD*%
%TO.C,R4*%
X42850000Y31390000D03*
X42850000Y29610000D03*
%TD*%
%TO.C,R2*%
X4250000Y17610000D03*
X4250000Y19390000D03*
%TD*%
D13*
%TO.C,R1*%
X71110000Y46000000D03*
X72890000Y46000000D03*
%TD*%
%TO.C,L1*%
X42140000Y44250000D03*
X40360000Y44250000D03*
%TD*%
D15*
%TO.C,F1*%
X84400000Y67890000D03*
X84400000Y64910000D03*
%TD*%
D19*
%TO.C,D9*%
X65100000Y50000000D03*
X60900000Y50000000D03*
%TD*%
%TO.C,D8*%
X17350000Y61000000D03*
X13150000Y61000000D03*
%TD*%
%TO.C,D7*%
X25250000Y61000000D03*
X21050000Y61000000D03*
%TD*%
%TO.C,D6*%
X81250000Y29600000D03*
X81250000Y25400000D03*
%TD*%
%TO.C,D5*%
X85000000Y29600000D03*
X85000000Y25400000D03*
%TD*%
%TO.C,D2*%
X89000000Y64100000D03*
X89000000Y68300000D03*
%TD*%
%TO.C,D1*%
X93000000Y61700000D03*
X93000000Y65900000D03*
%TD*%
D42*
%TO.C,C37*%
X61500000Y39975000D03*
X61500000Y37025000D03*
%TD*%
D14*
%TO.C,C36*%
X67750000Y51140000D03*
X67750000Y49360000D03*
%TD*%
%TO.C,C35*%
X70250000Y56390000D03*
X70250000Y54610000D03*
%TD*%
D13*
%TO.C,C33*%
X57610000Y54250000D03*
X59390000Y54250000D03*
%TD*%
D42*
%TO.C,C32*%
X75000000Y49299999D03*
X75000000Y52249999D03*
%TD*%
%TO.C,C31*%
X71000000Y49275000D03*
X71000000Y52225000D03*
%TD*%
D14*
%TO.C,C30*%
X19500000Y56110000D03*
X19500000Y57890000D03*
%TD*%
D13*
%TO.C,C28*%
X91470000Y28000000D03*
X93250000Y28000000D03*
%TD*%
%TO.C,C27*%
X83360000Y22000000D03*
X85140000Y22000000D03*
%TD*%
D14*
%TO.C,C26*%
X77750000Y27750000D03*
X77750000Y25970000D03*
%TD*%
%TO.C,C25*%
X77750000Y33890000D03*
X77750000Y32110000D03*
%TD*%
%TO.C,C22*%
X28250000Y37640000D03*
X28250000Y35860000D03*
%TD*%
D13*
%TO.C,C21*%
X40360000Y47000000D03*
X42140000Y47000000D03*
%TD*%
D14*
%TO.C,C19*%
X31050000Y37640000D03*
X31050000Y35860000D03*
%TD*%
D13*
%TO.C,C18*%
X30390000Y44250000D03*
X28610000Y44250000D03*
%TD*%
D14*
%TO.C,C17*%
X55200000Y8600000D03*
X55200000Y10380000D03*
%TD*%
%TO.C,C16*%
X74100000Y19610000D03*
X74100000Y21390000D03*
%TD*%
D13*
%TO.C,C15*%
X30040000Y20650000D03*
X28260000Y20650000D03*
%TD*%
D14*
%TO.C,C14*%
X12250000Y17280000D03*
X12250000Y15500000D03*
%TD*%
%TO.C,C13*%
X37500000Y25110000D03*
X37500000Y26890000D03*
%TD*%
D13*
%TO.C,C12*%
X52000000Y27250000D03*
X53780000Y27250000D03*
%TD*%
%TO.C,C11*%
X40360000Y41250000D03*
X42140000Y41250000D03*
%TD*%
%TO.C,C9*%
X58640000Y26250000D03*
X56860000Y26250000D03*
%TD*%
D14*
%TO.C,C8*%
X65750000Y31610000D03*
X65750000Y33390000D03*
%TD*%
%TO.C,C7*%
X4250000Y21860000D03*
X4250000Y23640000D03*
%TD*%
D43*
%TO.C,C6*%
X59510000Y60250000D03*
X62490000Y60250000D03*
%TD*%
D13*
%TO.C,C3*%
X75360000Y46000000D03*
X77140000Y46000000D03*
%TD*%
D43*
%TO.C,C1*%
X60260000Y45750000D03*
X63240000Y45750000D03*
%TD*%
M02*
