M48
; DRILL file {KiCad (5.1.10)-1} date 06/11/22 01:01:33
; FORMAT={-:-/ absolute / metric / decimal}
; #@! TF.CreationDate,2022-06-11T01:01:33+08:00
; #@! TF.GenerationSoftware,Kicad,Pcbnew,(5.1.10)-1
; #@! TF.FileFunction,Plated,1,4,PTH
FMAT,2
METRIC
T1C0.300
T2C0.400
T3C0.800
T4C0.890
T5C0.900
T6C1.000
T7C1.020
T8C1.200
T9C1.400
T10C1.630
T11C3.500
%
G90
G05
T1
X0.9Y53.8
X0.9Y53.1
X1.1Y7.9
X1.63Y62.896
X1.63Y57.081
X1.8Y7.6
X2.0Y46.0
X2.0Y45.35
X2.0Y25.75
X2.0Y25.1
X2.2Y10.5
X2.2Y9.9
X2.2Y9.3
X2.75Y11.5
X3.0Y22.0
X3.25Y40.5
X3.5Y46.0
X4.0Y54.1
X4.0Y53.5
X4.301Y46.056
X4.6Y53.5
X4.931Y45.525
X5.25Y24.0
X5.25Y23.25
X5.511Y53.918
X5.805Y41.905
X6.0Y25.2
X6.1Y62.8
X6.25Y8.5
X6.7Y14.9
X6.75Y67.35
X7.4Y36.6
X7.4Y32.4
X7.496Y53.917
X7.5Y52.25
X8.083Y53.917
X9.0Y66.7
X9.0Y66.1
X9.003Y45.747
X9.313Y11.2
X9.4Y2.4
X9.5Y34.5
X10.157Y3.657
X10.3Y2.6
X11.1Y20.7
X11.13Y20.1
X11.13Y19.5
X11.25Y10.0
X11.6Y36.6
X11.6Y32.4
X11.8Y57.5
X11.8Y55.0
X11.8Y14.7
X12.6Y14.7
X13.4Y2.8
X13.75Y36.75
X14.03Y8.504
X14.03Y5.934
X14.274Y38.933
X14.3Y22.2
X14.695Y41.505
X14.813Y35.373
X15.162Y31.3
X15.965Y29.73
X16.35Y62.95
X16.6Y42.2
X16.6Y20.2
X16.63Y40.6
X16.837Y30.502
X17.2Y25.505
X17.5Y62.95
X17.8Y19.802
X17.867Y29.708
X18.1Y49.8
X18.25Y45.439
X18.5Y57.9
X18.57Y53.0
X18.7Y62.95
X18.9Y48.7
X19.1Y42.2
X19.15Y61.95
X19.15Y61.1
X19.15Y60.25
X19.4Y27.0
X19.5Y55.25
X19.564Y29.2
X20.095Y53.995
X20.095Y49.805
X20.1Y21.903
X20.6Y42.2
X20.779Y21.328
X20.965Y25.954
X21.25Y54.7
X21.269Y29.818
X21.3Y48.7
X22.05Y33.1
X22.25Y58.656
X22.65Y27.75
X23.081Y20.07
X23.488Y56.1
X23.592Y23.127
X23.934Y54.856
X23.986Y54.018
X24.0Y15.6
X24.1Y24.0
X24.305Y44.251
X24.75Y24.5
X25.6Y53.6
X25.6Y40.0
X25.6Y33.6
X25.916Y42.135
X26.1Y47.1
X26.6Y19.4
X26.621Y41.72
X27.2Y70.1
X27.25Y46.0
X27.25Y44.75
X27.3Y20.7
X27.75Y23.13
X27.836Y40.505
X27.87Y44.239
X28.3Y34.75
X28.5Y63.1
X28.8Y19.4
X29.863Y34.23
X30.0Y59.1
X30.05Y53.0
X30.5Y9.75
X30.8Y34.75
X30.9Y20.65
X31.206Y47.868
X31.25Y44.75
X31.619Y42.064
X31.702Y42.886
X31.715Y44.096
X32.4Y26.9
X32.8Y46.5
X33.0Y34.75
X33.1Y26.9
X33.7Y53.2
X33.7Y52.6
X34.0Y27.75
X34.0Y22.701
X34.1Y46.5
X34.6Y44.4
X34.6Y43.5
X34.6Y42.6
X34.6Y21.9
X35.112Y37.75
X35.25Y30.5
X35.5Y44.4
X35.5Y43.482
X35.5Y42.6
X35.881Y39.876
X36.239Y34.837
X36.4Y44.4
X36.4Y43.5
X36.4Y42.6
X36.4Y20.3
X36.5Y22.1
X36.724Y39.976
X37.249Y39.368
X37.5Y27.75
X37.5Y24.25
X37.588Y37.873
X37.7Y7.2
X38.09Y40.114
X38.4Y44.8
X38.57Y7.83
X38.7Y46.5
X38.7Y45.7
X38.75Y41.25
X38.75Y34.25
X38.75Y30.5
X38.969Y44.089
X39.0Y38.5
X39.398Y43.178
X39.5Y45.25
X39.739Y44.317
X40.0Y35.8
X40.0Y33.6
X40.201Y43.162
X40.25Y46.0
X40.4Y10.8
X41.5Y19.25
X41.55Y31.45
X42.75Y39.5
X42.75Y18.63
X43.0Y47.0
X43.0Y44.25
X43.0Y41.2
X43.2Y51.4
X43.5Y15.0
X43.783Y18.217
X44.0Y28.5
X44.07Y13.75
X44.4Y12.7
X45.25Y28.5
X45.25Y9.5
X46.449Y32.999
X47.85Y4.25
X48.0Y28.25
X48.4Y2.5
X48.5Y73.75
X48.5Y73.0
X48.5Y72.25
X49.25Y20.5
X49.25Y19.9
X49.3Y58.1
X49.3Y4.2
X49.5Y55.6
X49.5Y54.6
X49.5Y31.5
X50.0Y55.1
X50.6Y55.6
X50.6Y54.6
X50.7Y61.5
X50.75Y31.5
X50.75Y28.75
X50.75Y62.5
X51.175Y28.075
X51.2Y55.1
X51.5Y72.0
X51.5Y62.5
X51.5Y61.5
X51.8Y55.6
X51.8Y54.6
X51.828Y69.433
X52.0Y31.5
X52.05Y8.0
X52.05Y4.65
X52.1Y1.9
X52.5Y5.1
X52.7Y2.0
X52.75Y69.75
X53.0Y10.2
X53.2Y63.8
X53.25Y66.25
X53.6Y56.279
X53.6Y28.2
X54.2Y28.2
X54.5Y32.1
X54.5Y31.5
X55.2Y11.35
X55.2Y7.6
X55.3Y26.85
X55.3Y26.25
X55.3Y25.65
X55.95Y26.85
X55.95Y26.25
X55.95Y25.65
X56.0Y64.4
X56.003Y65.8
X56.003Y65.08
X57.0Y23.5
X57.25Y55.75
X57.7Y61.0
X58.6Y22.1
X59.0Y61.5
X59.5Y26.25
X59.5Y12.0
X59.5Y8.25
X59.6Y47.0
X59.7Y43.9
X59.75Y63.75
X60.25Y26.25
X60.3Y47.0
X60.4Y40.9
X60.5Y43.9
X60.75Y57.5
X60.75Y4.25
X61.0Y65.0
X61.0Y63.75
X61.0Y62.5
X61.0Y61.25
X61.0Y60.0
X61.0Y47.0
X61.3Y43.9
X61.5Y40.9
X62.0Y4.25
X62.25Y59.25
X62.5Y66.25
X62.55Y58.75
X62.7Y40.9
X62.75Y10.5
X63.25Y49.75
X64.4Y55.3
X64.4Y53.7
X64.4Y52.1
X64.6Y28.75
X65.0Y68.5
X65.0Y12.0
X65.1Y45.8
X65.25Y28.75
X65.6Y55.3
X65.6Y53.7
X65.6Y52.1
X65.75Y68.5
X65.75Y30.75
X65.75Y30.1
X65.8Y34.5
X66.5Y68.5
X66.603Y49.75
X67.25Y24.0
X68.5Y66.05
X68.5Y64.85
X68.5Y63.65
X68.5Y62.45
X68.5Y61.25
X68.5Y57.6
X68.5Y55.2
X69.0Y29.6
X69.0Y29.0
X69.1Y24.9
X69.6Y66.05
X69.6Y64.85
X69.6Y63.65
X69.6Y62.45
X69.6Y61.25
X69.8Y14.45
X69.9Y19.55
X69.95Y22.1
X70.2Y2.3
X70.55Y22.1
X70.7Y67.25
X70.7Y66.05
X70.7Y64.85
X70.7Y63.65
X70.7Y62.45
X70.7Y61.25
X71.6Y1.4
X71.8Y67.25
X71.8Y66.05
X71.8Y64.85
X71.8Y63.65
X71.8Y62.45
X71.8Y61.25
X72.294Y9.008
X72.6Y12.1
X72.6Y11.4
X72.9Y67.25
X72.9Y66.05
X72.9Y64.85
X72.9Y63.65
X72.9Y62.45
X72.9Y61.25
X72.95Y19.6
X74.0Y67.25
X74.0Y66.05
X74.0Y64.85
X74.0Y63.65
X74.0Y62.45
X74.0Y61.25
X76.2Y65.9
X76.25Y31.75
X76.25Y31.15
X76.8Y71.2
X76.8Y65.9
X77.4Y65.9
X77.7Y18.0
X77.75Y31.2
X77.75Y25.1
X79.0Y33.75
X79.235Y20.069
X80.5Y23.2
X80.5Y22.6
X80.65Y24.15
X81.2Y16.15
X81.25Y24.15
X81.8Y16.15
X81.9Y24.15
X83.35Y23.1
X83.75Y32.731
X84.35Y24.15
X85.0Y24.15
X85.5Y13.9
X85.5Y13.3
X85.65Y24.15
X85.85Y36.9
X86.0Y19.0
X86.45Y36.9
X87.2Y6.9
X88.5Y31.65
X89.1Y31.65
X90.8Y1.4
X90.9Y34.1
X90.9Y33.5
X91.45Y29.05
X91.55Y22.35
X91.6Y23.45
X92.0Y40.2
X92.25Y22.35
X92.75Y40.2
X92.95Y22.35
X93.0Y45.3
X93.2Y26.8
X93.55Y40.2
T2
X1.943Y72.188
X1.943Y69.812
X1.943Y5.188
X1.943Y2.812
X4.0Y73.375
X4.0Y68.625
X4.0Y6.375
X4.0Y1.625
X6.057Y72.188
X6.057Y69.812
X6.057Y5.188
X6.057Y2.812
X93.943Y72.188
X93.943Y69.812
X93.943Y5.188
X93.943Y2.812
X96.0Y73.375
X96.0Y68.625
X96.0Y6.375
X96.0Y1.625
X98.057Y72.188
X98.057Y69.812
X98.057Y5.188
X98.057Y2.812
T3
X66.75Y43.0
X69.29Y43.0
X71.83Y43.0
X74.37Y43.0
X76.91Y43.0
X79.45Y43.0
X88.0Y43.1
X88.0Y40.6
T4
X35.06Y55.86
X36.33Y58.4
X37.6Y55.86
X38.87Y58.4
X40.14Y55.86
X41.41Y58.4
X42.68Y55.86
X43.95Y58.4
T5
X2.5Y52.54
X2.5Y50.0
X2.5Y47.46
X15.5Y16.5
X15.5Y11.5
X17.5Y16.5
X17.5Y11.5
X19.5Y16.5
X19.5Y11.5
X31.0Y16.5
X31.0Y11.5
X33.0Y16.5
X33.0Y11.5
X35.0Y16.5
X35.0Y11.5
X46.5Y16.5
X46.5Y11.5
X48.5Y16.5
X48.5Y11.5
X50.5Y16.5
X50.5Y11.5
X88.5Y29.75
X88.5Y27.21
X88.5Y24.67
X88.5Y21.58
X88.5Y19.04
X88.5Y16.5
T6
X5.98Y51.0
X8.52Y51.0
X11.06Y51.0
X13.6Y51.0
X23.5Y39.31
X23.5Y36.77
X23.5Y34.23
X23.5Y31.69
X24.0Y7.29
X24.0Y4.75
X28.8Y4.7
X31.34Y4.7
X33.88Y4.7
X36.42Y4.7
X41.0Y7.25
X41.0Y4.71
X85.0Y54.7
X86.768Y52.932
T7
X32.875Y69.65
X35.415Y69.65
X43.585Y69.65
X46.125Y69.65
T8
X83.25Y56.5
X88.553Y51.197
T9
X12.25Y65.5
X17.33Y65.5
X22.41Y65.5
X82.67Y72.5
X87.75Y72.5
X97.5Y61.16
X97.5Y56.08
X97.5Y51.0
X97.5Y42.66
X97.5Y37.58
X97.5Y32.5
X97.5Y24.08
X97.5Y19.0
X97.5Y13.92
T10
X31.755Y61.7
X47.245Y61.7
T11
X4.0Y71.0
X4.0Y4.0
X96.0Y71.0
X96.0Y4.0
T0
M30
