%TF.GenerationSoftware,KiCad,Pcbnew,(5.1.10)-1*%
%TF.CreationDate,2022-03-13T22:52:12+08:00*%
%TF.ProjectId,interface,696e7465-7266-4616-9365-2e6b69636164,rev?*%
%TF.SameCoordinates,Original*%
%TF.FileFunction,Paste,Top*%
%TF.FilePolarity,Positive*%
%FSLAX46Y46*%
G04 Gerber Fmt 4.6, Leading zero omitted, Abs format (unit mm)*
G04 Created by KiCad (PCBNEW (5.1.10)-1) date 2022-03-13 22:52:12*
%MOMM*%
%LPD*%
G01*
G04 APERTURE LIST*
%ADD10R,0.600000X1.550000*%
%ADD11R,1.200000X1.200000*%
%ADD12R,2.500000X2.300000*%
%ADD13R,1.550000X0.600000*%
%ADD14R,2.600000X1.100000*%
%ADD15R,0.600000X1.500000*%
%ADD16R,3.800000X2.000000*%
%ADD17R,1.500000X2.000000*%
G04 APERTURE END LIST*
D10*
%TO.C,U14*%
X12849560Y17582200D03*
X14119560Y17582200D03*
X15389560Y17582200D03*
X16659560Y17582200D03*
X16659560Y22982200D03*
X15389560Y22982200D03*
X14119560Y22982200D03*
X12849560Y22982200D03*
%TD*%
D11*
%TO.C,R33*%
X73842680Y6164880D03*
X73842680Y8264880D03*
%TD*%
%TO.C,R46*%
X73842680Y2159880D03*
X73842680Y4259880D03*
%TD*%
%TO.C,F3*%
X93332680Y10482880D03*
X95432680Y10482880D03*
%TD*%
%TO.C,F2*%
X78668680Y9271880D03*
X78668680Y11371880D03*
%TD*%
%TO.C,R45*%
X46211000Y24778000D03*
X44111000Y24778000D03*
%TD*%
D12*
%TO.C,D9*%
X91368680Y14038880D03*
X95668680Y14038880D03*
%TD*%
D11*
%TO.C,C20*%
X73698480Y15004080D03*
X75798480Y15004080D03*
%TD*%
D13*
%TO.C,U19*%
X78666160Y17864120D03*
X78666160Y16594120D03*
X78666160Y15324120D03*
X78666160Y14054120D03*
X84066160Y14054120D03*
X84066160Y15324120D03*
X84066160Y16594120D03*
X84066160Y17864120D03*
%TD*%
D12*
%TO.C,D8*%
X81462680Y10609880D03*
X85762680Y10609880D03*
%TD*%
%TO.C,D2*%
X26722000Y84722000D03*
X31022000Y84722000D03*
%TD*%
D13*
%TO.C,U17*%
X28369080Y11788440D03*
X28369080Y10518440D03*
X28369080Y9248440D03*
X28369080Y7978440D03*
X33769080Y7978440D03*
X33769080Y9248440D03*
X33769080Y10518440D03*
X33769080Y11788440D03*
%TD*%
%TO.C,U13*%
X47668000Y22619000D03*
X47668000Y21349000D03*
X47668000Y20079000D03*
X47668000Y18809000D03*
X53068000Y18809000D03*
X53068000Y20079000D03*
X53068000Y21349000D03*
X53068000Y22619000D03*
%TD*%
D14*
%TO.C,U12*%
X25485160Y20734560D03*
X41235160Y20734560D03*
X25485160Y22734560D03*
X41235160Y22734560D03*
X25485160Y24734560D03*
X41235160Y24734560D03*
X25485160Y26734560D03*
X41235160Y26734560D03*
X25485160Y28734560D03*
X41235160Y28734560D03*
X25485160Y30734560D03*
X41235160Y30734560D03*
X25485160Y32734560D03*
X41235160Y32734560D03*
X25485160Y34734560D03*
X41235160Y34734560D03*
%TD*%
D15*
%TO.C,U11*%
X54895000Y33450000D03*
X53625000Y33450000D03*
X52355000Y33450000D03*
X51085000Y33450000D03*
X49815000Y33450000D03*
X48545000Y33450000D03*
X47275000Y33450000D03*
X46005000Y33450000D03*
X46005000Y28050000D03*
X47275000Y28050000D03*
X48545000Y28050000D03*
X49815000Y28050000D03*
X51085000Y28050000D03*
X52355000Y28050000D03*
X53625000Y28050000D03*
X54895000Y28050000D03*
%TD*%
D16*
%TO.C,U5*%
X13538000Y41694000D03*
D17*
X13538000Y47994000D03*
X11238000Y47994000D03*
X15838000Y47994000D03*
%TD*%
D15*
%TO.C,U4*%
X48341080Y60178000D03*
X49611080Y60178000D03*
X50881080Y60178000D03*
X52151080Y60178000D03*
X53421080Y60178000D03*
X54691080Y60178000D03*
X55961080Y60178000D03*
X57231080Y60178000D03*
X57231080Y65578000D03*
X55961080Y65578000D03*
X54691080Y65578000D03*
X53421080Y65578000D03*
X52151080Y65578000D03*
X50881080Y65578000D03*
X49611080Y65578000D03*
X48341080Y65578000D03*
%TD*%
D11*
%TO.C,R44*%
X73673800Y12962400D03*
X75773800Y12962400D03*
%TD*%
%TO.C,R43*%
X58909040Y14343680D03*
X61009040Y14343680D03*
%TD*%
%TO.C,R42*%
X91072480Y17734580D03*
X88972480Y17734580D03*
%TD*%
%TO.C,R41*%
X75231480Y18179080D03*
X73131480Y18179080D03*
%TD*%
%TO.C,R40*%
X86847480Y17607580D03*
X86847480Y19707580D03*
%TD*%
%TO.C,R39*%
X77381480Y30752080D03*
X79481480Y30752080D03*
%TD*%
%TO.C,R38*%
X35031480Y3499840D03*
X35031480Y1399840D03*
%TD*%
%TO.C,R37*%
X31201160Y5230160D03*
X33301160Y5230160D03*
%TD*%
%TO.C,R36*%
X26121160Y5080880D03*
X26121160Y7180880D03*
%TD*%
%TO.C,R35*%
X88942980Y19830080D03*
X91042980Y19830080D03*
%TD*%
%TO.C,R34*%
X26121160Y11684880D03*
X26121160Y13784880D03*
%TD*%
%TO.C,R32*%
X58909040Y5794040D03*
X61009040Y5794040D03*
%TD*%
%TO.C,R31*%
X9987080Y24833880D03*
X9987080Y26933880D03*
%TD*%
%TO.C,R29*%
X10617000Y19503000D03*
X10617000Y21603000D03*
%TD*%
%TO.C,R26*%
X44104360Y20526040D03*
X44104360Y22626040D03*
%TD*%
%TO.C,R25*%
X55410480Y17406920D03*
X57510480Y17406920D03*
%TD*%
%TO.C,R24*%
X55380000Y19530360D03*
X57480000Y19530360D03*
%TD*%
%TO.C,R23*%
X57183906Y53036480D03*
X57183906Y50936480D03*
%TD*%
%TO.C,R22*%
X54619960Y37914880D03*
X56719960Y37914880D03*
%TD*%
%TO.C,R21*%
X59263080Y50936480D03*
X59263080Y53036480D03*
%TD*%
%TO.C,R20*%
X53025564Y53036480D03*
X53025564Y50936480D03*
%TD*%
%TO.C,R19*%
X31233160Y38769880D03*
X31233160Y40869880D03*
%TD*%
%TO.C,R18*%
X29106680Y38769880D03*
X29106680Y40869880D03*
%TD*%
%TO.C,R17*%
X50376200Y37914880D03*
X52476200Y37914880D03*
%TD*%
%TO.C,R16*%
X20419440Y30721600D03*
X22519440Y30721600D03*
%TD*%
%TO.C,R15*%
X55104735Y50936480D03*
X55104735Y53036480D03*
%TD*%
%TO.C,R14*%
X35326120Y38769880D03*
X35326120Y40869880D03*
%TD*%
%TO.C,R13*%
X25013720Y38769880D03*
X25013720Y40869880D03*
%TD*%
%TO.C,R12*%
X50946393Y53036480D03*
X50946393Y50936480D03*
%TD*%
%TO.C,R11*%
X47624800Y37914880D03*
X45524800Y37914880D03*
%TD*%
%TO.C,R10*%
X62209480Y22126240D03*
X64309480Y22126240D03*
%TD*%
%TO.C,R9*%
X48867222Y50936480D03*
X48867222Y53036480D03*
%TD*%
%TO.C,R8*%
X58834400Y31798560D03*
X60934400Y31798560D03*
%TD*%
%TO.C,R7*%
X46788051Y53036480D03*
X46788051Y50936480D03*
%TD*%
%TO.C,R6*%
X41710120Y37914880D03*
X39610120Y37914880D03*
%TD*%
%TO.C,R5*%
X53100000Y10300000D03*
X51000000Y10300000D03*
%TD*%
%TO.C,R4*%
X44708880Y50936480D03*
X44708880Y53036480D03*
%TD*%
%TO.C,R3*%
X38277600Y9625920D03*
X38277600Y11725920D03*
%TD*%
%TO.C,D7*%
X28229360Y13723920D03*
X30429360Y13723920D03*
%TD*%
%TO.C,D6*%
X33279640Y40869880D03*
X33279640Y38669880D03*
%TD*%
%TO.C,D5*%
X27060200Y40869880D03*
X27060200Y38669880D03*
%TD*%
%TO.C,D4*%
X68346480Y22151640D03*
X66146480Y22151640D03*
%TD*%
%TO.C,D3*%
X65029240Y31742680D03*
X62829240Y31742680D03*
%TD*%
%TO.C,C19*%
X73131480Y30879080D03*
X71031480Y30879080D03*
%TD*%
%TO.C,C18*%
X84322720Y19728480D03*
X82222720Y19728480D03*
%TD*%
%TO.C,C17*%
X36093200Y11719280D03*
X36093200Y9619280D03*
%TD*%
%TO.C,C16*%
X12904560Y25677160D03*
X15004560Y25677160D03*
%TD*%
%TO.C,C15*%
X58391280Y22928880D03*
X56291280Y22928880D03*
%TD*%
%TO.C,C14*%
X22692160Y20383800D03*
X22692160Y18283800D03*
%TD*%
%TO.C,C13*%
X58907480Y27831080D03*
X56807480Y27831080D03*
%TD*%
%TO.C,C10*%
X87814240Y38961360D03*
X89914240Y38961360D03*
%TD*%
%TO.C,C8*%
X65103520Y39840200D03*
X63003520Y39840200D03*
%TD*%
%TO.C,C7*%
X22428000Y63068500D03*
X22428000Y65168500D03*
%TD*%
%TO.C,C6*%
X22686500Y72149000D03*
X20586500Y72149000D03*
%TD*%
%TO.C,C3*%
X8458000Y48434000D03*
X8458000Y46334000D03*
%TD*%
%TO.C,C1*%
X23376000Y54496000D03*
X25476000Y54496000D03*
%TD*%
M02*
