%TF.GenerationSoftware,KiCad,Pcbnew,(5.1.10)-1*%
%TF.CreationDate,2022-03-13T22:52:12+08:00*%
%TF.ProjectId,interface,696e7465-7266-4616-9365-2e6b69636164,rev?*%
%TF.SameCoordinates,Original*%
%TF.FileFunction,Soldermask,Top*%
%TF.FilePolarity,Negative*%
%FSLAX46Y46*%
G04 Gerber Fmt 4.6, Leading zero omitted, Abs format (unit mm)*
G04 Created by KiCad (PCBNEW (5.1.10)-1) date 2022-03-13 22:52:12*
%MOMM*%
%LPD*%
G01*
G04 APERTURE LIST*
%ADD10C,0.100000*%
%ADD11C,2.102000*%
%ADD12C,2.902000*%
%ADD13O,1.702000X1.702000*%
%ADD14C,2.602000*%
%ADD15C,1.702000*%
%ADD16O,1.902000X1.902000*%
%ADD17C,2.502000*%
%ADD18O,2.502000X2.502000*%
%ADD19C,1.902000*%
%ADD20O,4.102000X2.602000*%
%ADD21O,2.302000X2.302000*%
G04 APERTURE END LIST*
D10*
G36*
X19390160Y43688880D02*
G01*
X21422160Y43688880D01*
X21422160Y44577880D01*
X22311160Y44577880D01*
X22311160Y37973880D01*
X10500160Y37973880D01*
X9230160Y39243880D01*
X9230160Y44577880D01*
X19390160Y44577880D01*
X19390160Y43688880D01*
G37*
X19390160Y43688880D02*
X21422160Y43688880D01*
X21422160Y44577880D01*
X22311160Y44577880D01*
X22311160Y37973880D01*
X10500160Y37973880D01*
X9230160Y39243880D01*
X9230160Y44577880D01*
X19390160Y44577880D01*
X19390160Y43688880D01*
G36*
X19390160Y43688880D02*
G01*
X21422160Y43688880D01*
X21422160Y44577880D01*
X22311160Y44577880D01*
X22311160Y37973880D01*
X10500160Y37973880D01*
X9230160Y39243880D01*
X9230160Y44577880D01*
X19390160Y44577880D01*
X19390160Y43688880D01*
G37*
X19390160Y43688880D02*
X21422160Y43688880D01*
X21422160Y44577880D01*
X22311160Y44577880D01*
X22311160Y37973880D01*
X10500160Y37973880D01*
X9230160Y39243880D01*
X9230160Y44577880D01*
X19390160Y44577880D01*
X19390160Y43688880D01*
D11*
%TO.C,U1*%
X9474000Y54496000D03*
X14554000Y54496000D03*
X6934000Y54496000D03*
X12014000Y54496000D03*
X17094000Y54496000D03*
X19634000Y54496000D03*
%TD*%
%TO.C,U3*%
X78998880Y39205200D03*
X73918880Y39205200D03*
X81538880Y39205200D03*
X76458880Y39205200D03*
X71378880Y39205200D03*
X68838880Y39205200D03*
%TD*%
D12*
%TO.C,Ref\u002A\u002A*%
X31362542Y53974194D03*
X31362542Y76974194D03*
%TD*%
%TO.C,U14*%
G36*
G01*
X13149560Y16756200D02*
X12549560Y16756200D01*
G75*
G02*
X12498560Y16807200I0J51000D01*
G01*
X12498560Y18357200D01*
G75*
G02*
X12549560Y18408200I51000J0D01*
G01*
X13149560Y18408200D01*
G75*
G02*
X13200560Y18357200I0J-51000D01*
G01*
X13200560Y16807200D01*
G75*
G02*
X13149560Y16756200I-51000J0D01*
G01*
G37*
G36*
G01*
X14419560Y16756200D02*
X13819560Y16756200D01*
G75*
G02*
X13768560Y16807200I0J51000D01*
G01*
X13768560Y18357200D01*
G75*
G02*
X13819560Y18408200I51000J0D01*
G01*
X14419560Y18408200D01*
G75*
G02*
X14470560Y18357200I0J-51000D01*
G01*
X14470560Y16807200D01*
G75*
G02*
X14419560Y16756200I-51000J0D01*
G01*
G37*
G36*
G01*
X15689560Y16756200D02*
X15089560Y16756200D01*
G75*
G02*
X15038560Y16807200I0J51000D01*
G01*
X15038560Y18357200D01*
G75*
G02*
X15089560Y18408200I51000J0D01*
G01*
X15689560Y18408200D01*
G75*
G02*
X15740560Y18357200I0J-51000D01*
G01*
X15740560Y16807200D01*
G75*
G02*
X15689560Y16756200I-51000J0D01*
G01*
G37*
G36*
G01*
X16959560Y16756200D02*
X16359560Y16756200D01*
G75*
G02*
X16308560Y16807200I0J51000D01*
G01*
X16308560Y18357200D01*
G75*
G02*
X16359560Y18408200I51000J0D01*
G01*
X16959560Y18408200D01*
G75*
G02*
X17010560Y18357200I0J-51000D01*
G01*
X17010560Y16807200D01*
G75*
G02*
X16959560Y16756200I-51000J0D01*
G01*
G37*
G36*
G01*
X16959560Y22156200D02*
X16359560Y22156200D01*
G75*
G02*
X16308560Y22207200I0J51000D01*
G01*
X16308560Y23757200D01*
G75*
G02*
X16359560Y23808200I51000J0D01*
G01*
X16959560Y23808200D01*
G75*
G02*
X17010560Y23757200I0J-51000D01*
G01*
X17010560Y22207200D01*
G75*
G02*
X16959560Y22156200I-51000J0D01*
G01*
G37*
G36*
G01*
X15689560Y22156200D02*
X15089560Y22156200D01*
G75*
G02*
X15038560Y22207200I0J51000D01*
G01*
X15038560Y23757200D01*
G75*
G02*
X15089560Y23808200I51000J0D01*
G01*
X15689560Y23808200D01*
G75*
G02*
X15740560Y23757200I0J-51000D01*
G01*
X15740560Y22207200D01*
G75*
G02*
X15689560Y22156200I-51000J0D01*
G01*
G37*
G36*
G01*
X14419560Y22156200D02*
X13819560Y22156200D01*
G75*
G02*
X13768560Y22207200I0J51000D01*
G01*
X13768560Y23757200D01*
G75*
G02*
X13819560Y23808200I51000J0D01*
G01*
X14419560Y23808200D01*
G75*
G02*
X14470560Y23757200I0J-51000D01*
G01*
X14470560Y22207200D01*
G75*
G02*
X14419560Y22156200I-51000J0D01*
G01*
G37*
G36*
G01*
X13149560Y22156200D02*
X12549560Y22156200D01*
G75*
G02*
X12498560Y22207200I0J51000D01*
G01*
X12498560Y23757200D01*
G75*
G02*
X12549560Y23808200I51000J0D01*
G01*
X13149560Y23808200D01*
G75*
G02*
X13200560Y23757200I0J-51000D01*
G01*
X13200560Y22207200D01*
G75*
G02*
X13149560Y22156200I-51000J0D01*
G01*
G37*
%TD*%
%TO.C,U15*%
G36*
G01*
X11935160Y11138880D02*
X11935160Y12738880D01*
G75*
G02*
X11986160Y12789880I51000J0D01*
G01*
X13586160Y12789880D01*
G75*
G02*
X13637160Y12738880I0J-51000D01*
G01*
X13637160Y11138880D01*
G75*
G02*
X13586160Y11087880I-51000J0D01*
G01*
X11986160Y11087880D01*
G75*
G02*
X11935160Y11138880I0J51000D01*
G01*
G37*
D13*
X22946160Y4318880D03*
X12786160Y9398880D03*
X22946160Y6858880D03*
X12786160Y6858880D03*
X22946160Y9398880D03*
X12786160Y4318880D03*
X22946160Y11938880D03*
%TD*%
%TO.C,R33*%
G36*
G01*
X74442681Y5513880D02*
X73242679Y5513880D01*
G75*
G02*
X73191680Y5564879I0J50999D01*
G01*
X73191680Y6764881D01*
G75*
G02*
X73242679Y6815880I50999J0D01*
G01*
X74442681Y6815880D01*
G75*
G02*
X74493680Y6764881I0J-50999D01*
G01*
X74493680Y5564879D01*
G75*
G02*
X74442681Y5513880I-50999J0D01*
G01*
G37*
G36*
G01*
X74442681Y7613880D02*
X73242679Y7613880D01*
G75*
G02*
X73191680Y7664879I0J50999D01*
G01*
X73191680Y8864881D01*
G75*
G02*
X73242679Y8915880I50999J0D01*
G01*
X74442681Y8915880D01*
G75*
G02*
X74493680Y8864881I0J-50999D01*
G01*
X74493680Y7664879D01*
G75*
G02*
X74442681Y7613880I-50999J0D01*
G01*
G37*
%TD*%
%TO.C,R46*%
G36*
G01*
X74442681Y1508880D02*
X73242679Y1508880D01*
G75*
G02*
X73191680Y1559879I0J50999D01*
G01*
X73191680Y2759881D01*
G75*
G02*
X73242679Y2810880I50999J0D01*
G01*
X74442681Y2810880D01*
G75*
G02*
X74493680Y2759881I0J-50999D01*
G01*
X74493680Y1559879D01*
G75*
G02*
X74442681Y1508880I-50999J0D01*
G01*
G37*
G36*
G01*
X74442681Y3608880D02*
X73242679Y3608880D01*
G75*
G02*
X73191680Y3659879I0J50999D01*
G01*
X73191680Y4859881D01*
G75*
G02*
X73242679Y4910880I50999J0D01*
G01*
X74442681Y4910880D01*
G75*
G02*
X74493680Y4859881I0J-50999D01*
G01*
X74493680Y3659879D01*
G75*
G02*
X74442681Y3608880I-50999J0D01*
G01*
G37*
%TD*%
%TO.C,F3*%
G36*
G01*
X92681680Y9882879D02*
X92681680Y11082881D01*
G75*
G02*
X92732679Y11133880I50999J0D01*
G01*
X93932681Y11133880D01*
G75*
G02*
X93983680Y11082881I0J-50999D01*
G01*
X93983680Y9882879D01*
G75*
G02*
X93932681Y9831880I-50999J0D01*
G01*
X92732679Y9831880D01*
G75*
G02*
X92681680Y9882879I0J50999D01*
G01*
G37*
G36*
G01*
X94781680Y9882879D02*
X94781680Y11082881D01*
G75*
G02*
X94832679Y11133880I50999J0D01*
G01*
X96032681Y11133880D01*
G75*
G02*
X96083680Y11082881I0J-50999D01*
G01*
X96083680Y9882879D01*
G75*
G02*
X96032681Y9831880I-50999J0D01*
G01*
X94832679Y9831880D01*
G75*
G02*
X94781680Y9882879I0J50999D01*
G01*
G37*
%TD*%
%TO.C,F2*%
G36*
G01*
X79268681Y8620880D02*
X78068679Y8620880D01*
G75*
G02*
X78017680Y8671879I0J50999D01*
G01*
X78017680Y9871881D01*
G75*
G02*
X78068679Y9922880I50999J0D01*
G01*
X79268681Y9922880D01*
G75*
G02*
X79319680Y9871881I0J-50999D01*
G01*
X79319680Y8671879D01*
G75*
G02*
X79268681Y8620880I-50999J0D01*
G01*
G37*
G36*
G01*
X79268681Y10720880D02*
X78068679Y10720880D01*
G75*
G02*
X78017680Y10771879I0J50999D01*
G01*
X78017680Y11971881D01*
G75*
G02*
X78068679Y12022880I50999J0D01*
G01*
X79268681Y12022880D01*
G75*
G02*
X79319680Y11971881I0J-50999D01*
G01*
X79319680Y10771879D01*
G75*
G02*
X79268681Y10720880I-50999J0D01*
G01*
G37*
%TD*%
%TO.C,R45*%
G36*
G01*
X46862000Y25378001D02*
X46862000Y24177999D01*
G75*
G02*
X46811001Y24127000I-50999J0D01*
G01*
X45610999Y24127000D01*
G75*
G02*
X45560000Y24177999I0J50999D01*
G01*
X45560000Y25378001D01*
G75*
G02*
X45610999Y25429000I50999J0D01*
G01*
X46811001Y25429000D01*
G75*
G02*
X46862000Y25378001I0J-50999D01*
G01*
G37*
G36*
G01*
X44762000Y25378001D02*
X44762000Y24177999D01*
G75*
G02*
X44711001Y24127000I-50999J0D01*
G01*
X43510999Y24127000D01*
G75*
G02*
X43460000Y24177999I0J50999D01*
G01*
X43460000Y25378001D01*
G75*
G02*
X43510999Y25429000I50999J0D01*
G01*
X44711001Y25429000D01*
G75*
G02*
X44762000Y25378001I0J-50999D01*
G01*
G37*
%TD*%
%TO.C,U9*%
G36*
G01*
X51022372Y39456560D02*
X49422372Y39456560D01*
G75*
G02*
X49371372Y39507560I0J51000D01*
G01*
X49371372Y41107560D01*
G75*
G02*
X49422372Y41158560I51000J0D01*
G01*
X51022372Y41158560D01*
G75*
G02*
X51073372Y41107560I0J-51000D01*
G01*
X51073372Y39507560D01*
G75*
G02*
X51022372Y39456560I-51000J0D01*
G01*
G37*
X52762372Y47927560D03*
X52762372Y40307560D03*
X50222372Y47927560D03*
%TD*%
%TO.C,D9*%
G36*
G01*
X90067680Y12888880D02*
X90067680Y15188880D01*
G75*
G02*
X90118680Y15239880I51000J0D01*
G01*
X92618680Y15239880D01*
G75*
G02*
X92669680Y15188880I0J-51000D01*
G01*
X92669680Y12888880D01*
G75*
G02*
X92618680Y12837880I-51000J0D01*
G01*
X90118680Y12837880D01*
G75*
G02*
X90067680Y12888880I0J51000D01*
G01*
G37*
G36*
G01*
X94367680Y12888880D02*
X94367680Y15188880D01*
G75*
G02*
X94418680Y15239880I51000J0D01*
G01*
X96918680Y15239880D01*
G75*
G02*
X96969680Y15188880I0J-51000D01*
G01*
X96969680Y12888880D01*
G75*
G02*
X96918680Y12837880I-51000J0D01*
G01*
X94418680Y12837880D01*
G75*
G02*
X94367680Y12888880I0J51000D01*
G01*
G37*
%TD*%
%TO.C,C20*%
G36*
G01*
X73047480Y14404079D02*
X73047480Y15604081D01*
G75*
G02*
X73098479Y15655080I50999J0D01*
G01*
X74298481Y15655080D01*
G75*
G02*
X74349480Y15604081I0J-50999D01*
G01*
X74349480Y14404079D01*
G75*
G02*
X74298481Y14353080I-50999J0D01*
G01*
X73098479Y14353080D01*
G75*
G02*
X73047480Y14404079I0J50999D01*
G01*
G37*
G36*
G01*
X75147480Y14404079D02*
X75147480Y15604081D01*
G75*
G02*
X75198479Y15655080I50999J0D01*
G01*
X76398481Y15655080D01*
G75*
G02*
X76449480Y15604081I0J-50999D01*
G01*
X76449480Y14404079D01*
G75*
G02*
X76398481Y14353080I-50999J0D01*
G01*
X75198479Y14353080D01*
G75*
G02*
X75147480Y14404079I0J50999D01*
G01*
G37*
%TD*%
%TO.C,U19*%
G36*
G01*
X77840160Y17564120D02*
X77840160Y18164120D01*
G75*
G02*
X77891160Y18215120I51000J0D01*
G01*
X79441160Y18215120D01*
G75*
G02*
X79492160Y18164120I0J-51000D01*
G01*
X79492160Y17564120D01*
G75*
G02*
X79441160Y17513120I-51000J0D01*
G01*
X77891160Y17513120D01*
G75*
G02*
X77840160Y17564120I0J51000D01*
G01*
G37*
G36*
G01*
X77840160Y16294120D02*
X77840160Y16894120D01*
G75*
G02*
X77891160Y16945120I51000J0D01*
G01*
X79441160Y16945120D01*
G75*
G02*
X79492160Y16894120I0J-51000D01*
G01*
X79492160Y16294120D01*
G75*
G02*
X79441160Y16243120I-51000J0D01*
G01*
X77891160Y16243120D01*
G75*
G02*
X77840160Y16294120I0J51000D01*
G01*
G37*
G36*
G01*
X77840160Y15024120D02*
X77840160Y15624120D01*
G75*
G02*
X77891160Y15675120I51000J0D01*
G01*
X79441160Y15675120D01*
G75*
G02*
X79492160Y15624120I0J-51000D01*
G01*
X79492160Y15024120D01*
G75*
G02*
X79441160Y14973120I-51000J0D01*
G01*
X77891160Y14973120D01*
G75*
G02*
X77840160Y15024120I0J51000D01*
G01*
G37*
G36*
G01*
X77840160Y13754120D02*
X77840160Y14354120D01*
G75*
G02*
X77891160Y14405120I51000J0D01*
G01*
X79441160Y14405120D01*
G75*
G02*
X79492160Y14354120I0J-51000D01*
G01*
X79492160Y13754120D01*
G75*
G02*
X79441160Y13703120I-51000J0D01*
G01*
X77891160Y13703120D01*
G75*
G02*
X77840160Y13754120I0J51000D01*
G01*
G37*
G36*
G01*
X83240160Y13754120D02*
X83240160Y14354120D01*
G75*
G02*
X83291160Y14405120I51000J0D01*
G01*
X84841160Y14405120D01*
G75*
G02*
X84892160Y14354120I0J-51000D01*
G01*
X84892160Y13754120D01*
G75*
G02*
X84841160Y13703120I-51000J0D01*
G01*
X83291160Y13703120D01*
G75*
G02*
X83240160Y13754120I0J51000D01*
G01*
G37*
G36*
G01*
X83240160Y15024120D02*
X83240160Y15624120D01*
G75*
G02*
X83291160Y15675120I51000J0D01*
G01*
X84841160Y15675120D01*
G75*
G02*
X84892160Y15624120I0J-51000D01*
G01*
X84892160Y15024120D01*
G75*
G02*
X84841160Y14973120I-51000J0D01*
G01*
X83291160Y14973120D01*
G75*
G02*
X83240160Y15024120I0J51000D01*
G01*
G37*
G36*
G01*
X83240160Y16294120D02*
X83240160Y16894120D01*
G75*
G02*
X83291160Y16945120I51000J0D01*
G01*
X84841160Y16945120D01*
G75*
G02*
X84892160Y16894120I0J-51000D01*
G01*
X84892160Y16294120D01*
G75*
G02*
X84841160Y16243120I-51000J0D01*
G01*
X83291160Y16243120D01*
G75*
G02*
X83240160Y16294120I0J51000D01*
G01*
G37*
G36*
G01*
X83240160Y17564120D02*
X83240160Y18164120D01*
G75*
G02*
X83291160Y18215120I51000J0D01*
G01*
X84841160Y18215120D01*
G75*
G02*
X84892160Y18164120I0J-51000D01*
G01*
X84892160Y17564120D01*
G75*
G02*
X84841160Y17513120I-51000J0D01*
G01*
X83291160Y17513120D01*
G75*
G02*
X83240160Y17564120I0J51000D01*
G01*
G37*
%TD*%
D14*
%TO.C,K4*%
X88103560Y43760040D03*
X83103560Y43760040D03*
X78103560Y43760040D03*
X88103560Y51260040D03*
X83103560Y51260040D03*
X78103560Y51260040D03*
X63103560Y43760040D03*
X63103560Y51260040D03*
%TD*%
D15*
%TO.C,R30*%
X2519480Y31427720D03*
D13*
X2519480Y41587720D03*
%TD*%
%TO.C,D8*%
G36*
G01*
X80161680Y9459880D02*
X80161680Y11759880D01*
G75*
G02*
X80212680Y11810880I51000J0D01*
G01*
X82712680Y11810880D01*
G75*
G02*
X82763680Y11759880I0J-51000D01*
G01*
X82763680Y9459880D01*
G75*
G02*
X82712680Y9408880I-51000J0D01*
G01*
X80212680Y9408880D01*
G75*
G02*
X80161680Y9459880I0J51000D01*
G01*
G37*
G36*
G01*
X84461680Y9459880D02*
X84461680Y11759880D01*
G75*
G02*
X84512680Y11810880I51000J0D01*
G01*
X87012680Y11810880D01*
G75*
G02*
X87063680Y11759880I0J-51000D01*
G01*
X87063680Y9459880D01*
G75*
G02*
X87012680Y9408880I-51000J0D01*
G01*
X84512680Y9408880D01*
G75*
G02*
X84461680Y9459880I0J51000D01*
G01*
G37*
%TD*%
%TO.C,D2*%
G36*
G01*
X25421000Y83572000D02*
X25421000Y85872000D01*
G75*
G02*
X25472000Y85923000I51000J0D01*
G01*
X27972000Y85923000D01*
G75*
G02*
X28023000Y85872000I0J-51000D01*
G01*
X28023000Y83572000D01*
G75*
G02*
X27972000Y83521000I-51000J0D01*
G01*
X25472000Y83521000D01*
G75*
G02*
X25421000Y83572000I0J51000D01*
G01*
G37*
G36*
G01*
X29721000Y83572000D02*
X29721000Y85872000D01*
G75*
G02*
X29772000Y85923000I51000J0D01*
G01*
X32272000Y85923000D01*
G75*
G02*
X32323000Y85872000I0J-51000D01*
G01*
X32323000Y83572000D01*
G75*
G02*
X32272000Y83521000I-51000J0D01*
G01*
X29772000Y83521000D01*
G75*
G02*
X29721000Y83572000I0J51000D01*
G01*
G37*
%TD*%
%TO.C,U20*%
G36*
G01*
X62465920Y16032880D02*
X62465920Y17632880D01*
G75*
G02*
X62516920Y17683880I51000J0D01*
G01*
X64116920Y17683880D01*
G75*
G02*
X64167920Y17632880I0J-51000D01*
G01*
X64167920Y16032880D01*
G75*
G02*
X64116920Y15981880I-51000J0D01*
G01*
X62516920Y15981880D01*
G75*
G02*
X62465920Y16032880I0J51000D01*
G01*
G37*
X70936920Y9212880D03*
X63316920Y14292880D03*
X70936920Y11752880D03*
X63316920Y11752880D03*
X70936920Y14292880D03*
X63316920Y9212880D03*
X70936920Y16832880D03*
%TD*%
%TO.C,U18*%
G36*
G01*
X72173800Y19898560D02*
X70573800Y19898560D01*
G75*
G02*
X70522800Y19949560I0J51000D01*
G01*
X70522800Y21549560D01*
G75*
G02*
X70573800Y21600560I51000J0D01*
G01*
X72173800Y21600560D01*
G75*
G02*
X72224800Y21549560I0J-51000D01*
G01*
X72224800Y19949560D01*
G75*
G02*
X72173800Y19898560I-51000J0D01*
G01*
G37*
X78993800Y28369560D03*
X73913800Y20749560D03*
X76453800Y28369560D03*
X76453800Y20749560D03*
X73913800Y28369560D03*
X78993800Y20749560D03*
X71373800Y28369560D03*
%TD*%
%TO.C,U17*%
G36*
G01*
X27543080Y11488440D02*
X27543080Y12088440D01*
G75*
G02*
X27594080Y12139440I51000J0D01*
G01*
X29144080Y12139440D01*
G75*
G02*
X29195080Y12088440I0J-51000D01*
G01*
X29195080Y11488440D01*
G75*
G02*
X29144080Y11437440I-51000J0D01*
G01*
X27594080Y11437440D01*
G75*
G02*
X27543080Y11488440I0J51000D01*
G01*
G37*
G36*
G01*
X27543080Y10218440D02*
X27543080Y10818440D01*
G75*
G02*
X27594080Y10869440I51000J0D01*
G01*
X29144080Y10869440D01*
G75*
G02*
X29195080Y10818440I0J-51000D01*
G01*
X29195080Y10218440D01*
G75*
G02*
X29144080Y10167440I-51000J0D01*
G01*
X27594080Y10167440D01*
G75*
G02*
X27543080Y10218440I0J51000D01*
G01*
G37*
G36*
G01*
X27543080Y8948440D02*
X27543080Y9548440D01*
G75*
G02*
X27594080Y9599440I51000J0D01*
G01*
X29144080Y9599440D01*
G75*
G02*
X29195080Y9548440I0J-51000D01*
G01*
X29195080Y8948440D01*
G75*
G02*
X29144080Y8897440I-51000J0D01*
G01*
X27594080Y8897440D01*
G75*
G02*
X27543080Y8948440I0J51000D01*
G01*
G37*
G36*
G01*
X27543080Y7678440D02*
X27543080Y8278440D01*
G75*
G02*
X27594080Y8329440I51000J0D01*
G01*
X29144080Y8329440D01*
G75*
G02*
X29195080Y8278440I0J-51000D01*
G01*
X29195080Y7678440D01*
G75*
G02*
X29144080Y7627440I-51000J0D01*
G01*
X27594080Y7627440D01*
G75*
G02*
X27543080Y7678440I0J51000D01*
G01*
G37*
G36*
G01*
X32943080Y7678440D02*
X32943080Y8278440D01*
G75*
G02*
X32994080Y8329440I51000J0D01*
G01*
X34544080Y8329440D01*
G75*
G02*
X34595080Y8278440I0J-51000D01*
G01*
X34595080Y7678440D01*
G75*
G02*
X34544080Y7627440I-51000J0D01*
G01*
X32994080Y7627440D01*
G75*
G02*
X32943080Y7678440I0J51000D01*
G01*
G37*
G36*
G01*
X32943080Y8948440D02*
X32943080Y9548440D01*
G75*
G02*
X32994080Y9599440I51000J0D01*
G01*
X34544080Y9599440D01*
G75*
G02*
X34595080Y9548440I0J-51000D01*
G01*
X34595080Y8948440D01*
G75*
G02*
X34544080Y8897440I-51000J0D01*
G01*
X32994080Y8897440D01*
G75*
G02*
X32943080Y8948440I0J51000D01*
G01*
G37*
G36*
G01*
X32943080Y10218440D02*
X32943080Y10818440D01*
G75*
G02*
X32994080Y10869440I51000J0D01*
G01*
X34544080Y10869440D01*
G75*
G02*
X34595080Y10818440I0J-51000D01*
G01*
X34595080Y10218440D01*
G75*
G02*
X34544080Y10167440I-51000J0D01*
G01*
X32994080Y10167440D01*
G75*
G02*
X32943080Y10218440I0J51000D01*
G01*
G37*
G36*
G01*
X32943080Y11488440D02*
X32943080Y12088440D01*
G75*
G02*
X32994080Y12139440I51000J0D01*
G01*
X34544080Y12139440D01*
G75*
G02*
X34595080Y12088440I0J-51000D01*
G01*
X34595080Y11488440D01*
G75*
G02*
X34544080Y11437440I-51000J0D01*
G01*
X32994080Y11437440D01*
G75*
G02*
X32943080Y11488440I0J51000D01*
G01*
G37*
%TD*%
%TO.C,U16*%
G36*
G01*
X62465920Y5004200D02*
X62465920Y6604200D01*
G75*
G02*
X62516920Y6655200I51000J0D01*
G01*
X64116920Y6655200D01*
G75*
G02*
X64167920Y6604200I0J-51000D01*
G01*
X64167920Y5004200D01*
G75*
G02*
X64116920Y4953200I-51000J0D01*
G01*
X62516920Y4953200D01*
G75*
G02*
X62465920Y5004200I0J51000D01*
G01*
G37*
X70936920Y3264200D03*
X63316920Y3264200D03*
X70936920Y5804200D03*
%TD*%
%TO.C,U13*%
G36*
G01*
X46842000Y22319000D02*
X46842000Y22919000D01*
G75*
G02*
X46893000Y22970000I51000J0D01*
G01*
X48443000Y22970000D01*
G75*
G02*
X48494000Y22919000I0J-51000D01*
G01*
X48494000Y22319000D01*
G75*
G02*
X48443000Y22268000I-51000J0D01*
G01*
X46893000Y22268000D01*
G75*
G02*
X46842000Y22319000I0J51000D01*
G01*
G37*
G36*
G01*
X46842000Y21049000D02*
X46842000Y21649000D01*
G75*
G02*
X46893000Y21700000I51000J0D01*
G01*
X48443000Y21700000D01*
G75*
G02*
X48494000Y21649000I0J-51000D01*
G01*
X48494000Y21049000D01*
G75*
G02*
X48443000Y20998000I-51000J0D01*
G01*
X46893000Y20998000D01*
G75*
G02*
X46842000Y21049000I0J51000D01*
G01*
G37*
G36*
G01*
X46842000Y19779000D02*
X46842000Y20379000D01*
G75*
G02*
X46893000Y20430000I51000J0D01*
G01*
X48443000Y20430000D01*
G75*
G02*
X48494000Y20379000I0J-51000D01*
G01*
X48494000Y19779000D01*
G75*
G02*
X48443000Y19728000I-51000J0D01*
G01*
X46893000Y19728000D01*
G75*
G02*
X46842000Y19779000I0J51000D01*
G01*
G37*
G36*
G01*
X46842000Y18509000D02*
X46842000Y19109000D01*
G75*
G02*
X46893000Y19160000I51000J0D01*
G01*
X48443000Y19160000D01*
G75*
G02*
X48494000Y19109000I0J-51000D01*
G01*
X48494000Y18509000D01*
G75*
G02*
X48443000Y18458000I-51000J0D01*
G01*
X46893000Y18458000D01*
G75*
G02*
X46842000Y18509000I0J51000D01*
G01*
G37*
G36*
G01*
X52242000Y18509000D02*
X52242000Y19109000D01*
G75*
G02*
X52293000Y19160000I51000J0D01*
G01*
X53843000Y19160000D01*
G75*
G02*
X53894000Y19109000I0J-51000D01*
G01*
X53894000Y18509000D01*
G75*
G02*
X53843000Y18458000I-51000J0D01*
G01*
X52293000Y18458000D01*
G75*
G02*
X52242000Y18509000I0J51000D01*
G01*
G37*
G36*
G01*
X52242000Y19779000D02*
X52242000Y20379000D01*
G75*
G02*
X52293000Y20430000I51000J0D01*
G01*
X53843000Y20430000D01*
G75*
G02*
X53894000Y20379000I0J-51000D01*
G01*
X53894000Y19779000D01*
G75*
G02*
X53843000Y19728000I-51000J0D01*
G01*
X52293000Y19728000D01*
G75*
G02*
X52242000Y19779000I0J51000D01*
G01*
G37*
G36*
G01*
X52242000Y21049000D02*
X52242000Y21649000D01*
G75*
G02*
X52293000Y21700000I51000J0D01*
G01*
X53843000Y21700000D01*
G75*
G02*
X53894000Y21649000I0J-51000D01*
G01*
X53894000Y21049000D01*
G75*
G02*
X53843000Y20998000I-51000J0D01*
G01*
X52293000Y20998000D01*
G75*
G02*
X52242000Y21049000I0J51000D01*
G01*
G37*
G36*
G01*
X52242000Y22319000D02*
X52242000Y22919000D01*
G75*
G02*
X52293000Y22970000I51000J0D01*
G01*
X53843000Y22970000D01*
G75*
G02*
X53894000Y22919000I0J-51000D01*
G01*
X53894000Y22319000D01*
G75*
G02*
X53843000Y22268000I-51000J0D01*
G01*
X52293000Y22268000D01*
G75*
G02*
X52242000Y22319000I0J51000D01*
G01*
G37*
%TD*%
%TO.C,U12*%
G36*
G01*
X24185160Y21335560D02*
X26785160Y21335560D01*
G75*
G02*
X26836160Y21284560I0J-51000D01*
G01*
X26836160Y20184560D01*
G75*
G02*
X26785160Y20133560I-51000J0D01*
G01*
X24185160Y20133560D01*
G75*
G02*
X24134160Y20184560I0J51000D01*
G01*
X24134160Y21284560D01*
G75*
G02*
X24185160Y21335560I51000J0D01*
G01*
G37*
G36*
G01*
X39935160Y21335560D02*
X42535160Y21335560D01*
G75*
G02*
X42586160Y21284560I0J-51000D01*
G01*
X42586160Y20184560D01*
G75*
G02*
X42535160Y20133560I-51000J0D01*
G01*
X39935160Y20133560D01*
G75*
G02*
X39884160Y20184560I0J51000D01*
G01*
X39884160Y21284560D01*
G75*
G02*
X39935160Y21335560I51000J0D01*
G01*
G37*
G36*
G01*
X24185160Y23335560D02*
X26785160Y23335560D01*
G75*
G02*
X26836160Y23284560I0J-51000D01*
G01*
X26836160Y22184560D01*
G75*
G02*
X26785160Y22133560I-51000J0D01*
G01*
X24185160Y22133560D01*
G75*
G02*
X24134160Y22184560I0J51000D01*
G01*
X24134160Y23284560D01*
G75*
G02*
X24185160Y23335560I51000J0D01*
G01*
G37*
G36*
G01*
X39935160Y23335560D02*
X42535160Y23335560D01*
G75*
G02*
X42586160Y23284560I0J-51000D01*
G01*
X42586160Y22184560D01*
G75*
G02*
X42535160Y22133560I-51000J0D01*
G01*
X39935160Y22133560D01*
G75*
G02*
X39884160Y22184560I0J51000D01*
G01*
X39884160Y23284560D01*
G75*
G02*
X39935160Y23335560I51000J0D01*
G01*
G37*
G36*
G01*
X24185160Y25335560D02*
X26785160Y25335560D01*
G75*
G02*
X26836160Y25284560I0J-51000D01*
G01*
X26836160Y24184560D01*
G75*
G02*
X26785160Y24133560I-51000J0D01*
G01*
X24185160Y24133560D01*
G75*
G02*
X24134160Y24184560I0J51000D01*
G01*
X24134160Y25284560D01*
G75*
G02*
X24185160Y25335560I51000J0D01*
G01*
G37*
G36*
G01*
X39935160Y25335560D02*
X42535160Y25335560D01*
G75*
G02*
X42586160Y25284560I0J-51000D01*
G01*
X42586160Y24184560D01*
G75*
G02*
X42535160Y24133560I-51000J0D01*
G01*
X39935160Y24133560D01*
G75*
G02*
X39884160Y24184560I0J51000D01*
G01*
X39884160Y25284560D01*
G75*
G02*
X39935160Y25335560I51000J0D01*
G01*
G37*
G36*
G01*
X24185160Y27335560D02*
X26785160Y27335560D01*
G75*
G02*
X26836160Y27284560I0J-51000D01*
G01*
X26836160Y26184560D01*
G75*
G02*
X26785160Y26133560I-51000J0D01*
G01*
X24185160Y26133560D01*
G75*
G02*
X24134160Y26184560I0J51000D01*
G01*
X24134160Y27284560D01*
G75*
G02*
X24185160Y27335560I51000J0D01*
G01*
G37*
G36*
G01*
X39935160Y27335560D02*
X42535160Y27335560D01*
G75*
G02*
X42586160Y27284560I0J-51000D01*
G01*
X42586160Y26184560D01*
G75*
G02*
X42535160Y26133560I-51000J0D01*
G01*
X39935160Y26133560D01*
G75*
G02*
X39884160Y26184560I0J51000D01*
G01*
X39884160Y27284560D01*
G75*
G02*
X39935160Y27335560I51000J0D01*
G01*
G37*
G36*
G01*
X24185160Y29335560D02*
X26785160Y29335560D01*
G75*
G02*
X26836160Y29284560I0J-51000D01*
G01*
X26836160Y28184560D01*
G75*
G02*
X26785160Y28133560I-51000J0D01*
G01*
X24185160Y28133560D01*
G75*
G02*
X24134160Y28184560I0J51000D01*
G01*
X24134160Y29284560D01*
G75*
G02*
X24185160Y29335560I51000J0D01*
G01*
G37*
G36*
G01*
X39935160Y29335560D02*
X42535160Y29335560D01*
G75*
G02*
X42586160Y29284560I0J-51000D01*
G01*
X42586160Y28184560D01*
G75*
G02*
X42535160Y28133560I-51000J0D01*
G01*
X39935160Y28133560D01*
G75*
G02*
X39884160Y28184560I0J51000D01*
G01*
X39884160Y29284560D01*
G75*
G02*
X39935160Y29335560I51000J0D01*
G01*
G37*
G36*
G01*
X24185160Y31335560D02*
X26785160Y31335560D01*
G75*
G02*
X26836160Y31284560I0J-51000D01*
G01*
X26836160Y30184560D01*
G75*
G02*
X26785160Y30133560I-51000J0D01*
G01*
X24185160Y30133560D01*
G75*
G02*
X24134160Y30184560I0J51000D01*
G01*
X24134160Y31284560D01*
G75*
G02*
X24185160Y31335560I51000J0D01*
G01*
G37*
G36*
G01*
X39935160Y31335560D02*
X42535160Y31335560D01*
G75*
G02*
X42586160Y31284560I0J-51000D01*
G01*
X42586160Y30184560D01*
G75*
G02*
X42535160Y30133560I-51000J0D01*
G01*
X39935160Y30133560D01*
G75*
G02*
X39884160Y30184560I0J51000D01*
G01*
X39884160Y31284560D01*
G75*
G02*
X39935160Y31335560I51000J0D01*
G01*
G37*
G36*
G01*
X24185160Y33335560D02*
X26785160Y33335560D01*
G75*
G02*
X26836160Y33284560I0J-51000D01*
G01*
X26836160Y32184560D01*
G75*
G02*
X26785160Y32133560I-51000J0D01*
G01*
X24185160Y32133560D01*
G75*
G02*
X24134160Y32184560I0J51000D01*
G01*
X24134160Y33284560D01*
G75*
G02*
X24185160Y33335560I51000J0D01*
G01*
G37*
G36*
G01*
X39935160Y33335560D02*
X42535160Y33335560D01*
G75*
G02*
X42586160Y33284560I0J-51000D01*
G01*
X42586160Y32184560D01*
G75*
G02*
X42535160Y32133560I-51000J0D01*
G01*
X39935160Y32133560D01*
G75*
G02*
X39884160Y32184560I0J51000D01*
G01*
X39884160Y33284560D01*
G75*
G02*
X39935160Y33335560I51000J0D01*
G01*
G37*
G36*
G01*
X24185160Y35335560D02*
X26785160Y35335560D01*
G75*
G02*
X26836160Y35284560I0J-51000D01*
G01*
X26836160Y34184560D01*
G75*
G02*
X26785160Y34133560I-51000J0D01*
G01*
X24185160Y34133560D01*
G75*
G02*
X24134160Y34184560I0J51000D01*
G01*
X24134160Y35284560D01*
G75*
G02*
X24185160Y35335560I51000J0D01*
G01*
G37*
G36*
G01*
X39935160Y35335560D02*
X42535160Y35335560D01*
G75*
G02*
X42586160Y35284560I0J-51000D01*
G01*
X42586160Y34184560D01*
G75*
G02*
X42535160Y34133560I-51000J0D01*
G01*
X39935160Y34133560D01*
G75*
G02*
X39884160Y34184560I0J51000D01*
G01*
X39884160Y35284560D01*
G75*
G02*
X39935160Y35335560I51000J0D01*
G01*
G37*
%TD*%
%TO.C,U11*%
G36*
G01*
X54595000Y34251000D02*
X55195000Y34251000D01*
G75*
G02*
X55246000Y34200000I0J-51000D01*
G01*
X55246000Y32700000D01*
G75*
G02*
X55195000Y32649000I-51000J0D01*
G01*
X54595000Y32649000D01*
G75*
G02*
X54544000Y32700000I0J51000D01*
G01*
X54544000Y34200000D01*
G75*
G02*
X54595000Y34251000I51000J0D01*
G01*
G37*
G36*
G01*
X53325000Y34251000D02*
X53925000Y34251000D01*
G75*
G02*
X53976000Y34200000I0J-51000D01*
G01*
X53976000Y32700000D01*
G75*
G02*
X53925000Y32649000I-51000J0D01*
G01*
X53325000Y32649000D01*
G75*
G02*
X53274000Y32700000I0J51000D01*
G01*
X53274000Y34200000D01*
G75*
G02*
X53325000Y34251000I51000J0D01*
G01*
G37*
G36*
G01*
X52055000Y34251000D02*
X52655000Y34251000D01*
G75*
G02*
X52706000Y34200000I0J-51000D01*
G01*
X52706000Y32700000D01*
G75*
G02*
X52655000Y32649000I-51000J0D01*
G01*
X52055000Y32649000D01*
G75*
G02*
X52004000Y32700000I0J51000D01*
G01*
X52004000Y34200000D01*
G75*
G02*
X52055000Y34251000I51000J0D01*
G01*
G37*
G36*
G01*
X50785000Y34251000D02*
X51385000Y34251000D01*
G75*
G02*
X51436000Y34200000I0J-51000D01*
G01*
X51436000Y32700000D01*
G75*
G02*
X51385000Y32649000I-51000J0D01*
G01*
X50785000Y32649000D01*
G75*
G02*
X50734000Y32700000I0J51000D01*
G01*
X50734000Y34200000D01*
G75*
G02*
X50785000Y34251000I51000J0D01*
G01*
G37*
G36*
G01*
X49515000Y34251000D02*
X50115000Y34251000D01*
G75*
G02*
X50166000Y34200000I0J-51000D01*
G01*
X50166000Y32700000D01*
G75*
G02*
X50115000Y32649000I-51000J0D01*
G01*
X49515000Y32649000D01*
G75*
G02*
X49464000Y32700000I0J51000D01*
G01*
X49464000Y34200000D01*
G75*
G02*
X49515000Y34251000I51000J0D01*
G01*
G37*
G36*
G01*
X48245000Y34251000D02*
X48845000Y34251000D01*
G75*
G02*
X48896000Y34200000I0J-51000D01*
G01*
X48896000Y32700000D01*
G75*
G02*
X48845000Y32649000I-51000J0D01*
G01*
X48245000Y32649000D01*
G75*
G02*
X48194000Y32700000I0J51000D01*
G01*
X48194000Y34200000D01*
G75*
G02*
X48245000Y34251000I51000J0D01*
G01*
G37*
G36*
G01*
X46975000Y34251000D02*
X47575000Y34251000D01*
G75*
G02*
X47626000Y34200000I0J-51000D01*
G01*
X47626000Y32700000D01*
G75*
G02*
X47575000Y32649000I-51000J0D01*
G01*
X46975000Y32649000D01*
G75*
G02*
X46924000Y32700000I0J51000D01*
G01*
X46924000Y34200000D01*
G75*
G02*
X46975000Y34251000I51000J0D01*
G01*
G37*
G36*
G01*
X45705000Y34251000D02*
X46305000Y34251000D01*
G75*
G02*
X46356000Y34200000I0J-51000D01*
G01*
X46356000Y32700000D01*
G75*
G02*
X46305000Y32649000I-51000J0D01*
G01*
X45705000Y32649000D01*
G75*
G02*
X45654000Y32700000I0J51000D01*
G01*
X45654000Y34200000D01*
G75*
G02*
X45705000Y34251000I51000J0D01*
G01*
G37*
G36*
G01*
X45705000Y28851000D02*
X46305000Y28851000D01*
G75*
G02*
X46356000Y28800000I0J-51000D01*
G01*
X46356000Y27300000D01*
G75*
G02*
X46305000Y27249000I-51000J0D01*
G01*
X45705000Y27249000D01*
G75*
G02*
X45654000Y27300000I0J51000D01*
G01*
X45654000Y28800000D01*
G75*
G02*
X45705000Y28851000I51000J0D01*
G01*
G37*
G36*
G01*
X46975000Y28851000D02*
X47575000Y28851000D01*
G75*
G02*
X47626000Y28800000I0J-51000D01*
G01*
X47626000Y27300000D01*
G75*
G02*
X47575000Y27249000I-51000J0D01*
G01*
X46975000Y27249000D01*
G75*
G02*
X46924000Y27300000I0J51000D01*
G01*
X46924000Y28800000D01*
G75*
G02*
X46975000Y28851000I51000J0D01*
G01*
G37*
G36*
G01*
X48245000Y28851000D02*
X48845000Y28851000D01*
G75*
G02*
X48896000Y28800000I0J-51000D01*
G01*
X48896000Y27300000D01*
G75*
G02*
X48845000Y27249000I-51000J0D01*
G01*
X48245000Y27249000D01*
G75*
G02*
X48194000Y27300000I0J51000D01*
G01*
X48194000Y28800000D01*
G75*
G02*
X48245000Y28851000I51000J0D01*
G01*
G37*
G36*
G01*
X49515000Y28851000D02*
X50115000Y28851000D01*
G75*
G02*
X50166000Y28800000I0J-51000D01*
G01*
X50166000Y27300000D01*
G75*
G02*
X50115000Y27249000I-51000J0D01*
G01*
X49515000Y27249000D01*
G75*
G02*
X49464000Y27300000I0J51000D01*
G01*
X49464000Y28800000D01*
G75*
G02*
X49515000Y28851000I51000J0D01*
G01*
G37*
G36*
G01*
X50785000Y28851000D02*
X51385000Y28851000D01*
G75*
G02*
X51436000Y28800000I0J-51000D01*
G01*
X51436000Y27300000D01*
G75*
G02*
X51385000Y27249000I-51000J0D01*
G01*
X50785000Y27249000D01*
G75*
G02*
X50734000Y27300000I0J51000D01*
G01*
X50734000Y28800000D01*
G75*
G02*
X50785000Y28851000I51000J0D01*
G01*
G37*
G36*
G01*
X52055000Y28851000D02*
X52655000Y28851000D01*
G75*
G02*
X52706000Y28800000I0J-51000D01*
G01*
X52706000Y27300000D01*
G75*
G02*
X52655000Y27249000I-51000J0D01*
G01*
X52055000Y27249000D01*
G75*
G02*
X52004000Y27300000I0J51000D01*
G01*
X52004000Y28800000D01*
G75*
G02*
X52055000Y28851000I51000J0D01*
G01*
G37*
G36*
G01*
X53325000Y28851000D02*
X53925000Y28851000D01*
G75*
G02*
X53976000Y28800000I0J-51000D01*
G01*
X53976000Y27300000D01*
G75*
G02*
X53925000Y27249000I-51000J0D01*
G01*
X53325000Y27249000D01*
G75*
G02*
X53274000Y27300000I0J51000D01*
G01*
X53274000Y28800000D01*
G75*
G02*
X53325000Y28851000I51000J0D01*
G01*
G37*
G36*
G01*
X54595000Y28851000D02*
X55195000Y28851000D01*
G75*
G02*
X55246000Y28800000I0J-51000D01*
G01*
X55246000Y27300000D01*
G75*
G02*
X55195000Y27249000I-51000J0D01*
G01*
X54595000Y27249000D01*
G75*
G02*
X54544000Y27300000I0J51000D01*
G01*
X54544000Y28800000D01*
G75*
G02*
X54595000Y28851000I51000J0D01*
G01*
G37*
%TD*%
%TO.C,U10*%
G36*
G01*
X56918560Y39456560D02*
X55318560Y39456560D01*
G75*
G02*
X55267560Y39507560I0J51000D01*
G01*
X55267560Y41107560D01*
G75*
G02*
X55318560Y41158560I51000J0D01*
G01*
X56918560Y41158560D01*
G75*
G02*
X56969560Y41107560I0J-51000D01*
G01*
X56969560Y39507560D01*
G75*
G02*
X56918560Y39456560I-51000J0D01*
G01*
G37*
X58658560Y47927560D03*
X58658560Y40307560D03*
X56118560Y47927560D03*
%TD*%
%TO.C,U8*%
G36*
G01*
X45126186Y39456560D02*
X43526186Y39456560D01*
G75*
G02*
X43475186Y39507560I0J51000D01*
G01*
X43475186Y41107560D01*
G75*
G02*
X43526186Y41158560I51000J0D01*
G01*
X45126186Y41158560D01*
G75*
G02*
X45177186Y41107560I0J-51000D01*
G01*
X45177186Y39507560D01*
G75*
G02*
X45126186Y39456560I-51000J0D01*
G01*
G37*
X46866186Y47927560D03*
X46866186Y40307560D03*
X44326186Y47927560D03*
%TD*%
%TO.C,U7*%
G36*
G01*
X49242880Y12944040D02*
X49242880Y11344040D01*
G75*
G02*
X49191880Y11293040I-51000J0D01*
G01*
X47591880Y11293040D01*
G75*
G02*
X47540880Y11344040I0J51000D01*
G01*
X47540880Y12944040D01*
G75*
G02*
X47591880Y12995040I51000J0D01*
G01*
X49191880Y12995040D01*
G75*
G02*
X49242880Y12944040I0J-51000D01*
G01*
G37*
X40771880Y14684040D03*
X48391880Y14684040D03*
X40771880Y12144040D03*
%TD*%
%TO.C,U6*%
G36*
G01*
X39230000Y39456560D02*
X37630000Y39456560D01*
G75*
G02*
X37579000Y39507560I0J51000D01*
G01*
X37579000Y41107560D01*
G75*
G02*
X37630000Y41158560I51000J0D01*
G01*
X39230000Y41158560D01*
G75*
G02*
X39281000Y41107560I0J-51000D01*
G01*
X39281000Y39507560D01*
G75*
G02*
X39230000Y39456560I-51000J0D01*
G01*
G37*
X40970000Y47927560D03*
X40970000Y40307560D03*
X38430000Y47927560D03*
%TD*%
%TO.C,U5*%
G36*
G01*
X11638000Y42745000D02*
X15438000Y42745000D01*
G75*
G02*
X15489000Y42694000I0J-51000D01*
G01*
X15489000Y40694000D01*
G75*
G02*
X15438000Y40643000I-51000J0D01*
G01*
X11638000Y40643000D01*
G75*
G02*
X11587000Y40694000I0J51000D01*
G01*
X11587000Y42694000D01*
G75*
G02*
X11638000Y42745000I51000J0D01*
G01*
G37*
G36*
G01*
X12788000Y49045000D02*
X14288000Y49045000D01*
G75*
G02*
X14339000Y48994000I0J-51000D01*
G01*
X14339000Y46994000D01*
G75*
G02*
X14288000Y46943000I-51000J0D01*
G01*
X12788000Y46943000D01*
G75*
G02*
X12737000Y46994000I0J51000D01*
G01*
X12737000Y48994000D01*
G75*
G02*
X12788000Y49045000I51000J0D01*
G01*
G37*
G36*
G01*
X10488000Y49045000D02*
X11988000Y49045000D01*
G75*
G02*
X12039000Y48994000I0J-51000D01*
G01*
X12039000Y46994000D01*
G75*
G02*
X11988000Y46943000I-51000J0D01*
G01*
X10488000Y46943000D01*
G75*
G02*
X10437000Y46994000I0J51000D01*
G01*
X10437000Y48994000D01*
G75*
G02*
X10488000Y49045000I51000J0D01*
G01*
G37*
G36*
G01*
X15088000Y49045000D02*
X16588000Y49045000D01*
G75*
G02*
X16639000Y48994000I0J-51000D01*
G01*
X16639000Y46994000D01*
G75*
G02*
X16588000Y46943000I-51000J0D01*
G01*
X15088000Y46943000D01*
G75*
G02*
X15037000Y46994000I0J51000D01*
G01*
X15037000Y48994000D01*
G75*
G02*
X15088000Y49045000I51000J0D01*
G01*
G37*
%TD*%
%TO.C,U4*%
G36*
G01*
X48641080Y59377000D02*
X48041080Y59377000D01*
G75*
G02*
X47990080Y59428000I0J51000D01*
G01*
X47990080Y60928000D01*
G75*
G02*
X48041080Y60979000I51000J0D01*
G01*
X48641080Y60979000D01*
G75*
G02*
X48692080Y60928000I0J-51000D01*
G01*
X48692080Y59428000D01*
G75*
G02*
X48641080Y59377000I-51000J0D01*
G01*
G37*
G36*
G01*
X49911080Y59377000D02*
X49311080Y59377000D01*
G75*
G02*
X49260080Y59428000I0J51000D01*
G01*
X49260080Y60928000D01*
G75*
G02*
X49311080Y60979000I51000J0D01*
G01*
X49911080Y60979000D01*
G75*
G02*
X49962080Y60928000I0J-51000D01*
G01*
X49962080Y59428000D01*
G75*
G02*
X49911080Y59377000I-51000J0D01*
G01*
G37*
G36*
G01*
X51181080Y59377000D02*
X50581080Y59377000D01*
G75*
G02*
X50530080Y59428000I0J51000D01*
G01*
X50530080Y60928000D01*
G75*
G02*
X50581080Y60979000I51000J0D01*
G01*
X51181080Y60979000D01*
G75*
G02*
X51232080Y60928000I0J-51000D01*
G01*
X51232080Y59428000D01*
G75*
G02*
X51181080Y59377000I-51000J0D01*
G01*
G37*
G36*
G01*
X52451080Y59377000D02*
X51851080Y59377000D01*
G75*
G02*
X51800080Y59428000I0J51000D01*
G01*
X51800080Y60928000D01*
G75*
G02*
X51851080Y60979000I51000J0D01*
G01*
X52451080Y60979000D01*
G75*
G02*
X52502080Y60928000I0J-51000D01*
G01*
X52502080Y59428000D01*
G75*
G02*
X52451080Y59377000I-51000J0D01*
G01*
G37*
G36*
G01*
X53721080Y59377000D02*
X53121080Y59377000D01*
G75*
G02*
X53070080Y59428000I0J51000D01*
G01*
X53070080Y60928000D01*
G75*
G02*
X53121080Y60979000I51000J0D01*
G01*
X53721080Y60979000D01*
G75*
G02*
X53772080Y60928000I0J-51000D01*
G01*
X53772080Y59428000D01*
G75*
G02*
X53721080Y59377000I-51000J0D01*
G01*
G37*
G36*
G01*
X54991080Y59377000D02*
X54391080Y59377000D01*
G75*
G02*
X54340080Y59428000I0J51000D01*
G01*
X54340080Y60928000D01*
G75*
G02*
X54391080Y60979000I51000J0D01*
G01*
X54991080Y60979000D01*
G75*
G02*
X55042080Y60928000I0J-51000D01*
G01*
X55042080Y59428000D01*
G75*
G02*
X54991080Y59377000I-51000J0D01*
G01*
G37*
G36*
G01*
X56261080Y59377000D02*
X55661080Y59377000D01*
G75*
G02*
X55610080Y59428000I0J51000D01*
G01*
X55610080Y60928000D01*
G75*
G02*
X55661080Y60979000I51000J0D01*
G01*
X56261080Y60979000D01*
G75*
G02*
X56312080Y60928000I0J-51000D01*
G01*
X56312080Y59428000D01*
G75*
G02*
X56261080Y59377000I-51000J0D01*
G01*
G37*
G36*
G01*
X57531080Y59377000D02*
X56931080Y59377000D01*
G75*
G02*
X56880080Y59428000I0J51000D01*
G01*
X56880080Y60928000D01*
G75*
G02*
X56931080Y60979000I51000J0D01*
G01*
X57531080Y60979000D01*
G75*
G02*
X57582080Y60928000I0J-51000D01*
G01*
X57582080Y59428000D01*
G75*
G02*
X57531080Y59377000I-51000J0D01*
G01*
G37*
G36*
G01*
X57531080Y64777000D02*
X56931080Y64777000D01*
G75*
G02*
X56880080Y64828000I0J51000D01*
G01*
X56880080Y66328000D01*
G75*
G02*
X56931080Y66379000I51000J0D01*
G01*
X57531080Y66379000D01*
G75*
G02*
X57582080Y66328000I0J-51000D01*
G01*
X57582080Y64828000D01*
G75*
G02*
X57531080Y64777000I-51000J0D01*
G01*
G37*
G36*
G01*
X56261080Y64777000D02*
X55661080Y64777000D01*
G75*
G02*
X55610080Y64828000I0J51000D01*
G01*
X55610080Y66328000D01*
G75*
G02*
X55661080Y66379000I51000J0D01*
G01*
X56261080Y66379000D01*
G75*
G02*
X56312080Y66328000I0J-51000D01*
G01*
X56312080Y64828000D01*
G75*
G02*
X56261080Y64777000I-51000J0D01*
G01*
G37*
G36*
G01*
X54991080Y64777000D02*
X54391080Y64777000D01*
G75*
G02*
X54340080Y64828000I0J51000D01*
G01*
X54340080Y66328000D01*
G75*
G02*
X54391080Y66379000I51000J0D01*
G01*
X54991080Y66379000D01*
G75*
G02*
X55042080Y66328000I0J-51000D01*
G01*
X55042080Y64828000D01*
G75*
G02*
X54991080Y64777000I-51000J0D01*
G01*
G37*
G36*
G01*
X53721080Y64777000D02*
X53121080Y64777000D01*
G75*
G02*
X53070080Y64828000I0J51000D01*
G01*
X53070080Y66328000D01*
G75*
G02*
X53121080Y66379000I51000J0D01*
G01*
X53721080Y66379000D01*
G75*
G02*
X53772080Y66328000I0J-51000D01*
G01*
X53772080Y64828000D01*
G75*
G02*
X53721080Y64777000I-51000J0D01*
G01*
G37*
G36*
G01*
X52451080Y64777000D02*
X51851080Y64777000D01*
G75*
G02*
X51800080Y64828000I0J51000D01*
G01*
X51800080Y66328000D01*
G75*
G02*
X51851080Y66379000I51000J0D01*
G01*
X52451080Y66379000D01*
G75*
G02*
X52502080Y66328000I0J-51000D01*
G01*
X52502080Y64828000D01*
G75*
G02*
X52451080Y64777000I-51000J0D01*
G01*
G37*
G36*
G01*
X51181080Y64777000D02*
X50581080Y64777000D01*
G75*
G02*
X50530080Y64828000I0J51000D01*
G01*
X50530080Y66328000D01*
G75*
G02*
X50581080Y66379000I51000J0D01*
G01*
X51181080Y66379000D01*
G75*
G02*
X51232080Y66328000I0J-51000D01*
G01*
X51232080Y64828000D01*
G75*
G02*
X51181080Y64777000I-51000J0D01*
G01*
G37*
G36*
G01*
X49911080Y64777000D02*
X49311080Y64777000D01*
G75*
G02*
X49260080Y64828000I0J51000D01*
G01*
X49260080Y66328000D01*
G75*
G02*
X49311080Y66379000I51000J0D01*
G01*
X49911080Y66379000D01*
G75*
G02*
X49962080Y66328000I0J-51000D01*
G01*
X49962080Y64828000D01*
G75*
G02*
X49911080Y64777000I-51000J0D01*
G01*
G37*
G36*
G01*
X48641080Y64777000D02*
X48041080Y64777000D01*
G75*
G02*
X47990080Y64828000I0J51000D01*
G01*
X47990080Y66328000D01*
G75*
G02*
X48041080Y66379000I51000J0D01*
G01*
X48641080Y66379000D01*
G75*
G02*
X48692080Y66328000I0J-51000D01*
G01*
X48692080Y64828000D01*
G75*
G02*
X48641080Y64777000I-51000J0D01*
G01*
G37*
%TD*%
%TO.C,U2*%
G36*
G01*
X24914542Y69219194D02*
X26714542Y69219194D01*
G75*
G02*
X26765542Y69168194I0J-51000D01*
G01*
X26765542Y67368194D01*
G75*
G02*
X26714542Y67317194I-51000J0D01*
G01*
X24914542Y67317194D01*
G75*
G02*
X24863542Y67368194I0J51000D01*
G01*
X24863542Y69168194D01*
G75*
G02*
X24914542Y69219194I51000J0D01*
G01*
G37*
D16*
X25814542Y65728194D03*
X25814542Y63188194D03*
%TD*%
D11*
%TO.C,SW1*%
X17020480Y34459600D03*
X17020480Y29959600D03*
X10520480Y34459600D03*
X10520480Y29959600D03*
%TD*%
%TO.C,R44*%
G36*
G01*
X73022800Y12362399D02*
X73022800Y13562401D01*
G75*
G02*
X73073799Y13613400I50999J0D01*
G01*
X74273801Y13613400D01*
G75*
G02*
X74324800Y13562401I0J-50999D01*
G01*
X74324800Y12362399D01*
G75*
G02*
X74273801Y12311400I-50999J0D01*
G01*
X73073799Y12311400D01*
G75*
G02*
X73022800Y12362399I0J50999D01*
G01*
G37*
G36*
G01*
X75122800Y12362399D02*
X75122800Y13562401D01*
G75*
G02*
X75173799Y13613400I50999J0D01*
G01*
X76373801Y13613400D01*
G75*
G02*
X76424800Y13562401I0J-50999D01*
G01*
X76424800Y12362399D01*
G75*
G02*
X76373801Y12311400I-50999J0D01*
G01*
X75173799Y12311400D01*
G75*
G02*
X75122800Y12362399I0J50999D01*
G01*
G37*
%TD*%
%TO.C,R43*%
G36*
G01*
X58258040Y13743679D02*
X58258040Y14943681D01*
G75*
G02*
X58309039Y14994680I50999J0D01*
G01*
X59509041Y14994680D01*
G75*
G02*
X59560040Y14943681I0J-50999D01*
G01*
X59560040Y13743679D01*
G75*
G02*
X59509041Y13692680I-50999J0D01*
G01*
X58309039Y13692680D01*
G75*
G02*
X58258040Y13743679I0J50999D01*
G01*
G37*
G36*
G01*
X60358040Y13743679D02*
X60358040Y14943681D01*
G75*
G02*
X60409039Y14994680I50999J0D01*
G01*
X61609041Y14994680D01*
G75*
G02*
X61660040Y14943681I0J-50999D01*
G01*
X61660040Y13743679D01*
G75*
G02*
X61609041Y13692680I-50999J0D01*
G01*
X60409039Y13692680D01*
G75*
G02*
X60358040Y13743679I0J50999D01*
G01*
G37*
%TD*%
%TO.C,R42*%
G36*
G01*
X91723480Y18334581D02*
X91723480Y17134579D01*
G75*
G02*
X91672481Y17083580I-50999J0D01*
G01*
X90472479Y17083580D01*
G75*
G02*
X90421480Y17134579I0J50999D01*
G01*
X90421480Y18334581D01*
G75*
G02*
X90472479Y18385580I50999J0D01*
G01*
X91672481Y18385580D01*
G75*
G02*
X91723480Y18334581I0J-50999D01*
G01*
G37*
G36*
G01*
X89623480Y18334581D02*
X89623480Y17134579D01*
G75*
G02*
X89572481Y17083580I-50999J0D01*
G01*
X88372479Y17083580D01*
G75*
G02*
X88321480Y17134579I0J50999D01*
G01*
X88321480Y18334581D01*
G75*
G02*
X88372479Y18385580I50999J0D01*
G01*
X89572481Y18385580D01*
G75*
G02*
X89623480Y18334581I0J-50999D01*
G01*
G37*
%TD*%
%TO.C,R41*%
G36*
G01*
X75882480Y18779081D02*
X75882480Y17579079D01*
G75*
G02*
X75831481Y17528080I-50999J0D01*
G01*
X74631479Y17528080D01*
G75*
G02*
X74580480Y17579079I0J50999D01*
G01*
X74580480Y18779081D01*
G75*
G02*
X74631479Y18830080I50999J0D01*
G01*
X75831481Y18830080D01*
G75*
G02*
X75882480Y18779081I0J-50999D01*
G01*
G37*
G36*
G01*
X73782480Y18779081D02*
X73782480Y17579079D01*
G75*
G02*
X73731481Y17528080I-50999J0D01*
G01*
X72531479Y17528080D01*
G75*
G02*
X72480480Y17579079I0J50999D01*
G01*
X72480480Y18779081D01*
G75*
G02*
X72531479Y18830080I50999J0D01*
G01*
X73731481Y18830080D01*
G75*
G02*
X73782480Y18779081I0J-50999D01*
G01*
G37*
%TD*%
%TO.C,R40*%
G36*
G01*
X87447481Y16956580D02*
X86247479Y16956580D01*
G75*
G02*
X86196480Y17007579I0J50999D01*
G01*
X86196480Y18207581D01*
G75*
G02*
X86247479Y18258580I50999J0D01*
G01*
X87447481Y18258580D01*
G75*
G02*
X87498480Y18207581I0J-50999D01*
G01*
X87498480Y17007579D01*
G75*
G02*
X87447481Y16956580I-50999J0D01*
G01*
G37*
G36*
G01*
X87447481Y19056580D02*
X86247479Y19056580D01*
G75*
G02*
X86196480Y19107579I0J50999D01*
G01*
X86196480Y20307581D01*
G75*
G02*
X86247479Y20358580I50999J0D01*
G01*
X87447481Y20358580D01*
G75*
G02*
X87498480Y20307581I0J-50999D01*
G01*
X87498480Y19107579D01*
G75*
G02*
X87447481Y19056580I-50999J0D01*
G01*
G37*
%TD*%
%TO.C,R39*%
G36*
G01*
X76730480Y30152079D02*
X76730480Y31352081D01*
G75*
G02*
X76781479Y31403080I50999J0D01*
G01*
X77981481Y31403080D01*
G75*
G02*
X78032480Y31352081I0J-50999D01*
G01*
X78032480Y30152079D01*
G75*
G02*
X77981481Y30101080I-50999J0D01*
G01*
X76781479Y30101080D01*
G75*
G02*
X76730480Y30152079I0J50999D01*
G01*
G37*
G36*
G01*
X78830480Y30152079D02*
X78830480Y31352081D01*
G75*
G02*
X78881479Y31403080I50999J0D01*
G01*
X80081481Y31403080D01*
G75*
G02*
X80132480Y31352081I0J-50999D01*
G01*
X80132480Y30152079D01*
G75*
G02*
X80081481Y30101080I-50999J0D01*
G01*
X78881479Y30101080D01*
G75*
G02*
X78830480Y30152079I0J50999D01*
G01*
G37*
%TD*%
%TO.C,R38*%
G36*
G01*
X34431479Y4150840D02*
X35631481Y4150840D01*
G75*
G02*
X35682480Y4099841I0J-50999D01*
G01*
X35682480Y2899839D01*
G75*
G02*
X35631481Y2848840I-50999J0D01*
G01*
X34431479Y2848840D01*
G75*
G02*
X34380480Y2899839I0J50999D01*
G01*
X34380480Y4099841D01*
G75*
G02*
X34431479Y4150840I50999J0D01*
G01*
G37*
G36*
G01*
X34431479Y2050840D02*
X35631481Y2050840D01*
G75*
G02*
X35682480Y1999841I0J-50999D01*
G01*
X35682480Y799839D01*
G75*
G02*
X35631481Y748840I-50999J0D01*
G01*
X34431479Y748840D01*
G75*
G02*
X34380480Y799839I0J50999D01*
G01*
X34380480Y1999841D01*
G75*
G02*
X34431479Y2050840I50999J0D01*
G01*
G37*
%TD*%
%TO.C,R37*%
G36*
G01*
X30550160Y4630159D02*
X30550160Y5830161D01*
G75*
G02*
X30601159Y5881160I50999J0D01*
G01*
X31801161Y5881160D01*
G75*
G02*
X31852160Y5830161I0J-50999D01*
G01*
X31852160Y4630159D01*
G75*
G02*
X31801161Y4579160I-50999J0D01*
G01*
X30601159Y4579160D01*
G75*
G02*
X30550160Y4630159I0J50999D01*
G01*
G37*
G36*
G01*
X32650160Y4630159D02*
X32650160Y5830161D01*
G75*
G02*
X32701159Y5881160I50999J0D01*
G01*
X33901161Y5881160D01*
G75*
G02*
X33952160Y5830161I0J-50999D01*
G01*
X33952160Y4630159D01*
G75*
G02*
X33901161Y4579160I-50999J0D01*
G01*
X32701159Y4579160D01*
G75*
G02*
X32650160Y4630159I0J50999D01*
G01*
G37*
%TD*%
%TO.C,R36*%
G36*
G01*
X26721161Y4429880D02*
X25521159Y4429880D01*
G75*
G02*
X25470160Y4480879I0J50999D01*
G01*
X25470160Y5680881D01*
G75*
G02*
X25521159Y5731880I50999J0D01*
G01*
X26721161Y5731880D01*
G75*
G02*
X26772160Y5680881I0J-50999D01*
G01*
X26772160Y4480879D01*
G75*
G02*
X26721161Y4429880I-50999J0D01*
G01*
G37*
G36*
G01*
X26721161Y6529880D02*
X25521159Y6529880D01*
G75*
G02*
X25470160Y6580879I0J50999D01*
G01*
X25470160Y7780881D01*
G75*
G02*
X25521159Y7831880I50999J0D01*
G01*
X26721161Y7831880D01*
G75*
G02*
X26772160Y7780881I0J-50999D01*
G01*
X26772160Y6580879D01*
G75*
G02*
X26721161Y6529880I-50999J0D01*
G01*
G37*
%TD*%
%TO.C,R35*%
G36*
G01*
X88291980Y19230079D02*
X88291980Y20430081D01*
G75*
G02*
X88342979Y20481080I50999J0D01*
G01*
X89542981Y20481080D01*
G75*
G02*
X89593980Y20430081I0J-50999D01*
G01*
X89593980Y19230079D01*
G75*
G02*
X89542981Y19179080I-50999J0D01*
G01*
X88342979Y19179080D01*
G75*
G02*
X88291980Y19230079I0J50999D01*
G01*
G37*
G36*
G01*
X90391980Y19230079D02*
X90391980Y20430081D01*
G75*
G02*
X90442979Y20481080I50999J0D01*
G01*
X91642981Y20481080D01*
G75*
G02*
X91693980Y20430081I0J-50999D01*
G01*
X91693980Y19230079D01*
G75*
G02*
X91642981Y19179080I-50999J0D01*
G01*
X90442979Y19179080D01*
G75*
G02*
X90391980Y19230079I0J50999D01*
G01*
G37*
%TD*%
%TO.C,R34*%
G36*
G01*
X26721161Y11033880D02*
X25521159Y11033880D01*
G75*
G02*
X25470160Y11084879I0J50999D01*
G01*
X25470160Y12284881D01*
G75*
G02*
X25521159Y12335880I50999J0D01*
G01*
X26721161Y12335880D01*
G75*
G02*
X26772160Y12284881I0J-50999D01*
G01*
X26772160Y11084879D01*
G75*
G02*
X26721161Y11033880I-50999J0D01*
G01*
G37*
G36*
G01*
X26721161Y13133880D02*
X25521159Y13133880D01*
G75*
G02*
X25470160Y13184879I0J50999D01*
G01*
X25470160Y14384881D01*
G75*
G02*
X25521159Y14435880I50999J0D01*
G01*
X26721161Y14435880D01*
G75*
G02*
X26772160Y14384881I0J-50999D01*
G01*
X26772160Y13184879D01*
G75*
G02*
X26721161Y13133880I-50999J0D01*
G01*
G37*
%TD*%
%TO.C,R32*%
G36*
G01*
X58258040Y5194039D02*
X58258040Y6394041D01*
G75*
G02*
X58309039Y6445040I50999J0D01*
G01*
X59509041Y6445040D01*
G75*
G02*
X59560040Y6394041I0J-50999D01*
G01*
X59560040Y5194039D01*
G75*
G02*
X59509041Y5143040I-50999J0D01*
G01*
X58309039Y5143040D01*
G75*
G02*
X58258040Y5194039I0J50999D01*
G01*
G37*
G36*
G01*
X60358040Y5194039D02*
X60358040Y6394041D01*
G75*
G02*
X60409039Y6445040I50999J0D01*
G01*
X61609041Y6445040D01*
G75*
G02*
X61660040Y6394041I0J-50999D01*
G01*
X61660040Y5194039D01*
G75*
G02*
X61609041Y5143040I-50999J0D01*
G01*
X60409039Y5143040D01*
G75*
G02*
X60358040Y5194039I0J50999D01*
G01*
G37*
%TD*%
%TO.C,R31*%
G36*
G01*
X10587081Y24182880D02*
X9387079Y24182880D01*
G75*
G02*
X9336080Y24233879I0J50999D01*
G01*
X9336080Y25433881D01*
G75*
G02*
X9387079Y25484880I50999J0D01*
G01*
X10587081Y25484880D01*
G75*
G02*
X10638080Y25433881I0J-50999D01*
G01*
X10638080Y24233879D01*
G75*
G02*
X10587081Y24182880I-50999J0D01*
G01*
G37*
G36*
G01*
X10587081Y26282880D02*
X9387079Y26282880D01*
G75*
G02*
X9336080Y26333879I0J50999D01*
G01*
X9336080Y27533881D01*
G75*
G02*
X9387079Y27584880I50999J0D01*
G01*
X10587081Y27584880D01*
G75*
G02*
X10638080Y27533881I0J-50999D01*
G01*
X10638080Y26333879D01*
G75*
G02*
X10587081Y26282880I-50999J0D01*
G01*
G37*
%TD*%
%TO.C,R29*%
G36*
G01*
X11217001Y18852000D02*
X10016999Y18852000D01*
G75*
G02*
X9966000Y18902999I0J50999D01*
G01*
X9966000Y20103001D01*
G75*
G02*
X10016999Y20154000I50999J0D01*
G01*
X11217001Y20154000D01*
G75*
G02*
X11268000Y20103001I0J-50999D01*
G01*
X11268000Y18902999D01*
G75*
G02*
X11217001Y18852000I-50999J0D01*
G01*
G37*
G36*
G01*
X11217001Y20952000D02*
X10016999Y20952000D01*
G75*
G02*
X9966000Y21002999I0J50999D01*
G01*
X9966000Y22203001D01*
G75*
G02*
X10016999Y22254000I50999J0D01*
G01*
X11217001Y22254000D01*
G75*
G02*
X11268000Y22203001I0J-50999D01*
G01*
X11268000Y21002999D01*
G75*
G02*
X11217001Y20952000I-50999J0D01*
G01*
G37*
%TD*%
D17*
%TO.C,R28*%
X4277160Y11430880D03*
D18*
X9357160Y11430880D03*
%TD*%
%TO.C,R26*%
G36*
G01*
X44704361Y19875040D02*
X43504359Y19875040D01*
G75*
G02*
X43453360Y19926039I0J50999D01*
G01*
X43453360Y21126041D01*
G75*
G02*
X43504359Y21177040I50999J0D01*
G01*
X44704361Y21177040D01*
G75*
G02*
X44755360Y21126041I0J-50999D01*
G01*
X44755360Y19926039D01*
G75*
G02*
X44704361Y19875040I-50999J0D01*
G01*
G37*
G36*
G01*
X44704361Y21975040D02*
X43504359Y21975040D01*
G75*
G02*
X43453360Y22026039I0J50999D01*
G01*
X43453360Y23226041D01*
G75*
G02*
X43504359Y23277040I50999J0D01*
G01*
X44704361Y23277040D01*
G75*
G02*
X44755360Y23226041I0J-50999D01*
G01*
X44755360Y22026039D01*
G75*
G02*
X44704361Y21975040I-50999J0D01*
G01*
G37*
%TD*%
%TO.C,R25*%
G36*
G01*
X54759480Y16806919D02*
X54759480Y18006921D01*
G75*
G02*
X54810479Y18057920I50999J0D01*
G01*
X56010481Y18057920D01*
G75*
G02*
X56061480Y18006921I0J-50999D01*
G01*
X56061480Y16806919D01*
G75*
G02*
X56010481Y16755920I-50999J0D01*
G01*
X54810479Y16755920D01*
G75*
G02*
X54759480Y16806919I0J50999D01*
G01*
G37*
G36*
G01*
X56859480Y16806919D02*
X56859480Y18006921D01*
G75*
G02*
X56910479Y18057920I50999J0D01*
G01*
X58110481Y18057920D01*
G75*
G02*
X58161480Y18006921I0J-50999D01*
G01*
X58161480Y16806919D01*
G75*
G02*
X58110481Y16755920I-50999J0D01*
G01*
X56910479Y16755920D01*
G75*
G02*
X56859480Y16806919I0J50999D01*
G01*
G37*
%TD*%
%TO.C,R24*%
G36*
G01*
X54729000Y18930359D02*
X54729000Y20130361D01*
G75*
G02*
X54779999Y20181360I50999J0D01*
G01*
X55980001Y20181360D01*
G75*
G02*
X56031000Y20130361I0J-50999D01*
G01*
X56031000Y18930359D01*
G75*
G02*
X55980001Y18879360I-50999J0D01*
G01*
X54779999Y18879360D01*
G75*
G02*
X54729000Y18930359I0J50999D01*
G01*
G37*
G36*
G01*
X56829000Y18930359D02*
X56829000Y20130361D01*
G75*
G02*
X56879999Y20181360I50999J0D01*
G01*
X58080001Y20181360D01*
G75*
G02*
X58131000Y20130361I0J-50999D01*
G01*
X58131000Y18930359D01*
G75*
G02*
X58080001Y18879360I-50999J0D01*
G01*
X56879999Y18879360D01*
G75*
G02*
X56829000Y18930359I0J50999D01*
G01*
G37*
%TD*%
%TO.C,R23*%
G36*
G01*
X56583905Y53687480D02*
X57783907Y53687480D01*
G75*
G02*
X57834906Y53636481I0J-50999D01*
G01*
X57834906Y52436479D01*
G75*
G02*
X57783907Y52385480I-50999J0D01*
G01*
X56583905Y52385480D01*
G75*
G02*
X56532906Y52436479I0J50999D01*
G01*
X56532906Y53636481D01*
G75*
G02*
X56583905Y53687480I50999J0D01*
G01*
G37*
G36*
G01*
X56583905Y51587480D02*
X57783907Y51587480D01*
G75*
G02*
X57834906Y51536481I0J-50999D01*
G01*
X57834906Y50336479D01*
G75*
G02*
X57783907Y50285480I-50999J0D01*
G01*
X56583905Y50285480D01*
G75*
G02*
X56532906Y50336479I0J50999D01*
G01*
X56532906Y51536481D01*
G75*
G02*
X56583905Y51587480I50999J0D01*
G01*
G37*
%TD*%
%TO.C,R22*%
G36*
G01*
X53968960Y37314879D02*
X53968960Y38514881D01*
G75*
G02*
X54019959Y38565880I50999J0D01*
G01*
X55219961Y38565880D01*
G75*
G02*
X55270960Y38514881I0J-50999D01*
G01*
X55270960Y37314879D01*
G75*
G02*
X55219961Y37263880I-50999J0D01*
G01*
X54019959Y37263880D01*
G75*
G02*
X53968960Y37314879I0J50999D01*
G01*
G37*
G36*
G01*
X56068960Y37314879D02*
X56068960Y38514881D01*
G75*
G02*
X56119959Y38565880I50999J0D01*
G01*
X57319961Y38565880D01*
G75*
G02*
X57370960Y38514881I0J-50999D01*
G01*
X57370960Y37314879D01*
G75*
G02*
X57319961Y37263880I-50999J0D01*
G01*
X56119959Y37263880D01*
G75*
G02*
X56068960Y37314879I0J50999D01*
G01*
G37*
%TD*%
%TO.C,R21*%
G36*
G01*
X59863081Y50285480D02*
X58663079Y50285480D01*
G75*
G02*
X58612080Y50336479I0J50999D01*
G01*
X58612080Y51536481D01*
G75*
G02*
X58663079Y51587480I50999J0D01*
G01*
X59863081Y51587480D01*
G75*
G02*
X59914080Y51536481I0J-50999D01*
G01*
X59914080Y50336479D01*
G75*
G02*
X59863081Y50285480I-50999J0D01*
G01*
G37*
G36*
G01*
X59863081Y52385480D02*
X58663079Y52385480D01*
G75*
G02*
X58612080Y52436479I0J50999D01*
G01*
X58612080Y53636481D01*
G75*
G02*
X58663079Y53687480I50999J0D01*
G01*
X59863081Y53687480D01*
G75*
G02*
X59914080Y53636481I0J-50999D01*
G01*
X59914080Y52436479D01*
G75*
G02*
X59863081Y52385480I-50999J0D01*
G01*
G37*
%TD*%
%TO.C,R20*%
G36*
G01*
X52425563Y53687480D02*
X53625565Y53687480D01*
G75*
G02*
X53676564Y53636481I0J-50999D01*
G01*
X53676564Y52436479D01*
G75*
G02*
X53625565Y52385480I-50999J0D01*
G01*
X52425563Y52385480D01*
G75*
G02*
X52374564Y52436479I0J50999D01*
G01*
X52374564Y53636481D01*
G75*
G02*
X52425563Y53687480I50999J0D01*
G01*
G37*
G36*
G01*
X52425563Y51587480D02*
X53625565Y51587480D01*
G75*
G02*
X53676564Y51536481I0J-50999D01*
G01*
X53676564Y50336479D01*
G75*
G02*
X53625565Y50285480I-50999J0D01*
G01*
X52425563Y50285480D01*
G75*
G02*
X52374564Y50336479I0J50999D01*
G01*
X52374564Y51536481D01*
G75*
G02*
X52425563Y51587480I50999J0D01*
G01*
G37*
%TD*%
%TO.C,R19*%
G36*
G01*
X31833161Y38118880D02*
X30633159Y38118880D01*
G75*
G02*
X30582160Y38169879I0J50999D01*
G01*
X30582160Y39369881D01*
G75*
G02*
X30633159Y39420880I50999J0D01*
G01*
X31833161Y39420880D01*
G75*
G02*
X31884160Y39369881I0J-50999D01*
G01*
X31884160Y38169879D01*
G75*
G02*
X31833161Y38118880I-50999J0D01*
G01*
G37*
G36*
G01*
X31833161Y40218880D02*
X30633159Y40218880D01*
G75*
G02*
X30582160Y40269879I0J50999D01*
G01*
X30582160Y41469881D01*
G75*
G02*
X30633159Y41520880I50999J0D01*
G01*
X31833161Y41520880D01*
G75*
G02*
X31884160Y41469881I0J-50999D01*
G01*
X31884160Y40269879D01*
G75*
G02*
X31833161Y40218880I-50999J0D01*
G01*
G37*
%TD*%
%TO.C,R18*%
G36*
G01*
X29706681Y38118880D02*
X28506679Y38118880D01*
G75*
G02*
X28455680Y38169879I0J50999D01*
G01*
X28455680Y39369881D01*
G75*
G02*
X28506679Y39420880I50999J0D01*
G01*
X29706681Y39420880D01*
G75*
G02*
X29757680Y39369881I0J-50999D01*
G01*
X29757680Y38169879D01*
G75*
G02*
X29706681Y38118880I-50999J0D01*
G01*
G37*
G36*
G01*
X29706681Y40218880D02*
X28506679Y40218880D01*
G75*
G02*
X28455680Y40269879I0J50999D01*
G01*
X28455680Y41469881D01*
G75*
G02*
X28506679Y41520880I50999J0D01*
G01*
X29706681Y41520880D01*
G75*
G02*
X29757680Y41469881I0J-50999D01*
G01*
X29757680Y40269879D01*
G75*
G02*
X29706681Y40218880I-50999J0D01*
G01*
G37*
%TD*%
%TO.C,R17*%
G36*
G01*
X49725200Y37314879D02*
X49725200Y38514881D01*
G75*
G02*
X49776199Y38565880I50999J0D01*
G01*
X50976201Y38565880D01*
G75*
G02*
X51027200Y38514881I0J-50999D01*
G01*
X51027200Y37314879D01*
G75*
G02*
X50976201Y37263880I-50999J0D01*
G01*
X49776199Y37263880D01*
G75*
G02*
X49725200Y37314879I0J50999D01*
G01*
G37*
G36*
G01*
X51825200Y37314879D02*
X51825200Y38514881D01*
G75*
G02*
X51876199Y38565880I50999J0D01*
G01*
X53076201Y38565880D01*
G75*
G02*
X53127200Y38514881I0J-50999D01*
G01*
X53127200Y37314879D01*
G75*
G02*
X53076201Y37263880I-50999J0D01*
G01*
X51876199Y37263880D01*
G75*
G02*
X51825200Y37314879I0J50999D01*
G01*
G37*
%TD*%
%TO.C,R16*%
G36*
G01*
X19768440Y30121599D02*
X19768440Y31321601D01*
G75*
G02*
X19819439Y31372600I50999J0D01*
G01*
X21019441Y31372600D01*
G75*
G02*
X21070440Y31321601I0J-50999D01*
G01*
X21070440Y30121599D01*
G75*
G02*
X21019441Y30070600I-50999J0D01*
G01*
X19819439Y30070600D01*
G75*
G02*
X19768440Y30121599I0J50999D01*
G01*
G37*
G36*
G01*
X21868440Y30121599D02*
X21868440Y31321601D01*
G75*
G02*
X21919439Y31372600I50999J0D01*
G01*
X23119441Y31372600D01*
G75*
G02*
X23170440Y31321601I0J-50999D01*
G01*
X23170440Y30121599D01*
G75*
G02*
X23119441Y30070600I-50999J0D01*
G01*
X21919439Y30070600D01*
G75*
G02*
X21868440Y30121599I0J50999D01*
G01*
G37*
%TD*%
%TO.C,R15*%
G36*
G01*
X55704736Y50285480D02*
X54504734Y50285480D01*
G75*
G02*
X54453735Y50336479I0J50999D01*
G01*
X54453735Y51536481D01*
G75*
G02*
X54504734Y51587480I50999J0D01*
G01*
X55704736Y51587480D01*
G75*
G02*
X55755735Y51536481I0J-50999D01*
G01*
X55755735Y50336479D01*
G75*
G02*
X55704736Y50285480I-50999J0D01*
G01*
G37*
G36*
G01*
X55704736Y52385480D02*
X54504734Y52385480D01*
G75*
G02*
X54453735Y52436479I0J50999D01*
G01*
X54453735Y53636481D01*
G75*
G02*
X54504734Y53687480I50999J0D01*
G01*
X55704736Y53687480D01*
G75*
G02*
X55755735Y53636481I0J-50999D01*
G01*
X55755735Y52436479D01*
G75*
G02*
X55704736Y52385480I-50999J0D01*
G01*
G37*
%TD*%
%TO.C,R14*%
G36*
G01*
X35926121Y38118880D02*
X34726119Y38118880D01*
G75*
G02*
X34675120Y38169879I0J50999D01*
G01*
X34675120Y39369881D01*
G75*
G02*
X34726119Y39420880I50999J0D01*
G01*
X35926121Y39420880D01*
G75*
G02*
X35977120Y39369881I0J-50999D01*
G01*
X35977120Y38169879D01*
G75*
G02*
X35926121Y38118880I-50999J0D01*
G01*
G37*
G36*
G01*
X35926121Y40218880D02*
X34726119Y40218880D01*
G75*
G02*
X34675120Y40269879I0J50999D01*
G01*
X34675120Y41469881D01*
G75*
G02*
X34726119Y41520880I50999J0D01*
G01*
X35926121Y41520880D01*
G75*
G02*
X35977120Y41469881I0J-50999D01*
G01*
X35977120Y40269879D01*
G75*
G02*
X35926121Y40218880I-50999J0D01*
G01*
G37*
%TD*%
%TO.C,R13*%
G36*
G01*
X25613721Y38118880D02*
X24413719Y38118880D01*
G75*
G02*
X24362720Y38169879I0J50999D01*
G01*
X24362720Y39369881D01*
G75*
G02*
X24413719Y39420880I50999J0D01*
G01*
X25613721Y39420880D01*
G75*
G02*
X25664720Y39369881I0J-50999D01*
G01*
X25664720Y38169879D01*
G75*
G02*
X25613721Y38118880I-50999J0D01*
G01*
G37*
G36*
G01*
X25613721Y40218880D02*
X24413719Y40218880D01*
G75*
G02*
X24362720Y40269879I0J50999D01*
G01*
X24362720Y41469881D01*
G75*
G02*
X24413719Y41520880I50999J0D01*
G01*
X25613721Y41520880D01*
G75*
G02*
X25664720Y41469881I0J-50999D01*
G01*
X25664720Y40269879D01*
G75*
G02*
X25613721Y40218880I-50999J0D01*
G01*
G37*
%TD*%
%TO.C,R12*%
G36*
G01*
X50346392Y53687480D02*
X51546394Y53687480D01*
G75*
G02*
X51597393Y53636481I0J-50999D01*
G01*
X51597393Y52436479D01*
G75*
G02*
X51546394Y52385480I-50999J0D01*
G01*
X50346392Y52385480D01*
G75*
G02*
X50295393Y52436479I0J50999D01*
G01*
X50295393Y53636481D01*
G75*
G02*
X50346392Y53687480I50999J0D01*
G01*
G37*
G36*
G01*
X50346392Y51587480D02*
X51546394Y51587480D01*
G75*
G02*
X51597393Y51536481I0J-50999D01*
G01*
X51597393Y50336479D01*
G75*
G02*
X51546394Y50285480I-50999J0D01*
G01*
X50346392Y50285480D01*
G75*
G02*
X50295393Y50336479I0J50999D01*
G01*
X50295393Y51536481D01*
G75*
G02*
X50346392Y51587480I50999J0D01*
G01*
G37*
%TD*%
%TO.C,R11*%
G36*
G01*
X48275800Y38514881D02*
X48275800Y37314879D01*
G75*
G02*
X48224801Y37263880I-50999J0D01*
G01*
X47024799Y37263880D01*
G75*
G02*
X46973800Y37314879I0J50999D01*
G01*
X46973800Y38514881D01*
G75*
G02*
X47024799Y38565880I50999J0D01*
G01*
X48224801Y38565880D01*
G75*
G02*
X48275800Y38514881I0J-50999D01*
G01*
G37*
G36*
G01*
X46175800Y38514881D02*
X46175800Y37314879D01*
G75*
G02*
X46124801Y37263880I-50999J0D01*
G01*
X44924799Y37263880D01*
G75*
G02*
X44873800Y37314879I0J50999D01*
G01*
X44873800Y38514881D01*
G75*
G02*
X44924799Y38565880I50999J0D01*
G01*
X46124801Y38565880D01*
G75*
G02*
X46175800Y38514881I0J-50999D01*
G01*
G37*
%TD*%
%TO.C,R10*%
G36*
G01*
X61558480Y21526239D02*
X61558480Y22726241D01*
G75*
G02*
X61609479Y22777240I50999J0D01*
G01*
X62809481Y22777240D01*
G75*
G02*
X62860480Y22726241I0J-50999D01*
G01*
X62860480Y21526239D01*
G75*
G02*
X62809481Y21475240I-50999J0D01*
G01*
X61609479Y21475240D01*
G75*
G02*
X61558480Y21526239I0J50999D01*
G01*
G37*
G36*
G01*
X63658480Y21526239D02*
X63658480Y22726241D01*
G75*
G02*
X63709479Y22777240I50999J0D01*
G01*
X64909481Y22777240D01*
G75*
G02*
X64960480Y22726241I0J-50999D01*
G01*
X64960480Y21526239D01*
G75*
G02*
X64909481Y21475240I-50999J0D01*
G01*
X63709479Y21475240D01*
G75*
G02*
X63658480Y21526239I0J50999D01*
G01*
G37*
%TD*%
%TO.C,R9*%
G36*
G01*
X49467223Y50285480D02*
X48267221Y50285480D01*
G75*
G02*
X48216222Y50336479I0J50999D01*
G01*
X48216222Y51536481D01*
G75*
G02*
X48267221Y51587480I50999J0D01*
G01*
X49467223Y51587480D01*
G75*
G02*
X49518222Y51536481I0J-50999D01*
G01*
X49518222Y50336479D01*
G75*
G02*
X49467223Y50285480I-50999J0D01*
G01*
G37*
G36*
G01*
X49467223Y52385480D02*
X48267221Y52385480D01*
G75*
G02*
X48216222Y52436479I0J50999D01*
G01*
X48216222Y53636481D01*
G75*
G02*
X48267221Y53687480I50999J0D01*
G01*
X49467223Y53687480D01*
G75*
G02*
X49518222Y53636481I0J-50999D01*
G01*
X49518222Y52436479D01*
G75*
G02*
X49467223Y52385480I-50999J0D01*
G01*
G37*
%TD*%
%TO.C,R8*%
G36*
G01*
X58183400Y31198559D02*
X58183400Y32398561D01*
G75*
G02*
X58234399Y32449560I50999J0D01*
G01*
X59434401Y32449560D01*
G75*
G02*
X59485400Y32398561I0J-50999D01*
G01*
X59485400Y31198559D01*
G75*
G02*
X59434401Y31147560I-50999J0D01*
G01*
X58234399Y31147560D01*
G75*
G02*
X58183400Y31198559I0J50999D01*
G01*
G37*
G36*
G01*
X60283400Y31198559D02*
X60283400Y32398561D01*
G75*
G02*
X60334399Y32449560I50999J0D01*
G01*
X61534401Y32449560D01*
G75*
G02*
X61585400Y32398561I0J-50999D01*
G01*
X61585400Y31198559D01*
G75*
G02*
X61534401Y31147560I-50999J0D01*
G01*
X60334399Y31147560D01*
G75*
G02*
X60283400Y31198559I0J50999D01*
G01*
G37*
%TD*%
%TO.C,R7*%
G36*
G01*
X46188050Y53687480D02*
X47388052Y53687480D01*
G75*
G02*
X47439051Y53636481I0J-50999D01*
G01*
X47439051Y52436479D01*
G75*
G02*
X47388052Y52385480I-50999J0D01*
G01*
X46188050Y52385480D01*
G75*
G02*
X46137051Y52436479I0J50999D01*
G01*
X46137051Y53636481D01*
G75*
G02*
X46188050Y53687480I50999J0D01*
G01*
G37*
G36*
G01*
X46188050Y51587480D02*
X47388052Y51587480D01*
G75*
G02*
X47439051Y51536481I0J-50999D01*
G01*
X47439051Y50336479D01*
G75*
G02*
X47388052Y50285480I-50999J0D01*
G01*
X46188050Y50285480D01*
G75*
G02*
X46137051Y50336479I0J50999D01*
G01*
X46137051Y51536481D01*
G75*
G02*
X46188050Y51587480I50999J0D01*
G01*
G37*
%TD*%
%TO.C,R6*%
G36*
G01*
X42361120Y38514881D02*
X42361120Y37314879D01*
G75*
G02*
X42310121Y37263880I-50999J0D01*
G01*
X41110119Y37263880D01*
G75*
G02*
X41059120Y37314879I0J50999D01*
G01*
X41059120Y38514881D01*
G75*
G02*
X41110119Y38565880I50999J0D01*
G01*
X42310121Y38565880D01*
G75*
G02*
X42361120Y38514881I0J-50999D01*
G01*
G37*
G36*
G01*
X40261120Y38514881D02*
X40261120Y37314879D01*
G75*
G02*
X40210121Y37263880I-50999J0D01*
G01*
X39010119Y37263880D01*
G75*
G02*
X38959120Y37314879I0J50999D01*
G01*
X38959120Y38514881D01*
G75*
G02*
X39010119Y38565880I50999J0D01*
G01*
X40210121Y38565880D01*
G75*
G02*
X40261120Y38514881I0J-50999D01*
G01*
G37*
%TD*%
%TO.C,R5*%
G36*
G01*
X53751000Y10900001D02*
X53751000Y9699999D01*
G75*
G02*
X53700001Y9649000I-50999J0D01*
G01*
X52499999Y9649000D01*
G75*
G02*
X52449000Y9699999I0J50999D01*
G01*
X52449000Y10900001D01*
G75*
G02*
X52499999Y10951000I50999J0D01*
G01*
X53700001Y10951000D01*
G75*
G02*
X53751000Y10900001I0J-50999D01*
G01*
G37*
G36*
G01*
X51651000Y10900001D02*
X51651000Y9699999D01*
G75*
G02*
X51600001Y9649000I-50999J0D01*
G01*
X50399999Y9649000D01*
G75*
G02*
X50349000Y9699999I0J50999D01*
G01*
X50349000Y10900001D01*
G75*
G02*
X50399999Y10951000I50999J0D01*
G01*
X51600001Y10951000D01*
G75*
G02*
X51651000Y10900001I0J-50999D01*
G01*
G37*
%TD*%
%TO.C,R4*%
G36*
G01*
X45308881Y50285480D02*
X44108879Y50285480D01*
G75*
G02*
X44057880Y50336479I0J50999D01*
G01*
X44057880Y51536481D01*
G75*
G02*
X44108879Y51587480I50999J0D01*
G01*
X45308881Y51587480D01*
G75*
G02*
X45359880Y51536481I0J-50999D01*
G01*
X45359880Y50336479D01*
G75*
G02*
X45308881Y50285480I-50999J0D01*
G01*
G37*
G36*
G01*
X45308881Y52385480D02*
X44108879Y52385480D01*
G75*
G02*
X44057880Y52436479I0J50999D01*
G01*
X44057880Y53636481D01*
G75*
G02*
X44108879Y53687480I50999J0D01*
G01*
X45308881Y53687480D01*
G75*
G02*
X45359880Y53636481I0J-50999D01*
G01*
X45359880Y52436479D01*
G75*
G02*
X45308881Y52385480I-50999J0D01*
G01*
G37*
%TD*%
%TO.C,R3*%
G36*
G01*
X38877601Y8974920D02*
X37677599Y8974920D01*
G75*
G02*
X37626600Y9025919I0J50999D01*
G01*
X37626600Y10225921D01*
G75*
G02*
X37677599Y10276920I50999J0D01*
G01*
X38877601Y10276920D01*
G75*
G02*
X38928600Y10225921I0J-50999D01*
G01*
X38928600Y9025919D01*
G75*
G02*
X38877601Y8974920I-50999J0D01*
G01*
G37*
G36*
G01*
X38877601Y11074920D02*
X37677599Y11074920D01*
G75*
G02*
X37626600Y11125919I0J50999D01*
G01*
X37626600Y12325921D01*
G75*
G02*
X37677599Y12376920I50999J0D01*
G01*
X38877601Y12376920D01*
G75*
G02*
X38928600Y12325921I0J-50999D01*
G01*
X38928600Y11125919D01*
G75*
G02*
X38877601Y11074920I-50999J0D01*
G01*
G37*
%TD*%
D15*
%TO.C,R2*%
X81980840Y28521960D03*
D13*
X92140840Y28521960D03*
%TD*%
D15*
%TO.C,R1*%
X2616000Y51194000D03*
D13*
X12776000Y51194000D03*
%TD*%
D14*
%TO.C,K3*%
X88103560Y57287028D03*
X83103560Y57287028D03*
X78103560Y57287028D03*
X88103560Y64787028D03*
X83103560Y64787028D03*
X78103560Y64787028D03*
X63103560Y57287028D03*
X63103560Y64787028D03*
%TD*%
%TO.C,K2*%
X88103560Y70814014D03*
X83103560Y70814014D03*
X78103560Y70814014D03*
X88103560Y78314014D03*
X83103560Y78314014D03*
X78103560Y78314014D03*
X63103560Y70814014D03*
X63103560Y78314014D03*
%TD*%
%TO.C,K1*%
X88103560Y84341000D03*
X83103560Y84341000D03*
X78103560Y84341000D03*
X88103560Y91841000D03*
X83103560Y91841000D03*
X78103560Y91841000D03*
X63103560Y84341000D03*
X63103560Y91841000D03*
%TD*%
D19*
%TO.C,JP3*%
X32440680Y2476800D03*
X29900680Y2476800D03*
X27360680Y2476800D03*
%TD*%
%TO.C,JP2*%
X6309160Y38608880D03*
X6309160Y36068880D03*
X6309160Y33528880D03*
%TD*%
%TO.C,JP1*%
X32521960Y17188480D03*
X35061960Y17188480D03*
X37601960Y17188480D03*
%TD*%
D14*
%TO.C,J10*%
X88033680Y3497880D03*
X83033680Y3497880D03*
X78033680Y3497880D03*
%TD*%
%TO.C,J9*%
X3499920Y16568720D03*
X3499920Y21568720D03*
X3499920Y26568720D03*
%TD*%
D19*
%TO.C,J8*%
X33751320Y44645880D03*
X31211320Y44645880D03*
X26131320Y44645880D03*
X28671320Y44645880D03*
%TD*%
%TO.C,J7*%
X64282120Y26759200D03*
X66822120Y26759200D03*
%TD*%
D14*
%TO.C,J6*%
X96535040Y47338280D03*
X96535040Y42338280D03*
%TD*%
D19*
%TO.C,J5*%
X60685480Y36340080D03*
X63225480Y36340080D03*
%TD*%
D14*
%TO.C,J4*%
X45704560Y3492800D03*
X40704560Y3492800D03*
%TD*%
%TO.C,J3*%
X96535040Y76639720D03*
X96535040Y71639720D03*
%TD*%
%TO.C,J2*%
X96535040Y88406280D03*
X96535040Y83406280D03*
%TD*%
%TO.C,J1*%
X3499920Y82349640D03*
X3499920Y87349640D03*
%TD*%
D20*
%TO.C,F1*%
X15449000Y92913500D03*
X38049000Y92913500D03*
%TD*%
%TO.C,D7*%
G36*
G01*
X27578360Y13123919D02*
X27578360Y14323921D01*
G75*
G02*
X27629359Y14374920I50999J0D01*
G01*
X28829361Y14374920D01*
G75*
G02*
X28880360Y14323921I0J-50999D01*
G01*
X28880360Y13123919D01*
G75*
G02*
X28829361Y13072920I-50999J0D01*
G01*
X27629359Y13072920D01*
G75*
G02*
X27578360Y13123919I0J50999D01*
G01*
G37*
G36*
G01*
X29778360Y13123919D02*
X29778360Y14323921D01*
G75*
G02*
X29829359Y14374920I50999J0D01*
G01*
X31029361Y14374920D01*
G75*
G02*
X31080360Y14323921I0J-50999D01*
G01*
X31080360Y13123919D01*
G75*
G02*
X31029361Y13072920I-50999J0D01*
G01*
X29829359Y13072920D01*
G75*
G02*
X29778360Y13123919I0J50999D01*
G01*
G37*
%TD*%
%TO.C,D6*%
G36*
G01*
X32679639Y41520880D02*
X33879641Y41520880D01*
G75*
G02*
X33930640Y41469881I0J-50999D01*
G01*
X33930640Y40269879D01*
G75*
G02*
X33879641Y40218880I-50999J0D01*
G01*
X32679639Y40218880D01*
G75*
G02*
X32628640Y40269879I0J50999D01*
G01*
X32628640Y41469881D01*
G75*
G02*
X32679639Y41520880I50999J0D01*
G01*
G37*
G36*
G01*
X32679639Y39320880D02*
X33879641Y39320880D01*
G75*
G02*
X33930640Y39269881I0J-50999D01*
G01*
X33930640Y38069879D01*
G75*
G02*
X33879641Y38018880I-50999J0D01*
G01*
X32679639Y38018880D01*
G75*
G02*
X32628640Y38069879I0J50999D01*
G01*
X32628640Y39269881D01*
G75*
G02*
X32679639Y39320880I50999J0D01*
G01*
G37*
%TD*%
%TO.C,D5*%
G36*
G01*
X26460199Y41520880D02*
X27660201Y41520880D01*
G75*
G02*
X27711200Y41469881I0J-50999D01*
G01*
X27711200Y40269879D01*
G75*
G02*
X27660201Y40218880I-50999J0D01*
G01*
X26460199Y40218880D01*
G75*
G02*
X26409200Y40269879I0J50999D01*
G01*
X26409200Y41469881D01*
G75*
G02*
X26460199Y41520880I50999J0D01*
G01*
G37*
G36*
G01*
X26460199Y39320880D02*
X27660201Y39320880D01*
G75*
G02*
X27711200Y39269881I0J-50999D01*
G01*
X27711200Y38069879D01*
G75*
G02*
X27660201Y38018880I-50999J0D01*
G01*
X26460199Y38018880D01*
G75*
G02*
X26409200Y38069879I0J50999D01*
G01*
X26409200Y39269881D01*
G75*
G02*
X26460199Y39320880I50999J0D01*
G01*
G37*
%TD*%
%TO.C,D4*%
G36*
G01*
X68997480Y22751641D02*
X68997480Y21551639D01*
G75*
G02*
X68946481Y21500640I-50999J0D01*
G01*
X67746479Y21500640D01*
G75*
G02*
X67695480Y21551639I0J50999D01*
G01*
X67695480Y22751641D01*
G75*
G02*
X67746479Y22802640I50999J0D01*
G01*
X68946481Y22802640D01*
G75*
G02*
X68997480Y22751641I0J-50999D01*
G01*
G37*
G36*
G01*
X66797480Y22751641D02*
X66797480Y21551639D01*
G75*
G02*
X66746481Y21500640I-50999J0D01*
G01*
X65546479Y21500640D01*
G75*
G02*
X65495480Y21551639I0J50999D01*
G01*
X65495480Y22751641D01*
G75*
G02*
X65546479Y22802640I50999J0D01*
G01*
X66746481Y22802640D01*
G75*
G02*
X66797480Y22751641I0J-50999D01*
G01*
G37*
%TD*%
%TO.C,D3*%
G36*
G01*
X65680240Y32342681D02*
X65680240Y31142679D01*
G75*
G02*
X65629241Y31091680I-50999J0D01*
G01*
X64429239Y31091680D01*
G75*
G02*
X64378240Y31142679I0J50999D01*
G01*
X64378240Y32342681D01*
G75*
G02*
X64429239Y32393680I50999J0D01*
G01*
X65629241Y32393680D01*
G75*
G02*
X65680240Y32342681I0J-50999D01*
G01*
G37*
G36*
G01*
X63480240Y32342681D02*
X63480240Y31142679D01*
G75*
G02*
X63429241Y31091680I-50999J0D01*
G01*
X62229239Y31091680D01*
G75*
G02*
X62178240Y31142679I0J50999D01*
G01*
X62178240Y32342681D01*
G75*
G02*
X62229239Y32393680I50999J0D01*
G01*
X63429241Y32393680D01*
G75*
G02*
X63480240Y32342681I0J-50999D01*
G01*
G37*
%TD*%
%TO.C,D1*%
G36*
G01*
X11371000Y82288500D02*
X11371000Y84488500D01*
G75*
G02*
X11422000Y84539500I51000J0D01*
G01*
X13622000Y84539500D01*
G75*
G02*
X13673000Y84488500I0J-51000D01*
G01*
X13673000Y82288500D01*
G75*
G02*
X13622000Y82237500I-51000J0D01*
G01*
X11422000Y82237500D01*
G75*
G02*
X11371000Y82288500I0J51000D01*
G01*
G37*
D21*
X22682000Y83388500D03*
%TD*%
%TO.C,C19*%
G36*
G01*
X73782480Y31479081D02*
X73782480Y30279079D01*
G75*
G02*
X73731481Y30228080I-50999J0D01*
G01*
X72531479Y30228080D01*
G75*
G02*
X72480480Y30279079I0J50999D01*
G01*
X72480480Y31479081D01*
G75*
G02*
X72531479Y31530080I50999J0D01*
G01*
X73731481Y31530080D01*
G75*
G02*
X73782480Y31479081I0J-50999D01*
G01*
G37*
G36*
G01*
X71682480Y31479081D02*
X71682480Y30279079D01*
G75*
G02*
X71631481Y30228080I-50999J0D01*
G01*
X70431479Y30228080D01*
G75*
G02*
X70380480Y30279079I0J50999D01*
G01*
X70380480Y31479081D01*
G75*
G02*
X70431479Y31530080I50999J0D01*
G01*
X71631481Y31530080D01*
G75*
G02*
X71682480Y31479081I0J-50999D01*
G01*
G37*
%TD*%
%TO.C,C18*%
G36*
G01*
X84973720Y20328481D02*
X84973720Y19128479D01*
G75*
G02*
X84922721Y19077480I-50999J0D01*
G01*
X83722719Y19077480D01*
G75*
G02*
X83671720Y19128479I0J50999D01*
G01*
X83671720Y20328481D01*
G75*
G02*
X83722719Y20379480I50999J0D01*
G01*
X84922721Y20379480D01*
G75*
G02*
X84973720Y20328481I0J-50999D01*
G01*
G37*
G36*
G01*
X82873720Y20328481D02*
X82873720Y19128479D01*
G75*
G02*
X82822721Y19077480I-50999J0D01*
G01*
X81622719Y19077480D01*
G75*
G02*
X81571720Y19128479I0J50999D01*
G01*
X81571720Y20328481D01*
G75*
G02*
X81622719Y20379480I50999J0D01*
G01*
X82822721Y20379480D01*
G75*
G02*
X82873720Y20328481I0J-50999D01*
G01*
G37*
%TD*%
%TO.C,C17*%
G36*
G01*
X35493199Y12370280D02*
X36693201Y12370280D01*
G75*
G02*
X36744200Y12319281I0J-50999D01*
G01*
X36744200Y11119279D01*
G75*
G02*
X36693201Y11068280I-50999J0D01*
G01*
X35493199Y11068280D01*
G75*
G02*
X35442200Y11119279I0J50999D01*
G01*
X35442200Y12319281D01*
G75*
G02*
X35493199Y12370280I50999J0D01*
G01*
G37*
G36*
G01*
X35493199Y10270280D02*
X36693201Y10270280D01*
G75*
G02*
X36744200Y10219281I0J-50999D01*
G01*
X36744200Y9019279D01*
G75*
G02*
X36693201Y8968280I-50999J0D01*
G01*
X35493199Y8968280D01*
G75*
G02*
X35442200Y9019279I0J50999D01*
G01*
X35442200Y10219281D01*
G75*
G02*
X35493199Y10270280I50999J0D01*
G01*
G37*
%TD*%
%TO.C,C16*%
G36*
G01*
X12253560Y25077159D02*
X12253560Y26277161D01*
G75*
G02*
X12304559Y26328160I50999J0D01*
G01*
X13504561Y26328160D01*
G75*
G02*
X13555560Y26277161I0J-50999D01*
G01*
X13555560Y25077159D01*
G75*
G02*
X13504561Y25026160I-50999J0D01*
G01*
X12304559Y25026160D01*
G75*
G02*
X12253560Y25077159I0J50999D01*
G01*
G37*
G36*
G01*
X14353560Y25077159D02*
X14353560Y26277161D01*
G75*
G02*
X14404559Y26328160I50999J0D01*
G01*
X15604561Y26328160D01*
G75*
G02*
X15655560Y26277161I0J-50999D01*
G01*
X15655560Y25077159D01*
G75*
G02*
X15604561Y25026160I-50999J0D01*
G01*
X14404559Y25026160D01*
G75*
G02*
X14353560Y25077159I0J50999D01*
G01*
G37*
%TD*%
%TO.C,C15*%
G36*
G01*
X59042280Y23528881D02*
X59042280Y22328879D01*
G75*
G02*
X58991281Y22277880I-50999J0D01*
G01*
X57791279Y22277880D01*
G75*
G02*
X57740280Y22328879I0J50999D01*
G01*
X57740280Y23528881D01*
G75*
G02*
X57791279Y23579880I50999J0D01*
G01*
X58991281Y23579880D01*
G75*
G02*
X59042280Y23528881I0J-50999D01*
G01*
G37*
G36*
G01*
X56942280Y23528881D02*
X56942280Y22328879D01*
G75*
G02*
X56891281Y22277880I-50999J0D01*
G01*
X55691279Y22277880D01*
G75*
G02*
X55640280Y22328879I0J50999D01*
G01*
X55640280Y23528881D01*
G75*
G02*
X55691279Y23579880I50999J0D01*
G01*
X56891281Y23579880D01*
G75*
G02*
X56942280Y23528881I0J-50999D01*
G01*
G37*
%TD*%
%TO.C,C14*%
G36*
G01*
X22092159Y21034800D02*
X23292161Y21034800D01*
G75*
G02*
X23343160Y20983801I0J-50999D01*
G01*
X23343160Y19783799D01*
G75*
G02*
X23292161Y19732800I-50999J0D01*
G01*
X22092159Y19732800D01*
G75*
G02*
X22041160Y19783799I0J50999D01*
G01*
X22041160Y20983801D01*
G75*
G02*
X22092159Y21034800I50999J0D01*
G01*
G37*
G36*
G01*
X22092159Y18934800D02*
X23292161Y18934800D01*
G75*
G02*
X23343160Y18883801I0J-50999D01*
G01*
X23343160Y17683799D01*
G75*
G02*
X23292161Y17632800I-50999J0D01*
G01*
X22092159Y17632800D01*
G75*
G02*
X22041160Y17683799I0J50999D01*
G01*
X22041160Y18883801D01*
G75*
G02*
X22092159Y18934800I50999J0D01*
G01*
G37*
%TD*%
%TO.C,C13*%
G36*
G01*
X59558480Y28431081D02*
X59558480Y27231079D01*
G75*
G02*
X59507481Y27180080I-50999J0D01*
G01*
X58307479Y27180080D01*
G75*
G02*
X58256480Y27231079I0J50999D01*
G01*
X58256480Y28431081D01*
G75*
G02*
X58307479Y28482080I50999J0D01*
G01*
X59507481Y28482080D01*
G75*
G02*
X59558480Y28431081I0J-50999D01*
G01*
G37*
G36*
G01*
X57458480Y28431081D02*
X57458480Y27231079D01*
G75*
G02*
X57407481Y27180080I-50999J0D01*
G01*
X56207479Y27180080D01*
G75*
G02*
X56156480Y27231079I0J50999D01*
G01*
X56156480Y28431081D01*
G75*
G02*
X56207479Y28482080I50999J0D01*
G01*
X57407481Y28482080D01*
G75*
G02*
X57458480Y28431081I0J-50999D01*
G01*
G37*
%TD*%
%TO.C,C12*%
G36*
G01*
X52316280Y7117480D02*
X53916280Y7117480D01*
G75*
G02*
X53967280Y7066480I0J-51000D01*
G01*
X53967280Y5466480D01*
G75*
G02*
X53916280Y5415480I-51000J0D01*
G01*
X52316280Y5415480D01*
G75*
G02*
X52265280Y5466480I0J51000D01*
G01*
X52265280Y7066480D01*
G75*
G02*
X52316280Y7117480I51000J0D01*
G01*
G37*
D15*
X53116280Y2766480D03*
%TD*%
%TO.C,C11*%
G36*
G01*
X21196000Y43993000D02*
X19596000Y43993000D01*
G75*
G02*
X19545000Y44044000I0J51000D01*
G01*
X19545000Y45644000D01*
G75*
G02*
X19596000Y45695000I51000J0D01*
G01*
X21196000Y45695000D01*
G75*
G02*
X21247000Y45644000I0J-51000D01*
G01*
X21247000Y44044000D01*
G75*
G02*
X21196000Y43993000I-51000J0D01*
G01*
G37*
X20396000Y47344000D03*
%TD*%
%TO.C,C10*%
G36*
G01*
X87163240Y38361359D02*
X87163240Y39561361D01*
G75*
G02*
X87214239Y39612360I50999J0D01*
G01*
X88414241Y39612360D01*
G75*
G02*
X88465240Y39561361I0J-50999D01*
G01*
X88465240Y38361359D01*
G75*
G02*
X88414241Y38310360I-50999J0D01*
G01*
X87214239Y38310360D01*
G75*
G02*
X87163240Y38361359I0J50999D01*
G01*
G37*
G36*
G01*
X89263240Y38361359D02*
X89263240Y39561361D01*
G75*
G02*
X89314239Y39612360I50999J0D01*
G01*
X90514241Y39612360D01*
G75*
G02*
X90565240Y39561361I0J-50999D01*
G01*
X90565240Y38361359D01*
G75*
G02*
X90514241Y38310360I-50999J0D01*
G01*
X89314239Y38310360D01*
G75*
G02*
X89263240Y38361359I0J50999D01*
G01*
G37*
%TD*%
%TO.C,C9*%
G36*
G01*
X89080240Y36586560D02*
X90680240Y36586560D01*
G75*
G02*
X90731240Y36535560I0J-51000D01*
G01*
X90731240Y34935560D01*
G75*
G02*
X90680240Y34884560I-51000J0D01*
G01*
X89080240Y34884560D01*
G75*
G02*
X89029240Y34935560I0J51000D01*
G01*
X89029240Y36535560D01*
G75*
G02*
X89080240Y36586560I51000J0D01*
G01*
G37*
X89880240Y33235560D03*
%TD*%
%TO.C,C8*%
G36*
G01*
X65754520Y40440201D02*
X65754520Y39240199D01*
G75*
G02*
X65703521Y39189200I-50999J0D01*
G01*
X64503519Y39189200D01*
G75*
G02*
X64452520Y39240199I0J50999D01*
G01*
X64452520Y40440201D01*
G75*
G02*
X64503519Y40491200I50999J0D01*
G01*
X65703521Y40491200D01*
G75*
G02*
X65754520Y40440201I0J-50999D01*
G01*
G37*
G36*
G01*
X63654520Y40440201D02*
X63654520Y39240199D01*
G75*
G02*
X63603521Y39189200I-50999J0D01*
G01*
X62403519Y39189200D01*
G75*
G02*
X62352520Y39240199I0J50999D01*
G01*
X62352520Y40440201D01*
G75*
G02*
X62403519Y40491200I50999J0D01*
G01*
X63603521Y40491200D01*
G75*
G02*
X63654520Y40440201I0J-50999D01*
G01*
G37*
%TD*%
%TO.C,C7*%
G36*
G01*
X23028001Y62417500D02*
X21827999Y62417500D01*
G75*
G02*
X21777000Y62468499I0J50999D01*
G01*
X21777000Y63668501D01*
G75*
G02*
X21827999Y63719500I50999J0D01*
G01*
X23028001Y63719500D01*
G75*
G02*
X23079000Y63668501I0J-50999D01*
G01*
X23079000Y62468499D01*
G75*
G02*
X23028001Y62417500I-50999J0D01*
G01*
G37*
G36*
G01*
X23028001Y64517500D02*
X21827999Y64517500D01*
G75*
G02*
X21777000Y64568499I0J50999D01*
G01*
X21777000Y65768501D01*
G75*
G02*
X21827999Y65819500I50999J0D01*
G01*
X23028001Y65819500D01*
G75*
G02*
X23079000Y65768501I0J-50999D01*
G01*
X23079000Y64568499D01*
G75*
G02*
X23028001Y64517500I-50999J0D01*
G01*
G37*
%TD*%
%TO.C,C6*%
G36*
G01*
X23337500Y72749001D02*
X23337500Y71548999D01*
G75*
G02*
X23286501Y71498000I-50999J0D01*
G01*
X22086499Y71498000D01*
G75*
G02*
X22035500Y71548999I0J50999D01*
G01*
X22035500Y72749001D01*
G75*
G02*
X22086499Y72800000I50999J0D01*
G01*
X23286501Y72800000D01*
G75*
G02*
X23337500Y72749001I0J-50999D01*
G01*
G37*
G36*
G01*
X21237500Y72749001D02*
X21237500Y71548999D01*
G75*
G02*
X21186501Y71498000I-50999J0D01*
G01*
X19986499Y71498000D01*
G75*
G02*
X19935500Y71548999I0J50999D01*
G01*
X19935500Y72749001D01*
G75*
G02*
X19986499Y72800000I50999J0D01*
G01*
X21186501Y72800000D01*
G75*
G02*
X21237500Y72749001I0J-50999D01*
G01*
G37*
%TD*%
%TO.C,C5*%
G36*
G01*
X23949560Y76977440D02*
X23949560Y75377440D01*
G75*
G02*
X23898560Y75326440I-51000J0D01*
G01*
X22298560Y75326440D01*
G75*
G02*
X22247560Y75377440I0J51000D01*
G01*
X22247560Y76977440D01*
G75*
G02*
X22298560Y77028440I51000J0D01*
G01*
X23898560Y77028440D01*
G75*
G02*
X23949560Y76977440I0J-51000D01*
G01*
G37*
X20598560Y76177440D03*
%TD*%
%TO.C,C4*%
G36*
G01*
X15043000Y71698000D02*
X15043000Y69298000D01*
G75*
G02*
X14992000Y69247000I-51000J0D01*
G01*
X12592000Y69247000D01*
G75*
G02*
X12541000Y69298000I0J51000D01*
G01*
X12541000Y71698000D01*
G75*
G02*
X12592000Y71749000I51000J0D01*
G01*
X14992000Y71749000D01*
G75*
G02*
X15043000Y71698000I0J-51000D01*
G01*
G37*
D17*
X6292000Y70498000D03*
%TD*%
%TO.C,C3*%
G36*
G01*
X7857999Y49085000D02*
X9058001Y49085000D01*
G75*
G02*
X9109000Y49034001I0J-50999D01*
G01*
X9109000Y47833999D01*
G75*
G02*
X9058001Y47783000I-50999J0D01*
G01*
X7857999Y47783000D01*
G75*
G02*
X7807000Y47833999I0J50999D01*
G01*
X7807000Y49034001D01*
G75*
G02*
X7857999Y49085000I50999J0D01*
G01*
G37*
G36*
G01*
X7857999Y46985000D02*
X9058001Y46985000D01*
G75*
G02*
X9109000Y46934001I0J-50999D01*
G01*
X9109000Y45733999D01*
G75*
G02*
X9058001Y45683000I-50999J0D01*
G01*
X7857999Y45683000D01*
G75*
G02*
X7807000Y45733999I0J50999D01*
G01*
X7807000Y46934001D01*
G75*
G02*
X7857999Y46985000I50999J0D01*
G01*
G37*
%TD*%
%TO.C,C2*%
G36*
G01*
X2273000Y45568000D02*
X2273000Y47168000D01*
G75*
G02*
X2324000Y47219000I51000J0D01*
G01*
X3924000Y47219000D01*
G75*
G02*
X3975000Y47168000I0J-51000D01*
G01*
X3975000Y45568000D01*
G75*
G02*
X3924000Y45517000I-51000J0D01*
G01*
X2324000Y45517000D01*
G75*
G02*
X2273000Y45568000I0J51000D01*
G01*
G37*
D15*
X5624000Y46368000D03*
%TD*%
%TO.C,C1*%
G36*
G01*
X22725000Y53895999D02*
X22725000Y55096001D01*
G75*
G02*
X22775999Y55147000I50999J0D01*
G01*
X23976001Y55147000D01*
G75*
G02*
X24027000Y55096001I0J-50999D01*
G01*
X24027000Y53895999D01*
G75*
G02*
X23976001Y53845000I-50999J0D01*
G01*
X22775999Y53845000D01*
G75*
G02*
X22725000Y53895999I0J50999D01*
G01*
G37*
G36*
G01*
X24825000Y53895999D02*
X24825000Y55096001D01*
G75*
G02*
X24875999Y55147000I50999J0D01*
G01*
X26076001Y55147000D01*
G75*
G02*
X26127000Y55096001I0J-50999D01*
G01*
X26127000Y53895999D01*
G75*
G02*
X26076001Y53845000I-50999J0D01*
G01*
X24875999Y53845000D01*
G75*
G02*
X24825000Y53895999I0J50999D01*
G01*
G37*
%TD*%
M02*
