%TF.GenerationSoftware,KiCad,Pcbnew,(5.1.10)-1*%
%TF.CreationDate,2022-03-13T22:52:12+08:00*%
%TF.ProjectId,interface,696e7465-7266-4616-9365-2e6b69636164,rev?*%
%TF.SameCoordinates,Original*%
%TF.FileFunction,Soldermask,Bot*%
%TF.FilePolarity,Negative*%
%FSLAX46Y46*%
G04 Gerber Fmt 4.6, Leading zero omitted, Abs format (unit mm)*
G04 Created by KiCad (PCBNEW (5.1.10)-1) date 2022-03-13 22:52:12*
%MOMM*%
%LPD*%
G01*
G04 APERTURE LIST*
%ADD10C,0.100000*%
%ADD11C,2.102000*%
%ADD12C,2.902000*%
%ADD13O,1.702000X1.702000*%
%ADD14C,2.602000*%
%ADD15C,1.702000*%
%ADD16O,1.902000X1.902000*%
%ADD17C,2.502000*%
%ADD18O,2.502000X2.502000*%
%ADD19C,1.902000*%
%ADD20O,4.102000X2.602000*%
%ADD21O,2.302000X2.302000*%
G04 APERTURE END LIST*
D10*
G36*
X80731160Y53467880D02*
G01*
X75016160Y53467880D01*
X75016160Y55245880D01*
X80731160Y55245880D01*
X80731160Y53467880D01*
G37*
X80731160Y53467880D02*
X75016160Y53467880D01*
X75016160Y55245880D01*
X80731160Y55245880D01*
X80731160Y53467880D01*
%TO.C,JP7*%
G36*
X79842160Y52578880D02*
G01*
X71714160Y52578880D01*
X71714160Y42672880D01*
X79842160Y42672880D01*
X79842160Y52578880D01*
G37*
X79842160Y52578880D02*
X71714160Y52578880D01*
X71714160Y42672880D01*
X79842160Y42672880D01*
X79842160Y52578880D01*
%TO.C,JP6*%
G36*
X79842160Y66040880D02*
G01*
X71714160Y66040880D01*
X71714160Y56134880D01*
X79842160Y56134880D01*
X79842160Y66040880D01*
G37*
X79842160Y66040880D02*
X71714160Y66040880D01*
X71714160Y56134880D01*
X79842160Y56134880D01*
X79842160Y66040880D01*
%TO.C,JP5*%
G36*
X79842160Y79502880D02*
G01*
X71714160Y79502880D01*
X71714160Y69596880D01*
X79842160Y69596880D01*
X79842160Y79502880D01*
G37*
X79842160Y79502880D02*
X71714160Y79502880D01*
X71714160Y69596880D01*
X79842160Y69596880D01*
X79842160Y79502880D01*
%TO.C,JP4*%
G36*
X79842160Y92583880D02*
G01*
X71714160Y92583880D01*
X71714160Y82677880D01*
X79842160Y82677880D01*
X79842160Y92583880D01*
G37*
X79842160Y92583880D02*
X71714160Y92583880D01*
X71714160Y82677880D01*
X79842160Y82677880D01*
X79842160Y92583880D01*
G36*
X80731160Y53467880D02*
G01*
X75016160Y53467880D01*
X75016160Y55245880D01*
X80731160Y55245880D01*
X80731160Y53467880D01*
G37*
X80731160Y53467880D02*
X75016160Y53467880D01*
X75016160Y55245880D01*
X80731160Y55245880D01*
X80731160Y53467880D01*
%TO.C,JP7*%
G36*
X79842160Y52578880D02*
G01*
X71714160Y52578880D01*
X71714160Y42672880D01*
X79842160Y42672880D01*
X79842160Y52578880D01*
G37*
X79842160Y52578880D02*
X71714160Y52578880D01*
X71714160Y42672880D01*
X79842160Y42672880D01*
X79842160Y52578880D01*
%TO.C,JP6*%
G36*
X79842160Y66040880D02*
G01*
X71714160Y66040880D01*
X71714160Y56134880D01*
X79842160Y56134880D01*
X79842160Y66040880D01*
G37*
X79842160Y66040880D02*
X71714160Y66040880D01*
X71714160Y56134880D01*
X79842160Y56134880D01*
X79842160Y66040880D01*
%TO.C,JP5*%
G36*
X79842160Y79502880D02*
G01*
X71714160Y79502880D01*
X71714160Y69596880D01*
X79842160Y69596880D01*
X79842160Y79502880D01*
G37*
X79842160Y79502880D02*
X71714160Y79502880D01*
X71714160Y69596880D01*
X79842160Y69596880D01*
X79842160Y79502880D01*
%TO.C,JP4*%
G36*
X79842160Y92583880D02*
G01*
X71714160Y92583880D01*
X71714160Y82677880D01*
X79842160Y82677880D01*
X79842160Y92583880D01*
G37*
X79842160Y92583880D02*
X71714160Y92583880D01*
X71714160Y82677880D01*
X79842160Y82677880D01*
X79842160Y92583880D01*
%TD*%
D11*
%TO.C,U1*%
X9474000Y54496000D03*
X14554000Y54496000D03*
X6934000Y54496000D03*
X12014000Y54496000D03*
X17094000Y54496000D03*
X19634000Y54496000D03*
%TD*%
%TO.C,U3*%
X78998880Y39205200D03*
X73918880Y39205200D03*
X81538880Y39205200D03*
X76458880Y39205200D03*
X71378880Y39205200D03*
X68838880Y39205200D03*
%TD*%
D12*
%TO.C,Ref\u002A\u002A*%
X31362542Y53974194D03*
X31362542Y76974194D03*
%TD*%
%TO.C,JP7*%
G36*
G01*
X75448160Y52705880D02*
X75448160Y42545880D01*
G75*
G02*
X75397160Y42494880I-51000J0D01*
G01*
X71587160Y42494880D01*
G75*
G02*
X71536160Y42545880I0J51000D01*
G01*
X71536160Y52705880D01*
G75*
G02*
X71587160Y52756880I51000J0D01*
G01*
X75397160Y52756880D01*
G75*
G02*
X75448160Y52705880I0J-51000D01*
G01*
G37*
G36*
G01*
X80020160Y52705880D02*
X80020160Y42545880D01*
G75*
G02*
X79969160Y42494880I-51000J0D01*
G01*
X76159160Y42494880D01*
G75*
G02*
X76108160Y42545880I0J51000D01*
G01*
X76108160Y52705880D01*
G75*
G02*
X76159160Y52756880I51000J0D01*
G01*
X79969160Y52756880D01*
G75*
G02*
X80020160Y52705880I0J-51000D01*
G01*
G37*
%TD*%
%TO.C,JP6*%
G36*
G01*
X75448160Y66167880D02*
X75448160Y56007880D01*
G75*
G02*
X75397160Y55956880I-51000J0D01*
G01*
X71587160Y55956880D01*
G75*
G02*
X71536160Y56007880I0J51000D01*
G01*
X71536160Y66167880D01*
G75*
G02*
X71587160Y66218880I51000J0D01*
G01*
X75397160Y66218880D01*
G75*
G02*
X75448160Y66167880I0J-51000D01*
G01*
G37*
G36*
G01*
X80020160Y66167880D02*
X80020160Y56007880D01*
G75*
G02*
X79969160Y55956880I-51000J0D01*
G01*
X76159160Y55956880D01*
G75*
G02*
X76108160Y56007880I0J51000D01*
G01*
X76108160Y66167880D01*
G75*
G02*
X76159160Y66218880I51000J0D01*
G01*
X79969160Y66218880D01*
G75*
G02*
X80020160Y66167880I0J-51000D01*
G01*
G37*
%TD*%
%TO.C,JP5*%
G36*
G01*
X75448160Y79629880D02*
X75448160Y69469880D01*
G75*
G02*
X75397160Y69418880I-51000J0D01*
G01*
X71587160Y69418880D01*
G75*
G02*
X71536160Y69469880I0J51000D01*
G01*
X71536160Y79629880D01*
G75*
G02*
X71587160Y79680880I51000J0D01*
G01*
X75397160Y79680880D01*
G75*
G02*
X75448160Y79629880I0J-51000D01*
G01*
G37*
G36*
G01*
X80020160Y79629880D02*
X80020160Y69469880D01*
G75*
G02*
X79969160Y69418880I-51000J0D01*
G01*
X76159160Y69418880D01*
G75*
G02*
X76108160Y69469880I0J51000D01*
G01*
X76108160Y79629880D01*
G75*
G02*
X76159160Y79680880I51000J0D01*
G01*
X79969160Y79680880D01*
G75*
G02*
X80020160Y79629880I0J-51000D01*
G01*
G37*
%TD*%
%TO.C,JP4*%
G36*
G01*
X75448160Y92710880D02*
X75448160Y82550880D01*
G75*
G02*
X75397160Y82499880I-51000J0D01*
G01*
X71587160Y82499880D01*
G75*
G02*
X71536160Y82550880I0J51000D01*
G01*
X71536160Y92710880D01*
G75*
G02*
X71587160Y92761880I51000J0D01*
G01*
X75397160Y92761880D01*
G75*
G02*
X75448160Y92710880I0J-51000D01*
G01*
G37*
G36*
G01*
X80020160Y92710880D02*
X80020160Y82550880D01*
G75*
G02*
X79969160Y82499880I-51000J0D01*
G01*
X76159160Y82499880D01*
G75*
G02*
X76108160Y82550880I0J51000D01*
G01*
X76108160Y92710880D01*
G75*
G02*
X76159160Y92761880I51000J0D01*
G01*
X79969160Y92761880D01*
G75*
G02*
X80020160Y92710880I0J-51000D01*
G01*
G37*
%TD*%
%TO.C,U15*%
G36*
G01*
X11935160Y11138880D02*
X11935160Y12738880D01*
G75*
G02*
X11986160Y12789880I51000J0D01*
G01*
X13586160Y12789880D01*
G75*
G02*
X13637160Y12738880I0J-51000D01*
G01*
X13637160Y11138880D01*
G75*
G02*
X13586160Y11087880I-51000J0D01*
G01*
X11986160Y11087880D01*
G75*
G02*
X11935160Y11138880I0J51000D01*
G01*
G37*
D13*
X22946160Y4318880D03*
X12786160Y9398880D03*
X22946160Y6858880D03*
X12786160Y6858880D03*
X22946160Y9398880D03*
X12786160Y4318880D03*
X22946160Y11938880D03*
%TD*%
%TO.C,U9*%
G36*
G01*
X51022372Y39456560D02*
X49422372Y39456560D01*
G75*
G02*
X49371372Y39507560I0J51000D01*
G01*
X49371372Y41107560D01*
G75*
G02*
X49422372Y41158560I51000J0D01*
G01*
X51022372Y41158560D01*
G75*
G02*
X51073372Y41107560I0J-51000D01*
G01*
X51073372Y39507560D01*
G75*
G02*
X51022372Y39456560I-51000J0D01*
G01*
G37*
X52762372Y47927560D03*
X52762372Y40307560D03*
X50222372Y47927560D03*
%TD*%
D14*
%TO.C,K4*%
X88103560Y43760040D03*
X83103560Y43760040D03*
X78103560Y43760040D03*
X88103560Y51260040D03*
X83103560Y51260040D03*
X78103560Y51260040D03*
X63103560Y43760040D03*
X63103560Y51260040D03*
%TD*%
D15*
%TO.C,R30*%
X2519480Y31427720D03*
D13*
X2519480Y41587720D03*
%TD*%
%TO.C,U20*%
G36*
G01*
X62465920Y16032880D02*
X62465920Y17632880D01*
G75*
G02*
X62516920Y17683880I51000J0D01*
G01*
X64116920Y17683880D01*
G75*
G02*
X64167920Y17632880I0J-51000D01*
G01*
X64167920Y16032880D01*
G75*
G02*
X64116920Y15981880I-51000J0D01*
G01*
X62516920Y15981880D01*
G75*
G02*
X62465920Y16032880I0J51000D01*
G01*
G37*
X70936920Y9212880D03*
X63316920Y14292880D03*
X70936920Y11752880D03*
X63316920Y11752880D03*
X70936920Y14292880D03*
X63316920Y9212880D03*
X70936920Y16832880D03*
%TD*%
%TO.C,U18*%
G36*
G01*
X72173800Y19898560D02*
X70573800Y19898560D01*
G75*
G02*
X70522800Y19949560I0J51000D01*
G01*
X70522800Y21549560D01*
G75*
G02*
X70573800Y21600560I51000J0D01*
G01*
X72173800Y21600560D01*
G75*
G02*
X72224800Y21549560I0J-51000D01*
G01*
X72224800Y19949560D01*
G75*
G02*
X72173800Y19898560I-51000J0D01*
G01*
G37*
X78993800Y28369560D03*
X73913800Y20749560D03*
X76453800Y28369560D03*
X76453800Y20749560D03*
X73913800Y28369560D03*
X78993800Y20749560D03*
X71373800Y28369560D03*
%TD*%
%TO.C,U16*%
G36*
G01*
X62465920Y5004200D02*
X62465920Y6604200D01*
G75*
G02*
X62516920Y6655200I51000J0D01*
G01*
X64116920Y6655200D01*
G75*
G02*
X64167920Y6604200I0J-51000D01*
G01*
X64167920Y5004200D01*
G75*
G02*
X64116920Y4953200I-51000J0D01*
G01*
X62516920Y4953200D01*
G75*
G02*
X62465920Y5004200I0J51000D01*
G01*
G37*
X70936920Y3264200D03*
X63316920Y3264200D03*
X70936920Y5804200D03*
%TD*%
%TO.C,U10*%
G36*
G01*
X56918560Y39456560D02*
X55318560Y39456560D01*
G75*
G02*
X55267560Y39507560I0J51000D01*
G01*
X55267560Y41107560D01*
G75*
G02*
X55318560Y41158560I51000J0D01*
G01*
X56918560Y41158560D01*
G75*
G02*
X56969560Y41107560I0J-51000D01*
G01*
X56969560Y39507560D01*
G75*
G02*
X56918560Y39456560I-51000J0D01*
G01*
G37*
X58658560Y47927560D03*
X58658560Y40307560D03*
X56118560Y47927560D03*
%TD*%
%TO.C,U8*%
G36*
G01*
X45126186Y39456560D02*
X43526186Y39456560D01*
G75*
G02*
X43475186Y39507560I0J51000D01*
G01*
X43475186Y41107560D01*
G75*
G02*
X43526186Y41158560I51000J0D01*
G01*
X45126186Y41158560D01*
G75*
G02*
X45177186Y41107560I0J-51000D01*
G01*
X45177186Y39507560D01*
G75*
G02*
X45126186Y39456560I-51000J0D01*
G01*
G37*
X46866186Y47927560D03*
X46866186Y40307560D03*
X44326186Y47927560D03*
%TD*%
%TO.C,U7*%
G36*
G01*
X49242880Y12944040D02*
X49242880Y11344040D01*
G75*
G02*
X49191880Y11293040I-51000J0D01*
G01*
X47591880Y11293040D01*
G75*
G02*
X47540880Y11344040I0J51000D01*
G01*
X47540880Y12944040D01*
G75*
G02*
X47591880Y12995040I51000J0D01*
G01*
X49191880Y12995040D01*
G75*
G02*
X49242880Y12944040I0J-51000D01*
G01*
G37*
X40771880Y14684040D03*
X48391880Y14684040D03*
X40771880Y12144040D03*
%TD*%
%TO.C,U6*%
G36*
G01*
X39230000Y39456560D02*
X37630000Y39456560D01*
G75*
G02*
X37579000Y39507560I0J51000D01*
G01*
X37579000Y41107560D01*
G75*
G02*
X37630000Y41158560I51000J0D01*
G01*
X39230000Y41158560D01*
G75*
G02*
X39281000Y41107560I0J-51000D01*
G01*
X39281000Y39507560D01*
G75*
G02*
X39230000Y39456560I-51000J0D01*
G01*
G37*
X40970000Y47927560D03*
X40970000Y40307560D03*
X38430000Y47927560D03*
%TD*%
%TO.C,U2*%
G36*
G01*
X24914542Y69219194D02*
X26714542Y69219194D01*
G75*
G02*
X26765542Y69168194I0J-51000D01*
G01*
X26765542Y67368194D01*
G75*
G02*
X26714542Y67317194I-51000J0D01*
G01*
X24914542Y67317194D01*
G75*
G02*
X24863542Y67368194I0J51000D01*
G01*
X24863542Y69168194D01*
G75*
G02*
X24914542Y69219194I51000J0D01*
G01*
G37*
D16*
X25814542Y65728194D03*
X25814542Y63188194D03*
%TD*%
D11*
%TO.C,SW1*%
X17020480Y34459600D03*
X17020480Y29959600D03*
X10520480Y34459600D03*
X10520480Y29959600D03*
%TD*%
D17*
%TO.C,R28*%
X4277160Y11430880D03*
D18*
X9357160Y11430880D03*
%TD*%
D15*
%TO.C,R2*%
X81980840Y28521960D03*
D13*
X92140840Y28521960D03*
%TD*%
D15*
%TO.C,R1*%
X2616000Y51194000D03*
D13*
X12776000Y51194000D03*
%TD*%
D14*
%TO.C,K3*%
X88103560Y57287028D03*
X83103560Y57287028D03*
X78103560Y57287028D03*
X88103560Y64787028D03*
X83103560Y64787028D03*
X78103560Y64787028D03*
X63103560Y57287028D03*
X63103560Y64787028D03*
%TD*%
%TO.C,K2*%
X88103560Y70814014D03*
X83103560Y70814014D03*
X78103560Y70814014D03*
X88103560Y78314014D03*
X83103560Y78314014D03*
X78103560Y78314014D03*
X63103560Y70814014D03*
X63103560Y78314014D03*
%TD*%
%TO.C,K1*%
X88103560Y84341000D03*
X83103560Y84341000D03*
X78103560Y84341000D03*
X88103560Y91841000D03*
X83103560Y91841000D03*
X78103560Y91841000D03*
X63103560Y84341000D03*
X63103560Y91841000D03*
%TD*%
D19*
%TO.C,JP3*%
X32440680Y2476800D03*
X29900680Y2476800D03*
X27360680Y2476800D03*
%TD*%
%TO.C,JP2*%
X6309160Y38608880D03*
X6309160Y36068880D03*
X6309160Y33528880D03*
%TD*%
%TO.C,JP1*%
X32521960Y17188480D03*
X35061960Y17188480D03*
X37601960Y17188480D03*
%TD*%
D14*
%TO.C,J10*%
X88033680Y3497880D03*
X83033680Y3497880D03*
X78033680Y3497880D03*
%TD*%
%TO.C,J9*%
X3499920Y16568720D03*
X3499920Y21568720D03*
X3499920Y26568720D03*
%TD*%
D19*
%TO.C,J8*%
X33751320Y44645880D03*
X31211320Y44645880D03*
X26131320Y44645880D03*
X28671320Y44645880D03*
%TD*%
%TO.C,J7*%
X64282120Y26759200D03*
X66822120Y26759200D03*
%TD*%
D14*
%TO.C,J6*%
X96535040Y47338280D03*
X96535040Y42338280D03*
%TD*%
D19*
%TO.C,J5*%
X60685480Y36340080D03*
X63225480Y36340080D03*
%TD*%
D14*
%TO.C,J4*%
X45704560Y3492800D03*
X40704560Y3492800D03*
%TD*%
%TO.C,J3*%
X96535040Y76639720D03*
X96535040Y71639720D03*
%TD*%
%TO.C,J2*%
X96535040Y88406280D03*
X96535040Y83406280D03*
%TD*%
%TO.C,J1*%
X3499920Y82349640D03*
X3499920Y87349640D03*
%TD*%
D20*
%TO.C,F1*%
X15449000Y92913500D03*
X38049000Y92913500D03*
%TD*%
%TO.C,D1*%
G36*
G01*
X11371000Y82288500D02*
X11371000Y84488500D01*
G75*
G02*
X11422000Y84539500I51000J0D01*
G01*
X13622000Y84539500D01*
G75*
G02*
X13673000Y84488500I0J-51000D01*
G01*
X13673000Y82288500D01*
G75*
G02*
X13622000Y82237500I-51000J0D01*
G01*
X11422000Y82237500D01*
G75*
G02*
X11371000Y82288500I0J51000D01*
G01*
G37*
D21*
X22682000Y83388500D03*
%TD*%
%TO.C,C12*%
G36*
G01*
X52316280Y7117480D02*
X53916280Y7117480D01*
G75*
G02*
X53967280Y7066480I0J-51000D01*
G01*
X53967280Y5466480D01*
G75*
G02*
X53916280Y5415480I-51000J0D01*
G01*
X52316280Y5415480D01*
G75*
G02*
X52265280Y5466480I0J51000D01*
G01*
X52265280Y7066480D01*
G75*
G02*
X52316280Y7117480I51000J0D01*
G01*
G37*
D15*
X53116280Y2766480D03*
%TD*%
%TO.C,C11*%
G36*
G01*
X21196000Y43993000D02*
X19596000Y43993000D01*
G75*
G02*
X19545000Y44044000I0J51000D01*
G01*
X19545000Y45644000D01*
G75*
G02*
X19596000Y45695000I51000J0D01*
G01*
X21196000Y45695000D01*
G75*
G02*
X21247000Y45644000I0J-51000D01*
G01*
X21247000Y44044000D01*
G75*
G02*
X21196000Y43993000I-51000J0D01*
G01*
G37*
X20396000Y47344000D03*
%TD*%
%TO.C,C9*%
G36*
G01*
X89080240Y36586560D02*
X90680240Y36586560D01*
G75*
G02*
X90731240Y36535560I0J-51000D01*
G01*
X90731240Y34935560D01*
G75*
G02*
X90680240Y34884560I-51000J0D01*
G01*
X89080240Y34884560D01*
G75*
G02*
X89029240Y34935560I0J51000D01*
G01*
X89029240Y36535560D01*
G75*
G02*
X89080240Y36586560I51000J0D01*
G01*
G37*
X89880240Y33235560D03*
%TD*%
%TO.C,C5*%
G36*
G01*
X23949560Y76977440D02*
X23949560Y75377440D01*
G75*
G02*
X23898560Y75326440I-51000J0D01*
G01*
X22298560Y75326440D01*
G75*
G02*
X22247560Y75377440I0J51000D01*
G01*
X22247560Y76977440D01*
G75*
G02*
X22298560Y77028440I51000J0D01*
G01*
X23898560Y77028440D01*
G75*
G02*
X23949560Y76977440I0J-51000D01*
G01*
G37*
X20598560Y76177440D03*
%TD*%
%TO.C,C4*%
G36*
G01*
X15043000Y71698000D02*
X15043000Y69298000D01*
G75*
G02*
X14992000Y69247000I-51000J0D01*
G01*
X12592000Y69247000D01*
G75*
G02*
X12541000Y69298000I0J51000D01*
G01*
X12541000Y71698000D01*
G75*
G02*
X12592000Y71749000I51000J0D01*
G01*
X14992000Y71749000D01*
G75*
G02*
X15043000Y71698000I0J-51000D01*
G01*
G37*
D17*
X6292000Y70498000D03*
%TD*%
%TO.C,C2*%
G36*
G01*
X2273000Y45568000D02*
X2273000Y47168000D01*
G75*
G02*
X2324000Y47219000I51000J0D01*
G01*
X3924000Y47219000D01*
G75*
G02*
X3975000Y47168000I0J-51000D01*
G01*
X3975000Y45568000D01*
G75*
G02*
X3924000Y45517000I-51000J0D01*
G01*
X2324000Y45517000D01*
G75*
G02*
X2273000Y45568000I0J51000D01*
G01*
G37*
D15*
X5624000Y46368000D03*
%TD*%
M02*
