%TF.GenerationSoftware,KiCad,Pcbnew,(6.0.0-rc1-dev-882-gdbc9130da)*%
%TF.CreationDate,2018-12-23T18:02:44+08:00*%
%TF.ProjectId,interface,696E746572666163652E6B696361645F,rev?*%
%TF.SameCoordinates,Original*%
%TF.FileFunction,Copper,L1,Top,Signal*%
%TF.FilePolarity,Positive*%
%FSLAX46Y46*%
G04 Gerber Fmt 4.6, Leading zero omitted, Abs format (unit mm)*
G04 Created by KiCad (PCBNEW (6.0.0-rc1-dev-882-gdbc9130da)) date 2018/12/23 18:02:44*
%MOMM*%
%LPD*%
G01*
G04 APERTURE LIST*
%ADD10C,0.150000*%
%ADD11R,1.200000X1.200000*%
%ADD12R,1.600000X1.600000*%
%ADD13O,1.600000X1.600000*%
%ADD14R,2.500000X2.300000*%
%ADD15R,1.550000X0.600000*%
%ADD16C,2.500000*%
%ADD17C,2.000000*%
%ADD18C,1.600000*%
%ADD19C,2.800000*%
%ADD20R,0.600000X1.550000*%
%ADD21R,2.600000X1.100000*%
%ADD22R,0.600000X1.500000*%
%ADD23R,3.800000X2.000000*%
%ADD24R,1.500000X2.000000*%
%ADD25R,1.800000X1.800000*%
%ADD26O,1.800000X1.800000*%
%ADD27C,2.400000*%
%ADD28O,2.400000X2.400000*%
%ADD29C,1.800000*%
%ADD30O,4.000000X2.500000*%
%ADD31R,2.200000X2.200000*%
%ADD32O,2.200000X2.200000*%
%ADD33R,2.400000X2.400000*%
%ADD34C,1.400000*%
%ADD35C,6.000000*%
%ADD36C,1.000000*%
%ADD37C,1.200000*%
%ADD38C,1.100000*%
%ADD39C,0.762000*%
%ADD40C,0.381000*%
%ADD41C,1.000000*%
%ADD42C,0.508000*%
%ADD43C,1.016000*%
%ADD44C,2.000000*%
%ADD45C,0.254000*%
%ADD46C,7.000000*%
%ADD47C,6.000000*%
%ADD48C,5.000000*%
%ADD49C,3.000000*%
G04 APERTURE END LIST*
D10*
X100000000Y-150000000D02*
X200000000Y-150000000D01*
X200000000Y-150000000D02*
X200000000Y-50000000D01*
X100000000Y-50000000D02*
X200000000Y-50000000D01*
X100000000Y-50000000D02*
X100000000Y-150000000D01*
D11*
X173842680Y-143835120D03*
X173842680Y-141735120D03*
X173842680Y-147840120D03*
X173842680Y-145740120D03*
X193332680Y-139517120D03*
X195432680Y-139517120D03*
X178668680Y-140728120D03*
X178668680Y-138628120D03*
X146211000Y-125222000D03*
X144111000Y-125222000D03*
D12*
X150222372Y-109692440D03*
D13*
X152762372Y-102072440D03*
X152762372Y-109692440D03*
X150222372Y-102072440D03*
D14*
X191368680Y-135961120D03*
X195668680Y-135961120D03*
D11*
X173698480Y-134995920D03*
X175798480Y-134995920D03*
D15*
X178666160Y-132135880D03*
X178666160Y-133405880D03*
X178666160Y-134675880D03*
X178666160Y-135945880D03*
X184066160Y-135945880D03*
X184066160Y-134675880D03*
X184066160Y-133405880D03*
X184066160Y-132135880D03*
D16*
X188103560Y-106239960D03*
X183103560Y-106239960D03*
X178103560Y-106239960D03*
X188103560Y-98739960D03*
X183103560Y-98739960D03*
X178103560Y-98739960D03*
X163103560Y-106239960D03*
X163103560Y-98739960D03*
D17*
X106934000Y-95504000D03*
X112014000Y-95504000D03*
X117094000Y-95504000D03*
X119634000Y-95504000D03*
D18*
X102519480Y-118572280D03*
D13*
X102519480Y-108412280D03*
D14*
X181462680Y-139390120D03*
X185762680Y-139390120D03*
X126722000Y-65278000D03*
X131022000Y-65278000D03*
D19*
X131362542Y-96025806D03*
X131362542Y-73025806D03*
D12*
X163316920Y-133167120D03*
D13*
X170936920Y-140787120D03*
X163316920Y-135707120D03*
X170936920Y-138247120D03*
X163316920Y-138247120D03*
X170936920Y-135707120D03*
X163316920Y-140787120D03*
X170936920Y-133167120D03*
D12*
X171373800Y-129250440D03*
D13*
X178993800Y-121630440D03*
X173913800Y-129250440D03*
X176453800Y-121630440D03*
X176453800Y-129250440D03*
X173913800Y-121630440D03*
X178993800Y-129250440D03*
X171373800Y-121630440D03*
D15*
X128369080Y-138211560D03*
X128369080Y-139481560D03*
X128369080Y-140751560D03*
X128369080Y-142021560D03*
X133769080Y-142021560D03*
X133769080Y-140751560D03*
X133769080Y-139481560D03*
X133769080Y-138211560D03*
D12*
X163316920Y-144195800D03*
D13*
X170936920Y-146735800D03*
X163316920Y-146735800D03*
X170936920Y-144195800D03*
D12*
X116037360Y-137972800D03*
D13*
X123657360Y-145592800D03*
X116037360Y-140512800D03*
X123657360Y-143052800D03*
X116037360Y-143052800D03*
X123657360Y-140512800D03*
X116037360Y-145592800D03*
X123657360Y-137972800D03*
D20*
X112849560Y-132417800D03*
X114119560Y-132417800D03*
X115389560Y-132417800D03*
X116659560Y-132417800D03*
X116659560Y-127017800D03*
X115389560Y-127017800D03*
X114119560Y-127017800D03*
X112849560Y-127017800D03*
D15*
X147668000Y-127381000D03*
X147668000Y-128651000D03*
X147668000Y-129921000D03*
X147668000Y-131191000D03*
X153068000Y-131191000D03*
X153068000Y-129921000D03*
X153068000Y-128651000D03*
X153068000Y-127381000D03*
D21*
X125485160Y-129265440D03*
X141235160Y-129265440D03*
X125485160Y-127265440D03*
X141235160Y-127265440D03*
X125485160Y-125265440D03*
X141235160Y-125265440D03*
X125485160Y-123265440D03*
X141235160Y-123265440D03*
X125485160Y-121265440D03*
X141235160Y-121265440D03*
X125485160Y-119265440D03*
X141235160Y-119265440D03*
X125485160Y-117265440D03*
X141235160Y-117265440D03*
X125485160Y-115265440D03*
X141235160Y-115265440D03*
D22*
X154895000Y-116550000D03*
X153625000Y-116550000D03*
X152355000Y-116550000D03*
X151085000Y-116550000D03*
X149815000Y-116550000D03*
X148545000Y-116550000D03*
X147275000Y-116550000D03*
X146005000Y-116550000D03*
X146005000Y-121950000D03*
X147275000Y-121950000D03*
X148545000Y-121950000D03*
X149815000Y-121950000D03*
X151085000Y-121950000D03*
X152355000Y-121950000D03*
X153625000Y-121950000D03*
X154895000Y-121950000D03*
D12*
X156118560Y-109692440D03*
D13*
X158658560Y-102072440D03*
X158658560Y-109692440D03*
X156118560Y-102072440D03*
D12*
X144326186Y-109692440D03*
D13*
X146866186Y-102072440D03*
X146866186Y-109692440D03*
X144326186Y-102072440D03*
D12*
X148391880Y-137855960D03*
D13*
X140771880Y-135315960D03*
X148391880Y-135315960D03*
X140771880Y-137855960D03*
D12*
X138430000Y-109692440D03*
D13*
X140970000Y-102072440D03*
X140970000Y-109692440D03*
X138430000Y-102072440D03*
D23*
X113538000Y-108306000D03*
D24*
X113538000Y-102006000D03*
X111238000Y-102006000D03*
X115838000Y-102006000D03*
D22*
X148341080Y-89822000D03*
X149611080Y-89822000D03*
X150881080Y-89822000D03*
X152151080Y-89822000D03*
X153421080Y-89822000D03*
X154691080Y-89822000D03*
X155961080Y-89822000D03*
X157231080Y-89822000D03*
X157231080Y-84422000D03*
X155961080Y-84422000D03*
X154691080Y-84422000D03*
X153421080Y-84422000D03*
X152151080Y-84422000D03*
X150881080Y-84422000D03*
X149611080Y-84422000D03*
X148341080Y-84422000D03*
D17*
X181538880Y-110794800D03*
X176458880Y-110794800D03*
X171378880Y-110794800D03*
X168838880Y-110794800D03*
D25*
X125814542Y-81731806D03*
D26*
X125814542Y-84271806D03*
X125814542Y-86811806D03*
D17*
X117020480Y-115540400D03*
X117020480Y-120040400D03*
X110520480Y-115540400D03*
X110520480Y-120040400D03*
D11*
X173673800Y-137037600D03*
X175773800Y-137037600D03*
X158909040Y-135656320D03*
X161009040Y-135656320D03*
X191072480Y-132265420D03*
X188972480Y-132265420D03*
X175231480Y-131820920D03*
X173131480Y-131820920D03*
X186847480Y-132392420D03*
X186847480Y-130292420D03*
X177381480Y-119247920D03*
X179481480Y-119247920D03*
X135031480Y-146500160D03*
X135031480Y-148600160D03*
X130789680Y-144769840D03*
X132889680Y-144769840D03*
X126121160Y-142506120D03*
X126121160Y-140406120D03*
X188942980Y-130169920D03*
X191042980Y-130169920D03*
X126121160Y-138315120D03*
X126121160Y-136215120D03*
X158909040Y-144205960D03*
X161009040Y-144205960D03*
X109987080Y-125166120D03*
X109987080Y-123066120D03*
X110617000Y-128397000D03*
X110617000Y-130497000D03*
D27*
X111394240Y-138663680D03*
D28*
X111394240Y-143743680D03*
D11*
X105365840Y-119476520D03*
X107465840Y-119476520D03*
X144104360Y-129473960D03*
X144104360Y-127373960D03*
X155410480Y-132593080D03*
X157510480Y-132593080D03*
X155380000Y-130469640D03*
X157480000Y-130469640D03*
X157183906Y-96963520D03*
X157183906Y-99063520D03*
X154619960Y-112085120D03*
X156719960Y-112085120D03*
X159263080Y-99063520D03*
X159263080Y-96963520D03*
X153025564Y-96963520D03*
X153025564Y-99063520D03*
X131233160Y-111230120D03*
X131233160Y-109130120D03*
X129106680Y-111230120D03*
X129106680Y-109130120D03*
X150376200Y-112085120D03*
X152476200Y-112085120D03*
X120419440Y-119278400D03*
X122519440Y-119278400D03*
X155104735Y-99063520D03*
X155104735Y-96963520D03*
X135326120Y-111230120D03*
X135326120Y-109130120D03*
X125013720Y-111230120D03*
X125013720Y-109130120D03*
X150946393Y-96963520D03*
X150946393Y-99063520D03*
X147624800Y-112085120D03*
X145524800Y-112085120D03*
X162209480Y-127873760D03*
X164309480Y-127873760D03*
X148867222Y-99063520D03*
X148867222Y-96963520D03*
X158834400Y-118201440D03*
X160934400Y-118201440D03*
X146788051Y-96963520D03*
X146788051Y-99063520D03*
X141710120Y-112085120D03*
X139610120Y-112085120D03*
X153100000Y-139700000D03*
X151000000Y-139700000D03*
X144708880Y-99063520D03*
X144708880Y-96963520D03*
X138277600Y-140374080D03*
X138277600Y-138274080D03*
D18*
X181980840Y-121478040D03*
D13*
X192140840Y-121478040D03*
D18*
X102616000Y-98806000D03*
D13*
X112776000Y-98806000D03*
D16*
X188103560Y-92712972D03*
X183103560Y-92712972D03*
X178103560Y-92712972D03*
X188103560Y-85212972D03*
X183103560Y-85212972D03*
X178103560Y-85212972D03*
X163103560Y-92712972D03*
X163103560Y-85212972D03*
X188103560Y-79185986D03*
X183103560Y-79185986D03*
X178103560Y-79185986D03*
X188103560Y-71685986D03*
X183103560Y-71685986D03*
X178103560Y-71685986D03*
X163103560Y-79185986D03*
X163103560Y-71685986D03*
X188103560Y-65659000D03*
X183103560Y-65659000D03*
X178103560Y-65659000D03*
X188103560Y-58159000D03*
X183103560Y-58159000D03*
X178103560Y-58159000D03*
X163103560Y-65659000D03*
X163103560Y-58159000D03*
D29*
X132440680Y-147523200D03*
X129900680Y-147523200D03*
X127360680Y-147523200D03*
X107416600Y-116443760D03*
X107416600Y-113903760D03*
X107416600Y-111363760D03*
X132521960Y-132811520D03*
X135061960Y-132811520D03*
X137601960Y-132811520D03*
D16*
X188033680Y-146502120D03*
X183033680Y-146502120D03*
X178033680Y-146502120D03*
X103499920Y-133431280D03*
X103499920Y-128431280D03*
X103499920Y-123431280D03*
D29*
X133751320Y-105354120D03*
X131211320Y-105354120D03*
X126131320Y-105354120D03*
X128671320Y-105354120D03*
X164282120Y-123240800D03*
X166822120Y-123240800D03*
D16*
X196535040Y-102661720D03*
X196535040Y-107661720D03*
D29*
X160685480Y-113659920D03*
X163225480Y-113659920D03*
D16*
X145704560Y-146507200D03*
X140704560Y-146507200D03*
X196535040Y-73360280D03*
X196535040Y-78360280D03*
X196535040Y-61593720D03*
X196535040Y-66593720D03*
X103499920Y-67650360D03*
X103499920Y-62650360D03*
D30*
X115449000Y-57086500D03*
X138049000Y-57086500D03*
D11*
X128229360Y-136276080D03*
X130429360Y-136276080D03*
X133279640Y-109130120D03*
X133279640Y-111330120D03*
X127060200Y-109130120D03*
X127060200Y-111330120D03*
X168346480Y-127848360D03*
X166146480Y-127848360D03*
X165029240Y-118257320D03*
X162829240Y-118257320D03*
D31*
X112522000Y-66611500D03*
D32*
X122682000Y-66611500D03*
D11*
X173131480Y-119120920D03*
X171031480Y-119120920D03*
X184322720Y-130271520D03*
X182222720Y-130271520D03*
X136093200Y-138280720D03*
X136093200Y-140380720D03*
X112904560Y-124322840D03*
X115004560Y-124322840D03*
X158391280Y-127071120D03*
X156291280Y-127071120D03*
X122692160Y-129616200D03*
X122692160Y-131716200D03*
X158907480Y-122168920D03*
X156807480Y-122168920D03*
D12*
X153116280Y-143733520D03*
D18*
X153116280Y-147233520D03*
D12*
X120396000Y-105156000D03*
D18*
X120396000Y-102656000D03*
D11*
X187814240Y-111038640D03*
X189914240Y-111038640D03*
D12*
X189880240Y-114264440D03*
D18*
X189880240Y-116764440D03*
D11*
X165103520Y-110159800D03*
X163003520Y-110159800D03*
X122428000Y-86931500D03*
X122428000Y-84831500D03*
X122686500Y-77851000D03*
X120586500Y-77851000D03*
D12*
X123098560Y-73822560D03*
D18*
X120598560Y-73822560D03*
D33*
X113792000Y-79502000D03*
D27*
X106292000Y-79502000D03*
D11*
X108458000Y-101566000D03*
X108458000Y-103666000D03*
D12*
X103124000Y-103632000D03*
D18*
X105624000Y-103632000D03*
D11*
X123376000Y-95504000D03*
X125476000Y-95504000D03*
D34*
X157734000Y-81788000D03*
D35*
X105000000Y-55000000D03*
X195000000Y-55000000D03*
X105000000Y-145000000D03*
X195000000Y-145000000D03*
D36*
X117030500Y-124333000D03*
X147447000Y-95123000D03*
X151257000Y-95123000D03*
X153162000Y-95123000D03*
X156713312Y-95127688D03*
X158115000Y-91821000D03*
D37*
X134112000Y-65278000D03*
D36*
X127101600Y-95453200D03*
X116977160Y-134505120D03*
X109103154Y-128409120D03*
D38*
X122671840Y-133324600D03*
D36*
X132334000Y-136271000D03*
X136144000Y-142113000D03*
X160050480Y-127121920D03*
X142016480Y-131185920D03*
X144048480Y-131185920D03*
X146080480Y-132455920D03*
X174782480Y-119120920D03*
X145648680Y-114980720D03*
X128884680Y-143327126D03*
X136662160Y-148348120D03*
X182275480Y-128518920D03*
X176230982Y-133512719D03*
X185831480Y-136138920D03*
X192752980Y-130169920D03*
D27*
X188117480Y-135249920D03*
D36*
X191216280Y-112186720D03*
D27*
X189336696Y-139009120D03*
D36*
X135539480Y-135884920D03*
X122026680Y-134945120D03*
X159009800Y-120660533D03*
X144227000Y-116514400D03*
X156483733Y-119779533D03*
X156591000Y-124206000D03*
X143739163Y-121450833D03*
X153161998Y-125476000D03*
X140162280Y-131389120D03*
X129006980Y-130889121D03*
X122737880Y-123261120D03*
X151003000Y-125603020D03*
X155732480Y-128772920D03*
X148717000Y-117991008D03*
X122738600Y-125201200D03*
X144398994Y-123444000D03*
X122738600Y-127284000D03*
X148821931Y-123894249D03*
X136048200Y-125963200D03*
X149840782Y-126881692D03*
D39*
X119634000Y-95504000D02*
X123376000Y-95504000D01*
X104465120Y-108412280D02*
X107416600Y-111363760D01*
X102519480Y-108412280D02*
X104465120Y-108412280D01*
D40*
X112904560Y-126962800D02*
X112849560Y-127017800D01*
X112904560Y-124322840D02*
X112904560Y-126962800D01*
D41*
X125694848Y-86931500D02*
X125814542Y-86811806D01*
X122428000Y-86931500D02*
X125694848Y-86931500D01*
X125814542Y-90652458D02*
X123376000Y-93091000D01*
X125814542Y-86811806D02*
X125814542Y-90652458D01*
X123376000Y-93091000D02*
X123376000Y-95504000D01*
D39*
X123376000Y-96866000D02*
X126459000Y-99949000D01*
X123376000Y-95504000D02*
X123376000Y-96866000D01*
X136306560Y-99949000D02*
X138430000Y-102072440D01*
X126459000Y-99949000D02*
X136306560Y-99949000D01*
D42*
X157231080Y-82163920D02*
X157231080Y-84422000D01*
X157734000Y-81788000D02*
X157231080Y-82163920D01*
D41*
X164353559Y-70435987D02*
X163103560Y-71685986D01*
X165862000Y-68927546D02*
X164353559Y-70435987D01*
X165862000Y-60917440D02*
X165862000Y-68927546D01*
X163103560Y-58159000D02*
X165862000Y-60917440D01*
X164353559Y-83962973D02*
X163103560Y-85212972D01*
X165234561Y-83081971D02*
X164353559Y-83962973D01*
X165234561Y-73816987D02*
X165234561Y-83081971D01*
X163103560Y-71685986D02*
X165234561Y-73816987D01*
X164353559Y-97489961D02*
X163103560Y-98739960D01*
X165234561Y-96608959D02*
X164353559Y-97489961D01*
X165234561Y-87343973D02*
X165234561Y-96608959D01*
X163103560Y-85212972D02*
X165234561Y-87343973D01*
D42*
X165738520Y-110794800D02*
X165103520Y-110159800D01*
X168838880Y-110794800D02*
X165738520Y-110794800D01*
X112904560Y-115578928D02*
X112904560Y-123214840D01*
X108689392Y-111363760D02*
X112904560Y-115578928D01*
X107416600Y-111363760D02*
X108689392Y-111363760D01*
D39*
X168838880Y-104475280D02*
X168838880Y-110794800D01*
X163103560Y-98739960D02*
X168838880Y-104475280D01*
X167838881Y-109794801D02*
X168838880Y-110794800D01*
X166714879Y-108670799D02*
X167838881Y-109794801D01*
X162431653Y-108670799D02*
X166714879Y-108670799D01*
X156918559Y-103157705D02*
X162431653Y-108670799D01*
X156918559Y-102872439D02*
X156918559Y-103157705D01*
X156118560Y-102072440D02*
X156918559Y-102872439D01*
X143526187Y-102872439D02*
X144326186Y-102072440D01*
X142764185Y-103634441D02*
X143526187Y-102872439D01*
X138860631Y-103634441D02*
X142764185Y-103634441D01*
X138430000Y-103203810D02*
X138860631Y-103634441D01*
X138430000Y-102072440D02*
X138430000Y-103203810D01*
X149422373Y-102872439D02*
X150222372Y-102072440D01*
X148660371Y-103634441D02*
X149422373Y-102872439D01*
X145888187Y-103634441D02*
X148660371Y-103634441D01*
X144326186Y-102072440D02*
X145888187Y-103634441D01*
X155318561Y-102872439D02*
X156118560Y-102072440D01*
X154556559Y-103634441D02*
X155318561Y-102872439D01*
X151784373Y-103634441D02*
X154556559Y-103634441D01*
X150222372Y-102072440D02*
X151784373Y-103634441D01*
X101719481Y-107612281D02*
X102519480Y-108412280D01*
X101053999Y-106946799D02*
X101719481Y-107612281D01*
X101053999Y-98056239D02*
X101053999Y-106946799D01*
X112178738Y-86931500D02*
X101053999Y-98056239D01*
X122428000Y-86931500D02*
X112178738Y-86931500D01*
D42*
X115346480Y-143743680D02*
X116037360Y-143052800D01*
X111394240Y-143743680D02*
X115346480Y-143743680D01*
X116726161Y-147027801D02*
X114678361Y-147027801D01*
X114678361Y-147027801D02*
X112594239Y-144943679D01*
X118292501Y-123727239D02*
X118292501Y-145461461D01*
X117526101Y-122960839D02*
X118292501Y-123727239D01*
X118292501Y-145461461D02*
X116726161Y-147027801D01*
X113158561Y-122960839D02*
X117526101Y-122960839D01*
X112594239Y-144943679D02*
X111394240Y-143743680D01*
X112904560Y-123214840D02*
X113158561Y-122960839D01*
X112904560Y-124322840D02*
X112904560Y-123214840D01*
D40*
X115985560Y-124322840D02*
X115995720Y-124333000D01*
X115004560Y-124322840D02*
X115985560Y-124322840D01*
X115995720Y-124333000D02*
X117030500Y-124333000D01*
D41*
X120598560Y-77838940D02*
X120586500Y-77851000D01*
X120598560Y-73822560D02*
X120598560Y-77838940D01*
D39*
X123790000Y-84831500D02*
X122428000Y-84831500D01*
X124312994Y-84308506D02*
X123790000Y-84831500D01*
X124312994Y-84271806D02*
X124312994Y-84308506D01*
X125814542Y-84271806D02*
X124312994Y-84271806D01*
D40*
X146788051Y-96963520D02*
X146788051Y-95781949D01*
X146788051Y-95781949D02*
X147447000Y-95123000D01*
X150946393Y-96963520D02*
X150946393Y-95433607D01*
X150946393Y-95433607D02*
X151257000Y-95123000D01*
X153025564Y-96963520D02*
X153025564Y-95259436D01*
X153025564Y-95259436D02*
X153162000Y-95123000D01*
X157183906Y-96963520D02*
X157183906Y-95598282D01*
X157183906Y-95598282D02*
X156713312Y-95127688D01*
X157231080Y-91815920D02*
X157231080Y-89822000D01*
X157226000Y-91821000D02*
X157231080Y-91815920D01*
X155961080Y-91815920D02*
X155956000Y-91821000D01*
X155961080Y-89822000D02*
X155961080Y-91815920D01*
X155956000Y-91821000D02*
X157226000Y-91821000D01*
X154686000Y-90958080D02*
X154686000Y-91821000D01*
X154691080Y-90953000D02*
X154686000Y-90958080D01*
X154691080Y-89822000D02*
X154691080Y-90953000D01*
X154686000Y-91821000D02*
X155956000Y-91821000D01*
X153421080Y-89822000D02*
X153421080Y-91318080D01*
X153924000Y-91821000D02*
X154686000Y-91821000D01*
X153421080Y-91318080D02*
X153924000Y-91821000D01*
X157226000Y-91821000D02*
X158115000Y-91821000D01*
D39*
X131022000Y-65278000D02*
X134112000Y-65278000D01*
D42*
X125476000Y-95504000D02*
X127050800Y-95504000D01*
X127050800Y-95504000D02*
X127101600Y-95453200D01*
D40*
X170378881Y-111794799D02*
X171378880Y-110794800D01*
X169680379Y-112493301D02*
X170378881Y-111794799D01*
X164356021Y-112493301D02*
X169680379Y-112493301D01*
X163003520Y-111140800D02*
X164356021Y-112493301D01*
X163003520Y-110159800D02*
X163003520Y-111140800D01*
X116659560Y-132417800D02*
X116659560Y-134187520D01*
X116659560Y-134187520D02*
X116977160Y-134505120D01*
X109115274Y-128397000D02*
X109103154Y-128409120D01*
X110617000Y-128397000D02*
X109115274Y-128397000D01*
D41*
X105918000Y-95504000D02*
X102616000Y-98806000D01*
X106934000Y-95504000D02*
X105918000Y-95504000D01*
X102616000Y-103124000D02*
X103124000Y-103632000D01*
X102616000Y-98806000D02*
X102616000Y-103124000D01*
X110798000Y-101566000D02*
X111238000Y-102006000D01*
X108458000Y-101566000D02*
X110798000Y-101566000D01*
D42*
X103124000Y-102324000D02*
X103124000Y-103632000D01*
X103882000Y-101566000D02*
X103124000Y-102324000D01*
X108458000Y-101566000D02*
X103882000Y-101566000D01*
X122692160Y-131716200D02*
X122692160Y-133304280D01*
D41*
X112014000Y-98044000D02*
X112776000Y-98806000D01*
X112014000Y-95504000D02*
X112014000Y-98044000D01*
X119746000Y-102006000D02*
X120396000Y-102656000D01*
X115838000Y-102006000D02*
X119746000Y-102006000D01*
X108424000Y-103632000D02*
X108458000Y-103666000D01*
X105624000Y-103632000D02*
X108424000Y-103632000D01*
D40*
X130429360Y-136276080D02*
X132328920Y-136276080D01*
X132328920Y-136276080D02*
X132334000Y-136271000D01*
D42*
X136093200Y-140380720D02*
X136093200Y-142062200D01*
X136093200Y-142062200D02*
X136144000Y-142113000D01*
X158391280Y-127071120D02*
X159999680Y-127071120D01*
X159999680Y-127071120D02*
X160050480Y-127121920D01*
X141235160Y-129265440D02*
X141235160Y-130404600D01*
X141235160Y-130404600D02*
X142016480Y-131185920D01*
X144104360Y-129473960D02*
X144104360Y-131130040D01*
X144104360Y-131130040D02*
X144048480Y-131185920D01*
X146385000Y-127381000D02*
X146080480Y-127685520D01*
X147668000Y-127381000D02*
X146385000Y-127381000D01*
X146080480Y-132074920D02*
X146080480Y-132455920D01*
X146085560Y-131191000D02*
X146080480Y-131185920D01*
X147668000Y-131191000D02*
X146085560Y-131191000D01*
X146080480Y-131185920D02*
X146080480Y-132074920D01*
X146212560Y-129921000D02*
X146080480Y-129788920D01*
X147668000Y-129921000D02*
X146212560Y-129921000D01*
X146080480Y-129788920D02*
X146080480Y-131185920D01*
X146202400Y-128651000D02*
X146080480Y-128772920D01*
X147668000Y-128651000D02*
X146202400Y-128651000D01*
X146080480Y-127685520D02*
X146080480Y-128772920D01*
X146080480Y-128772920D02*
X146080480Y-129788920D01*
X173131480Y-119120920D02*
X174782480Y-119120920D01*
X146005000Y-116550000D02*
X146005000Y-115337040D01*
X146005000Y-115337040D02*
X145648680Y-114980720D01*
D43*
X158907480Y-125978920D02*
X160042471Y-127113911D01*
X158907480Y-122168920D02*
X158907480Y-125978920D01*
X158907480Y-126554920D02*
X158391280Y-127071120D01*
X158907480Y-122168920D02*
X158907480Y-126554920D01*
D40*
X128369080Y-142021560D02*
X128369080Y-142811526D01*
X128384681Y-142827127D02*
X128884680Y-143327126D01*
X128369080Y-142811526D02*
X128384681Y-142827127D01*
X126605720Y-142021560D02*
X126121160Y-142506120D01*
X128369080Y-142021560D02*
X126605720Y-142021560D01*
X135031480Y-148600160D02*
X136410120Y-148600160D01*
X136410120Y-148600160D02*
X136662160Y-148348120D01*
D41*
X123098560Y-72022560D02*
X123098560Y-73822560D01*
X117687500Y-66611500D02*
X123098560Y-72022560D01*
X112522000Y-66611500D02*
X117687500Y-66611500D01*
X125814542Y-79379042D02*
X125814542Y-81731806D01*
X122686500Y-77851000D02*
X124286500Y-77851000D01*
X124286500Y-77851000D02*
X125814542Y-79379042D01*
X122686500Y-76034620D02*
X122686500Y-77851000D01*
X123098560Y-73822560D02*
X123098560Y-75622560D01*
X123098560Y-75622560D02*
X122686500Y-76034620D01*
X122686500Y-78841600D02*
X122686500Y-77851000D01*
X122026100Y-79502000D02*
X122686500Y-78841600D01*
X113792000Y-79502000D02*
X122026100Y-79502000D01*
D40*
X184066160Y-132135880D02*
X184500520Y-132135880D01*
X184500520Y-132135880D02*
X184815480Y-131820920D01*
X184815480Y-131820920D02*
X184815480Y-130042920D01*
X173698480Y-134995920D02*
X172717480Y-134995920D01*
X172496480Y-134995920D02*
X171099480Y-133598920D01*
X172717480Y-134995920D02*
X172496480Y-134995920D01*
X173258480Y-133055920D02*
X174055480Y-133852920D01*
X173258480Y-132074920D02*
X173258480Y-133055920D01*
X174055480Y-135214920D02*
X174020480Y-135249920D01*
X174055480Y-133852920D02*
X174055480Y-135214920D01*
D42*
X173131480Y-131820920D02*
X171201278Y-131820920D01*
X171201278Y-131820920D02*
X169938799Y-130558441D01*
X177843279Y-125615601D02*
X181980840Y-121478040D01*
X184322720Y-122438160D02*
X184322720Y-127883920D01*
X183362600Y-121478040D02*
X184322720Y-122438160D01*
X181980840Y-121478040D02*
X183362600Y-121478040D01*
X169974161Y-126867920D02*
X171226480Y-125615601D01*
X169938799Y-126867920D02*
X169974161Y-126867920D01*
X171226480Y-125615601D02*
X177843279Y-125615601D01*
X169938799Y-130558441D02*
X169938799Y-126867920D01*
X184322720Y-127883920D02*
X184322720Y-128836420D01*
X184322720Y-128836420D02*
X184322720Y-130271520D01*
X192180480Y-132265420D02*
X191072480Y-132265420D01*
X192337282Y-132265420D02*
X192180480Y-132265420D01*
X193887981Y-130714721D02*
X192337282Y-132265420D01*
X193887981Y-129625119D02*
X193887981Y-130714721D01*
X192146782Y-127883920D02*
X193887981Y-129625119D01*
X184322720Y-127883920D02*
X192146782Y-127883920D01*
D39*
X187570400Y-110794800D02*
X187814240Y-111038640D01*
X181538880Y-110794800D02*
X187570400Y-110794800D01*
X187814240Y-112198440D02*
X189880240Y-114264440D01*
X187814240Y-111038640D02*
X187814240Y-112198440D01*
X189194440Y-114264440D02*
X189880240Y-114264440D01*
X181980840Y-121478040D02*
X189194440Y-114264440D01*
D42*
X169938799Y-131782919D02*
X169976800Y-131820920D01*
X169938799Y-126867920D02*
X169938799Y-131782919D01*
X173131480Y-131820920D02*
X169976800Y-131820920D01*
D40*
X173698480Y-137012920D02*
X173673800Y-137037600D01*
X173698480Y-134995920D02*
X173698480Y-137012920D01*
D39*
X170136921Y-143395801D02*
X170936920Y-144195800D01*
X169374919Y-142633799D02*
X170136921Y-143395801D01*
X169374919Y-133597751D02*
X169374919Y-142633799D01*
X169805550Y-133167120D02*
X169374919Y-133597751D01*
X170936920Y-133167120D02*
X169805550Y-133167120D01*
D40*
X182222720Y-130271520D02*
X182222720Y-128571680D01*
X182222720Y-128571680D02*
X182275480Y-128518920D01*
X175798480Y-134995920D02*
X175798480Y-133945221D01*
X175798480Y-133945221D02*
X176230982Y-133512719D01*
X184066160Y-135945880D02*
X185638440Y-135945880D01*
X185638440Y-135945880D02*
X185831480Y-136138920D01*
D42*
X191042980Y-130169920D02*
X192752980Y-130169920D01*
X189914240Y-111038640D02*
X189966600Y-111038640D01*
X189966600Y-111038640D02*
X191114680Y-112186720D01*
X191114680Y-112186720D02*
X191216280Y-112186720D01*
D44*
X189012680Y-139390120D02*
X189336696Y-139066104D01*
X189336696Y-139066104D02*
X189336696Y-139009120D01*
X185762680Y-139390120D02*
X189012680Y-139390120D01*
X189336696Y-136469136D02*
X188117480Y-135249920D01*
X189336696Y-139009120D02*
X189336696Y-136469136D01*
X188828680Y-135961120D02*
X188117480Y-135249920D01*
X191368680Y-135961120D02*
X188828680Y-135961120D01*
D39*
X171884920Y-141735120D02*
X170936920Y-140787120D01*
X173842680Y-141735120D02*
X171884920Y-141735120D01*
D42*
X122580160Y-129504200D02*
X122692160Y-129616200D01*
X125485160Y-129265440D02*
X123058160Y-129265440D01*
D39*
X121958000Y-105156000D02*
X120396000Y-105156000D01*
X114438000Y-108306000D02*
X113538000Y-108306000D01*
X117588000Y-105156000D02*
X114438000Y-108306000D01*
X120396000Y-105156000D02*
X117588000Y-105156000D01*
X125933200Y-105156000D02*
X126131320Y-105354120D01*
X120396000Y-105156000D02*
X125933200Y-105156000D01*
D41*
X126131320Y-105354120D02*
X126131320Y-107040680D01*
X125013720Y-108158280D02*
X125013720Y-108331000D01*
X126131320Y-107040680D02*
X125013720Y-108158280D01*
X125013720Y-108331000D02*
X125013720Y-109130120D01*
X135326120Y-109130120D02*
X136054120Y-109130120D01*
X136616440Y-109692440D02*
X138430000Y-109692440D01*
X136054120Y-109130120D02*
X136616440Y-109692440D01*
D42*
X113538000Y-100498000D02*
X113538000Y-102006000D01*
X114996320Y-99039680D02*
X113538000Y-100498000D01*
X122047000Y-99039680D02*
X114996320Y-99039680D01*
X126131320Y-103124000D02*
X122047000Y-99039680D01*
X126131320Y-105354120D02*
X126131320Y-103124000D01*
X138215080Y-138211560D02*
X138277600Y-138274080D01*
X133769080Y-138211560D02*
X138215080Y-138211560D01*
X164125479Y-114559919D02*
X164125479Y-114595479D01*
X163225480Y-113659920D02*
X164125479Y-114559919D01*
X165227000Y-115697000D02*
X165227000Y-118364000D01*
X164125479Y-114595479D02*
X165227000Y-115697000D01*
D39*
X119057440Y-119278400D02*
X120419440Y-119278400D01*
X117150717Y-118278399D02*
X118057439Y-118278399D01*
X115258479Y-116386161D02*
X117150717Y-118278399D01*
X115258479Y-111855521D02*
X115258479Y-116386161D01*
X120396000Y-106718000D02*
X115258479Y-111855521D01*
X118057439Y-118278399D02*
X119057440Y-119278400D01*
X120396000Y-105156000D02*
X120396000Y-106718000D01*
D42*
X136093200Y-136692640D02*
X136093200Y-138280720D01*
D39*
X120465160Y-129616200D02*
X120419440Y-129661920D01*
D42*
X120419440Y-128705480D02*
X120419440Y-129661920D01*
X120419440Y-129661920D02*
X120419440Y-133464880D01*
D39*
X120419440Y-119278400D02*
X120419440Y-127375920D01*
X120419440Y-127375920D02*
X120419440Y-128705480D01*
X122692160Y-129616200D02*
X120465160Y-129616200D01*
D42*
X121354160Y-129616200D02*
X120419440Y-130550920D01*
X122692160Y-129616200D02*
X121354160Y-129616200D01*
D39*
X120419440Y-130550920D02*
X120419440Y-133464880D01*
D42*
X121516720Y-129616200D02*
X120419440Y-128518920D01*
X122692160Y-129616200D02*
X121516720Y-129616200D01*
D39*
X120419440Y-127375920D02*
X120419440Y-128518920D01*
X120419440Y-128518920D02*
X120419440Y-130550920D01*
D42*
X156807480Y-121060920D02*
X156807480Y-122168920D01*
X158376079Y-119492321D02*
X156807480Y-121060920D01*
X163794239Y-119492321D02*
X158376079Y-119492321D01*
X165029240Y-118257320D02*
X163794239Y-119492321D01*
X156807480Y-122168920D02*
X155097480Y-122168920D01*
X156291280Y-127071120D02*
X155183280Y-127071120D01*
X155183280Y-127071120D02*
X154873400Y-127381000D01*
X157510480Y-130500120D02*
X157480000Y-130469640D01*
X157510480Y-132593080D02*
X157510480Y-130500120D01*
X157510480Y-134257760D02*
X158909040Y-135656320D01*
X157510480Y-132593080D02*
X157510480Y-134257760D01*
X158909040Y-135656320D02*
X158909040Y-144205960D01*
X156291280Y-127071120D02*
X156291280Y-127553720D01*
X157480000Y-128742440D02*
X157480000Y-130469640D01*
X156291280Y-127553720D02*
X157480000Y-128742440D01*
X166137240Y-118257320D02*
X165029240Y-118257320D01*
X166822120Y-118942200D02*
X166137240Y-118257320D01*
X166822120Y-123240800D02*
X166822120Y-118942200D01*
X168712240Y-126740360D02*
X168712240Y-127848360D01*
X166822120Y-124850240D02*
X168712240Y-126740360D01*
X166822120Y-123240800D02*
X166822120Y-124850240D01*
X167035480Y-123438920D02*
X166908480Y-123311920D01*
X171031480Y-119120920D02*
X169321480Y-119120920D01*
X169321480Y-119120920D02*
X168686480Y-119755920D01*
X168178480Y-123438920D02*
X168686480Y-122930920D01*
X168686480Y-119755920D02*
X168686480Y-122930920D01*
X168178480Y-123438920D02*
X167035480Y-123438920D01*
X171031480Y-121288120D02*
X171373800Y-121630440D01*
X171031480Y-119120920D02*
X171031480Y-121288120D01*
D39*
X136093200Y-136438640D02*
X136093200Y-136692640D01*
X135539480Y-135884920D02*
X136093200Y-136438640D01*
X136093200Y-136438640D02*
X136093200Y-138280720D01*
D42*
X127031319Y-104454121D02*
X126131320Y-105354120D01*
X127666321Y-103819119D02*
X127031319Y-104454121D01*
X134488121Y-103819119D02*
X127666321Y-103819119D01*
X135326120Y-104657118D02*
X134488121Y-103819119D01*
X135326120Y-109130120D02*
X135326120Y-104657118D01*
D39*
X148660371Y-108130439D02*
X150222372Y-109692440D01*
X144326187Y-108130439D02*
X148660371Y-108130439D01*
X144326186Y-109692440D02*
X144326187Y-108130439D01*
X142764185Y-108130439D02*
X144326186Y-109692440D01*
X138430001Y-108130439D02*
X142764185Y-108130439D01*
X138430000Y-109692440D02*
X138430001Y-108130439D01*
X154556559Y-108130439D02*
X156118560Y-109692440D01*
X150222373Y-108130439D02*
X154556559Y-108130439D01*
X150222372Y-109692440D02*
X150222373Y-108130439D01*
X162325481Y-112759921D02*
X163225480Y-113659920D01*
X161514519Y-111948959D02*
X162325481Y-112759921D01*
X161514519Y-110236637D02*
X161514519Y-111948959D01*
X159408321Y-108130439D02*
X161514519Y-110236637D01*
X156118561Y-108130439D02*
X159408321Y-108130439D01*
X156118560Y-109692440D02*
X156118561Y-108130439D01*
D40*
X177381480Y-118266920D02*
X177381480Y-119247920D01*
X177063979Y-117949419D02*
X177381480Y-118266920D01*
X171221981Y-117949419D02*
X177063979Y-117949419D01*
X171031480Y-118139920D02*
X171221981Y-117949419D01*
X171031480Y-119120920D02*
X171031480Y-118139920D01*
D42*
X154432000Y-127381000D02*
X153068000Y-127381000D01*
X154873400Y-127381000D02*
X154432000Y-127381000D01*
D45*
X154432000Y-125254160D02*
X154432000Y-127381000D01*
X153518839Y-124340999D02*
X154432000Y-125254160D01*
X146211000Y-125222000D02*
X147065000Y-125222000D01*
X147296141Y-125453141D02*
X149407017Y-125453141D01*
X150519159Y-124340999D02*
X153518839Y-124340999D01*
X147065000Y-125222000D02*
X147296141Y-125453141D01*
X149407017Y-125453141D02*
X150519159Y-124340999D01*
D42*
X156807480Y-122168920D02*
X157726001Y-123087441D01*
X157726001Y-123087441D02*
X157726001Y-125382399D01*
X157726001Y-125382399D02*
X156113480Y-126994920D01*
D39*
X120546440Y-133464880D02*
X121526681Y-134445121D01*
X120419440Y-133464880D02*
X120546440Y-133464880D01*
X121526681Y-134445121D02*
X122026680Y-134945120D01*
D42*
X122026680Y-141422120D02*
X123657360Y-143052800D01*
X122026680Y-134945120D02*
X122026680Y-141422120D01*
D46*
X138049000Y-57086500D02*
X154032010Y-57086500D01*
D47*
X154032010Y-57086500D02*
X157461010Y-53657500D01*
X157461010Y-53657500D02*
X160401000Y-53657500D01*
D44*
X125388500Y-66611500D02*
X126722000Y-65278000D01*
X122682000Y-66611500D02*
X125388500Y-66611500D01*
X134049000Y-57086500D02*
X138049000Y-57086500D01*
X131763500Y-57086500D02*
X134049000Y-57086500D01*
X126722000Y-62128000D02*
X131763500Y-57086500D01*
X126722000Y-65278000D02*
X126722000Y-62128000D01*
D48*
X184903902Y-53657500D02*
X188103560Y-56857158D01*
X157461010Y-53657500D02*
X184903902Y-53657500D01*
X188103560Y-56857158D02*
X188103560Y-63891234D01*
X188103560Y-63891234D02*
X188103560Y-65659000D01*
D39*
X162773360Y-118201440D02*
X162829240Y-118257320D01*
X160934400Y-118201440D02*
X162773360Y-118201440D01*
X166121080Y-127873760D02*
X166146480Y-127848360D01*
X164309480Y-127873760D02*
X166121080Y-127873760D01*
D40*
X133179640Y-111230120D02*
X133279640Y-111330120D01*
X131233160Y-111230120D02*
X133179640Y-111230120D01*
D42*
X139427160Y-115265440D02*
X141235160Y-115265440D01*
X136106960Y-115265440D02*
X139427160Y-115265440D01*
X133279640Y-112438120D02*
X136106960Y-115265440D01*
X133279640Y-111330120D02*
X133279640Y-112438120D01*
D40*
X162726861Y-128918261D02*
X161253879Y-128918261D01*
X165563000Y-137132410D02*
X165563000Y-131754400D01*
X159091933Y-120578400D02*
X159009800Y-120660533D01*
X161121981Y-128786363D02*
X161121981Y-123354041D01*
X163316920Y-138247120D02*
X164448290Y-138247120D01*
X161121981Y-123354041D02*
X161757701Y-122718321D01*
X165563000Y-131754400D02*
X162726861Y-128918261D01*
X160646422Y-120578400D02*
X159091933Y-120578400D01*
X164448290Y-138247120D02*
X165563000Y-137132410D01*
X161253879Y-128918261D02*
X161121981Y-128786363D01*
X161757701Y-122718321D02*
X161757701Y-121689679D01*
X161757701Y-121689679D02*
X160646422Y-120578400D01*
X142978040Y-115265440D02*
X141235160Y-115265440D01*
X144227000Y-116514400D02*
X142978040Y-115265440D01*
D45*
X125013720Y-111176600D02*
X127060200Y-109130120D01*
X125013720Y-111230120D02*
X125013720Y-111176600D01*
D40*
X129006680Y-111330120D02*
X129106680Y-111230120D01*
X127060200Y-111330120D02*
X129006680Y-111330120D01*
D42*
X139427160Y-117265440D02*
X141235160Y-117265440D01*
X134034000Y-117265440D02*
X139427160Y-117265440D01*
X129106680Y-112338120D02*
X134034000Y-117265440D01*
X129106680Y-111230120D02*
X129106680Y-112338120D01*
D40*
X177253799Y-120830441D02*
X176453800Y-121630440D01*
X177791819Y-120292421D02*
X177253799Y-120830441D01*
X178436979Y-120292421D02*
X177791819Y-120292421D01*
X179481480Y-119247920D02*
X178436979Y-120292421D01*
D45*
X155322208Y-118872008D02*
X156229733Y-119779533D01*
X156229733Y-119779533D02*
X156483733Y-119779533D01*
X141985160Y-117265440D02*
X143591728Y-118872008D01*
X141235160Y-117265440D02*
X141985160Y-117265440D01*
X143591728Y-118872008D02*
X155322208Y-118872008D01*
X133279640Y-109183640D02*
X135326120Y-111230120D01*
X133279640Y-109130120D02*
X133279640Y-109183640D01*
D40*
X127166160Y-117265440D02*
X129951480Y-120050760D01*
X125485160Y-117265440D02*
X127166160Y-117265440D01*
X129951480Y-120050760D02*
X129951480Y-133217920D01*
X128229360Y-134940040D02*
X128229360Y-135503920D01*
X129951480Y-133217920D02*
X128229360Y-134940040D01*
X128229360Y-136276080D02*
X128229360Y-135503920D01*
X128168400Y-136215120D02*
X128229360Y-136276080D01*
X126121160Y-136215120D02*
X128168400Y-136215120D01*
D42*
X178668680Y-145867120D02*
X178033680Y-146502120D01*
X178668680Y-140728120D02*
X178668680Y-145867120D01*
X188033680Y-144734354D02*
X188033680Y-146502120D01*
X188033680Y-143225884D02*
X188033680Y-144734354D01*
X191742444Y-139517120D02*
X188033680Y-143225884D01*
X193332680Y-139517120D02*
X191742444Y-139517120D01*
X185739479Y-131023921D02*
X186339480Y-130423920D01*
X185739479Y-133015561D02*
X185739479Y-131023921D01*
X185349160Y-133405880D02*
X185739479Y-133015561D01*
X184066160Y-133405880D02*
X185349160Y-133405880D01*
X188820480Y-130292420D02*
X188942980Y-130169920D01*
X186847480Y-130292420D02*
X188820480Y-130292420D01*
X186847480Y-133500420D02*
X186847480Y-132392420D01*
X185672020Y-134675880D02*
X186847480Y-133500420D01*
X184066160Y-134675880D02*
X185672020Y-134675880D01*
X188845480Y-132392420D02*
X188972480Y-132265420D01*
X186847480Y-132392420D02*
X188845480Y-132392420D01*
D47*
X103499920Y-62650360D02*
X106640640Y-62650360D01*
D48*
X107275640Y-62650360D02*
X112776000Y-57150000D01*
X106640640Y-62650360D02*
X107275640Y-62650360D01*
X112776000Y-57150000D02*
X115385500Y-57150000D01*
D49*
X183103560Y-59944000D02*
X183103560Y-64262000D01*
D44*
X183103560Y-64262000D02*
X183103560Y-65659000D01*
X183103560Y-58159000D02*
X183103560Y-59944000D01*
D48*
X188103560Y-71685986D02*
X188103560Y-98739960D01*
D49*
X189622536Y-70167010D02*
X188103560Y-71685986D01*
X189970838Y-70167010D02*
X189622536Y-70167010D01*
X193277039Y-66860809D02*
X189970838Y-70167010D01*
X193277039Y-64851721D02*
X193277039Y-66860809D01*
X196535040Y-61593720D02*
X193277039Y-64851721D01*
D44*
X186443388Y-102747970D02*
X189763732Y-102747970D01*
X184095550Y-100400132D02*
X186443388Y-102747970D01*
X183103560Y-98739960D02*
X184095550Y-98739960D01*
X184095550Y-98739960D02*
X184095550Y-100400132D01*
D49*
X196535040Y-78360280D02*
X196535040Y-95976662D01*
X196123338Y-95976662D02*
X192913000Y-99187000D01*
X196535040Y-95976662D02*
X196123338Y-95976662D01*
D44*
X189763732Y-102747970D02*
X192913000Y-99187000D01*
X183103560Y-98739960D02*
X183103560Y-106239960D01*
X184353559Y-104837799D02*
X186443388Y-102747970D01*
X184353559Y-104989961D02*
X184353559Y-104837799D01*
X183103560Y-106239960D02*
X184353559Y-104989961D01*
D42*
X158496000Y-118110000D02*
X158623000Y-118237000D01*
X156132000Y-118237000D02*
X158750000Y-118237000D01*
X154895000Y-117000000D02*
X156132000Y-118237000D01*
X154895000Y-116550000D02*
X154895000Y-117000000D01*
X158834400Y-115511000D02*
X158834400Y-116072920D01*
X160685480Y-113659920D02*
X158834400Y-115511000D01*
X158834400Y-116072920D02*
X158834400Y-118201440D01*
X162563120Y-124959800D02*
X162563120Y-127873760D01*
X164282120Y-123240800D02*
X162563120Y-124959800D01*
D40*
X153625000Y-121950000D02*
X153625000Y-123081000D01*
X153625000Y-123081000D02*
X154750000Y-124206000D01*
X154750000Y-124206000D02*
X155883894Y-124206000D01*
X155883894Y-124206000D02*
X156591000Y-124206000D01*
X131211320Y-109108280D02*
X131233160Y-109130120D01*
X131211320Y-105354120D02*
X131211320Y-109108280D01*
X128905000Y-106860592D02*
X128905000Y-108839000D01*
X128671320Y-106626912D02*
X128905000Y-106860592D01*
X128671320Y-105354120D02*
X128671320Y-106626912D01*
D39*
X102519480Y-122450840D02*
X103499920Y-123431280D01*
X102519480Y-118572280D02*
X102519480Y-122450840D01*
D40*
X106765080Y-125166120D02*
X103499920Y-128431280D01*
X109987080Y-125166120D02*
X106765080Y-125166120D01*
X140485160Y-123265440D02*
X141235160Y-123265440D01*
X135061960Y-128688640D02*
X140485160Y-123265440D01*
X135061960Y-132811520D02*
X135061960Y-128688640D01*
D42*
X154831360Y-129921000D02*
X155380000Y-130469640D01*
X153068000Y-129921000D02*
X154831360Y-129921000D01*
D45*
X141985160Y-123265440D02*
X143739163Y-121511437D01*
X141235160Y-123265440D02*
X141985160Y-123265440D01*
X143739163Y-121511437D02*
X143739163Y-121450833D01*
X153068000Y-129921000D02*
X152039000Y-129921000D01*
X151784999Y-126852999D02*
X153161998Y-125476000D01*
X151784999Y-129666999D02*
X151784999Y-126852999D01*
X152039000Y-129921000D02*
X151784999Y-129666999D01*
D40*
X107465840Y-118495520D02*
X107465840Y-119476520D01*
X106072099Y-117101779D02*
X107465840Y-118495520D01*
X106072099Y-115248261D02*
X106072099Y-117101779D01*
X107416600Y-113903760D02*
X106072099Y-115248261D01*
X134008440Y-147523200D02*
X135031480Y-146500160D01*
X132440680Y-147523200D02*
X134008440Y-147523200D01*
D45*
X133743680Y-144769840D02*
X132889680Y-144769840D01*
X134155160Y-144769840D02*
X133743680Y-144769840D01*
X135031480Y-145646160D02*
X134155160Y-144769840D01*
X135031480Y-146500160D02*
X135031480Y-145646160D01*
D42*
X148341080Y-80421480D02*
X163103560Y-65659000D01*
X148341080Y-84422000D02*
X148341080Y-80421480D01*
X149611080Y-83164000D02*
X154839093Y-77935987D01*
X161853561Y-77935987D02*
X163103560Y-79185986D01*
X149611080Y-84422000D02*
X149611080Y-83164000D01*
X154839093Y-77935987D02*
X161853561Y-77935987D01*
X150881080Y-84422000D02*
X150881080Y-83164000D01*
X150881080Y-83164000D02*
X154535092Y-79509988D01*
X158848438Y-79509988D02*
X161218559Y-81880109D01*
X154535092Y-79509988D02*
X158848438Y-79509988D01*
X161218559Y-90827971D02*
X161853561Y-91462973D01*
X161218559Y-81880109D02*
X161218559Y-90827971D01*
X161853561Y-91462973D02*
X163103560Y-92712972D01*
X152151080Y-84422000D02*
X152151080Y-83164000D01*
X152151080Y-83164000D02*
X153773082Y-81541998D01*
X161853561Y-104989961D02*
X163103560Y-106239960D01*
X155043082Y-80271998D02*
X158532802Y-80271998D01*
X152151080Y-83164000D02*
X155043082Y-80271998D01*
X160456548Y-103592948D02*
X161853561Y-104989961D01*
X160456548Y-82195744D02*
X160456548Y-103592948D01*
X158532802Y-80271998D02*
X160456548Y-82195744D01*
D40*
X140771880Y-138860800D02*
X140771880Y-137855960D01*
X139258600Y-140374080D02*
X140771880Y-138860800D01*
X138277600Y-140374080D02*
X139258600Y-140374080D01*
X142143381Y-137615829D02*
X142143381Y-133217821D01*
X140771880Y-137855960D02*
X141903250Y-137855960D01*
X141903250Y-137855960D02*
X142143381Y-137615829D01*
X142143381Y-133217821D02*
X140314680Y-131389120D01*
X140314680Y-131389120D02*
X140162280Y-131389120D01*
X129006980Y-123106260D02*
X129006980Y-124683520D01*
X127166160Y-121265440D02*
X129006980Y-123106260D01*
X125485160Y-121265440D02*
X127166160Y-121265440D01*
X129006980Y-130889121D02*
X129006980Y-124683520D01*
X143978920Y-99063520D02*
X144708880Y-99063520D01*
X140970000Y-102072440D02*
X143978920Y-99063520D01*
X144708880Y-99063520D02*
X146788051Y-99063520D01*
X148336000Y-92355400D02*
X148336000Y-89789000D01*
X144708880Y-95982520D02*
X148336000Y-92355400D01*
X144708880Y-96963520D02*
X144708880Y-95982520D01*
D42*
X149155960Y-137855960D02*
X151000000Y-139700000D01*
X148391880Y-137855960D02*
X149155960Y-137855960D01*
D40*
X149815000Y-116550000D02*
X149815000Y-115419000D01*
X142330000Y-113686000D02*
X148082000Y-113686000D01*
X141710120Y-113066120D02*
X142330000Y-113686000D01*
X141710120Y-112085120D02*
X141710120Y-113066120D01*
X149815000Y-115419000D02*
X148082000Y-113686000D01*
D45*
X139610120Y-111052320D02*
X139610120Y-112085120D01*
X140970000Y-109692440D02*
X139610120Y-111052320D01*
D40*
X148867222Y-100071404D02*
X148867222Y-99063520D01*
X146866186Y-102072440D02*
X148867222Y-100071404D01*
X148867222Y-99063520D02*
X150946393Y-99063520D01*
X149606000Y-95243742D02*
X149606000Y-89535000D01*
X148867222Y-95982520D02*
X149606000Y-95243742D01*
X148867222Y-96963520D02*
X148867222Y-95982520D01*
X147807000Y-112141000D02*
X147701000Y-112141000D01*
X151085000Y-115419000D02*
X147807000Y-112141000D01*
X151085000Y-116550000D02*
X151085000Y-115419000D01*
D45*
X145524800Y-111033826D02*
X145524800Y-112085120D01*
X146866186Y-109692440D02*
X145524800Y-111033826D01*
D40*
X152762372Y-99326712D02*
X153025564Y-99063520D01*
X152762372Y-102072440D02*
X152762372Y-99326712D01*
X153025564Y-99063520D02*
X155104735Y-99063520D01*
X150881080Y-90953000D02*
X150881080Y-89822000D01*
X150881080Y-91073119D02*
X150881080Y-90953000D01*
X155104735Y-95296774D02*
X150881080Y-91073119D01*
X155104735Y-96963520D02*
X155104735Y-95296774D01*
D42*
X125472200Y-119278400D02*
X125485160Y-119265440D01*
X122519440Y-119278400D02*
X125472200Y-119278400D01*
D40*
X152355000Y-115419000D02*
X152355000Y-116550000D01*
X152355000Y-115044920D02*
X152355000Y-115419000D01*
X150376200Y-113066120D02*
X152355000Y-115044920D01*
X150376200Y-112085120D02*
X150376200Y-113066120D01*
D45*
X152762372Y-111798948D02*
X152476200Y-112085120D01*
X152762372Y-109692440D02*
X152762372Y-111798948D01*
D40*
X158658560Y-99668040D02*
X159263080Y-99063520D01*
X158658560Y-102072440D02*
X158658560Y-99668040D01*
X157183906Y-99063520D02*
X159263080Y-99063520D01*
X159263080Y-95982520D02*
X157006560Y-93726000D01*
X159263080Y-96963520D02*
X159263080Y-95982520D01*
X152151080Y-90953000D02*
X152151080Y-89822000D01*
X152151080Y-91445080D02*
X152151080Y-90953000D01*
X154432000Y-93726000D02*
X152151080Y-91445080D01*
X157006560Y-93726000D02*
X154432000Y-93726000D01*
X153625000Y-115419000D02*
X153625000Y-116550000D01*
X153625000Y-114061080D02*
X153625000Y-115419000D01*
X154619960Y-113066120D02*
X153625000Y-114061080D01*
X154619960Y-112085120D02*
X154619960Y-113066120D01*
D45*
X158658560Y-109692440D02*
X158658560Y-111089440D01*
X157662880Y-112085120D02*
X156719960Y-112085120D01*
X158658560Y-111089440D02*
X157662880Y-112085120D01*
D42*
X154008400Y-131191000D02*
X155410480Y-132593080D01*
X153068000Y-131191000D02*
X154008400Y-131191000D01*
D40*
X125485160Y-123265440D02*
X122742200Y-123265440D01*
X122742200Y-123265440D02*
X122737880Y-123261120D01*
D45*
X150983400Y-126329726D02*
X151003000Y-126310126D01*
X150983400Y-130135400D02*
X150983400Y-126329726D01*
X152039000Y-131191000D02*
X150983400Y-130135400D01*
X153068000Y-131191000D02*
X152039000Y-131191000D01*
X151003000Y-126310126D02*
X151003000Y-125603020D01*
D42*
X143995840Y-127265440D02*
X144104360Y-127373960D01*
X141235160Y-127265440D02*
X143995840Y-127265440D01*
D40*
X109006080Y-123066120D02*
X109987080Y-123066120D01*
X107974440Y-123066120D02*
X109006080Y-123066120D01*
X105365840Y-120457520D02*
X107974440Y-123066120D01*
X105365840Y-119476520D02*
X105365840Y-120457520D01*
X109987080Y-123066120D02*
X110112120Y-123066120D01*
D45*
X115389560Y-131388800D02*
X115389560Y-132417800D01*
X111898159Y-125430841D02*
X111898159Y-127897399D01*
X111898159Y-127897399D02*
X115389560Y-131388800D01*
X111796559Y-125329241D02*
X111898159Y-125430841D01*
X111796559Y-124021599D02*
X111796559Y-125329241D01*
X110841080Y-123066120D02*
X111796559Y-124021599D01*
X109987080Y-123066120D02*
X110841080Y-123066120D01*
D40*
X114188240Y-138663680D02*
X116037360Y-140512800D01*
X111394240Y-138663680D02*
X114188240Y-138663680D01*
D45*
X111471000Y-130497000D02*
X110617000Y-130497000D01*
X113227760Y-130497000D02*
X111471000Y-130497000D01*
X114119560Y-131388800D02*
X113227760Y-130497000D01*
X114119560Y-132417800D02*
X114119560Y-131388800D01*
D40*
X114119560Y-133573800D02*
X114119560Y-132417800D01*
X117408861Y-136863101D02*
X114119560Y-133573800D01*
X117408861Y-144221299D02*
X117408861Y-136863101D01*
X116037360Y-145592800D02*
X117408861Y-144221299D01*
D42*
X163306760Y-144205960D02*
X163316920Y-144195800D01*
X161009040Y-144205960D02*
X163306760Y-144205960D01*
D40*
X177510160Y-133405880D02*
X177342800Y-133573240D01*
X178666160Y-133405880D02*
X177510160Y-133405880D01*
X177342800Y-133573240D02*
X177342800Y-134518400D01*
X177500280Y-134675880D02*
X178666160Y-134675880D01*
X177342800Y-134518400D02*
X177500280Y-134675880D01*
X126224720Y-138211560D02*
X126121160Y-138315120D01*
X126121160Y-140406120D02*
X126121160Y-138315120D01*
X127213080Y-139481560D02*
X127137160Y-139405640D01*
X128369080Y-139481560D02*
X127213080Y-139481560D01*
X127137160Y-139405640D02*
X127137160Y-138211560D01*
X128369080Y-138211560D02*
X127137160Y-138211560D01*
X127137160Y-138211560D02*
X126224720Y-138211560D01*
X175231480Y-131752920D02*
X175163480Y-131820920D01*
X175231480Y-130568120D02*
X175231480Y-131752920D01*
X173913800Y-129250440D02*
X175231480Y-130568120D01*
X163266120Y-135656320D02*
X163316920Y-135707120D01*
X161009040Y-135656320D02*
X163266120Y-135656320D01*
X175773800Y-138018600D02*
X175773800Y-137037600D01*
X175545280Y-138247120D02*
X175773800Y-138018600D01*
X170936920Y-138247120D02*
X175545280Y-138247120D01*
X177099440Y-137037600D02*
X175773800Y-137037600D01*
X178666160Y-135945880D02*
X178191160Y-135945880D01*
X178191160Y-135945880D02*
X177099440Y-137037600D01*
D42*
X117295440Y-115265440D02*
X117020480Y-115540400D01*
X125485160Y-115265440D02*
X117295440Y-115265440D01*
X153068000Y-128651000D02*
X155610560Y-128651000D01*
X155610560Y-128651000D02*
X155732480Y-128772920D01*
D45*
X148545000Y-116550000D02*
X148545000Y-117819008D01*
X148545000Y-117819008D02*
X148717000Y-117991008D01*
X125485160Y-125265440D02*
X122802840Y-125265440D01*
X122802840Y-125265440D02*
X122738600Y-125201200D01*
X145106100Y-123444000D02*
X144398994Y-123444000D01*
X148545000Y-122400000D02*
X147501000Y-123444000D01*
X148545000Y-121950000D02*
X148545000Y-122400000D01*
X147501000Y-123444000D02*
X145106100Y-123444000D01*
X125485160Y-127265440D02*
X122757160Y-127265440D01*
X122757160Y-127265440D02*
X122738600Y-127284000D01*
X148821931Y-123393069D02*
X148821931Y-123894249D01*
X149815000Y-121950000D02*
X149815000Y-122400000D01*
X149815000Y-122400000D02*
X148821931Y-123393069D01*
X143637400Y-119613200D02*
X151542200Y-119613200D01*
X152355000Y-120946000D02*
X152355000Y-121950000D01*
X152355000Y-120426000D02*
X152355000Y-120946000D01*
X141235160Y-121265440D02*
X141985160Y-121265440D01*
X151542200Y-119613200D02*
X152355000Y-120426000D01*
X141985160Y-121265440D02*
X143637400Y-119613200D01*
D40*
X140485160Y-119265440D02*
X141235160Y-119265440D01*
X136048200Y-123702400D02*
X140485160Y-119265440D01*
X136048200Y-125963200D02*
X136048200Y-123702400D01*
X163316920Y-146735800D02*
X159210178Y-146735800D01*
X154144501Y-134321539D02*
X149840782Y-130017820D01*
X154144501Y-141670123D02*
X154144501Y-134321539D01*
X159210178Y-146735800D02*
X154144501Y-141670123D01*
X149840782Y-127588798D02*
X149840782Y-126881692D01*
X149840782Y-130017820D02*
X149840782Y-127588798D01*
X176453800Y-130381810D02*
X176453800Y-129250440D01*
X176453800Y-130398520D02*
X176453800Y-130381810D01*
X178191160Y-132135880D02*
X176453800Y-130398520D01*
X178666160Y-132135880D02*
X178191160Y-132135880D01*
D42*
X153100000Y-143717240D02*
X153116280Y-143733520D01*
X153100000Y-139700000D02*
X153100000Y-143717240D01*
X143478240Y-143733520D02*
X140704560Y-146507200D01*
X153116280Y-143733520D02*
X143478240Y-143733520D01*
D45*
X144067560Y-125265440D02*
X144111000Y-125222000D01*
X141235160Y-125265440D02*
X144067560Y-125265440D01*
X150531000Y-123431117D02*
X150531000Y-122954000D01*
X145380990Y-123952010D02*
X147566836Y-123952010D01*
X144111000Y-125222000D02*
X145380990Y-123952010D01*
X147566836Y-123952010D02*
X148432956Y-124818130D01*
X150531000Y-122954000D02*
X151085000Y-122400000D01*
X149143987Y-124818130D02*
X150531000Y-123431117D01*
X151085000Y-122400000D02*
X151085000Y-121950000D01*
X148432956Y-124818130D02*
X149143987Y-124818130D01*
D39*
X180700680Y-138628120D02*
X181462680Y-139390120D01*
X178668680Y-138628120D02*
X180700680Y-138628120D01*
D40*
X182910160Y-133405880D02*
X184066160Y-133405880D01*
X182842181Y-133405880D02*
X182910160Y-133405880D01*
X181462680Y-134785381D02*
X182842181Y-133405880D01*
X181462680Y-139390120D02*
X181462680Y-134785381D01*
X195568680Y-135961120D02*
X195668680Y-135961120D01*
X193044481Y-133436921D02*
X195568680Y-135961120D01*
X189162981Y-133436921D02*
X193044481Y-133436921D01*
X188972480Y-133246420D02*
X189162981Y-133436921D01*
X188972480Y-132265420D02*
X188972480Y-133246420D01*
D42*
X195668680Y-139281120D02*
X195432680Y-139517120D01*
X195668680Y-135961120D02*
X195668680Y-139281120D01*
D40*
X172041240Y-147840120D02*
X170936920Y-146735800D01*
X173842680Y-147840120D02*
X172041240Y-147840120D01*
X173837600Y-143835120D02*
X170936920Y-146735800D01*
X173842680Y-143835120D02*
X173837600Y-143835120D01*
X174823680Y-145740120D02*
X173842680Y-145740120D01*
X175014181Y-140020898D02*
X175014181Y-145549619D01*
X177451460Y-137583619D02*
X175014181Y-140020898D01*
X178903523Y-137583619D02*
X177451460Y-137583619D01*
X179885661Y-136601481D02*
X178903523Y-137583619D01*
X179885661Y-134739381D02*
X179885661Y-136601481D01*
X179822160Y-134675880D02*
X179885661Y-134739381D01*
X175014181Y-145549619D02*
X174823680Y-145740120D01*
X178666160Y-134675880D02*
X179822160Y-134675880D01*
D45*
X114983360Y-137972800D02*
X116037360Y-137972800D01*
X112849560Y-135839000D02*
X114983360Y-137972800D01*
X112849560Y-132417800D02*
X112849560Y-135839000D01*
D40*
X130789680Y-143788840D02*
X130789680Y-144769840D01*
X130789680Y-142016160D02*
X130789680Y-143788840D01*
X129525080Y-140751560D02*
X130789680Y-142016160D01*
X128369080Y-140751560D02*
X129525080Y-140751560D01*
X124480320Y-144769840D02*
X123657360Y-145592800D01*
X130789680Y-144769840D02*
X124480320Y-144769840D01*
D45*
G36*
X122299779Y-105536994D02*
X122301000Y-105536763D01*
X122301000Y-112014000D01*
X118490657Y-112014000D01*
X110618144Y-112035277D01*
X109379923Y-110797056D01*
X109330325Y-110722827D01*
X109220000Y-110649110D01*
X109220000Y-105411227D01*
X122299779Y-105536994D01*
X122299779Y-105536994D01*
G37*
X122299779Y-105536994D02*
X122301000Y-105536763D01*
X122301000Y-112014000D01*
X118490657Y-112014000D01*
X110618144Y-112035277D01*
X109379923Y-110797056D01*
X109330325Y-110722827D01*
X109220000Y-110649110D01*
X109220000Y-105411227D01*
X122299779Y-105536994D01*
G36*
X184968561Y-62362897D02*
X184968561Y-63582461D01*
X184968560Y-63582466D01*
X184968560Y-65967769D01*
X185150455Y-66882216D01*
X185843352Y-67919209D01*
X186880345Y-68612105D01*
X188103560Y-68855418D01*
X188893179Y-68698353D01*
X189865000Y-70267149D01*
X189865000Y-99268611D01*
X186436000Y-98204438D01*
X186436000Y-72136000D01*
X186426333Y-72087399D01*
X186395238Y-72042769D01*
X181355391Y-67380910D01*
X181239035Y-56792500D01*
X181517873Y-56792500D01*
X184968561Y-62362897D01*
X184968561Y-62362897D01*
G37*
X184968561Y-62362897D02*
X184968561Y-63582461D01*
X184968560Y-63582466D01*
X184968560Y-65967769D01*
X185150455Y-66882216D01*
X185843352Y-67919209D01*
X186880345Y-68612105D01*
X188103560Y-68855418D01*
X188893179Y-68698353D01*
X189865000Y-70267149D01*
X189865000Y-99268611D01*
X186436000Y-98204438D01*
X186436000Y-72136000D01*
X186426333Y-72087399D01*
X186395238Y-72042769D01*
X181355391Y-67380910D01*
X181239035Y-56792500D01*
X181517873Y-56792500D01*
X184968561Y-62362897D01*
G36*
X184912000Y-58099157D02*
X184912000Y-62546147D01*
X181344739Y-56792500D01*
X183605343Y-56792500D01*
X184912000Y-58099157D01*
X184912000Y-58099157D01*
G37*
X184912000Y-58099157D02*
X184912000Y-62546147D01*
X181344739Y-56792500D01*
X183605343Y-56792500D01*
X184912000Y-58099157D01*
G36*
X186974480Y-102538982D02*
X186974480Y-102554683D01*
X183230560Y-105953159D01*
X183230560Y-99032887D01*
X186974480Y-102538982D01*
X186974480Y-102538982D01*
G37*
X186974480Y-102538982D02*
X186974480Y-102554683D01*
X183230560Y-105953159D01*
X183230560Y-99032887D01*
X186974480Y-102538982D01*
G36*
X184746522Y-127885300D02*
X184487065Y-128144757D01*
X184487065Y-127654672D01*
X184746522Y-127885300D01*
X184746522Y-127885300D01*
G37*
X184746522Y-127885300D02*
X184487065Y-128144757D01*
X184487065Y-127654672D01*
X184746522Y-127885300D01*
G36*
X189759858Y-114151270D02*
X187634880Y-115789273D01*
X187634880Y-111804940D01*
X189759858Y-114151270D01*
X189759858Y-114151270D01*
G37*
X189759858Y-114151270D02*
X187634880Y-115789273D01*
X187634880Y-111804940D01*
X189759858Y-114151270D01*
G36*
X184426693Y-122826075D02*
X180581661Y-122734526D01*
X184197822Y-118889495D01*
X184426693Y-122826075D01*
X184426693Y-122826075D01*
G37*
X184426693Y-122826075D02*
X180581661Y-122734526D01*
X184197822Y-118889495D01*
X184426693Y-122826075D01*
G36*
X126217680Y-105140254D02*
X126217680Y-103728520D01*
X127747058Y-103728520D01*
X126217680Y-105140254D01*
X126217680Y-105140254D01*
G37*
X126217680Y-105140254D02*
X126217680Y-103728520D01*
X127747058Y-103728520D01*
X126217680Y-105140254D01*
G36*
X140899600Y-138822099D02*
X140899600Y-137977400D01*
X141778087Y-137977400D01*
X140899600Y-138822099D01*
X140899600Y-138822099D01*
G37*
X140899600Y-138822099D02*
X140899600Y-137977400D01*
X141778087Y-137977400D01*
X140899600Y-138822099D01*
G36*
X170282877Y-127881121D02*
X170115991Y-127992631D01*
X169975643Y-128202675D01*
X169926360Y-128450440D01*
X169926360Y-130050440D01*
X169975643Y-130298205D01*
X170115991Y-130508249D01*
X170326035Y-130648597D01*
X170573800Y-130697880D01*
X172173800Y-130697880D01*
X172178049Y-130697035D01*
X173017936Y-131944969D01*
X169749400Y-131905000D01*
X169795060Y-127156305D01*
X170282877Y-127881121D01*
X170282877Y-127881121D01*
G37*
X170282877Y-127881121D02*
X170115991Y-127992631D01*
X169975643Y-128202675D01*
X169926360Y-128450440D01*
X169926360Y-130050440D01*
X169975643Y-130298205D01*
X170115991Y-130508249D01*
X170326035Y-130648597D01*
X170573800Y-130697880D01*
X172173800Y-130697880D01*
X172178049Y-130697035D01*
X173017936Y-131944969D01*
X169749400Y-131905000D01*
X169795060Y-127156305D01*
X170282877Y-127881121D01*
G36*
X104063800Y-101676200D02*
X103987600Y-101676200D01*
X103938999Y-101685867D01*
X103915075Y-101698945D01*
X102882606Y-102417185D01*
X102542699Y-101473000D01*
X104063800Y-101473000D01*
X104063800Y-101676200D01*
X104063800Y-101676200D01*
G37*
X104063800Y-101676200D02*
X103987600Y-101676200D01*
X103938999Y-101685867D01*
X103915075Y-101698945D01*
X102882606Y-102417185D01*
X102542699Y-101473000D01*
X104063800Y-101473000D01*
X104063800Y-101676200D01*
G36*
X168783000Y-110871000D02*
X165856381Y-110871000D01*
X168783000Y-106818758D01*
X168783000Y-110871000D01*
X168783000Y-110871000D01*
G37*
X168783000Y-110871000D02*
X165856381Y-110871000D01*
X168783000Y-106818758D01*
X168783000Y-110871000D01*
M02*
