%TF.GenerationSoftware,KiCad,Pcbnew,(5.1.10)-1*%
%TF.CreationDate,2022-12-14T20:36:11+08:00*%
%TF.ProjectId,interface,696e7465-7266-4616-9365-2e6b69636164,rev?*%
%TF.SameCoordinates,Original*%
%TF.FileFunction,Paste,Top*%
%TF.FilePolarity,Positive*%
%FSLAX46Y46*%
G04 Gerber Fmt 4.6, Leading zero omitted, Abs format (unit mm)*
G04 Created by KiCad (PCBNEW (5.1.10)-1) date 2022-12-14 20:36:11*
%MOMM*%
%LPD*%
G01*
G04 APERTURE LIST*
%ADD10R,1.500000X4.200000*%
%ADD11R,1.470000X1.160000*%
%ADD12R,1.160000X1.470000*%
%ADD13R,2.000000X2.000000*%
%ADD14R,1.160000X2.720000*%
%ADD15R,2.720000X1.160000*%
%ADD16R,1.500000X1.500000*%
%ADD17R,2.750000X3.050000*%
%ADD18R,1.200000X2.200000*%
%ADD19R,1.130000X1.800000*%
%ADD20R,1.800000X1.130000*%
%ADD21O,0.700000X1.800000*%
%ADD22R,1.250000X0.700000*%
%ADD23R,0.700000X1.250000*%
%ADD24R,1.500000X0.900000*%
%ADD25O,1.900000X0.700000*%
%ADD26O,3.500000X2.000000*%
%ADD27O,2.100000X0.700000*%
%ADD28R,0.900000X2.000000*%
%ADD29R,2.000000X0.900000*%
%ADD30R,5.000000X5.000000*%
%ADD31O,2.000000X0.800000*%
%ADD32O,0.800000X2.000000*%
%ADD33R,2.000000X1.780000*%
%ADD34R,2.200000X1.000000*%
%ADD35R,2.200000X3.500000*%
G04 APERTURE END LIST*
%TO.C,U11*%
G36*
G01*
X69570001Y48305000D02*
X68729999Y48305000D01*
G75*
G02*
X68480000Y48554999I0J249999D01*
G01*
X68480000Y49105001D01*
G75*
G02*
X68729999Y49355000I249999J0D01*
G01*
X69570001Y49355000D01*
G75*
G02*
X69820000Y49105001I0J-249999D01*
G01*
X69820000Y48554999D01*
G75*
G02*
X69570001Y48305000I-249999J0D01*
G01*
G37*
G36*
G01*
X67970001Y48305000D02*
X67129999Y48305000D01*
G75*
G02*
X66880000Y48554999I0J249999D01*
G01*
X66880000Y49105001D01*
G75*
G02*
X67129999Y49355000I249999J0D01*
G01*
X67970001Y49355000D01*
G75*
G02*
X68220000Y49105001I0J-249999D01*
G01*
X68220000Y48554999D01*
G75*
G02*
X67970001Y48305000I-249999J0D01*
G01*
G37*
G36*
G01*
X69570001Y47045000D02*
X68729999Y47045000D01*
G75*
G02*
X68480000Y47294999I0J249999D01*
G01*
X68480000Y47845001D01*
G75*
G02*
X68729999Y48095000I249999J0D01*
G01*
X69570001Y48095000D01*
G75*
G02*
X69820000Y47845001I0J-249999D01*
G01*
X69820000Y47294999D01*
G75*
G02*
X69570001Y47045000I-249999J0D01*
G01*
G37*
G36*
G01*
X67970001Y47045000D02*
X67129999Y47045000D01*
G75*
G02*
X66880000Y47294999I0J249999D01*
G01*
X66880000Y47845001D01*
G75*
G02*
X67129999Y48095000I249999J0D01*
G01*
X67970001Y48095000D01*
G75*
G02*
X68220000Y47845001I0J-249999D01*
G01*
X68220000Y47294999D01*
G75*
G02*
X67970001Y47045000I-249999J0D01*
G01*
G37*
G36*
G01*
X66595000Y50025000D02*
X66295000Y50025000D01*
G75*
G02*
X66145000Y50175000I0J150000D01*
G01*
X66145000Y51500000D01*
G75*
G02*
X66295000Y51650000I150000J0D01*
G01*
X66595000Y51650000D01*
G75*
G02*
X66745000Y51500000I0J-150000D01*
G01*
X66745000Y50175000D01*
G75*
G02*
X66595000Y50025000I-150000J0D01*
G01*
G37*
G36*
G01*
X67865000Y50025000D02*
X67565000Y50025000D01*
G75*
G02*
X67415000Y50175000I0J150000D01*
G01*
X67415000Y51500000D01*
G75*
G02*
X67565000Y51650000I150000J0D01*
G01*
X67865000Y51650000D01*
G75*
G02*
X68015000Y51500000I0J-150000D01*
G01*
X68015000Y50175000D01*
G75*
G02*
X67865000Y50025000I-150000J0D01*
G01*
G37*
G36*
G01*
X69135000Y50025000D02*
X68835000Y50025000D01*
G75*
G02*
X68685000Y50175000I0J150000D01*
G01*
X68685000Y51500000D01*
G75*
G02*
X68835000Y51650000I150000J0D01*
G01*
X69135000Y51650000D01*
G75*
G02*
X69285000Y51500000I0J-150000D01*
G01*
X69285000Y50175000D01*
G75*
G02*
X69135000Y50025000I-150000J0D01*
G01*
G37*
G36*
G01*
X70405000Y50025000D02*
X70105000Y50025000D01*
G75*
G02*
X69955000Y50175000I0J150000D01*
G01*
X69955000Y51500000D01*
G75*
G02*
X70105000Y51650000I150000J0D01*
G01*
X70405000Y51650000D01*
G75*
G02*
X70555000Y51500000I0J-150000D01*
G01*
X70555000Y50175000D01*
G75*
G02*
X70405000Y50025000I-150000J0D01*
G01*
G37*
G36*
G01*
X70405000Y44750000D02*
X70105000Y44750000D01*
G75*
G02*
X69955000Y44900000I0J150000D01*
G01*
X69955000Y46225000D01*
G75*
G02*
X70105000Y46375000I150000J0D01*
G01*
X70405000Y46375000D01*
G75*
G02*
X70555000Y46225000I0J-150000D01*
G01*
X70555000Y44900000D01*
G75*
G02*
X70405000Y44750000I-150000J0D01*
G01*
G37*
G36*
G01*
X69135000Y44750000D02*
X68835000Y44750000D01*
G75*
G02*
X68685000Y44900000I0J150000D01*
G01*
X68685000Y46225000D01*
G75*
G02*
X68835000Y46375000I150000J0D01*
G01*
X69135000Y46375000D01*
G75*
G02*
X69285000Y46225000I0J-150000D01*
G01*
X69285000Y44900000D01*
G75*
G02*
X69135000Y44750000I-150000J0D01*
G01*
G37*
G36*
G01*
X67865000Y44750000D02*
X67565000Y44750000D01*
G75*
G02*
X67415000Y44900000I0J150000D01*
G01*
X67415000Y46225000D01*
G75*
G02*
X67565000Y46375000I150000J0D01*
G01*
X67865000Y46375000D01*
G75*
G02*
X68015000Y46225000I0J-150000D01*
G01*
X68015000Y44900000D01*
G75*
G02*
X67865000Y44750000I-150000J0D01*
G01*
G37*
G36*
G01*
X66595000Y44750000D02*
X66295000Y44750000D01*
G75*
G02*
X66145000Y44900000I0J150000D01*
G01*
X66145000Y46225000D01*
G75*
G02*
X66295000Y46375000I150000J0D01*
G01*
X66595000Y46375000D01*
G75*
G02*
X66745000Y46225000I0J-150000D01*
G01*
X66745000Y44900000D01*
G75*
G02*
X66595000Y44750000I-150000J0D01*
G01*
G37*
%TD*%
D10*
%TO.C,L2*%
X56750000Y50950000D03*
X60350000Y50950000D03*
%TD*%
%TO.C,U7*%
G36*
G01*
X35625000Y42574999D02*
X35625000Y43125001D01*
G75*
G02*
X35874999Y43375000I249999J0D01*
G01*
X36425001Y43375000D01*
G75*
G02*
X36675000Y43125001I0J-249999D01*
G01*
X36675000Y42574999D01*
G75*
G02*
X36425001Y42325000I-249999J0D01*
G01*
X35874999Y42325000D01*
G75*
G02*
X35625000Y42574999I0J249999D01*
G01*
G37*
G36*
G01*
X35625000Y43874999D02*
X35625000Y44425001D01*
G75*
G02*
X35874999Y44675000I249999J0D01*
G01*
X36425001Y44675000D01*
G75*
G02*
X36675000Y44425001I0J-249999D01*
G01*
X36675000Y43874999D01*
G75*
G02*
X36425001Y43625000I-249999J0D01*
G01*
X35874999Y43625000D01*
G75*
G02*
X35625000Y43874999I0J249999D01*
G01*
G37*
G36*
G01*
X34325000Y42574999D02*
X34325000Y43125001D01*
G75*
G02*
X34574999Y43375000I249999J0D01*
G01*
X35125001Y43375000D01*
G75*
G02*
X35375000Y43125001I0J-249999D01*
G01*
X35375000Y42574999D01*
G75*
G02*
X35125001Y42325000I-249999J0D01*
G01*
X34574999Y42325000D01*
G75*
G02*
X34325000Y42574999I0J249999D01*
G01*
G37*
G36*
G01*
X34325000Y43874999D02*
X34325000Y44425001D01*
G75*
G02*
X34574999Y44675000I249999J0D01*
G01*
X35125001Y44675000D01*
G75*
G02*
X35375000Y44425001I0J-249999D01*
G01*
X35375000Y43874999D01*
G75*
G02*
X35125001Y43625000I-249999J0D01*
G01*
X34574999Y43625000D01*
G75*
G02*
X34325000Y43874999I0J249999D01*
G01*
G37*
G36*
G01*
X34125000Y45087500D02*
X34125000Y45787500D01*
G75*
G02*
X34187500Y45850000I62500J0D01*
G01*
X34312500Y45850000D01*
G75*
G02*
X34375000Y45787500I0J-62500D01*
G01*
X34375000Y45087500D01*
G75*
G02*
X34312500Y45025000I-62500J0D01*
G01*
X34187500Y45025000D01*
G75*
G02*
X34125000Y45087500I0J62500D01*
G01*
G37*
G36*
G01*
X34625000Y45087500D02*
X34625000Y45787500D01*
G75*
G02*
X34687500Y45850000I62500J0D01*
G01*
X34812500Y45850000D01*
G75*
G02*
X34875000Y45787500I0J-62500D01*
G01*
X34875000Y45087500D01*
G75*
G02*
X34812500Y45025000I-62500J0D01*
G01*
X34687500Y45025000D01*
G75*
G02*
X34625000Y45087500I0J62500D01*
G01*
G37*
G36*
G01*
X35125000Y45087500D02*
X35125000Y45787500D01*
G75*
G02*
X35187500Y45850000I62500J0D01*
G01*
X35312500Y45850000D01*
G75*
G02*
X35375000Y45787500I0J-62500D01*
G01*
X35375000Y45087500D01*
G75*
G02*
X35312500Y45025000I-62500J0D01*
G01*
X35187500Y45025000D01*
G75*
G02*
X35125000Y45087500I0J62500D01*
G01*
G37*
G36*
G01*
X35625000Y45087500D02*
X35625000Y45787500D01*
G75*
G02*
X35687500Y45850000I62500J0D01*
G01*
X35812500Y45850000D01*
G75*
G02*
X35875000Y45787500I0J-62500D01*
G01*
X35875000Y45087500D01*
G75*
G02*
X35812500Y45025000I-62500J0D01*
G01*
X35687500Y45025000D01*
G75*
G02*
X35625000Y45087500I0J62500D01*
G01*
G37*
G36*
G01*
X36125000Y45087500D02*
X36125000Y45787500D01*
G75*
G02*
X36187500Y45850000I62500J0D01*
G01*
X36312500Y45850000D01*
G75*
G02*
X36375000Y45787500I0J-62500D01*
G01*
X36375000Y45087500D01*
G75*
G02*
X36312500Y45025000I-62500J0D01*
G01*
X36187500Y45025000D01*
G75*
G02*
X36125000Y45087500I0J62500D01*
G01*
G37*
G36*
G01*
X36625000Y45087500D02*
X36625000Y45787500D01*
G75*
G02*
X36687500Y45850000I62500J0D01*
G01*
X36812500Y45850000D01*
G75*
G02*
X36875000Y45787500I0J-62500D01*
G01*
X36875000Y45087500D01*
G75*
G02*
X36812500Y45025000I-62500J0D01*
G01*
X36687500Y45025000D01*
G75*
G02*
X36625000Y45087500I0J62500D01*
G01*
G37*
G36*
G01*
X37025000Y44687500D02*
X37025000Y44812500D01*
G75*
G02*
X37087500Y44875000I62500J0D01*
G01*
X37787500Y44875000D01*
G75*
G02*
X37850000Y44812500I0J-62500D01*
G01*
X37850000Y44687500D01*
G75*
G02*
X37787500Y44625000I-62500J0D01*
G01*
X37087500Y44625000D01*
G75*
G02*
X37025000Y44687500I0J62500D01*
G01*
G37*
G36*
G01*
X37025000Y44187500D02*
X37025000Y44312500D01*
G75*
G02*
X37087500Y44375000I62500J0D01*
G01*
X37787500Y44375000D01*
G75*
G02*
X37850000Y44312500I0J-62500D01*
G01*
X37850000Y44187500D01*
G75*
G02*
X37787500Y44125000I-62500J0D01*
G01*
X37087500Y44125000D01*
G75*
G02*
X37025000Y44187500I0J62500D01*
G01*
G37*
G36*
G01*
X37025000Y43687500D02*
X37025000Y43812500D01*
G75*
G02*
X37087500Y43875000I62500J0D01*
G01*
X37787500Y43875000D01*
G75*
G02*
X37850000Y43812500I0J-62500D01*
G01*
X37850000Y43687500D01*
G75*
G02*
X37787500Y43625000I-62500J0D01*
G01*
X37087500Y43625000D01*
G75*
G02*
X37025000Y43687500I0J62500D01*
G01*
G37*
G36*
G01*
X37025000Y43187500D02*
X37025000Y43312500D01*
G75*
G02*
X37087500Y43375000I62500J0D01*
G01*
X37787500Y43375000D01*
G75*
G02*
X37850000Y43312500I0J-62500D01*
G01*
X37850000Y43187500D01*
G75*
G02*
X37787500Y43125000I-62500J0D01*
G01*
X37087500Y43125000D01*
G75*
G02*
X37025000Y43187500I0J62500D01*
G01*
G37*
G36*
G01*
X37025000Y42687500D02*
X37025000Y42812500D01*
G75*
G02*
X37087500Y42875000I62500J0D01*
G01*
X37787500Y42875000D01*
G75*
G02*
X37850000Y42812500I0J-62500D01*
G01*
X37850000Y42687500D01*
G75*
G02*
X37787500Y42625000I-62500J0D01*
G01*
X37087500Y42625000D01*
G75*
G02*
X37025000Y42687500I0J62500D01*
G01*
G37*
G36*
G01*
X37025000Y42187500D02*
X37025000Y42312500D01*
G75*
G02*
X37087500Y42375000I62500J0D01*
G01*
X37787500Y42375000D01*
G75*
G02*
X37850000Y42312500I0J-62500D01*
G01*
X37850000Y42187500D01*
G75*
G02*
X37787500Y42125000I-62500J0D01*
G01*
X37087500Y42125000D01*
G75*
G02*
X37025000Y42187500I0J62500D01*
G01*
G37*
G36*
G01*
X36625000Y41212500D02*
X36625000Y41912500D01*
G75*
G02*
X36687500Y41975000I62500J0D01*
G01*
X36812500Y41975000D01*
G75*
G02*
X36875000Y41912500I0J-62500D01*
G01*
X36875000Y41212500D01*
G75*
G02*
X36812500Y41150000I-62500J0D01*
G01*
X36687500Y41150000D01*
G75*
G02*
X36625000Y41212500I0J62500D01*
G01*
G37*
G36*
G01*
X36125000Y41212500D02*
X36125000Y41912500D01*
G75*
G02*
X36187500Y41975000I62500J0D01*
G01*
X36312500Y41975000D01*
G75*
G02*
X36375000Y41912500I0J-62500D01*
G01*
X36375000Y41212500D01*
G75*
G02*
X36312500Y41150000I-62500J0D01*
G01*
X36187500Y41150000D01*
G75*
G02*
X36125000Y41212500I0J62500D01*
G01*
G37*
G36*
G01*
X35625000Y41212500D02*
X35625000Y41912500D01*
G75*
G02*
X35687500Y41975000I62500J0D01*
G01*
X35812500Y41975000D01*
G75*
G02*
X35875000Y41912500I0J-62500D01*
G01*
X35875000Y41212500D01*
G75*
G02*
X35812500Y41150000I-62500J0D01*
G01*
X35687500Y41150000D01*
G75*
G02*
X35625000Y41212500I0J62500D01*
G01*
G37*
G36*
G01*
X35125000Y41212500D02*
X35125000Y41912500D01*
G75*
G02*
X35187500Y41975000I62500J0D01*
G01*
X35312500Y41975000D01*
G75*
G02*
X35375000Y41912500I0J-62500D01*
G01*
X35375000Y41212500D01*
G75*
G02*
X35312500Y41150000I-62500J0D01*
G01*
X35187500Y41150000D01*
G75*
G02*
X35125000Y41212500I0J62500D01*
G01*
G37*
G36*
G01*
X34625000Y41212500D02*
X34625000Y41912500D01*
G75*
G02*
X34687500Y41975000I62500J0D01*
G01*
X34812500Y41975000D01*
G75*
G02*
X34875000Y41912500I0J-62500D01*
G01*
X34875000Y41212500D01*
G75*
G02*
X34812500Y41150000I-62500J0D01*
G01*
X34687500Y41150000D01*
G75*
G02*
X34625000Y41212500I0J62500D01*
G01*
G37*
G36*
G01*
X34125000Y41212500D02*
X34125000Y41912500D01*
G75*
G02*
X34187500Y41975000I62500J0D01*
G01*
X34312500Y41975000D01*
G75*
G02*
X34375000Y41912500I0J-62500D01*
G01*
X34375000Y41212500D01*
G75*
G02*
X34312500Y41150000I-62500J0D01*
G01*
X34187500Y41150000D01*
G75*
G02*
X34125000Y41212500I0J62500D01*
G01*
G37*
G36*
G01*
X33150000Y42187500D02*
X33150000Y42312500D01*
G75*
G02*
X33212500Y42375000I62500J0D01*
G01*
X33912500Y42375000D01*
G75*
G02*
X33975000Y42312500I0J-62500D01*
G01*
X33975000Y42187500D01*
G75*
G02*
X33912500Y42125000I-62500J0D01*
G01*
X33212500Y42125000D01*
G75*
G02*
X33150000Y42187500I0J62500D01*
G01*
G37*
G36*
G01*
X33150000Y42687500D02*
X33150000Y42812500D01*
G75*
G02*
X33212500Y42875000I62500J0D01*
G01*
X33912500Y42875000D01*
G75*
G02*
X33975000Y42812500I0J-62500D01*
G01*
X33975000Y42687500D01*
G75*
G02*
X33912500Y42625000I-62500J0D01*
G01*
X33212500Y42625000D01*
G75*
G02*
X33150000Y42687500I0J62500D01*
G01*
G37*
G36*
G01*
X33150000Y43187500D02*
X33150000Y43312500D01*
G75*
G02*
X33212500Y43375000I62500J0D01*
G01*
X33912500Y43375000D01*
G75*
G02*
X33975000Y43312500I0J-62500D01*
G01*
X33975000Y43187500D01*
G75*
G02*
X33912500Y43125000I-62500J0D01*
G01*
X33212500Y43125000D01*
G75*
G02*
X33150000Y43187500I0J62500D01*
G01*
G37*
G36*
G01*
X33150000Y43687500D02*
X33150000Y43812500D01*
G75*
G02*
X33212500Y43875000I62500J0D01*
G01*
X33912500Y43875000D01*
G75*
G02*
X33975000Y43812500I0J-62500D01*
G01*
X33975000Y43687500D01*
G75*
G02*
X33912500Y43625000I-62500J0D01*
G01*
X33212500Y43625000D01*
G75*
G02*
X33150000Y43687500I0J62500D01*
G01*
G37*
G36*
G01*
X33150000Y44187500D02*
X33150000Y44312500D01*
G75*
G02*
X33212500Y44375000I62500J0D01*
G01*
X33912500Y44375000D01*
G75*
G02*
X33975000Y44312500I0J-62500D01*
G01*
X33975000Y44187500D01*
G75*
G02*
X33912500Y44125000I-62500J0D01*
G01*
X33212500Y44125000D01*
G75*
G02*
X33150000Y44187500I0J62500D01*
G01*
G37*
G36*
G01*
X33150000Y44687500D02*
X33150000Y44812500D01*
G75*
G02*
X33212500Y44875000I62500J0D01*
G01*
X33912500Y44875000D01*
G75*
G02*
X33975000Y44812500I0J-62500D01*
G01*
X33975000Y44687500D01*
G75*
G02*
X33912500Y44625000I-62500J0D01*
G01*
X33212500Y44625000D01*
G75*
G02*
X33150000Y44687500I0J62500D01*
G01*
G37*
%TD*%
D11*
%TO.C,R62*%
X2600000Y64510000D03*
X2600000Y66290000D03*
%TD*%
D12*
%TO.C,C5*%
X32490000Y27000000D03*
X30710000Y27000000D03*
%TD*%
%TO.C,U8*%
G36*
G01*
X34725000Y26125000D02*
X34525000Y26125000D01*
G75*
G02*
X34425000Y26225000I0J100000D01*
G01*
X34425000Y27500000D01*
G75*
G02*
X34525000Y27600000I100000J0D01*
G01*
X34725000Y27600000D01*
G75*
G02*
X34825000Y27500000I0J-100000D01*
G01*
X34825000Y26225000D01*
G75*
G02*
X34725000Y26125000I-100000J0D01*
G01*
G37*
G36*
G01*
X35375000Y26125000D02*
X35175000Y26125000D01*
G75*
G02*
X35075000Y26225000I0J100000D01*
G01*
X35075000Y27500000D01*
G75*
G02*
X35175000Y27600000I100000J0D01*
G01*
X35375000Y27600000D01*
G75*
G02*
X35475000Y27500000I0J-100000D01*
G01*
X35475000Y26225000D01*
G75*
G02*
X35375000Y26125000I-100000J0D01*
G01*
G37*
G36*
G01*
X36025000Y26125000D02*
X35825000Y26125000D01*
G75*
G02*
X35725000Y26225000I0J100000D01*
G01*
X35725000Y27500000D01*
G75*
G02*
X35825000Y27600000I100000J0D01*
G01*
X36025000Y27600000D01*
G75*
G02*
X36125000Y27500000I0J-100000D01*
G01*
X36125000Y26225000D01*
G75*
G02*
X36025000Y26125000I-100000J0D01*
G01*
G37*
G36*
G01*
X36675000Y26125000D02*
X36475000Y26125000D01*
G75*
G02*
X36375000Y26225000I0J100000D01*
G01*
X36375000Y27500000D01*
G75*
G02*
X36475000Y27600000I100000J0D01*
G01*
X36675000Y27600000D01*
G75*
G02*
X36775000Y27500000I0J-100000D01*
G01*
X36775000Y26225000D01*
G75*
G02*
X36675000Y26125000I-100000J0D01*
G01*
G37*
G36*
G01*
X37325000Y26125000D02*
X37125000Y26125000D01*
G75*
G02*
X37025000Y26225000I0J100000D01*
G01*
X37025000Y27500000D01*
G75*
G02*
X37125000Y27600000I100000J0D01*
G01*
X37325000Y27600000D01*
G75*
G02*
X37425000Y27500000I0J-100000D01*
G01*
X37425000Y26225000D01*
G75*
G02*
X37325000Y26125000I-100000J0D01*
G01*
G37*
G36*
G01*
X37975000Y26125000D02*
X37775000Y26125000D01*
G75*
G02*
X37675000Y26225000I0J100000D01*
G01*
X37675000Y27500000D01*
G75*
G02*
X37775000Y27600000I100000J0D01*
G01*
X37975000Y27600000D01*
G75*
G02*
X38075000Y27500000I0J-100000D01*
G01*
X38075000Y26225000D01*
G75*
G02*
X37975000Y26125000I-100000J0D01*
G01*
G37*
G36*
G01*
X38625000Y26125000D02*
X38425000Y26125000D01*
G75*
G02*
X38325000Y26225000I0J100000D01*
G01*
X38325000Y27500000D01*
G75*
G02*
X38425000Y27600000I100000J0D01*
G01*
X38625000Y27600000D01*
G75*
G02*
X38725000Y27500000I0J-100000D01*
G01*
X38725000Y26225000D01*
G75*
G02*
X38625000Y26125000I-100000J0D01*
G01*
G37*
G36*
G01*
X39275000Y26125000D02*
X39075000Y26125000D01*
G75*
G02*
X38975000Y26225000I0J100000D01*
G01*
X38975000Y27500000D01*
G75*
G02*
X39075000Y27600000I100000J0D01*
G01*
X39275000Y27600000D01*
G75*
G02*
X39375000Y27500000I0J-100000D01*
G01*
X39375000Y26225000D01*
G75*
G02*
X39275000Y26125000I-100000J0D01*
G01*
G37*
G36*
G01*
X39925000Y26125000D02*
X39725000Y26125000D01*
G75*
G02*
X39625000Y26225000I0J100000D01*
G01*
X39625000Y27500000D01*
G75*
G02*
X39725000Y27600000I100000J0D01*
G01*
X39925000Y27600000D01*
G75*
G02*
X40025000Y27500000I0J-100000D01*
G01*
X40025000Y26225000D01*
G75*
G02*
X39925000Y26125000I-100000J0D01*
G01*
G37*
G36*
G01*
X40575000Y26125000D02*
X40375000Y26125000D01*
G75*
G02*
X40275000Y26225000I0J100000D01*
G01*
X40275000Y27500000D01*
G75*
G02*
X40375000Y27600000I100000J0D01*
G01*
X40575000Y27600000D01*
G75*
G02*
X40675000Y27500000I0J-100000D01*
G01*
X40675000Y26225000D01*
G75*
G02*
X40575000Y26125000I-100000J0D01*
G01*
G37*
G36*
G01*
X41225000Y26125000D02*
X41025000Y26125000D01*
G75*
G02*
X40925000Y26225000I0J100000D01*
G01*
X40925000Y27500000D01*
G75*
G02*
X41025000Y27600000I100000J0D01*
G01*
X41225000Y27600000D01*
G75*
G02*
X41325000Y27500000I0J-100000D01*
G01*
X41325000Y26225000D01*
G75*
G02*
X41225000Y26125000I-100000J0D01*
G01*
G37*
G36*
G01*
X41875000Y26125000D02*
X41675000Y26125000D01*
G75*
G02*
X41575000Y26225000I0J100000D01*
G01*
X41575000Y27500000D01*
G75*
G02*
X41675000Y27600000I100000J0D01*
G01*
X41875000Y27600000D01*
G75*
G02*
X41975000Y27500000I0J-100000D01*
G01*
X41975000Y26225000D01*
G75*
G02*
X41875000Y26125000I-100000J0D01*
G01*
G37*
G36*
G01*
X41875000Y20400000D02*
X41675000Y20400000D01*
G75*
G02*
X41575000Y20500000I0J100000D01*
G01*
X41575000Y21775000D01*
G75*
G02*
X41675000Y21875000I100000J0D01*
G01*
X41875000Y21875000D01*
G75*
G02*
X41975000Y21775000I0J-100000D01*
G01*
X41975000Y20500000D01*
G75*
G02*
X41875000Y20400000I-100000J0D01*
G01*
G37*
G36*
G01*
X41225000Y20400000D02*
X41025000Y20400000D01*
G75*
G02*
X40925000Y20500000I0J100000D01*
G01*
X40925000Y21775000D01*
G75*
G02*
X41025000Y21875000I100000J0D01*
G01*
X41225000Y21875000D01*
G75*
G02*
X41325000Y21775000I0J-100000D01*
G01*
X41325000Y20500000D01*
G75*
G02*
X41225000Y20400000I-100000J0D01*
G01*
G37*
G36*
G01*
X40575000Y20400000D02*
X40375000Y20400000D01*
G75*
G02*
X40275000Y20500000I0J100000D01*
G01*
X40275000Y21775000D01*
G75*
G02*
X40375000Y21875000I100000J0D01*
G01*
X40575000Y21875000D01*
G75*
G02*
X40675000Y21775000I0J-100000D01*
G01*
X40675000Y20500000D01*
G75*
G02*
X40575000Y20400000I-100000J0D01*
G01*
G37*
G36*
G01*
X39925000Y20400000D02*
X39725000Y20400000D01*
G75*
G02*
X39625000Y20500000I0J100000D01*
G01*
X39625000Y21775000D01*
G75*
G02*
X39725000Y21875000I100000J0D01*
G01*
X39925000Y21875000D01*
G75*
G02*
X40025000Y21775000I0J-100000D01*
G01*
X40025000Y20500000D01*
G75*
G02*
X39925000Y20400000I-100000J0D01*
G01*
G37*
G36*
G01*
X39275000Y20400000D02*
X39075000Y20400000D01*
G75*
G02*
X38975000Y20500000I0J100000D01*
G01*
X38975000Y21775000D01*
G75*
G02*
X39075000Y21875000I100000J0D01*
G01*
X39275000Y21875000D01*
G75*
G02*
X39375000Y21775000I0J-100000D01*
G01*
X39375000Y20500000D01*
G75*
G02*
X39275000Y20400000I-100000J0D01*
G01*
G37*
G36*
G01*
X38625000Y20400000D02*
X38425000Y20400000D01*
G75*
G02*
X38325000Y20500000I0J100000D01*
G01*
X38325000Y21775000D01*
G75*
G02*
X38425000Y21875000I100000J0D01*
G01*
X38625000Y21875000D01*
G75*
G02*
X38725000Y21775000I0J-100000D01*
G01*
X38725000Y20500000D01*
G75*
G02*
X38625000Y20400000I-100000J0D01*
G01*
G37*
G36*
G01*
X37975000Y20400000D02*
X37775000Y20400000D01*
G75*
G02*
X37675000Y20500000I0J100000D01*
G01*
X37675000Y21775000D01*
G75*
G02*
X37775000Y21875000I100000J0D01*
G01*
X37975000Y21875000D01*
G75*
G02*
X38075000Y21775000I0J-100000D01*
G01*
X38075000Y20500000D01*
G75*
G02*
X37975000Y20400000I-100000J0D01*
G01*
G37*
G36*
G01*
X37325000Y20400000D02*
X37125000Y20400000D01*
G75*
G02*
X37025000Y20500000I0J100000D01*
G01*
X37025000Y21775000D01*
G75*
G02*
X37125000Y21875000I100000J0D01*
G01*
X37325000Y21875000D01*
G75*
G02*
X37425000Y21775000I0J-100000D01*
G01*
X37425000Y20500000D01*
G75*
G02*
X37325000Y20400000I-100000J0D01*
G01*
G37*
G36*
G01*
X36675000Y20400000D02*
X36475000Y20400000D01*
G75*
G02*
X36375000Y20500000I0J100000D01*
G01*
X36375000Y21775000D01*
G75*
G02*
X36475000Y21875000I100000J0D01*
G01*
X36675000Y21875000D01*
G75*
G02*
X36775000Y21775000I0J-100000D01*
G01*
X36775000Y20500000D01*
G75*
G02*
X36675000Y20400000I-100000J0D01*
G01*
G37*
G36*
G01*
X36025000Y20400000D02*
X35825000Y20400000D01*
G75*
G02*
X35725000Y20500000I0J100000D01*
G01*
X35725000Y21775000D01*
G75*
G02*
X35825000Y21875000I100000J0D01*
G01*
X36025000Y21875000D01*
G75*
G02*
X36125000Y21775000I0J-100000D01*
G01*
X36125000Y20500000D01*
G75*
G02*
X36025000Y20400000I-100000J0D01*
G01*
G37*
G36*
G01*
X35375000Y20400000D02*
X35175000Y20400000D01*
G75*
G02*
X35075000Y20500000I0J100000D01*
G01*
X35075000Y21775000D01*
G75*
G02*
X35175000Y21875000I100000J0D01*
G01*
X35375000Y21875000D01*
G75*
G02*
X35475000Y21775000I0J-100000D01*
G01*
X35475000Y20500000D01*
G75*
G02*
X35375000Y20400000I-100000J0D01*
G01*
G37*
G36*
G01*
X34725000Y20400000D02*
X34525000Y20400000D01*
G75*
G02*
X34425000Y20500000I0J100000D01*
G01*
X34425000Y21775000D01*
G75*
G02*
X34525000Y21875000I100000J0D01*
G01*
X34725000Y21875000D01*
G75*
G02*
X34825000Y21775000I0J-100000D01*
G01*
X34825000Y20500000D01*
G75*
G02*
X34725000Y20400000I-100000J0D01*
G01*
G37*
%TD*%
D11*
%TO.C,R66*%
X69366666Y55510000D03*
X69366666Y57290000D03*
%TD*%
%TO.C,R65*%
X66483333Y57290000D03*
X66483333Y55510000D03*
%TD*%
%TO.C,R64*%
X72250000Y55510000D03*
X72250000Y57290000D03*
%TD*%
%TO.C,R16*%
X32600000Y33290000D03*
X32600000Y31510000D03*
%TD*%
%TO.C,R6*%
X12400000Y22510000D03*
X12400000Y24290000D03*
%TD*%
%TO.C,R4*%
X79500000Y66610000D03*
X79500000Y68390000D03*
%TD*%
D13*
%TO.C,D9*%
X63550000Y52550000D03*
X63550000Y48350000D03*
%TD*%
%TO.C,C29*%
G36*
G01*
X51000000Y47150000D02*
X52100000Y47150000D01*
G75*
G02*
X52350000Y46900000I0J-250000D01*
G01*
X52350000Y43900000D01*
G75*
G02*
X52100000Y43650000I-250000J0D01*
G01*
X51000000Y43650000D01*
G75*
G02*
X50750000Y43900000I0J250000D01*
G01*
X50750000Y46900000D01*
G75*
G02*
X51000000Y47150000I250000J0D01*
G01*
G37*
G36*
G01*
X51000000Y52750000D02*
X52100000Y52750000D01*
G75*
G02*
X52350000Y52500000I0J-250000D01*
G01*
X52350000Y49500000D01*
G75*
G02*
X52100000Y49250000I-250000J0D01*
G01*
X51000000Y49250000D01*
G75*
G02*
X50750000Y49500000I0J250000D01*
G01*
X50750000Y52500000D01*
G75*
G02*
X51000000Y52750000I250000J0D01*
G01*
G37*
%TD*%
D14*
%TO.C,C23*%
X59825000Y46150000D03*
X56875000Y46150000D03*
%TD*%
D11*
%TO.C,C15*%
X63600000Y57290000D03*
X63600000Y55510000D03*
%TD*%
D12*
%TO.C,C13*%
X68290000Y53150000D03*
X66510000Y53150000D03*
%TD*%
D15*
%TO.C,C6*%
X73250000Y48625000D03*
X73250000Y45675000D03*
%TD*%
D11*
%TO.C,C41*%
X62300000Y1410000D03*
X62300000Y3190000D03*
%TD*%
D12*
%TO.C,C40*%
X49310000Y2500000D03*
X51090000Y2500000D03*
%TD*%
%TO.C,C39*%
X49300000Y5300000D03*
X51080000Y5300000D03*
%TD*%
%TO.C,R70*%
X46890000Y4250000D03*
X45110000Y4250000D03*
%TD*%
D11*
%TO.C,R69*%
X24000000Y13400000D03*
X24000000Y11620000D03*
%TD*%
%TO.C,C24*%
X39000000Y35860000D03*
X39000000Y37640000D03*
%TD*%
%TO.C,F3*%
X10250000Y60110000D03*
X10250000Y61890000D03*
%TD*%
%TO.C,F2*%
X28500000Y64360000D03*
X28500000Y66140000D03*
%TD*%
D13*
%TO.C,D10*%
X92750000Y34650000D03*
X92750000Y38850000D03*
%TD*%
%TO.C,D3*%
X92250000Y16900000D03*
X92250000Y21100000D03*
%TD*%
D16*
%TO.C,SW1*%
X8250000Y14950000D03*
X8250000Y22750000D03*
%TD*%
D12*
%TO.C,R15*%
X32390000Y8500000D03*
X30610000Y8500000D03*
%TD*%
%TO.C,R53*%
G36*
G01*
X89299999Y8925000D02*
X92200001Y8925000D01*
G75*
G02*
X92450000Y8675001I0J-249999D01*
G01*
X92450000Y7874999D01*
G75*
G02*
X92200001Y7625000I-249999J0D01*
G01*
X89299999Y7625000D01*
G75*
G02*
X89050000Y7874999I0J249999D01*
G01*
X89050000Y8675001D01*
G75*
G02*
X89299999Y8925000I249999J0D01*
G01*
G37*
G36*
G01*
X89299999Y13375000D02*
X92200001Y13375000D01*
G75*
G02*
X92450000Y13125001I0J-249999D01*
G01*
X92450000Y12324999D01*
G75*
G02*
X92200001Y12075000I-249999J0D01*
G01*
X89299999Y12075000D01*
G75*
G02*
X89050000Y12324999I0J249999D01*
G01*
X89050000Y13125001D01*
G75*
G02*
X89299999Y13375000I249999J0D01*
G01*
G37*
%TD*%
%TO.C,R30*%
G36*
G01*
X89950001Y36325000D02*
X87049999Y36325000D01*
G75*
G02*
X86800000Y36574999I0J249999D01*
G01*
X86800000Y37375001D01*
G75*
G02*
X87049999Y37625000I249999J0D01*
G01*
X89950001Y37625000D01*
G75*
G02*
X90200000Y37375001I0J-249999D01*
G01*
X90200000Y36574999D01*
G75*
G02*
X89950001Y36325000I-249999J0D01*
G01*
G37*
G36*
G01*
X89950001Y31875000D02*
X87049999Y31875000D01*
G75*
G02*
X86800000Y32124999I0J249999D01*
G01*
X86800000Y32925001D01*
G75*
G02*
X87049999Y33175000I249999J0D01*
G01*
X89950001Y33175000D01*
G75*
G02*
X90200000Y32925001I0J-249999D01*
G01*
X90200000Y32124999D01*
G75*
G02*
X89950001Y31875000I-249999J0D01*
G01*
G37*
%TD*%
D17*
%TO.C,U3*%
X69725000Y64075000D03*
X72775000Y60725000D03*
X72775000Y64075000D03*
X69725000Y60725000D03*
D18*
X68970000Y68700000D03*
X73530000Y68700000D03*
%TD*%
D17*
%TO.C,Q2*%
X61775000Y68675000D03*
X58725000Y72025000D03*
X58725000Y68675000D03*
X61775000Y72025000D03*
D18*
X62530000Y64050000D03*
X57970000Y64050000D03*
%TD*%
D19*
%TO.C,C38*%
X72360000Y51600000D03*
X75340000Y51600000D03*
%TD*%
D20*
%TO.C,C20*%
X65750000Y69260000D03*
X65750000Y72240000D03*
%TD*%
D21*
%TO.C,U17*%
X58245000Y10600000D03*
X59515000Y10600000D03*
X60785000Y10600000D03*
X62055000Y10600000D03*
X62055000Y5400000D03*
X60785000Y5400000D03*
X59515000Y5400000D03*
X58245000Y5400000D03*
%TD*%
%TO.C,U14*%
X76695000Y21350000D03*
X77965000Y21350000D03*
X79235000Y21350000D03*
X80505000Y21350000D03*
X80505000Y16150000D03*
X79235000Y16150000D03*
X77965000Y16150000D03*
X76695000Y16150000D03*
%TD*%
%TO.C,R48*%
G36*
G01*
X67799999Y7425000D02*
X70700001Y7425000D01*
G75*
G02*
X70950000Y7175001I0J-249999D01*
G01*
X70950000Y6374999D01*
G75*
G02*
X70700001Y6125000I-249999J0D01*
G01*
X67799999Y6125000D01*
G75*
G02*
X67550000Y6374999I0J249999D01*
G01*
X67550000Y7175001D01*
G75*
G02*
X67799999Y7425000I249999J0D01*
G01*
G37*
G36*
G01*
X67799999Y11875000D02*
X70700001Y11875000D01*
G75*
G02*
X70950000Y11625001I0J-249999D01*
G01*
X70950000Y10824999D01*
G75*
G02*
X70700001Y10575000I-249999J0D01*
G01*
X67799999Y10575000D01*
G75*
G02*
X67550000Y10824999I0J249999D01*
G01*
X67550000Y11625001D01*
G75*
G02*
X67799999Y11875000I249999J0D01*
G01*
G37*
%TD*%
D22*
%TO.C,Q3*%
X55250000Y71500000D03*
X52750000Y70550000D03*
X52750000Y72450000D03*
%TD*%
D23*
%TO.C,Q1*%
X54200000Y62750000D03*
X53250000Y65250000D03*
X55150000Y65250000D03*
%TD*%
D24*
%TO.C,D4*%
X50500000Y68500000D03*
X50500000Y65000000D03*
%TD*%
D11*
%TO.C,C10*%
X56500000Y39390000D03*
X56500000Y37610000D03*
%TD*%
D25*
%TO.C,U4*%
X53250000Y33000000D03*
D26*
X50750000Y31500000D03*
D27*
X53150000Y31500000D03*
D25*
X53250000Y30000000D03*
%TD*%
D21*
%TO.C,U21*%
X20095000Y52850000D03*
X21365000Y52850000D03*
X22635000Y52850000D03*
X23905000Y52850000D03*
X23905000Y47650000D03*
X22635000Y47650000D03*
X21365000Y47650000D03*
X20095000Y47650000D03*
%TD*%
D28*
%TO.C,U2*%
X1995000Y44000000D03*
X3265000Y44000000D03*
X4535000Y44000000D03*
X5805000Y44000000D03*
X7075000Y44000000D03*
X8345000Y44000000D03*
X9615000Y44000000D03*
X10885000Y44000000D03*
X12155000Y44000000D03*
X13425000Y44000000D03*
X14695000Y44000000D03*
X15965000Y44000000D03*
X17235000Y44000000D03*
X18505000Y44000000D03*
D29*
X19505000Y41215000D03*
X19505000Y39945000D03*
X19505000Y38675000D03*
X19505000Y37405000D03*
X19505000Y36135000D03*
X19505000Y34865000D03*
X19505000Y33595000D03*
X19505000Y32325000D03*
X19505000Y31055000D03*
X19505000Y29785000D03*
D28*
X18505000Y27000000D03*
X17235000Y27000000D03*
X15965000Y27000000D03*
X14695000Y27000000D03*
X13425000Y27000000D03*
X12155000Y27000000D03*
X10885000Y27000000D03*
X9615000Y27000000D03*
X8345000Y27000000D03*
X7075000Y27000000D03*
X5805000Y27000000D03*
X4535000Y27000000D03*
X3265000Y27000000D03*
X1995000Y27000000D03*
D30*
X9495000Y34500000D03*
%TD*%
D31*
%TO.C,U20*%
X10500000Y54980000D03*
X10500000Y57520000D03*
X16500000Y57520000D03*
X16500000Y54980000D03*
%TD*%
D32*
%TO.C,U19*%
X7520000Y55500000D03*
X4980000Y55500000D03*
X4980000Y61500000D03*
X7520000Y61500000D03*
%TD*%
%TO.C,U18*%
X27530000Y57750000D03*
X30070000Y57750000D03*
X30070000Y51750000D03*
X27530000Y51750000D03*
%TD*%
D33*
%TO.C,U15*%
X74060000Y4390000D03*
X85540000Y12010000D03*
X74060000Y6930000D03*
X85540000Y9470000D03*
X74060000Y9470000D03*
X85540000Y6930000D03*
X74060000Y12010000D03*
X85540000Y4390000D03*
%TD*%
D31*
%TO.C,U12*%
X69000000Y25730000D03*
X69000000Y28270000D03*
X75000000Y28270000D03*
X75000000Y25730000D03*
%TD*%
%TO.C,U10*%
X69000000Y31730000D03*
X69000000Y34270000D03*
X75000000Y34270000D03*
X75000000Y31730000D03*
%TD*%
D33*
%TO.C,U9*%
X57010000Y14440000D03*
X68490000Y22060000D03*
X57010000Y16980000D03*
X68490000Y19520000D03*
X57010000Y19520000D03*
X68490000Y16980000D03*
X57010000Y22060000D03*
X68490000Y14440000D03*
%TD*%
D34*
%TO.C,U5*%
X63000000Y33300000D03*
D35*
X57000000Y31000000D03*
D34*
X63000000Y31000000D03*
X63000000Y28700000D03*
%TD*%
D11*
%TO.C,R61*%
X25000000Y57890000D03*
X25000000Y56110000D03*
%TD*%
%TO.C,R60*%
X28500000Y68360000D03*
X28500000Y70140000D03*
%TD*%
%TO.C,R59*%
X2500000Y60360000D03*
X2500000Y62140000D03*
%TD*%
%TO.C,R58*%
X28500000Y62140000D03*
X28500000Y60360000D03*
%TD*%
%TO.C,R57*%
X17000000Y51530000D03*
X17000000Y49750000D03*
%TD*%
%TO.C,R56*%
X22250000Y57890000D03*
X22250000Y56110000D03*
%TD*%
%TO.C,R55*%
X6750000Y66390000D03*
X6750000Y64610000D03*
%TD*%
%TO.C,R54*%
X27250000Y47110000D03*
X27250000Y48890000D03*
%TD*%
%TO.C,R52*%
X93000000Y44390000D03*
X93000000Y42610000D03*
%TD*%
D12*
%TO.C,R51*%
X91610000Y24500000D03*
X93390000Y24500000D03*
%TD*%
%TO.C,R50*%
X85140000Y19000000D03*
X83360000Y19000000D03*
%TD*%
D11*
%TO.C,R49*%
X81750000Y34140000D03*
X81750000Y32360000D03*
%TD*%
D12*
%TO.C,R47*%
X63510000Y26000000D03*
X65290000Y26000000D03*
%TD*%
D11*
%TO.C,R46*%
X64800000Y8510000D03*
X64800000Y10290000D03*
%TD*%
D12*
%TO.C,R45*%
X53610000Y5250000D03*
X55390000Y5250000D03*
%TD*%
D11*
%TO.C,R43*%
X36250000Y49560000D03*
X36250000Y51340000D03*
%TD*%
D12*
%TO.C,R42*%
X3860000Y12000000D03*
X5640000Y12000000D03*
%TD*%
D11*
%TO.C,R41*%
X33450000Y49560000D03*
X33450000Y51340000D03*
%TD*%
%TO.C,R40*%
X42100000Y49610000D03*
X42100000Y51390000D03*
%TD*%
%TO.C,R39*%
X26000000Y44640000D03*
X26000000Y42860000D03*
%TD*%
%TO.C,R38*%
X23250000Y42860000D03*
X23250000Y44640000D03*
%TD*%
D12*
%TO.C,R37*%
X59890000Y2500000D03*
X58110000Y2500000D03*
%TD*%
D11*
%TO.C,R36*%
X30000000Y48890000D03*
X30000000Y47110000D03*
%TD*%
%TO.C,R35*%
X39300000Y49610000D03*
X39300000Y51390000D03*
%TD*%
D12*
%TO.C,R34*%
X53610000Y2500000D03*
X55390000Y2500000D03*
%TD*%
D11*
%TO.C,R33*%
X12250000Y11750000D03*
X12250000Y9970000D03*
%TD*%
%TO.C,R32*%
X35600000Y33290000D03*
X35600000Y31510000D03*
%TD*%
%TO.C,R31*%
X38750000Y31360000D03*
X38750000Y33140000D03*
%TD*%
D12*
%TO.C,R29*%
X85140000Y16250000D03*
X83360000Y16250000D03*
%TD*%
%TO.C,R28*%
G36*
G01*
X65425000Y4700001D02*
X65425000Y1799999D01*
G75*
G02*
X65175001Y1550000I-249999J0D01*
G01*
X64374999Y1550000D01*
G75*
G02*
X64125000Y1799999I0J249999D01*
G01*
X64125000Y4700001D01*
G75*
G02*
X64374999Y4950000I249999J0D01*
G01*
X65175001Y4950000D01*
G75*
G02*
X65425000Y4700001I0J-249999D01*
G01*
G37*
G36*
G01*
X69875000Y4700001D02*
X69875000Y1799999D01*
G75*
G02*
X69625001Y1550000I-249999J0D01*
G01*
X68824999Y1550000D01*
G75*
G02*
X68575000Y1799999I0J249999D01*
G01*
X68575000Y4700001D01*
G75*
G02*
X68824999Y4950000I249999J0D01*
G01*
X69625001Y4950000D01*
G75*
G02*
X69875000Y4700001I0J-249999D01*
G01*
G37*
%TD*%
%TO.C,R27*%
X46110000Y8500000D03*
X47890000Y8500000D03*
%TD*%
%TO.C,R26*%
X15110000Y8500000D03*
X16890000Y8500000D03*
%TD*%
D11*
%TO.C,R22*%
X41500000Y35890000D03*
X41500000Y34110000D03*
%TD*%
%TO.C,R21*%
X33700000Y37640000D03*
X33700000Y35860000D03*
%TD*%
%TO.C,R20*%
X36350000Y37640000D03*
X36350000Y35860000D03*
%TD*%
D12*
%TO.C,R19*%
X7200000Y47900000D03*
X5420000Y47900000D03*
%TD*%
%TO.C,R18*%
X11890000Y47900000D03*
X10110000Y47900000D03*
%TD*%
%TO.C,R17*%
X41360000Y38500000D03*
X43140000Y38500000D03*
%TD*%
%TO.C,R14*%
X28610000Y41000000D03*
X30390000Y41000000D03*
%TD*%
D11*
%TO.C,R13*%
X76500000Y62110000D03*
X76500000Y63890000D03*
%TD*%
%TO.C,R12*%
X76500000Y68390000D03*
X76500000Y66610000D03*
%TD*%
D12*
%TO.C,R11*%
X56780000Y60250000D03*
X55000000Y60250000D03*
%TD*%
D11*
%TO.C,R10*%
X2500000Y57140000D03*
X2500000Y55360000D03*
%TD*%
D12*
%TO.C,R9*%
X53110000Y68000000D03*
X54890000Y68000000D03*
%TD*%
D11*
%TO.C,R8*%
X50500000Y58110000D03*
X50500000Y59890000D03*
%TD*%
%TO.C,R7*%
X50250000Y70860000D03*
X50250000Y72640000D03*
%TD*%
%TO.C,R5*%
X84750000Y32360000D03*
X84750000Y34140000D03*
%TD*%
%TO.C,R2*%
X4250000Y17610000D03*
X4250000Y19390000D03*
%TD*%
%TO.C,R1*%
X80500000Y37610000D03*
X80500000Y39390000D03*
%TD*%
D12*
%TO.C,L1*%
X42140000Y44250000D03*
X40360000Y44250000D03*
%TD*%
D20*
%TO.C,F1*%
X84400000Y67890000D03*
X84400000Y64910000D03*
%TD*%
D13*
%TO.C,D8*%
X17350000Y61000000D03*
X13150000Y61000000D03*
%TD*%
%TO.C,D7*%
X25250000Y61000000D03*
X21050000Y61000000D03*
%TD*%
%TO.C,D6*%
X81250000Y29600000D03*
X81250000Y25400000D03*
%TD*%
%TO.C,D5*%
X85000000Y29600000D03*
X85000000Y25400000D03*
%TD*%
%TO.C,D2*%
X89000000Y64100000D03*
X89000000Y68300000D03*
%TD*%
%TO.C,D1*%
X93000000Y65900000D03*
X93000000Y61700000D03*
%TD*%
D11*
%TO.C,C30*%
X19500000Y56110000D03*
X19500000Y57890000D03*
%TD*%
D12*
%TO.C,C28*%
X91470000Y28000000D03*
X93250000Y28000000D03*
%TD*%
%TO.C,C27*%
X83360000Y22000000D03*
X85140000Y22000000D03*
%TD*%
D11*
%TO.C,C26*%
X77750000Y27750000D03*
X77750000Y25970000D03*
%TD*%
%TO.C,C25*%
X77750000Y33890000D03*
X77750000Y32110000D03*
%TD*%
%TO.C,C22*%
X28250000Y37640000D03*
X28250000Y35860000D03*
%TD*%
D12*
%TO.C,C21*%
X40360000Y47000000D03*
X42140000Y47000000D03*
%TD*%
D11*
%TO.C,C19*%
X31050000Y37640000D03*
X31050000Y35860000D03*
%TD*%
D12*
%TO.C,C18*%
X30390000Y44250000D03*
X28610000Y44250000D03*
%TD*%
D11*
%TO.C,C17*%
X55200000Y8600000D03*
X55200000Y10380000D03*
%TD*%
%TO.C,C16*%
X74100000Y19610000D03*
X74100000Y21390000D03*
%TD*%
%TO.C,C14*%
X12250000Y17280000D03*
X12250000Y15500000D03*
%TD*%
D12*
%TO.C,C12*%
X52000000Y27250000D03*
X53780000Y27250000D03*
%TD*%
%TO.C,C9*%
X58640000Y26250000D03*
X56860000Y26250000D03*
%TD*%
D11*
%TO.C,C8*%
X65750000Y31610000D03*
X65750000Y33390000D03*
%TD*%
%TO.C,C7*%
X4250000Y21860000D03*
X4250000Y23640000D03*
%TD*%
%TO.C,C3*%
X83000000Y37610000D03*
X83000000Y39390000D03*
%TD*%
D20*
%TO.C,C1*%
X53500000Y40490000D03*
X53500000Y37510000D03*
%TD*%
M02*
