%TF.GenerationSoftware,KiCad,Pcbnew,(5.1.10)-1*%
%TF.CreationDate,2022-12-14T20:36:11+08:00*%
%TF.ProjectId,interface,696e7465-7266-4616-9365-2e6b69636164,rev?*%
%TF.SameCoordinates,Original*%
%TF.FileFunction,Legend,Bot*%
%TF.FilePolarity,Positive*%
%FSLAX46Y46*%
G04 Gerber Fmt 4.6, Leading zero omitted, Abs format (unit mm)*
G04 Created by KiCad (PCBNEW (5.1.10)-1) date 2022-12-14 20:36:11*
%MOMM*%
%LPD*%
G01*
G04 APERTURE LIST*
%ADD10C,0.120000*%
%ADD11C,0.150000*%
G04 APERTURE END LIST*
D10*
%TO.C,J4*%
X53900000Y65840000D02*
X52540000Y65840000D01*
X59100000Y54160000D02*
X59100000Y53590000D01*
X59100000Y56700000D02*
X59100000Y55680000D01*
X59100000Y59240000D02*
X59100000Y58220000D01*
X59100000Y61780000D02*
X59100000Y60760000D01*
X59100000Y64320000D02*
X59100000Y63300000D01*
X59100000Y66410000D02*
X59100000Y65840000D01*
X59100000Y53590000D02*
X53900000Y53590000D01*
X53900000Y54160000D02*
X53900000Y53590000D01*
X53900000Y56700000D02*
X53900000Y55680000D01*
X53900000Y59240000D02*
X53900000Y58220000D01*
X53900000Y61780000D02*
X53900000Y60760000D01*
X53900000Y64320000D02*
X53900000Y63300000D01*
X53900000Y66410000D02*
X53900000Y65840000D01*
X59100000Y66410000D02*
X53900000Y66410000D01*
%TO.C,J7*%
X3900000Y65840000D02*
X2540000Y65840000D01*
X9100000Y54160000D02*
X9100000Y53590000D01*
X9100000Y56700000D02*
X9100000Y55680000D01*
X9100000Y59240000D02*
X9100000Y58220000D01*
X9100000Y61780000D02*
X9100000Y60760000D01*
X9100000Y64320000D02*
X9100000Y63300000D01*
X9100000Y66410000D02*
X9100000Y65840000D01*
X9100000Y53590000D02*
X3900000Y53590000D01*
X3900000Y54160000D02*
X3900000Y53590000D01*
X3900000Y56700000D02*
X3900000Y55680000D01*
X3900000Y59240000D02*
X3900000Y58220000D01*
X3900000Y61780000D02*
X3900000Y60760000D01*
X3900000Y64320000D02*
X3900000Y63300000D01*
X3900000Y66410000D02*
X3900000Y65840000D01*
X9100000Y66410000D02*
X3900000Y66410000D01*
%TO.C,J5*%
X3900000Y20840000D02*
X2540000Y20840000D01*
X9100000Y9160000D02*
X9100000Y8590000D01*
X9100000Y11700000D02*
X9100000Y10680000D01*
X9100000Y14240000D02*
X9100000Y13220000D01*
X9100000Y16780000D02*
X9100000Y15760000D01*
X9100000Y19320000D02*
X9100000Y18300000D01*
X9100000Y21410000D02*
X9100000Y20840000D01*
X9100000Y8590000D02*
X3900000Y8590000D01*
X3900000Y9160000D02*
X3900000Y8590000D01*
X3900000Y11700000D02*
X3900000Y10680000D01*
X3900000Y14240000D02*
X3900000Y13220000D01*
X3900000Y16780000D02*
X3900000Y15760000D01*
X3900000Y19320000D02*
X3900000Y18300000D01*
X3900000Y21410000D02*
X3900000Y20840000D01*
X9100000Y21410000D02*
X3900000Y21410000D01*
%TO.C,J4*%
D11*
X56833333Y68397620D02*
X56833333Y67683334D01*
X56880952Y67540477D01*
X56976190Y67445239D01*
X57119047Y67397620D01*
X57214285Y67397620D01*
X55928571Y68064286D02*
X55928571Y67397620D01*
X56166666Y68445239D02*
X56404761Y67730953D01*
X55785714Y67730953D01*
%TO.C,J7*%
X6833333Y68397620D02*
X6833333Y67683334D01*
X6880952Y67540477D01*
X6976190Y67445239D01*
X7119047Y67397620D01*
X7214285Y67397620D01*
X6452380Y68397620D02*
X5785714Y68397620D01*
X6214285Y67397620D01*
%TO.C,J5*%
X6833333Y23397620D02*
X6833333Y22683334D01*
X6880952Y22540477D01*
X6976190Y22445239D01*
X7119047Y22397620D01*
X7214285Y22397620D01*
X5880952Y23397620D02*
X6357142Y23397620D01*
X6404761Y22921429D01*
X6357142Y22969048D01*
X6261904Y23016667D01*
X6023809Y23016667D01*
X5928571Y22969048D01*
X5880952Y22921429D01*
X5833333Y22826191D01*
X5833333Y22588096D01*
X5880952Y22492858D01*
X5928571Y22445239D01*
X6023809Y22397620D01*
X6261904Y22397620D01*
X6357142Y22445239D01*
X6404761Y22492858D01*
%TD*%
M02*
