%TF.GenerationSoftware,KiCad,Pcbnew,(5.1.10)-1*%
%TF.CreationDate,2022-12-14T20:36:11+08:00*%
%TF.ProjectId,interface,696e7465-7266-4616-9365-2e6b69636164,rev?*%
%TF.SameCoordinates,Original*%
%TF.FileFunction,Soldermask,Bot*%
%TF.FilePolarity,Negative*%
%FSLAX46Y46*%
G04 Gerber Fmt 4.6, Leading zero omitted, Abs format (unit mm)*
G04 Created by KiCad (PCBNEW (5.1.10)-1) date 2022-12-14 20:36:11*
%MOMM*%
%LPD*%
G01*
G04 APERTURE LIST*
%ADD10C,0.100000*%
%ADD11C,2.501600*%
%ADD12C,1.901600*%
%ADD13C,2.101600*%
%ADD14C,3.551600*%
%ADD15C,2.001600*%
%ADD16C,3.351600*%
%ADD17C,1.701600*%
%ADD18O,1.801600X1.801600*%
%ADD19O,3.701600X2.181600*%
%ADD20O,2.181600X3.701600*%
%ADD21C,0.901600*%
%ADD22C,6.101600*%
%ADD23C,0.350000*%
G04 APERTURE END LIST*
D10*
G36*
X74488000Y58964000D02*
G01*
X68138000Y58964000D01*
X68138000Y65568000D01*
X74488000Y65568000D01*
X74488000Y58964000D01*
G37*
X74488000Y58964000D02*
X68138000Y58964000D01*
X68138000Y65568000D01*
X74488000Y65568000D01*
X74488000Y58964000D01*
G36*
X74488000Y58964000D02*
G01*
X68138000Y58964000D01*
X68138000Y65568000D01*
X74488000Y65568000D01*
X74488000Y58964000D01*
G37*
X74488000Y58964000D02*
X68138000Y58964000D01*
X68138000Y65568000D01*
X74488000Y65568000D01*
X74488000Y58964000D01*
D11*
%TO.C,C31*%
X88303301Y51196699D03*
G36*
G01*
X81267023Y56535921D02*
X82964079Y58232977D01*
G75*
G02*
X83035921Y58232977I35921J-35921D01*
G01*
X84732977Y56535921D01*
G75*
G02*
X84732977Y56464079I-35921J-35921D01*
G01*
X83035921Y54767023D01*
G75*
G02*
X82964079Y54767023I-35921J35921D01*
G01*
X81267023Y56464079D01*
G75*
G02*
X81267023Y56535921I35921J35921D01*
G01*
G37*
%TD*%
D12*
%TO.C,JP4*%
X74540000Y72500000D03*
X72000000Y72500000D03*
X69460000Y72500000D03*
%TD*%
D13*
%TO.C,U1*%
X60750000Y37200000D03*
X63290000Y37200000D03*
X68370000Y37200000D03*
X73450000Y37200000D03*
X65830000Y37200000D03*
X70910000Y37200000D03*
%TD*%
%TO.C,J6*%
X32875000Y69650000D03*
X35415000Y69650000D03*
X43585000Y69650000D03*
X46125000Y69650000D03*
D14*
X31755000Y61700000D03*
X47245000Y61700000D03*
D15*
X36330000Y58400000D03*
X38870000Y58400000D03*
X41410000Y58400000D03*
X43950000Y58400000D03*
X35060000Y55860000D03*
X37600000Y55860000D03*
X42680000Y55860000D03*
X40140000Y55860000D03*
D16*
X45215000Y64750000D03*
X33785000Y64750000D03*
%TD*%
D17*
%TO.C,SW2*%
X15500000Y16500000D03*
X17500000Y16500000D03*
X19500000Y16500000D03*
X15500000Y11500000D03*
X17500000Y11500000D03*
X19500000Y11500000D03*
%TD*%
D18*
%TO.C,J3*%
X36420000Y4700000D03*
X33880000Y4700000D03*
X31340000Y4700000D03*
G36*
G01*
X29650000Y3799200D02*
X27950000Y3799200D01*
G75*
G02*
X27899200Y3850000I0J50800D01*
G01*
X27899200Y5550000D01*
G75*
G02*
X27950000Y5600800I50800J0D01*
G01*
X29650000Y5600800D01*
G75*
G02*
X29700800Y5550000I0J-50800D01*
G01*
X29700800Y3850000D01*
G75*
G02*
X29650000Y3799200I-50800J0D01*
G01*
G37*
%TD*%
%TO.C,C4*%
G36*
G01*
X86024739Y53463129D02*
X86236871Y53675261D01*
G75*
G02*
X87510795Y53675261I636962J-636962D01*
G01*
X87510795Y53675261D01*
G75*
G02*
X87510795Y52401337I-636962J-636962D01*
G01*
X87298663Y52189205D01*
G75*
G02*
X86024739Y52189205I-636962J636962D01*
G01*
X86024739Y52189205D01*
G75*
G02*
X86024739Y53463129I636962J636962D01*
G01*
G37*
G36*
G01*
X83807352Y54781276D02*
X84918724Y55892648D01*
G75*
G02*
X85293408Y55892648I187342J-187342D01*
G01*
X86192648Y54993408D01*
G75*
G02*
X86192648Y54618724I-187342J-187342D01*
G01*
X85081276Y53507352D01*
G75*
G02*
X84706592Y53507352I-187342J187342D01*
G01*
X83807352Y54406592D01*
G75*
G02*
X83807352Y54781276I187342J187342D01*
G01*
G37*
%TD*%
%TO.C,D12*%
X41000000Y7250000D03*
G36*
G01*
X41900800Y5560000D02*
X41900800Y3860000D01*
G75*
G02*
X41850000Y3809200I-50800J0D01*
G01*
X40150000Y3809200D01*
G75*
G02*
X40099200Y3860000I0J50800D01*
G01*
X40099200Y5560000D01*
G75*
G02*
X40150000Y5610800I50800J0D01*
G01*
X41850000Y5610800D01*
G75*
G02*
X41900800Y5560000I0J-50800D01*
G01*
G37*
%TD*%
%TO.C,D11*%
X24000000Y7290000D03*
G36*
G01*
X24900800Y5600000D02*
X24900800Y3900000D01*
G75*
G02*
X24850000Y3849200I-50800J0D01*
G01*
X23150000Y3849200D01*
G75*
G02*
X23099200Y3900000I0J50800D01*
G01*
X23099200Y5600000D01*
G75*
G02*
X23150000Y5650800I50800J0D01*
G01*
X24850000Y5650800D01*
G75*
G02*
X24900800Y5600000I0J-50800D01*
G01*
G37*
%TD*%
%TO.C,J8*%
X5980000Y51000000D03*
X8520000Y51000000D03*
X11060000Y51000000D03*
G36*
G01*
X12750000Y51900800D02*
X14450000Y51900800D01*
G75*
G02*
X14500800Y51850000I0J-50800D01*
G01*
X14500800Y50150000D01*
G75*
G02*
X14450000Y50099200I-50800J0D01*
G01*
X12750000Y50099200D01*
G75*
G02*
X12699200Y50150000I0J50800D01*
G01*
X12699200Y51850000D01*
G75*
G02*
X12750000Y51900800I50800J0D01*
G01*
G37*
%TD*%
D17*
%TO.C,SW4*%
X46500000Y16500000D03*
X48500000Y16500000D03*
X50500000Y16500000D03*
X46500000Y11500000D03*
X48500000Y11500000D03*
X50500000Y11500000D03*
%TD*%
%TO.C,SW3*%
X31000000Y16500000D03*
X33000000Y16500000D03*
X35000000Y16500000D03*
X31000000Y11500000D03*
X33000000Y11500000D03*
X35000000Y11500000D03*
%TD*%
D19*
%TO.C,J9*%
X97500000Y42660000D03*
X97500000Y37580000D03*
G36*
G01*
X99088592Y31409200D02*
X95911408Y31409200D01*
G75*
G02*
X95649200Y31671408I0J262208D01*
G01*
X95649200Y33328592D01*
G75*
G02*
X95911408Y33590800I262208J0D01*
G01*
X99088592Y33590800D01*
G75*
G02*
X99350800Y33328592I0J-262208D01*
G01*
X99350800Y31671408D01*
G75*
G02*
X99088592Y31409200I-262208J0D01*
G01*
G37*
%TD*%
D20*
%TO.C,J12*%
X12250000Y65500000D03*
X17330000Y65500000D03*
G36*
G01*
X23500800Y67088592D02*
X23500800Y63911408D01*
G75*
G02*
X23238592Y63649200I-262208J0D01*
G01*
X21581408Y63649200D01*
G75*
G02*
X21319200Y63911408I0J262208D01*
G01*
X21319200Y67088592D01*
G75*
G02*
X21581408Y67350800I262208J0D01*
G01*
X23238592Y67350800D01*
G75*
G02*
X23500800Y67088592I0J-262208D01*
G01*
G37*
%TD*%
D19*
%TO.C,J11*%
X97500000Y24080000D03*
X97500000Y19000000D03*
G36*
G01*
X99088592Y12829200D02*
X95911408Y12829200D01*
G75*
G02*
X95649200Y13091408I0J262208D01*
G01*
X95649200Y14748592D01*
G75*
G02*
X95911408Y15010800I262208J0D01*
G01*
X99088592Y15010800D01*
G75*
G02*
X99350800Y14748592I0J-262208D01*
G01*
X99350800Y13091408D01*
G75*
G02*
X99088592Y12829200I-262208J0D01*
G01*
G37*
%TD*%
%TO.C,J10*%
X97500000Y61160000D03*
X97500000Y56080000D03*
G36*
G01*
X99088592Y49909200D02*
X95911408Y49909200D01*
G75*
G02*
X95649200Y50171408I0J262208D01*
G01*
X95649200Y51828592D01*
G75*
G02*
X95911408Y52090800I262208J0D01*
G01*
X99088592Y52090800D01*
G75*
G02*
X99350800Y51828592I0J-262208D01*
G01*
X99350800Y50171408D01*
G75*
G02*
X99088592Y49909200I-262208J0D01*
G01*
G37*
%TD*%
D20*
%TO.C,J1*%
X82670000Y72500000D03*
G36*
G01*
X88840800Y74088592D02*
X88840800Y70911408D01*
G75*
G02*
X88578592Y70649200I-262208J0D01*
G01*
X86921408Y70649200D01*
G75*
G02*
X86659200Y70911408I0J262208D01*
G01*
X86659200Y74088592D01*
G75*
G02*
X86921408Y74350800I262208J0D01*
G01*
X88578592Y74350800D01*
G75*
G02*
X88840800Y74088592I0J-262208D01*
G01*
G37*
%TD*%
D17*
%TO.C,C2*%
X88000000Y40600000D03*
G36*
G01*
X87200000Y43950800D02*
X88800000Y43950800D01*
G75*
G02*
X88850800Y43900000I0J-50800D01*
G01*
X88850800Y42300000D01*
G75*
G02*
X88800000Y42249200I-50800J0D01*
G01*
X87200000Y42249200D01*
G75*
G02*
X87149200Y42300000I0J50800D01*
G01*
X87149200Y43900000D01*
G75*
G02*
X87200000Y43950800I50800J0D01*
G01*
G37*
%TD*%
D21*
%TO.C,SC4*%
X98056810Y5187500D03*
X98056810Y2812500D03*
X96000000Y1625000D03*
X93943190Y2812500D03*
X93943190Y5187500D03*
X96000000Y6375000D03*
D22*
X96000000Y4000000D03*
%TD*%
D21*
%TO.C,SC3*%
X6056810Y5187500D03*
X6056810Y2812500D03*
X4000000Y1625000D03*
X1943190Y2812500D03*
X1943190Y5187500D03*
X4000000Y6375000D03*
D22*
X4000000Y4000000D03*
%TD*%
D21*
%TO.C,SC2*%
X98056810Y72187500D03*
X98056810Y69812500D03*
X96000000Y68625000D03*
X93943190Y69812500D03*
X93943190Y72187500D03*
X96000000Y73375000D03*
D22*
X96000000Y71000000D03*
%TD*%
D21*
%TO.C,SC1*%
X6056810Y72187500D03*
X6056810Y69812500D03*
X4000000Y68625000D03*
X1943190Y69812500D03*
X1943190Y72187500D03*
X4000000Y73375000D03*
D22*
X4000000Y71000000D03*
%TD*%
%TO.C,J4*%
G36*
G01*
X60570800Y55420000D02*
X60570800Y54420000D01*
G75*
G02*
X60520000Y54369200I-50800J0D01*
G01*
X57520000Y54369200D01*
G75*
G02*
X57469200Y54420000I0J50800D01*
G01*
X57469200Y55420000D01*
G75*
G02*
X57520000Y55470800I50800J0D01*
G01*
X60520000Y55470800D01*
G75*
G02*
X60570800Y55420000I0J-50800D01*
G01*
G37*
G36*
G01*
X55530800Y55420000D02*
X55530800Y54420000D01*
G75*
G02*
X55480000Y54369200I-50800J0D01*
G01*
X52480000Y54369200D01*
G75*
G02*
X52429200Y54420000I0J50800D01*
G01*
X52429200Y55420000D01*
G75*
G02*
X52480000Y55470800I50800J0D01*
G01*
X55480000Y55470800D01*
G75*
G02*
X55530800Y55420000I0J-50800D01*
G01*
G37*
G36*
G01*
X60570800Y57960000D02*
X60570800Y56960000D01*
G75*
G02*
X60520000Y56909200I-50800J0D01*
G01*
X57520000Y56909200D01*
G75*
G02*
X57469200Y56960000I0J50800D01*
G01*
X57469200Y57960000D01*
G75*
G02*
X57520000Y58010800I50800J0D01*
G01*
X60520000Y58010800D01*
G75*
G02*
X60570800Y57960000I0J-50800D01*
G01*
G37*
G36*
G01*
X55530800Y57960000D02*
X55530800Y56960000D01*
G75*
G02*
X55480000Y56909200I-50800J0D01*
G01*
X52480000Y56909200D01*
G75*
G02*
X52429200Y56960000I0J50800D01*
G01*
X52429200Y57960000D01*
G75*
G02*
X52480000Y58010800I50800J0D01*
G01*
X55480000Y58010800D01*
G75*
G02*
X55530800Y57960000I0J-50800D01*
G01*
G37*
G36*
G01*
X60570800Y60500000D02*
X60570800Y59500000D01*
G75*
G02*
X60520000Y59449200I-50800J0D01*
G01*
X57520000Y59449200D01*
G75*
G02*
X57469200Y59500000I0J50800D01*
G01*
X57469200Y60500000D01*
G75*
G02*
X57520000Y60550800I50800J0D01*
G01*
X60520000Y60550800D01*
G75*
G02*
X60570800Y60500000I0J-50800D01*
G01*
G37*
G36*
G01*
X55530800Y60500000D02*
X55530800Y59500000D01*
G75*
G02*
X55480000Y59449200I-50800J0D01*
G01*
X52480000Y59449200D01*
G75*
G02*
X52429200Y59500000I0J50800D01*
G01*
X52429200Y60500000D01*
G75*
G02*
X52480000Y60550800I50800J0D01*
G01*
X55480000Y60550800D01*
G75*
G02*
X55530800Y60500000I0J-50800D01*
G01*
G37*
G36*
G01*
X60570800Y63040000D02*
X60570800Y62040000D01*
G75*
G02*
X60520000Y61989200I-50800J0D01*
G01*
X57520000Y61989200D01*
G75*
G02*
X57469200Y62040000I0J50800D01*
G01*
X57469200Y63040000D01*
G75*
G02*
X57520000Y63090800I50800J0D01*
G01*
X60520000Y63090800D01*
G75*
G02*
X60570800Y63040000I0J-50800D01*
G01*
G37*
G36*
G01*
X55530800Y63040000D02*
X55530800Y62040000D01*
G75*
G02*
X55480000Y61989200I-50800J0D01*
G01*
X52480000Y61989200D01*
G75*
G02*
X52429200Y62040000I0J50800D01*
G01*
X52429200Y63040000D01*
G75*
G02*
X52480000Y63090800I50800J0D01*
G01*
X55480000Y63090800D01*
G75*
G02*
X55530800Y63040000I0J-50800D01*
G01*
G37*
G36*
G01*
X60570800Y65580000D02*
X60570800Y64580000D01*
G75*
G02*
X60520000Y64529200I-50800J0D01*
G01*
X57520000Y64529200D01*
G75*
G02*
X57469200Y64580000I0J50800D01*
G01*
X57469200Y65580000D01*
G75*
G02*
X57520000Y65630800I50800J0D01*
G01*
X60520000Y65630800D01*
G75*
G02*
X60570800Y65580000I0J-50800D01*
G01*
G37*
G36*
G01*
X55530800Y65580000D02*
X55530800Y64580000D01*
G75*
G02*
X55480000Y64529200I-50800J0D01*
G01*
X52480000Y64529200D01*
G75*
G02*
X52429200Y64580000I0J50800D01*
G01*
X52429200Y65580000D01*
G75*
G02*
X52480000Y65630800I50800J0D01*
G01*
X55480000Y65630800D01*
G75*
G02*
X55530800Y65580000I0J-50800D01*
G01*
G37*
%TD*%
%TO.C,J7*%
G36*
G01*
X10570800Y55420000D02*
X10570800Y54420000D01*
G75*
G02*
X10520000Y54369200I-50800J0D01*
G01*
X7520000Y54369200D01*
G75*
G02*
X7469200Y54420000I0J50800D01*
G01*
X7469200Y55420000D01*
G75*
G02*
X7520000Y55470800I50800J0D01*
G01*
X10520000Y55470800D01*
G75*
G02*
X10570800Y55420000I0J-50800D01*
G01*
G37*
G36*
G01*
X5530800Y55420000D02*
X5530800Y54420000D01*
G75*
G02*
X5480000Y54369200I-50800J0D01*
G01*
X2480000Y54369200D01*
G75*
G02*
X2429200Y54420000I0J50800D01*
G01*
X2429200Y55420000D01*
G75*
G02*
X2480000Y55470800I50800J0D01*
G01*
X5480000Y55470800D01*
G75*
G02*
X5530800Y55420000I0J-50800D01*
G01*
G37*
G36*
G01*
X10570800Y57960000D02*
X10570800Y56960000D01*
G75*
G02*
X10520000Y56909200I-50800J0D01*
G01*
X7520000Y56909200D01*
G75*
G02*
X7469200Y56960000I0J50800D01*
G01*
X7469200Y57960000D01*
G75*
G02*
X7520000Y58010800I50800J0D01*
G01*
X10520000Y58010800D01*
G75*
G02*
X10570800Y57960000I0J-50800D01*
G01*
G37*
G36*
G01*
X5530800Y57960000D02*
X5530800Y56960000D01*
G75*
G02*
X5480000Y56909200I-50800J0D01*
G01*
X2480000Y56909200D01*
G75*
G02*
X2429200Y56960000I0J50800D01*
G01*
X2429200Y57960000D01*
G75*
G02*
X2480000Y58010800I50800J0D01*
G01*
X5480000Y58010800D01*
G75*
G02*
X5530800Y57960000I0J-50800D01*
G01*
G37*
G36*
G01*
X10570800Y60500000D02*
X10570800Y59500000D01*
G75*
G02*
X10520000Y59449200I-50800J0D01*
G01*
X7520000Y59449200D01*
G75*
G02*
X7469200Y59500000I0J50800D01*
G01*
X7469200Y60500000D01*
G75*
G02*
X7520000Y60550800I50800J0D01*
G01*
X10520000Y60550800D01*
G75*
G02*
X10570800Y60500000I0J-50800D01*
G01*
G37*
G36*
G01*
X5530800Y60500000D02*
X5530800Y59500000D01*
G75*
G02*
X5480000Y59449200I-50800J0D01*
G01*
X2480000Y59449200D01*
G75*
G02*
X2429200Y59500000I0J50800D01*
G01*
X2429200Y60500000D01*
G75*
G02*
X2480000Y60550800I50800J0D01*
G01*
X5480000Y60550800D01*
G75*
G02*
X5530800Y60500000I0J-50800D01*
G01*
G37*
G36*
G01*
X10570800Y63040000D02*
X10570800Y62040000D01*
G75*
G02*
X10520000Y61989200I-50800J0D01*
G01*
X7520000Y61989200D01*
G75*
G02*
X7469200Y62040000I0J50800D01*
G01*
X7469200Y63040000D01*
G75*
G02*
X7520000Y63090800I50800J0D01*
G01*
X10520000Y63090800D01*
G75*
G02*
X10570800Y63040000I0J-50800D01*
G01*
G37*
G36*
G01*
X5530800Y63040000D02*
X5530800Y62040000D01*
G75*
G02*
X5480000Y61989200I-50800J0D01*
G01*
X2480000Y61989200D01*
G75*
G02*
X2429200Y62040000I0J50800D01*
G01*
X2429200Y63040000D01*
G75*
G02*
X2480000Y63090800I50800J0D01*
G01*
X5480000Y63090800D01*
G75*
G02*
X5530800Y63040000I0J-50800D01*
G01*
G37*
G36*
G01*
X10570800Y65580000D02*
X10570800Y64580000D01*
G75*
G02*
X10520000Y64529200I-50800J0D01*
G01*
X7520000Y64529200D01*
G75*
G02*
X7469200Y64580000I0J50800D01*
G01*
X7469200Y65580000D01*
G75*
G02*
X7520000Y65630800I50800J0D01*
G01*
X10520000Y65630800D01*
G75*
G02*
X10570800Y65580000I0J-50800D01*
G01*
G37*
G36*
G01*
X5530800Y65580000D02*
X5530800Y64580000D01*
G75*
G02*
X5480000Y64529200I-50800J0D01*
G01*
X2480000Y64529200D01*
G75*
G02*
X2429200Y64580000I0J50800D01*
G01*
X2429200Y65580000D01*
G75*
G02*
X2480000Y65630800I50800J0D01*
G01*
X5480000Y65630800D01*
G75*
G02*
X5530800Y65580000I0J-50800D01*
G01*
G37*
%TD*%
%TO.C,J5*%
G36*
G01*
X10570800Y10420000D02*
X10570800Y9420000D01*
G75*
G02*
X10520000Y9369200I-50800J0D01*
G01*
X7520000Y9369200D01*
G75*
G02*
X7469200Y9420000I0J50800D01*
G01*
X7469200Y10420000D01*
G75*
G02*
X7520000Y10470800I50800J0D01*
G01*
X10520000Y10470800D01*
G75*
G02*
X10570800Y10420000I0J-50800D01*
G01*
G37*
G36*
G01*
X5530800Y10420000D02*
X5530800Y9420000D01*
G75*
G02*
X5480000Y9369200I-50800J0D01*
G01*
X2480000Y9369200D01*
G75*
G02*
X2429200Y9420000I0J50800D01*
G01*
X2429200Y10420000D01*
G75*
G02*
X2480000Y10470800I50800J0D01*
G01*
X5480000Y10470800D01*
G75*
G02*
X5530800Y10420000I0J-50800D01*
G01*
G37*
G36*
G01*
X10570800Y12960000D02*
X10570800Y11960000D01*
G75*
G02*
X10520000Y11909200I-50800J0D01*
G01*
X7520000Y11909200D01*
G75*
G02*
X7469200Y11960000I0J50800D01*
G01*
X7469200Y12960000D01*
G75*
G02*
X7520000Y13010800I50800J0D01*
G01*
X10520000Y13010800D01*
G75*
G02*
X10570800Y12960000I0J-50800D01*
G01*
G37*
G36*
G01*
X5530800Y12960000D02*
X5530800Y11960000D01*
G75*
G02*
X5480000Y11909200I-50800J0D01*
G01*
X2480000Y11909200D01*
G75*
G02*
X2429200Y11960000I0J50800D01*
G01*
X2429200Y12960000D01*
G75*
G02*
X2480000Y13010800I50800J0D01*
G01*
X5480000Y13010800D01*
G75*
G02*
X5530800Y12960000I0J-50800D01*
G01*
G37*
G36*
G01*
X10570800Y15500000D02*
X10570800Y14500000D01*
G75*
G02*
X10520000Y14449200I-50800J0D01*
G01*
X7520000Y14449200D01*
G75*
G02*
X7469200Y14500000I0J50800D01*
G01*
X7469200Y15500000D01*
G75*
G02*
X7520000Y15550800I50800J0D01*
G01*
X10520000Y15550800D01*
G75*
G02*
X10570800Y15500000I0J-50800D01*
G01*
G37*
G36*
G01*
X5530800Y15500000D02*
X5530800Y14500000D01*
G75*
G02*
X5480000Y14449200I-50800J0D01*
G01*
X2480000Y14449200D01*
G75*
G02*
X2429200Y14500000I0J50800D01*
G01*
X2429200Y15500000D01*
G75*
G02*
X2480000Y15550800I50800J0D01*
G01*
X5480000Y15550800D01*
G75*
G02*
X5530800Y15500000I0J-50800D01*
G01*
G37*
G36*
G01*
X10570800Y18040000D02*
X10570800Y17040000D01*
G75*
G02*
X10520000Y16989200I-50800J0D01*
G01*
X7520000Y16989200D01*
G75*
G02*
X7469200Y17040000I0J50800D01*
G01*
X7469200Y18040000D01*
G75*
G02*
X7520000Y18090800I50800J0D01*
G01*
X10520000Y18090800D01*
G75*
G02*
X10570800Y18040000I0J-50800D01*
G01*
G37*
G36*
G01*
X5530800Y18040000D02*
X5530800Y17040000D01*
G75*
G02*
X5480000Y16989200I-50800J0D01*
G01*
X2480000Y16989200D01*
G75*
G02*
X2429200Y17040000I0J50800D01*
G01*
X2429200Y18040000D01*
G75*
G02*
X2480000Y18090800I50800J0D01*
G01*
X5480000Y18090800D01*
G75*
G02*
X5530800Y18040000I0J-50800D01*
G01*
G37*
G36*
G01*
X10570800Y20580000D02*
X10570800Y19580000D01*
G75*
G02*
X10520000Y19529200I-50800J0D01*
G01*
X7520000Y19529200D01*
G75*
G02*
X7469200Y19580000I0J50800D01*
G01*
X7469200Y20580000D01*
G75*
G02*
X7520000Y20630800I50800J0D01*
G01*
X10520000Y20630800D01*
G75*
G02*
X10570800Y20580000I0J-50800D01*
G01*
G37*
G36*
G01*
X5530800Y20580000D02*
X5530800Y19580000D01*
G75*
G02*
X5480000Y19529200I-50800J0D01*
G01*
X2480000Y19529200D01*
G75*
G02*
X2429200Y19580000I0J50800D01*
G01*
X2429200Y20580000D01*
G75*
G02*
X2480000Y20630800I50800J0D01*
G01*
X5480000Y20630800D01*
G75*
G02*
X5530800Y20580000I0J-50800D01*
G01*
G37*
%TD*%
D18*
%TO.C,U6*%
X23500000Y39310000D03*
X23500000Y36770000D03*
X23500000Y34230000D03*
G36*
G01*
X24400800Y32540000D02*
X24400800Y30840000D01*
G75*
G02*
X24350000Y30789200I-50800J0D01*
G01*
X22650000Y30789200D01*
G75*
G02*
X22599200Y30840000I0J50800D01*
G01*
X22599200Y32540000D01*
G75*
G02*
X22650000Y32590800I50800J0D01*
G01*
X24350000Y32590800D01*
G75*
G02*
X24400800Y32540000I0J-50800D01*
G01*
G37*
%TD*%
D12*
%TO.C,JP3*%
X88500000Y16500000D03*
X88500000Y19040000D03*
X88500000Y21580000D03*
%TD*%
%TO.C,JP2*%
X88500000Y24670000D03*
X88500000Y27210000D03*
X88500000Y29750000D03*
%TD*%
%TO.C,JP1*%
X2500000Y47460000D03*
X2500000Y50000000D03*
X2500000Y52540000D03*
%TD*%
D23*
G36*
X99351965Y13093034D02*
G01*
X99352800Y13091408D01*
X99352800Y13002597D01*
X99352790Y13002401D01*
X99348983Y12963750D01*
X99348907Y12963365D01*
X99339422Y12932097D01*
X99339272Y12931735D01*
X99323874Y12902928D01*
X99323656Y12902602D01*
X99302930Y12877347D01*
X99302653Y12877070D01*
X99277398Y12856344D01*
X99277072Y12856126D01*
X99248265Y12840728D01*
X99247903Y12840578D01*
X99216635Y12831093D01*
X99216250Y12831017D01*
X99177599Y12827210D01*
X99177403Y12827200D01*
X99088592Y12827200D01*
X99086860Y12828200D01*
X99086860Y12830200D01*
X99088396Y12831190D01*
X99139351Y12836208D01*
X99188166Y12851016D01*
X99233151Y12875061D01*
X99272580Y12907420D01*
X99304939Y12946849D01*
X99328984Y12991834D01*
X99343792Y13040649D01*
X99348810Y13091604D01*
X99349975Y13093230D01*
X99351965Y13093034D01*
G37*
G36*
X95651190Y13091604D02*
G01*
X95656208Y13040649D01*
X95671016Y12991834D01*
X95695061Y12946849D01*
X95727420Y12907420D01*
X95766849Y12875061D01*
X95811834Y12851016D01*
X95860649Y12836208D01*
X95911604Y12831190D01*
X95913230Y12830025D01*
X95913034Y12828035D01*
X95911408Y12827200D01*
X95822597Y12827200D01*
X95822401Y12827210D01*
X95783750Y12831017D01*
X95783365Y12831093D01*
X95752097Y12840578D01*
X95751735Y12840728D01*
X95722928Y12856126D01*
X95722602Y12856344D01*
X95697347Y12877070D01*
X95697070Y12877347D01*
X95676344Y12902602D01*
X95676126Y12902928D01*
X95660728Y12931735D01*
X95660578Y12932097D01*
X95651093Y12963365D01*
X95651017Y12963750D01*
X95647210Y13002401D01*
X95647200Y13002597D01*
X95647200Y13091408D01*
X95648200Y13093140D01*
X95650200Y13093140D01*
X95651190Y13091604D01*
G37*
G36*
X95913140Y15011800D02*
G01*
X95913140Y15009800D01*
X95911604Y15008810D01*
X95860649Y15003792D01*
X95811834Y14988984D01*
X95766849Y14964939D01*
X95727420Y14932580D01*
X95695061Y14893151D01*
X95671016Y14848166D01*
X95656208Y14799351D01*
X95651190Y14748396D01*
X95650025Y14746770D01*
X95648035Y14746966D01*
X95647200Y14748592D01*
X95647200Y14837403D01*
X95647210Y14837599D01*
X95651017Y14876250D01*
X95651093Y14876635D01*
X95660578Y14907903D01*
X95660728Y14908265D01*
X95676126Y14937072D01*
X95676344Y14937398D01*
X95697070Y14962653D01*
X95697347Y14962930D01*
X95722602Y14983656D01*
X95722928Y14983874D01*
X95751735Y14999272D01*
X95752097Y14999422D01*
X95783365Y15008907D01*
X95783750Y15008983D01*
X95822401Y15012790D01*
X95822597Y15012800D01*
X95911408Y15012800D01*
X95913140Y15011800D01*
G37*
G36*
X99177599Y15012790D02*
G01*
X99216250Y15008983D01*
X99216635Y15008907D01*
X99247903Y14999422D01*
X99248265Y14999272D01*
X99277072Y14983874D01*
X99277398Y14983656D01*
X99302653Y14962930D01*
X99302930Y14962653D01*
X99323656Y14937398D01*
X99323874Y14937072D01*
X99339272Y14908265D01*
X99339422Y14907903D01*
X99348907Y14876635D01*
X99348983Y14876250D01*
X99352790Y14837599D01*
X99352800Y14837403D01*
X99352800Y14748592D01*
X99351800Y14746860D01*
X99349800Y14746860D01*
X99348810Y14748396D01*
X99343792Y14799351D01*
X99328984Y14848166D01*
X99304939Y14893151D01*
X99272580Y14932580D01*
X99233151Y14964939D01*
X99188166Y14988984D01*
X99139351Y15003792D01*
X99088396Y15008810D01*
X99086770Y15009975D01*
X99086966Y15011965D01*
X99088592Y15012800D01*
X99177403Y15012800D01*
X99177599Y15012790D01*
G37*
G36*
X95651190Y31671604D02*
G01*
X95656208Y31620649D01*
X95671016Y31571834D01*
X95695061Y31526849D01*
X95727420Y31487420D01*
X95766849Y31455061D01*
X95811834Y31431016D01*
X95860649Y31416208D01*
X95911604Y31411190D01*
X95913230Y31410025D01*
X95913034Y31408035D01*
X95911408Y31407200D01*
X95822597Y31407200D01*
X95822401Y31407210D01*
X95783750Y31411017D01*
X95783365Y31411093D01*
X95752097Y31420578D01*
X95751735Y31420728D01*
X95722928Y31436126D01*
X95722602Y31436344D01*
X95697347Y31457070D01*
X95697070Y31457347D01*
X95676344Y31482602D01*
X95676126Y31482928D01*
X95660728Y31511735D01*
X95660578Y31512097D01*
X95651093Y31543365D01*
X95651017Y31543750D01*
X95647210Y31582401D01*
X95647200Y31582597D01*
X95647200Y31671408D01*
X95648200Y31673140D01*
X95650200Y31673140D01*
X95651190Y31671604D01*
G37*
G36*
X99351965Y31673034D02*
G01*
X99352800Y31671408D01*
X99352800Y31582597D01*
X99352790Y31582401D01*
X99348983Y31543750D01*
X99348907Y31543365D01*
X99339422Y31512097D01*
X99339272Y31511735D01*
X99323874Y31482928D01*
X99323656Y31482602D01*
X99302930Y31457347D01*
X99302653Y31457070D01*
X99277398Y31436344D01*
X99277072Y31436126D01*
X99248265Y31420728D01*
X99247903Y31420578D01*
X99216635Y31411093D01*
X99216250Y31411017D01*
X99177599Y31407210D01*
X99177403Y31407200D01*
X99088592Y31407200D01*
X99086860Y31408200D01*
X99086860Y31410200D01*
X99088396Y31411190D01*
X99139351Y31416208D01*
X99188166Y31431016D01*
X99233151Y31455061D01*
X99272580Y31487420D01*
X99304939Y31526849D01*
X99328984Y31571834D01*
X99343792Y31620649D01*
X99348810Y31671604D01*
X99349975Y31673230D01*
X99351965Y31673034D01*
G37*
G36*
X95913140Y33591800D02*
G01*
X95913140Y33589800D01*
X95911604Y33588810D01*
X95860649Y33583792D01*
X95811834Y33568984D01*
X95766849Y33544939D01*
X95727420Y33512580D01*
X95695061Y33473151D01*
X95671016Y33428166D01*
X95656208Y33379351D01*
X95651190Y33328396D01*
X95650025Y33326770D01*
X95648035Y33326966D01*
X95647200Y33328592D01*
X95647200Y33417403D01*
X95647210Y33417599D01*
X95651017Y33456250D01*
X95651093Y33456635D01*
X95660578Y33487903D01*
X95660728Y33488265D01*
X95676126Y33517072D01*
X95676344Y33517398D01*
X95697070Y33542653D01*
X95697347Y33542930D01*
X95722602Y33563656D01*
X95722928Y33563874D01*
X95751735Y33579272D01*
X95752097Y33579422D01*
X95783365Y33588907D01*
X95783750Y33588983D01*
X95822401Y33592790D01*
X95822597Y33592800D01*
X95911408Y33592800D01*
X95913140Y33591800D01*
G37*
G36*
X99177599Y33592790D02*
G01*
X99216250Y33588983D01*
X99216635Y33588907D01*
X99247903Y33579422D01*
X99248265Y33579272D01*
X99277072Y33563874D01*
X99277398Y33563656D01*
X99302653Y33542930D01*
X99302930Y33542653D01*
X99323656Y33517398D01*
X99323874Y33517072D01*
X99339272Y33488265D01*
X99339422Y33487903D01*
X99348907Y33456635D01*
X99348983Y33456250D01*
X99352790Y33417599D01*
X99352800Y33417403D01*
X99352800Y33328592D01*
X99351800Y33326860D01*
X99349800Y33326860D01*
X99348810Y33328396D01*
X99343792Y33379351D01*
X99328984Y33428166D01*
X99304939Y33473151D01*
X99272580Y33512580D01*
X99233151Y33544939D01*
X99188166Y33568984D01*
X99139351Y33583792D01*
X99088396Y33588810D01*
X99086770Y33589975D01*
X99086966Y33591965D01*
X99088592Y33592800D01*
X99177403Y33592800D01*
X99177599Y33592790D01*
G37*
G36*
X99351965Y50173034D02*
G01*
X99352800Y50171408D01*
X99352800Y50082597D01*
X99352790Y50082401D01*
X99348983Y50043750D01*
X99348907Y50043365D01*
X99339422Y50012097D01*
X99339272Y50011735D01*
X99323874Y49982928D01*
X99323656Y49982602D01*
X99302930Y49957347D01*
X99302653Y49957070D01*
X99277398Y49936344D01*
X99277072Y49936126D01*
X99248265Y49920728D01*
X99247903Y49920578D01*
X99216635Y49911093D01*
X99216250Y49911017D01*
X99177599Y49907210D01*
X99177403Y49907200D01*
X99088592Y49907200D01*
X99086860Y49908200D01*
X99086860Y49910200D01*
X99088396Y49911190D01*
X99139351Y49916208D01*
X99188166Y49931016D01*
X99233151Y49955061D01*
X99272580Y49987420D01*
X99304939Y50026849D01*
X99328984Y50071834D01*
X99343792Y50120649D01*
X99348810Y50171604D01*
X99349975Y50173230D01*
X99351965Y50173034D01*
G37*
G36*
X95651190Y50171604D02*
G01*
X95656208Y50120649D01*
X95671016Y50071834D01*
X95695061Y50026849D01*
X95727420Y49987420D01*
X95766849Y49955061D01*
X95811834Y49931016D01*
X95860649Y49916208D01*
X95911604Y49911190D01*
X95913230Y49910025D01*
X95913034Y49908035D01*
X95911408Y49907200D01*
X95822597Y49907200D01*
X95822401Y49907210D01*
X95783750Y49911017D01*
X95783365Y49911093D01*
X95752097Y49920578D01*
X95751735Y49920728D01*
X95722928Y49936126D01*
X95722602Y49936344D01*
X95697347Y49957070D01*
X95697070Y49957347D01*
X95676344Y49982602D01*
X95676126Y49982928D01*
X95660728Y50011735D01*
X95660578Y50012097D01*
X95651093Y50043365D01*
X95651017Y50043750D01*
X95647210Y50082401D01*
X95647200Y50082597D01*
X95647200Y50171408D01*
X95648200Y50173140D01*
X95650200Y50173140D01*
X95651190Y50171604D01*
G37*
G36*
X95913140Y52091800D02*
G01*
X95913140Y52089800D01*
X95911604Y52088810D01*
X95860649Y52083792D01*
X95811834Y52068984D01*
X95766849Y52044939D01*
X95727420Y52012580D01*
X95695061Y51973151D01*
X95671016Y51928166D01*
X95656208Y51879351D01*
X95651190Y51828396D01*
X95650025Y51826770D01*
X95648035Y51826966D01*
X95647200Y51828592D01*
X95647200Y51917403D01*
X95647210Y51917599D01*
X95651017Y51956250D01*
X95651093Y51956635D01*
X95660578Y51987903D01*
X95660728Y51988265D01*
X95676126Y52017072D01*
X95676344Y52017398D01*
X95697070Y52042653D01*
X95697347Y52042930D01*
X95722602Y52063656D01*
X95722928Y52063874D01*
X95751735Y52079272D01*
X95752097Y52079422D01*
X95783365Y52088907D01*
X95783750Y52088983D01*
X95822401Y52092790D01*
X95822597Y52092800D01*
X95911408Y52092800D01*
X95913140Y52091800D01*
G37*
G36*
X99177599Y52092790D02*
G01*
X99216250Y52088983D01*
X99216635Y52088907D01*
X99247903Y52079422D01*
X99248265Y52079272D01*
X99277072Y52063874D01*
X99277398Y52063656D01*
X99302653Y52042930D01*
X99302930Y52042653D01*
X99323656Y52017398D01*
X99323874Y52017072D01*
X99339272Y51988265D01*
X99339422Y51987903D01*
X99348907Y51956635D01*
X99348983Y51956250D01*
X99352790Y51917599D01*
X99352800Y51917403D01*
X99352800Y51828592D01*
X99351800Y51826860D01*
X99349800Y51826860D01*
X99348810Y51828396D01*
X99343792Y51879351D01*
X99328984Y51928166D01*
X99304939Y51973151D01*
X99272580Y52012580D01*
X99233151Y52044939D01*
X99188166Y52068984D01*
X99139351Y52083792D01*
X99088396Y52088810D01*
X99086770Y52089975D01*
X99086966Y52091965D01*
X99088592Y52092800D01*
X99177403Y52092800D01*
X99177599Y52092790D01*
G37*
G36*
X87593119Y52500074D02*
G01*
X87592910Y52498259D01*
X87582817Y52483154D01*
X87573591Y52460880D01*
X87568886Y52437229D01*
X87568886Y52413123D01*
X87573590Y52389473D01*
X87582817Y52367199D01*
X87596211Y52347152D01*
X87613258Y52330105D01*
X87633305Y52316710D01*
X87655579Y52307484D01*
X87679230Y52302779D01*
X87703336Y52302779D01*
X87727176Y52307521D01*
X87729070Y52306878D01*
X87729460Y52304916D01*
X87728331Y52303711D01*
X87714625Y52298033D01*
X87511076Y52162026D01*
X87337974Y51988924D01*
X87252789Y51861436D01*
X87250995Y51860551D01*
X87249332Y51861662D01*
X87249362Y51863490D01*
X87257929Y51879518D01*
X87264929Y51902593D01*
X87267292Y51926584D01*
X87264929Y51950575D01*
X87257929Y51973650D01*
X87246563Y51994913D01*
X87231268Y52013550D01*
X87212631Y52028845D01*
X87191367Y52040210D01*
X87168292Y52047210D01*
X87144301Y52049573D01*
X87120358Y52047214D01*
X87089911Y52036320D01*
X87087943Y52036678D01*
X87087269Y52038561D01*
X87088294Y52039967D01*
X87161042Y52078851D01*
X87297321Y52190693D01*
X87509307Y52402679D01*
X87589701Y52500639D01*
X87591573Y52501343D01*
X87593119Y52500074D01*
G37*
G36*
X84707861Y53508898D02*
G01*
X84747857Y53476075D01*
X84793314Y53451777D01*
X84842642Y53436814D01*
X84893934Y53431762D01*
X84945226Y53436814D01*
X84994554Y53451777D01*
X85040011Y53476075D01*
X85080007Y53508898D01*
X85081981Y53509224D01*
X85083249Y53507678D01*
X85082690Y53505938D01*
X85024637Y53447885D01*
X85024492Y53447753D01*
X84993038Y53421940D01*
X84992712Y53421722D01*
X84962268Y53405449D01*
X84961906Y53405299D01*
X84928872Y53395278D01*
X84928487Y53395202D01*
X84894130Y53391819D01*
X84893738Y53391819D01*
X84859381Y53395202D01*
X84858996Y53395278D01*
X84825962Y53405299D01*
X84825600Y53405449D01*
X84795156Y53421722D01*
X84794830Y53421940D01*
X84763376Y53447753D01*
X84763231Y53447885D01*
X84705178Y53505938D01*
X84704660Y53507870D01*
X84706074Y53509284D01*
X84707861Y53508898D01*
G37*
G36*
X83809284Y54781794D02*
G01*
X83808898Y54780007D01*
X83776075Y54740011D01*
X83751777Y54694554D01*
X83736814Y54645226D01*
X83731762Y54593934D01*
X83736814Y54542642D01*
X83751777Y54493314D01*
X83776075Y54447857D01*
X83808898Y54407861D01*
X83809224Y54405887D01*
X83807678Y54404619D01*
X83805938Y54405178D01*
X83747885Y54463231D01*
X83747753Y54463376D01*
X83721940Y54494830D01*
X83721722Y54495156D01*
X83705449Y54525600D01*
X83705299Y54525962D01*
X83695278Y54558996D01*
X83695202Y54559381D01*
X83691819Y54593738D01*
X83691819Y54594130D01*
X83695202Y54628487D01*
X83695278Y54628872D01*
X83705299Y54661906D01*
X83705449Y54662268D01*
X83721722Y54692712D01*
X83721940Y54693038D01*
X83747753Y54724492D01*
X83747885Y54724637D01*
X83805938Y54782690D01*
X83807870Y54783208D01*
X83809284Y54781794D01*
G37*
G36*
X86194062Y54994822D02*
G01*
X86252115Y54936769D01*
X86252247Y54936624D01*
X86278060Y54905170D01*
X86278278Y54904844D01*
X86294551Y54874400D01*
X86294701Y54874038D01*
X86304722Y54841004D01*
X86304798Y54840619D01*
X86308181Y54806262D01*
X86308181Y54805870D01*
X86304798Y54771513D01*
X86304722Y54771128D01*
X86294701Y54738094D01*
X86294551Y54737732D01*
X86278278Y54707288D01*
X86278060Y54706962D01*
X86252247Y54675508D01*
X86252115Y54675363D01*
X86194062Y54617310D01*
X86192130Y54616792D01*
X86190716Y54618206D01*
X86191102Y54619993D01*
X86223925Y54659989D01*
X86248223Y54705446D01*
X86263186Y54754774D01*
X86268238Y54806066D01*
X86263186Y54857358D01*
X86248223Y54906686D01*
X86223925Y54952143D01*
X86191102Y54992139D01*
X86190776Y54994113D01*
X86192322Y54995381D01*
X86194062Y54994822D01*
G37*
G36*
X85140619Y56004798D02*
G01*
X85141004Y56004722D01*
X85174038Y55994701D01*
X85174400Y55994551D01*
X85204844Y55978278D01*
X85205170Y55978060D01*
X85236624Y55952247D01*
X85236769Y55952115D01*
X85294822Y55894062D01*
X85295340Y55892130D01*
X85293926Y55890716D01*
X85292139Y55891102D01*
X85252143Y55923925D01*
X85206686Y55948223D01*
X85157358Y55963186D01*
X85106066Y55968238D01*
X85054774Y55963186D01*
X85005446Y55948223D01*
X84959989Y55923925D01*
X84919993Y55891102D01*
X84918019Y55890776D01*
X84916751Y55892322D01*
X84917310Y55894062D01*
X84975363Y55952115D01*
X84975508Y55952247D01*
X85006962Y55978060D01*
X85007288Y55978278D01*
X85037732Y55994551D01*
X85038094Y55994701D01*
X85071128Y56004722D01*
X85071513Y56004798D01*
X85105870Y56008181D01*
X85106262Y56008181D01*
X85140619Y56004798D01*
G37*
G36*
X32698919Y63480382D02*
G01*
X32723158Y63456143D01*
X32995980Y63273849D01*
X33033878Y63258151D01*
X33035096Y63256564D01*
X33034331Y63254716D01*
X33032532Y63254389D01*
X33015146Y63259663D01*
X32991155Y63262026D01*
X32967164Y63259663D01*
X32944089Y63252663D01*
X32922825Y63241298D01*
X32904188Y63226002D01*
X32888893Y63207365D01*
X32877528Y63186102D01*
X32870528Y63163027D01*
X32868165Y63139036D01*
X32870528Y63115045D01*
X32877528Y63091970D01*
X32888893Y63070706D01*
X32900410Y63056673D01*
X32900736Y63054699D01*
X32899190Y63053431D01*
X32897450Y63053990D01*
X32880282Y63071158D01*
X32591159Y63264343D01*
X32562497Y63276216D01*
X32561279Y63277803D01*
X32562044Y63279651D01*
X32563843Y63279978D01*
X32581227Y63274704D01*
X32605218Y63272341D01*
X32629209Y63274704D01*
X32652284Y63281704D01*
X32673548Y63293069D01*
X32692185Y63308364D01*
X32707480Y63327001D01*
X32718845Y63348265D01*
X32725845Y63371340D01*
X32728208Y63395331D01*
X32725845Y63419322D01*
X32718845Y63442397D01*
X32707480Y63463661D01*
X32695959Y63477699D01*
X32695633Y63479673D01*
X32697179Y63480941D01*
X32698919Y63480382D01*
G37*
G36*
X46304427Y63479486D02*
G01*
X46304041Y63477699D01*
X46292520Y63463661D01*
X46281155Y63442397D01*
X46274155Y63419322D01*
X46271792Y63395331D01*
X46274155Y63371340D01*
X46281155Y63348265D01*
X46292520Y63327001D01*
X46307815Y63308364D01*
X46326452Y63293069D01*
X46347716Y63281704D01*
X46370791Y63274704D01*
X46394782Y63272341D01*
X46418773Y63274704D01*
X46436157Y63279978D01*
X46438105Y63279524D01*
X46438686Y63277610D01*
X46437503Y63276216D01*
X46408841Y63264343D01*
X46119718Y63071158D01*
X46102550Y63053990D01*
X46100618Y63053472D01*
X46099204Y63054886D01*
X46099590Y63056673D01*
X46111107Y63070706D01*
X46122472Y63091970D01*
X46129472Y63115045D01*
X46131835Y63139036D01*
X46129472Y63163027D01*
X46122472Y63186102D01*
X46111107Y63207366D01*
X46095812Y63226003D01*
X46077175Y63241298D01*
X46055911Y63252663D01*
X46032836Y63259663D01*
X46008845Y63262026D01*
X45984854Y63259663D01*
X45967468Y63254389D01*
X45965520Y63254843D01*
X45964939Y63256757D01*
X45966122Y63258151D01*
X46004020Y63273849D01*
X46276842Y63456143D01*
X46301081Y63480382D01*
X46303013Y63480900D01*
X46304427Y63479486D01*
G37*
G36*
X21321190Y63911604D02*
G01*
X21326208Y63860649D01*
X21341016Y63811834D01*
X21365061Y63766849D01*
X21397420Y63727420D01*
X21436849Y63695061D01*
X21481834Y63671016D01*
X21530649Y63656208D01*
X21581604Y63651190D01*
X21583230Y63650025D01*
X21583034Y63648035D01*
X21581408Y63647200D01*
X21492597Y63647200D01*
X21492401Y63647210D01*
X21453750Y63651017D01*
X21453365Y63651093D01*
X21422097Y63660578D01*
X21421735Y63660728D01*
X21392928Y63676126D01*
X21392602Y63676344D01*
X21367347Y63697070D01*
X21367070Y63697347D01*
X21346344Y63722602D01*
X21346126Y63722928D01*
X21330728Y63751735D01*
X21330578Y63752097D01*
X21321093Y63783365D01*
X21321017Y63783750D01*
X21317210Y63822401D01*
X21317200Y63822597D01*
X21317200Y63911408D01*
X21318200Y63913140D01*
X21320200Y63913140D01*
X21321190Y63911604D01*
G37*
G36*
X23501965Y63913034D02*
G01*
X23502800Y63911408D01*
X23502800Y63822597D01*
X23502790Y63822401D01*
X23498983Y63783750D01*
X23498907Y63783365D01*
X23489422Y63752097D01*
X23489272Y63751735D01*
X23473874Y63722928D01*
X23473656Y63722602D01*
X23452930Y63697347D01*
X23452653Y63697070D01*
X23427398Y63676344D01*
X23427072Y63676126D01*
X23398265Y63660728D01*
X23397903Y63660578D01*
X23366635Y63651093D01*
X23366250Y63651017D01*
X23327599Y63647210D01*
X23327403Y63647200D01*
X23238592Y63647200D01*
X23236860Y63648200D01*
X23236860Y63650200D01*
X23238396Y63651190D01*
X23289351Y63656208D01*
X23338166Y63671016D01*
X23383151Y63695061D01*
X23422580Y63727420D01*
X23454939Y63766849D01*
X23478984Y63811834D01*
X23493792Y63860649D01*
X23498810Y63911604D01*
X23499975Y63913230D01*
X23501965Y63913034D01*
G37*
G36*
X21583140Y67351800D02*
G01*
X21583140Y67349800D01*
X21581604Y67348810D01*
X21530649Y67343792D01*
X21481834Y67328984D01*
X21436849Y67304939D01*
X21397420Y67272580D01*
X21365061Y67233151D01*
X21341016Y67188166D01*
X21326208Y67139351D01*
X21321190Y67088396D01*
X21320025Y67086770D01*
X21318035Y67086966D01*
X21317200Y67088592D01*
X21317200Y67177403D01*
X21317210Y67177599D01*
X21321017Y67216250D01*
X21321093Y67216635D01*
X21330578Y67247903D01*
X21330728Y67248265D01*
X21346126Y67277072D01*
X21346344Y67277398D01*
X21367070Y67302653D01*
X21367347Y67302930D01*
X21392602Y67323656D01*
X21392928Y67323874D01*
X21421735Y67339272D01*
X21422097Y67339422D01*
X21453365Y67348907D01*
X21453750Y67348983D01*
X21492401Y67352790D01*
X21492597Y67352800D01*
X21581408Y67352800D01*
X21583140Y67351800D01*
G37*
G36*
X23327599Y67352790D02*
G01*
X23366250Y67348983D01*
X23366635Y67348907D01*
X23397903Y67339422D01*
X23398265Y67339272D01*
X23427072Y67323874D01*
X23427398Y67323656D01*
X23452653Y67302930D01*
X23452930Y67302653D01*
X23473656Y67277398D01*
X23473874Y67277072D01*
X23489272Y67248265D01*
X23489422Y67247903D01*
X23498907Y67216635D01*
X23498983Y67216250D01*
X23502790Y67177599D01*
X23502800Y67177403D01*
X23502800Y67088592D01*
X23501800Y67086860D01*
X23499800Y67086860D01*
X23498810Y67088396D01*
X23493792Y67139351D01*
X23478984Y67188166D01*
X23454939Y67233151D01*
X23422580Y67272580D01*
X23383151Y67304939D01*
X23338166Y67328984D01*
X23289351Y67343792D01*
X23238396Y67348810D01*
X23236770Y67349975D01*
X23236966Y67351965D01*
X23238592Y67352800D01*
X23327403Y67352800D01*
X23327599Y67352790D01*
G37*
G36*
X88841965Y70913034D02*
G01*
X88842800Y70911408D01*
X88842800Y70822597D01*
X88842790Y70822401D01*
X88838983Y70783750D01*
X88838907Y70783365D01*
X88829422Y70752097D01*
X88829272Y70751735D01*
X88813874Y70722928D01*
X88813656Y70722602D01*
X88792930Y70697347D01*
X88792653Y70697070D01*
X88767398Y70676344D01*
X88767072Y70676126D01*
X88738265Y70660728D01*
X88737903Y70660578D01*
X88706635Y70651093D01*
X88706250Y70651017D01*
X88667599Y70647210D01*
X88667403Y70647200D01*
X88578592Y70647200D01*
X88576860Y70648200D01*
X88576860Y70650200D01*
X88578396Y70651190D01*
X88629351Y70656208D01*
X88678166Y70671016D01*
X88723151Y70695061D01*
X88762580Y70727420D01*
X88794939Y70766849D01*
X88818984Y70811834D01*
X88833792Y70860649D01*
X88838810Y70911604D01*
X88839975Y70913230D01*
X88841965Y70913034D01*
G37*
G36*
X86661190Y70911604D02*
G01*
X86666208Y70860649D01*
X86681016Y70811834D01*
X86705061Y70766849D01*
X86737420Y70727420D01*
X86776849Y70695061D01*
X86821834Y70671016D01*
X86870649Y70656208D01*
X86921604Y70651190D01*
X86923230Y70650025D01*
X86923034Y70648035D01*
X86921408Y70647200D01*
X86832597Y70647200D01*
X86832401Y70647210D01*
X86793750Y70651017D01*
X86793365Y70651093D01*
X86762097Y70660578D01*
X86761735Y70660728D01*
X86732928Y70676126D01*
X86732602Y70676344D01*
X86707347Y70697070D01*
X86707070Y70697347D01*
X86686344Y70722602D01*
X86686126Y70722928D01*
X86670728Y70751735D01*
X86670578Y70752097D01*
X86661093Y70783365D01*
X86661017Y70783750D01*
X86657210Y70822401D01*
X86657200Y70822597D01*
X86657200Y70911408D01*
X86658200Y70913140D01*
X86660200Y70913140D01*
X86661190Y70911604D01*
G37*
G36*
X86923140Y74351800D02*
G01*
X86923140Y74349800D01*
X86921604Y74348810D01*
X86870649Y74343792D01*
X86821834Y74328984D01*
X86776849Y74304939D01*
X86737420Y74272580D01*
X86705061Y74233151D01*
X86681016Y74188166D01*
X86666208Y74139351D01*
X86661190Y74088396D01*
X86660025Y74086770D01*
X86658035Y74086966D01*
X86657200Y74088592D01*
X86657200Y74177403D01*
X86657210Y74177599D01*
X86661017Y74216250D01*
X86661093Y74216635D01*
X86670578Y74247903D01*
X86670728Y74248265D01*
X86686126Y74277072D01*
X86686344Y74277398D01*
X86707070Y74302653D01*
X86707347Y74302930D01*
X86732602Y74323656D01*
X86732928Y74323874D01*
X86761735Y74339272D01*
X86762097Y74339422D01*
X86793365Y74348907D01*
X86793750Y74348983D01*
X86832401Y74352790D01*
X86832597Y74352800D01*
X86921408Y74352800D01*
X86923140Y74351800D01*
G37*
G36*
X88667599Y74352790D02*
G01*
X88706250Y74348983D01*
X88706635Y74348907D01*
X88737903Y74339422D01*
X88738265Y74339272D01*
X88767072Y74323874D01*
X88767398Y74323656D01*
X88792653Y74302930D01*
X88792930Y74302653D01*
X88813656Y74277398D01*
X88813874Y74277072D01*
X88829272Y74248265D01*
X88829422Y74247903D01*
X88838907Y74216635D01*
X88838983Y74216250D01*
X88842790Y74177599D01*
X88842800Y74177403D01*
X88842800Y74088592D01*
X88841800Y74086860D01*
X88839800Y74086860D01*
X88838810Y74088396D01*
X88833792Y74139351D01*
X88818984Y74188166D01*
X88794939Y74233151D01*
X88762580Y74272580D01*
X88723151Y74304939D01*
X88678166Y74328984D01*
X88629351Y74343792D01*
X88578396Y74348810D01*
X88576770Y74349975D01*
X88576966Y74351965D01*
X88578592Y74352800D01*
X88667403Y74352800D01*
X88667599Y74352790D01*
G37*
M02*
