M48
; DRILL file {KiCad (5.1.10)-1} date 12/14/22 20:36:11
; FORMAT={-:-/ absolute / metric / decimal}
; #@! TF.CreationDate,2022-12-14T20:36:11+08:00
; #@! TF.GenerationSoftware,Kicad,Pcbnew,(5.1.10)-1
; #@! TF.FileFunction,Plated,1,4,PTH
FMAT,2
METRIC
T1C0.200
T2C0.300
T3C0.400
T4C0.800
T5C0.890
T6C0.900
T7C1.000
T8C1.020
T9C1.200
T10C1.400
T11C1.630
T12C3.500
%
G90
G05
T1
X67.35Y48.9
X67.35Y47.5
X68.35Y48.9
X68.35Y47.5
X69.35Y48.9
X69.35Y47.5
T2
X0.9Y53.8
X0.9Y53.1
X1.1Y7.9
X1.63Y62.896
X1.63Y57.081
X1.8Y7.6
X2.0Y46.0
X2.0Y45.35
X2.0Y25.75
X2.0Y25.1
X2.2Y10.5
X2.2Y9.9
X2.2Y9.3
X2.6Y63.6
X2.75Y11.5
X3.0Y22.0
X3.2Y53.8
X3.25Y39.6
X3.738Y56.8
X3.837Y58.878
X3.88Y48.694
X3.939Y46.192
X4.31Y52.4
X4.456Y54.07
X4.8Y46.605
X5.043Y45.395
X5.25Y24.0
X5.25Y23.25
X5.511Y53.918
X5.571Y42.174
X5.572Y13.572
X5.59Y52.354
X5.771Y63.582
X5.983Y60.005
X6.368Y58.641
X6.4Y42.2
X6.568Y63.477
X6.7Y14.9
X6.75Y67.35
X6.778Y62.615
X7.005Y52.782
X7.4Y36.6
X7.4Y32.4
X7.684Y53.917
X8.4Y53.917
X9.0Y66.7
X9.0Y66.1
X9.003Y45.747
X9.4Y2.4
X9.5Y34.5
X10.157Y3.657
X10.3Y2.6
X11.0Y42.497
X11.1Y20.7
X11.13Y20.1
X11.13Y19.5
X11.2Y10.0
X11.6Y60.4
X11.6Y36.6
X11.6Y32.4
X11.8Y57.5
X11.8Y55.0
X11.8Y14.605
X12.313Y58.482
X12.538Y36.797
X12.6Y14.605
X12.995Y39.151
X13.0Y47.398
X13.465Y13.395
X13.497Y48.032
X13.77Y23.802
X14.194Y48.717
X14.6Y56.8
X14.6Y24.6
X14.695Y41.505
X15.2Y42.2
X15.4Y56.0
X15.403Y45.782
X15.605Y35.525
X15.605Y31.084
X15.857Y30.322
X16.35Y62.95
X16.6Y42.2
X16.63Y40.6
X16.8Y9.6
X17.2Y25.8
X17.395Y29.6
X17.5Y62.95
X17.891Y32.986
X18.0Y31.0
X18.0Y28.6
X18.052Y45.782
X18.178Y49.878
X18.353Y45.038
X18.5Y57.9
X18.57Y53.0
X18.7Y62.95
X18.9Y48.7
X19.1Y42.2
X19.15Y61.95
X19.15Y61.1
X19.15Y60.25
X19.4Y27.0
X19.5Y55.25
X19.564Y29.23
X20.095Y53.995
X20.095Y49.805
X20.247Y25.195
X20.538Y29.739
X21.0Y39.8
X21.25Y54.7
X21.3Y48.7
X21.6Y26.405
X21.6Y22.4
X21.6Y10.0
X22.25Y58.656
X22.39Y29.467
X23.6Y57.0
X23.6Y54.6
X24.0Y16.0
X24.044Y53.931
X24.178Y44.45
X24.899Y29.941
X25.0Y58.6
X25.0Y26.405
X25.6Y53.6
X25.63Y33.6
X25.916Y42.136
X25.916Y40.114
X26.1Y47.1
X26.4Y38.6
X26.4Y31.4
X26.621Y41.72
X26.663Y28.805
X27.2Y70.1
X27.25Y46.0
X27.25Y44.75
X27.6Y27.4
X27.836Y40.505
X27.87Y44.239
X28.0Y26.2
X28.3Y34.75
X28.5Y63.1
X28.605Y23.46
X28.8Y30.4
X29.8Y31.2
X29.8Y28.4
X29.863Y34.23
X30.0Y59.1
X30.05Y53.0
X30.785Y34.769
X31.206Y47.868
X31.25Y44.75
X31.619Y42.064
X31.702Y42.886
X31.715Y44.096
X32.4Y9.8
X32.6Y30.0
X32.8Y46.5
X33.0Y34.75
X33.4Y27.0
X33.7Y53.3
X33.7Y52.6
X34.1Y46.5
X34.578Y39.394
X34.6Y44.4
X34.6Y43.5
X34.6Y42.6
X35.2Y19.8
X35.244Y29.08
X35.25Y30.5
X35.5Y44.4
X35.5Y43.482
X35.5Y42.6
X36.0Y29.6
X36.0Y19.8
X36.236Y39.976
X36.239Y34.837
X36.4Y44.4
X36.4Y43.5
X36.4Y42.6
X36.6Y28.2
X37.188Y39.897
X37.625Y37.684
X37.7Y7.2
X37.855Y19.0
X37.933Y38.919
X38.4Y22.4
X38.4Y44.8
X38.479Y40.301
X38.525Y18.4
X38.7Y46.5
X38.7Y45.7
X38.75Y41.25
X38.75Y34.25
X38.75Y30.5
X38.969Y44.089
X39.0Y38.5
X39.175Y23.225
X39.19Y17.8
X39.398Y43.178
X39.5Y45.25
X39.739Y44.317
X39.795Y15.395
X40.0Y35.8
X40.0Y33.6
X40.201Y43.162
X40.25Y46.0
X40.43Y24.599
X40.475Y14.115
X41.195Y12.605
X41.2Y23.6
X42.6Y21.2
X43.0Y47.0
X43.0Y44.25
X43.2Y51.4
X43.2Y32.6
X45.4Y73.8
X45.6Y49.8
X45.6Y48.2
X45.6Y46.6
X46.8Y73.8
X46.8Y72.4
X46.8Y67.0
X47.6Y49.8
X47.6Y48.2
X47.6Y46.6
X47.85Y4.25
X48.0Y73.8
X48.0Y72.4
X48.0Y70.6
X48.0Y68.8
X48.0Y67.0
X48.0Y65.0
X48.0Y7.4
X48.4Y2.5
X49.3Y58.1
X49.3Y4.2
X50.75Y28.75
X51.175Y28.075
X51.5Y72.0
X51.8Y62.5
X51.828Y69.433
X52.05Y4.65
X52.1Y1.9
X52.5Y5.1
X52.7Y2.0
X52.75Y69.75
X53.0Y51.0
X53.0Y50.2
X53.0Y10.2
X53.25Y66.25
X53.6Y28.2
X54.0Y63.9
X54.2Y28.2
X54.5Y32.4
X54.5Y31.5
X54.6Y58.7
X55.2Y11.35
X55.2Y7.6
X55.3Y26.85
X55.3Y26.25
X55.3Y25.65
X55.4Y22.0
X55.588Y58.7
X55.65Y61.55
X55.95Y26.85
X55.95Y26.25
X55.95Y25.65
X56.689Y65.1
X57.0Y54.4
X58.6Y22.1
X59.05Y61.831
X59.5Y12.0
X59.5Y8.25
X59.8Y26.2
X60.5Y26.2
X60.75Y4.25
X60.9Y65.4
X60.9Y62.5
X60.9Y60.0
X61.6Y54.4
X62.0Y4.25
X62.5Y66.25
X62.6Y62.6
X62.6Y61.6
X62.75Y10.5
X64.6Y28.75
X65.0Y68.5
X65.0Y12.0
X65.25Y28.75
X65.75Y68.5
X65.75Y45.5
X65.75Y30.75
X65.75Y30.1
X65.8Y34.5
X66.2Y26.0
X66.5Y68.5
X66.9Y34.5
X67.25Y24.0
X68.5Y64.05
X68.5Y62.85
X68.5Y61.65
X68.5Y60.45
X68.5Y59.25
X68.8Y26.2
X69.0Y29.6
X69.0Y29.0
X69.25Y53.0
X69.6Y64.05
X69.6Y62.85
X69.6Y61.65
X69.6Y60.45
X69.6Y59.25
X69.8Y14.45
X69.9Y19.55
X69.95Y22.1
X70.2Y2.3
X70.55Y22.1
X70.7Y65.25
X70.7Y64.05
X70.7Y62.85
X70.7Y61.65
X70.7Y60.45
X70.7Y59.25
X70.75Y57.25
X70.8Y46.0
X71.6Y1.4
X71.8Y65.25
X71.8Y64.05
X71.8Y62.85
X71.8Y61.65
X71.8Y60.45
X71.8Y59.25
X72.294Y9.008
X72.6Y12.1
X72.6Y11.4
X72.85Y32.977
X72.85Y31.85
X72.9Y65.25
X72.9Y64.05
X72.9Y62.85
X72.9Y61.65
X72.9Y60.45
X72.9Y59.25
X72.95Y19.6
X73.003Y34.597
X73.803Y35.397
X74.0Y65.25
X74.0Y64.05
X74.0Y62.85
X74.0Y61.65
X74.0Y60.45
X74.0Y59.25
X76.25Y31.75
X76.25Y31.15
X76.4Y69.4
X77.7Y18.0
X77.75Y31.2
X77.75Y25.1
X79.0Y33.75
X79.235Y20.069
X79.6Y65.6
X80.5Y23.2
X80.5Y22.6
X80.65Y24.15
X81.2Y16.15
X81.25Y24.15
X81.8Y16.15
X81.9Y24.15
X83.35Y23.1
X83.75Y32.731
X84.35Y24.15
X85.0Y24.15
X85.5Y13.9
X85.5Y13.3
X85.65Y24.15
X86.0Y19.0
X87.2Y6.9
X88.5Y31.65
X89.1Y31.65
X90.8Y1.4
X90.9Y34.1
X90.9Y33.5
X91.45Y29.05
X91.55Y22.35
X91.6Y23.45
X92.0Y40.2
X92.25Y22.35
X92.75Y40.2
X92.95Y22.35
X93.0Y45.3
X93.2Y26.8
X93.55Y40.2
T3
X1.943Y72.188
X1.943Y69.812
X1.943Y5.188
X1.943Y2.812
X4.0Y73.375
X4.0Y68.625
X4.0Y6.375
X4.0Y1.625
X6.057Y72.188
X6.057Y69.812
X6.057Y5.188
X6.057Y2.812
X29.63Y27.0
X93.943Y72.188
X93.943Y69.812
X93.943Y5.188
X93.943Y2.812
X96.0Y73.375
X96.0Y68.625
X96.0Y6.375
X96.0Y1.625
X98.057Y72.188
X98.057Y69.812
X98.057Y5.188
X98.057Y2.812
T4
X60.75Y37.2
X63.29Y37.2
X65.83Y37.2
X68.37Y37.2
X70.91Y37.2
X73.45Y37.2
X88.0Y43.1
X88.0Y40.6
T5
X35.06Y55.86
X36.33Y58.4
X37.6Y55.86
X38.87Y58.4
X40.14Y55.86
X41.41Y58.4
X42.68Y55.86
X43.95Y58.4
T6
X2.5Y52.54
X2.5Y50.0
X2.5Y47.46
X15.5Y16.5
X15.5Y11.5
X17.5Y16.5
X17.5Y11.5
X19.5Y16.5
X19.5Y11.5
X31.0Y16.5
X31.0Y11.5
X33.0Y16.5
X33.0Y11.5
X35.0Y16.5
X35.0Y11.5
X46.5Y16.5
X46.5Y11.5
X48.5Y16.5
X48.5Y11.5
X50.5Y16.5
X50.5Y11.5
X69.46Y72.5
X72.0Y72.5
X74.54Y72.5
X88.5Y29.75
X88.5Y27.21
X88.5Y24.67
X88.5Y21.58
X88.5Y19.04
X88.5Y16.5
T7
X5.98Y51.0
X8.52Y51.0
X11.06Y51.0
X13.6Y51.0
X23.5Y39.31
X23.5Y36.77
X23.5Y34.23
X23.5Y31.69
X24.0Y7.29
X24.0Y4.75
X28.8Y4.7
X31.34Y4.7
X33.88Y4.7
X36.42Y4.7
X41.0Y7.25
X41.0Y4.71
X85.0Y54.7
X86.768Y52.932
T8
X32.875Y69.65
X35.415Y69.65
X43.585Y69.65
X46.125Y69.65
T9
X83.0Y56.5
X88.303Y51.197
T10
X12.25Y65.5
X17.33Y65.5
X22.41Y65.5
X82.67Y72.5
X87.75Y72.5
X97.5Y61.16
X97.5Y56.08
X97.5Y51.0
X97.5Y42.66
X97.5Y37.58
X97.5Y32.5
X97.5Y24.08
X97.5Y19.0
X97.5Y13.92
T11
X31.755Y61.7
X47.245Y61.7
T12
X4.0Y71.0
X4.0Y4.0
X96.0Y71.0
X96.0Y4.0
T0
M30
