%TF.GenerationSoftware,KiCad,Pcbnew,(5.1.10)-1*%
%TF.CreationDate,2022-11-30T22:02:34+08:00*%
%TF.ProjectId,motor_control,6d6f746f-725f-4636-9f6e-74726f6c2e6b,rev?*%
%TF.SameCoordinates,Original*%
%TF.FileFunction,Legend,Top*%
%TF.FilePolarity,Positive*%
%FSLAX46Y46*%
G04 Gerber Fmt 4.6, Leading zero omitted, Abs format (unit mm)*
G04 Created by KiCad (PCBNEW (5.1.10)-1) date 2022-11-30 22:02:34*
%MOMM*%
%LPD*%
G01*
G04 APERTURE LIST*
%ADD10C,0.150000*%
%ADD11C,0.200000*%
%ADD12C,0.254000*%
%ADD13C,0.400000*%
%ADD14C,0.300000*%
%ADD15C,0.120000*%
G04 APERTURE END LIST*
D10*
X62773809Y62313096D02*
X62773809Y63113096D01*
X63078571Y63113096D01*
X63154761Y63075000D01*
X63192857Y63036905D01*
X63230952Y62960715D01*
X63230952Y62846429D01*
X63192857Y62770239D01*
X63154761Y62732143D01*
X63078571Y62694048D01*
X62773809Y62694048D01*
X63688095Y62313096D02*
X63611904Y62351191D01*
X63573809Y62389286D01*
X63535714Y62465477D01*
X63535714Y62694048D01*
X63573809Y62770239D01*
X63611904Y62808334D01*
X63688095Y62846429D01*
X63802380Y62846429D01*
X63878571Y62808334D01*
X63916666Y62770239D01*
X63954761Y62694048D01*
X63954761Y62465477D01*
X63916666Y62389286D01*
X63878571Y62351191D01*
X63802380Y62313096D01*
X63688095Y62313096D01*
X64221428Y62846429D02*
X64373809Y62313096D01*
X64526190Y62694048D01*
X64678571Y62313096D01*
X64830952Y62846429D01*
X65440476Y62351191D02*
X65364285Y62313096D01*
X65211904Y62313096D01*
X65135714Y62351191D01*
X65097619Y62427381D01*
X65097619Y62732143D01*
X65135714Y62808334D01*
X65211904Y62846429D01*
X65364285Y62846429D01*
X65440476Y62808334D01*
X65478571Y62732143D01*
X65478571Y62655953D01*
X65097619Y62579762D01*
X65821428Y62313096D02*
X65821428Y62846429D01*
X65821428Y62694048D02*
X65859523Y62770239D01*
X65897619Y62808334D01*
X65973809Y62846429D01*
X66050000Y62846429D01*
X66811904Y62846429D02*
X67116666Y62846429D01*
X66926190Y63113096D02*
X66926190Y62427381D01*
X66964285Y62351191D01*
X67040476Y62313096D01*
X67116666Y62313096D01*
X67497619Y62313096D02*
X67421428Y62351191D01*
X67383333Y62389286D01*
X67345238Y62465477D01*
X67345238Y62694048D01*
X67383333Y62770239D01*
X67421428Y62808334D01*
X67497619Y62846429D01*
X67611904Y62846429D01*
X67688095Y62808334D01*
X67726190Y62770239D01*
X67764285Y62694048D01*
X67764285Y62465477D01*
X67726190Y62389286D01*
X67688095Y62351191D01*
X67611904Y62313096D01*
X67497619Y62313096D01*
X61688095Y61039286D02*
X61650000Y61001191D01*
X61535714Y60963096D01*
X61459523Y60963096D01*
X61345238Y61001191D01*
X61269047Y61077381D01*
X61230952Y61153572D01*
X61192857Y61305953D01*
X61192857Y61420239D01*
X61230952Y61572620D01*
X61269047Y61648810D01*
X61345238Y61725000D01*
X61459523Y61763096D01*
X61535714Y61763096D01*
X61650000Y61725000D01*
X61688095Y61686905D01*
X62145238Y60963096D02*
X62069047Y61001191D01*
X62030952Y61039286D01*
X61992857Y61115477D01*
X61992857Y61344048D01*
X62030952Y61420239D01*
X62069047Y61458334D01*
X62145238Y61496429D01*
X62259523Y61496429D01*
X62335714Y61458334D01*
X62373809Y61420239D01*
X62411904Y61344048D01*
X62411904Y61115477D01*
X62373809Y61039286D01*
X62335714Y61001191D01*
X62259523Y60963096D01*
X62145238Y60963096D01*
X62754761Y61496429D02*
X62754761Y60963096D01*
X62754761Y61420239D02*
X62792857Y61458334D01*
X62869047Y61496429D01*
X62983333Y61496429D01*
X63059523Y61458334D01*
X63097619Y61382143D01*
X63097619Y60963096D01*
X63364285Y61496429D02*
X63669047Y61496429D01*
X63478571Y61763096D02*
X63478571Y61077381D01*
X63516666Y61001191D01*
X63592857Y60963096D01*
X63669047Y60963096D01*
X63935714Y60963096D02*
X63935714Y61496429D01*
X63935714Y61344048D02*
X63973809Y61420239D01*
X64011904Y61458334D01*
X64088095Y61496429D01*
X64164285Y61496429D01*
X64545238Y60963096D02*
X64469047Y61001191D01*
X64430952Y61039286D01*
X64392857Y61115477D01*
X64392857Y61344048D01*
X64430952Y61420239D01*
X64469047Y61458334D01*
X64545238Y61496429D01*
X64659523Y61496429D01*
X64735714Y61458334D01*
X64773809Y61420239D01*
X64811904Y61344048D01*
X64811904Y61115477D01*
X64773809Y61039286D01*
X64735714Y61001191D01*
X64659523Y60963096D01*
X64545238Y60963096D01*
X65269047Y60963096D02*
X65192857Y61001191D01*
X65154761Y61077381D01*
X65154761Y61763096D01*
X66450000Y61382143D02*
X66564285Y61344048D01*
X66602380Y61305953D01*
X66640476Y61229762D01*
X66640476Y61115477D01*
X66602380Y61039286D01*
X66564285Y61001191D01*
X66488095Y60963096D01*
X66183333Y60963096D01*
X66183333Y61763096D01*
X66450000Y61763096D01*
X66526190Y61725000D01*
X66564285Y61686905D01*
X66602380Y61610715D01*
X66602380Y61534524D01*
X66564285Y61458334D01*
X66526190Y61420239D01*
X66450000Y61382143D01*
X66183333Y61382143D01*
X67097619Y60963096D02*
X67021428Y61001191D01*
X66983333Y61039286D01*
X66945238Y61115477D01*
X66945238Y61344048D01*
X66983333Y61420239D01*
X67021428Y61458334D01*
X67097619Y61496429D01*
X67211904Y61496429D01*
X67288095Y61458334D01*
X67326190Y61420239D01*
X67364285Y61344048D01*
X67364285Y61115477D01*
X67326190Y61039286D01*
X67288095Y61001191D01*
X67211904Y60963096D01*
X67097619Y60963096D01*
X68050000Y60963096D02*
X68050000Y61382143D01*
X68011904Y61458334D01*
X67935714Y61496429D01*
X67783333Y61496429D01*
X67707142Y61458334D01*
X68050000Y61001191D02*
X67973809Y60963096D01*
X67783333Y60963096D01*
X67707142Y61001191D01*
X67669047Y61077381D01*
X67669047Y61153572D01*
X67707142Y61229762D01*
X67783333Y61267858D01*
X67973809Y61267858D01*
X68050000Y61305953D01*
X68430952Y60963096D02*
X68430952Y61496429D01*
X68430952Y61344048D02*
X68469047Y61420239D01*
X68507142Y61458334D01*
X68583333Y61496429D01*
X68659523Y61496429D01*
X69269047Y60963096D02*
X69269047Y61763096D01*
X69269047Y61001191D02*
X69192857Y60963096D01*
X69040476Y60963096D01*
X68964285Y61001191D01*
X68926190Y61039286D01*
X68888095Y61115477D01*
X68888095Y61344048D01*
X68926190Y61420239D01*
X68964285Y61458334D01*
X69040476Y61496429D01*
X69192857Y61496429D01*
X69269047Y61458334D01*
X61340476Y54942858D02*
X61950000Y54942858D01*
X61645238Y54638096D02*
X61645238Y55247620D01*
X62750000Y54638096D02*
X62292857Y54638096D01*
X62521428Y54638096D02*
X62521428Y55438096D01*
X62445238Y55323810D01*
X62369047Y55247620D01*
X62292857Y55209524D01*
X63054761Y55361905D02*
X63092857Y55400000D01*
X63169047Y55438096D01*
X63359523Y55438096D01*
X63435714Y55400000D01*
X63473809Y55361905D01*
X63511904Y55285715D01*
X63511904Y55209524D01*
X63473809Y55095239D01*
X63016666Y54638096D01*
X63511904Y54638096D01*
X63740476Y55438096D02*
X64007142Y54638096D01*
X64273809Y55438096D01*
X58285714Y67938096D02*
X58552380Y67138096D01*
X58819047Y67938096D01*
X59085714Y67138096D02*
X59085714Y67671429D01*
X59085714Y67595239D02*
X59123809Y67633334D01*
X59200000Y67671429D01*
X59314285Y67671429D01*
X59390476Y67633334D01*
X59428571Y67557143D01*
X59428571Y67138096D01*
X59428571Y67557143D02*
X59466666Y67633334D01*
X59542857Y67671429D01*
X59657142Y67671429D01*
X59733333Y67633334D01*
X59771428Y67557143D01*
X59771428Y67138096D01*
X60495238Y67138096D02*
X60495238Y67557143D01*
X60457142Y67633334D01*
X60380952Y67671429D01*
X60228571Y67671429D01*
X60152380Y67633334D01*
X60495238Y67176191D02*
X60419047Y67138096D01*
X60228571Y67138096D01*
X60152380Y67176191D01*
X60114285Y67252381D01*
X60114285Y67328572D01*
X60152380Y67404762D01*
X60228571Y67442858D01*
X60419047Y67442858D01*
X60495238Y67480953D01*
X60876190Y67138096D02*
X60876190Y67671429D01*
X60876190Y67938096D02*
X60838095Y67900000D01*
X60876190Y67861905D01*
X60914285Y67900000D01*
X60876190Y67938096D01*
X60876190Y67861905D01*
X61257142Y67671429D02*
X61257142Y67138096D01*
X61257142Y67595239D02*
X61295238Y67633334D01*
X61371428Y67671429D01*
X61485714Y67671429D01*
X61561904Y67633334D01*
X61600000Y67557143D01*
X61600000Y67138096D01*
X53390476Y67900000D02*
X53314285Y67938096D01*
X53200000Y67938096D01*
X53085714Y67900000D01*
X53009523Y67823810D01*
X52971428Y67747620D01*
X52933333Y67595239D01*
X52933333Y67480953D01*
X52971428Y67328572D01*
X53009523Y67252381D01*
X53085714Y67176191D01*
X53200000Y67138096D01*
X53276190Y67138096D01*
X53390476Y67176191D01*
X53428571Y67214286D01*
X53428571Y67480953D01*
X53276190Y67480953D01*
X53771428Y67138096D02*
X53771428Y67938096D01*
X54228571Y67138096D01*
X54228571Y67938096D01*
X54609523Y67138096D02*
X54609523Y67938096D01*
X54800000Y67938096D01*
X54914285Y67900000D01*
X54990476Y67823810D01*
X55028571Y67747620D01*
X55066666Y67595239D01*
X55066666Y67480953D01*
X55028571Y67328572D01*
X54990476Y67252381D01*
X54914285Y67176191D01*
X54800000Y67138096D01*
X54609523Y67138096D01*
X26471428Y66942858D02*
X27080952Y66942858D01*
X26776190Y66638096D02*
X26776190Y67247620D01*
X27842857Y67438096D02*
X27461904Y67438096D01*
X27423809Y67057143D01*
X27461904Y67095239D01*
X27538095Y67133334D01*
X27728571Y67133334D01*
X27804761Y67095239D01*
X27842857Y67057143D01*
X27880952Y66980953D01*
X27880952Y66790477D01*
X27842857Y66714286D01*
X27804761Y66676191D01*
X27728571Y66638096D01*
X27538095Y66638096D01*
X27461904Y66676191D01*
X27423809Y66714286D01*
X28109523Y67438096D02*
X28376190Y66638096D01*
X28642857Y67438096D01*
X30340476Y66942858D02*
X30950000Y66942858D01*
X30645238Y66638096D02*
X30645238Y67247620D01*
X31750000Y66638096D02*
X31292857Y66638096D01*
X31521428Y66638096D02*
X31521428Y67438096D01*
X31445238Y67323810D01*
X31369047Y67247620D01*
X31292857Y67209524D01*
X32054761Y67361905D02*
X32092857Y67400000D01*
X32169047Y67438096D01*
X32359523Y67438096D01*
X32435714Y67400000D01*
X32473809Y67361905D01*
X32511904Y67285715D01*
X32511904Y67209524D01*
X32473809Y67095239D01*
X32016666Y66638096D01*
X32511904Y66638096D01*
X32740476Y67438096D02*
X33007142Y66638096D01*
X33273809Y67438096D01*
X68537976Y59495239D02*
X68680833Y59447620D01*
X68918928Y59447620D01*
X69014166Y59495239D01*
X69061785Y59542858D01*
X69109404Y59638096D01*
X69109404Y59733334D01*
X69061785Y59828572D01*
X69014166Y59876191D01*
X68918928Y59923810D01*
X68728452Y59971429D01*
X68633214Y60019048D01*
X68585595Y60066667D01*
X68537976Y60161905D01*
X68537976Y60257143D01*
X68585595Y60352381D01*
X68633214Y60400000D01*
X68728452Y60447620D01*
X68966547Y60447620D01*
X69109404Y60400000D01*
X69537976Y59447620D02*
X69537976Y60447620D01*
X69918928Y60447620D01*
X70014166Y60400000D01*
X70061785Y60352381D01*
X70109404Y60257143D01*
X70109404Y60114286D01*
X70061785Y60019048D01*
X70014166Y59971429D01*
X69918928Y59923810D01*
X69537976Y59923810D01*
X70442738Y60447620D02*
X70680833Y59447620D01*
X70871309Y60161905D01*
X71061785Y59447620D01*
X71299880Y60447620D01*
X71680833Y59447620D02*
X71680833Y60447620D01*
X72014166Y59733334D01*
X72347500Y60447620D01*
X72347500Y59447620D01*
X73585595Y59447620D02*
X73585595Y60447620D01*
X73918928Y59733334D01*
X74252261Y60447620D01*
X74252261Y59447620D01*
X74871309Y59447620D02*
X74776071Y59495239D01*
X74728452Y59542858D01*
X74680833Y59638096D01*
X74680833Y59923810D01*
X74728452Y60019048D01*
X74776071Y60066667D01*
X74871309Y60114286D01*
X75014166Y60114286D01*
X75109404Y60066667D01*
X75157023Y60019048D01*
X75204642Y59923810D01*
X75204642Y59638096D01*
X75157023Y59542858D01*
X75109404Y59495239D01*
X75014166Y59447620D01*
X74871309Y59447620D01*
X75490357Y60114286D02*
X75871309Y60114286D01*
X75633214Y60447620D02*
X75633214Y59590477D01*
X75680833Y59495239D01*
X75776071Y59447620D01*
X75871309Y59447620D01*
X76347500Y59447620D02*
X76252261Y59495239D01*
X76204642Y59542858D01*
X76157023Y59638096D01*
X76157023Y59923810D01*
X76204642Y60019048D01*
X76252261Y60066667D01*
X76347500Y60114286D01*
X76490357Y60114286D01*
X76585595Y60066667D01*
X76633214Y60019048D01*
X76680833Y59923810D01*
X76680833Y59638096D01*
X76633214Y59542858D01*
X76585595Y59495239D01*
X76490357Y59447620D01*
X76347500Y59447620D01*
X77109404Y59447620D02*
X77109404Y60114286D01*
X77109404Y59923810D02*
X77157023Y60019048D01*
X77204642Y60066667D01*
X77299880Y60114286D01*
X77395119Y60114286D01*
X79061785Y59542858D02*
X79014166Y59495239D01*
X78871309Y59447620D01*
X78776071Y59447620D01*
X78633214Y59495239D01*
X78537976Y59590477D01*
X78490357Y59685715D01*
X78442738Y59876191D01*
X78442738Y60019048D01*
X78490357Y60209524D01*
X78537976Y60304762D01*
X78633214Y60400000D01*
X78776071Y60447620D01*
X78871309Y60447620D01*
X79014166Y60400000D01*
X79061785Y60352381D01*
X79633214Y59447620D02*
X79537976Y59495239D01*
X79490357Y59542858D01*
X79442738Y59638096D01*
X79442738Y59923810D01*
X79490357Y60019048D01*
X79537976Y60066667D01*
X79633214Y60114286D01*
X79776071Y60114286D01*
X79871309Y60066667D01*
X79918928Y60019048D01*
X79966547Y59923810D01*
X79966547Y59638096D01*
X79918928Y59542858D01*
X79871309Y59495239D01*
X79776071Y59447620D01*
X79633214Y59447620D01*
X80395119Y60114286D02*
X80395119Y59447620D01*
X80395119Y60019048D02*
X80442738Y60066667D01*
X80537976Y60114286D01*
X80680833Y60114286D01*
X80776071Y60066667D01*
X80823690Y59971429D01*
X80823690Y59447620D01*
X81157023Y60114286D02*
X81537976Y60114286D01*
X81299880Y60447620D02*
X81299880Y59590477D01*
X81347500Y59495239D01*
X81442738Y59447620D01*
X81537976Y59447620D01*
X81871309Y59447620D02*
X81871309Y60114286D01*
X81871309Y59923810D02*
X81918928Y60019048D01*
X81966547Y60066667D01*
X82061785Y60114286D01*
X82157023Y60114286D01*
X82633214Y59447620D02*
X82537976Y59495239D01*
X82490357Y59542858D01*
X82442738Y59638096D01*
X82442738Y59923810D01*
X82490357Y60019048D01*
X82537976Y60066667D01*
X82633214Y60114286D01*
X82776071Y60114286D01*
X82871309Y60066667D01*
X82918928Y60019048D01*
X82966547Y59923810D01*
X82966547Y59638096D01*
X82918928Y59542858D01*
X82871309Y59495239D01*
X82776071Y59447620D01*
X82633214Y59447620D01*
X83537976Y59447620D02*
X83442738Y59495239D01*
X83395119Y59590477D01*
X83395119Y60447620D01*
X85014166Y59971429D02*
X85157023Y59923810D01*
X85204642Y59876191D01*
X85252261Y59780953D01*
X85252261Y59638096D01*
X85204642Y59542858D01*
X85157023Y59495239D01*
X85061785Y59447620D01*
X84680833Y59447620D01*
X84680833Y60447620D01*
X85014166Y60447620D01*
X85109404Y60400000D01*
X85157023Y60352381D01*
X85204642Y60257143D01*
X85204642Y60161905D01*
X85157023Y60066667D01*
X85109404Y60019048D01*
X85014166Y59971429D01*
X84680833Y59971429D01*
X85823690Y59447620D02*
X85728452Y59495239D01*
X85680833Y59542858D01*
X85633214Y59638096D01*
X85633214Y59923810D01*
X85680833Y60019048D01*
X85728452Y60066667D01*
X85823690Y60114286D01*
X85966547Y60114286D01*
X86061785Y60066667D01*
X86109404Y60019048D01*
X86157023Y59923810D01*
X86157023Y59638096D01*
X86109404Y59542858D01*
X86061785Y59495239D01*
X85966547Y59447620D01*
X85823690Y59447620D01*
X87014166Y59447620D02*
X87014166Y59971429D01*
X86966547Y60066667D01*
X86871309Y60114286D01*
X86680833Y60114286D01*
X86585595Y60066667D01*
X87014166Y59495239D02*
X86918928Y59447620D01*
X86680833Y59447620D01*
X86585595Y59495239D01*
X86537976Y59590477D01*
X86537976Y59685715D01*
X86585595Y59780953D01*
X86680833Y59828572D01*
X86918928Y59828572D01*
X87014166Y59876191D01*
X87490357Y59447620D02*
X87490357Y60114286D01*
X87490357Y59923810D02*
X87537976Y60019048D01*
X87585595Y60066667D01*
X87680833Y60114286D01*
X87776071Y60114286D01*
X88537976Y59447620D02*
X88537976Y60447620D01*
X88537976Y59495239D02*
X88442738Y59447620D01*
X88252261Y59447620D01*
X88157023Y59495239D01*
X88109404Y59542858D01*
X88061785Y59638096D01*
X88061785Y59923810D01*
X88109404Y60019048D01*
X88157023Y60066667D01*
X88252261Y60114286D01*
X88442738Y60114286D01*
X88537976Y60066667D01*
X89633214Y60447620D02*
X89966547Y59447620D01*
X90299880Y60447620D01*
X90823690Y60447620D02*
X90918928Y60447620D01*
X91014166Y60400000D01*
X91061785Y60352381D01*
X91109404Y60257143D01*
X91157023Y60066667D01*
X91157023Y59828572D01*
X91109404Y59638096D01*
X91061785Y59542858D01*
X91014166Y59495239D01*
X90918928Y59447620D01*
X90823690Y59447620D01*
X90728452Y59495239D01*
X90680833Y59542858D01*
X90633214Y59638096D01*
X90585595Y59828572D01*
X90585595Y60066667D01*
X90633214Y60257143D01*
X90680833Y60352381D01*
X90728452Y60400000D01*
X90823690Y60447620D01*
X91585595Y59542858D02*
X91633214Y59495239D01*
X91585595Y59447620D01*
X91537976Y59495239D01*
X91585595Y59542858D01*
X91585595Y59447620D01*
X92585595Y59447620D02*
X92014166Y59447620D01*
X92299880Y59447620D02*
X92299880Y60447620D01*
X92204642Y60304762D01*
X92109404Y60209524D01*
X92014166Y60161905D01*
X68918928Y58321429D02*
X69061785Y58273810D01*
X69109404Y58226191D01*
X69157023Y58130953D01*
X69157023Y57988096D01*
X69109404Y57892858D01*
X69061785Y57845239D01*
X68966547Y57797620D01*
X68585595Y57797620D01*
X68585595Y58797620D01*
X68918928Y58797620D01*
X69014166Y58750000D01*
X69061785Y58702381D01*
X69109404Y58607143D01*
X69109404Y58511905D01*
X69061785Y58416667D01*
X69014166Y58369048D01*
X68918928Y58321429D01*
X68585595Y58321429D01*
X69490357Y58464286D02*
X69728452Y57797620D01*
X69966547Y58464286D02*
X69728452Y57797620D01*
X69633214Y57559524D01*
X69585595Y57511905D01*
X69490357Y57464286D01*
X71014166Y58797620D02*
X71680833Y58797620D01*
X71014166Y57797620D01*
X71680833Y57797620D01*
X72442738Y57845239D02*
X72347500Y57797620D01*
X72157023Y57797620D01*
X72061785Y57845239D01*
X72014166Y57940477D01*
X72014166Y58321429D01*
X72061785Y58416667D01*
X72157023Y58464286D01*
X72347500Y58464286D01*
X72442738Y58416667D01*
X72490357Y58321429D01*
X72490357Y58226191D01*
X72014166Y58130953D01*
X72918928Y58464286D02*
X72918928Y57797620D01*
X72918928Y58369048D02*
X72966547Y58416667D01*
X73061785Y58464286D01*
X73204642Y58464286D01*
X73299880Y58416667D01*
X73347500Y58321429D01*
X73347500Y57797620D01*
X73823690Y57797620D02*
X73823690Y58464286D01*
X73823690Y58797620D02*
X73776071Y58750000D01*
X73823690Y58702381D01*
X73871309Y58750000D01*
X73823690Y58797620D01*
X73823690Y58702381D01*
X74299880Y58464286D02*
X74299880Y57797620D01*
X74299880Y58369048D02*
X74347500Y58416667D01*
X74442738Y58464286D01*
X74585595Y58464286D01*
X74680833Y58416667D01*
X74728452Y58321429D01*
X74728452Y57797620D01*
X75633214Y58464286D02*
X75633214Y57654762D01*
X75585595Y57559524D01*
X75537976Y57511905D01*
X75442738Y57464286D01*
X75299880Y57464286D01*
X75204642Y57511905D01*
X75633214Y57845239D02*
X75537976Y57797620D01*
X75347500Y57797620D01*
X75252261Y57845239D01*
X75204642Y57892858D01*
X75157023Y57988096D01*
X75157023Y58273810D01*
X75204642Y58369048D01*
X75252261Y58416667D01*
X75347500Y58464286D01*
X75537976Y58464286D01*
X75633214Y58416667D01*
X76157023Y57845239D02*
X76157023Y57797620D01*
X76109404Y57702381D01*
X76061785Y57654762D01*
X77823690Y57797620D02*
X77347500Y57797620D01*
X77347500Y58797620D01*
X78585595Y58464286D02*
X78585595Y57797620D01*
X78157023Y58464286D02*
X78157023Y57940477D01*
X78204642Y57845239D01*
X78299880Y57797620D01*
X78442738Y57797620D01*
X78537976Y57845239D01*
X78585595Y57892858D01*
X80109404Y57416667D02*
X80061785Y57464286D01*
X79966547Y57607143D01*
X79918928Y57702381D01*
X79871309Y57845239D01*
X79823690Y58083334D01*
X79823690Y58273810D01*
X79871309Y58511905D01*
X79918928Y58654762D01*
X79966547Y58750000D01*
X80061785Y58892858D01*
X80109404Y58940477D01*
X80823690Y58321429D02*
X80966547Y58273810D01*
X81014166Y58226191D01*
X81061785Y58130953D01*
X81061785Y57988096D01*
X81014166Y57892858D01*
X80966547Y57845239D01*
X80871309Y57797620D01*
X80490357Y57797620D01*
X80490357Y58797620D01*
X80823690Y58797620D01*
X80918928Y58750000D01*
X80966547Y58702381D01*
X81014166Y58607143D01*
X81014166Y58511905D01*
X80966547Y58416667D01*
X80918928Y58369048D01*
X80823690Y58321429D01*
X80490357Y58321429D01*
X81490357Y57797620D02*
X81490357Y58797620D01*
X82395119Y58464286D02*
X82395119Y57797620D01*
X82157023Y58845239D02*
X81918928Y58130953D01*
X82537976Y58130953D01*
X82823690Y58797620D02*
X83061785Y57797620D01*
X83252261Y58511905D01*
X83442738Y57797620D01*
X83680833Y58797620D01*
X84252261Y58797620D02*
X84442738Y58797620D01*
X84537976Y58750000D01*
X84633214Y58654762D01*
X84680833Y58464286D01*
X84680833Y58130953D01*
X84633214Y57940477D01*
X84537976Y57845239D01*
X84442738Y57797620D01*
X84252261Y57797620D01*
X84157023Y57845239D01*
X84061785Y57940477D01*
X84014166Y58130953D01*
X84014166Y58464286D01*
X84061785Y58654762D01*
X84157023Y58750000D01*
X84252261Y58797620D01*
X85109404Y57797620D02*
X85109404Y58797620D01*
X85490357Y58797620D01*
X85585595Y58750000D01*
X85633214Y58702381D01*
X85680833Y58607143D01*
X85680833Y58464286D01*
X85633214Y58369048D01*
X85585595Y58321429D01*
X85490357Y58273810D01*
X85109404Y58273810D01*
X86014166Y57416667D02*
X86061785Y57464286D01*
X86157023Y57607143D01*
X86204642Y57702381D01*
X86252261Y57845239D01*
X86299880Y58083334D01*
X86299880Y58273810D01*
X86252261Y58511905D01*
X86204642Y58654762D01*
X86157023Y58750000D01*
X86061785Y58892858D01*
X86014166Y58940477D01*
X68585595Y56147620D02*
X68585595Y57147620D01*
X69157023Y56147620D01*
X69157023Y57147620D01*
X69776071Y56147620D02*
X69680833Y56195239D01*
X69633214Y56242858D01*
X69585595Y56338096D01*
X69585595Y56623810D01*
X69633214Y56719048D01*
X69680833Y56766667D01*
X69776071Y56814286D01*
X69918928Y56814286D01*
X70014166Y56766667D01*
X70061785Y56719048D01*
X70109404Y56623810D01*
X70109404Y56338096D01*
X70061785Y56242858D01*
X70014166Y56195239D01*
X69918928Y56147620D01*
X69776071Y56147620D01*
X70442738Y56814286D02*
X70680833Y56147620D01*
X70918928Y56814286D01*
X71966547Y57147620D02*
X72585595Y57147620D01*
X72252261Y56766667D01*
X72395119Y56766667D01*
X72490357Y56719048D01*
X72537976Y56671429D01*
X72585595Y56576191D01*
X72585595Y56338096D01*
X72537976Y56242858D01*
X72490357Y56195239D01*
X72395119Y56147620D01*
X72109404Y56147620D01*
X72014166Y56195239D01*
X71966547Y56242858D01*
X73204642Y57147620D02*
X73299880Y57147620D01*
X73395119Y57100000D01*
X73442738Y57052381D01*
X73490357Y56957143D01*
X73537976Y56766667D01*
X73537976Y56528572D01*
X73490357Y56338096D01*
X73442738Y56242858D01*
X73395119Y56195239D01*
X73299880Y56147620D01*
X73204642Y56147620D01*
X73109404Y56195239D01*
X73061785Y56242858D01*
X73014166Y56338096D01*
X72966547Y56528572D01*
X72966547Y56766667D01*
X73014166Y56957143D01*
X73061785Y57052381D01*
X73109404Y57100000D01*
X73204642Y57147620D01*
X74014166Y56195239D02*
X74014166Y56147620D01*
X73966547Y56052381D01*
X73918928Y56004762D01*
X75157023Y57052381D02*
X75204642Y57100000D01*
X75299880Y57147620D01*
X75537976Y57147620D01*
X75633214Y57100000D01*
X75680833Y57052381D01*
X75728452Y56957143D01*
X75728452Y56861905D01*
X75680833Y56719048D01*
X75109404Y56147620D01*
X75728452Y56147620D01*
X76347500Y57147620D02*
X76442738Y57147620D01*
X76537976Y57100000D01*
X76585595Y57052381D01*
X76633214Y56957143D01*
X76680833Y56766667D01*
X76680833Y56528572D01*
X76633214Y56338096D01*
X76585595Y56242858D01*
X76537976Y56195239D01*
X76442738Y56147620D01*
X76347500Y56147620D01*
X76252261Y56195239D01*
X76204642Y56242858D01*
X76157023Y56338096D01*
X76109404Y56528572D01*
X76109404Y56766667D01*
X76157023Y56957143D01*
X76204642Y57052381D01*
X76252261Y57100000D01*
X76347500Y57147620D01*
X77061785Y57052381D02*
X77109404Y57100000D01*
X77204642Y57147620D01*
X77442738Y57147620D01*
X77537976Y57100000D01*
X77585595Y57052381D01*
X77633214Y56957143D01*
X77633214Y56861905D01*
X77585595Y56719048D01*
X77014166Y56147620D01*
X77633214Y56147620D01*
X78014166Y57052381D02*
X78061785Y57100000D01*
X78157023Y57147620D01*
X78395119Y57147620D01*
X78490357Y57100000D01*
X78537976Y57052381D01*
X78585595Y56957143D01*
X78585595Y56861905D01*
X78537976Y56719048D01*
X77966547Y56147620D01*
X78585595Y56147620D01*
D11*
%TO.C,R29*%
X81770000Y6465000D02*
X81770000Y8535000D01*
X78230000Y6465000D02*
X78230000Y8535000D01*
X78230000Y6465000D02*
X79550000Y6465000D01*
X80450000Y6465000D02*
X81770000Y6465000D01*
X80450000Y8535000D02*
X81770000Y8535000D01*
X78230000Y8535000D02*
X79550000Y8535000D01*
%TO.C,R28*%
X62895000Y65950000D02*
X64250000Y65950000D01*
X67605000Y63550000D02*
X67605000Y65950000D01*
X62895000Y63550000D02*
X62895000Y65950000D01*
X62895000Y63550000D02*
X64250000Y63550000D01*
X66250000Y63550000D02*
X67605000Y63550000D01*
X66250000Y65950000D02*
X67605000Y65950000D01*
%TO.C,R25*%
X21285000Y73770000D02*
X21285000Y72450000D01*
X21285000Y71550000D02*
X21285000Y70230000D01*
X19215000Y71550000D02*
X19215000Y70230000D01*
X19215000Y73770000D02*
X19215000Y72450000D01*
X19215000Y73770000D02*
X21285000Y73770000D01*
X19215000Y70230000D02*
X21285000Y70230000D01*
%TO.C,R24*%
X19215000Y57730000D02*
X19215000Y59050000D01*
X19215000Y59950000D02*
X19215000Y61270000D01*
X21285000Y59950000D02*
X21285000Y61270000D01*
X21285000Y57730000D02*
X21285000Y59050000D01*
X21285000Y57730000D02*
X19215000Y57730000D01*
X21285000Y61270000D02*
X19215000Y61270000D01*
%TO.C,R23*%
X37870000Y64535000D02*
X39190000Y64535000D01*
X40090000Y64535000D02*
X41410000Y64535000D01*
X40090000Y62465000D02*
X41410000Y62465000D01*
X37870000Y62465000D02*
X39190000Y62465000D01*
X37870000Y62465000D02*
X37870000Y64535000D01*
X41410000Y62465000D02*
X41410000Y64535000D01*
%TO.C,R22*%
X23785000Y61270000D02*
X23785000Y59950000D01*
X23785000Y59050000D02*
X23785000Y57730000D01*
X21715000Y59050000D02*
X21715000Y57730000D01*
X21715000Y61270000D02*
X21715000Y59950000D01*
X21715000Y61270000D02*
X23785000Y61270000D01*
X21715000Y57730000D02*
X23785000Y57730000D01*
%TO.C,Q1*%
X74850000Y4300000D02*
X74850000Y3700000D01*
D12*
X76400000Y5460000D02*
X76400000Y4800000D01*
X76400000Y5460000D02*
X75585000Y5460000D01*
X76400000Y2540000D02*
X75585000Y2540000D01*
X76400000Y3200000D02*
X76400000Y2540000D01*
X76400000Y3200000D02*
X76400000Y2540000D01*
X76400000Y3200000D02*
X76400000Y2540000D01*
%TO.C,U18*%
X27100000Y71500000D02*
X27100000Y68900000D01*
X27100000Y71500000D02*
X28000000Y71500000D01*
X31700000Y71500000D02*
X31700000Y68900000D01*
X30800000Y71500000D02*
X31700000Y71500000D01*
D11*
%TO.C,C22*%
X27494999Y66370000D02*
X28764999Y66370000D01*
X27094999Y65970000D02*
X27094999Y65050000D01*
X27494999Y62830000D02*
X28764999Y62830000D01*
X27094999Y64150000D02*
X27094999Y63230000D01*
X29164999Y64150000D02*
X29164999Y63230000D01*
X29164999Y65970000D02*
X29164999Y65050000D01*
X28765009Y66370000D02*
G75*
G02*
X29165009Y65970000I0J-400000D01*
G01*
X27094999Y65970000D02*
G75*
G02*
X27494999Y66370000I400000J0D01*
G01*
X27494999Y62830000D02*
G75*
G02*
X27094999Y63230000I0J400000D01*
G01*
X29164999Y63230000D02*
G75*
G02*
X28764999Y62830000I-400000J0D01*
G01*
%TO.C,C21*%
X30765001Y66370000D02*
X32035001Y66370000D01*
X30365001Y65970000D02*
X30365001Y65050000D01*
X30765001Y62830000D02*
X32035001Y62830000D01*
X30365001Y64150000D02*
X30365001Y63230000D01*
X32435001Y64150000D02*
X32435001Y63230000D01*
X32435001Y65970000D02*
X32435001Y65050000D01*
X32035011Y66370000D02*
G75*
G02*
X32435011Y65970000I0J-400000D01*
G01*
X30365001Y65970000D02*
G75*
G02*
X30765001Y66370000I400000J0D01*
G01*
X30765001Y62830000D02*
G75*
G02*
X30365001Y63230000I0J400000D01*
G01*
X32435001Y63230000D02*
G75*
G02*
X32035001Y62830000I-400000J0D01*
G01*
D12*
%TO.C,U17*%
X29000000Y41800000D02*
X29000000Y44600000D01*
X20600000Y41800000D02*
X20600000Y44600000D01*
X20600000Y44600000D02*
X29000000Y44600000D01*
X20600000Y41800000D02*
X29000000Y41800000D01*
D13*
X21500000Y42500000D02*
G75*
G03*
X21500000Y42500000I-200000J0D01*
G01*
D14*
X20350000Y40200000D02*
G75*
G03*
X20350000Y40200000I-150000J0D01*
G01*
D11*
%TO.C,R27*%
X24230000Y49635000D02*
X25550000Y49635000D01*
X26450000Y49635000D02*
X27770000Y49635000D01*
X26450000Y47565000D02*
X27770000Y47565000D01*
X24230000Y47565000D02*
X25550000Y47565000D01*
X24230000Y47565000D02*
X24230000Y49635000D01*
X27770000Y47565000D02*
X27770000Y49635000D01*
%TO.C,R26*%
X18235000Y35520000D02*
X18235000Y34200000D01*
X18235000Y33300000D02*
X18235000Y31980000D01*
X16165000Y33300000D02*
X16165000Y31980000D01*
X16165000Y35520000D02*
X16165000Y34200000D01*
X16165000Y35520000D02*
X18235000Y35520000D01*
X16165000Y31980000D02*
X18235000Y31980000D01*
%TO.C,C20*%
X19730000Y47965000D02*
X19730000Y49235000D01*
X20130000Y47565000D02*
X21050000Y47565000D01*
X23270000Y47965000D02*
X23270000Y49235000D01*
X21950000Y47565000D02*
X22870000Y47565000D01*
X21950000Y49635000D02*
X22870000Y49635000D01*
X20130000Y49635000D02*
X21050000Y49635000D01*
X19730000Y49235010D02*
G75*
G02*
X20130000Y49635010I400000J0D01*
G01*
X20130000Y47565000D02*
G75*
G02*
X19730000Y47965000I0J400000D01*
G01*
X23270000Y47965000D02*
G75*
G02*
X22870000Y47565000I-400000J0D01*
G01*
X22870000Y49635000D02*
G75*
G02*
X23270000Y49235000I0J-400000D01*
G01*
D12*
%TO.C,Q13*%
X53500000Y50883019D02*
X61450000Y50883019D01*
X53500000Y43737019D02*
X61450000Y43737019D01*
X61450000Y43737019D02*
X61450000Y50883019D01*
X61450000Y45210019D02*
X62750000Y45210019D01*
X62750000Y44710019D02*
X62750000Y45210019D01*
X61450000Y44710019D02*
X62750000Y44710019D01*
X53500000Y43737019D02*
X53500000Y50883019D01*
X61445830Y49932559D02*
X62745830Y49932559D01*
X62745830Y49432569D02*
X62745830Y49932559D01*
X61445830Y49432569D02*
X62745830Y49432569D01*
D13*
X62550000Y44010019D02*
G75*
G03*
X62550000Y44010019I-200000J0D01*
G01*
D12*
%TO.C,Q12*%
X49750000Y43737019D02*
X41800000Y43737019D01*
X49750000Y50883019D02*
X41800000Y50883019D01*
X41800000Y50883019D02*
X41800000Y43737019D01*
X41800000Y49410019D02*
X40500000Y49410019D01*
X40500000Y49910019D02*
X40500000Y49410019D01*
X41800000Y49910019D02*
X40500000Y49910019D01*
X49750000Y50883019D02*
X49750000Y43737019D01*
X41804170Y44687479D02*
X40504170Y44687479D01*
X40504170Y45187469D02*
X40504170Y44687479D01*
X41804170Y45187469D02*
X40504170Y45187469D01*
D13*
X41100000Y50610019D02*
G75*
G03*
X41100000Y50610019I-200000J0D01*
G01*
D12*
%TO.C,Q11*%
X53550000Y41054680D02*
X61500000Y41054680D01*
X53550000Y33908680D02*
X61500000Y33908680D01*
X61500000Y33908680D02*
X61500000Y41054680D01*
X61500000Y35381680D02*
X62800000Y35381680D01*
X62800000Y34881680D02*
X62800000Y35381680D01*
X61500000Y34881680D02*
X62800000Y34881680D01*
X53550000Y33908680D02*
X53550000Y41054680D01*
X61495830Y40104220D02*
X62795830Y40104220D01*
X62795830Y39604230D02*
X62795830Y40104220D01*
X61495830Y39604230D02*
X62795830Y39604230D01*
D13*
X62600000Y34181680D02*
G75*
G03*
X62600000Y34181680I-200000J0D01*
G01*
D12*
%TO.C,Q10*%
X49750000Y33908680D02*
X41800000Y33908680D01*
X49750000Y41054680D02*
X41800000Y41054680D01*
X41800000Y41054680D02*
X41800000Y33908680D01*
X41800000Y39581680D02*
X40500000Y39581680D01*
X40500000Y40081680D02*
X40500000Y39581680D01*
X41800000Y40081680D02*
X40500000Y40081680D01*
X49750000Y41054680D02*
X49750000Y33908680D01*
X41804170Y34859140D02*
X40504170Y34859140D01*
X40504170Y35359130D02*
X40504170Y34859140D01*
X41804170Y35359130D02*
X40504170Y35359130D01*
D13*
X41100000Y40781680D02*
G75*
G03*
X41100000Y40781680I-200000J0D01*
G01*
D12*
%TO.C,Q9*%
X53550000Y22426341D02*
X61500000Y22426341D01*
X53550000Y15280341D02*
X61500000Y15280341D01*
X61500000Y15280341D02*
X61500000Y22426341D01*
X61500000Y16753341D02*
X62800000Y16753341D01*
X62800000Y16253341D02*
X62800000Y16753341D01*
X61500000Y16253341D02*
X62800000Y16253341D01*
X53550000Y15280341D02*
X53550000Y22426341D01*
X61495830Y21475881D02*
X62795830Y21475881D01*
X62795830Y20975891D02*
X62795830Y21475881D01*
X61495830Y20975891D02*
X62795830Y20975891D01*
D13*
X62600000Y15553341D02*
G75*
G03*
X62600000Y15553341I-200000J0D01*
G01*
D12*
%TO.C,Q8*%
X49750000Y15280341D02*
X41800000Y15280341D01*
X49750000Y22426341D02*
X41800000Y22426341D01*
X41800000Y22426341D02*
X41800000Y15280341D01*
X41800000Y20953341D02*
X40500000Y20953341D01*
X40500000Y21453341D02*
X40500000Y20953341D01*
X41800000Y21453341D02*
X40500000Y21453341D01*
X49750000Y22426341D02*
X49750000Y15280341D01*
X41804170Y16230801D02*
X40504170Y16230801D01*
X40504170Y16730791D02*
X40504170Y16230801D01*
X41804170Y16730791D02*
X40504170Y16730791D01*
D13*
X41100000Y22153341D02*
G75*
G03*
X41100000Y22153341I-200000J0D01*
G01*
D12*
%TO.C,Q7*%
X53550000Y11848000D02*
X61500000Y11848000D01*
X53550000Y4702000D02*
X61500000Y4702000D01*
X61500000Y4702000D02*
X61500000Y11848000D01*
X61500000Y6175000D02*
X62800000Y6175000D01*
X62800000Y5675000D02*
X62800000Y6175000D01*
X61500000Y5675000D02*
X62800000Y5675000D01*
X53550000Y4702000D02*
X53550000Y11848000D01*
X61495830Y10897540D02*
X62795830Y10897540D01*
X62795830Y10397550D02*
X62795830Y10897540D01*
X61495830Y10397550D02*
X62795830Y10397550D01*
D13*
X62600000Y4975000D02*
G75*
G03*
X62600000Y4975000I-200000J0D01*
G01*
D12*
%TO.C,Q6*%
X49750000Y4702000D02*
X41800000Y4702000D01*
X49750000Y11848000D02*
X41800000Y11848000D01*
X41800000Y11848000D02*
X41800000Y4702000D01*
X41800000Y10375000D02*
X40500000Y10375000D01*
X40500000Y10875000D02*
X40500000Y10375000D01*
X41800000Y10875000D02*
X40500000Y10875000D01*
X49750000Y11848000D02*
X49750000Y4702000D01*
X41804170Y5652460D02*
X40504170Y5652460D01*
X40504170Y6152450D02*
X40504170Y5652460D01*
X41804170Y6152450D02*
X40504170Y6152450D01*
D13*
X41100000Y11575000D02*
G75*
G03*
X41100000Y11575000I-200000J0D01*
G01*
D11*
%TO.C,C1*%
X10135000Y67230000D02*
X8865000Y67230000D01*
X10535000Y67630000D02*
X10535000Y68550000D01*
X10135000Y70770000D02*
X8865000Y70770000D01*
X10535000Y69450000D02*
X10535000Y70370000D01*
X8465000Y69450000D02*
X8465000Y70370000D01*
X8465000Y67630000D02*
X8465000Y68550000D01*
X8864990Y67230000D02*
G75*
G02*
X8464990Y67630000I0J400000D01*
G01*
X10535000Y67630000D02*
G75*
G02*
X10135000Y67230000I-400000J0D01*
G01*
X10135000Y70770000D02*
G75*
G02*
X10535000Y70370000I0J-400000D01*
G01*
X8465000Y70370000D02*
G75*
G02*
X8865000Y70770000I400000J0D01*
G01*
D15*
%TO.C,J3*%
X59100000Y56700000D02*
X59100000Y55680000D01*
X53900000Y56700000D02*
X53900000Y55680000D01*
X59100000Y59240000D02*
X59100000Y58220000D01*
X53900000Y59240000D02*
X53900000Y58220000D01*
X59100000Y61780000D02*
X59100000Y60760000D01*
X53900000Y61780000D02*
X53900000Y60760000D01*
X59100000Y64320000D02*
X59100000Y63300000D01*
X53900000Y64320000D02*
X53900000Y63300000D01*
X59100000Y54160000D02*
X59100000Y53590000D01*
X53900000Y54160000D02*
X53900000Y53590000D01*
X59100000Y66410000D02*
X59100000Y65840000D01*
X53900000Y66410000D02*
X53900000Y65840000D01*
X52460000Y65840000D02*
X53900000Y65840000D01*
X53900000Y53590000D02*
X59100000Y53590000D01*
X53900000Y66410000D02*
X59100000Y66410000D01*
%TO.C,J2*%
X9100000Y11700000D02*
X9100000Y10680000D01*
X3900000Y11700000D02*
X3900000Y10680000D01*
X9100000Y14240000D02*
X9100000Y13220000D01*
X3900000Y14240000D02*
X3900000Y13220000D01*
X9100000Y16780000D02*
X9100000Y15760000D01*
X3900000Y16780000D02*
X3900000Y15760000D01*
X9100000Y19320000D02*
X9100000Y18300000D01*
X3900000Y19320000D02*
X3900000Y18300000D01*
X9100000Y9160000D02*
X9100000Y8590000D01*
X3900000Y9160000D02*
X3900000Y8590000D01*
X9100000Y21410000D02*
X9100000Y20840000D01*
X3900000Y21410000D02*
X3900000Y20840000D01*
X2460000Y20840000D02*
X3900000Y20840000D01*
X3900000Y8590000D02*
X9100000Y8590000D01*
X3900000Y21410000D02*
X9100000Y21410000D01*
%TO.C,J1*%
X9100000Y56700000D02*
X9100000Y55680000D01*
X3900000Y56700000D02*
X3900000Y55680000D01*
X9100000Y59240000D02*
X9100000Y58220000D01*
X3900000Y59240000D02*
X3900000Y58220000D01*
X9100000Y61780000D02*
X9100000Y60760000D01*
X3900000Y61780000D02*
X3900000Y60760000D01*
X9100000Y64320000D02*
X9100000Y63300000D01*
X3900000Y64320000D02*
X3900000Y63300000D01*
X9100000Y54160000D02*
X9100000Y53590000D01*
X3900000Y54160000D02*
X3900000Y53590000D01*
X9100000Y66410000D02*
X9100000Y65840000D01*
X3900000Y66410000D02*
X3900000Y65840000D01*
X2460000Y65840000D02*
X3900000Y65840000D01*
X3900000Y53590000D02*
X9100000Y53590000D01*
X3900000Y66410000D02*
X9100000Y66410000D01*
D12*
%TO.C,U16*%
X25700000Y64350000D02*
X25700000Y67150000D01*
X17300000Y64350000D02*
X17300000Y67150000D01*
X17300000Y67150000D02*
X25700000Y67150000D01*
X17300000Y64350000D02*
X25700000Y64350000D01*
D13*
X18200000Y65050000D02*
G75*
G03*
X18200000Y65050000I-200000J0D01*
G01*
D14*
X17050000Y62750000D02*
G75*
G03*
X17050000Y62750000I-150000J0D01*
G01*
D12*
%TO.C,U15*%
X29000000Y28850000D02*
X29000000Y31650000D01*
X20600000Y28850000D02*
X20600000Y31650000D01*
X20600000Y31650000D02*
X29000000Y31650000D01*
X20600000Y28850000D02*
X29000000Y28850000D01*
D13*
X21500000Y29550000D02*
G75*
G03*
X21500000Y29550000I-200000J0D01*
G01*
D14*
X20350000Y27250000D02*
G75*
G03*
X20350000Y27250000I-150000J0D01*
G01*
D15*
%TO.C,U14*%
X46000000Y58560000D02*
X42550000Y58560000D01*
X46000000Y58560000D02*
X47950000Y58560000D01*
X46000000Y53440000D02*
X44050000Y53440000D01*
X46000000Y53440000D02*
X47950000Y53440000D01*
%TO.C,U13*%
X45750000Y29810000D02*
X42300000Y29810000D01*
X45750000Y29810000D02*
X47700000Y29810000D01*
X45750000Y24690000D02*
X43800000Y24690000D01*
X45750000Y24690000D02*
X47700000Y24690000D01*
D12*
%TO.C,U12*%
X32300000Y56900000D02*
X32300000Y52100000D01*
X35100000Y56900000D02*
X35100000Y52100000D01*
X32300000Y56900000D02*
X35100000Y56900000D01*
X32300000Y52100000D02*
X35100000Y52100000D01*
D14*
X30950000Y57250000D02*
G75*
G03*
X30950000Y57250000I-150000J0D01*
G01*
D13*
X33200000Y56200000D02*
G75*
G03*
X33200000Y56200000I-200000J0D01*
G01*
D12*
%TO.C,U11*%
X25850000Y18900000D02*
X25850000Y14100000D01*
X28650000Y18900000D02*
X28650000Y14100000D01*
X25850000Y18900000D02*
X28650000Y18900000D01*
X25850000Y14100000D02*
X28650000Y14100000D01*
D14*
X24500000Y19250000D02*
G75*
G03*
X24500000Y19250000I-150000J0D01*
G01*
D13*
X26750000Y18200000D02*
G75*
G03*
X26750000Y18200000I-200000J0D01*
G01*
D12*
%TO.C,U10*%
X35350000Y31900000D02*
X35350000Y27100000D01*
X38150000Y31900000D02*
X38150000Y27100000D01*
X35350000Y31900000D02*
X38150000Y31900000D01*
X35350000Y27100000D02*
X38150000Y27100000D01*
D14*
X34000000Y32250000D02*
G75*
G03*
X34000000Y32250000I-150000J0D01*
G01*
D13*
X36250000Y31200000D02*
G75*
G03*
X36250000Y31200000I-200000J0D01*
G01*
D12*
%TO.C,U9*%
X25850000Y6400000D02*
X25850000Y1600000D01*
X28650000Y6400000D02*
X28650000Y1600000D01*
X25850000Y6400000D02*
X28650000Y6400000D01*
X25850000Y1600000D02*
X28650000Y1600000D01*
D14*
X24500000Y6750000D02*
G75*
G03*
X24500000Y6750000I-150000J0D01*
G01*
D13*
X26750000Y5700000D02*
G75*
G03*
X26750000Y5700000I-200000J0D01*
G01*
D15*
%TO.C,U8*%
X20200000Y19000000D02*
X20200000Y18850000D01*
X15400000Y19000000D02*
X20200000Y19000000D01*
X15400000Y18850000D02*
X15400000Y19000000D01*
X15400000Y15000000D02*
X15400000Y15150000D01*
X20200000Y15000000D02*
X15400000Y15000000D01*
X20200000Y15150000D02*
X20200000Y15000000D01*
X15400000Y18850000D02*
X13700000Y18850000D01*
%TO.C,U7*%
X20200000Y11000000D02*
X20200000Y10850000D01*
X15400000Y11000000D02*
X20200000Y11000000D01*
X15400000Y10850000D02*
X15400000Y11000000D01*
X15400000Y7000000D02*
X15400000Y7150000D01*
X20200000Y7000000D02*
X15400000Y7000000D01*
X20200000Y7150000D02*
X20200000Y7000000D01*
X15400000Y10850000D02*
X13700000Y10850000D01*
%TO.C,U6*%
X13400000Y34100000D02*
X13400000Y33950000D01*
X8600000Y34100000D02*
X13400000Y34100000D01*
X8600000Y33950000D02*
X8600000Y34100000D01*
X8600000Y30100000D02*
X8600000Y30250000D01*
X13400000Y30100000D02*
X8600000Y30100000D01*
X13400000Y30250000D02*
X13400000Y30100000D01*
X8600000Y33950000D02*
X6900000Y33950000D01*
%TO.C,U5*%
X13400000Y40150000D02*
X13400000Y40000000D01*
X8600000Y40150000D02*
X13400000Y40150000D01*
X8600000Y40000000D02*
X8600000Y40150000D01*
X8600000Y36150000D02*
X8600000Y36300000D01*
X13400000Y36150000D02*
X8600000Y36150000D01*
X13400000Y36300000D02*
X13400000Y36150000D01*
X8600000Y40000000D02*
X6900000Y40000000D01*
%TO.C,U4*%
X13400000Y46200000D02*
X13400000Y46050000D01*
X8600000Y46200000D02*
X13400000Y46200000D01*
X8600000Y46050000D02*
X8600000Y46200000D01*
X8600000Y42200000D02*
X8600000Y42350000D01*
X13400000Y42200000D02*
X8600000Y42200000D01*
X13400000Y42350000D02*
X13400000Y42200000D01*
X8600000Y46050000D02*
X6900000Y46050000D01*
%TO.C,U3*%
X13400000Y27750000D02*
X13400000Y27600000D01*
X8600000Y27750000D02*
X13400000Y27750000D01*
X8600000Y27600000D02*
X8600000Y27750000D01*
X8600000Y23750000D02*
X8600000Y23900000D01*
X13400000Y23750000D02*
X8600000Y23750000D01*
X13400000Y23900000D02*
X13400000Y23750000D01*
X8600000Y27600000D02*
X6900000Y27600000D01*
%TO.C,U2*%
X13400000Y51800000D02*
X13400000Y51650000D01*
X8600000Y51800000D02*
X13400000Y51800000D01*
X8600000Y51650000D02*
X8600000Y51800000D01*
X8600000Y47800000D02*
X8600000Y47950000D01*
X13400000Y47800000D02*
X8600000Y47800000D01*
X13400000Y47950000D02*
X13400000Y47800000D01*
X8600000Y51650000D02*
X6900000Y51650000D01*
%TO.C,U1*%
X24400000Y56000000D02*
X24400000Y55850000D01*
X19600000Y56000000D02*
X24400000Y56000000D01*
X19600000Y55850000D02*
X19600000Y56000000D01*
X19600000Y52000000D02*
X19600000Y52150000D01*
X24400000Y52000000D02*
X19600000Y52000000D01*
X24400000Y52150000D02*
X24400000Y52000000D01*
X19600000Y55850000D02*
X17900000Y55850000D01*
D11*
%TO.C,R57*%
X70715000Y44460019D02*
X70715000Y45780019D01*
X70715000Y46680019D02*
X70715000Y48000019D01*
X72785000Y46680019D02*
X72785000Y48000019D01*
X72785000Y44460019D02*
X72785000Y45780019D01*
X72785000Y44460019D02*
X70715000Y44460019D01*
X72785000Y48000019D02*
X70715000Y48000019D01*
%TO.C,R56*%
X37635000Y50770000D02*
X37635000Y49450000D01*
X37635000Y48550000D02*
X37635000Y47230000D01*
X35565000Y48550000D02*
X35565000Y47230000D01*
X35565000Y50770000D02*
X35565000Y49450000D01*
X35565000Y50770000D02*
X37635000Y50770000D01*
X35565000Y47230000D02*
X37635000Y47230000D01*
%TO.C,R55*%
X67215000Y44460019D02*
X67215000Y45780019D01*
X67215000Y46680019D02*
X67215000Y48000019D01*
X69285000Y46680019D02*
X69285000Y48000019D01*
X69285000Y44460019D02*
X69285000Y45780019D01*
X69285000Y44460019D02*
X67215000Y44460019D01*
X69285000Y48000019D02*
X67215000Y48000019D01*
%TO.C,R54*%
X34535000Y50770000D02*
X34535000Y49450000D01*
X34535000Y48550000D02*
X34535000Y47230000D01*
X32465000Y48550000D02*
X32465000Y47230000D01*
X32465000Y50770000D02*
X32465000Y49450000D01*
X32465000Y50770000D02*
X34535000Y50770000D01*
X32465000Y47230000D02*
X34535000Y47230000D01*
%TO.C,R53*%
X69285000Y38171680D02*
X69285000Y36851680D01*
X69285000Y35951680D02*
X69285000Y34631680D01*
X67215000Y35951680D02*
X67215000Y34631680D01*
X67215000Y38171680D02*
X67215000Y36851680D01*
X67215000Y38171680D02*
X69285000Y38171680D01*
X67215000Y34631680D02*
X69285000Y34631680D01*
%TO.C,R52*%
X31715000Y39541680D02*
X31715000Y40861680D01*
X31715000Y41761680D02*
X31715000Y43081680D01*
X33785000Y41761680D02*
X33785000Y43081680D01*
X33785000Y39541680D02*
X33785000Y40861680D01*
X33785000Y39541680D02*
X31715000Y39541680D01*
X33785000Y43081680D02*
X31715000Y43081680D01*
%TO.C,R51*%
X70715000Y34631680D02*
X70715000Y35951680D01*
X70715000Y36851680D02*
X70715000Y38171680D01*
X72785000Y36851680D02*
X72785000Y38171680D01*
X72785000Y34631680D02*
X72785000Y35951680D01*
X72785000Y34631680D02*
X70715000Y34631680D01*
X72785000Y38171680D02*
X70715000Y38171680D01*
%TO.C,R50*%
X37035000Y43081680D02*
X37035000Y41761680D01*
X37035000Y40861680D02*
X37035000Y39541680D01*
X34965000Y40861680D02*
X34965000Y39541680D01*
X34965000Y43081680D02*
X34965000Y41761680D01*
X34965000Y43081680D02*
X37035000Y43081680D01*
X34965000Y39541680D02*
X37035000Y39541680D01*
%TO.C,R49*%
X22340000Y72435000D02*
X23660000Y72435000D01*
X24560000Y72435000D02*
X25880000Y72435000D01*
X24560000Y70365000D02*
X25880000Y70365000D01*
X22340000Y70365000D02*
X23660000Y70365000D01*
X22340000Y70365000D02*
X22340000Y72435000D01*
X25880000Y70365000D02*
X25880000Y72435000D01*
%TO.C,R48*%
X24565000Y57630000D02*
X24565000Y58950000D01*
X24565000Y59850000D02*
X24565000Y61170000D01*
X26635000Y59850000D02*
X26635000Y61170000D01*
X26635000Y57630000D02*
X26635000Y58950000D01*
X26635000Y57630000D02*
X24565000Y57630000D01*
X26635000Y61170000D02*
X24565000Y61170000D01*
%TO.C,R47*%
X17785000Y73770000D02*
X17785000Y72450000D01*
X17785000Y71550000D02*
X17785000Y70230000D01*
X15715000Y71550000D02*
X15715000Y70230000D01*
X15715000Y73770000D02*
X15715000Y72450000D01*
X15715000Y73770000D02*
X17785000Y73770000D01*
X15715000Y70230000D02*
X17785000Y70230000D01*
%TO.C,R45*%
X13715000Y57730000D02*
X13715000Y59050000D01*
X13715000Y59950000D02*
X13715000Y61270000D01*
X15785000Y59950000D02*
X15785000Y61270000D01*
X15785000Y57730000D02*
X15785000Y59050000D01*
X15785000Y57730000D02*
X13715000Y57730000D01*
X15785000Y61270000D02*
X13715000Y61270000D01*
%TO.C,R43*%
X15635000Y65370000D02*
X15635000Y64050000D01*
X15635000Y63150000D02*
X15635000Y61830000D01*
X13565000Y63150000D02*
X13565000Y61830000D01*
X13565000Y65370000D02*
X13565000Y64050000D01*
X13565000Y65370000D02*
X15635000Y65370000D01*
X13565000Y61830000D02*
X15635000Y61830000D01*
%TO.C,R42*%
X15635000Y69770000D02*
X15635000Y68450000D01*
X15635000Y67550000D02*
X15635000Y66230000D01*
X13565000Y67550000D02*
X13565000Y66230000D01*
X13565000Y69770000D02*
X13565000Y68450000D01*
X13565000Y69770000D02*
X15635000Y69770000D01*
X13565000Y66230000D02*
X15635000Y66230000D01*
%TO.C,R41*%
X70715000Y15253341D02*
X70715000Y16573341D01*
X70715000Y17473341D02*
X70715000Y18793341D01*
X72785000Y17473341D02*
X72785000Y18793341D01*
X72785000Y15253341D02*
X72785000Y16573341D01*
X72785000Y15253341D02*
X70715000Y15253341D01*
X72785000Y18793341D02*
X70715000Y18793341D01*
%TO.C,R40*%
X34285000Y20020000D02*
X34285000Y18700000D01*
X34285000Y17800000D02*
X34285000Y16480000D01*
X32215000Y17800000D02*
X32215000Y16480000D01*
X32215000Y20020000D02*
X32215000Y18700000D01*
X32215000Y20020000D02*
X34285000Y20020000D01*
X32215000Y16480000D02*
X34285000Y16480000D01*
%TO.C,R39*%
X67215000Y15253341D02*
X67215000Y16573341D01*
X67215000Y17473341D02*
X67215000Y18793341D01*
X69285000Y17473341D02*
X69285000Y18793341D01*
X69285000Y15253341D02*
X69285000Y16573341D01*
X69285000Y15253341D02*
X67215000Y15253341D01*
X69285000Y18793341D02*
X67215000Y18793341D01*
%TO.C,R38*%
X37035000Y20020000D02*
X37035000Y18700000D01*
X37035000Y17800000D02*
X37035000Y16480000D01*
X34965000Y17800000D02*
X34965000Y16480000D01*
X34965000Y20020000D02*
X34965000Y18700000D01*
X34965000Y20020000D02*
X37035000Y20020000D01*
X34965000Y16480000D02*
X37035000Y16480000D01*
%TO.C,R37*%
X69285000Y8215000D02*
X69285000Y6895000D01*
X69285000Y5995000D02*
X69285000Y4675000D01*
X67215000Y5995000D02*
X67215000Y4675000D01*
X67215000Y8215000D02*
X67215000Y6895000D01*
X67215000Y8215000D02*
X69285000Y8215000D01*
X67215000Y4675000D02*
X69285000Y4675000D01*
%TO.C,R36*%
X35215000Y5730000D02*
X35215000Y7050000D01*
X35215000Y7950000D02*
X35215000Y9270000D01*
X37285000Y7950000D02*
X37285000Y9270000D01*
X37285000Y5730000D02*
X37285000Y7050000D01*
X37285000Y5730000D02*
X35215000Y5730000D01*
X37285000Y9270000D02*
X35215000Y9270000D01*
%TO.C,R35*%
X70715000Y4675000D02*
X70715000Y5995000D01*
X70715000Y6895000D02*
X70715000Y8215000D01*
X72785000Y6895000D02*
X72785000Y8215000D01*
X72785000Y4675000D02*
X72785000Y5995000D01*
X72785000Y4675000D02*
X70715000Y4675000D01*
X72785000Y8215000D02*
X70715000Y8215000D01*
%TO.C,R34*%
X34035000Y9270000D02*
X34035000Y7950000D01*
X34035000Y7050000D02*
X34035000Y5730000D01*
X31965000Y7050000D02*
X31965000Y5730000D01*
X31965000Y9270000D02*
X31965000Y7950000D01*
X31965000Y9270000D02*
X34035000Y9270000D01*
X31965000Y5730000D02*
X34035000Y5730000D01*
%TO.C,R33*%
X30535000Y50770000D02*
X30535000Y49450000D01*
X30535000Y48550000D02*
X30535000Y47230000D01*
X28465000Y48550000D02*
X28465000Y47230000D01*
X28465000Y50770000D02*
X28465000Y49450000D01*
X28465000Y50770000D02*
X30535000Y50770000D01*
X28465000Y47230000D02*
X30535000Y47230000D01*
%TO.C,R32*%
X23465000Y34980000D02*
X23465000Y36300000D01*
X23465000Y37200000D02*
X23465000Y38520000D01*
X25535000Y37200000D02*
X25535000Y38520000D01*
X25535000Y34980000D02*
X25535000Y36300000D01*
X25535000Y34980000D02*
X23465000Y34980000D01*
X25535000Y38520000D02*
X23465000Y38520000D01*
%TO.C,R31*%
X30265000Y28330000D02*
X30265000Y29650000D01*
X30265000Y30550000D02*
X30265000Y31870000D01*
X32335000Y30550000D02*
X32335000Y31870000D01*
X32335000Y28330000D02*
X32335000Y29650000D01*
X32335000Y28330000D02*
X30265000Y28330000D01*
X32335000Y31870000D02*
X30265000Y31870000D01*
%TO.C,R30*%
X21770000Y965000D02*
X20450000Y965000D01*
X19550000Y965000D02*
X18230000Y965000D01*
X19550000Y3035000D02*
X18230000Y3035000D01*
X21770000Y3035000D02*
X20450000Y3035000D01*
X21770000Y3035000D02*
X21770000Y965000D01*
X18230000Y3035000D02*
X18230000Y965000D01*
%TO.C,R21*%
X28785000Y38520000D02*
X28785000Y37200000D01*
X28785000Y36300000D02*
X28785000Y34980000D01*
X26715000Y36300000D02*
X26715000Y34980000D01*
X26715000Y38520000D02*
X26715000Y37200000D01*
X26715000Y38520000D02*
X28785000Y38520000D01*
X26715000Y34980000D02*
X28785000Y34980000D01*
%TO.C,R20*%
X19480000Y25785000D02*
X20800000Y25785000D01*
X21700000Y25785000D02*
X23020000Y25785000D01*
X21700000Y23715000D02*
X23020000Y23715000D01*
X19480000Y23715000D02*
X20800000Y23715000D01*
X19480000Y23715000D02*
X19480000Y25785000D01*
X23020000Y23715000D02*
X23020000Y25785000D01*
%TO.C,R19*%
X48535000Y62520000D02*
X48535000Y61200000D01*
X48535000Y60300000D02*
X48535000Y58980000D01*
X46465000Y60300000D02*
X46465000Y58980000D01*
X46465000Y62520000D02*
X46465000Y61200000D01*
X46465000Y62520000D02*
X48535000Y62520000D01*
X46465000Y58980000D02*
X48535000Y58980000D01*
%TO.C,R18*%
X56035000Y28160000D02*
X56035000Y26840000D01*
X56035000Y25940000D02*
X56035000Y24620000D01*
X53965000Y25940000D02*
X53965000Y24620000D01*
X53965000Y28160000D02*
X53965000Y26840000D01*
X53965000Y28160000D02*
X56035000Y28160000D01*
X53965000Y24620000D02*
X56035000Y24620000D01*
%TO.C,R17*%
X77520000Y6515000D02*
X76200000Y6515000D01*
X75300000Y6515000D02*
X73980000Y6515000D01*
X75300000Y8585000D02*
X73980000Y8585000D01*
X77520000Y8585000D02*
X76200000Y8585000D01*
X77520000Y8585000D02*
X77520000Y6515000D01*
X73980000Y8585000D02*
X73980000Y6515000D01*
%TO.C,R16*%
X15980000Y21535000D02*
X17300000Y21535000D01*
X18200000Y21535000D02*
X19520000Y21535000D01*
X18200000Y19465000D02*
X19520000Y19465000D01*
X15980000Y19465000D02*
X17300000Y19465000D01*
X15980000Y19465000D02*
X15980000Y21535000D01*
X19520000Y19465000D02*
X19520000Y21535000D01*
%TO.C,R15*%
X21770000Y3715000D02*
X20450000Y3715000D01*
X19550000Y3715000D02*
X18230000Y3715000D01*
X19550000Y5785000D02*
X18230000Y5785000D01*
X21770000Y5785000D02*
X20450000Y5785000D01*
X21770000Y5785000D02*
X21770000Y3715000D01*
X18230000Y5785000D02*
X18230000Y3715000D01*
%TO.C,R14*%
X16165000Y27930000D02*
X16165000Y29250000D01*
X16165000Y30150000D02*
X16165000Y31470000D01*
X18235000Y30150000D02*
X18235000Y31470000D01*
X18235000Y27930000D02*
X18235000Y29250000D01*
X18235000Y27930000D02*
X16165000Y27930000D01*
X18235000Y31470000D02*
X16165000Y31470000D01*
%TO.C,R13*%
X17170000Y12165000D02*
X15850000Y12165000D01*
X14950000Y12165000D02*
X13630000Y12165000D01*
X14950000Y14235000D02*
X13630000Y14235000D01*
X17170000Y14235000D02*
X15850000Y14235000D01*
X17170000Y14235000D02*
X17170000Y12165000D01*
X13630000Y14235000D02*
X13630000Y12165000D01*
%TO.C,R12*%
X12520000Y3715000D02*
X11200000Y3715000D01*
X10300000Y3715000D02*
X8980000Y3715000D01*
X10300000Y5785000D02*
X8980000Y5785000D01*
X12520000Y5785000D02*
X11200000Y5785000D01*
X12520000Y5785000D02*
X12520000Y3715000D01*
X8980000Y5785000D02*
X8980000Y3715000D01*
%TO.C,R11*%
X5635000Y34075000D02*
X5635000Y32755000D01*
X5635000Y31855000D02*
X5635000Y30535000D01*
X3565000Y31855000D02*
X3565000Y30535000D01*
X3565000Y34075000D02*
X3565000Y32755000D01*
X3565000Y34075000D02*
X5635000Y34075000D01*
X3565000Y30535000D02*
X5635000Y30535000D01*
%TO.C,R10*%
X26965000Y52480000D02*
X26965000Y53800000D01*
X26965000Y54700000D02*
X26965000Y56020000D01*
X29035000Y54700000D02*
X29035000Y56020000D01*
X29035000Y52480000D02*
X29035000Y53800000D01*
X29035000Y52480000D02*
X26965000Y52480000D01*
X29035000Y56020000D02*
X26965000Y56020000D01*
%TO.C,R9*%
X18285000Y39770000D02*
X18285000Y38450000D01*
X18285000Y37550000D02*
X18285000Y36230000D01*
X16215000Y37550000D02*
X16215000Y36230000D01*
X16215000Y39770000D02*
X16215000Y38450000D01*
X16215000Y39770000D02*
X18285000Y39770000D01*
X16215000Y36230000D02*
X18285000Y36230000D01*
%TO.C,R8*%
X18235000Y45770000D02*
X18235000Y44450000D01*
X18235000Y43550000D02*
X18235000Y42230000D01*
X16165000Y43550000D02*
X16165000Y42230000D01*
X16165000Y45770000D02*
X16165000Y44450000D01*
X16165000Y45770000D02*
X18235000Y45770000D01*
X16165000Y42230000D02*
X18235000Y42230000D01*
%TO.C,R7*%
X18235000Y27270000D02*
X18235000Y25950000D01*
X18235000Y25050000D02*
X18235000Y23730000D01*
X16165000Y25050000D02*
X16165000Y23730000D01*
X16165000Y27270000D02*
X16165000Y25950000D01*
X16165000Y27270000D02*
X18235000Y27270000D01*
X16165000Y23730000D02*
X18235000Y23730000D01*
%TO.C,R6*%
X18235000Y50570000D02*
X18235000Y49250000D01*
X18235000Y48350000D02*
X18235000Y47030000D01*
X16165000Y48350000D02*
X16165000Y47030000D01*
X16165000Y50570000D02*
X16165000Y49250000D01*
X16165000Y50570000D02*
X18235000Y50570000D01*
X16165000Y47030000D02*
X18235000Y47030000D01*
%TO.C,R5*%
X5635000Y40125000D02*
X5635000Y38805000D01*
X5635000Y37905000D02*
X5635000Y36585000D01*
X3565000Y37905000D02*
X3565000Y36585000D01*
X3565000Y40125000D02*
X3565000Y38805000D01*
X3565000Y40125000D02*
X5635000Y40125000D01*
X3565000Y36585000D02*
X5635000Y36585000D01*
%TO.C,R4*%
X5635000Y46175000D02*
X5635000Y44855000D01*
X5635000Y43955000D02*
X5635000Y42635000D01*
X3565000Y43955000D02*
X3565000Y42635000D01*
X3565000Y46175000D02*
X3565000Y44855000D01*
X3565000Y46175000D02*
X5635000Y46175000D01*
X3565000Y42635000D02*
X5635000Y42635000D01*
%TO.C,R3*%
X5635000Y27725000D02*
X5635000Y26405000D01*
X5635000Y25505000D02*
X5635000Y24185000D01*
X3565000Y25505000D02*
X3565000Y24185000D01*
X3565000Y27725000D02*
X3565000Y26405000D01*
X3565000Y27725000D02*
X5635000Y27725000D01*
X3565000Y24185000D02*
X5635000Y24185000D01*
%TO.C,R2*%
X5635000Y51775000D02*
X5635000Y50455000D01*
X5635000Y49555000D02*
X5635000Y48235000D01*
X3565000Y49555000D02*
X3565000Y48235000D01*
X3565000Y51775000D02*
X3565000Y50455000D01*
X3565000Y51775000D02*
X5635000Y51775000D01*
X3565000Y48235000D02*
X5635000Y48235000D01*
%TO.C,R1*%
X16635000Y55970000D02*
X16635000Y54650000D01*
X16635000Y53750000D02*
X16635000Y52430000D01*
X14565000Y53750000D02*
X14565000Y52430000D01*
X14565000Y55970000D02*
X14565000Y54650000D01*
X14565000Y55970000D02*
X16635000Y55970000D01*
X14565000Y52430000D02*
X16635000Y52430000D01*
%TO.C,D13*%
X69800000Y49300000D02*
X69800000Y50700000D01*
X69500000Y49300000D02*
X69500000Y50700000D01*
X70500000Y49300000D02*
X70500000Y50700000D01*
X69500000Y49300000D02*
X70500000Y49300000D01*
X69500000Y50700000D02*
X70500000Y50700000D01*
%TO.C,D12*%
X34550000Y44550000D02*
X34550000Y45950000D01*
X34250000Y44550000D02*
X34250000Y45950000D01*
X35250000Y44550000D02*
X35250000Y45950000D01*
X34250000Y44550000D02*
X35250000Y44550000D01*
X34250000Y45950000D02*
X35250000Y45950000D01*
%TO.C,D11*%
X69800000Y39800000D02*
X69800000Y41200000D01*
X69500000Y39800000D02*
X69500000Y41200000D01*
X70500000Y39800000D02*
X70500000Y41200000D01*
X69500000Y39800000D02*
X70500000Y39800000D01*
X69500000Y41200000D02*
X70500000Y41200000D01*
%TO.C,D10*%
X34550000Y37300000D02*
X34550000Y38700000D01*
X34250000Y37300000D02*
X34250000Y38700000D01*
X35250000Y37300000D02*
X35250000Y38700000D01*
X34250000Y37300000D02*
X35250000Y37300000D01*
X34250000Y38700000D02*
X35250000Y38700000D01*
%TO.C,D9*%
X71300000Y20050000D02*
X71300000Y21450000D01*
X71000000Y20050000D02*
X71000000Y21450000D01*
X72000000Y20050000D02*
X72000000Y21450000D01*
X71000000Y20050000D02*
X72000000Y20050000D01*
X71000000Y21450000D02*
X72000000Y21450000D01*
%TO.C,D8*%
X34550000Y13800000D02*
X34550000Y15200000D01*
X34250000Y13800000D02*
X34250000Y15200000D01*
X35250000Y13800000D02*
X35250000Y15200000D01*
X34250000Y13800000D02*
X35250000Y13800000D01*
X34250000Y15200000D02*
X35250000Y15200000D01*
%TO.C,D7*%
X69800000Y9300000D02*
X69800000Y10700000D01*
X69500000Y9300000D02*
X69500000Y10700000D01*
X70500000Y9300000D02*
X70500000Y10700000D01*
X69500000Y9300000D02*
X70500000Y9300000D01*
X69500000Y10700000D02*
X70500000Y10700000D01*
%TO.C,D6*%
X34550000Y3300000D02*
X34550000Y4700000D01*
X34250000Y3300000D02*
X34250000Y4700000D01*
X35250000Y3300000D02*
X35250000Y4700000D01*
X34250000Y3300000D02*
X35250000Y3300000D01*
X34250000Y4700000D02*
X35250000Y4700000D01*
%TO.C,D5*%
X85050000Y1050000D02*
X85050000Y2450000D01*
X84750000Y1050000D02*
X84750000Y2450000D01*
X85750000Y1050000D02*
X85750000Y2450000D01*
X84750000Y1050000D02*
X85750000Y1050000D01*
X84750000Y2450000D02*
X85750000Y2450000D01*
%TO.C,D4*%
X35050000Y62050000D02*
X35050000Y60650000D01*
X35350000Y62050000D02*
X35350000Y60650000D01*
X34350000Y62050000D02*
X34350000Y60650000D01*
X35350000Y62050000D02*
X34350000Y62050000D01*
X35350000Y60650000D02*
X34350000Y60650000D01*
%TO.C,D3*%
X33000000Y22500000D02*
X33000000Y21100000D01*
X33300000Y22500000D02*
X33300000Y21100000D01*
X32300000Y22500000D02*
X32300000Y21100000D01*
X33300000Y22500000D02*
X32300000Y22500000D01*
X33300000Y21100000D02*
X32300000Y21100000D01*
%TO.C,D2*%
X33000000Y25450000D02*
X33000000Y24050000D01*
X33300000Y25450000D02*
X33300000Y24050000D01*
X32300000Y25450000D02*
X32300000Y24050000D01*
X33300000Y25450000D02*
X32300000Y25450000D01*
X33300000Y24050000D02*
X32300000Y24050000D01*
%TO.C,D1*%
X28450000Y12950000D02*
X28450000Y11550000D01*
X28750000Y12950000D02*
X28750000Y11550000D01*
X27750000Y12950000D02*
X27750000Y11550000D01*
X28750000Y12950000D02*
X27750000Y12950000D01*
X28750000Y11550000D02*
X27750000Y11550000D01*
%TO.C,C19*%
X83295000Y6300000D02*
X84250000Y6300000D01*
X86250000Y6300000D02*
X87205000Y6300000D01*
X86250000Y8700000D02*
X87205000Y8700000D01*
X83295000Y8700000D02*
X84250000Y8700000D01*
X87605000Y6700000D02*
X87605000Y8300000D01*
X82895000Y6700000D02*
X82895000Y8300000D01*
X87205000Y8700000D02*
G75*
G02*
X87605000Y8300000I0J-400000D01*
G01*
X87605000Y6700000D02*
G75*
G02*
X87205000Y6300000I-400000J0D01*
G01*
X83295000Y6300000D02*
G75*
G02*
X82895000Y6700000I0J400000D01*
G01*
X82895000Y8300000D02*
G75*
G02*
X83295000Y8700000I400000J0D01*
G01*
%TO.C,C18*%
X18135000Y57730000D02*
X16865000Y57730000D01*
X18535000Y58130000D02*
X18535000Y59050000D01*
X18135000Y61270000D02*
X16865000Y61270000D01*
X18535000Y59950000D02*
X18535000Y60870000D01*
X16465000Y59950000D02*
X16465000Y60870000D01*
X16465000Y58130000D02*
X16465000Y59050000D01*
X16864990Y57730000D02*
G75*
G02*
X16464990Y58130000I0J400000D01*
G01*
X18535000Y58130000D02*
G75*
G02*
X18135000Y57730000I-400000J0D01*
G01*
X18135000Y61270000D02*
G75*
G02*
X18535000Y60870000I0J-400000D01*
G01*
X16465000Y60870000D02*
G75*
G02*
X16865000Y61270000I400000J0D01*
G01*
%TO.C,C17*%
X12635000Y67230000D02*
X11365000Y67230000D01*
X13035000Y67630000D02*
X13035000Y68550000D01*
X12635000Y70770000D02*
X11365000Y70770000D01*
X13035000Y69450000D02*
X13035000Y70370000D01*
X10965000Y69450000D02*
X10965000Y70370000D01*
X10965000Y67630000D02*
X10965000Y68550000D01*
X11364990Y67230000D02*
G75*
G02*
X10964990Y67630000I0J400000D01*
G01*
X13035000Y67630000D02*
G75*
G02*
X12635000Y67230000I-400000J0D01*
G01*
X12635000Y70770000D02*
G75*
G02*
X13035000Y70370000I0J-400000D01*
G01*
X10965000Y70370000D02*
G75*
G02*
X11365000Y70770000I400000J0D01*
G01*
%TO.C,C16*%
X21635000Y34980000D02*
X20365000Y34980000D01*
X22035000Y35380000D02*
X22035000Y36300000D01*
X21635000Y38520000D02*
X20365000Y38520000D01*
X22035000Y37200000D02*
X22035000Y38120000D01*
X19965000Y37200000D02*
X19965000Y38120000D01*
X19965000Y35380000D02*
X19965000Y36300000D01*
X20364990Y34980000D02*
G75*
G02*
X19964990Y35380000I0J400000D01*
G01*
X22035000Y35380000D02*
G75*
G02*
X21635000Y34980000I-400000J0D01*
G01*
X21635000Y38520000D02*
G75*
G02*
X22035000Y38120000I0J-400000D01*
G01*
X19965000Y38120000D02*
G75*
G02*
X20365000Y38520000I400000J0D01*
G01*
%TO.C,C14*%
X41370000Y55135000D02*
X41370000Y53865000D01*
X40970000Y55535000D02*
X40050000Y55535000D01*
X37830000Y55135000D02*
X37830000Y53865000D01*
X39150000Y55535000D02*
X38230000Y55535000D01*
X39150000Y53465000D02*
X38230000Y53465000D01*
X40970000Y53465000D02*
X40050000Y53465000D01*
X41370000Y53864990D02*
G75*
G02*
X40970000Y53464990I-400000J0D01*
G01*
X40970000Y55535000D02*
G75*
G02*
X41370000Y55135000I0J-400000D01*
G01*
X37830000Y55135000D02*
G75*
G02*
X38230000Y55535000I400000J0D01*
G01*
X38230000Y53465000D02*
G75*
G02*
X37830000Y53865000I0J400000D01*
G01*
%TO.C,C12*%
X41270000Y61635000D02*
X41270000Y60365000D01*
X40870000Y62035000D02*
X39950000Y62035000D01*
X37730000Y61635000D02*
X37730000Y60365000D01*
X39050000Y62035000D02*
X38130000Y62035000D01*
X39050000Y59965000D02*
X38130000Y59965000D01*
X40870000Y59965000D02*
X39950000Y59965000D01*
X41270000Y60364990D02*
G75*
G02*
X40870000Y59964990I-400000J0D01*
G01*
X40870000Y62035000D02*
G75*
G02*
X41270000Y61635000I0J-400000D01*
G01*
X37730000Y61635000D02*
G75*
G02*
X38130000Y62035000I400000J0D01*
G01*
X38130000Y59965000D02*
G75*
G02*
X37730000Y60365000I0J400000D01*
G01*
%TO.C,C11*%
X51115000Y28170000D02*
X52385000Y28170000D01*
X50715000Y27770000D02*
X50715000Y26850000D01*
X51115000Y24630000D02*
X52385000Y24630000D01*
X50715000Y25950000D02*
X50715000Y25030000D01*
X52785000Y25950000D02*
X52785000Y25030000D01*
X52785000Y27770000D02*
X52785000Y26850000D01*
X52385010Y28170000D02*
G75*
G02*
X52785010Y27770000I0J-400000D01*
G01*
X50715000Y27770000D02*
G75*
G02*
X51115000Y28170000I400000J0D01*
G01*
X51115000Y24630000D02*
G75*
G02*
X50715000Y25030000I0J400000D01*
G01*
X52785000Y25030000D02*
G75*
G02*
X52385000Y24630000I-400000J0D01*
G01*
%TO.C,C10*%
X58885000Y24480000D02*
X57615000Y24480000D01*
X59285000Y24880000D02*
X59285000Y25800000D01*
X58885000Y28020000D02*
X57615000Y28020000D01*
X59285000Y26700000D02*
X59285000Y27620000D01*
X57215000Y26700000D02*
X57215000Y27620000D01*
X57215000Y24880000D02*
X57215000Y25800000D01*
X57614990Y24480000D02*
G75*
G02*
X57214990Y24880000I0J400000D01*
G01*
X59285000Y24880000D02*
G75*
G02*
X58885000Y24480000I-400000J0D01*
G01*
X58885000Y28020000D02*
G75*
G02*
X59285000Y27620000I0J-400000D01*
G01*
X57215000Y27620000D02*
G75*
G02*
X57615000Y28020000I400000J0D01*
G01*
%TO.C,C9*%
X31870000Y59635000D02*
X31870000Y58365000D01*
X31470000Y60035000D02*
X30550000Y60035000D01*
X28330000Y59635000D02*
X28330000Y58365000D01*
X29650000Y60035000D02*
X28730000Y60035000D01*
X29650000Y57965000D02*
X28730000Y57965000D01*
X31470000Y57965000D02*
X30550000Y57965000D01*
X31870000Y58364990D02*
G75*
G02*
X31470000Y57964990I-400000J0D01*
G01*
X31470000Y60035000D02*
G75*
G02*
X31870000Y59635000I0J-400000D01*
G01*
X28330000Y59635000D02*
G75*
G02*
X28730000Y60035000I400000J0D01*
G01*
X28730000Y57965000D02*
G75*
G02*
X28330000Y58365000I0J400000D01*
G01*
%TO.C,C8*%
X36705000Y60150000D02*
X35750000Y60150000D01*
X33750000Y60150000D02*
X32795000Y60150000D01*
X33750000Y57750000D02*
X32795000Y57750000D01*
X36705000Y57750000D02*
X35750000Y57750000D01*
X32395000Y59750000D02*
X32395000Y58150000D01*
X37105000Y59750000D02*
X37105000Y58150000D01*
X32795000Y57750000D02*
G75*
G02*
X32395000Y58150000I0J400000D01*
G01*
X32395000Y59750000D02*
G75*
G02*
X32795000Y60150000I400000J0D01*
G01*
X36705000Y60150000D02*
G75*
G02*
X37105000Y59750000I0J-400000D01*
G01*
X37105000Y58150000D02*
G75*
G02*
X36705000Y57750000I-400000J0D01*
G01*
%TO.C,C7*%
X29020000Y25385000D02*
X29020000Y24115000D01*
X28620000Y25785000D02*
X27700000Y25785000D01*
X25480000Y25385000D02*
X25480000Y24115000D01*
X26800000Y25785000D02*
X25880000Y25785000D01*
X26800000Y23715000D02*
X25880000Y23715000D01*
X28620000Y23715000D02*
X27700000Y23715000D01*
X29020000Y24114990D02*
G75*
G02*
X28620000Y23714990I-400000J0D01*
G01*
X28620000Y25785000D02*
G75*
G02*
X29020000Y25385000I0J-400000D01*
G01*
X25480000Y25385000D02*
G75*
G02*
X25880000Y25785000I400000J0D01*
G01*
X25880000Y23715000D02*
G75*
G02*
X25480000Y24115000I0J400000D01*
G01*
%TO.C,C6*%
X29355000Y23000000D02*
X28400000Y23000000D01*
X26400000Y23000000D02*
X25445000Y23000000D01*
X26400000Y20600000D02*
X25445000Y20600000D01*
X29355000Y20600000D02*
X28400000Y20600000D01*
X25045000Y22600000D02*
X25045000Y21000000D01*
X29755000Y22600000D02*
X29755000Y21000000D01*
X25445000Y20600000D02*
G75*
G02*
X25045000Y21000000I0J400000D01*
G01*
X25045000Y22600000D02*
G75*
G02*
X25445000Y23000000I400000J0D01*
G01*
X29355000Y23000000D02*
G75*
G02*
X29755000Y22600000I0J-400000D01*
G01*
X29755000Y21000000D02*
G75*
G02*
X29355000Y20600000I-400000J0D01*
G01*
%TO.C,C5*%
X36245000Y23750000D02*
X37200000Y23750000D01*
X39200000Y23750000D02*
X40155000Y23750000D01*
X39200000Y26150000D02*
X40155000Y26150000D01*
X36245000Y26150000D02*
X37200000Y26150000D01*
X40555000Y24150000D02*
X40555000Y25750000D01*
X35845000Y24150000D02*
X35845000Y25750000D01*
X40155000Y26150000D02*
G75*
G02*
X40555000Y25750000I0J-400000D01*
G01*
X40555000Y24150000D02*
G75*
G02*
X40155000Y23750000I-400000J0D01*
G01*
X36245000Y23750000D02*
G75*
G02*
X35845000Y24150000I0J400000D01*
G01*
X35845000Y25750000D02*
G75*
G02*
X36245000Y26150000I400000J0D01*
G01*
%TO.C,C4*%
X30455000Y10450000D02*
X29500000Y10450000D01*
X27500000Y10450000D02*
X26545000Y10450000D01*
X27500000Y8050000D02*
X26545000Y8050000D01*
X30455000Y8050000D02*
X29500000Y8050000D01*
X26145000Y10050000D02*
X26145000Y8450000D01*
X30855000Y10050000D02*
X30855000Y8450000D01*
X26545000Y8050000D02*
G75*
G02*
X26145000Y8450000I0J400000D01*
G01*
X26145000Y10050000D02*
G75*
G02*
X26545000Y10450000I400000J0D01*
G01*
X30455000Y10450000D02*
G75*
G02*
X30855000Y10050000I0J-400000D01*
G01*
X30855000Y8450000D02*
G75*
G02*
X30455000Y8050000I-400000J0D01*
G01*
%TO.C,C3*%
X30615000Y36130000D02*
X31885000Y36130000D01*
X30215000Y35730000D02*
X30215000Y34810000D01*
X30615000Y32590000D02*
X31885000Y32590000D01*
X30215000Y33910000D02*
X30215000Y32990000D01*
X32285000Y33910000D02*
X32285000Y32990000D01*
X32285000Y35730000D02*
X32285000Y34810000D01*
X31885010Y36130000D02*
G75*
G02*
X32285010Y35730000I0J-400000D01*
G01*
X30215000Y35730000D02*
G75*
G02*
X30615000Y36130000I400000J0D01*
G01*
X30615000Y32590000D02*
G75*
G02*
X30215000Y32990000I0J400000D01*
G01*
X32285000Y32990000D02*
G75*
G02*
X31885000Y32590000I-400000J0D01*
G01*
%TO.C,C2*%
X24885000Y7980000D02*
X23615000Y7980000D01*
X25285000Y8380000D02*
X25285000Y9300000D01*
X24885000Y11520000D02*
X23615000Y11520000D01*
X25285000Y10200000D02*
X25285000Y11120000D01*
X23215000Y10200000D02*
X23215000Y11120000D01*
X23215000Y8380000D02*
X23215000Y9300000D01*
X23614990Y7980000D02*
G75*
G02*
X23214990Y8380000I0J400000D01*
G01*
X25285000Y8380000D02*
G75*
G02*
X24885000Y7980000I-400000J0D01*
G01*
X24885000Y11520000D02*
G75*
G02*
X25285000Y11120000I0J-400000D01*
G01*
X23215000Y11120000D02*
G75*
G02*
X23615000Y11520000I400000J0D01*
G01*
%TO.C,R29*%
D10*
X78963523Y8731896D02*
X78630190Y9208086D01*
X78392095Y8731896D02*
X78392095Y9731896D01*
X78773047Y9731896D01*
X78868285Y9684276D01*
X78915904Y9636657D01*
X78963523Y9541419D01*
X78963523Y9398562D01*
X78915904Y9303324D01*
X78868285Y9255705D01*
X78773047Y9208086D01*
X78392095Y9208086D01*
X79344476Y9636657D02*
X79392095Y9684276D01*
X79487333Y9731896D01*
X79725428Y9731896D01*
X79820666Y9684276D01*
X79868285Y9636657D01*
X79915904Y9541419D01*
X79915904Y9446181D01*
X79868285Y9303324D01*
X79296857Y8731896D01*
X79915904Y8731896D01*
X80392095Y8731896D02*
X80582571Y8731896D01*
X80677809Y8779515D01*
X80725428Y8827134D01*
X80820666Y8969991D01*
X80868285Y9160467D01*
X80868285Y9541419D01*
X80820666Y9636657D01*
X80773047Y9684276D01*
X80677809Y9731896D01*
X80487333Y9731896D01*
X80392095Y9684276D01*
X80344476Y9636657D01*
X80296857Y9541419D01*
X80296857Y9303324D01*
X80344476Y9208086D01*
X80392095Y9160467D01*
X80487333Y9112848D01*
X80677809Y9112848D01*
X80773047Y9160467D01*
X80820666Y9208086D01*
X80868285Y9303324D01*
%TO.C,R28*%
X64607142Y66297620D02*
X64273809Y66773810D01*
X64035714Y66297620D02*
X64035714Y67297620D01*
X64416666Y67297620D01*
X64511904Y67250000D01*
X64559523Y67202381D01*
X64607142Y67107143D01*
X64607142Y66964286D01*
X64559523Y66869048D01*
X64511904Y66821429D01*
X64416666Y66773810D01*
X64035714Y66773810D01*
X64988095Y67202381D02*
X65035714Y67250000D01*
X65130952Y67297620D01*
X65369047Y67297620D01*
X65464285Y67250000D01*
X65511904Y67202381D01*
X65559523Y67107143D01*
X65559523Y67011905D01*
X65511904Y66869048D01*
X64940476Y66297620D01*
X65559523Y66297620D01*
X66130952Y66869048D02*
X66035714Y66916667D01*
X65988095Y66964286D01*
X65940476Y67059524D01*
X65940476Y67107143D01*
X65988095Y67202381D01*
X66035714Y67250000D01*
X66130952Y67297620D01*
X66321428Y67297620D01*
X66416666Y67250000D01*
X66464285Y67202381D01*
X66511904Y67107143D01*
X66511904Y67059524D01*
X66464285Y66964286D01*
X66416666Y66916667D01*
X66321428Y66869048D01*
X66130952Y66869048D01*
X66035714Y66821429D01*
X65988095Y66773810D01*
X65940476Y66678572D01*
X65940476Y66488096D01*
X65988095Y66392858D01*
X66035714Y66345239D01*
X66130952Y66297620D01*
X66321428Y66297620D01*
X66416666Y66345239D01*
X66464285Y66392858D01*
X66511904Y66488096D01*
X66511904Y66678572D01*
X66464285Y66773810D01*
X66416666Y66821429D01*
X66321428Y66869048D01*
%TO.C,R25*%
X18861904Y71985715D02*
X18480952Y71719048D01*
X18861904Y71528572D02*
X18061904Y71528572D01*
X18061904Y71833334D01*
X18100000Y71909524D01*
X18138095Y71947620D01*
X18214285Y71985715D01*
X18328571Y71985715D01*
X18404761Y71947620D01*
X18442857Y71909524D01*
X18480952Y71833334D01*
X18480952Y71528572D01*
X18138095Y72290477D02*
X18100000Y72328572D01*
X18061904Y72404762D01*
X18061904Y72595239D01*
X18100000Y72671429D01*
X18138095Y72709524D01*
X18214285Y72747620D01*
X18290476Y72747620D01*
X18404761Y72709524D01*
X18861904Y72252381D01*
X18861904Y72747620D01*
X18061904Y73471429D02*
X18061904Y73090477D01*
X18442857Y73052381D01*
X18404761Y73090477D01*
X18366666Y73166667D01*
X18366666Y73357143D01*
X18404761Y73433334D01*
X18442857Y73471429D01*
X18519047Y73509524D01*
X18709523Y73509524D01*
X18785714Y73471429D01*
X18823809Y73433334D01*
X18861904Y73357143D01*
X18861904Y73166667D01*
X18823809Y73090477D01*
X18785714Y73052381D01*
%TO.C,R24*%
X19735714Y56638096D02*
X19469047Y57019048D01*
X19278571Y56638096D02*
X19278571Y57438096D01*
X19583333Y57438096D01*
X19659523Y57400000D01*
X19697619Y57361905D01*
X19735714Y57285715D01*
X19735714Y57171429D01*
X19697619Y57095239D01*
X19659523Y57057143D01*
X19583333Y57019048D01*
X19278571Y57019048D01*
X20040476Y57361905D02*
X20078571Y57400000D01*
X20154761Y57438096D01*
X20345238Y57438096D01*
X20421428Y57400000D01*
X20459523Y57361905D01*
X20497619Y57285715D01*
X20497619Y57209524D01*
X20459523Y57095239D01*
X20002380Y56638096D01*
X20497619Y56638096D01*
X21183333Y57171429D02*
X21183333Y56638096D01*
X20992857Y57476191D02*
X20802380Y56904762D01*
X21297619Y56904762D01*
%TO.C,R23*%
X38732095Y64822372D02*
X38465428Y65203324D01*
X38274952Y64822372D02*
X38274952Y65622372D01*
X38579714Y65622372D01*
X38655904Y65584276D01*
X38694000Y65546181D01*
X38732095Y65469991D01*
X38732095Y65355705D01*
X38694000Y65279515D01*
X38655904Y65241419D01*
X38579714Y65203324D01*
X38274952Y65203324D01*
X39036857Y65546181D02*
X39074952Y65584276D01*
X39151142Y65622372D01*
X39341619Y65622372D01*
X39417809Y65584276D01*
X39455904Y65546181D01*
X39494000Y65469991D01*
X39494000Y65393800D01*
X39455904Y65279515D01*
X38998761Y64822372D01*
X39494000Y64822372D01*
X39760666Y65622372D02*
X40255904Y65622372D01*
X39989238Y65317610D01*
X40103523Y65317610D01*
X40179714Y65279515D01*
X40217809Y65241419D01*
X40255904Y65165229D01*
X40255904Y64974753D01*
X40217809Y64898562D01*
X40179714Y64860467D01*
X40103523Y64822372D01*
X39874952Y64822372D01*
X39798761Y64860467D01*
X39760666Y64898562D01*
%TO.C,R22*%
X22485714Y56638096D02*
X22219047Y57019048D01*
X22028571Y56638096D02*
X22028571Y57438096D01*
X22333333Y57438096D01*
X22409523Y57400000D01*
X22447619Y57361905D01*
X22485714Y57285715D01*
X22485714Y57171429D01*
X22447619Y57095239D01*
X22409523Y57057143D01*
X22333333Y57019048D01*
X22028571Y57019048D01*
X22790476Y57361905D02*
X22828571Y57400000D01*
X22904761Y57438096D01*
X23095238Y57438096D01*
X23171428Y57400000D01*
X23209523Y57361905D01*
X23247619Y57285715D01*
X23247619Y57209524D01*
X23209523Y57095239D01*
X22752380Y56638096D01*
X23247619Y56638096D01*
X23552380Y57361905D02*
X23590476Y57400000D01*
X23666666Y57438096D01*
X23857142Y57438096D01*
X23933333Y57400000D01*
X23971428Y57361905D01*
X24009523Y57285715D01*
X24009523Y57209524D01*
X23971428Y57095239D01*
X23514285Y56638096D01*
X24009523Y56638096D01*
%TO.C,Q1*%
X76174028Y1425629D02*
X76097838Y1463724D01*
X76021647Y1539915D01*
X75907361Y1654201D01*
X75831171Y1692296D01*
X75754980Y1692296D01*
X75793076Y1501820D02*
X75716885Y1539915D01*
X75640695Y1616105D01*
X75602599Y1768486D01*
X75602599Y2035153D01*
X75640695Y2187534D01*
X75716885Y2263724D01*
X75793076Y2301820D01*
X75945457Y2301820D01*
X76021647Y2263724D01*
X76097838Y2187534D01*
X76135933Y2035153D01*
X76135933Y1768486D01*
X76097838Y1616105D01*
X76021647Y1539915D01*
X75945457Y1501820D01*
X75793076Y1501820D01*
X76897838Y1501820D02*
X76440695Y1501820D01*
X76669266Y1501820D02*
X76669266Y2301820D01*
X76593076Y2187534D01*
X76516885Y2111344D01*
X76440695Y2073248D01*
%TO.C,U18*%
X28259523Y74188096D02*
X28259523Y73540477D01*
X28297619Y73464286D01*
X28335714Y73426191D01*
X28411904Y73388096D01*
X28564285Y73388096D01*
X28640476Y73426191D01*
X28678571Y73464286D01*
X28716666Y73540477D01*
X28716666Y74188096D01*
X29516666Y73388096D02*
X29059523Y73388096D01*
X29288095Y73388096D02*
X29288095Y74188096D01*
X29211904Y74073810D01*
X29135714Y73997620D01*
X29059523Y73959524D01*
X29973809Y73845239D02*
X29897619Y73883334D01*
X29859523Y73921429D01*
X29821428Y73997620D01*
X29821428Y74035715D01*
X29859523Y74111905D01*
X29897619Y74150000D01*
X29973809Y74188096D01*
X30126190Y74188096D01*
X30202380Y74150000D01*
X30240476Y74111905D01*
X30278571Y74035715D01*
X30278571Y73997620D01*
X30240476Y73921429D01*
X30202380Y73883334D01*
X30126190Y73845239D01*
X29973809Y73845239D01*
X29897619Y73807143D01*
X29859523Y73769048D01*
X29821428Y73692858D01*
X29821428Y73540477D01*
X29859523Y73464286D01*
X29897619Y73426191D01*
X29973809Y73388096D01*
X30126190Y73388096D01*
X30202380Y73426191D01*
X30240476Y73464286D01*
X30278571Y73540477D01*
X30278571Y73692858D01*
X30240476Y73769048D01*
X30202380Y73807143D01*
X30126190Y73845239D01*
%TO.C,C22*%
X27485714Y61714286D02*
X27447619Y61676191D01*
X27333333Y61638096D01*
X27257142Y61638096D01*
X27142857Y61676191D01*
X27066666Y61752381D01*
X27028571Y61828572D01*
X26990476Y61980953D01*
X26990476Y62095239D01*
X27028571Y62247620D01*
X27066666Y62323810D01*
X27142857Y62400000D01*
X27257142Y62438096D01*
X27333333Y62438096D01*
X27447619Y62400000D01*
X27485714Y62361905D01*
X27790476Y62361905D02*
X27828571Y62400000D01*
X27904761Y62438096D01*
X28095238Y62438096D01*
X28171428Y62400000D01*
X28209523Y62361905D01*
X28247619Y62285715D01*
X28247619Y62209524D01*
X28209523Y62095239D01*
X27752380Y61638096D01*
X28247619Y61638096D01*
X28552380Y62361905D02*
X28590476Y62400000D01*
X28666666Y62438096D01*
X28857142Y62438096D01*
X28933333Y62400000D01*
X28971428Y62361905D01*
X29009523Y62285715D01*
X29009523Y62209524D01*
X28971428Y62095239D01*
X28514285Y61638096D01*
X29009523Y61638096D01*
%TO.C,C21*%
X30985714Y61714286D02*
X30947619Y61676191D01*
X30833333Y61638096D01*
X30757142Y61638096D01*
X30642857Y61676191D01*
X30566666Y61752381D01*
X30528571Y61828572D01*
X30490476Y61980953D01*
X30490476Y62095239D01*
X30528571Y62247620D01*
X30566666Y62323810D01*
X30642857Y62400000D01*
X30757142Y62438096D01*
X30833333Y62438096D01*
X30947619Y62400000D01*
X30985714Y62361905D01*
X31290476Y62361905D02*
X31328571Y62400000D01*
X31404761Y62438096D01*
X31595238Y62438096D01*
X31671428Y62400000D01*
X31709523Y62361905D01*
X31747619Y62285715D01*
X31747619Y62209524D01*
X31709523Y62095239D01*
X31252380Y61638096D01*
X31747619Y61638096D01*
X32509523Y61638096D02*
X32052380Y61638096D01*
X32280952Y61638096D02*
X32280952Y62438096D01*
X32204761Y62323810D01*
X32128571Y62247620D01*
X32052380Y62209524D01*
%TO.C,U17*%
X19311904Y42259524D02*
X19959523Y42259524D01*
X20035714Y42297620D01*
X20073809Y42335715D01*
X20111904Y42411905D01*
X20111904Y42564286D01*
X20073809Y42640477D01*
X20035714Y42678572D01*
X19959523Y42716667D01*
X19311904Y42716667D01*
X20111904Y43516667D02*
X20111904Y43059524D01*
X20111904Y43288096D02*
X19311904Y43288096D01*
X19426190Y43211905D01*
X19502380Y43135715D01*
X19540476Y43059524D01*
X19311904Y43783334D02*
X19311904Y44316667D01*
X20111904Y43973810D01*
%TO.C,R27*%
X25092095Y49922372D02*
X24825428Y50303324D01*
X24634952Y49922372D02*
X24634952Y50722372D01*
X24939714Y50722372D01*
X25015904Y50684276D01*
X25054000Y50646181D01*
X25092095Y50569991D01*
X25092095Y50455705D01*
X25054000Y50379515D01*
X25015904Y50341419D01*
X24939714Y50303324D01*
X24634952Y50303324D01*
X25396857Y50646181D02*
X25434952Y50684276D01*
X25511142Y50722372D01*
X25701619Y50722372D01*
X25777809Y50684276D01*
X25815904Y50646181D01*
X25854000Y50569991D01*
X25854000Y50493800D01*
X25815904Y50379515D01*
X25358761Y49922372D01*
X25854000Y49922372D01*
X26120666Y50722372D02*
X26654000Y50722372D01*
X26311142Y49922372D01*
%TO.C,R26*%
X19361904Y33235715D02*
X18980952Y32969048D01*
X19361904Y32778572D02*
X18561904Y32778572D01*
X18561904Y33083334D01*
X18600000Y33159524D01*
X18638095Y33197620D01*
X18714285Y33235715D01*
X18828571Y33235715D01*
X18904761Y33197620D01*
X18942857Y33159524D01*
X18980952Y33083334D01*
X18980952Y32778572D01*
X18638095Y33540477D02*
X18600000Y33578572D01*
X18561904Y33654762D01*
X18561904Y33845239D01*
X18600000Y33921429D01*
X18638095Y33959524D01*
X18714285Y33997620D01*
X18790476Y33997620D01*
X18904761Y33959524D01*
X19361904Y33502381D01*
X19361904Y33997620D01*
X18561904Y34683334D02*
X18561904Y34530953D01*
X18600000Y34454762D01*
X18638095Y34416667D01*
X18752380Y34340477D01*
X18904761Y34302381D01*
X19209523Y34302381D01*
X19285714Y34340477D01*
X19323809Y34378572D01*
X19361904Y34454762D01*
X19361904Y34607143D01*
X19323809Y34683334D01*
X19285714Y34721429D01*
X19209523Y34759524D01*
X19019047Y34759524D01*
X18942857Y34721429D01*
X18904761Y34683334D01*
X18866666Y34607143D01*
X18866666Y34454762D01*
X18904761Y34378572D01*
X18942857Y34340477D01*
X19019047Y34302381D01*
%TO.C,C20*%
X20592095Y49998562D02*
X20554000Y49960467D01*
X20439714Y49922372D01*
X20363523Y49922372D01*
X20249238Y49960467D01*
X20173047Y50036657D01*
X20134952Y50112848D01*
X20096857Y50265229D01*
X20096857Y50379515D01*
X20134952Y50531896D01*
X20173047Y50608086D01*
X20249238Y50684276D01*
X20363523Y50722372D01*
X20439714Y50722372D01*
X20554000Y50684276D01*
X20592095Y50646181D01*
X20896857Y50646181D02*
X20934952Y50684276D01*
X21011142Y50722372D01*
X21201619Y50722372D01*
X21277809Y50684276D01*
X21315904Y50646181D01*
X21354000Y50569991D01*
X21354000Y50493800D01*
X21315904Y50379515D01*
X20858761Y49922372D01*
X21354000Y49922372D01*
X21849238Y50722372D02*
X21925428Y50722372D01*
X22001619Y50684276D01*
X22039714Y50646181D01*
X22077809Y50569991D01*
X22115904Y50417610D01*
X22115904Y50227134D01*
X22077809Y50074753D01*
X22039714Y49998562D01*
X22001619Y49960467D01*
X21925428Y49922372D01*
X21849238Y49922372D01*
X21773047Y49960467D01*
X21734952Y49998562D01*
X21696857Y50074753D01*
X21658761Y50227134D01*
X21658761Y50417610D01*
X21696857Y50569991D01*
X21734952Y50646181D01*
X21773047Y50684276D01*
X21849238Y50722372D01*
%TO.C,Q13*%
X54392238Y51121200D02*
X54316047Y51159295D01*
X54239857Y51235486D01*
X54125571Y51349772D01*
X54049381Y51387867D01*
X53973190Y51387867D01*
X54011285Y51197391D02*
X53935095Y51235486D01*
X53858904Y51311676D01*
X53820809Y51464057D01*
X53820809Y51730724D01*
X53858904Y51883105D01*
X53935095Y51959295D01*
X54011285Y51997391D01*
X54163666Y51997391D01*
X54239857Y51959295D01*
X54316047Y51883105D01*
X54354142Y51730724D01*
X54354142Y51464057D01*
X54316047Y51311676D01*
X54239857Y51235486D01*
X54163666Y51197391D01*
X54011285Y51197391D01*
X55116047Y51197391D02*
X54658904Y51197391D01*
X54887476Y51197391D02*
X54887476Y51997391D01*
X54811285Y51883105D01*
X54735095Y51806915D01*
X54658904Y51768819D01*
X55382714Y51997391D02*
X55877952Y51997391D01*
X55611285Y51692629D01*
X55725571Y51692629D01*
X55801761Y51654534D01*
X55839857Y51616438D01*
X55877952Y51540248D01*
X55877952Y51349772D01*
X55839857Y51273581D01*
X55801761Y51235486D01*
X55725571Y51197391D01*
X55497000Y51197391D01*
X55420809Y51235486D01*
X55382714Y51273581D01*
%TO.C,Q12*%
X47943476Y42622648D02*
X47867285Y42660743D01*
X47791095Y42736934D01*
X47676809Y42851220D01*
X47600619Y42889315D01*
X47524428Y42889315D01*
X47562523Y42698839D02*
X47486333Y42736934D01*
X47410142Y42813124D01*
X47372047Y42965505D01*
X47372047Y43232172D01*
X47410142Y43384553D01*
X47486333Y43460743D01*
X47562523Y43498839D01*
X47714904Y43498839D01*
X47791095Y43460743D01*
X47867285Y43384553D01*
X47905380Y43232172D01*
X47905380Y42965505D01*
X47867285Y42813124D01*
X47791095Y42736934D01*
X47714904Y42698839D01*
X47562523Y42698839D01*
X48667285Y42698839D02*
X48210142Y42698839D01*
X48438714Y42698839D02*
X48438714Y43498839D01*
X48362523Y43384553D01*
X48286333Y43308363D01*
X48210142Y43270267D01*
X48972047Y43422648D02*
X49010142Y43460743D01*
X49086333Y43498839D01*
X49276809Y43498839D01*
X49352999Y43460743D01*
X49391095Y43422648D01*
X49429190Y43346458D01*
X49429190Y43270267D01*
X49391095Y43155982D01*
X48933952Y42698839D01*
X49429190Y42698839D01*
%TO.C,Q11*%
X54442238Y41292861D02*
X54366047Y41330956D01*
X54289857Y41407147D01*
X54175571Y41521433D01*
X54099381Y41559528D01*
X54023190Y41559528D01*
X54061285Y41369052D02*
X53985095Y41407147D01*
X53908904Y41483337D01*
X53870809Y41635718D01*
X53870809Y41902385D01*
X53908904Y42054766D01*
X53985095Y42130956D01*
X54061285Y42169052D01*
X54213666Y42169052D01*
X54289857Y42130956D01*
X54366047Y42054766D01*
X54404142Y41902385D01*
X54404142Y41635718D01*
X54366047Y41483337D01*
X54289857Y41407147D01*
X54213666Y41369052D01*
X54061285Y41369052D01*
X55166047Y41369052D02*
X54708904Y41369052D01*
X54937476Y41369052D02*
X54937476Y42169052D01*
X54861285Y42054766D01*
X54785095Y41978576D01*
X54708904Y41940480D01*
X55927952Y41369052D02*
X55470809Y41369052D01*
X55699381Y41369052D02*
X55699381Y42169052D01*
X55623190Y42054766D01*
X55547000Y41978576D01*
X55470809Y41940480D01*
%TO.C,Q10*%
X47943476Y32794309D02*
X47867285Y32832404D01*
X47791095Y32908595D01*
X47676809Y33022881D01*
X47600619Y33060976D01*
X47524428Y33060976D01*
X47562523Y32870500D02*
X47486333Y32908595D01*
X47410142Y32984785D01*
X47372047Y33137166D01*
X47372047Y33403833D01*
X47410142Y33556214D01*
X47486333Y33632404D01*
X47562523Y33670500D01*
X47714904Y33670500D01*
X47791095Y33632404D01*
X47867285Y33556214D01*
X47905380Y33403833D01*
X47905380Y33137166D01*
X47867285Y32984785D01*
X47791095Y32908595D01*
X47714904Y32870500D01*
X47562523Y32870500D01*
X48667285Y32870500D02*
X48210142Y32870500D01*
X48438714Y32870500D02*
X48438714Y33670500D01*
X48362523Y33556214D01*
X48286333Y33480024D01*
X48210142Y33441928D01*
X49162523Y33670500D02*
X49238714Y33670500D01*
X49314904Y33632404D01*
X49352999Y33594309D01*
X49391095Y33518119D01*
X49429190Y33365738D01*
X49429190Y33175262D01*
X49391095Y33022881D01*
X49352999Y32946690D01*
X49314904Y32908595D01*
X49238714Y32870500D01*
X49162523Y32870500D01*
X49086333Y32908595D01*
X49048238Y32946690D01*
X49010142Y33022881D01*
X48972047Y33175262D01*
X48972047Y33365738D01*
X49010142Y33518119D01*
X49048238Y33594309D01*
X49086333Y33632404D01*
X49162523Y33670500D01*
%TO.C,Q9*%
X54823190Y22664522D02*
X54747000Y22702617D01*
X54670809Y22778808D01*
X54556523Y22893094D01*
X54480333Y22931189D01*
X54404142Y22931189D01*
X54442238Y22740713D02*
X54366047Y22778808D01*
X54289857Y22854998D01*
X54251761Y23007379D01*
X54251761Y23274046D01*
X54289857Y23426427D01*
X54366047Y23502617D01*
X54442238Y23540713D01*
X54594619Y23540713D01*
X54670809Y23502617D01*
X54747000Y23426427D01*
X54785095Y23274046D01*
X54785095Y23007379D01*
X54747000Y22854998D01*
X54670809Y22778808D01*
X54594619Y22740713D01*
X54442238Y22740713D01*
X55166047Y22740713D02*
X55318428Y22740713D01*
X55394619Y22778808D01*
X55432714Y22816903D01*
X55508904Y22931189D01*
X55547000Y23083570D01*
X55547000Y23388332D01*
X55508904Y23464522D01*
X55470809Y23502617D01*
X55394619Y23540713D01*
X55242238Y23540713D01*
X55166047Y23502617D01*
X55127952Y23464522D01*
X55089857Y23388332D01*
X55089857Y23197856D01*
X55127952Y23121665D01*
X55166047Y23083570D01*
X55242238Y23045475D01*
X55394619Y23045475D01*
X55470809Y23083570D01*
X55508904Y23121665D01*
X55547000Y23197856D01*
%TO.C,Q8*%
X48324428Y14165970D02*
X48248238Y14204065D01*
X48172047Y14280256D01*
X48057761Y14394542D01*
X47981571Y14432637D01*
X47905380Y14432637D01*
X47943476Y14242161D02*
X47867285Y14280256D01*
X47791095Y14356446D01*
X47752999Y14508827D01*
X47752999Y14775494D01*
X47791095Y14927875D01*
X47867285Y15004065D01*
X47943476Y15042161D01*
X48095857Y15042161D01*
X48172047Y15004065D01*
X48248238Y14927875D01*
X48286333Y14775494D01*
X48286333Y14508827D01*
X48248238Y14356446D01*
X48172047Y14280256D01*
X48095857Y14242161D01*
X47943476Y14242161D01*
X48743476Y14699304D02*
X48667285Y14737399D01*
X48629190Y14775494D01*
X48591095Y14851685D01*
X48591095Y14889780D01*
X48629190Y14965970D01*
X48667285Y15004065D01*
X48743476Y15042161D01*
X48895857Y15042161D01*
X48972047Y15004065D01*
X49010142Y14965970D01*
X49048238Y14889780D01*
X49048238Y14851685D01*
X49010142Y14775494D01*
X48972047Y14737399D01*
X48895857Y14699304D01*
X48743476Y14699304D01*
X48667285Y14661208D01*
X48629190Y14623113D01*
X48591095Y14546923D01*
X48591095Y14394542D01*
X48629190Y14318351D01*
X48667285Y14280256D01*
X48743476Y14242161D01*
X48895857Y14242161D01*
X48972047Y14280256D01*
X49010142Y14318351D01*
X49048238Y14394542D01*
X49048238Y14546923D01*
X49010142Y14623113D01*
X48972047Y14661208D01*
X48895857Y14699304D01*
%TO.C,Q7*%
X54823190Y12086181D02*
X54747000Y12124276D01*
X54670809Y12200467D01*
X54556523Y12314753D01*
X54480333Y12352848D01*
X54404142Y12352848D01*
X54442238Y12162372D02*
X54366047Y12200467D01*
X54289857Y12276657D01*
X54251761Y12429038D01*
X54251761Y12695705D01*
X54289857Y12848086D01*
X54366047Y12924276D01*
X54442238Y12962372D01*
X54594619Y12962372D01*
X54670809Y12924276D01*
X54747000Y12848086D01*
X54785095Y12695705D01*
X54785095Y12429038D01*
X54747000Y12276657D01*
X54670809Y12200467D01*
X54594619Y12162372D01*
X54442238Y12162372D01*
X55051761Y12962372D02*
X55585095Y12962372D01*
X55242238Y12162372D01*
%TO.C,Q6*%
X48324428Y3587629D02*
X48248238Y3625724D01*
X48172047Y3701915D01*
X48057761Y3816201D01*
X47981571Y3854296D01*
X47905380Y3854296D01*
X47943476Y3663820D02*
X47867285Y3701915D01*
X47791095Y3778105D01*
X47752999Y3930486D01*
X47752999Y4197153D01*
X47791095Y4349534D01*
X47867285Y4425724D01*
X47943476Y4463820D01*
X48095857Y4463820D01*
X48172047Y4425724D01*
X48248238Y4349534D01*
X48286333Y4197153D01*
X48286333Y3930486D01*
X48248238Y3778105D01*
X48172047Y3701915D01*
X48095857Y3663820D01*
X47943476Y3663820D01*
X48972047Y4463820D02*
X48819666Y4463820D01*
X48743476Y4425724D01*
X48705380Y4387629D01*
X48629190Y4273344D01*
X48591095Y4120963D01*
X48591095Y3816201D01*
X48629190Y3740010D01*
X48667285Y3701915D01*
X48743476Y3663820D01*
X48895857Y3663820D01*
X48972047Y3701915D01*
X49010142Y3740010D01*
X49048238Y3816201D01*
X49048238Y4006677D01*
X49010142Y4082867D01*
X48972047Y4120963D01*
X48895857Y4159058D01*
X48743476Y4159058D01*
X48667285Y4120963D01*
X48629190Y4082867D01*
X48591095Y4006677D01*
%TO.C,C1*%
X9366666Y71214286D02*
X9328571Y71176191D01*
X9214285Y71138096D01*
X9138095Y71138096D01*
X9023809Y71176191D01*
X8947619Y71252381D01*
X8909523Y71328572D01*
X8871428Y71480953D01*
X8871428Y71595239D01*
X8909523Y71747620D01*
X8947619Y71823810D01*
X9023809Y71900000D01*
X9138095Y71938096D01*
X9214285Y71938096D01*
X9328571Y71900000D01*
X9366666Y71861905D01*
X10128571Y71138096D02*
X9671428Y71138096D01*
X9900000Y71138096D02*
X9900000Y71938096D01*
X9823809Y71823810D01*
X9747619Y71747620D01*
X9671428Y71709524D01*
%TO.C,J3*%
X56233333Y67848096D02*
X56233333Y67276667D01*
X56195238Y67162381D01*
X56119047Y67086191D01*
X56004761Y67048096D01*
X55928571Y67048096D01*
X56538095Y67848096D02*
X57033333Y67848096D01*
X56766666Y67543334D01*
X56880952Y67543334D01*
X56957142Y67505239D01*
X56995238Y67467143D01*
X57033333Y67390953D01*
X57033333Y67200477D01*
X56995238Y67124286D01*
X56957142Y67086191D01*
X56880952Y67048096D01*
X56652380Y67048096D01*
X56576190Y67086191D01*
X56538095Y67124286D01*
%TO.C,J2*%
X6233333Y22848096D02*
X6233333Y22276667D01*
X6195238Y22162381D01*
X6119047Y22086191D01*
X6004761Y22048096D01*
X5928571Y22048096D01*
X6576190Y22771905D02*
X6614285Y22810000D01*
X6690476Y22848096D01*
X6880952Y22848096D01*
X6957142Y22810000D01*
X6995238Y22771905D01*
X7033333Y22695715D01*
X7033333Y22619524D01*
X6995238Y22505239D01*
X6538095Y22048096D01*
X7033333Y22048096D01*
%TO.C,J1*%
X6233333Y67848096D02*
X6233333Y67276667D01*
X6195238Y67162381D01*
X6119047Y67086191D01*
X6004761Y67048096D01*
X5928571Y67048096D01*
X7033333Y67048096D02*
X6576190Y67048096D01*
X6804761Y67048096D02*
X6804761Y67848096D01*
X6728571Y67733810D01*
X6652380Y67657620D01*
X6576190Y67619524D01*
%TO.C,U16*%
X16061904Y64759524D02*
X16709523Y64759524D01*
X16785714Y64797620D01*
X16823809Y64835715D01*
X16861904Y64911905D01*
X16861904Y65064286D01*
X16823809Y65140477D01*
X16785714Y65178572D01*
X16709523Y65216667D01*
X16061904Y65216667D01*
X16861904Y66016667D02*
X16861904Y65559524D01*
X16861904Y65788096D02*
X16061904Y65788096D01*
X16176190Y65711905D01*
X16252380Y65635715D01*
X16290476Y65559524D01*
X16061904Y66702381D02*
X16061904Y66550000D01*
X16100000Y66473810D01*
X16138095Y66435715D01*
X16252380Y66359524D01*
X16404761Y66321429D01*
X16709523Y66321429D01*
X16785714Y66359524D01*
X16823809Y66397620D01*
X16861904Y66473810D01*
X16861904Y66626191D01*
X16823809Y66702381D01*
X16785714Y66740477D01*
X16709523Y66778572D01*
X16519047Y66778572D01*
X16442857Y66740477D01*
X16404761Y66702381D01*
X16366666Y66626191D01*
X16366666Y66473810D01*
X16404761Y66397620D01*
X16442857Y66359524D01*
X16519047Y66321429D01*
%TO.C,U15*%
X19311904Y29259524D02*
X19959523Y29259524D01*
X20035714Y29297620D01*
X20073809Y29335715D01*
X20111904Y29411905D01*
X20111904Y29564286D01*
X20073809Y29640477D01*
X20035714Y29678572D01*
X19959523Y29716667D01*
X19311904Y29716667D01*
X20111904Y30516667D02*
X20111904Y30059524D01*
X20111904Y30288096D02*
X19311904Y30288096D01*
X19426190Y30211905D01*
X19502380Y30135715D01*
X19540476Y30059524D01*
X19311904Y31240477D02*
X19311904Y30859524D01*
X19692857Y30821429D01*
X19654761Y30859524D01*
X19616666Y30935715D01*
X19616666Y31126191D01*
X19654761Y31202381D01*
X19692857Y31240477D01*
X19769047Y31278572D01*
X19959523Y31278572D01*
X20035714Y31240477D01*
X20073809Y31202381D01*
X20111904Y31126191D01*
X20111904Y30935715D01*
X20073809Y30859524D01*
X20035714Y30821429D01*
%TO.C,U14*%
X45009523Y53188096D02*
X45009523Y52540477D01*
X45047619Y52464286D01*
X45085714Y52426191D01*
X45161904Y52388096D01*
X45314285Y52388096D01*
X45390476Y52426191D01*
X45428571Y52464286D01*
X45466666Y52540477D01*
X45466666Y53188096D01*
X46266666Y52388096D02*
X45809523Y52388096D01*
X46038095Y52388096D02*
X46038095Y53188096D01*
X45961904Y53073810D01*
X45885714Y52997620D01*
X45809523Y52959524D01*
X46952380Y52921429D02*
X46952380Y52388096D01*
X46761904Y53226191D02*
X46571428Y52654762D01*
X47066666Y52654762D01*
%TO.C,U13*%
X44759523Y31088096D02*
X44759523Y30440477D01*
X44797619Y30364286D01*
X44835714Y30326191D01*
X44911904Y30288096D01*
X45064285Y30288096D01*
X45140476Y30326191D01*
X45178571Y30364286D01*
X45216666Y30440477D01*
X45216666Y31088096D01*
X46016666Y30288096D02*
X45559523Y30288096D01*
X45788095Y30288096D02*
X45788095Y31088096D01*
X45711904Y30973810D01*
X45635714Y30897620D01*
X45559523Y30859524D01*
X46283333Y31088096D02*
X46778571Y31088096D01*
X46511904Y30783334D01*
X46626190Y30783334D01*
X46702380Y30745239D01*
X46740476Y30707143D01*
X46778571Y30630953D01*
X46778571Y30440477D01*
X46740476Y30364286D01*
X46702380Y30326191D01*
X46626190Y30288096D01*
X46397619Y30288096D01*
X46321428Y30326191D01*
X46283333Y30364286D01*
%TO.C,U12*%
X32759523Y51938096D02*
X32759523Y51290477D01*
X32797619Y51214286D01*
X32835714Y51176191D01*
X32911904Y51138096D01*
X33064285Y51138096D01*
X33140476Y51176191D01*
X33178571Y51214286D01*
X33216666Y51290477D01*
X33216666Y51938096D01*
X34016666Y51138096D02*
X33559523Y51138096D01*
X33788095Y51138096D02*
X33788095Y51938096D01*
X33711904Y51823810D01*
X33635714Y51747620D01*
X33559523Y51709524D01*
X34321428Y51861905D02*
X34359523Y51900000D01*
X34435714Y51938096D01*
X34626190Y51938096D01*
X34702380Y51900000D01*
X34740476Y51861905D01*
X34778571Y51785715D01*
X34778571Y51709524D01*
X34740476Y51595239D01*
X34283333Y51138096D01*
X34778571Y51138096D01*
%TO.C,U11*%
X22561904Y15509524D02*
X23209523Y15509524D01*
X23285714Y15547620D01*
X23323809Y15585715D01*
X23361904Y15661905D01*
X23361904Y15814286D01*
X23323809Y15890477D01*
X23285714Y15928572D01*
X23209523Y15966667D01*
X22561904Y15966667D01*
X23361904Y16766667D02*
X23361904Y16309524D01*
X23361904Y16538096D02*
X22561904Y16538096D01*
X22676190Y16461905D01*
X22752380Y16385715D01*
X22790476Y16309524D01*
X23361904Y17528572D02*
X23361904Y17071429D01*
X23361904Y17300000D02*
X22561904Y17300000D01*
X22676190Y17223810D01*
X22752380Y17147620D01*
X22790476Y17071429D01*
%TO.C,U10*%
X40462780Y30083143D02*
X41110399Y30083143D01*
X41186590Y30121239D01*
X41224685Y30159334D01*
X41262780Y30235524D01*
X41262780Y30387905D01*
X41224685Y30464096D01*
X41186590Y30502191D01*
X41110399Y30540286D01*
X40462780Y30540286D01*
X41262780Y31340286D02*
X41262780Y30883143D01*
X41262780Y31111715D02*
X40462780Y31111715D01*
X40577066Y31035524D01*
X40653256Y30959334D01*
X40691352Y30883143D01*
X40462780Y31835524D02*
X40462780Y31911715D01*
X40500876Y31987905D01*
X40538971Y32026000D01*
X40615161Y32064096D01*
X40767542Y32102191D01*
X40958018Y32102191D01*
X41110399Y32064096D01*
X41186590Y32026000D01*
X41224685Y31987905D01*
X41262780Y31911715D01*
X41262780Y31835524D01*
X41224685Y31759334D01*
X41186590Y31721239D01*
X41110399Y31683143D01*
X40958018Y31645048D01*
X40767542Y31645048D01*
X40615161Y31683143D01*
X40538971Y31721239D01*
X40500876Y31759334D01*
X40462780Y31835524D01*
%TO.C,U9*%
X26890476Y1188096D02*
X26890476Y540477D01*
X26928571Y464286D01*
X26966666Y426191D01*
X27042857Y388096D01*
X27195238Y388096D01*
X27271428Y426191D01*
X27309523Y464286D01*
X27347619Y540477D01*
X27347619Y1188096D01*
X27766666Y388096D02*
X27919047Y388096D01*
X27995238Y426191D01*
X28033333Y464286D01*
X28109523Y578572D01*
X28147619Y730953D01*
X28147619Y1035715D01*
X28109523Y1111905D01*
X28071428Y1150000D01*
X27995238Y1188096D01*
X27842857Y1188096D01*
X27766666Y1150000D01*
X27728571Y1111905D01*
X27690476Y1035715D01*
X27690476Y845239D01*
X27728571Y769048D01*
X27766666Y730953D01*
X27842857Y692858D01*
X27995238Y692858D01*
X28071428Y730953D01*
X28109523Y769048D01*
X28147619Y845239D01*
%TO.C,U8*%
X13890476Y20188096D02*
X13890476Y19540477D01*
X13928571Y19464286D01*
X13966666Y19426191D01*
X14042857Y19388096D01*
X14195238Y19388096D01*
X14271428Y19426191D01*
X14309523Y19464286D01*
X14347619Y19540477D01*
X14347619Y20188096D01*
X14842857Y19845239D02*
X14766666Y19883334D01*
X14728571Y19921429D01*
X14690476Y19997620D01*
X14690476Y20035715D01*
X14728571Y20111905D01*
X14766666Y20150000D01*
X14842857Y20188096D01*
X14995238Y20188096D01*
X15071428Y20150000D01*
X15109523Y20111905D01*
X15147619Y20035715D01*
X15147619Y19997620D01*
X15109523Y19921429D01*
X15071428Y19883334D01*
X14995238Y19845239D01*
X14842857Y19845239D01*
X14766666Y19807143D01*
X14728571Y19769048D01*
X14690476Y19692858D01*
X14690476Y19540477D01*
X14728571Y19464286D01*
X14766666Y19426191D01*
X14842857Y19388096D01*
X14995238Y19388096D01*
X15071428Y19426191D01*
X15109523Y19464286D01*
X15147619Y19540477D01*
X15147619Y19692858D01*
X15109523Y19769048D01*
X15071428Y19807143D01*
X14995238Y19845239D01*
%TO.C,U7*%
X17890476Y12138096D02*
X17890476Y11490477D01*
X17928571Y11414286D01*
X17966666Y11376191D01*
X18042857Y11338096D01*
X18195238Y11338096D01*
X18271428Y11376191D01*
X18309523Y11414286D01*
X18347619Y11490477D01*
X18347619Y12138096D01*
X18652380Y12138096D02*
X19185714Y12138096D01*
X18842857Y11338096D01*
%TO.C,U6*%
X10390476Y35238096D02*
X10390476Y34590477D01*
X10428571Y34514286D01*
X10466666Y34476191D01*
X10542857Y34438096D01*
X10695238Y34438096D01*
X10771428Y34476191D01*
X10809523Y34514286D01*
X10847619Y34590477D01*
X10847619Y35238096D01*
X11571428Y35238096D02*
X11419047Y35238096D01*
X11342857Y35200000D01*
X11304761Y35161905D01*
X11228571Y35047620D01*
X11190476Y34895239D01*
X11190476Y34590477D01*
X11228571Y34514286D01*
X11266666Y34476191D01*
X11342857Y34438096D01*
X11495238Y34438096D01*
X11571428Y34476191D01*
X11609523Y34514286D01*
X11647619Y34590477D01*
X11647619Y34780953D01*
X11609523Y34857143D01*
X11571428Y34895239D01*
X11495238Y34933334D01*
X11342857Y34933334D01*
X11266666Y34895239D01*
X11228571Y34857143D01*
X11190476Y34780953D01*
%TO.C,U5*%
X10390476Y41288096D02*
X10390476Y40640477D01*
X10428571Y40564286D01*
X10466666Y40526191D01*
X10542857Y40488096D01*
X10695238Y40488096D01*
X10771428Y40526191D01*
X10809523Y40564286D01*
X10847619Y40640477D01*
X10847619Y41288096D01*
X11609523Y41288096D02*
X11228571Y41288096D01*
X11190476Y40907143D01*
X11228571Y40945239D01*
X11304761Y40983334D01*
X11495238Y40983334D01*
X11571428Y40945239D01*
X11609523Y40907143D01*
X11647619Y40830953D01*
X11647619Y40640477D01*
X11609523Y40564286D01*
X11571428Y40526191D01*
X11495238Y40488096D01*
X11304761Y40488096D01*
X11228571Y40526191D01*
X11190476Y40564286D01*
%TO.C,U4*%
X10390476Y47338096D02*
X10390476Y46690477D01*
X10428571Y46614286D01*
X10466666Y46576191D01*
X10542857Y46538096D01*
X10695238Y46538096D01*
X10771428Y46576191D01*
X10809523Y46614286D01*
X10847619Y46690477D01*
X10847619Y47338096D01*
X11571428Y47071429D02*
X11571428Y46538096D01*
X11380952Y47376191D02*
X11190476Y46804762D01*
X11685714Y46804762D01*
%TO.C,U3*%
X10390476Y28888096D02*
X10390476Y28240477D01*
X10428571Y28164286D01*
X10466666Y28126191D01*
X10542857Y28088096D01*
X10695238Y28088096D01*
X10771428Y28126191D01*
X10809523Y28164286D01*
X10847619Y28240477D01*
X10847619Y28888096D01*
X11152380Y28888096D02*
X11647619Y28888096D01*
X11380952Y28583334D01*
X11495238Y28583334D01*
X11571428Y28545239D01*
X11609523Y28507143D01*
X11647619Y28430953D01*
X11647619Y28240477D01*
X11609523Y28164286D01*
X11571428Y28126191D01*
X11495238Y28088096D01*
X11266666Y28088096D01*
X11190476Y28126191D01*
X11152380Y28164286D01*
%TO.C,U2*%
X10390476Y52938096D02*
X10390476Y52290477D01*
X10428571Y52214286D01*
X10466666Y52176191D01*
X10542857Y52138096D01*
X10695238Y52138096D01*
X10771428Y52176191D01*
X10809523Y52214286D01*
X10847619Y52290477D01*
X10847619Y52938096D01*
X11190476Y52861905D02*
X11228571Y52900000D01*
X11304761Y52938096D01*
X11495238Y52938096D01*
X11571428Y52900000D01*
X11609523Y52861905D01*
X11647619Y52785715D01*
X11647619Y52709524D01*
X11609523Y52595239D01*
X11152380Y52138096D01*
X11647619Y52138096D01*
%TO.C,U1*%
X21390476Y51688096D02*
X21390476Y51040477D01*
X21428571Y50964286D01*
X21466666Y50926191D01*
X21542857Y50888096D01*
X21695238Y50888096D01*
X21771428Y50926191D01*
X21809523Y50964286D01*
X21847619Y51040477D01*
X21847619Y51688096D01*
X22647619Y50888096D02*
X22190476Y50888096D01*
X22419047Y50888096D02*
X22419047Y51688096D01*
X22342857Y51573810D01*
X22266666Y51497620D01*
X22190476Y51459524D01*
%TO.C,R57*%
X70427628Y45322115D02*
X70046676Y45055448D01*
X70427628Y44864972D02*
X69627628Y44864972D01*
X69627628Y45169734D01*
X69665724Y45245924D01*
X69703819Y45284020D01*
X69780009Y45322115D01*
X69894295Y45322115D01*
X69970485Y45284020D01*
X70008581Y45245924D01*
X70046676Y45169734D01*
X70046676Y44864972D01*
X69627628Y46045924D02*
X69627628Y45664972D01*
X70008581Y45626877D01*
X69970485Y45664972D01*
X69932390Y45741162D01*
X69932390Y45931639D01*
X69970485Y46007829D01*
X70008581Y46045924D01*
X70084771Y46084020D01*
X70275247Y46084020D01*
X70351438Y46045924D01*
X70389533Y46007829D01*
X70427628Y45931639D01*
X70427628Y45741162D01*
X70389533Y45664972D01*
X70351438Y45626877D01*
X69627628Y46350686D02*
X69627628Y46884020D01*
X70427628Y46541162D01*
%TO.C,R56*%
X35985714Y46138096D02*
X35719047Y46519048D01*
X35528571Y46138096D02*
X35528571Y46938096D01*
X35833333Y46938096D01*
X35909523Y46900000D01*
X35947619Y46861905D01*
X35985714Y46785715D01*
X35985714Y46671429D01*
X35947619Y46595239D01*
X35909523Y46557143D01*
X35833333Y46519048D01*
X35528571Y46519048D01*
X36709523Y46938096D02*
X36328571Y46938096D01*
X36290476Y46557143D01*
X36328571Y46595239D01*
X36404761Y46633334D01*
X36595238Y46633334D01*
X36671428Y46595239D01*
X36709523Y46557143D01*
X36747619Y46480953D01*
X36747619Y46290477D01*
X36709523Y46214286D01*
X36671428Y46176191D01*
X36595238Y46138096D01*
X36404761Y46138096D01*
X36328571Y46176191D01*
X36290476Y46214286D01*
X37433333Y46938096D02*
X37280952Y46938096D01*
X37204761Y46900000D01*
X37166666Y46861905D01*
X37090476Y46747620D01*
X37052380Y46595239D01*
X37052380Y46290477D01*
X37090476Y46214286D01*
X37128571Y46176191D01*
X37204761Y46138096D01*
X37357142Y46138096D01*
X37433333Y46176191D01*
X37471428Y46214286D01*
X37509523Y46290477D01*
X37509523Y46480953D01*
X37471428Y46557143D01*
X37433333Y46595239D01*
X37357142Y46633334D01*
X37204761Y46633334D01*
X37128571Y46595239D01*
X37090476Y46557143D01*
X37052380Y46480953D01*
%TO.C,R55*%
X66927628Y45322115D02*
X66546676Y45055448D01*
X66927628Y44864972D02*
X66127628Y44864972D01*
X66127628Y45169734D01*
X66165724Y45245924D01*
X66203819Y45284020D01*
X66280009Y45322115D01*
X66394295Y45322115D01*
X66470485Y45284020D01*
X66508581Y45245924D01*
X66546676Y45169734D01*
X66546676Y44864972D01*
X66127628Y46045924D02*
X66127628Y45664972D01*
X66508581Y45626877D01*
X66470485Y45664972D01*
X66432390Y45741162D01*
X66432390Y45931639D01*
X66470485Y46007829D01*
X66508581Y46045924D01*
X66584771Y46084020D01*
X66775247Y46084020D01*
X66851438Y46045924D01*
X66889533Y46007829D01*
X66927628Y45931639D01*
X66927628Y45741162D01*
X66889533Y45664972D01*
X66851438Y45626877D01*
X66127628Y46807829D02*
X66127628Y46426877D01*
X66508581Y46388781D01*
X66470485Y46426877D01*
X66432390Y46503067D01*
X66432390Y46693543D01*
X66470485Y46769734D01*
X66508581Y46807829D01*
X66584771Y46845924D01*
X66775247Y46845924D01*
X66851438Y46807829D01*
X66889533Y46769734D01*
X66927628Y46693543D01*
X66927628Y46503067D01*
X66889533Y46426877D01*
X66851438Y46388781D01*
%TO.C,R54*%
X32111904Y48485715D02*
X31730952Y48219048D01*
X32111904Y48028572D02*
X31311904Y48028572D01*
X31311904Y48333334D01*
X31350000Y48409524D01*
X31388095Y48447620D01*
X31464285Y48485715D01*
X31578571Y48485715D01*
X31654761Y48447620D01*
X31692857Y48409524D01*
X31730952Y48333334D01*
X31730952Y48028572D01*
X31311904Y49209524D02*
X31311904Y48828572D01*
X31692857Y48790477D01*
X31654761Y48828572D01*
X31616666Y48904762D01*
X31616666Y49095239D01*
X31654761Y49171429D01*
X31692857Y49209524D01*
X31769047Y49247620D01*
X31959523Y49247620D01*
X32035714Y49209524D01*
X32073809Y49171429D01*
X32111904Y49095239D01*
X32111904Y48904762D01*
X32073809Y48828572D01*
X32035714Y48790477D01*
X31578571Y49933334D02*
X32111904Y49933334D01*
X31273809Y49742858D02*
X31845238Y49552381D01*
X31845238Y50047620D01*
%TO.C,R53*%
X66861904Y34997395D02*
X66480952Y34730728D01*
X66861904Y34540252D02*
X66061904Y34540252D01*
X66061904Y34845014D01*
X66100000Y34921204D01*
X66138095Y34959300D01*
X66214285Y34997395D01*
X66328571Y34997395D01*
X66404761Y34959300D01*
X66442857Y34921204D01*
X66480952Y34845014D01*
X66480952Y34540252D01*
X66061904Y35721204D02*
X66061904Y35340252D01*
X66442857Y35302157D01*
X66404761Y35340252D01*
X66366666Y35416442D01*
X66366666Y35606919D01*
X66404761Y35683109D01*
X66442857Y35721204D01*
X66519047Y35759300D01*
X66709523Y35759300D01*
X66785714Y35721204D01*
X66823809Y35683109D01*
X66861904Y35606919D01*
X66861904Y35416442D01*
X66823809Y35340252D01*
X66785714Y35302157D01*
X66061904Y36025966D02*
X66061904Y36521204D01*
X66366666Y36254538D01*
X66366666Y36368823D01*
X66404761Y36445014D01*
X66442857Y36483109D01*
X66519047Y36521204D01*
X66709523Y36521204D01*
X66785714Y36483109D01*
X66823809Y36445014D01*
X66861904Y36368823D01*
X66861904Y36140252D01*
X66823809Y36064061D01*
X66785714Y36025966D01*
%TO.C,R52*%
X31427628Y40403776D02*
X31046676Y40137109D01*
X31427628Y39946633D02*
X30627628Y39946633D01*
X30627628Y40251395D01*
X30665724Y40327585D01*
X30703819Y40365681D01*
X30780009Y40403776D01*
X30894295Y40403776D01*
X30970485Y40365681D01*
X31008581Y40327585D01*
X31046676Y40251395D01*
X31046676Y39946633D01*
X30627628Y41127585D02*
X30627628Y40746633D01*
X31008581Y40708538D01*
X30970485Y40746633D01*
X30932390Y40822823D01*
X30932390Y41013300D01*
X30970485Y41089490D01*
X31008581Y41127585D01*
X31084771Y41165681D01*
X31275247Y41165681D01*
X31351438Y41127585D01*
X31389533Y41089490D01*
X31427628Y41013300D01*
X31427628Y40822823D01*
X31389533Y40746633D01*
X31351438Y40708538D01*
X30703819Y41470442D02*
X30665724Y41508538D01*
X30627628Y41584728D01*
X30627628Y41775204D01*
X30665724Y41851395D01*
X30703819Y41889490D01*
X30780009Y41927585D01*
X30856200Y41927585D01*
X30970485Y41889490D01*
X31427628Y41432347D01*
X31427628Y41927585D01*
%TO.C,R51*%
X70427628Y35493776D02*
X70046676Y35227109D01*
X70427628Y35036633D02*
X69627628Y35036633D01*
X69627628Y35341395D01*
X69665724Y35417585D01*
X69703819Y35455681D01*
X69780009Y35493776D01*
X69894295Y35493776D01*
X69970485Y35455681D01*
X70008581Y35417585D01*
X70046676Y35341395D01*
X70046676Y35036633D01*
X69627628Y36217585D02*
X69627628Y35836633D01*
X70008581Y35798538D01*
X69970485Y35836633D01*
X69932390Y35912823D01*
X69932390Y36103300D01*
X69970485Y36179490D01*
X70008581Y36217585D01*
X70084771Y36255681D01*
X70275247Y36255681D01*
X70351438Y36217585D01*
X70389533Y36179490D01*
X70427628Y36103300D01*
X70427628Y35912823D01*
X70389533Y35836633D01*
X70351438Y35798538D01*
X70427628Y37017585D02*
X70427628Y36560442D01*
X70427628Y36789014D02*
X69627628Y36789014D01*
X69741914Y36712823D01*
X69818104Y36636633D01*
X69856200Y36560442D01*
%TO.C,R50*%
X38111904Y41985715D02*
X37730952Y41719048D01*
X38111904Y41528572D02*
X37311904Y41528572D01*
X37311904Y41833334D01*
X37350000Y41909524D01*
X37388095Y41947620D01*
X37464285Y41985715D01*
X37578571Y41985715D01*
X37654761Y41947620D01*
X37692857Y41909524D01*
X37730952Y41833334D01*
X37730952Y41528572D01*
X37311904Y42709524D02*
X37311904Y42328572D01*
X37692857Y42290477D01*
X37654761Y42328572D01*
X37616666Y42404762D01*
X37616666Y42595239D01*
X37654761Y42671429D01*
X37692857Y42709524D01*
X37769047Y42747620D01*
X37959523Y42747620D01*
X38035714Y42709524D01*
X38073809Y42671429D01*
X38111904Y42595239D01*
X38111904Y42404762D01*
X38073809Y42328572D01*
X38035714Y42290477D01*
X37311904Y43242858D02*
X37311904Y43319048D01*
X37350000Y43395239D01*
X37388095Y43433334D01*
X37464285Y43471429D01*
X37616666Y43509524D01*
X37807142Y43509524D01*
X37959523Y43471429D01*
X38035714Y43433334D01*
X38073809Y43395239D01*
X38111904Y43319048D01*
X38111904Y43242858D01*
X38073809Y43166667D01*
X38035714Y43128572D01*
X37959523Y43090477D01*
X37807142Y43052381D01*
X37616666Y43052381D01*
X37464285Y43090477D01*
X37388095Y43128572D01*
X37350000Y43166667D01*
X37311904Y43242858D01*
%TO.C,R49*%
X23202095Y72722372D02*
X22935428Y73103324D01*
X22744952Y72722372D02*
X22744952Y73522372D01*
X23049714Y73522372D01*
X23125904Y73484276D01*
X23164000Y73446181D01*
X23202095Y73369991D01*
X23202095Y73255705D01*
X23164000Y73179515D01*
X23125904Y73141419D01*
X23049714Y73103324D01*
X22744952Y73103324D01*
X23887809Y73255705D02*
X23887809Y72722372D01*
X23697333Y73560467D02*
X23506857Y72989038D01*
X24002095Y72989038D01*
X24344952Y72722372D02*
X24497333Y72722372D01*
X24573523Y72760467D01*
X24611619Y72798562D01*
X24687809Y72912848D01*
X24725904Y73065229D01*
X24725904Y73369991D01*
X24687809Y73446181D01*
X24649714Y73484276D01*
X24573523Y73522372D01*
X24421142Y73522372D01*
X24344952Y73484276D01*
X24306857Y73446181D01*
X24268761Y73369991D01*
X24268761Y73179515D01*
X24306857Y73103324D01*
X24344952Y73065229D01*
X24421142Y73027134D01*
X24573523Y73027134D01*
X24649714Y73065229D01*
X24687809Y73103324D01*
X24725904Y73179515D01*
%TO.C,R48*%
X25235714Y56638096D02*
X24969047Y57019048D01*
X24778571Y56638096D02*
X24778571Y57438096D01*
X25083333Y57438096D01*
X25159523Y57400000D01*
X25197619Y57361905D01*
X25235714Y57285715D01*
X25235714Y57171429D01*
X25197619Y57095239D01*
X25159523Y57057143D01*
X25083333Y57019048D01*
X24778571Y57019048D01*
X25921428Y57171429D02*
X25921428Y56638096D01*
X25730952Y57476191D02*
X25540476Y56904762D01*
X26035714Y56904762D01*
X26454761Y57095239D02*
X26378571Y57133334D01*
X26340476Y57171429D01*
X26302380Y57247620D01*
X26302380Y57285715D01*
X26340476Y57361905D01*
X26378571Y57400000D01*
X26454761Y57438096D01*
X26607142Y57438096D01*
X26683333Y57400000D01*
X26721428Y57361905D01*
X26759523Y57285715D01*
X26759523Y57247620D01*
X26721428Y57171429D01*
X26683333Y57133334D01*
X26607142Y57095239D01*
X26454761Y57095239D01*
X26378571Y57057143D01*
X26340476Y57019048D01*
X26302380Y56942858D01*
X26302380Y56790477D01*
X26340476Y56714286D01*
X26378571Y56676191D01*
X26454761Y56638096D01*
X26607142Y56638096D01*
X26683333Y56676191D01*
X26721428Y56714286D01*
X26759523Y56790477D01*
X26759523Y56942858D01*
X26721428Y57019048D01*
X26683333Y57057143D01*
X26607142Y57095239D01*
%TO.C,R47*%
X15361904Y71879334D02*
X14980952Y71612667D01*
X15361904Y71422191D02*
X14561904Y71422191D01*
X14561904Y71726953D01*
X14600000Y71803143D01*
X14638095Y71841239D01*
X14714285Y71879334D01*
X14828571Y71879334D01*
X14904761Y71841239D01*
X14942857Y71803143D01*
X14980952Y71726953D01*
X14980952Y71422191D01*
X14828571Y72565048D02*
X15361904Y72565048D01*
X14523809Y72374572D02*
X15095238Y72184096D01*
X15095238Y72679334D01*
X14561904Y72907905D02*
X14561904Y73441239D01*
X15361904Y73098381D01*
%TO.C,R45*%
X14235714Y56638096D02*
X13969047Y57019048D01*
X13778571Y56638096D02*
X13778571Y57438096D01*
X14083333Y57438096D01*
X14159523Y57400000D01*
X14197619Y57361905D01*
X14235714Y57285715D01*
X14235714Y57171429D01*
X14197619Y57095239D01*
X14159523Y57057143D01*
X14083333Y57019048D01*
X13778571Y57019048D01*
X14921428Y57171429D02*
X14921428Y56638096D01*
X14730952Y57476191D02*
X14540476Y56904762D01*
X15035714Y56904762D01*
X15721428Y57438096D02*
X15340476Y57438096D01*
X15302380Y57057143D01*
X15340476Y57095239D01*
X15416666Y57133334D01*
X15607142Y57133334D01*
X15683333Y57095239D01*
X15721428Y57057143D01*
X15759523Y56980953D01*
X15759523Y56790477D01*
X15721428Y56714286D01*
X15683333Y56676191D01*
X15607142Y56638096D01*
X15416666Y56638096D01*
X15340476Y56676191D01*
X15302380Y56714286D01*
%TO.C,R43*%
X13361904Y62985715D02*
X12980952Y62719048D01*
X13361904Y62528572D02*
X12561904Y62528572D01*
X12561904Y62833334D01*
X12600000Y62909524D01*
X12638095Y62947620D01*
X12714285Y62985715D01*
X12828571Y62985715D01*
X12904761Y62947620D01*
X12942857Y62909524D01*
X12980952Y62833334D01*
X12980952Y62528572D01*
X12828571Y63671429D02*
X13361904Y63671429D01*
X12523809Y63480953D02*
X13095238Y63290477D01*
X13095238Y63785715D01*
X12561904Y64014286D02*
X12561904Y64509524D01*
X12866666Y64242858D01*
X12866666Y64357143D01*
X12904761Y64433334D01*
X12942857Y64471429D01*
X13019047Y64509524D01*
X13209523Y64509524D01*
X13285714Y64471429D01*
X13323809Y64433334D01*
X13361904Y64357143D01*
X13361904Y64128572D01*
X13323809Y64052381D01*
X13285714Y64014286D01*
%TO.C,R42*%
X13985714Y70098096D02*
X13719047Y70479048D01*
X13528571Y70098096D02*
X13528571Y70898096D01*
X13833333Y70898096D01*
X13909523Y70860000D01*
X13947619Y70821905D01*
X13985714Y70745715D01*
X13985714Y70631429D01*
X13947619Y70555239D01*
X13909523Y70517143D01*
X13833333Y70479048D01*
X13528571Y70479048D01*
X14671428Y70631429D02*
X14671428Y70098096D01*
X14480952Y70936191D02*
X14290476Y70364762D01*
X14785714Y70364762D01*
X15052380Y70821905D02*
X15090476Y70860000D01*
X15166666Y70898096D01*
X15357142Y70898096D01*
X15433333Y70860000D01*
X15471428Y70821905D01*
X15509523Y70745715D01*
X15509523Y70669524D01*
X15471428Y70555239D01*
X15014285Y70098096D01*
X15509523Y70098096D01*
%TO.C,R41*%
X70427628Y16115437D02*
X70046676Y15848770D01*
X70427628Y15658294D02*
X69627628Y15658294D01*
X69627628Y15963056D01*
X69665724Y16039246D01*
X69703819Y16077342D01*
X69780009Y16115437D01*
X69894295Y16115437D01*
X69970485Y16077342D01*
X70008581Y16039246D01*
X70046676Y15963056D01*
X70046676Y15658294D01*
X69894295Y16801151D02*
X70427628Y16801151D01*
X69589533Y16610675D02*
X70160962Y16420199D01*
X70160962Y16915437D01*
X70427628Y17639246D02*
X70427628Y17182103D01*
X70427628Y17410675D02*
X69627628Y17410675D01*
X69741914Y17334484D01*
X69818104Y17258294D01*
X69856200Y17182103D01*
%TO.C,R40*%
X32111904Y17485715D02*
X31730952Y17219048D01*
X32111904Y17028572D02*
X31311904Y17028572D01*
X31311904Y17333334D01*
X31350000Y17409524D01*
X31388095Y17447620D01*
X31464285Y17485715D01*
X31578571Y17485715D01*
X31654761Y17447620D01*
X31692857Y17409524D01*
X31730952Y17333334D01*
X31730952Y17028572D01*
X31578571Y18171429D02*
X32111904Y18171429D01*
X31273809Y17980953D02*
X31845238Y17790477D01*
X31845238Y18285715D01*
X31311904Y18742858D02*
X31311904Y18819048D01*
X31350000Y18895239D01*
X31388095Y18933334D01*
X31464285Y18971429D01*
X31616666Y19009524D01*
X31807142Y19009524D01*
X31959523Y18971429D01*
X32035714Y18933334D01*
X32073809Y18895239D01*
X32111904Y18819048D01*
X32111904Y18742858D01*
X32073809Y18666667D01*
X32035714Y18628572D01*
X31959523Y18590477D01*
X31807142Y18552381D01*
X31616666Y18552381D01*
X31464285Y18590477D01*
X31388095Y18628572D01*
X31350000Y18666667D01*
X31311904Y18742858D01*
%TO.C,R39*%
X66927628Y16115437D02*
X66546676Y15848770D01*
X66927628Y15658294D02*
X66127628Y15658294D01*
X66127628Y15963056D01*
X66165724Y16039246D01*
X66203819Y16077342D01*
X66280009Y16115437D01*
X66394295Y16115437D01*
X66470485Y16077342D01*
X66508581Y16039246D01*
X66546676Y15963056D01*
X66546676Y15658294D01*
X66127628Y16382103D02*
X66127628Y16877342D01*
X66432390Y16610675D01*
X66432390Y16724961D01*
X66470485Y16801151D01*
X66508581Y16839246D01*
X66584771Y16877342D01*
X66775247Y16877342D01*
X66851438Y16839246D01*
X66889533Y16801151D01*
X66927628Y16724961D01*
X66927628Y16496389D01*
X66889533Y16420199D01*
X66851438Y16382103D01*
X66927628Y17258294D02*
X66927628Y17410675D01*
X66889533Y17486865D01*
X66851438Y17524961D01*
X66737152Y17601151D01*
X66584771Y17639246D01*
X66280009Y17639246D01*
X66203819Y17601151D01*
X66165724Y17563056D01*
X66127628Y17486865D01*
X66127628Y17334484D01*
X66165724Y17258294D01*
X66203819Y17220199D01*
X66280009Y17182103D01*
X66470485Y17182103D01*
X66546676Y17220199D01*
X66584771Y17258294D01*
X66622866Y17334484D01*
X66622866Y17486865D01*
X66584771Y17563056D01*
X66546676Y17601151D01*
X66470485Y17639246D01*
%TO.C,R38*%
X35735714Y20388096D02*
X35469047Y20769048D01*
X35278571Y20388096D02*
X35278571Y21188096D01*
X35583333Y21188096D01*
X35659523Y21150000D01*
X35697619Y21111905D01*
X35735714Y21035715D01*
X35735714Y20921429D01*
X35697619Y20845239D01*
X35659523Y20807143D01*
X35583333Y20769048D01*
X35278571Y20769048D01*
X36002380Y21188096D02*
X36497619Y21188096D01*
X36230952Y20883334D01*
X36345238Y20883334D01*
X36421428Y20845239D01*
X36459523Y20807143D01*
X36497619Y20730953D01*
X36497619Y20540477D01*
X36459523Y20464286D01*
X36421428Y20426191D01*
X36345238Y20388096D01*
X36116666Y20388096D01*
X36040476Y20426191D01*
X36002380Y20464286D01*
X36954761Y20845239D02*
X36878571Y20883334D01*
X36840476Y20921429D01*
X36802380Y20997620D01*
X36802380Y21035715D01*
X36840476Y21111905D01*
X36878571Y21150000D01*
X36954761Y21188096D01*
X37107142Y21188096D01*
X37183333Y21150000D01*
X37221428Y21111905D01*
X37259523Y21035715D01*
X37259523Y20997620D01*
X37221428Y20921429D01*
X37183333Y20883334D01*
X37107142Y20845239D01*
X36954761Y20845239D01*
X36878571Y20807143D01*
X36840476Y20769048D01*
X36802380Y20692858D01*
X36802380Y20540477D01*
X36840476Y20464286D01*
X36878571Y20426191D01*
X36954761Y20388096D01*
X37107142Y20388096D01*
X37183333Y20426191D01*
X37221428Y20464286D01*
X37259523Y20540477D01*
X37259523Y20692858D01*
X37221428Y20769048D01*
X37183333Y20807143D01*
X37107142Y20845239D01*
%TO.C,R37*%
X66861904Y5985715D02*
X66480952Y5719048D01*
X66861904Y5528572D02*
X66061904Y5528572D01*
X66061904Y5833334D01*
X66100000Y5909524D01*
X66138095Y5947620D01*
X66214285Y5985715D01*
X66328571Y5985715D01*
X66404761Y5947620D01*
X66442857Y5909524D01*
X66480952Y5833334D01*
X66480952Y5528572D01*
X66061904Y6252381D02*
X66061904Y6747620D01*
X66366666Y6480953D01*
X66366666Y6595239D01*
X66404761Y6671429D01*
X66442857Y6709524D01*
X66519047Y6747620D01*
X66709523Y6747620D01*
X66785714Y6709524D01*
X66823809Y6671429D01*
X66861904Y6595239D01*
X66861904Y6366667D01*
X66823809Y6290477D01*
X66785714Y6252381D01*
X66061904Y7014286D02*
X66061904Y7547620D01*
X66861904Y7204762D01*
%TO.C,R36*%
X35485714Y9638096D02*
X35219047Y10019048D01*
X35028571Y9638096D02*
X35028571Y10438096D01*
X35333333Y10438096D01*
X35409523Y10400000D01*
X35447619Y10361905D01*
X35485714Y10285715D01*
X35485714Y10171429D01*
X35447619Y10095239D01*
X35409523Y10057143D01*
X35333333Y10019048D01*
X35028571Y10019048D01*
X35752380Y10438096D02*
X36247619Y10438096D01*
X35980952Y10133334D01*
X36095238Y10133334D01*
X36171428Y10095239D01*
X36209523Y10057143D01*
X36247619Y9980953D01*
X36247619Y9790477D01*
X36209523Y9714286D01*
X36171428Y9676191D01*
X36095238Y9638096D01*
X35866666Y9638096D01*
X35790476Y9676191D01*
X35752380Y9714286D01*
X36933333Y10438096D02*
X36780952Y10438096D01*
X36704761Y10400000D01*
X36666666Y10361905D01*
X36590476Y10247620D01*
X36552380Y10095239D01*
X36552380Y9790477D01*
X36590476Y9714286D01*
X36628571Y9676191D01*
X36704761Y9638096D01*
X36857142Y9638096D01*
X36933333Y9676191D01*
X36971428Y9714286D01*
X37009523Y9790477D01*
X37009523Y9980953D01*
X36971428Y10057143D01*
X36933333Y10095239D01*
X36857142Y10133334D01*
X36704761Y10133334D01*
X36628571Y10095239D01*
X36590476Y10057143D01*
X36552380Y9980953D01*
%TO.C,R35*%
X70427628Y5985715D02*
X70046676Y5719048D01*
X70427628Y5528572D02*
X69627628Y5528572D01*
X69627628Y5833334D01*
X69665724Y5909524D01*
X69703819Y5947620D01*
X69780009Y5985715D01*
X69894295Y5985715D01*
X69970485Y5947620D01*
X70008581Y5909524D01*
X70046676Y5833334D01*
X70046676Y5528572D01*
X69627628Y6252381D02*
X69627628Y6747620D01*
X69932390Y6480953D01*
X69932390Y6595239D01*
X69970485Y6671429D01*
X70008581Y6709524D01*
X70084771Y6747620D01*
X70275247Y6747620D01*
X70351438Y6709524D01*
X70389533Y6671429D01*
X70427628Y6595239D01*
X70427628Y6366667D01*
X70389533Y6290477D01*
X70351438Y6252381D01*
X69627628Y7471429D02*
X69627628Y7090477D01*
X70008581Y7052381D01*
X69970485Y7090477D01*
X69932390Y7166667D01*
X69932390Y7357143D01*
X69970485Y7433334D01*
X70008581Y7471429D01*
X70084771Y7509524D01*
X70275247Y7509524D01*
X70351438Y7471429D01*
X70389533Y7433334D01*
X70427628Y7357143D01*
X70427628Y7166667D01*
X70389533Y7090477D01*
X70351438Y7052381D01*
%TO.C,R34*%
X32485714Y9638096D02*
X32219047Y10019048D01*
X32028571Y9638096D02*
X32028571Y10438096D01*
X32333333Y10438096D01*
X32409523Y10400000D01*
X32447619Y10361905D01*
X32485714Y10285715D01*
X32485714Y10171429D01*
X32447619Y10095239D01*
X32409523Y10057143D01*
X32333333Y10019048D01*
X32028571Y10019048D01*
X32752380Y10438096D02*
X33247619Y10438096D01*
X32980952Y10133334D01*
X33095238Y10133334D01*
X33171428Y10095239D01*
X33209523Y10057143D01*
X33247619Y9980953D01*
X33247619Y9790477D01*
X33209523Y9714286D01*
X33171428Y9676191D01*
X33095238Y9638096D01*
X32866666Y9638096D01*
X32790476Y9676191D01*
X32752380Y9714286D01*
X33933333Y10171429D02*
X33933333Y9638096D01*
X33742857Y10476191D02*
X33552380Y9904762D01*
X34047619Y9904762D01*
%TO.C,R33*%
X30361904Y45235715D02*
X29980952Y44969048D01*
X30361904Y44778572D02*
X29561904Y44778572D01*
X29561904Y45083334D01*
X29600000Y45159524D01*
X29638095Y45197620D01*
X29714285Y45235715D01*
X29828571Y45235715D01*
X29904761Y45197620D01*
X29942857Y45159524D01*
X29980952Y45083334D01*
X29980952Y44778572D01*
X29561904Y45502381D02*
X29561904Y45997620D01*
X29866666Y45730953D01*
X29866666Y45845239D01*
X29904761Y45921429D01*
X29942857Y45959524D01*
X30019047Y45997620D01*
X30209523Y45997620D01*
X30285714Y45959524D01*
X30323809Y45921429D01*
X30361904Y45845239D01*
X30361904Y45616667D01*
X30323809Y45540477D01*
X30285714Y45502381D01*
X29561904Y46264286D02*
X29561904Y46759524D01*
X29866666Y46492858D01*
X29866666Y46607143D01*
X29904761Y46683334D01*
X29942857Y46721429D01*
X30019047Y46759524D01*
X30209523Y46759524D01*
X30285714Y46721429D01*
X30323809Y46683334D01*
X30361904Y46607143D01*
X30361904Y46378572D01*
X30323809Y46302381D01*
X30285714Y46264286D01*
%TO.C,R32*%
X23177628Y35842096D02*
X22796676Y35575429D01*
X23177628Y35384953D02*
X22377628Y35384953D01*
X22377628Y35689715D01*
X22415724Y35765905D01*
X22453819Y35804001D01*
X22530009Y35842096D01*
X22644295Y35842096D01*
X22720485Y35804001D01*
X22758581Y35765905D01*
X22796676Y35689715D01*
X22796676Y35384953D01*
X22377628Y36108762D02*
X22377628Y36604001D01*
X22682390Y36337334D01*
X22682390Y36451620D01*
X22720485Y36527810D01*
X22758581Y36565905D01*
X22834771Y36604001D01*
X23025247Y36604001D01*
X23101438Y36565905D01*
X23139533Y36527810D01*
X23177628Y36451620D01*
X23177628Y36223048D01*
X23139533Y36146858D01*
X23101438Y36108762D01*
X22453819Y36908762D02*
X22415724Y36946858D01*
X22377628Y37023048D01*
X22377628Y37213524D01*
X22415724Y37289715D01*
X22453819Y37327810D01*
X22530009Y37365905D01*
X22606200Y37365905D01*
X22720485Y37327810D01*
X23177628Y36870667D01*
X23177628Y37365905D01*
%TO.C,R31*%
X29977628Y29192096D02*
X29596676Y28925429D01*
X29977628Y28734953D02*
X29177628Y28734953D01*
X29177628Y29039715D01*
X29215724Y29115905D01*
X29253819Y29154001D01*
X29330009Y29192096D01*
X29444295Y29192096D01*
X29520485Y29154001D01*
X29558581Y29115905D01*
X29596676Y29039715D01*
X29596676Y28734953D01*
X29177628Y29458762D02*
X29177628Y29954001D01*
X29482390Y29687334D01*
X29482390Y29801620D01*
X29520485Y29877810D01*
X29558581Y29915905D01*
X29634771Y29954001D01*
X29825247Y29954001D01*
X29901438Y29915905D01*
X29939533Y29877810D01*
X29977628Y29801620D01*
X29977628Y29573048D01*
X29939533Y29496858D01*
X29901438Y29458762D01*
X29977628Y30715905D02*
X29977628Y30258762D01*
X29977628Y30487334D02*
X29177628Y30487334D01*
X29291914Y30411143D01*
X29368104Y30334953D01*
X29406200Y30258762D01*
%TO.C,R30*%
X16235714Y1638096D02*
X15969047Y2019048D01*
X15778571Y1638096D02*
X15778571Y2438096D01*
X16083333Y2438096D01*
X16159523Y2400000D01*
X16197619Y2361905D01*
X16235714Y2285715D01*
X16235714Y2171429D01*
X16197619Y2095239D01*
X16159523Y2057143D01*
X16083333Y2019048D01*
X15778571Y2019048D01*
X16502380Y2438096D02*
X16997619Y2438096D01*
X16730952Y2133334D01*
X16845238Y2133334D01*
X16921428Y2095239D01*
X16959523Y2057143D01*
X16997619Y1980953D01*
X16997619Y1790477D01*
X16959523Y1714286D01*
X16921428Y1676191D01*
X16845238Y1638096D01*
X16616666Y1638096D01*
X16540476Y1676191D01*
X16502380Y1714286D01*
X17492857Y2438096D02*
X17569047Y2438096D01*
X17645238Y2400000D01*
X17683333Y2361905D01*
X17721428Y2285715D01*
X17759523Y2133334D01*
X17759523Y1942858D01*
X17721428Y1790477D01*
X17683333Y1714286D01*
X17645238Y1676191D01*
X17569047Y1638096D01*
X17492857Y1638096D01*
X17416666Y1676191D01*
X17378571Y1714286D01*
X17340476Y1790477D01*
X17302380Y1942858D01*
X17302380Y2133334D01*
X17340476Y2285715D01*
X17378571Y2361905D01*
X17416666Y2400000D01*
X17492857Y2438096D01*
%TO.C,R21*%
X29861904Y35735715D02*
X29480952Y35469048D01*
X29861904Y35278572D02*
X29061904Y35278572D01*
X29061904Y35583334D01*
X29100000Y35659524D01*
X29138095Y35697620D01*
X29214285Y35735715D01*
X29328571Y35735715D01*
X29404761Y35697620D01*
X29442857Y35659524D01*
X29480952Y35583334D01*
X29480952Y35278572D01*
X29138095Y36040477D02*
X29100000Y36078572D01*
X29061904Y36154762D01*
X29061904Y36345239D01*
X29100000Y36421429D01*
X29138095Y36459524D01*
X29214285Y36497620D01*
X29290476Y36497620D01*
X29404761Y36459524D01*
X29861904Y36002381D01*
X29861904Y36497620D01*
X29861904Y37259524D02*
X29861904Y36802381D01*
X29861904Y37030953D02*
X29061904Y37030953D01*
X29176190Y36954762D01*
X29252380Y36878572D01*
X29290476Y36802381D01*
%TO.C,R20*%
X20735714Y22388096D02*
X20469047Y22769048D01*
X20278571Y22388096D02*
X20278571Y23188096D01*
X20583333Y23188096D01*
X20659523Y23150000D01*
X20697619Y23111905D01*
X20735714Y23035715D01*
X20735714Y22921429D01*
X20697619Y22845239D01*
X20659523Y22807143D01*
X20583333Y22769048D01*
X20278571Y22769048D01*
X21040476Y23111905D02*
X21078571Y23150000D01*
X21154761Y23188096D01*
X21345238Y23188096D01*
X21421428Y23150000D01*
X21459523Y23111905D01*
X21497619Y23035715D01*
X21497619Y22959524D01*
X21459523Y22845239D01*
X21002380Y22388096D01*
X21497619Y22388096D01*
X21992857Y23188096D02*
X22069047Y23188096D01*
X22145238Y23150000D01*
X22183333Y23111905D01*
X22221428Y23035715D01*
X22259523Y22883334D01*
X22259523Y22692858D01*
X22221428Y22540477D01*
X22183333Y22464286D01*
X22145238Y22426191D01*
X22069047Y22388096D01*
X21992857Y22388096D01*
X21916666Y22426191D01*
X21878571Y22464286D01*
X21840476Y22540477D01*
X21802380Y22692858D01*
X21802380Y22883334D01*
X21840476Y23035715D01*
X21878571Y23111905D01*
X21916666Y23150000D01*
X21992857Y23188096D01*
%TO.C,R19*%
X49546180Y60629334D02*
X49165228Y60362667D01*
X49546180Y60172191D02*
X48746180Y60172191D01*
X48746180Y60476953D01*
X48784276Y60553143D01*
X48822371Y60591239D01*
X48898561Y60629334D01*
X49012847Y60629334D01*
X49089037Y60591239D01*
X49127133Y60553143D01*
X49165228Y60476953D01*
X49165228Y60172191D01*
X49546180Y61391239D02*
X49546180Y60934096D01*
X49546180Y61162667D02*
X48746180Y61162667D01*
X48860466Y61086477D01*
X48936656Y61010286D01*
X48974752Y60934096D01*
X49546180Y61772191D02*
X49546180Y61924572D01*
X49508085Y62000762D01*
X49469990Y62038858D01*
X49355704Y62115048D01*
X49203323Y62153143D01*
X48898561Y62153143D01*
X48822371Y62115048D01*
X48784276Y62076953D01*
X48746180Y62000762D01*
X48746180Y61848381D01*
X48784276Y61772191D01*
X48822371Y61734096D01*
X48898561Y61696000D01*
X49089037Y61696000D01*
X49165228Y61734096D01*
X49203323Y61772191D01*
X49241418Y61848381D01*
X49241418Y62000762D01*
X49203323Y62076953D01*
X49165228Y62115048D01*
X49089037Y62153143D01*
%TO.C,R18*%
X54485714Y28388096D02*
X54219047Y28769048D01*
X54028571Y28388096D02*
X54028571Y29188096D01*
X54333333Y29188096D01*
X54409523Y29150000D01*
X54447619Y29111905D01*
X54485714Y29035715D01*
X54485714Y28921429D01*
X54447619Y28845239D01*
X54409523Y28807143D01*
X54333333Y28769048D01*
X54028571Y28769048D01*
X55247619Y28388096D02*
X54790476Y28388096D01*
X55019047Y28388096D02*
X55019047Y29188096D01*
X54942857Y29073810D01*
X54866666Y28997620D01*
X54790476Y28959524D01*
X55704761Y28845239D02*
X55628571Y28883334D01*
X55590476Y28921429D01*
X55552380Y28997620D01*
X55552380Y29035715D01*
X55590476Y29111905D01*
X55628571Y29150000D01*
X55704761Y29188096D01*
X55857142Y29188096D01*
X55933333Y29150000D01*
X55971428Y29111905D01*
X56009523Y29035715D01*
X56009523Y28997620D01*
X55971428Y28921429D01*
X55933333Y28883334D01*
X55857142Y28845239D01*
X55704761Y28845239D01*
X55628571Y28807143D01*
X55590476Y28769048D01*
X55552380Y28692858D01*
X55552380Y28540477D01*
X55590476Y28464286D01*
X55628571Y28426191D01*
X55704761Y28388096D01*
X55857142Y28388096D01*
X55933333Y28426191D01*
X55971428Y28464286D01*
X56009523Y28540477D01*
X56009523Y28692858D01*
X55971428Y28769048D01*
X55933333Y28807143D01*
X55857142Y28845239D01*
%TO.C,R17*%
X75235714Y8888096D02*
X74969047Y9269048D01*
X74778571Y8888096D02*
X74778571Y9688096D01*
X75083333Y9688096D01*
X75159523Y9650000D01*
X75197619Y9611905D01*
X75235714Y9535715D01*
X75235714Y9421429D01*
X75197619Y9345239D01*
X75159523Y9307143D01*
X75083333Y9269048D01*
X74778571Y9269048D01*
X75997619Y8888096D02*
X75540476Y8888096D01*
X75769047Y8888096D02*
X75769047Y9688096D01*
X75692857Y9573810D01*
X75616666Y9497620D01*
X75540476Y9459524D01*
X76264285Y9688096D02*
X76797619Y9688096D01*
X76454761Y8888096D01*
%TO.C,R16*%
X16842095Y21822372D02*
X16575428Y22203324D01*
X16384952Y21822372D02*
X16384952Y22622372D01*
X16689714Y22622372D01*
X16765904Y22584276D01*
X16804000Y22546181D01*
X16842095Y22469991D01*
X16842095Y22355705D01*
X16804000Y22279515D01*
X16765904Y22241419D01*
X16689714Y22203324D01*
X16384952Y22203324D01*
X17604000Y21822372D02*
X17146857Y21822372D01*
X17375428Y21822372D02*
X17375428Y22622372D01*
X17299238Y22508086D01*
X17223047Y22431896D01*
X17146857Y22393800D01*
X18289714Y22622372D02*
X18137333Y22622372D01*
X18061142Y22584276D01*
X18023047Y22546181D01*
X17946857Y22431896D01*
X17908761Y22279515D01*
X17908761Y21974753D01*
X17946857Y21898562D01*
X17984952Y21860467D01*
X18061142Y21822372D01*
X18213523Y21822372D01*
X18289714Y21860467D01*
X18327809Y21898562D01*
X18365904Y21974753D01*
X18365904Y22165229D01*
X18327809Y22241419D01*
X18289714Y22279515D01*
X18213523Y22317610D01*
X18061142Y22317610D01*
X17984952Y22279515D01*
X17946857Y22241419D01*
X17908761Y22165229D01*
%TO.C,R15*%
X16235714Y4388096D02*
X15969047Y4769048D01*
X15778571Y4388096D02*
X15778571Y5188096D01*
X16083333Y5188096D01*
X16159523Y5150000D01*
X16197619Y5111905D01*
X16235714Y5035715D01*
X16235714Y4921429D01*
X16197619Y4845239D01*
X16159523Y4807143D01*
X16083333Y4769048D01*
X15778571Y4769048D01*
X16997619Y4388096D02*
X16540476Y4388096D01*
X16769047Y4388096D02*
X16769047Y5188096D01*
X16692857Y5073810D01*
X16616666Y4997620D01*
X16540476Y4959524D01*
X17721428Y5188096D02*
X17340476Y5188096D01*
X17302380Y4807143D01*
X17340476Y4845239D01*
X17416666Y4883334D01*
X17607142Y4883334D01*
X17683333Y4845239D01*
X17721428Y4807143D01*
X17759523Y4730953D01*
X17759523Y4540477D01*
X17721428Y4464286D01*
X17683333Y4426191D01*
X17607142Y4388096D01*
X17416666Y4388096D01*
X17340476Y4426191D01*
X17302380Y4464286D01*
%TO.C,R14*%
X15877628Y28792096D02*
X15496676Y28525429D01*
X15877628Y28334953D02*
X15077628Y28334953D01*
X15077628Y28639715D01*
X15115724Y28715905D01*
X15153819Y28754001D01*
X15230009Y28792096D01*
X15344295Y28792096D01*
X15420485Y28754001D01*
X15458581Y28715905D01*
X15496676Y28639715D01*
X15496676Y28334953D01*
X15877628Y29554001D02*
X15877628Y29096858D01*
X15877628Y29325429D02*
X15077628Y29325429D01*
X15191914Y29249239D01*
X15268104Y29173048D01*
X15306200Y29096858D01*
X15344295Y30239715D02*
X15877628Y30239715D01*
X15039533Y30049239D02*
X15610962Y29858762D01*
X15610962Y30354001D01*
%TO.C,R13*%
X17985714Y12888096D02*
X17719047Y13269048D01*
X17528571Y12888096D02*
X17528571Y13688096D01*
X17833333Y13688096D01*
X17909523Y13650000D01*
X17947619Y13611905D01*
X17985714Y13535715D01*
X17985714Y13421429D01*
X17947619Y13345239D01*
X17909523Y13307143D01*
X17833333Y13269048D01*
X17528571Y13269048D01*
X18747619Y12888096D02*
X18290476Y12888096D01*
X18519047Y12888096D02*
X18519047Y13688096D01*
X18442857Y13573810D01*
X18366666Y13497620D01*
X18290476Y13459524D01*
X19014285Y13688096D02*
X19509523Y13688096D01*
X19242857Y13383334D01*
X19357142Y13383334D01*
X19433333Y13345239D01*
X19471428Y13307143D01*
X19509523Y13230953D01*
X19509523Y13040477D01*
X19471428Y12964286D01*
X19433333Y12926191D01*
X19357142Y12888096D01*
X19128571Y12888096D01*
X19052380Y12926191D01*
X19014285Y12964286D01*
%TO.C,R12*%
X10629333Y2703820D02*
X10362666Y3084772D01*
X10172190Y2703820D02*
X10172190Y3503820D01*
X10476952Y3503820D01*
X10553142Y3465724D01*
X10591238Y3427629D01*
X10629333Y3351439D01*
X10629333Y3237153D01*
X10591238Y3160963D01*
X10553142Y3122867D01*
X10476952Y3084772D01*
X10172190Y3084772D01*
X11391238Y2703820D02*
X10934095Y2703820D01*
X11162666Y2703820D02*
X11162666Y3503820D01*
X11086476Y3389534D01*
X11010285Y3313344D01*
X10934095Y3275248D01*
X11695999Y3427629D02*
X11734095Y3465724D01*
X11810285Y3503820D01*
X12000761Y3503820D01*
X12076952Y3465724D01*
X12115047Y3427629D01*
X12153142Y3351439D01*
X12153142Y3275248D01*
X12115047Y3160963D01*
X11657904Y2703820D01*
X12153142Y2703820D01*
%TO.C,R11*%
X3111904Y31735715D02*
X2730952Y31469048D01*
X3111904Y31278572D02*
X2311904Y31278572D01*
X2311904Y31583334D01*
X2350000Y31659524D01*
X2388095Y31697620D01*
X2464285Y31735715D01*
X2578571Y31735715D01*
X2654761Y31697620D01*
X2692857Y31659524D01*
X2730952Y31583334D01*
X2730952Y31278572D01*
X3111904Y32497620D02*
X3111904Y32040477D01*
X3111904Y32269048D02*
X2311904Y32269048D01*
X2426190Y32192858D01*
X2502380Y32116667D01*
X2540476Y32040477D01*
X3111904Y33259524D02*
X3111904Y32802381D01*
X3111904Y33030953D02*
X2311904Y33030953D01*
X2426190Y32954762D01*
X2502380Y32878572D01*
X2540476Y32802381D01*
%TO.C,R10*%
X26677628Y53342096D02*
X26296676Y53075429D01*
X26677628Y52884953D02*
X25877628Y52884953D01*
X25877628Y53189715D01*
X25915724Y53265905D01*
X25953819Y53304001D01*
X26030009Y53342096D01*
X26144295Y53342096D01*
X26220485Y53304001D01*
X26258581Y53265905D01*
X26296676Y53189715D01*
X26296676Y52884953D01*
X26677628Y54104001D02*
X26677628Y53646858D01*
X26677628Y53875429D02*
X25877628Y53875429D01*
X25991914Y53799239D01*
X26068104Y53723048D01*
X26106200Y53646858D01*
X25877628Y54599239D02*
X25877628Y54675429D01*
X25915724Y54751620D01*
X25953819Y54789715D01*
X26030009Y54827810D01*
X26182390Y54865905D01*
X26372866Y54865905D01*
X26525247Y54827810D01*
X26601438Y54789715D01*
X26639533Y54751620D01*
X26677628Y54675429D01*
X26677628Y54599239D01*
X26639533Y54523048D01*
X26601438Y54484953D01*
X26525247Y54446858D01*
X26372866Y54408762D01*
X26182390Y54408762D01*
X26030009Y54446858D01*
X25953819Y54484953D01*
X25915724Y54523048D01*
X25877628Y54599239D01*
%TO.C,R9*%
X19361904Y38366667D02*
X18980952Y38100000D01*
X19361904Y37909524D02*
X18561904Y37909524D01*
X18561904Y38214286D01*
X18600000Y38290477D01*
X18638095Y38328572D01*
X18714285Y38366667D01*
X18828571Y38366667D01*
X18904761Y38328572D01*
X18942857Y38290477D01*
X18980952Y38214286D01*
X18980952Y37909524D01*
X19361904Y38747620D02*
X19361904Y38900000D01*
X19323809Y38976191D01*
X19285714Y39014286D01*
X19171428Y39090477D01*
X19019047Y39128572D01*
X18714285Y39128572D01*
X18638095Y39090477D01*
X18600000Y39052381D01*
X18561904Y38976191D01*
X18561904Y38823810D01*
X18600000Y38747620D01*
X18638095Y38709524D01*
X18714285Y38671429D01*
X18904761Y38671429D01*
X18980952Y38709524D01*
X19019047Y38747620D01*
X19057142Y38823810D01*
X19057142Y38976191D01*
X19019047Y39052381D01*
X18980952Y39090477D01*
X18904761Y39128572D01*
%TO.C,R8*%
X17116666Y41138096D02*
X16850000Y41519048D01*
X16659523Y41138096D02*
X16659523Y41938096D01*
X16964285Y41938096D01*
X17040476Y41900000D01*
X17078571Y41861905D01*
X17116666Y41785715D01*
X17116666Y41671429D01*
X17078571Y41595239D01*
X17040476Y41557143D01*
X16964285Y41519048D01*
X16659523Y41519048D01*
X17573809Y41595239D02*
X17497619Y41633334D01*
X17459523Y41671429D01*
X17421428Y41747620D01*
X17421428Y41785715D01*
X17459523Y41861905D01*
X17497619Y41900000D01*
X17573809Y41938096D01*
X17726190Y41938096D01*
X17802380Y41900000D01*
X17840476Y41861905D01*
X17878571Y41785715D01*
X17878571Y41747620D01*
X17840476Y41671429D01*
X17802380Y41633334D01*
X17726190Y41595239D01*
X17573809Y41595239D01*
X17497619Y41557143D01*
X17459523Y41519048D01*
X17421428Y41442858D01*
X17421428Y41290477D01*
X17459523Y41214286D01*
X17497619Y41176191D01*
X17573809Y41138096D01*
X17726190Y41138096D01*
X17802380Y41176191D01*
X17840476Y41214286D01*
X17878571Y41290477D01*
X17878571Y41442858D01*
X17840476Y41519048D01*
X17802380Y41557143D01*
X17726190Y41595239D01*
%TO.C,R7*%
X19611904Y26616667D02*
X19230952Y26350000D01*
X19611904Y26159524D02*
X18811904Y26159524D01*
X18811904Y26464286D01*
X18850000Y26540477D01*
X18888095Y26578572D01*
X18964285Y26616667D01*
X19078571Y26616667D01*
X19154761Y26578572D01*
X19192857Y26540477D01*
X19230952Y26464286D01*
X19230952Y26159524D01*
X18811904Y26883334D02*
X18811904Y27416667D01*
X19611904Y27073810D01*
%TO.C,R6*%
X19246180Y49060286D02*
X18865228Y48793619D01*
X19246180Y48603143D02*
X18446180Y48603143D01*
X18446180Y48907905D01*
X18484276Y48984096D01*
X18522371Y49022191D01*
X18598561Y49060286D01*
X18712847Y49060286D01*
X18789037Y49022191D01*
X18827133Y48984096D01*
X18865228Y48907905D01*
X18865228Y48603143D01*
X18446180Y49746000D02*
X18446180Y49593619D01*
X18484276Y49517429D01*
X18522371Y49479334D01*
X18636656Y49403143D01*
X18789037Y49365048D01*
X19093799Y49365048D01*
X19169990Y49403143D01*
X19208085Y49441239D01*
X19246180Y49517429D01*
X19246180Y49669810D01*
X19208085Y49746000D01*
X19169990Y49784096D01*
X19093799Y49822191D01*
X18903323Y49822191D01*
X18827133Y49784096D01*
X18789037Y49746000D01*
X18750942Y49669810D01*
X18750942Y49517429D01*
X18789037Y49441239D01*
X18827133Y49403143D01*
X18903323Y49365048D01*
%TO.C,R5*%
X3111904Y38116667D02*
X2730952Y37850000D01*
X3111904Y37659524D02*
X2311904Y37659524D01*
X2311904Y37964286D01*
X2350000Y38040477D01*
X2388095Y38078572D01*
X2464285Y38116667D01*
X2578571Y38116667D01*
X2654761Y38078572D01*
X2692857Y38040477D01*
X2730952Y37964286D01*
X2730952Y37659524D01*
X2311904Y38840477D02*
X2311904Y38459524D01*
X2692857Y38421429D01*
X2654761Y38459524D01*
X2616666Y38535715D01*
X2616666Y38726191D01*
X2654761Y38802381D01*
X2692857Y38840477D01*
X2769047Y38878572D01*
X2959523Y38878572D01*
X3035714Y38840477D01*
X3073809Y38802381D01*
X3111904Y38726191D01*
X3111904Y38535715D01*
X3073809Y38459524D01*
X3035714Y38421429D01*
%TO.C,R4*%
X3111904Y44366667D02*
X2730952Y44100000D01*
X3111904Y43909524D02*
X2311904Y43909524D01*
X2311904Y44214286D01*
X2350000Y44290477D01*
X2388095Y44328572D01*
X2464285Y44366667D01*
X2578571Y44366667D01*
X2654761Y44328572D01*
X2692857Y44290477D01*
X2730952Y44214286D01*
X2730952Y43909524D01*
X2578571Y45052381D02*
X3111904Y45052381D01*
X2273809Y44861905D02*
X2845238Y44671429D01*
X2845238Y45166667D01*
%TO.C,R3*%
X3111904Y25866667D02*
X2730952Y25600000D01*
X3111904Y25409524D02*
X2311904Y25409524D01*
X2311904Y25714286D01*
X2350000Y25790477D01*
X2388095Y25828572D01*
X2464285Y25866667D01*
X2578571Y25866667D01*
X2654761Y25828572D01*
X2692857Y25790477D01*
X2730952Y25714286D01*
X2730952Y25409524D01*
X2311904Y26133334D02*
X2311904Y26628572D01*
X2616666Y26361905D01*
X2616666Y26476191D01*
X2654761Y26552381D01*
X2692857Y26590477D01*
X2769047Y26628572D01*
X2959523Y26628572D01*
X3035714Y26590477D01*
X3073809Y26552381D01*
X3111904Y26476191D01*
X3111904Y26247620D01*
X3073809Y26171429D01*
X3035714Y26133334D01*
%TO.C,R2*%
X3111904Y49866667D02*
X2730952Y49600000D01*
X3111904Y49409524D02*
X2311904Y49409524D01*
X2311904Y49714286D01*
X2350000Y49790477D01*
X2388095Y49828572D01*
X2464285Y49866667D01*
X2578571Y49866667D01*
X2654761Y49828572D01*
X2692857Y49790477D01*
X2730952Y49714286D01*
X2730952Y49409524D01*
X2388095Y50171429D02*
X2350000Y50209524D01*
X2311904Y50285715D01*
X2311904Y50476191D01*
X2350000Y50552381D01*
X2388095Y50590477D01*
X2464285Y50628572D01*
X2540476Y50628572D01*
X2654761Y50590477D01*
X3111904Y50133334D01*
X3111904Y50628572D01*
%TO.C,R1*%
X14361904Y54116667D02*
X13980952Y53850000D01*
X14361904Y53659524D02*
X13561904Y53659524D01*
X13561904Y53964286D01*
X13600000Y54040477D01*
X13638095Y54078572D01*
X13714285Y54116667D01*
X13828571Y54116667D01*
X13904761Y54078572D01*
X13942857Y54040477D01*
X13980952Y53964286D01*
X13980952Y53659524D01*
X14361904Y54878572D02*
X14361904Y54421429D01*
X14361904Y54650000D02*
X13561904Y54650000D01*
X13676190Y54573810D01*
X13752380Y54497620D01*
X13790476Y54421429D01*
%TO.C,D13*%
X68154952Y51062372D02*
X68154952Y51862372D01*
X68345428Y51862372D01*
X68459714Y51824276D01*
X68535904Y51748086D01*
X68574000Y51671896D01*
X68612095Y51519515D01*
X68612095Y51405229D01*
X68574000Y51252848D01*
X68535904Y51176657D01*
X68459714Y51100467D01*
X68345428Y51062372D01*
X68154952Y51062372D01*
X69374000Y51062372D02*
X68916857Y51062372D01*
X69145428Y51062372D02*
X69145428Y51862372D01*
X69069238Y51748086D01*
X68993047Y51671896D01*
X68916857Y51633800D01*
X69640666Y51862372D02*
X70135904Y51862372D01*
X69869238Y51557610D01*
X69983523Y51557610D01*
X70059714Y51519515D01*
X70097809Y51481419D01*
X70135904Y51405229D01*
X70135904Y51214753D01*
X70097809Y51138562D01*
X70059714Y51100467D01*
X69983523Y51062372D01*
X69754952Y51062372D01*
X69678761Y51100467D01*
X69640666Y51138562D01*
%TO.C,D12*%
X32904952Y46312372D02*
X32904952Y47112372D01*
X33095428Y47112372D01*
X33209714Y47074276D01*
X33285904Y46998086D01*
X33324000Y46921896D01*
X33362095Y46769515D01*
X33362095Y46655229D01*
X33324000Y46502848D01*
X33285904Y46426657D01*
X33209714Y46350467D01*
X33095428Y46312372D01*
X32904952Y46312372D01*
X34124000Y46312372D02*
X33666857Y46312372D01*
X33895428Y46312372D02*
X33895428Y47112372D01*
X33819238Y46998086D01*
X33743047Y46921896D01*
X33666857Y46883800D01*
X34428761Y47036181D02*
X34466857Y47074276D01*
X34543047Y47112372D01*
X34733523Y47112372D01*
X34809714Y47074276D01*
X34847809Y47036181D01*
X34885904Y46959991D01*
X34885904Y46883800D01*
X34847809Y46769515D01*
X34390666Y46312372D01*
X34885904Y46312372D01*
%TO.C,D11*%
X70028571Y38638096D02*
X70028571Y39438096D01*
X70219047Y39438096D01*
X70333333Y39400000D01*
X70409523Y39323810D01*
X70447619Y39247620D01*
X70485714Y39095239D01*
X70485714Y38980953D01*
X70447619Y38828572D01*
X70409523Y38752381D01*
X70333333Y38676191D01*
X70219047Y38638096D01*
X70028571Y38638096D01*
X71247619Y38638096D02*
X70790476Y38638096D01*
X71019047Y38638096D02*
X71019047Y39438096D01*
X70942857Y39323810D01*
X70866666Y39247620D01*
X70790476Y39209524D01*
X72009523Y38638096D02*
X71552380Y38638096D01*
X71780952Y38638096D02*
X71780952Y39438096D01*
X71704761Y39323810D01*
X71628571Y39247620D01*
X71552380Y39209524D01*
%TO.C,D10*%
X33778571Y36138096D02*
X33778571Y36938096D01*
X33969047Y36938096D01*
X34083333Y36900000D01*
X34159523Y36823810D01*
X34197619Y36747620D01*
X34235714Y36595239D01*
X34235714Y36480953D01*
X34197619Y36328572D01*
X34159523Y36252381D01*
X34083333Y36176191D01*
X33969047Y36138096D01*
X33778571Y36138096D01*
X34997619Y36138096D02*
X34540476Y36138096D01*
X34769047Y36138096D02*
X34769047Y36938096D01*
X34692857Y36823810D01*
X34616666Y36747620D01*
X34540476Y36709524D01*
X35492857Y36938096D02*
X35569047Y36938096D01*
X35645238Y36900000D01*
X35683333Y36861905D01*
X35721428Y36785715D01*
X35759523Y36633334D01*
X35759523Y36442858D01*
X35721428Y36290477D01*
X35683333Y36214286D01*
X35645238Y36176191D01*
X35569047Y36138096D01*
X35492857Y36138096D01*
X35416666Y36176191D01*
X35378571Y36214286D01*
X35340476Y36290477D01*
X35302380Y36442858D01*
X35302380Y36633334D01*
X35340476Y36785715D01*
X35378571Y36861905D01*
X35416666Y36900000D01*
X35492857Y36938096D01*
%TO.C,D9*%
X70035904Y21812372D02*
X70035904Y22612372D01*
X70226381Y22612372D01*
X70340666Y22574276D01*
X70416857Y22498086D01*
X70454952Y22421896D01*
X70493047Y22269515D01*
X70493047Y22155229D01*
X70454952Y22002848D01*
X70416857Y21926657D01*
X70340666Y21850467D01*
X70226381Y21812372D01*
X70035904Y21812372D01*
X70874000Y21812372D02*
X71026381Y21812372D01*
X71102571Y21850467D01*
X71140666Y21888562D01*
X71216857Y22002848D01*
X71254952Y22155229D01*
X71254952Y22459991D01*
X71216857Y22536181D01*
X71178761Y22574276D01*
X71102571Y22612372D01*
X70950190Y22612372D01*
X70874000Y22574276D01*
X70835904Y22536181D01*
X70797809Y22459991D01*
X70797809Y22269515D01*
X70835904Y22193324D01*
X70874000Y22155229D01*
X70950190Y22117134D01*
X71102571Y22117134D01*
X71178761Y22155229D01*
X71216857Y22193324D01*
X71254952Y22269515D01*
%TO.C,D8*%
X34159523Y12638096D02*
X34159523Y13438096D01*
X34350000Y13438096D01*
X34464285Y13400000D01*
X34540476Y13323810D01*
X34578571Y13247620D01*
X34616666Y13095239D01*
X34616666Y12980953D01*
X34578571Y12828572D01*
X34540476Y12752381D01*
X34464285Y12676191D01*
X34350000Y12638096D01*
X34159523Y12638096D01*
X35073809Y13095239D02*
X34997619Y13133334D01*
X34959523Y13171429D01*
X34921428Y13247620D01*
X34921428Y13285715D01*
X34959523Y13361905D01*
X34997619Y13400000D01*
X35073809Y13438096D01*
X35226190Y13438096D01*
X35302380Y13400000D01*
X35340476Y13361905D01*
X35378571Y13285715D01*
X35378571Y13247620D01*
X35340476Y13171429D01*
X35302380Y13133334D01*
X35226190Y13095239D01*
X35073809Y13095239D01*
X34997619Y13057143D01*
X34959523Y13019048D01*
X34921428Y12942858D01*
X34921428Y12790477D01*
X34959523Y12714286D01*
X34997619Y12676191D01*
X35073809Y12638096D01*
X35226190Y12638096D01*
X35302380Y12676191D01*
X35340476Y12714286D01*
X35378571Y12790477D01*
X35378571Y12942858D01*
X35340476Y13019048D01*
X35302380Y13057143D01*
X35226190Y13095239D01*
%TO.C,D7*%
X68535904Y11062372D02*
X68535904Y11862372D01*
X68726381Y11862372D01*
X68840666Y11824276D01*
X68916857Y11748086D01*
X68954952Y11671896D01*
X68993047Y11519515D01*
X68993047Y11405229D01*
X68954952Y11252848D01*
X68916857Y11176657D01*
X68840666Y11100467D01*
X68726381Y11062372D01*
X68535904Y11062372D01*
X69259714Y11862372D02*
X69793047Y11862372D01*
X69450190Y11062372D01*
%TO.C,D6*%
X34159523Y1888096D02*
X34159523Y2688096D01*
X34350000Y2688096D01*
X34464285Y2650000D01*
X34540476Y2573810D01*
X34578571Y2497620D01*
X34616666Y2345239D01*
X34616666Y2230953D01*
X34578571Y2078572D01*
X34540476Y2002381D01*
X34464285Y1926191D01*
X34350000Y1888096D01*
X34159523Y1888096D01*
X35302380Y2688096D02*
X35150000Y2688096D01*
X35073809Y2650000D01*
X35035714Y2611905D01*
X34959523Y2497620D01*
X34921428Y2345239D01*
X34921428Y2040477D01*
X34959523Y1964286D01*
X34997619Y1926191D01*
X35073809Y1888096D01*
X35226190Y1888096D01*
X35302380Y1926191D01*
X35340476Y1964286D01*
X35378571Y2040477D01*
X35378571Y2230953D01*
X35340476Y2307143D01*
X35302380Y2345239D01*
X35226190Y2383334D01*
X35073809Y2383334D01*
X34997619Y2345239D01*
X34959523Y2307143D01*
X34921428Y2230953D01*
%TO.C,D5*%
X83785904Y2812372D02*
X83785904Y3612372D01*
X83976381Y3612372D01*
X84090666Y3574276D01*
X84166857Y3498086D01*
X84204952Y3421896D01*
X84243047Y3269515D01*
X84243047Y3155229D01*
X84204952Y3002848D01*
X84166857Y2926657D01*
X84090666Y2850467D01*
X83976381Y2812372D01*
X83785904Y2812372D01*
X84966857Y3612372D02*
X84585904Y3612372D01*
X84547809Y3231419D01*
X84585904Y3269515D01*
X84662095Y3307610D01*
X84852571Y3307610D01*
X84928761Y3269515D01*
X84966857Y3231419D01*
X85004952Y3155229D01*
X85004952Y2964753D01*
X84966857Y2888562D01*
X84928761Y2850467D01*
X84852571Y2812372D01*
X84662095Y2812372D01*
X84585904Y2850467D01*
X84547809Y2888562D01*
%TO.C,D4*%
X34159523Y62388096D02*
X34159523Y63188096D01*
X34350000Y63188096D01*
X34464285Y63150000D01*
X34540476Y63073810D01*
X34578571Y62997620D01*
X34616666Y62845239D01*
X34616666Y62730953D01*
X34578571Y62578572D01*
X34540476Y62502381D01*
X34464285Y62426191D01*
X34350000Y62388096D01*
X34159523Y62388096D01*
X35302380Y62921429D02*
X35302380Y62388096D01*
X35111904Y63226191D02*
X34921428Y62654762D01*
X35416666Y62654762D01*
%TO.C,D3*%
X35409523Y21638096D02*
X35409523Y22438096D01*
X35600000Y22438096D01*
X35714285Y22400000D01*
X35790476Y22323810D01*
X35828571Y22247620D01*
X35866666Y22095239D01*
X35866666Y21980953D01*
X35828571Y21828572D01*
X35790476Y21752381D01*
X35714285Y21676191D01*
X35600000Y21638096D01*
X35409523Y21638096D01*
X36133333Y22438096D02*
X36628571Y22438096D01*
X36361904Y22133334D01*
X36476190Y22133334D01*
X36552380Y22095239D01*
X36590476Y22057143D01*
X36628571Y21980953D01*
X36628571Y21790477D01*
X36590476Y21714286D01*
X36552380Y21676191D01*
X36476190Y21638096D01*
X36247619Y21638096D01*
X36171428Y21676191D01*
X36133333Y21714286D01*
%TO.C,D2*%
X33083142Y22963820D02*
X33083142Y23763820D01*
X33273619Y23763820D01*
X33387904Y23725724D01*
X33464095Y23649534D01*
X33502190Y23573344D01*
X33540285Y23420963D01*
X33540285Y23306677D01*
X33502190Y23154296D01*
X33464095Y23078105D01*
X33387904Y23001915D01*
X33273619Y22963820D01*
X33083142Y22963820D01*
X33845047Y23687629D02*
X33883142Y23725724D01*
X33959333Y23763820D01*
X34149809Y23763820D01*
X34225999Y23725724D01*
X34264095Y23687629D01*
X34302190Y23611439D01*
X34302190Y23535248D01*
X34264095Y23420963D01*
X33806952Y22963820D01*
X34302190Y22963820D01*
%TO.C,D1*%
X30909523Y11888096D02*
X30909523Y12688096D01*
X31100000Y12688096D01*
X31214285Y12650000D01*
X31290476Y12573810D01*
X31328571Y12497620D01*
X31366666Y12345239D01*
X31366666Y12230953D01*
X31328571Y12078572D01*
X31290476Y12002381D01*
X31214285Y11926191D01*
X31100000Y11888096D01*
X30909523Y11888096D01*
X32128571Y11888096D02*
X31671428Y11888096D01*
X31900000Y11888096D02*
X31900000Y12688096D01*
X31823809Y12573810D01*
X31747619Y12497620D01*
X31671428Y12459524D01*
%TO.C,C19*%
X83757095Y9063562D02*
X83719000Y9025467D01*
X83604714Y8987372D01*
X83528523Y8987372D01*
X83414238Y9025467D01*
X83338047Y9101657D01*
X83299952Y9177848D01*
X83261857Y9330229D01*
X83261857Y9444515D01*
X83299952Y9596896D01*
X83338047Y9673086D01*
X83414238Y9749276D01*
X83528523Y9787372D01*
X83604714Y9787372D01*
X83719000Y9749276D01*
X83757095Y9711181D01*
X84519000Y8987372D02*
X84061857Y8987372D01*
X84290428Y8987372D02*
X84290428Y9787372D01*
X84214238Y9673086D01*
X84138047Y9596896D01*
X84061857Y9558800D01*
X84899952Y8987372D02*
X85052333Y8987372D01*
X85128523Y9025467D01*
X85166619Y9063562D01*
X85242809Y9177848D01*
X85280904Y9330229D01*
X85280904Y9634991D01*
X85242809Y9711181D01*
X85204714Y9749276D01*
X85128523Y9787372D01*
X84976142Y9787372D01*
X84899952Y9749276D01*
X84861857Y9711181D01*
X84823761Y9634991D01*
X84823761Y9444515D01*
X84861857Y9368324D01*
X84899952Y9330229D01*
X84976142Y9292134D01*
X85128523Y9292134D01*
X85204714Y9330229D01*
X85242809Y9368324D01*
X85280904Y9444515D01*
%TO.C,C18*%
X16985714Y56714286D02*
X16947619Y56676191D01*
X16833333Y56638096D01*
X16757142Y56638096D01*
X16642857Y56676191D01*
X16566666Y56752381D01*
X16528571Y56828572D01*
X16490476Y56980953D01*
X16490476Y57095239D01*
X16528571Y57247620D01*
X16566666Y57323810D01*
X16642857Y57400000D01*
X16757142Y57438096D01*
X16833333Y57438096D01*
X16947619Y57400000D01*
X16985714Y57361905D01*
X17747619Y56638096D02*
X17290476Y56638096D01*
X17519047Y56638096D02*
X17519047Y57438096D01*
X17442857Y57323810D01*
X17366666Y57247620D01*
X17290476Y57209524D01*
X18204761Y57095239D02*
X18128571Y57133334D01*
X18090476Y57171429D01*
X18052380Y57247620D01*
X18052380Y57285715D01*
X18090476Y57361905D01*
X18128571Y57400000D01*
X18204761Y57438096D01*
X18357142Y57438096D01*
X18433333Y57400000D01*
X18471428Y57361905D01*
X18509523Y57285715D01*
X18509523Y57247620D01*
X18471428Y57171429D01*
X18433333Y57133334D01*
X18357142Y57095239D01*
X18204761Y57095239D01*
X18128571Y57057143D01*
X18090476Y57019048D01*
X18052380Y56942858D01*
X18052380Y56790477D01*
X18090476Y56714286D01*
X18128571Y56676191D01*
X18204761Y56638096D01*
X18357142Y56638096D01*
X18433333Y56676191D01*
X18471428Y56714286D01*
X18509523Y56790477D01*
X18509523Y56942858D01*
X18471428Y57019048D01*
X18433333Y57057143D01*
X18357142Y57095239D01*
%TO.C,C17*%
X11485714Y71214286D02*
X11447619Y71176191D01*
X11333333Y71138096D01*
X11257142Y71138096D01*
X11142857Y71176191D01*
X11066666Y71252381D01*
X11028571Y71328572D01*
X10990476Y71480953D01*
X10990476Y71595239D01*
X11028571Y71747620D01*
X11066666Y71823810D01*
X11142857Y71900000D01*
X11257142Y71938096D01*
X11333333Y71938096D01*
X11447619Y71900000D01*
X11485714Y71861905D01*
X12247619Y71138096D02*
X11790476Y71138096D01*
X12019047Y71138096D02*
X12019047Y71938096D01*
X11942857Y71823810D01*
X11866666Y71747620D01*
X11790476Y71709524D01*
X12514285Y71938096D02*
X13047619Y71938096D01*
X12704761Y71138096D01*
%TO.C,C16*%
X19601438Y35842096D02*
X19639533Y35804001D01*
X19677628Y35689715D01*
X19677628Y35613524D01*
X19639533Y35499239D01*
X19563343Y35423048D01*
X19487152Y35384953D01*
X19334771Y35346858D01*
X19220485Y35346858D01*
X19068104Y35384953D01*
X18991914Y35423048D01*
X18915724Y35499239D01*
X18877628Y35613524D01*
X18877628Y35689715D01*
X18915724Y35804001D01*
X18953819Y35842096D01*
X19677628Y36604001D02*
X19677628Y36146858D01*
X19677628Y36375429D02*
X18877628Y36375429D01*
X18991914Y36299239D01*
X19068104Y36223048D01*
X19106200Y36146858D01*
X18877628Y37289715D02*
X18877628Y37137334D01*
X18915724Y37061143D01*
X18953819Y37023048D01*
X19068104Y36946858D01*
X19220485Y36908762D01*
X19525247Y36908762D01*
X19601438Y36946858D01*
X19639533Y36984953D01*
X19677628Y37061143D01*
X19677628Y37213524D01*
X19639533Y37289715D01*
X19601438Y37327810D01*
X19525247Y37365905D01*
X19334771Y37365905D01*
X19258581Y37327810D01*
X19220485Y37289715D01*
X19182390Y37213524D01*
X19182390Y37061143D01*
X19220485Y36984953D01*
X19258581Y36946858D01*
X19334771Y36908762D01*
%TO.C,C14*%
X38235714Y55964286D02*
X38197619Y55926191D01*
X38083333Y55888096D01*
X38007142Y55888096D01*
X37892857Y55926191D01*
X37816666Y56002381D01*
X37778571Y56078572D01*
X37740476Y56230953D01*
X37740476Y56345239D01*
X37778571Y56497620D01*
X37816666Y56573810D01*
X37892857Y56650000D01*
X38007142Y56688096D01*
X38083333Y56688096D01*
X38197619Y56650000D01*
X38235714Y56611905D01*
X38997619Y55888096D02*
X38540476Y55888096D01*
X38769047Y55888096D02*
X38769047Y56688096D01*
X38692857Y56573810D01*
X38616666Y56497620D01*
X38540476Y56459524D01*
X39683333Y56421429D02*
X39683333Y55888096D01*
X39492857Y56726191D02*
X39302380Y56154762D01*
X39797619Y56154762D01*
%TO.C,C12*%
X39379333Y59030010D02*
X39341238Y58991915D01*
X39226952Y58953820D01*
X39150761Y58953820D01*
X39036476Y58991915D01*
X38960285Y59068105D01*
X38922190Y59144296D01*
X38884095Y59296677D01*
X38884095Y59410963D01*
X38922190Y59563344D01*
X38960285Y59639534D01*
X39036476Y59715724D01*
X39150761Y59753820D01*
X39226952Y59753820D01*
X39341238Y59715724D01*
X39379333Y59677629D01*
X40141238Y58953820D02*
X39684095Y58953820D01*
X39912666Y58953820D02*
X39912666Y59753820D01*
X39836476Y59639534D01*
X39760285Y59563344D01*
X39684095Y59525248D01*
X40445999Y59677629D02*
X40484095Y59715724D01*
X40560285Y59753820D01*
X40750761Y59753820D01*
X40826952Y59715724D01*
X40865047Y59677629D01*
X40903142Y59601439D01*
X40903142Y59525248D01*
X40865047Y59410963D01*
X40407904Y58953820D01*
X40903142Y58953820D01*
%TO.C,C11*%
X51235714Y28464286D02*
X51197619Y28426191D01*
X51083333Y28388096D01*
X51007142Y28388096D01*
X50892857Y28426191D01*
X50816666Y28502381D01*
X50778571Y28578572D01*
X50740476Y28730953D01*
X50740476Y28845239D01*
X50778571Y28997620D01*
X50816666Y29073810D01*
X50892857Y29150000D01*
X51007142Y29188096D01*
X51083333Y29188096D01*
X51197619Y29150000D01*
X51235714Y29111905D01*
X51997619Y28388096D02*
X51540476Y28388096D01*
X51769047Y28388096D02*
X51769047Y29188096D01*
X51692857Y29073810D01*
X51616666Y28997620D01*
X51540476Y28959524D01*
X52759523Y28388096D02*
X52302380Y28388096D01*
X52530952Y28388096D02*
X52530952Y29188096D01*
X52454761Y29073810D01*
X52378571Y28997620D01*
X52302380Y28959524D01*
%TO.C,C10*%
X57735714Y28464286D02*
X57697619Y28426191D01*
X57583333Y28388096D01*
X57507142Y28388096D01*
X57392857Y28426191D01*
X57316666Y28502381D01*
X57278571Y28578572D01*
X57240476Y28730953D01*
X57240476Y28845239D01*
X57278571Y28997620D01*
X57316666Y29073810D01*
X57392857Y29150000D01*
X57507142Y29188096D01*
X57583333Y29188096D01*
X57697619Y29150000D01*
X57735714Y29111905D01*
X58497619Y28388096D02*
X58040476Y28388096D01*
X58269047Y28388096D02*
X58269047Y29188096D01*
X58192857Y29073810D01*
X58116666Y28997620D01*
X58040476Y28959524D01*
X58992857Y29188096D02*
X59069047Y29188096D01*
X59145238Y29150000D01*
X59183333Y29111905D01*
X59221428Y29035715D01*
X59259523Y28883334D01*
X59259523Y28692858D01*
X59221428Y28540477D01*
X59183333Y28464286D01*
X59145238Y28426191D01*
X59069047Y28388096D01*
X58992857Y28388096D01*
X58916666Y28426191D01*
X58878571Y28464286D01*
X58840476Y28540477D01*
X58802380Y28692858D01*
X58802380Y28883334D01*
X58840476Y29035715D01*
X58878571Y29111905D01*
X58916666Y29150000D01*
X58992857Y29188096D01*
%TO.C,C9*%
X29866666Y60464286D02*
X29828571Y60426191D01*
X29714285Y60388096D01*
X29638095Y60388096D01*
X29523809Y60426191D01*
X29447619Y60502381D01*
X29409523Y60578572D01*
X29371428Y60730953D01*
X29371428Y60845239D01*
X29409523Y60997620D01*
X29447619Y61073810D01*
X29523809Y61150000D01*
X29638095Y61188096D01*
X29714285Y61188096D01*
X29828571Y61150000D01*
X29866666Y61111905D01*
X30247619Y60388096D02*
X30400000Y60388096D01*
X30476190Y60426191D01*
X30514285Y60464286D01*
X30590476Y60578572D01*
X30628571Y60730953D01*
X30628571Y61035715D01*
X30590476Y61111905D01*
X30552380Y61150000D01*
X30476190Y61188096D01*
X30323809Y61188096D01*
X30247619Y61150000D01*
X30209523Y61111905D01*
X30171428Y61035715D01*
X30171428Y60845239D01*
X30209523Y60769048D01*
X30247619Y60730953D01*
X30323809Y60692858D01*
X30476190Y60692858D01*
X30552380Y60730953D01*
X30590476Y60769048D01*
X30628571Y60845239D01*
%TO.C,C8*%
X37866666Y58464286D02*
X37828571Y58426191D01*
X37714285Y58388096D01*
X37638095Y58388096D01*
X37523809Y58426191D01*
X37447619Y58502381D01*
X37409523Y58578572D01*
X37371428Y58730953D01*
X37371428Y58845239D01*
X37409523Y58997620D01*
X37447619Y59073810D01*
X37523809Y59150000D01*
X37638095Y59188096D01*
X37714285Y59188096D01*
X37828571Y59150000D01*
X37866666Y59111905D01*
X38323809Y58845239D02*
X38247619Y58883334D01*
X38209523Y58921429D01*
X38171428Y58997620D01*
X38171428Y59035715D01*
X38209523Y59111905D01*
X38247619Y59150000D01*
X38323809Y59188096D01*
X38476190Y59188096D01*
X38552380Y59150000D01*
X38590476Y59111905D01*
X38628571Y59035715D01*
X38628571Y58997620D01*
X38590476Y58921429D01*
X38552380Y58883334D01*
X38476190Y58845239D01*
X38323809Y58845239D01*
X38247619Y58807143D01*
X38209523Y58769048D01*
X38171428Y58692858D01*
X38171428Y58540477D01*
X38209523Y58464286D01*
X38247619Y58426191D01*
X38323809Y58388096D01*
X38476190Y58388096D01*
X38552380Y58426191D01*
X38590476Y58464286D01*
X38628571Y58540477D01*
X38628571Y58692858D01*
X38590476Y58769048D01*
X38552380Y58807143D01*
X38476190Y58845239D01*
%TO.C,C7*%
X30035714Y24616667D02*
X30073809Y24578572D01*
X30111904Y24464286D01*
X30111904Y24388096D01*
X30073809Y24273810D01*
X29997619Y24197620D01*
X29921428Y24159524D01*
X29769047Y24121429D01*
X29654761Y24121429D01*
X29502380Y24159524D01*
X29426190Y24197620D01*
X29350000Y24273810D01*
X29311904Y24388096D01*
X29311904Y24464286D01*
X29350000Y24578572D01*
X29388095Y24616667D01*
X29311904Y24883334D02*
X29311904Y25416667D01*
X30111904Y25073810D01*
%TO.C,C6*%
X27366666Y19464286D02*
X27328571Y19426191D01*
X27214285Y19388096D01*
X27138095Y19388096D01*
X27023809Y19426191D01*
X26947619Y19502381D01*
X26909523Y19578572D01*
X26871428Y19730953D01*
X26871428Y19845239D01*
X26909523Y19997620D01*
X26947619Y20073810D01*
X27023809Y20150000D01*
X27138095Y20188096D01*
X27214285Y20188096D01*
X27328571Y20150000D01*
X27366666Y20111905D01*
X28052380Y20188096D02*
X27900000Y20188096D01*
X27823809Y20150000D01*
X27785714Y20111905D01*
X27709523Y19997620D01*
X27671428Y19845239D01*
X27671428Y19540477D01*
X27709523Y19464286D01*
X27747619Y19426191D01*
X27823809Y19388096D01*
X27976190Y19388096D01*
X28052380Y19426191D01*
X28090476Y19464286D01*
X28128571Y19540477D01*
X28128571Y19730953D01*
X28090476Y19807143D01*
X28052380Y19845239D01*
X27976190Y19883334D01*
X27823809Y19883334D01*
X27747619Y19845239D01*
X27709523Y19807143D01*
X27671428Y19730953D01*
%TO.C,C5*%
X38116666Y22714286D02*
X38078571Y22676191D01*
X37964285Y22638096D01*
X37888095Y22638096D01*
X37773809Y22676191D01*
X37697619Y22752381D01*
X37659523Y22828572D01*
X37621428Y22980953D01*
X37621428Y23095239D01*
X37659523Y23247620D01*
X37697619Y23323810D01*
X37773809Y23400000D01*
X37888095Y23438096D01*
X37964285Y23438096D01*
X38078571Y23400000D01*
X38116666Y23361905D01*
X38840476Y23438096D02*
X38459523Y23438096D01*
X38421428Y23057143D01*
X38459523Y23095239D01*
X38535714Y23133334D01*
X38726190Y23133334D01*
X38802380Y23095239D01*
X38840476Y23057143D01*
X38878571Y22980953D01*
X38878571Y22790477D01*
X38840476Y22714286D01*
X38802380Y22676191D01*
X38726190Y22638096D01*
X38535714Y22638096D01*
X38459523Y22676191D01*
X38421428Y22714286D01*
%TO.C,C4*%
X28366666Y7214286D02*
X28328571Y7176191D01*
X28214285Y7138096D01*
X28138095Y7138096D01*
X28023809Y7176191D01*
X27947619Y7252381D01*
X27909523Y7328572D01*
X27871428Y7480953D01*
X27871428Y7595239D01*
X27909523Y7747620D01*
X27947619Y7823810D01*
X28023809Y7900000D01*
X28138095Y7938096D01*
X28214285Y7938096D01*
X28328571Y7900000D01*
X28366666Y7861905D01*
X29052380Y7671429D02*
X29052380Y7138096D01*
X28861904Y7976191D02*
X28671428Y7404762D01*
X29166666Y7404762D01*
%TO.C,C3*%
X33219990Y34620286D02*
X33258085Y34582191D01*
X33296180Y34467905D01*
X33296180Y34391715D01*
X33258085Y34277429D01*
X33181895Y34201239D01*
X33105704Y34163143D01*
X32953323Y34125048D01*
X32839037Y34125048D01*
X32686656Y34163143D01*
X32610466Y34201239D01*
X32534276Y34277429D01*
X32496180Y34391715D01*
X32496180Y34467905D01*
X32534276Y34582191D01*
X32572371Y34620286D01*
X32496180Y34886953D02*
X32496180Y35382191D01*
X32800942Y35115524D01*
X32800942Y35229810D01*
X32839037Y35306000D01*
X32877133Y35344096D01*
X32953323Y35382191D01*
X33143799Y35382191D01*
X33219990Y35344096D01*
X33258085Y35306000D01*
X33296180Y35229810D01*
X33296180Y35001239D01*
X33258085Y34925048D01*
X33219990Y34886953D01*
%TO.C,C2*%
X24116666Y11964286D02*
X24078571Y11926191D01*
X23964285Y11888096D01*
X23888095Y11888096D01*
X23773809Y11926191D01*
X23697619Y12002381D01*
X23659523Y12078572D01*
X23621428Y12230953D01*
X23621428Y12345239D01*
X23659523Y12497620D01*
X23697619Y12573810D01*
X23773809Y12650000D01*
X23888095Y12688096D01*
X23964285Y12688096D01*
X24078571Y12650000D01*
X24116666Y12611905D01*
X24421428Y12611905D02*
X24459523Y12650000D01*
X24535714Y12688096D01*
X24726190Y12688096D01*
X24802380Y12650000D01*
X24840476Y12611905D01*
X24878571Y12535715D01*
X24878571Y12459524D01*
X24840476Y12345239D01*
X24383333Y11888096D01*
X24878571Y11888096D01*
%TD*%
M02*
