%TF.GenerationSoftware,KiCad,Pcbnew,(5.1.10)-1*%
%TF.CreationDate,2022-11-30T22:02:34+08:00*%
%TF.ProjectId,motor_control,6d6f746f-725f-4636-9f6e-74726f6c2e6b,rev?*%
%TF.SameCoordinates,Original*%
%TF.FileFunction,Copper,L1,Top*%
%TF.FilePolarity,Positive*%
%FSLAX46Y46*%
G04 Gerber Fmt 4.6, Leading zero omitted, Abs format (unit mm)*
G04 Created by KiCad (PCBNEW (5.1.10)-1) date 2022-11-30 22:02:34*
%MOMM*%
%LPD*%
G01*
G04 APERTURE LIST*
%TA.AperFunction,SMDPad,CuDef*%
%ADD10R,1.160000X1.470000*%
%TD*%
%TA.AperFunction,ComponentPad*%
%ADD11C,0.800000*%
%TD*%
%TA.AperFunction,ComponentPad*%
%ADD12C,6.000000*%
%TD*%
%TA.AperFunction,SMDPad,CuDef*%
%ADD13R,1.130000X1.800000*%
%TD*%
%TA.AperFunction,SMDPad,CuDef*%
%ADD14R,1.470000X1.160000*%
%TD*%
%TA.AperFunction,SMDPad,CuDef*%
%ADD15R,1.250000X0.700000*%
%TD*%
%TA.AperFunction,SMDPad,CuDef*%
%ADD16O,0.700000X1.900000*%
%TD*%
%TA.AperFunction,SMDPad,CuDef*%
%ADD17O,2.000000X3.500000*%
%TD*%
%TA.AperFunction,SMDPad,CuDef*%
%ADD18O,0.700000X2.100000*%
%TD*%
%TA.AperFunction,SMDPad,CuDef*%
%ADD19O,0.600000X1.800000*%
%TD*%
%TA.AperFunction,SMDPad,CuDef*%
%ADD20R,2.200000X1.200000*%
%TD*%
%TA.AperFunction,SMDPad,CuDef*%
%ADD21R,6.499990X6.000000*%
%TD*%
%TA.AperFunction,ComponentPad*%
%ADD22O,3.600000X2.080000*%
%TD*%
%TA.AperFunction,SMDPad,CuDef*%
%ADD23R,3.150000X1.000000*%
%TD*%
%TA.AperFunction,SMDPad,CuDef*%
%ADD24R,3.450000X1.300000*%
%TD*%
%TA.AperFunction,SMDPad,CuDef*%
%ADD25O,1.800000X0.700000*%
%TD*%
%TA.AperFunction,SMDPad,CuDef*%
%ADD26R,2.000000X0.640000*%
%TD*%
%TA.AperFunction,ComponentPad*%
%ADD27C,2.500000*%
%TD*%
%TA.AperFunction,ComponentPad*%
%ADD28O,2.500000X4.000000*%
%TD*%
%TA.AperFunction,SMDPad,CuDef*%
%ADD29R,1.250000X1.000000*%
%TD*%
%TA.AperFunction,ViaPad*%
%ADD30C,0.800000*%
%TD*%
%TA.AperFunction,ViaPad*%
%ADD31C,0.600000*%
%TD*%
%TA.AperFunction,Conductor*%
%ADD32C,0.381000*%
%TD*%
%TA.AperFunction,Conductor*%
%ADD33C,0.254000*%
%TD*%
%TA.AperFunction,Conductor*%
%ADD34C,0.508000*%
%TD*%
%TA.AperFunction,Conductor*%
%ADD35C,0.203200*%
%TD*%
%TA.AperFunction,Conductor*%
%ADD36C,1.016000*%
%TD*%
%TA.AperFunction,Conductor*%
%ADD37C,2.540000*%
%TD*%
%TA.AperFunction,Conductor*%
%ADD38C,0.350000*%
%TD*%
%ADD39C,0.350000*%
%ADD40C,0.300000*%
G04 APERTURE END LIST*
D10*
%TO.P,R29,2*%
%TO.N,GNDPWR*%
X80890000Y7500000D03*
%TO.P,R29,1*%
%TO.N,Net-(Q1-Pad1)*%
X79110000Y7500000D03*
%TD*%
D11*
%TO.P,SC4,1*%
%TO.N,Net-(SC4-Pad1)*%
X78556810Y44187500D03*
X78556810Y41812500D03*
X76500000Y40625000D03*
X74443190Y41812500D03*
X74443190Y44187500D03*
X76500000Y45375000D03*
D12*
X76500000Y43000000D03*
%TD*%
D11*
%TO.P,SC3,1*%
%TO.N,Net-(SC3-Pad1)*%
X52056810Y72187500D03*
X52056810Y69812500D03*
X50000000Y68625000D03*
X47943190Y69812500D03*
X47943190Y72187500D03*
X50000000Y73375000D03*
D12*
X50000000Y71000000D03*
%TD*%
D13*
%TO.P,R28,2*%
%TO.N,+VDC*%
X66740000Y64750000D03*
%TO.P,R28,1*%
%TO.N,/+VDC_Out*%
X63760000Y64750000D03*
%TD*%
D14*
%TO.P,R25,2*%
%TO.N,Net-(R23-Pad1)*%
X20250000Y71110000D03*
%TO.P,R25,1*%
%TO.N,GNDS*%
X20250000Y72890000D03*
%TD*%
%TO.P,R24,2*%
%TO.N,Net-(R22-Pad1)*%
X20250000Y60390000D03*
%TO.P,R24,1*%
%TO.N,GNDS*%
X20250000Y58610000D03*
%TD*%
D10*
%TO.P,R23,2*%
%TO.N,/VIOut2*%
X40530000Y63500000D03*
%TO.P,R23,1*%
%TO.N,Net-(R23-Pad1)*%
X38750000Y63500000D03*
%TD*%
D14*
%TO.P,R22,2*%
%TO.N,/VIOut1*%
X22750000Y58610000D03*
%TO.P,R22,1*%
%TO.N,Net-(R22-Pad1)*%
X22750000Y60390000D03*
%TD*%
D15*
%TO.P,Q1,3*%
%TO.N,Net-(D5-Pad2)*%
X77000000Y4000000D03*
%TO.P,Q1,2*%
%TO.N,GNDPWR*%
X74500000Y3050000D03*
%TO.P,Q1,1*%
%TO.N,Net-(Q1-Pad1)*%
X74500000Y4950000D03*
%TD*%
D16*
%TO.P,U18,3*%
%TO.N,+12V*%
X30900000Y68400000D03*
D17*
%TO.P,U18,2*%
%TO.N,GNDPWR*%
X29400000Y70900000D03*
D18*
X29400000Y68500000D03*
D16*
%TO.P,U18,1*%
%TO.N,+5V*%
X27900000Y68400000D03*
%TD*%
D14*
%TO.P,C22,2*%
%TO.N,GNDPWR*%
X28129999Y63710000D03*
%TO.P,C22,1*%
%TO.N,+5V*%
X28129999Y65490000D03*
%TD*%
%TO.P,C21,2*%
%TO.N,GNDPWR*%
X31400001Y63710000D03*
%TO.P,C21,1*%
%TO.N,+12V*%
X31400001Y65490000D03*
%TD*%
D19*
%TO.P,U17,14*%
%TO.N,+5V*%
X20990000Y45800000D03*
%TO.P,U17,13*%
X22260000Y45800000D03*
%TO.P,U17,12*%
%TO.N,Net-(U17-Pad12)*%
X23530000Y45800000D03*
%TO.P,U17,11*%
%TO.N,/BRAKE*%
X24800000Y45800000D03*
%TO.P,U17,10*%
%TO.N,Net-(R27-Pad1)*%
X26070000Y45800000D03*
%TO.P,U17,9*%
%TO.N,Net-(U15-Pad11)*%
X27340000Y45800000D03*
%TO.P,U17,8*%
%TO.N,Net-(R33-Pad2)*%
X28610000Y45800000D03*
%TO.P,U17,7*%
%TO.N,GNDPWR*%
X28610000Y40600000D03*
%TO.P,U17,6*%
%TO.N,Net-(R31-Pad2)*%
X27340000Y40600000D03*
%TO.P,U17,5*%
%TO.N,Net-(U15-Pad8)*%
X26070000Y40600000D03*
%TO.P,U17,4*%
%TO.N,Net-(R32-Pad2)*%
X24800000Y40600000D03*
%TO.P,U17,3*%
%TO.N,Net-(U15-Pad6)*%
X23530000Y40600000D03*
%TO.P,U17,2*%
%TO.N,Net-(R30-Pad2)*%
X22260000Y40600000D03*
%TO.P,U17,1*%
%TO.N,Net-(U15-Pad3)*%
X20990000Y40600000D03*
%TD*%
D10*
%TO.P,R27,2*%
%TO.N,/SDX*%
X26890000Y48600000D03*
%TO.P,R27,1*%
%TO.N,Net-(R27-Pad1)*%
X25110000Y48600000D03*
%TD*%
D14*
%TO.P,R26,2*%
%TO.N,/SDX*%
X17200000Y32860000D03*
%TO.P,R26,1*%
%TO.N,/BRAKE*%
X17200000Y34640000D03*
%TD*%
D10*
%TO.P,C20,2*%
%TO.N,GNDPWR*%
X22390000Y48600000D03*
%TO.P,C20,1*%
%TO.N,+5V*%
X20610000Y48600000D03*
%TD*%
D20*
%TO.P,Q13,3*%
%TO.N,GNDPWR*%
X64245830Y49671289D03*
D21*
%TO.P,Q13,2*%
%TO.N,/MOT2_N*%
X57250000Y47309999D03*
D20*
%TO.P,Q13,1*%
%TO.N,Net-(D13-Pad1)*%
X64250000Y44948739D03*
%TD*%
%TO.P,Q12,3*%
%TO.N,/MOT2_N*%
X39004170Y44948749D03*
D21*
%TO.P,Q12,2*%
%TO.N,/H2/VDD*%
X46000000Y47310039D03*
D20*
%TO.P,Q12,1*%
%TO.N,Net-(D12-Pad1)*%
X39000000Y49671299D03*
%TD*%
%TO.P,Q11,3*%
%TO.N,GNDPWR*%
X64295830Y39842950D03*
D21*
%TO.P,Q11,2*%
%TO.N,/MOT2_P*%
X57300000Y37481660D03*
D20*
%TO.P,Q11,1*%
%TO.N,Net-(D11-Pad1)*%
X64300000Y35120400D03*
%TD*%
%TO.P,Q10,3*%
%TO.N,/MOT2_P*%
X39004170Y35120410D03*
D21*
%TO.P,Q10,2*%
%TO.N,/H2/VDD*%
X46000000Y37481700D03*
D20*
%TO.P,Q10,1*%
%TO.N,Net-(D10-Pad1)*%
X39000000Y39842960D03*
%TD*%
%TO.P,Q9,3*%
%TO.N,GNDPWR*%
X64295830Y21214611D03*
D21*
%TO.P,Q9,2*%
%TO.N,/H1RO*%
X57300000Y18853321D03*
D20*
%TO.P,Q9,1*%
%TO.N,Net-(D9-Pad1)*%
X64300000Y16492061D03*
%TD*%
%TO.P,Q8,3*%
%TO.N,/H1RO*%
X39004170Y16492071D03*
D21*
%TO.P,Q8,2*%
%TO.N,/H1/VDD*%
X46000000Y18853361D03*
D20*
%TO.P,Q8,1*%
%TO.N,Net-(D8-Pad1)*%
X39000000Y21214621D03*
%TD*%
%TO.P,Q7,3*%
%TO.N,GNDPWR*%
X64295830Y10636270D03*
D21*
%TO.P,Q7,2*%
%TO.N,/H1LO*%
X57300000Y8274980D03*
D20*
%TO.P,Q7,1*%
%TO.N,Net-(D7-Pad1)*%
X64300000Y5913720D03*
%TD*%
%TO.P,Q6,3*%
%TO.N,/H1LO*%
X39004170Y5913730D03*
D21*
%TO.P,Q6,2*%
%TO.N,/H1/VDD*%
X46000000Y8275020D03*
D20*
%TO.P,Q6,1*%
%TO.N,Net-(D6-Pad1)*%
X39000000Y10636280D03*
%TD*%
D14*
%TO.P,C1,2*%
%TO.N,GNDS*%
X9500000Y69890000D03*
%TO.P,C1,1*%
%TO.N,+5VISO*%
X9500000Y68110000D03*
%TD*%
D22*
%TO.P,J6,2*%
%TO.N,GNDPWR*%
X97000000Y11120000D03*
%TO.P,J6,1*%
%TA.AperFunction,ComponentPad*%
G36*
G01*
X95449600Y17240000D02*
X98550400Y17240000D01*
G75*
G02*
X98800000Y16990400I0J-249600D01*
G01*
X98800000Y15409600D01*
G75*
G02*
X98550400Y15160000I-249600J0D01*
G01*
X95449600Y15160000D01*
G75*
G02*
X95200000Y15409600I0J249600D01*
G01*
X95200000Y16990400D01*
G75*
G02*
X95449600Y17240000I249600J0D01*
G01*
G37*
%TD.AperFunction*%
%TD*%
%TO.P,J5,2*%
%TO.N,/MOT2_P*%
X97000000Y47920000D03*
%TO.P,J5,1*%
%TO.N,/MOT2_N*%
%TA.AperFunction,ComponentPad*%
G36*
G01*
X95449999Y54040000D02*
X98550001Y54040000D01*
G75*
G02*
X98800000Y53790001I0J-249999D01*
G01*
X98800000Y52209999D01*
G75*
G02*
X98550001Y51960000I-249999J0D01*
G01*
X95449999Y51960000D01*
G75*
G02*
X95200000Y52209999I0J249999D01*
G01*
X95200000Y53790001D01*
G75*
G02*
X95449999Y54040000I249999J0D01*
G01*
G37*
%TD.AperFunction*%
%TD*%
D23*
%TO.P,J3,10*%
%TO.N,+12V*%
X59025000Y54920000D03*
%TO.P,J3,9*%
%TO.N,GNDPWR*%
X53975000Y54920000D03*
%TO.P,J3,8*%
%TO.N,/+VDC_Out*%
X59025000Y57460000D03*
%TO.P,J3,7*%
%TO.N,GNDPWR*%
X53975000Y57460000D03*
%TO.P,J3,6*%
%TO.N,/+VDC_Out*%
X59025000Y60000000D03*
%TO.P,J3,5*%
%TO.N,GNDPWR*%
X53975000Y60000000D03*
%TO.P,J3,4*%
%TO.N,/+VDC_Out*%
X59025000Y62540000D03*
%TO.P,J3,3*%
%TO.N,GNDPWR*%
X53975000Y62540000D03*
%TO.P,J3,2*%
%TO.N,/+VDC_Out*%
X59025000Y65080000D03*
%TO.P,J3,1*%
%TO.N,GNDPWR*%
X53975000Y65080000D03*
%TD*%
%TO.P,J2,10*%
%TO.N,/SPWM2*%
X9025000Y9920000D03*
%TO.P,J2,9*%
%TO.N,GNDS*%
X3975000Y9920000D03*
%TO.P,J2,8*%
%TO.N,/RELIN6*%
X9025000Y12460000D03*
%TO.P,J2,7*%
%TO.N,/SPWM1*%
X3975000Y12460000D03*
%TO.P,J2,6*%
%TO.N,/RELIN4*%
X9025000Y15000000D03*
%TO.P,J2,5*%
%TO.N,/RELIN5*%
X3975000Y15000000D03*
%TO.P,J2,4*%
%TO.N,/RELIN2*%
X9025000Y17540000D03*
%TO.P,J2,3*%
%TO.N,/RELIN3*%
X3975000Y17540000D03*
%TO.P,J2,2*%
%TO.N,+3.3VISO*%
X9025000Y20080000D03*
%TO.P,J2,1*%
%TO.N,/RELIN1*%
X3975000Y20080000D03*
%TD*%
D24*
%TO.P,J1,10*%
%TO.N,Net-(J1-Pad10)*%
X9175000Y54920000D03*
%TO.P,J1,9*%
%TO.N,GNDS*%
X3825000Y54920000D03*
%TO.P,J1,8*%
%TO.N,Net-(J1-Pad8)*%
X9175000Y57460000D03*
%TO.P,J1,7*%
%TO.N,Net-(J1-Pad7)*%
X3825000Y57460000D03*
%TO.P,J1,6*%
%TO.N,Net-(J1-Pad6)*%
X9175000Y60000000D03*
%TO.P,J1,5*%
%TO.N,Net-(J1-Pad5)*%
X3825000Y60000000D03*
%TO.P,J1,4*%
%TO.N,Net-(J1-Pad4)*%
X9175000Y62540000D03*
%TO.P,J1,3*%
%TO.N,/VISenseOut2*%
X3825000Y62540000D03*
%TO.P,J1,2*%
%TO.N,+5VISO*%
X9175000Y65080000D03*
%TO.P,J1,1*%
%TO.N,/VISenseOut1*%
X3825000Y65080000D03*
%TD*%
D19*
%TO.P,U16,14*%
%TO.N,Net-(U16-Pad13)*%
X17690000Y68350000D03*
%TO.P,U16,13*%
X18960000Y68350000D03*
%TO.P,U16,12*%
%TO.N,GNDS*%
X20230000Y68350000D03*
%TO.P,U16,11*%
X21500000Y68350000D03*
%TO.P,U16,10*%
%TO.N,Net-(R23-Pad1)*%
X22770000Y68350000D03*
%TO.P,U16,9*%
%TO.N,Net-(R47-Pad1)*%
X24040000Y68350000D03*
%TO.P,U16,8*%
%TO.N,/VISenseOut2*%
X25310000Y68350000D03*
%TO.P,U16,7*%
%TO.N,/VISenseOut1*%
X25310000Y63150000D03*
%TO.P,U16,6*%
%TO.N,Net-(R45-Pad1)*%
X24040000Y63150000D03*
%TO.P,U16,5*%
%TO.N,Net-(R22-Pad1)*%
X22770000Y63150000D03*
%TO.P,U16,4*%
%TO.N,+5VISO*%
X21500000Y63150000D03*
%TO.P,U16,3*%
%TO.N,Net-(C17-Pad1)*%
X20230000Y63150000D03*
%TO.P,U16,2*%
%TO.N,/CurrentSensing/VMID*%
X18960000Y63150000D03*
%TO.P,U16,1*%
X17690000Y63150000D03*
%TD*%
%TO.P,U15,14*%
%TO.N,+5V*%
X20990000Y32850000D03*
%TO.P,U15,13*%
%TO.N,Net-(R21-Pad2)*%
X22260000Y32850000D03*
%TO.P,U15,12*%
%TO.N,/H2SELR*%
X23530000Y32850000D03*
%TO.P,U15,11*%
%TO.N,Net-(U15-Pad11)*%
X24800000Y32850000D03*
%TO.P,U15,10*%
%TO.N,Net-(R21-Pad2)*%
X26070000Y32850000D03*
%TO.P,U15,9*%
%TO.N,/H2SELL*%
X27340000Y32850000D03*
%TO.P,U15,8*%
%TO.N,Net-(U15-Pad8)*%
X28610000Y32850000D03*
%TO.P,U15,7*%
%TO.N,GNDPWR*%
X28610000Y27650000D03*
%TO.P,U15,6*%
%TO.N,Net-(U15-Pad6)*%
X27340000Y27650000D03*
%TO.P,U15,5*%
%TO.N,Net-(R20-Pad2)*%
X26070000Y27650000D03*
%TO.P,U15,4*%
%TO.N,/H1SELR*%
X24800000Y27650000D03*
%TO.P,U15,3*%
%TO.N,Net-(U15-Pad3)*%
X23530000Y27650000D03*
%TO.P,U15,2*%
%TO.N,Net-(R20-Pad2)*%
X22260000Y27650000D03*
%TO.P,U15,1*%
%TO.N,/H1SELL*%
X20990000Y27650000D03*
%TD*%
%TO.P,U14,8*%
%TO.N,+5VISO*%
%TA.AperFunction,SMDPad,CuDef*%
G36*
G01*
X47500000Y57755000D02*
X47500000Y58055000D01*
G75*
G02*
X47650000Y58205000I150000J0D01*
G01*
X49300000Y58205000D01*
G75*
G02*
X49450000Y58055000I0J-150000D01*
G01*
X49450000Y57755000D01*
G75*
G02*
X49300000Y57605000I-150000J0D01*
G01*
X47650000Y57605000D01*
G75*
G02*
X47500000Y57755000I0J150000D01*
G01*
G37*
%TD.AperFunction*%
%TO.P,U14,7*%
%TO.N,Net-(R19-Pad2)*%
%TA.AperFunction,SMDPad,CuDef*%
G36*
G01*
X47500000Y56485000D02*
X47500000Y56785000D01*
G75*
G02*
X47650000Y56935000I150000J0D01*
G01*
X49300000Y56935000D01*
G75*
G02*
X49450000Y56785000I0J-150000D01*
G01*
X49450000Y56485000D01*
G75*
G02*
X49300000Y56335000I-150000J0D01*
G01*
X47650000Y56335000D01*
G75*
G02*
X47500000Y56485000I0J150000D01*
G01*
G37*
%TD.AperFunction*%
%TO.P,U14,6*%
%TO.N,Net-(U14-Pad6)*%
%TA.AperFunction,SMDPad,CuDef*%
G36*
G01*
X47500000Y55215000D02*
X47500000Y55515000D01*
G75*
G02*
X47650000Y55665000I150000J0D01*
G01*
X49300000Y55665000D01*
G75*
G02*
X49450000Y55515000I0J-150000D01*
G01*
X49450000Y55215000D01*
G75*
G02*
X49300000Y55065000I-150000J0D01*
G01*
X47650000Y55065000D01*
G75*
G02*
X47500000Y55215000I0J150000D01*
G01*
G37*
%TD.AperFunction*%
%TO.P,U14,5*%
%TO.N,GNDS*%
%TA.AperFunction,SMDPad,CuDef*%
G36*
G01*
X47500000Y53945000D02*
X47500000Y54245000D01*
G75*
G02*
X47650000Y54395000I150000J0D01*
G01*
X49300000Y54395000D01*
G75*
G02*
X49450000Y54245000I0J-150000D01*
G01*
X49450000Y53945000D01*
G75*
G02*
X49300000Y53795000I-150000J0D01*
G01*
X47650000Y53795000D01*
G75*
G02*
X47500000Y53945000I0J150000D01*
G01*
G37*
%TD.AperFunction*%
%TO.P,U14,4*%
%TO.N,/H2/VDD*%
%TA.AperFunction,SMDPad,CuDef*%
G36*
G01*
X42550000Y53945000D02*
X42550000Y54245000D01*
G75*
G02*
X42700000Y54395000I150000J0D01*
G01*
X44350000Y54395000D01*
G75*
G02*
X44500000Y54245000I0J-150000D01*
G01*
X44500000Y53945000D01*
G75*
G02*
X44350000Y53795000I-150000J0D01*
G01*
X42700000Y53795000D01*
G75*
G02*
X42550000Y53945000I0J150000D01*
G01*
G37*
%TD.AperFunction*%
%TO.P,U14,3*%
%TA.AperFunction,SMDPad,CuDef*%
G36*
G01*
X42550000Y55215000D02*
X42550000Y55515000D01*
G75*
G02*
X42700000Y55665000I150000J0D01*
G01*
X44350000Y55665000D01*
G75*
G02*
X44500000Y55515000I0J-150000D01*
G01*
X44500000Y55215000D01*
G75*
G02*
X44350000Y55065000I-150000J0D01*
G01*
X42700000Y55065000D01*
G75*
G02*
X42550000Y55215000I0J150000D01*
G01*
G37*
%TD.AperFunction*%
%TO.P,U14,2*%
%TO.N,/Fused*%
%TA.AperFunction,SMDPad,CuDef*%
G36*
G01*
X42550000Y56485000D02*
X42550000Y56785000D01*
G75*
G02*
X42700000Y56935000I150000J0D01*
G01*
X44350000Y56935000D01*
G75*
G02*
X44500000Y56785000I0J-150000D01*
G01*
X44500000Y56485000D01*
G75*
G02*
X44350000Y56335000I-150000J0D01*
G01*
X42700000Y56335000D01*
G75*
G02*
X42550000Y56485000I0J150000D01*
G01*
G37*
%TD.AperFunction*%
%TO.P,U14,1*%
%TA.AperFunction,SMDPad,CuDef*%
G36*
G01*
X42550000Y57755000D02*
X42550000Y58055000D01*
G75*
G02*
X42700000Y58205000I150000J0D01*
G01*
X44350000Y58205000D01*
G75*
G02*
X44500000Y58055000I0J-150000D01*
G01*
X44500000Y57755000D01*
G75*
G02*
X44350000Y57605000I-150000J0D01*
G01*
X42700000Y57605000D01*
G75*
G02*
X42550000Y57755000I0J150000D01*
G01*
G37*
%TD.AperFunction*%
%TD*%
%TO.P,U13,8*%
%TO.N,+5VISO*%
%TA.AperFunction,SMDPad,CuDef*%
G36*
G01*
X47250000Y29005000D02*
X47250000Y29305000D01*
G75*
G02*
X47400000Y29455000I150000J0D01*
G01*
X49050000Y29455000D01*
G75*
G02*
X49200000Y29305000I0J-150000D01*
G01*
X49200000Y29005000D01*
G75*
G02*
X49050000Y28855000I-150000J0D01*
G01*
X47400000Y28855000D01*
G75*
G02*
X47250000Y29005000I0J150000D01*
G01*
G37*
%TD.AperFunction*%
%TO.P,U13,7*%
%TO.N,Net-(R18-Pad2)*%
%TA.AperFunction,SMDPad,CuDef*%
G36*
G01*
X47250000Y27735000D02*
X47250000Y28035000D01*
G75*
G02*
X47400000Y28185000I150000J0D01*
G01*
X49050000Y28185000D01*
G75*
G02*
X49200000Y28035000I0J-150000D01*
G01*
X49200000Y27735000D01*
G75*
G02*
X49050000Y27585000I-150000J0D01*
G01*
X47400000Y27585000D01*
G75*
G02*
X47250000Y27735000I0J150000D01*
G01*
G37*
%TD.AperFunction*%
%TO.P,U13,6*%
%TO.N,Net-(U13-Pad6)*%
%TA.AperFunction,SMDPad,CuDef*%
G36*
G01*
X47250000Y26465000D02*
X47250000Y26765000D01*
G75*
G02*
X47400000Y26915000I150000J0D01*
G01*
X49050000Y26915000D01*
G75*
G02*
X49200000Y26765000I0J-150000D01*
G01*
X49200000Y26465000D01*
G75*
G02*
X49050000Y26315000I-150000J0D01*
G01*
X47400000Y26315000D01*
G75*
G02*
X47250000Y26465000I0J150000D01*
G01*
G37*
%TD.AperFunction*%
%TO.P,U13,5*%
%TO.N,GNDS*%
%TA.AperFunction,SMDPad,CuDef*%
G36*
G01*
X47250000Y25195000D02*
X47250000Y25495000D01*
G75*
G02*
X47400000Y25645000I150000J0D01*
G01*
X49050000Y25645000D01*
G75*
G02*
X49200000Y25495000I0J-150000D01*
G01*
X49200000Y25195000D01*
G75*
G02*
X49050000Y25045000I-150000J0D01*
G01*
X47400000Y25045000D01*
G75*
G02*
X47250000Y25195000I0J150000D01*
G01*
G37*
%TD.AperFunction*%
%TO.P,U13,4*%
%TO.N,/H1/VDD*%
%TA.AperFunction,SMDPad,CuDef*%
G36*
G01*
X42300000Y25195000D02*
X42300000Y25495000D01*
G75*
G02*
X42450000Y25645000I150000J0D01*
G01*
X44100000Y25645000D01*
G75*
G02*
X44250000Y25495000I0J-150000D01*
G01*
X44250000Y25195000D01*
G75*
G02*
X44100000Y25045000I-150000J0D01*
G01*
X42450000Y25045000D01*
G75*
G02*
X42300000Y25195000I0J150000D01*
G01*
G37*
%TD.AperFunction*%
%TO.P,U13,3*%
%TA.AperFunction,SMDPad,CuDef*%
G36*
G01*
X42300000Y26465000D02*
X42300000Y26765000D01*
G75*
G02*
X42450000Y26915000I150000J0D01*
G01*
X44100000Y26915000D01*
G75*
G02*
X44250000Y26765000I0J-150000D01*
G01*
X44250000Y26465000D01*
G75*
G02*
X44100000Y26315000I-150000J0D01*
G01*
X42450000Y26315000D01*
G75*
G02*
X42300000Y26465000I0J150000D01*
G01*
G37*
%TD.AperFunction*%
%TO.P,U13,2*%
%TO.N,/Fused*%
%TA.AperFunction,SMDPad,CuDef*%
G36*
G01*
X42300000Y27735000D02*
X42300000Y28035000D01*
G75*
G02*
X42450000Y28185000I150000J0D01*
G01*
X44100000Y28185000D01*
G75*
G02*
X44250000Y28035000I0J-150000D01*
G01*
X44250000Y27735000D01*
G75*
G02*
X44100000Y27585000I-150000J0D01*
G01*
X42450000Y27585000D01*
G75*
G02*
X42300000Y27735000I0J150000D01*
G01*
G37*
%TD.AperFunction*%
%TO.P,U13,1*%
%TA.AperFunction,SMDPad,CuDef*%
G36*
G01*
X42300000Y29005000D02*
X42300000Y29305000D01*
G75*
G02*
X42450000Y29455000I150000J0D01*
G01*
X44100000Y29455000D01*
G75*
G02*
X44250000Y29305000I0J-150000D01*
G01*
X44250000Y29005000D01*
G75*
G02*
X44100000Y28855000I-150000J0D01*
G01*
X42450000Y28855000D01*
G75*
G02*
X42300000Y29005000I0J150000D01*
G01*
G37*
%TD.AperFunction*%
%TD*%
D25*
%TO.P,U12,8*%
%TO.N,Net-(C8-Pad1)*%
X36300000Y56405000D03*
%TO.P,U12,7*%
%TO.N,/H2/RH*%
X36300000Y55135000D03*
%TO.P,U12,6*%
%TO.N,/MOT2_N*%
X36300000Y53865000D03*
%TO.P,U12,5*%
%TO.N,/H2/RL*%
X36300000Y52595000D03*
%TO.P,U12,4*%
%TO.N,GNDPWR*%
X31100000Y52595000D03*
%TO.P,U12,3*%
%TO.N,/SDX*%
X31100000Y53865000D03*
%TO.P,U12,2*%
%TO.N,/logic/H2INR*%
X31100000Y55135000D03*
%TO.P,U12,1*%
%TO.N,+12V*%
X31100000Y56405000D03*
%TD*%
%TO.P,U11,8*%
%TO.N,Net-(C6-Pad1)*%
X29850000Y18405000D03*
%TO.P,U11,7*%
%TO.N,/H1/RH*%
X29850000Y17135000D03*
%TO.P,U11,6*%
%TO.N,/H1RO*%
X29850000Y15865000D03*
%TO.P,U11,5*%
%TO.N,/H1/RL*%
X29850000Y14595000D03*
%TO.P,U11,4*%
%TO.N,GNDPWR*%
X24650000Y14595000D03*
%TO.P,U11,3*%
%TO.N,/SDX*%
X24650000Y15865000D03*
%TO.P,U11,2*%
%TO.N,/logic/H1INR*%
X24650000Y17135000D03*
%TO.P,U11,1*%
%TO.N,+12V*%
X24650000Y18405000D03*
%TD*%
%TO.P,U10,8*%
%TO.N,Net-(C5-Pad1)*%
X39350000Y31405000D03*
%TO.P,U10,7*%
%TO.N,/H2/LH*%
X39350000Y30135000D03*
%TO.P,U10,6*%
%TO.N,/MOT2_P*%
X39350000Y28865000D03*
%TO.P,U10,5*%
%TO.N,/H2/LL*%
X39350000Y27595000D03*
%TO.P,U10,4*%
%TO.N,GNDPWR*%
X34150000Y27595000D03*
%TO.P,U10,3*%
%TO.N,/SDX*%
X34150000Y28865000D03*
%TO.P,U10,2*%
%TO.N,/logic/H2INL*%
X34150000Y30135000D03*
%TO.P,U10,1*%
%TO.N,+12V*%
X34150000Y31405000D03*
%TD*%
%TO.P,U9,8*%
%TO.N,Net-(C4-Pad1)*%
X29850000Y5905000D03*
%TO.P,U9,7*%
%TO.N,/H1/LH*%
X29850000Y4635000D03*
%TO.P,U9,6*%
%TO.N,/H1LO*%
X29850000Y3365000D03*
%TO.P,U9,5*%
%TO.N,/H1/LL*%
X29850000Y2095000D03*
%TO.P,U9,4*%
%TO.N,GNDPWR*%
X24650000Y2095000D03*
%TO.P,U9,3*%
%TO.N,/SDX*%
X24650000Y3365000D03*
%TO.P,U9,2*%
%TO.N,/logic/H1INL*%
X24650000Y4635000D03*
%TO.P,U9,1*%
%TO.N,+12V*%
X24650000Y5905000D03*
%TD*%
D26*
%TO.P,U8,4*%
%TO.N,+5V*%
X20950000Y18270000D03*
%TO.P,U8,3*%
%TO.N,/SPWM1_OUT*%
X20950000Y15730000D03*
%TO.P,U8,2*%
%TO.N,GNDS*%
X14650000Y15730000D03*
%TO.P,U8,1*%
%TO.N,Net-(R13-Pad1)*%
X14650000Y18270000D03*
%TD*%
%TO.P,U7,4*%
%TO.N,+5V*%
X20950000Y10270000D03*
%TO.P,U7,3*%
%TO.N,/SPWM2_OUT*%
X20950000Y7730000D03*
%TO.P,U7,2*%
%TO.N,GNDS*%
X14650000Y7730000D03*
%TO.P,U7,1*%
%TO.N,Net-(R12-Pad1)*%
X14650000Y10270000D03*
%TD*%
%TO.P,U6,4*%
%TO.N,+5V*%
X14150000Y33370000D03*
%TO.P,U6,3*%
%TO.N,/BRAKE*%
X14150000Y30830000D03*
%TO.P,U6,2*%
%TO.N,GNDS*%
X7850000Y30830000D03*
%TO.P,U6,1*%
%TO.N,Net-(R11-Pad1)*%
X7850000Y33370000D03*
%TD*%
%TO.P,U5,4*%
%TO.N,+5V*%
X14150000Y39420000D03*
%TO.P,U5,3*%
%TO.N,/H2SELR*%
X14150000Y36880000D03*
%TO.P,U5,2*%
%TO.N,GNDS*%
X7850000Y36880000D03*
%TO.P,U5,1*%
%TO.N,Net-(R5-Pad1)*%
X7850000Y39420000D03*
%TD*%
%TO.P,U4,4*%
%TO.N,+5V*%
X14150000Y45470000D03*
%TO.P,U4,3*%
%TO.N,/H2SELL*%
X14150000Y42930000D03*
%TO.P,U4,2*%
%TO.N,GNDS*%
X7850000Y42930000D03*
%TO.P,U4,1*%
%TO.N,Net-(R4-Pad1)*%
X7850000Y45470000D03*
%TD*%
%TO.P,U3,4*%
%TO.N,+5V*%
X14150000Y27020000D03*
%TO.P,U3,3*%
%TO.N,/DIRREL1*%
X14150000Y24480000D03*
%TO.P,U3,2*%
%TO.N,GNDS*%
X7850000Y24480000D03*
%TO.P,U3,1*%
%TO.N,Net-(R3-Pad1)*%
X7850000Y27020000D03*
%TD*%
%TO.P,U2,4*%
%TO.N,+5V*%
X14150000Y51070000D03*
%TO.P,U2,3*%
%TO.N,/H1SELR*%
X14150000Y48530000D03*
%TO.P,U2,2*%
%TO.N,GNDS*%
X7850000Y48530000D03*
%TO.P,U2,1*%
%TO.N,Net-(R2-Pad1)*%
X7850000Y51070000D03*
%TD*%
%TO.P,U1,4*%
%TO.N,+5V*%
X25150000Y55270000D03*
%TO.P,U1,3*%
%TO.N,/H1SELL*%
X25150000Y52730000D03*
%TO.P,U1,2*%
%TO.N,GNDS*%
X18850000Y52730000D03*
%TO.P,U1,1*%
%TO.N,Net-(R1-Pad1)*%
X18850000Y55270000D03*
%TD*%
D11*
%TO.P,SC2,1*%
%TO.N,Net-(SC2-Pad1)*%
X6056810Y5187500D03*
X6056810Y2812500D03*
X4000000Y1625000D03*
X1943190Y2812500D03*
X1943190Y5187500D03*
X4000000Y6375000D03*
D12*
X4000000Y4000000D03*
%TD*%
D11*
%TO.P,SC1,1*%
%TO.N,Net-(SC1-Pad1)*%
X6056810Y72187500D03*
X6056810Y69812500D03*
X4000000Y68625000D03*
X1943190Y69812500D03*
X1943190Y72187500D03*
X4000000Y73375000D03*
D12*
X4000000Y71000000D03*
%TD*%
D14*
%TO.P,R57,2*%
%TO.N,/H2/RL*%
X71750000Y47120019D03*
%TO.P,R57,1*%
%TO.N,Net-(D13-Pad1)*%
X71750000Y45340019D03*
%TD*%
%TO.P,R56,2*%
%TO.N,/H2/RH*%
X36600000Y48110000D03*
%TO.P,R56,1*%
%TO.N,Net-(D12-Pad1)*%
X36600000Y49890000D03*
%TD*%
%TO.P,R55,2*%
%TO.N,GNDPWR*%
X68250000Y47120019D03*
%TO.P,R55,1*%
%TO.N,Net-(D13-Pad1)*%
X68250000Y45340019D03*
%TD*%
%TO.P,R54,2*%
%TO.N,/MOT2_N*%
X33500000Y48110000D03*
%TO.P,R54,1*%
%TO.N,Net-(D12-Pad1)*%
X33500000Y49890000D03*
%TD*%
%TO.P,R53,2*%
%TO.N,Net-(D11-Pad1)*%
X68250000Y35511680D03*
%TO.P,R53,1*%
%TO.N,GNDPWR*%
X68250000Y37291680D03*
%TD*%
%TO.P,R52,2*%
%TO.N,Net-(D10-Pad1)*%
X32750000Y42201680D03*
%TO.P,R52,1*%
%TO.N,/MOT2_P*%
X32750000Y40421680D03*
%TD*%
%TO.P,R51,2*%
%TO.N,/H2/LL*%
X71750000Y37291680D03*
%TO.P,R51,1*%
%TO.N,Net-(D11-Pad1)*%
X71750000Y35511680D03*
%TD*%
%TO.P,R50,2*%
%TO.N,/H2/LH*%
X36000000Y40421680D03*
%TO.P,R50,1*%
%TO.N,Net-(D10-Pad1)*%
X36000000Y42201680D03*
%TD*%
D10*
%TO.P,R49,2*%
%TO.N,/VISenseOut2*%
X25000000Y71400000D03*
%TO.P,R49,1*%
%TO.N,Net-(R47-Pad1)*%
X23220000Y71400000D03*
%TD*%
D14*
%TO.P,R48,2*%
%TO.N,/VISenseOut1*%
X25600000Y60290000D03*
%TO.P,R48,1*%
%TO.N,Net-(R45-Pad1)*%
X25600000Y58510000D03*
%TD*%
%TO.P,R47,2*%
%TO.N,/CurrentSensing/VMID*%
X16750000Y71110000D03*
%TO.P,R47,1*%
%TO.N,Net-(R47-Pad1)*%
X16750000Y72890000D03*
%TD*%
%TO.P,R45,2*%
%TO.N,/CurrentSensing/VMID*%
X14750000Y60390000D03*
%TO.P,R45,1*%
%TO.N,Net-(R45-Pad1)*%
X14750000Y58610000D03*
%TD*%
%TO.P,R43,2*%
%TO.N,GNDS*%
X14600000Y62710000D03*
%TO.P,R43,1*%
%TO.N,Net-(C17-Pad1)*%
X14600000Y64490000D03*
%TD*%
%TO.P,R42,2*%
%TO.N,Net-(C17-Pad1)*%
X14600000Y67110000D03*
%TO.P,R42,1*%
%TO.N,+5VISO*%
X14600000Y68890000D03*
%TD*%
%TO.P,R41,2*%
%TO.N,/H1/RL*%
X71750000Y17913341D03*
%TO.P,R41,1*%
%TO.N,Net-(D9-Pad1)*%
X71750000Y16133341D03*
%TD*%
%TO.P,R40,2*%
%TO.N,/H1/RH*%
X33250000Y17360000D03*
%TO.P,R40,1*%
%TO.N,Net-(D8-Pad1)*%
X33250000Y19140000D03*
%TD*%
%TO.P,R39,2*%
%TO.N,GNDPWR*%
X68250000Y17913341D03*
%TO.P,R39,1*%
%TO.N,Net-(D9-Pad1)*%
X68250000Y16133341D03*
%TD*%
%TO.P,R38,2*%
%TO.N,/H1RO*%
X36000000Y17360000D03*
%TO.P,R38,1*%
%TO.N,Net-(D8-Pad1)*%
X36000000Y19140000D03*
%TD*%
%TO.P,R37,2*%
%TO.N,Net-(D7-Pad1)*%
X68250000Y5555000D03*
%TO.P,R37,1*%
%TO.N,GNDPWR*%
X68250000Y7335000D03*
%TD*%
%TO.P,R36,2*%
%TO.N,Net-(D6-Pad1)*%
X36250000Y8390000D03*
%TO.P,R36,1*%
%TO.N,/H1LO*%
X36250000Y6610000D03*
%TD*%
%TO.P,R35,2*%
%TO.N,/H1/LL*%
X71750000Y7335000D03*
%TO.P,R35,1*%
%TO.N,Net-(D7-Pad1)*%
X71750000Y5555000D03*
%TD*%
%TO.P,R34,2*%
%TO.N,/H1/LH*%
X33000000Y6610000D03*
%TO.P,R34,1*%
%TO.N,Net-(D6-Pad1)*%
X33000000Y8390000D03*
%TD*%
%TO.P,R33,2*%
%TO.N,Net-(R33-Pad2)*%
X29500000Y48110000D03*
%TO.P,R33,1*%
%TO.N,/logic/H2INR*%
X29500000Y49890000D03*
%TD*%
%TO.P,R32,2*%
%TO.N,Net-(R32-Pad2)*%
X24500000Y37640000D03*
%TO.P,R32,1*%
%TO.N,/logic/H1INR*%
X24500000Y35860000D03*
%TD*%
%TO.P,R31,2*%
%TO.N,Net-(R31-Pad2)*%
X31300000Y30990000D03*
%TO.P,R31,1*%
%TO.N,/logic/H2INL*%
X31300000Y29210000D03*
%TD*%
D10*
%TO.P,R30,2*%
%TO.N,Net-(R30-Pad2)*%
X19110000Y2000000D03*
%TO.P,R30,1*%
%TO.N,/logic/H1INL*%
X20890000Y2000000D03*
%TD*%
D14*
%TO.P,R21,2*%
%TO.N,Net-(R21-Pad2)*%
X27750000Y35860000D03*
%TO.P,R21,1*%
%TO.N,/SPWM2_OUT*%
X27750000Y37640000D03*
%TD*%
D10*
%TO.P,R20,2*%
%TO.N,Net-(R20-Pad2)*%
X22140000Y24750000D03*
%TO.P,R20,1*%
%TO.N,/SPWM1_OUT*%
X20360000Y24750000D03*
%TD*%
D14*
%TO.P,R19,2*%
%TO.N,Net-(R19-Pad2)*%
X47500000Y59860000D03*
%TO.P,R19,1*%
%TO.N,/VIOut2*%
X47500000Y61640000D03*
%TD*%
%TO.P,R18,2*%
%TO.N,Net-(R18-Pad2)*%
X55000000Y25500000D03*
%TO.P,R18,1*%
%TO.N,/VIOut1*%
X55000000Y27280000D03*
%TD*%
D10*
%TO.P,R17,2*%
%TO.N,Net-(Q1-Pad1)*%
X74860000Y7550000D03*
%TO.P,R17,1*%
%TO.N,/DIRREL1*%
X76640000Y7550000D03*
%TD*%
%TO.P,R16,2*%
%TO.N,/SPWM1_OUT*%
X18640000Y20500000D03*
%TO.P,R16,1*%
%TO.N,GNDPWR*%
X16860000Y20500000D03*
%TD*%
%TO.P,R15,2*%
%TO.N,/SPWM2_OUT*%
X19110000Y4750000D03*
%TO.P,R15,1*%
%TO.N,GNDPWR*%
X20890000Y4750000D03*
%TD*%
D14*
%TO.P,R14,2*%
%TO.N,/BRAKE*%
X17200000Y30590000D03*
%TO.P,R14,1*%
%TO.N,GNDPWR*%
X17200000Y28810000D03*
%TD*%
D10*
%TO.P,R13,2*%
%TO.N,/SPWM1*%
X14510000Y13200000D03*
%TO.P,R13,1*%
%TO.N,Net-(R13-Pad1)*%
X16290000Y13200000D03*
%TD*%
%TO.P,R12,2*%
%TO.N,/SPWM2*%
X9860000Y4750000D03*
%TO.P,R12,1*%
%TO.N,Net-(R12-Pad1)*%
X11640000Y4750000D03*
%TD*%
D14*
%TO.P,R11,2*%
%TO.N,/RELIN1*%
X4600000Y31415000D03*
%TO.P,R11,1*%
%TO.N,Net-(R11-Pad1)*%
X4600000Y33195000D03*
%TD*%
%TO.P,R10,2*%
%TO.N,/H1SELL*%
X28000000Y55140000D03*
%TO.P,R10,1*%
%TO.N,GNDPWR*%
X28000000Y53360000D03*
%TD*%
%TO.P,R9,2*%
%TO.N,/H2SELR*%
X17250000Y37110000D03*
%TO.P,R9,1*%
%TO.N,GNDPWR*%
X17250000Y38890000D03*
%TD*%
%TO.P,R8,2*%
%TO.N,/H2SELL*%
X17200000Y43110000D03*
%TO.P,R8,1*%
%TO.N,GNDPWR*%
X17200000Y44890000D03*
%TD*%
%TO.P,R7,2*%
%TO.N,/DIRREL1*%
X17200000Y24610000D03*
%TO.P,R7,1*%
%TO.N,GNDPWR*%
X17200000Y26390000D03*
%TD*%
%TO.P,R6,2*%
%TO.N,/H1SELR*%
X17200000Y47910000D03*
%TO.P,R6,1*%
%TO.N,GNDPWR*%
X17200000Y49690000D03*
%TD*%
%TO.P,R5,2*%
%TO.N,/RELIN6*%
X4600000Y37465000D03*
%TO.P,R5,1*%
%TO.N,Net-(R5-Pad1)*%
X4600000Y39245000D03*
%TD*%
%TO.P,R4,2*%
%TO.N,/RELIN5*%
X4600000Y43515000D03*
%TO.P,R4,1*%
%TO.N,Net-(R4-Pad1)*%
X4600000Y45295000D03*
%TD*%
%TO.P,R3,2*%
%TO.N,/RELIN4*%
X4600000Y25065000D03*
%TO.P,R3,1*%
%TO.N,Net-(R3-Pad1)*%
X4600000Y26845000D03*
%TD*%
%TO.P,R2,2*%
%TO.N,/RELIN3*%
X4600000Y49115000D03*
%TO.P,R2,1*%
%TO.N,Net-(R2-Pad1)*%
X4600000Y50895000D03*
%TD*%
%TO.P,R1,2*%
%TO.N,/RELIN2*%
X15600000Y53310000D03*
%TO.P,R1,1*%
%TO.N,Net-(R1-Pad1)*%
X15600000Y55090000D03*
%TD*%
D27*
%TO.P,K1,5*%
%TO.N,/MOT1_CCW*%
X81500000Y29000000D03*
%TO.P,K1,6*%
%TO.N,/H1RO*%
X81500000Y24000000D03*
%TO.P,K1,7*%
%TO.N,/MOT1_CW*%
X81500000Y19000000D03*
%TO.P,K1,4*%
%TO.N,/MOT1_CCW*%
X89000000Y29000000D03*
%TO.P,K1,3*%
%TO.N,/H1RO*%
X89000000Y24000000D03*
%TO.P,K1,2*%
%TO.N,/MOT1_CW*%
X89000000Y19000000D03*
%TO.P,K1,8*%
%TO.N,Net-(D5-Pad2)*%
X81500000Y4000000D03*
%TO.P,K1,1*%
%TO.N,+12V*%
X89000000Y4000000D03*
%TD*%
D22*
%TO.P,J7,2*%
%TO.N,GNDPWR*%
X97000000Y63920000D03*
%TO.P,J7,1*%
%TO.N,+VDC*%
%TA.AperFunction,ComponentPad*%
G36*
G01*
X95449999Y70040000D02*
X98550001Y70040000D01*
G75*
G02*
X98800000Y69790001I0J-249999D01*
G01*
X98800000Y68209999D01*
G75*
G02*
X98550001Y67960000I-249999J0D01*
G01*
X95449999Y67960000D01*
G75*
G02*
X95200000Y68209999I0J249999D01*
G01*
X95200000Y69790001D01*
G75*
G02*
X95449999Y70040000I249999J0D01*
G01*
G37*
%TD.AperFunction*%
%TD*%
%TO.P,J4,3*%
%TO.N,/H1LO*%
X97000000Y27040000D03*
%TO.P,J4,2*%
%TO.N,/MOT1_CW*%
X97000000Y32120000D03*
%TO.P,J4,1*%
%TO.N,/MOT1_CCW*%
%TA.AperFunction,ComponentPad*%
G36*
G01*
X95449999Y38240000D02*
X98550001Y38240000D01*
G75*
G02*
X98800000Y37990001I0J-249999D01*
G01*
X98800000Y36409999D01*
G75*
G02*
X98550001Y36160000I-249999J0D01*
G01*
X95449999Y36160000D01*
G75*
G02*
X95200000Y36409999I0J249999D01*
G01*
X95200000Y37990001D01*
G75*
G02*
X95449999Y38240000I249999J0D01*
G01*
G37*
%TD.AperFunction*%
%TD*%
D28*
%TO.P,F1,2*%
%TO.N,/Fused*%
X86000000Y48400000D03*
%TO.P,F1,1*%
%TO.N,+VDC*%
X86000000Y71000000D03*
%TD*%
D29*
%TO.P,D13,1*%
%TO.N,Net-(D13-Pad1)*%
X71475000Y50000000D03*
%TO.P,D13,2*%
%TO.N,/H2/RL*%
X68525000Y50000000D03*
%TD*%
%TO.P,D12,1*%
%TO.N,Net-(D12-Pad1)*%
X36225000Y45250000D03*
%TO.P,D12,2*%
%TO.N,/H2/RH*%
X33275000Y45250000D03*
%TD*%
%TO.P,D11,1*%
%TO.N,Net-(D11-Pad1)*%
X71475000Y40500000D03*
%TO.P,D11,2*%
%TO.N,/H2/LL*%
X68525000Y40500000D03*
%TD*%
%TO.P,D10,1*%
%TO.N,Net-(D10-Pad1)*%
X36225000Y38000000D03*
%TO.P,D10,2*%
%TO.N,/H2/LH*%
X33275000Y38000000D03*
%TD*%
%TO.P,D9,1*%
%TO.N,Net-(D9-Pad1)*%
X72975000Y20750000D03*
%TO.P,D9,2*%
%TO.N,/H1/RL*%
X70025000Y20750000D03*
%TD*%
%TO.P,D8,1*%
%TO.N,Net-(D8-Pad1)*%
X36225000Y14500000D03*
%TO.P,D8,2*%
%TO.N,/H1/RH*%
X33275000Y14500000D03*
%TD*%
%TO.P,D7,1*%
%TO.N,Net-(D7-Pad1)*%
X71475000Y10000000D03*
%TO.P,D7,2*%
%TO.N,/H1/LL*%
X68525000Y10000000D03*
%TD*%
%TO.P,D6,1*%
%TO.N,Net-(D6-Pad1)*%
X36225000Y4000000D03*
%TO.P,D6,2*%
%TO.N,/H1/LH*%
X33275000Y4000000D03*
%TD*%
%TO.P,D5,1*%
%TO.N,+12V*%
X86725000Y1750000D03*
%TO.P,D5,2*%
%TO.N,Net-(D5-Pad2)*%
X83775000Y1750000D03*
%TD*%
%TO.P,D4,1*%
%TO.N,+12V*%
X33375000Y61350000D03*
%TO.P,D4,2*%
%TO.N,Net-(C8-Pad1)*%
X36325000Y61350000D03*
%TD*%
%TO.P,D3,1*%
%TO.N,+12V*%
X31325000Y21800000D03*
%TO.P,D3,2*%
%TO.N,Net-(C6-Pad1)*%
X34275000Y21800000D03*
%TD*%
%TO.P,D2,1*%
%TO.N,+12V*%
X31325000Y24750000D03*
%TO.P,D2,2*%
%TO.N,Net-(C5-Pad1)*%
X34275000Y24750000D03*
%TD*%
%TO.P,D1,1*%
%TO.N,+12V*%
X26775000Y12250000D03*
%TO.P,D1,2*%
%TO.N,Net-(C4-Pad1)*%
X29725000Y12250000D03*
%TD*%
D13*
%TO.P,C19,2*%
%TO.N,GNDPWR*%
X86740000Y7500000D03*
%TO.P,C19,1*%
%TO.N,+12V*%
X83760000Y7500000D03*
%TD*%
D14*
%TO.P,C18,2*%
%TO.N,+5VISO*%
X17500000Y60390000D03*
%TO.P,C18,1*%
%TO.N,GNDS*%
X17500000Y58610000D03*
%TD*%
%TO.P,C17,2*%
%TO.N,GNDS*%
X12000000Y69890000D03*
%TO.P,C17,1*%
%TO.N,Net-(C17-Pad1)*%
X12000000Y68110000D03*
%TD*%
%TO.P,C16,2*%
%TO.N,GNDPWR*%
X21000000Y37640000D03*
%TO.P,C16,1*%
%TO.N,+5V*%
X21000000Y35860000D03*
%TD*%
D10*
%TO.P,C14,2*%
%TO.N,GNDS*%
X38710000Y54500000D03*
%TO.P,C14,1*%
%TO.N,+5VISO*%
X40490000Y54500000D03*
%TD*%
%TO.P,C12,2*%
%TO.N,/VIOut2*%
X38610000Y61000000D03*
%TO.P,C12,1*%
%TO.N,GNDS*%
X40390000Y61000000D03*
%TD*%
D14*
%TO.P,C11,2*%
%TO.N,GNDS*%
X51750000Y25510000D03*
%TO.P,C11,1*%
%TO.N,+5VISO*%
X51750000Y27290000D03*
%TD*%
%TO.P,C10,2*%
%TO.N,/VIOut1*%
X58250000Y27140000D03*
%TO.P,C10,1*%
%TO.N,GNDS*%
X58250000Y25360000D03*
%TD*%
D10*
%TO.P,C9,2*%
%TO.N,GNDPWR*%
X29210000Y59000000D03*
%TO.P,C9,1*%
%TO.N,+12V*%
X30990000Y59000000D03*
%TD*%
D13*
%TO.P,C8,2*%
%TO.N,/MOT2_N*%
X33260000Y58950000D03*
%TO.P,C8,1*%
%TO.N,Net-(C8-Pad1)*%
X36240000Y58950000D03*
%TD*%
D10*
%TO.P,C7,2*%
%TO.N,GNDPWR*%
X26360000Y24750000D03*
%TO.P,C7,1*%
%TO.N,+12V*%
X28140000Y24750000D03*
%TD*%
D13*
%TO.P,C6,2*%
%TO.N,/H1RO*%
X25910000Y21800000D03*
%TO.P,C6,1*%
%TO.N,Net-(C6-Pad1)*%
X28890000Y21800000D03*
%TD*%
%TO.P,C5,2*%
%TO.N,/MOT2_P*%
X39690000Y24950000D03*
%TO.P,C5,1*%
%TO.N,Net-(C5-Pad1)*%
X36710000Y24950000D03*
%TD*%
%TO.P,C4,2*%
%TO.N,/H1LO*%
X27010000Y9250000D03*
%TO.P,C4,1*%
%TO.N,Net-(C4-Pad1)*%
X29990000Y9250000D03*
%TD*%
D14*
%TO.P,C3,2*%
%TO.N,GNDPWR*%
X31250000Y33470000D03*
%TO.P,C3,1*%
%TO.N,+12V*%
X31250000Y35250000D03*
%TD*%
%TO.P,C2,2*%
%TO.N,GNDPWR*%
X24250000Y10640000D03*
%TO.P,C2,1*%
%TO.N,+12V*%
X24250000Y8860000D03*
%TD*%
D30*
%TO.N,GNDS*%
X58250000Y24500000D03*
D31*
X20250000Y67250000D03*
X14500000Y61500000D03*
X2000000Y10000000D03*
X1250000Y10000000D03*
X5750000Y55000000D03*
X6500000Y55000000D03*
X38750000Y55500000D03*
X40250000Y60000000D03*
X48500000Y53250000D03*
X17520000Y52730000D03*
X13250000Y7750000D03*
X13250000Y15750000D03*
X7750000Y23500000D03*
X7750000Y29750000D03*
X7750000Y36000000D03*
X7750000Y42000000D03*
X7750000Y47750000D03*
X37646080Y59901647D03*
D30*
X48250000Y24250000D03*
X51750000Y24250000D03*
D31*
X11750000Y63000000D03*
X11750000Y58000000D03*
X11750000Y57250000D03*
X41500000Y23250000D03*
X32250000Y23250000D03*
X21500000Y21500000D03*
X21500000Y19250000D03*
X10750000Y69750000D03*
X10750000Y66750000D03*
X17500000Y57750000D03*
X20250000Y57750000D03*
%TO.N,+5VISO*%
X40490000Y55990000D03*
X47250000Y57750000D03*
X32750000Y31000000D03*
X32750000Y33750000D03*
X30470392Y36930977D03*
X40250000Y52750000D03*
X31000000Y51000000D03*
X50750000Y26750000D03*
X16500000Y62500000D03*
X16500000Y61930411D03*
D30*
%TO.N,GNDPWR*%
X64500000Y47000000D03*
X66500000Y47000000D03*
X63500000Y48000000D03*
X65500000Y48000000D03*
X65500000Y47000000D03*
X63500000Y47000000D03*
X67250000Y49000000D03*
X67250000Y50000000D03*
X64500000Y48000000D03*
X66250000Y49000000D03*
X66250000Y50000000D03*
X67500000Y48000000D03*
X68500000Y48000000D03*
X66500000Y48000000D03*
X65500000Y37250000D03*
X63500000Y37250000D03*
X67500000Y39250000D03*
X64500000Y37250000D03*
X68500000Y39250000D03*
X66500000Y37250000D03*
X63500000Y38250000D03*
X64500000Y38250000D03*
X65500000Y38250000D03*
X66500000Y39250000D03*
X66500000Y40250000D03*
X68500000Y38250000D03*
X66500000Y38250000D03*
X67500000Y38250000D03*
X67500000Y20500000D03*
X67500000Y21500000D03*
X68500000Y20500000D03*
X63500000Y18500000D03*
X64500000Y18500000D03*
X65500000Y18500000D03*
X66500000Y18500000D03*
D31*
X87750000Y7500000D03*
D30*
X63500000Y19500000D03*
X64500000Y19500000D03*
X65500000Y19500000D03*
X66500000Y19500000D03*
X66500000Y20500000D03*
X66500000Y21500000D03*
X67500000Y19500000D03*
X68500000Y19500000D03*
X63750000Y8750000D03*
X64750000Y8750000D03*
X65750000Y8750000D03*
X66750000Y8750000D03*
X67750000Y8500000D03*
X68750000Y8500000D03*
X66750000Y9750000D03*
X66750000Y10750000D03*
D31*
X16000000Y44750000D03*
X16000000Y28750000D03*
X28500000Y26500000D03*
X23750000Y48500000D03*
X28000000Y52500000D03*
X30000000Y52500000D03*
X16000000Y26500000D03*
X16250000Y49750000D03*
X16000000Y20500000D03*
X17250000Y39749998D03*
X20000000Y37750000D03*
X24250000Y13999984D03*
X26500000Y25750000D03*
X24250000Y11500000D03*
X33250000Y27250000D03*
X21739589Y4750000D03*
X73500000Y3000000D03*
X73500000Y2250010D03*
X31250000Y32750002D03*
X29094390Y40500000D03*
X24749996Y1250000D03*
X27500000Y3750000D03*
X27500000Y1750000D03*
X27500000Y4500000D03*
X28250006Y1750000D03*
X52000000Y63750000D03*
X55500000Y63750000D03*
X52000000Y66250000D03*
X54000000Y66250000D03*
X54000000Y63750000D03*
X55750000Y66250000D03*
X29600000Y67200000D03*
X29800000Y65900000D03*
X29800000Y64700000D03*
X29700000Y63655610D03*
X82000000Y7500000D03*
%TO.N,+12V*%
X28250000Y23750000D03*
X31325000Y23825000D03*
X31325000Y23175000D03*
X27700007Y23450001D03*
X33250000Y57250000D03*
X33250000Y56500010D03*
X31100000Y57650000D03*
X31100000Y57000000D03*
%TO.N,Net-(C5-Pad1)*%
X37750000Y31500000D03*
X37010003Y29409997D03*
%TO.N,Net-(C6-Pad1)*%
X34250000Y20500000D03*
X29342403Y20405610D03*
%TO.N,/VIOut1*%
X30563554Y40835011D03*
X32030575Y57900612D03*
X33500000Y36750000D03*
X36250000Y26500000D03*
D30*
X53625000Y26375000D03*
D31*
X22750000Y57750000D03*
D30*
%TO.N,/VIOut2*%
X37750000Y61500000D03*
%TO.N,+VDC*%
X73250000Y66000000D03*
X73250000Y64875000D03*
X73250000Y63750000D03*
D31*
%TO.N,+5V*%
X12730899Y35230899D03*
X19500000Y35250000D03*
%TO.N,Net-(C17-Pad1)*%
X15750000Y64500000D03*
X20250000Y64500000D03*
%TO.N,/H1/LL*%
X31250000Y2000000D03*
X70000000Y2000000D03*
%TO.N,/H2/LL*%
X70000000Y36750000D03*
X57000000Y33250000D03*
%TO.N,/H2/RL*%
X68500000Y51000000D03*
X36243758Y52061211D03*
D30*
%TO.N,/Fused*%
X42250000Y61750000D03*
X43500000Y61750000D03*
X45000000Y61750000D03*
X45000000Y60500000D03*
X45000000Y59250000D03*
X43500000Y59250000D03*
X42250000Y59250000D03*
X42250000Y60500000D03*
X43500000Y60500000D03*
D31*
X45000000Y30000000D03*
X46000000Y30000000D03*
X45000000Y29250000D03*
X46000000Y29250000D03*
X45000000Y28500000D03*
X46000000Y28500000D03*
X45000000Y27750000D03*
X46000000Y27750000D03*
X84000000Y39000000D03*
X85000000Y39000000D03*
X86000000Y39000000D03*
X87000000Y39000000D03*
X88000000Y39000000D03*
X88000000Y38000000D03*
X87000000Y38000000D03*
X86000000Y38000000D03*
X85000000Y38000000D03*
X84000000Y38000000D03*
X84000000Y37000000D03*
X85000000Y37000000D03*
X86000000Y37000000D03*
X87000000Y37000000D03*
X88000000Y37000000D03*
X83750000Y50500000D03*
X83750000Y49500000D03*
X83750000Y48500000D03*
X83750000Y47500000D03*
X83750000Y46500000D03*
X88250000Y46500000D03*
X88250000Y47500000D03*
X88250000Y48500000D03*
X88250000Y49500000D03*
X88250000Y50500000D03*
%TO.N,/VISenseOut2*%
X2000000Y62500000D03*
X5750000Y62500000D03*
X27030890Y59373906D03*
%TO.N,/VISenseOut1*%
X2000000Y65000000D03*
X5750000Y65000000D03*
X25499998Y60999998D03*
%TO.N,/RELIN6*%
X1500000Y12250000D03*
X7000000Y12250000D03*
%TO.N,/RELIN5*%
X2311212Y15006242D03*
X1094390Y17405610D03*
%TO.N,/RELIN3*%
X3500000Y18250000D03*
X1695150Y22945150D03*
%TO.N,/H1LO*%
X60000000Y8750000D03*
X54500000Y7750000D03*
X58900000Y9750000D03*
X55600000Y7750000D03*
X60000000Y6750000D03*
X58900000Y6750000D03*
X57800000Y9750000D03*
X60000000Y5750000D03*
X56700000Y10750000D03*
X60000000Y10750000D03*
X55600000Y8750000D03*
X55600000Y5750000D03*
X58900000Y5750000D03*
X56700000Y6750000D03*
X56700000Y7750000D03*
X54500000Y10750000D03*
X58900000Y7750000D03*
X57800000Y10750000D03*
X56700000Y9750000D03*
X54500000Y5750000D03*
X57800000Y8750000D03*
X60000000Y7750000D03*
X54500000Y6750000D03*
X57800000Y6750000D03*
X60000000Y9750000D03*
X56700000Y8750000D03*
X55600000Y6750000D03*
X54500000Y9750000D03*
X57800000Y7750000D03*
X54500000Y8750000D03*
X55600000Y9750000D03*
X55600000Y10750000D03*
X57800000Y5750000D03*
X56700000Y5750000D03*
X58900000Y8750000D03*
X58900000Y10750000D03*
%TO.N,/MOT2_N*%
X58900000Y48750000D03*
X60000000Y47750000D03*
X56700000Y49750000D03*
X56700000Y45750000D03*
X58900000Y47750000D03*
X58900000Y45750000D03*
X54500000Y46750000D03*
X57800000Y46750000D03*
X56700000Y46750000D03*
X60000000Y44750000D03*
X57800000Y47750000D03*
X56700000Y47750000D03*
X57800000Y48750000D03*
X54500000Y49750000D03*
X56700000Y48750000D03*
X58900000Y46750000D03*
X55600000Y45750000D03*
X57800000Y49750000D03*
X54500000Y44750000D03*
X60000000Y49750000D03*
X60000000Y46750000D03*
X54500000Y45750000D03*
X60000000Y45750000D03*
X57800000Y45750000D03*
X55600000Y46750000D03*
X55600000Y47750000D03*
X60000000Y48750000D03*
X54500000Y48750000D03*
X54500000Y47750000D03*
X55600000Y48750000D03*
X55600000Y49750000D03*
X57800000Y44750000D03*
X56700000Y44750000D03*
X55600000Y44750000D03*
X58900000Y49750000D03*
X58900000Y44750000D03*
%TO.N,/MOT2_P*%
X58900000Y39000000D03*
X60000000Y38000000D03*
X56700000Y40000000D03*
X56700000Y36000000D03*
X58900000Y38000000D03*
X58900000Y36000000D03*
X54500000Y37000000D03*
X57800000Y37000000D03*
X56700000Y37000000D03*
X60000000Y35000000D03*
X57800000Y38000000D03*
X56700000Y38000000D03*
X57800000Y39000000D03*
X54500000Y40000000D03*
X56700000Y39000000D03*
X58900000Y37000000D03*
X55600000Y36000000D03*
X57800000Y40000000D03*
X54500000Y35000000D03*
X60000000Y40000000D03*
X60000000Y37000000D03*
X54500000Y36000000D03*
X60000000Y36000000D03*
X57800000Y36000000D03*
X55600000Y37000000D03*
X55600000Y38000000D03*
X60000000Y39000000D03*
X54500000Y39000000D03*
X54500000Y38000000D03*
X55600000Y39000000D03*
X55600000Y40000000D03*
X57800000Y35000000D03*
X56700000Y35000000D03*
X55600000Y35000000D03*
X58900000Y40000000D03*
X58900000Y35000000D03*
X34006998Y35000000D03*
X37500000Y35000000D03*
%TO.N,/H1RO*%
X60000000Y19500000D03*
X54500000Y18500000D03*
X58900000Y20500000D03*
X55600000Y18500000D03*
X60000000Y17500000D03*
X58900000Y17500000D03*
X57800000Y20500000D03*
X60000000Y16500000D03*
X56700000Y21500000D03*
X60000000Y21500000D03*
X55600000Y19500000D03*
X55600000Y16500000D03*
X58900000Y16500000D03*
X56700000Y17500000D03*
X56700000Y18500000D03*
X54500000Y21500000D03*
X58900000Y18500000D03*
X57800000Y21500000D03*
X56700000Y20500000D03*
X54500000Y16500000D03*
X57800000Y19500000D03*
X60000000Y18500000D03*
X54500000Y17500000D03*
X57800000Y17500000D03*
X60000000Y20500000D03*
X56700000Y19500000D03*
X55600000Y17500000D03*
X54500000Y20500000D03*
X57800000Y18500000D03*
X54500000Y19500000D03*
X55600000Y20500000D03*
X55600000Y21500000D03*
X57800000Y16500000D03*
X56700000Y16500000D03*
X58900000Y19500000D03*
X58900000Y21500000D03*
%TO.N,/H1/VDD*%
X47650000Y20500000D03*
X48750000Y19500000D03*
X45450000Y21500000D03*
X45450000Y17500000D03*
X47650000Y19500000D03*
X47650000Y17500000D03*
X43250000Y18500000D03*
X46550000Y18500000D03*
X45450000Y18500000D03*
X48750000Y16500000D03*
X46550000Y19500000D03*
X45450000Y19500000D03*
X46550000Y20500000D03*
X43250000Y21500000D03*
X45450000Y20500000D03*
X47650000Y18500000D03*
X44350000Y17500000D03*
X46550000Y21500000D03*
X43250000Y16500000D03*
X48750000Y21500000D03*
X48750000Y18500000D03*
X43250000Y17500000D03*
X48750000Y17500000D03*
X46550000Y17500000D03*
X44350000Y18500000D03*
X44350000Y19500000D03*
X48750000Y20500000D03*
X43250000Y20500000D03*
X43250000Y19500000D03*
X44350000Y20500000D03*
X44350000Y21500000D03*
X46550000Y16500000D03*
X45450000Y16500000D03*
X44350000Y16500000D03*
X47650000Y21500000D03*
X47650000Y16500000D03*
X48750000Y8750000D03*
X43250000Y7750000D03*
X47650000Y9750000D03*
X44350000Y7750000D03*
X48750000Y6750000D03*
X47650000Y6750000D03*
X46550000Y9750000D03*
X48750000Y5750000D03*
X45450000Y10750000D03*
X48750000Y10750000D03*
X44350000Y8750000D03*
X44350000Y5750000D03*
X47650000Y5750000D03*
X45450000Y6750000D03*
X45450000Y7750000D03*
X43250000Y10750000D03*
X47650000Y7750000D03*
X46550000Y10750000D03*
X45450000Y9750000D03*
X43250000Y5750000D03*
X46550000Y8750000D03*
X48750000Y7750000D03*
X43250000Y6750000D03*
X46550000Y6750000D03*
X48750000Y9750000D03*
X45450000Y8750000D03*
X44350000Y6750000D03*
X43250000Y9750000D03*
X46550000Y7750000D03*
X43250000Y8750000D03*
X44350000Y9750000D03*
X44350000Y10750000D03*
X46550000Y5750000D03*
X45450000Y5750000D03*
X47650000Y8750000D03*
X47650000Y10750000D03*
%TO.N,/H2/VDD*%
X47650000Y39000000D03*
X48750000Y38000000D03*
X45450000Y40000000D03*
X45450000Y36000000D03*
X47650000Y38000000D03*
X47650000Y36000000D03*
X43250000Y37000000D03*
X46550000Y37000000D03*
X45450000Y37000000D03*
X48750000Y35000000D03*
X46550000Y38000000D03*
X45450000Y38000000D03*
X46550000Y39000000D03*
X43250000Y40000000D03*
X45450000Y39000000D03*
X47650000Y37000000D03*
X44350000Y36000000D03*
X46550000Y40000000D03*
X43250000Y35000000D03*
X48750000Y40000000D03*
X48750000Y37000000D03*
X43250000Y36000000D03*
X48750000Y36000000D03*
X46550000Y36000000D03*
X44350000Y37000000D03*
X44350000Y38000000D03*
X48750000Y39000000D03*
X43250000Y39000000D03*
X43250000Y38000000D03*
X44350000Y39000000D03*
X44350000Y40000000D03*
X46550000Y35000000D03*
X45450000Y35000000D03*
X44350000Y35000000D03*
X47650000Y40000000D03*
X47650000Y35000000D03*
X43250000Y49750000D03*
X46550000Y49750000D03*
X45450000Y49750000D03*
X44350000Y49750000D03*
X47650000Y49750000D03*
X48750000Y48750000D03*
X43250000Y48750000D03*
X46550000Y48750000D03*
X45450000Y48750000D03*
X44350000Y48750000D03*
X47650000Y48750000D03*
X48750000Y47750000D03*
X43250000Y47750000D03*
X46550000Y47750000D03*
X45450000Y47750000D03*
X44350000Y47750000D03*
X47650000Y47750000D03*
X48750000Y46750000D03*
X43250000Y46750000D03*
X46550000Y46750000D03*
X45450000Y46750000D03*
X44350000Y46750000D03*
X47650000Y46750000D03*
X48750000Y45750000D03*
X43250000Y45750000D03*
X46550000Y45750000D03*
X45450000Y45750000D03*
X44350000Y45750000D03*
X47650000Y45750000D03*
X47650000Y44750000D03*
X46550000Y44750000D03*
X45450000Y44750000D03*
X44350000Y44750000D03*
X43250000Y44750000D03*
X48750000Y44750000D03*
X48750000Y49750000D03*
%TO.N,/H1SELR*%
X19750000Y45750004D03*
X23225835Y38218059D03*
X19919186Y38619790D03*
X17250000Y46869790D03*
%TO.N,/DIRREL1*%
X12500000Y14500000D03*
X12500000Y13000000D03*
X12500000Y11000000D03*
X72500000Y3000000D03*
%TO.N,/H2SELL*%
X27250000Y34250000D03*
X17250000Y42000000D03*
X19630210Y42035541D03*
X19736399Y36188789D03*
%TO.N,/H2SELR*%
X17500000Y36000000D03*
X22755610Y36750000D03*
%TO.N,/H1SELL*%
X19250000Y50250000D03*
X24750000Y50250000D03*
%TO.N,/BRAKE*%
X16035500Y34464500D03*
X24750000Y44000000D03*
X12011789Y34299471D03*
X12011789Y44011791D03*
%TO.N,/SPWM2_OUT*%
X31250000Y7000000D03*
X31250000Y11500000D03*
X31264360Y18247382D03*
X28187311Y37936450D03*
X29879533Y37935165D03*
X20750000Y6999986D03*
%TO.N,/SPWM1_OUT*%
X21000000Y14750000D03*
X18750000Y14750000D03*
X20320626Y23846035D03*
X18750000Y21500000D03*
%TO.N,Net-(R20-Pad2)*%
X24311211Y24506242D03*
X23000000Y24750006D03*
%TO.N,Net-(R21-Pad2)*%
X26070000Y30750000D03*
X23500000Y30750000D03*
%TO.N,/logic/H1INL*%
X21750000Y1750000D03*
%TO.N,/logic/H2INL*%
X31300000Y28450000D03*
%TO.N,/logic/H1INR*%
X23250000Y26000000D03*
X25500000Y29369790D03*
X25350976Y34191169D03*
X24576581Y35240724D03*
X23500000Y23000000D03*
%TO.N,/logic/H2INR*%
X30000000Y55000000D03*
%TO.N,/CurrentSensing/VMID*%
X18000000Y61498602D03*
D30*
X15750000Y60750000D03*
D31*
%TO.N,Net-(R45-Pad1)*%
X16105849Y59679434D03*
X24411727Y59438037D03*
%TO.N,Net-(D7-Pad1)*%
X68250000Y4500000D03*
X71750000Y4500000D03*
%TO.N,Net-(D9-Pad1)*%
X69250000Y16250000D03*
X70750000Y16250000D03*
%TO.N,Net-(D12-Pad1)*%
X33047543Y50702457D03*
X36599997Y50700003D03*
%TO.N,/SDX*%
X17250000Y32000000D03*
X11750000Y32000000D03*
X12011789Y47724333D03*
X23000000Y5500000D03*
X23655610Y3540800D03*
X27000000Y47500000D03*
X19249990Y30000000D03*
X31250000Y19750000D03*
X22935811Y19751124D03*
%TO.N,Net-(R30-Pad2)*%
X22250000Y39250000D03*
X18500000Y39750000D03*
%TO.N,Net-(R31-Pad2)*%
X27340000Y39660000D03*
X29554589Y31250000D03*
X31250000Y31671387D03*
X29043580Y39107412D03*
%TO.N,Net-(U15-Pad8)*%
X26000000Y36500000D03*
X28500000Y34500002D03*
%TO.N,Net-(U15-Pad6)*%
X23500000Y39000000D03*
X28171387Y39000000D03*
%TO.N,Net-(U15-Pad3)*%
X20302529Y34060068D03*
X22094390Y34649996D03*
D30*
%TO.N,Net-(R23-Pad1)*%
X23250000Y65000000D03*
X37750000Y63000000D03*
%TD*%
D32*
%TO.N,GNDS*%
X58250000Y25360000D02*
X58250000Y24500000D01*
X20230000Y67270000D02*
X20250000Y67250000D01*
X20230000Y68350000D02*
X20230000Y67270000D01*
D33*
X14600000Y62710000D02*
X14600000Y61600000D01*
X14600000Y61600000D02*
X14500000Y61500000D01*
D32*
X2080000Y9920000D02*
X2000000Y10000000D01*
X3975000Y9920000D02*
X2080000Y9920000D01*
X2000000Y10000000D02*
X1250000Y10000000D01*
X5670000Y54920000D02*
X5750000Y55000000D01*
X3825000Y54920000D02*
X5670000Y54920000D01*
X5750000Y55000000D02*
X6500000Y55000000D01*
D33*
X38710000Y55460000D02*
X38750000Y55500000D01*
X38710000Y54500000D02*
X38710000Y55460000D01*
X40390000Y60140000D02*
X40250000Y60000000D01*
X40390000Y61000000D02*
X40390000Y60140000D01*
X18850000Y52730000D02*
X17520000Y52730000D01*
D32*
X48475000Y53275000D02*
X48500000Y53250000D01*
X48475000Y54095000D02*
X48475000Y53275000D01*
D33*
X13270000Y7730000D02*
X13250000Y7750000D01*
X14650000Y7730000D02*
X13270000Y7730000D01*
X13270000Y15730000D02*
X13250000Y15750000D01*
X14650000Y15730000D02*
X13270000Y15730000D01*
X7850000Y23600000D02*
X7750000Y23500000D01*
X7850000Y24480000D02*
X7850000Y23600000D01*
X7850000Y29850000D02*
X7750000Y29750000D01*
X7850000Y30830000D02*
X7850000Y29850000D01*
X7850000Y36100000D02*
X7750000Y36000000D01*
X7850000Y36880000D02*
X7850000Y36100000D01*
X7850000Y42100000D02*
X7750000Y42000000D01*
X7850000Y42930000D02*
X7850000Y42100000D01*
X7850000Y47850000D02*
X7750000Y47750000D01*
X7850000Y48530000D02*
X7850000Y47850000D01*
D32*
X37646080Y56603920D02*
X38750000Y55500000D01*
X37646080Y59901647D02*
X37646080Y56603920D01*
X48225000Y24275000D02*
X48250000Y24250000D01*
X48225000Y25345000D02*
X48225000Y24275000D01*
X51750000Y24500000D02*
X51750000Y24250000D01*
X51750000Y25510000D02*
X51750000Y24500000D01*
D34*
X11750000Y63000000D02*
X11750000Y63750000D01*
X11750000Y63750000D02*
X11750000Y58000000D01*
X11750000Y57250000D02*
X11750000Y58000000D01*
X41500000Y23250000D02*
X32250000Y23250000D01*
D32*
X21500000Y21500000D02*
X21500000Y19250000D01*
D34*
X11750000Y65748682D02*
X10750000Y66748682D01*
X11750000Y63750000D02*
X11750000Y65748682D01*
X10750000Y69750000D02*
X10750000Y69750000D01*
X10750000Y66748682D02*
X10750000Y66750000D01*
X10890000Y69890000D02*
X12000000Y69890000D01*
X9500000Y69890000D02*
X10890000Y69890000D01*
X10750000Y69750000D02*
X10890000Y69890000D01*
X10750000Y66750000D02*
X10750000Y69750000D01*
D33*
X17500000Y58610000D02*
X17500000Y57750000D01*
X20250000Y58610000D02*
X20250000Y57750000D01*
X20230000Y68350000D02*
X20230000Y69770000D01*
X19634918Y69770000D02*
X19000000Y70404918D01*
X20230000Y69770000D02*
X19634918Y69770000D01*
X19261000Y72890000D02*
X20250000Y72890000D01*
X19000000Y72629000D02*
X19261000Y72890000D01*
X19000000Y70404918D02*
X19000000Y72629000D01*
X20230000Y69770000D02*
X21480000Y69770000D01*
X21500000Y69750000D02*
X21500000Y68350000D01*
X21480000Y69770000D02*
X21500000Y69750000D01*
%TO.N,+5VISO*%
X40490000Y54500000D02*
X40490000Y55990000D01*
X47405000Y57905000D02*
X47250000Y57750000D01*
X48475000Y57905000D02*
X47405000Y57905000D01*
D32*
X32750000Y31000000D02*
X32750000Y33750000D01*
D33*
X40250000Y54260000D02*
X40490000Y54500000D01*
X40250000Y52750000D02*
X40250000Y54260000D01*
X30535137Y36995722D02*
X30535137Y38214863D01*
X30470392Y36930977D02*
X30535137Y36995722D01*
X30535137Y38214863D02*
X29750000Y39000000D01*
X29750000Y39000000D02*
X29750000Y46500000D01*
X29750000Y46500000D02*
X31000000Y47750000D01*
X31000000Y47750000D02*
X31000000Y51000000D01*
D32*
X50750000Y27605000D02*
X50750000Y26750000D01*
X49200000Y29155000D02*
X50750000Y27605000D01*
X48225000Y29155000D02*
X49200000Y29155000D01*
D34*
X51210000Y26750000D02*
X51750000Y27290000D01*
X50750000Y26750000D02*
X51210000Y26750000D01*
X9175000Y67815000D02*
X9610000Y68250000D01*
X9175000Y65080000D02*
X9175000Y67815000D01*
X8500000Y68500000D02*
X9000000Y68500000D01*
X8250000Y68750000D02*
X8500000Y68500000D01*
X8750000Y71500000D02*
X8250000Y71000000D01*
X8250000Y71000000D02*
X8250000Y68750000D01*
X13368000Y71500000D02*
X8750000Y71500000D01*
X14600000Y70268000D02*
X13368000Y71500000D01*
X14600000Y69180000D02*
X14600000Y70268000D01*
D32*
X14600000Y69180000D02*
X15716000Y69180000D01*
X15754101Y66495899D02*
X16500000Y65750000D01*
X15716000Y69180000D02*
X15754101Y69141899D01*
X15754101Y69141899D02*
X15754101Y66495899D01*
X16500000Y65750000D02*
X16500000Y63750000D01*
X16500000Y63750000D02*
X16500000Y62500000D01*
X16500000Y63750000D02*
X16500000Y61930411D01*
X16500000Y61390000D02*
X17500000Y60390000D01*
X16500000Y62500000D02*
X16500000Y61390000D01*
D33*
X20961389Y61457389D02*
X21500000Y61996000D01*
X19103982Y61457389D02*
X20961389Y61457389D01*
X18948297Y61301703D02*
X19103982Y61457389D01*
X21500000Y61996000D02*
X21500000Y63150000D01*
X18610000Y60390000D02*
X18948297Y60728297D01*
X18948297Y60728297D02*
X18948297Y61301703D01*
X17500000Y60390000D02*
X18610000Y60390000D01*
%TO.N,GNDPWR*%
X68250000Y47041680D02*
X68250000Y47750000D01*
X16140000Y44890000D02*
X16000000Y44750000D01*
X17200000Y44890000D02*
X16140000Y44890000D01*
X16060000Y28810000D02*
X16000000Y28750000D01*
X17200000Y28810000D02*
X16060000Y28810000D01*
X28610000Y26610000D02*
X28500000Y26500000D01*
X28610000Y27650000D02*
X28610000Y26610000D01*
X23650000Y48600000D02*
X23750000Y48500000D01*
X22890000Y48600000D02*
X23650000Y48600000D01*
X28000000Y53360000D02*
X28000000Y52500000D01*
X30095000Y52595000D02*
X30000000Y52500000D01*
X31100000Y52595000D02*
X30095000Y52595000D01*
X16110000Y26390000D02*
X16000000Y26500000D01*
X17200000Y26390000D02*
X16110000Y26390000D01*
X16310000Y49690000D02*
X16250000Y49750000D01*
X17200000Y49690000D02*
X16310000Y49690000D01*
X16860000Y20500000D02*
X16000000Y20500000D01*
X17250000Y38890000D02*
X17250000Y39749998D01*
D32*
X20110000Y37640000D02*
X20000000Y37750000D01*
X21000000Y37640000D02*
X20110000Y37640000D01*
X24650000Y14399984D02*
X24250000Y13999984D01*
X24650000Y14595000D02*
X24650000Y14399984D01*
X26360000Y25610000D02*
X26500000Y25750000D01*
X26360000Y24750000D02*
X26360000Y25610000D01*
X24250000Y10640000D02*
X24250000Y11500000D01*
D33*
X33595000Y27595000D02*
X33250000Y27250000D01*
X34150000Y27595000D02*
X33595000Y27595000D01*
D34*
X29210000Y62960000D02*
X29500000Y63250000D01*
X29210000Y59000000D02*
X29210000Y62960000D01*
X73550000Y3050000D02*
X73500000Y3000000D01*
X74500000Y3050000D02*
X73550000Y3050000D01*
D32*
X73500000Y2250010D02*
X73500000Y3000000D01*
X31250000Y33470000D02*
X31250000Y32750002D01*
D33*
X28994390Y40600000D02*
X29094390Y40500000D01*
X28610000Y40600000D02*
X28994390Y40600000D01*
X68250000Y37291680D02*
X68250000Y38000000D01*
D32*
X21739589Y4750000D02*
X20890000Y4750000D01*
X24650000Y2095000D02*
X24650000Y1349996D01*
X24650000Y1349996D02*
X24749996Y1250000D01*
D34*
X27500000Y3750000D02*
X27500000Y1750000D01*
X27500000Y3750000D02*
X27500000Y4500000D01*
X27500000Y1750000D02*
X28250006Y1750000D01*
D35*
X29400000Y68500000D02*
X29400000Y70900000D01*
D36*
X29500000Y63250000D02*
X29700000Y63450000D01*
X29700000Y63450000D02*
X29700000Y63655610D01*
X29601600Y63898400D02*
X29601600Y63754010D01*
X29601600Y63754010D02*
X29700000Y63655610D01*
D33*
X80890000Y7500000D02*
X82000000Y7500000D01*
D36*
X86740000Y7500000D02*
X87750000Y7500000D01*
D34*
%TO.N,+12V*%
X30900000Y65990001D02*
X31400001Y65490000D01*
X30900000Y68400000D02*
X30900000Y65990001D01*
X30990000Y60098000D02*
X30990000Y59000000D01*
X32242000Y61350000D02*
X30990000Y60098000D01*
X33375000Y61350000D02*
X32242000Y61350000D01*
X31100000Y58890000D02*
X30990000Y59000000D01*
D35*
X28140000Y23860000D02*
X28250000Y23750000D01*
X28140000Y24750000D02*
X28140000Y23860000D01*
D32*
X31325000Y23825000D02*
X31325000Y21800000D01*
X31325000Y24750000D02*
X31325000Y23825000D01*
X34150000Y33466000D02*
X34150000Y31405000D01*
X32366000Y35250000D02*
X34150000Y33466000D01*
X31250000Y35250000D02*
X32366000Y35250000D01*
X25873499Y11348499D02*
X26775000Y12250000D01*
X25017685Y18405000D02*
X24650000Y18405000D01*
X26250000Y17172685D02*
X25017685Y18405000D01*
X26250000Y12775000D02*
X26250000Y17172685D01*
X26775000Y12250000D02*
X26250000Y12775000D01*
X28250000Y23750000D02*
X27950001Y23450001D01*
X24650000Y23033702D02*
X25066299Y23450001D01*
X27950001Y23450001D02*
X27700007Y23450001D01*
X25066299Y23450001D02*
X27700007Y23450001D01*
X24650000Y18405000D02*
X24650000Y23033702D01*
X34406890Y26825890D02*
X35018575Y26825890D01*
X35703889Y31132111D02*
X35431000Y31405000D01*
X31325000Y24750000D02*
X32331000Y24750000D01*
X32331000Y24750000D02*
X34406890Y26825890D01*
X35431000Y31405000D02*
X34150000Y31405000D01*
X35703889Y27511204D02*
X35703889Y31132111D01*
X35018575Y26825890D02*
X35703889Y27511204D01*
D34*
X33510000Y65490000D02*
X31400001Y65490000D01*
X33375000Y65355000D02*
X33510000Y65490000D01*
X33375000Y61350000D02*
X33375000Y65355000D01*
D32*
X24250000Y6305000D02*
X24650000Y5905000D01*
X24250000Y8860000D02*
X24250000Y6305000D01*
X25873499Y10376501D02*
X25873499Y11348499D01*
X25873499Y8873499D02*
X25873499Y10376501D01*
X25860000Y8860000D02*
X25873499Y8873499D01*
X24250000Y8860000D02*
X25860000Y8860000D01*
X33458957Y52041043D02*
X33458957Y55866789D01*
X33458957Y55866789D02*
X33250000Y56075746D01*
X33250000Y56075746D02*
X33250000Y56500010D01*
D34*
X31100000Y57650000D02*
X31100000Y58890000D01*
X31100000Y56405000D02*
X31100000Y57000000D01*
D32*
X30990000Y57110000D02*
X31100000Y57000000D01*
X30990000Y59000000D02*
X30990000Y57110000D01*
X31282656Y46195099D02*
X31573211Y46485654D01*
X31189496Y35310504D02*
X31189496Y40396681D01*
X31250000Y35250000D02*
X31189496Y35310504D01*
X31282656Y40489841D02*
X31282656Y46195099D01*
X31189496Y40396681D02*
X31282656Y40489841D01*
D34*
X47010000Y65490000D02*
X31400001Y65490000D01*
X51000000Y61500000D02*
X47010000Y65490000D01*
X51000000Y53750000D02*
X51000000Y61500000D01*
X51750000Y53000000D02*
X51000000Y53750000D01*
X58250000Y53000000D02*
X51750000Y53000000D01*
X59025000Y53775000D02*
X58250000Y53000000D01*
X59025000Y54920000D02*
X59025000Y53775000D01*
D33*
X32232611Y50732611D02*
X32232611Y47145054D01*
X32250000Y50832086D02*
X32250000Y50750000D01*
X32232611Y47145054D02*
X31573211Y46485654D01*
X32250000Y50750000D02*
X32232611Y50732611D01*
X33458957Y52041043D02*
X32250000Y50832086D01*
D36*
X83760000Y6965000D02*
X86725000Y4000000D01*
X83760000Y7500000D02*
X83760000Y6965000D01*
X86725000Y4000000D02*
X89000000Y4000000D01*
D32*
X26250000Y7516298D02*
X25873499Y7892799D01*
X25873499Y7892799D02*
X25873499Y10376501D01*
X26250000Y1250000D02*
X26250000Y7516298D01*
X26750000Y750000D02*
X26250000Y1250000D01*
X85750000Y750000D02*
X26750000Y750000D01*
X89000000Y4000000D02*
X85750000Y750000D01*
D34*
%TO.N,Net-(C4-Pad1)*%
X29850000Y9110000D02*
X29990000Y9250000D01*
X29850000Y5905000D02*
X29850000Y9110000D01*
X29725000Y9515000D02*
X29990000Y9250000D01*
X29725000Y12250000D02*
X29725000Y9515000D01*
D32*
%TO.N,Net-(C5-Pad1)*%
X39255000Y31500000D02*
X39350000Y31405000D01*
X37750000Y31500000D02*
X39255000Y31500000D01*
X36510000Y24750000D02*
X36710000Y24950000D01*
X34275000Y24750000D02*
X36510000Y24750000D01*
X36710000Y24950000D02*
X37046109Y25286109D01*
X37046109Y25286109D02*
X37046109Y29373891D01*
X37046109Y29373891D02*
X37010003Y29409997D01*
D35*
%TO.N,Net-(C6-Pad1)*%
X34250000Y21775000D02*
X34275000Y21800000D01*
X34250000Y20500000D02*
X34250000Y21775000D01*
D32*
X29850000Y18405000D02*
X29850000Y19898013D01*
X28890000Y20858013D02*
X29342403Y20405610D01*
X29850000Y19898013D02*
X29342403Y20405610D01*
X28890000Y21800000D02*
X28890000Y20858013D01*
D34*
%TO.N,Net-(C8-Pad1)*%
X36240000Y56465000D02*
X36300000Y56405000D01*
X36240000Y58950000D02*
X36240000Y56465000D01*
X36240000Y61265000D02*
X36325000Y61350000D01*
X36240000Y58950000D02*
X36240000Y61265000D01*
D32*
%TO.N,/VIOut1*%
X58110000Y27280000D02*
X58250000Y27140000D01*
X55000000Y27280000D02*
X58110000Y27280000D01*
D33*
X35000000Y35250000D02*
X33500000Y36750000D01*
X35000000Y33000000D02*
X35000000Y35250000D01*
X36250000Y31750000D02*
X35000000Y33000000D01*
X36250000Y26500000D02*
X36250000Y31750000D01*
X31750000Y47500000D02*
X30563554Y46313554D01*
X32838221Y52102823D02*
X31750000Y51014602D01*
X32838221Y54357177D02*
X32838221Y52102823D01*
X32585850Y54609548D02*
X32838221Y54357177D01*
X30563554Y46313554D02*
X30563554Y40835011D01*
X31750000Y51014602D02*
X31750000Y47500000D01*
X32585850Y57345337D02*
X32585850Y54609548D01*
X32030575Y57900612D02*
X32585850Y57345337D01*
D32*
X54530000Y27280000D02*
X53625000Y26375000D01*
X55000000Y27280000D02*
X54530000Y27280000D01*
D33*
X22750000Y58610000D02*
X22750000Y57750000D01*
%TO.N,/VIOut2*%
X38610000Y61000000D02*
X38610000Y61155000D01*
X47500000Y62500000D02*
X47500000Y61640000D01*
X46500000Y63500000D02*
X47500000Y62500000D01*
X40530000Y63500000D02*
X46500000Y63500000D01*
X40000000Y62545000D02*
X40000000Y63000000D01*
X38610000Y61155000D02*
X40000000Y62545000D01*
X38110000Y61500000D02*
X38610000Y61000000D01*
X37750000Y61500000D02*
X38110000Y61500000D01*
D34*
%TO.N,+5V*%
X27900000Y65719999D02*
X28129999Y65490000D01*
X27900000Y68400000D02*
X27900000Y65719999D01*
D32*
X27750000Y56959382D02*
X26250000Y55459382D01*
X26250000Y55459382D02*
X25339382Y55459382D01*
X27750000Y61250000D02*
X27750000Y56959382D01*
X26750000Y65226001D02*
X26750000Y62250000D01*
X27013999Y65490000D02*
X26750000Y65226001D01*
X28129999Y65490000D02*
X27013999Y65490000D01*
X26750000Y62250000D02*
X27750000Y61250000D01*
X25339382Y55459382D02*
X25150000Y55270000D01*
X22260000Y45800000D02*
X22260000Y46990000D01*
X22260000Y46990000D02*
X22000000Y47250000D01*
X21000000Y47250000D02*
X20990000Y47240000D01*
X22000000Y47250000D02*
X21000000Y47250000D01*
X20990000Y45800000D02*
X20990000Y47240000D01*
D33*
X21000000Y35250000D02*
X19500000Y35250000D01*
D32*
X14150000Y27020000D02*
X12520000Y27020000D01*
X12520000Y27020000D02*
X12500000Y27040000D01*
X12500000Y27040000D02*
X12500000Y33250000D01*
X14030000Y33250000D02*
X14150000Y33370000D01*
X12500000Y33250000D02*
X14030000Y33250000D01*
X12730899Y33480899D02*
X12500000Y33250000D01*
X14150000Y39420000D02*
X12730899Y39420000D01*
X12730899Y39420000D02*
X12730899Y45480899D01*
X12741798Y45470000D02*
X14150000Y45470000D01*
X12730899Y45480899D02*
X12741798Y45470000D01*
X12730899Y45480899D02*
X12730899Y50980899D01*
X12820000Y51070000D02*
X14150000Y51070000D01*
X12730899Y50980899D02*
X12820000Y51070000D01*
X12730899Y35230899D02*
X12730899Y33480899D01*
X12730899Y39420000D02*
X12730899Y35230899D01*
X19581798Y18270000D02*
X19530899Y18219101D01*
X20950000Y18270000D02*
X19581798Y18270000D01*
X19530899Y18219101D02*
X19530899Y10308101D01*
X19530899Y10308101D02*
X19569000Y10270000D01*
X19569000Y10270000D02*
X20950000Y10270000D01*
D33*
X20610000Y52360000D02*
X23520000Y55270000D01*
X20610000Y48600000D02*
X20610000Y52360000D01*
X23520000Y55270000D02*
X25150000Y55270000D01*
D32*
X20990000Y48480000D02*
X20990000Y47240000D01*
X20610000Y50890000D02*
X20610000Y48860000D01*
X20430000Y51070000D02*
X20610000Y50890000D01*
X20610000Y48860000D02*
X20990000Y48480000D01*
X14150000Y51070000D02*
X20430000Y51070000D01*
X20000000Y18688202D02*
X19530899Y18219101D01*
X20000000Y21314272D02*
X20000000Y18688202D01*
X14150000Y27020000D02*
X14519101Y27389101D01*
X18446477Y22867795D02*
X20000000Y21314272D01*
X18446477Y27212905D02*
X18446477Y22867795D01*
X18270281Y27389101D02*
X18446477Y27212905D01*
X14519101Y27389101D02*
X18270281Y27389101D01*
D33*
X20990000Y35850000D02*
X21000000Y35860000D01*
X20990000Y32850000D02*
X20990000Y35850000D01*
D32*
X21021631Y35838369D02*
X21000000Y35860000D01*
%TO.N,Net-(C17-Pad1)*%
X14600000Y67400000D02*
X14600000Y64490000D01*
D33*
X15740000Y64490000D02*
X15750000Y64500000D01*
X14600000Y64490000D02*
X15740000Y64490000D01*
X20250000Y63170000D02*
X20230000Y63150000D01*
X20250000Y64500000D02*
X20250000Y63170000D01*
D34*
X12710000Y67400000D02*
X12000000Y68110000D01*
X14600000Y67400000D02*
X12710000Y67400000D01*
D32*
%TO.N,Net-(D5-Pad2)*%
X77000000Y4000000D02*
X81500000Y4000000D01*
X83750000Y1750000D02*
X81500000Y4000000D01*
X83775000Y1750000D02*
X83750000Y1750000D01*
%TO.N,/H1/LH*%
X33275000Y6335000D02*
X33000000Y6610000D01*
X33275000Y4000000D02*
X33275000Y6335000D01*
X32640000Y4635000D02*
X29850000Y4635000D01*
X33275000Y4000000D02*
X32640000Y4635000D01*
D33*
%TO.N,/H1/LL*%
X69085000Y10000000D02*
X71750000Y7335000D01*
X68525000Y10000000D02*
X69085000Y10000000D01*
D32*
X31155000Y2095000D02*
X31250000Y2000000D01*
X29850000Y2095000D02*
X31155000Y2095000D01*
D33*
X70761000Y7335000D02*
X71750000Y7335000D01*
X70000000Y6574000D02*
X70761000Y7335000D01*
X70000000Y2000000D02*
X70000000Y6574000D01*
D32*
%TO.N,/H1/RH*%
X33250000Y14525000D02*
X33275000Y14500000D01*
X33250000Y17360000D02*
X33250000Y14525000D01*
X29850000Y17135000D02*
X33025000Y17135000D01*
X33025000Y17135000D02*
X33250000Y17360000D01*
%TO.N,/H1/RL*%
X70456671Y19206671D02*
X71750000Y17913341D01*
X29850000Y14595000D02*
X29850000Y13864000D01*
X29850000Y13864000D02*
X31353151Y12360849D01*
X70030899Y18780899D02*
X70456671Y19206671D01*
X31353151Y12360849D02*
X58110849Y12360849D01*
X58110849Y12360849D02*
X60884240Y15134240D01*
X60884240Y15134240D02*
X69260308Y15134240D01*
X69260308Y15134240D02*
X70030899Y15904831D01*
X70030899Y15904831D02*
X70030899Y18780899D01*
X70456671Y20543329D02*
X70250000Y20750000D01*
X70456671Y19206671D02*
X70456671Y20543329D01*
%TO.N,/H2/LH*%
X33578320Y38000000D02*
X36000000Y40421680D01*
X33275000Y38000000D02*
X33578320Y38000000D01*
D34*
X37942000Y30135000D02*
X39350000Y30135000D01*
X34408000Y38000000D02*
X36502509Y35905491D01*
X36502509Y35905491D02*
X36502509Y32359611D01*
X36502509Y32359611D02*
X36859611Y32002509D01*
X36859611Y32002509D02*
X36859611Y31217389D01*
X33275000Y38000000D02*
X34408000Y38000000D01*
X36859611Y31217389D02*
X37942000Y30135000D01*
D32*
%TO.N,/H2/LL*%
X71733320Y37291680D02*
X68525000Y40500000D01*
X71750000Y37291680D02*
X71733320Y37291680D01*
D33*
X71208320Y36750000D02*
X71750000Y37291680D01*
X70000000Y36750000D02*
X71208320Y36750000D01*
X54755601Y31005601D02*
X57000000Y33250000D01*
X43061654Y31005601D02*
X54755601Y31005601D01*
X41755601Y28846601D02*
X41755601Y29699548D01*
X40504000Y27595000D02*
X41755601Y28846601D01*
X39350000Y27595000D02*
X40504000Y27595000D01*
X41755601Y29699548D02*
X43061654Y31005601D01*
D32*
%TO.N,/H2/RH*%
X33275000Y45385000D02*
X36000000Y48110000D01*
X33275000Y45250000D02*
X33275000Y45385000D01*
D33*
X36300000Y55135000D02*
X37135000Y55135000D01*
D35*
X36600000Y48110000D02*
X36000000Y48110000D01*
X37682610Y54855590D02*
X37403200Y55135000D01*
X37682610Y52465648D02*
X37682610Y54855590D01*
X36616962Y51400000D02*
X37682610Y52465648D01*
X37403200Y55135000D02*
X36300000Y55135000D01*
X36100000Y51400000D02*
X36616962Y51400000D01*
X35400000Y50700000D02*
X36100000Y51400000D01*
X35400000Y48100000D02*
X35400000Y50700000D01*
X35695000Y47805000D02*
X35400000Y48100000D01*
X36000000Y48110000D02*
X35695000Y47805000D01*
D33*
%TO.N,/H2/RL*%
X71404981Y47120019D02*
X68525000Y50000000D01*
X71750000Y47120019D02*
X71404981Y47120019D01*
X68525000Y50975000D02*
X68500000Y51000000D01*
X68525000Y50000000D02*
X68525000Y50975000D01*
X36300000Y52117453D02*
X36243758Y52061211D01*
X36300000Y52595000D02*
X36300000Y52117453D01*
D34*
%TO.N,/Fused*%
X86000000Y48400000D02*
X86000000Y50250000D01*
%TO.N,/VISenseOut2*%
X3825000Y62540000D02*
X2040000Y62540000D01*
X2040000Y62540000D02*
X2000000Y62500000D01*
D32*
X25310000Y71090000D02*
X25000000Y71400000D01*
X25310000Y68350000D02*
X25310000Y71090000D01*
D33*
X5710000Y62540000D02*
X5750000Y62500000D01*
X3825000Y62540000D02*
X5710000Y62540000D01*
X25310000Y68350000D02*
X26203889Y67456111D01*
X26203889Y67456111D02*
X26203889Y61523794D01*
X26203889Y61523794D02*
X27030890Y60696793D01*
X27030890Y60696793D02*
X27030890Y59373906D01*
D34*
%TO.N,/VISenseOut1*%
X2080000Y65080000D02*
X2000000Y65000000D01*
X3825000Y65080000D02*
X2080000Y65080000D01*
D32*
X25310000Y60580000D02*
X25600000Y60290000D01*
X25310000Y63150000D02*
X25310000Y60580000D01*
D33*
X3905000Y65000000D02*
X3825000Y65080000D01*
X5750000Y65000000D02*
X3905000Y65000000D01*
X25600000Y60290000D02*
X25600000Y60899996D01*
X25600000Y60899996D02*
X25499998Y60999998D01*
%TO.N,/SPWM2*%
X9025000Y5585000D02*
X9860000Y4750000D01*
X9025000Y9920000D02*
X9025000Y5585000D01*
%TO.N,/RELIN6*%
X8815000Y12250000D02*
X9025000Y12460000D01*
X7000000Y12250000D02*
X8815000Y12250000D01*
X1905602Y16435310D02*
X1905602Y21155601D01*
X2888213Y22138212D02*
X2888213Y35753213D01*
X1500000Y16029708D02*
X1905602Y16435310D01*
X1905602Y21155601D02*
X2888213Y22138212D01*
X1500000Y12250000D02*
X1500000Y16029708D01*
X2888213Y35753213D02*
X4600000Y37465000D01*
%TO.N,/SPWM1*%
X3975000Y12460000D02*
X5960000Y12460000D01*
X5960000Y12460000D02*
X7250000Y13750000D01*
X7250000Y13750000D02*
X14250000Y13750000D01*
%TO.N,/RELIN4*%
X7196000Y15000000D02*
X9025000Y15000000D01*
X5905601Y16290399D02*
X7196000Y15000000D01*
X5905601Y23759399D02*
X5905601Y16290399D01*
X4600000Y25065000D02*
X5905601Y23759399D01*
%TO.N,/RELIN5*%
X3975000Y15000000D02*
X2317454Y15000000D01*
X2317454Y15000000D02*
X2311212Y15006242D01*
X2405602Y22338116D02*
X1094390Y21026904D01*
X4600000Y43515000D02*
X2405602Y41320602D01*
X2405602Y41320602D02*
X2405602Y22338116D01*
X1094390Y21026904D02*
X1094390Y17405610D01*
D32*
%TO.N,/RELIN2*%
X10849087Y33793077D02*
X10849087Y49961207D01*
X10981000Y17540000D02*
X11030899Y17589899D01*
X11030899Y17589899D02*
X11030899Y33611265D01*
X11030899Y33611265D02*
X10849087Y33793077D01*
X14197880Y53310000D02*
X15600000Y53310000D01*
X9025000Y17540000D02*
X10981000Y17540000D01*
X10849087Y49961207D02*
X14197880Y53310000D01*
D33*
%TO.N,/RELIN3*%
X3500000Y18015000D02*
X3975000Y17540000D01*
X3500000Y18250000D02*
X3500000Y18015000D01*
X4600000Y49115000D02*
X1695150Y46210150D01*
X1695150Y46210150D02*
X1695150Y22945150D01*
%TO.N,/RELIN1*%
X4600000Y20400000D02*
X4750000Y20250000D01*
X3509399Y20545601D02*
X3975000Y20080000D01*
X3509399Y30324399D02*
X3509399Y20545601D01*
X4600000Y31415000D02*
X3509399Y30324399D01*
D32*
%TO.N,/H1LO*%
X57250000Y8103361D02*
X56353361Y8103361D01*
X56603361Y8103361D02*
X56000000Y7500000D01*
X57250000Y8103361D02*
X56603361Y8103361D01*
X56000000Y7500000D02*
X55000000Y7500000D01*
X56560039Y8310039D02*
X55750000Y7500000D01*
X57250000Y8310039D02*
X56560039Y8310039D01*
D37*
X52275020Y3250000D02*
X57300000Y8274980D01*
X41667900Y3250000D02*
X52275020Y3250000D01*
D32*
X37640000Y6610000D02*
X38250000Y6000000D01*
X36250000Y6610000D02*
X37640000Y6610000D01*
D37*
X40333950Y4583950D02*
X41667900Y3250000D01*
X39004170Y5913730D02*
X40333950Y4583950D01*
D34*
X31641998Y3365000D02*
X32506998Y2500000D01*
X29850000Y3365000D02*
X31641998Y3365000D01*
X32506998Y2500000D02*
X38000000Y2500000D01*
X40083950Y4583950D02*
X40333950Y4583950D01*
X38000000Y2500000D02*
X40083950Y4583950D01*
D37*
X97000000Y22250000D02*
X97000000Y27040000D01*
X87750000Y13000000D02*
X97000000Y22250000D01*
X62025020Y13000000D02*
X87750000Y13000000D01*
X57300000Y8274980D02*
X62025020Y13000000D01*
D33*
X28375000Y7885000D02*
X27010000Y9250000D01*
X29850000Y3365000D02*
X28696000Y3365000D01*
X28696000Y3365000D02*
X28375000Y3686000D01*
X28375000Y3686000D02*
X28375000Y7885000D01*
D37*
%TO.N,/MOT1_CW*%
X93548990Y28668990D02*
X97000000Y32120000D01*
X93548990Y23548990D02*
X93548990Y28668990D01*
X89000000Y19000000D02*
X93548990Y23548990D01*
X81500000Y19000000D02*
X89000000Y19000000D01*
%TO.N,/MOT1_CCW*%
X89000000Y29200000D02*
X97000000Y37200000D01*
X89000000Y29000000D02*
X89000000Y29200000D01*
X81500000Y29000000D02*
X89000000Y29000000D01*
D32*
%TO.N,/MOT2_N*%
X56560039Y47310039D02*
X55750000Y46500000D01*
X57250000Y47310039D02*
X56560039Y47310039D01*
D37*
X57250000Y47309999D02*
X63440001Y53500000D01*
X96500000Y53500000D02*
X97000000Y53000000D01*
X63440001Y53500000D02*
X96500000Y53500000D01*
X52599039Y42659038D02*
X57250000Y47309999D01*
X41293881Y42659038D02*
X52599039Y42659038D01*
X39004170Y44948749D02*
X41293881Y42659038D01*
D34*
X34892000Y53865000D02*
X36300000Y53865000D01*
D33*
X33000000Y48110000D02*
X33989000Y48110000D01*
D34*
X33260000Y58950000D02*
X34435002Y57774998D01*
X34435002Y57774998D02*
X34435002Y54321998D01*
X34435002Y54321998D02*
X34892000Y53865000D01*
D33*
X33000000Y46924601D02*
X32141999Y46066600D01*
X37805421Y43750000D02*
X39004170Y44948749D01*
X32141999Y44343599D02*
X32735598Y43750000D01*
X32141999Y46066600D02*
X32141999Y44343599D01*
X32735598Y43750000D02*
X37805421Y43750000D01*
X33000000Y48110000D02*
X33000000Y46924601D01*
D35*
X33500000Y48110000D02*
X34438200Y48110000D01*
X34438200Y48110000D02*
X34815789Y48487589D01*
X34815789Y53788789D02*
X34892000Y53865000D01*
X34815789Y48487589D02*
X34815789Y53788789D01*
D32*
%TO.N,/MOT2_P*%
X56560039Y37560039D02*
X55750000Y36750000D01*
X57250000Y37560039D02*
X56560039Y37560039D01*
D34*
X38883760Y35000000D02*
X39004170Y35120410D01*
X37500000Y35000000D02*
X38883760Y35000000D01*
D37*
X52601952Y32783612D02*
X57300000Y37481660D01*
X39004170Y35120410D02*
X39139493Y35120410D01*
X39139493Y35120410D02*
X41476291Y32783612D01*
X41476291Y32783612D02*
X52601952Y32783612D01*
D32*
X38069000Y28865000D02*
X39350000Y28865000D01*
X37878490Y28674490D02*
X38069000Y28865000D01*
X37878490Y27121510D02*
X37878490Y28674490D01*
X39690000Y25310000D02*
X37878490Y27121510D01*
X39690000Y24950000D02*
X39690000Y25310000D01*
X39933211Y28865000D02*
X41476291Y30408080D01*
X41476291Y30408080D02*
X41476291Y32783612D01*
X39350000Y28865000D02*
X39933211Y28865000D01*
D34*
X32014999Y36851197D02*
X33866196Y35000000D01*
X32750000Y40421680D02*
X32014999Y39686679D01*
X33866196Y35000000D02*
X34006998Y35000000D01*
X32014999Y39686679D02*
X32014999Y36851197D01*
D37*
X97000000Y42500000D02*
X97000000Y47920000D01*
X86750000Y32250000D02*
X97000000Y42500000D01*
X61000000Y32250000D02*
X86750000Y32250000D01*
X57000000Y36250000D02*
X61000000Y32250000D01*
X57000000Y37181660D02*
X57000000Y36250000D01*
X57300000Y37481660D02*
X57000000Y37181660D01*
D32*
%TO.N,/H1RO*%
X57250000Y18853361D02*
X56353361Y18853361D01*
X56603361Y18853361D02*
X56000000Y18250000D01*
X57250000Y18853361D02*
X56603361Y18853361D01*
X56000000Y18250000D02*
X55000000Y18250000D01*
X56560039Y19060039D02*
X55750000Y18250000D01*
X57250000Y19060039D02*
X56560039Y19060039D01*
D37*
X57300000Y18890583D02*
X57300000Y18853321D01*
X62409417Y24000000D02*
X57300000Y18890583D01*
X89000000Y24000000D02*
X62409417Y24000000D01*
D32*
X36867929Y16492071D02*
X36000000Y17360000D01*
X39004170Y16492071D02*
X36867929Y16492071D01*
D37*
X39004170Y16492071D02*
X40248121Y15248121D01*
D34*
X32014999Y15108001D02*
X32014999Y13491999D01*
X29850000Y15865000D02*
X31258000Y15865000D01*
X38186360Y13186360D02*
X40248121Y15248121D01*
X31258000Y15865000D02*
X32014999Y15108001D01*
X32014999Y13491999D02*
X32320638Y13186360D01*
X32320638Y13186360D02*
X38186360Y13186360D01*
D37*
X40248121Y15248121D02*
X41293881Y14202360D01*
X41293881Y14202360D02*
X52649039Y14202360D01*
X52649039Y14202360D02*
X57300000Y18853321D01*
D32*
X27012011Y17421989D02*
X28569000Y15865000D01*
X27012011Y20697989D02*
X27012011Y17421989D01*
X25910000Y21800000D02*
X27012011Y20697989D01*
X28569000Y15865000D02*
X29850000Y15865000D01*
D35*
%TO.N,Net-(Q1-Pad1)*%
X74860000Y7550000D02*
X74860000Y6140000D01*
X74860000Y6140000D02*
X74860000Y5310000D01*
D33*
X74860000Y5310000D02*
X74500000Y4950000D01*
X74860000Y7550000D02*
X74860000Y5310000D01*
X77750000Y6140000D02*
X79110000Y7500000D01*
X74860000Y6140000D02*
X77750000Y6140000D01*
D32*
%TO.N,/H1/VDD*%
X45310039Y19060039D02*
X44500000Y18250000D01*
X46000000Y19060039D02*
X45310039Y19060039D01*
X46000000Y8275020D02*
X45474980Y8275020D01*
X46000000Y18853361D02*
X45103361Y18853361D01*
X46000000Y18853361D02*
X45353361Y18853361D01*
X44750000Y18250000D02*
X43750000Y18250000D01*
X45353361Y18853361D02*
X44750000Y18250000D01*
X45224980Y8275020D02*
X43750000Y9750000D01*
X46000000Y8275020D02*
X45224980Y8275020D01*
X46000000Y8103361D02*
X45103361Y8103361D01*
X45353361Y8103361D02*
X44750000Y7500000D01*
X46000000Y8103361D02*
X45353361Y8103361D01*
X44750000Y7500000D02*
X43750000Y7500000D01*
X45310039Y8310039D02*
X44500000Y7500000D01*
X46000000Y8310039D02*
X45310039Y8310039D01*
%TO.N,/H2/VDD*%
X45310039Y37560039D02*
X44500000Y36750000D01*
X46000000Y37560039D02*
X45310039Y37560039D01*
D36*
X46000000Y37481700D02*
X46000000Y39250000D01*
D32*
X45518300Y37481700D02*
X44250000Y38750000D01*
X46000000Y37481700D02*
X45518300Y37481700D01*
X45310039Y47310039D02*
X44500000Y46500000D01*
X46000000Y47310039D02*
X45310039Y47310039D01*
D33*
%TO.N,Net-(R1-Pad1)*%
X15780000Y55270000D02*
X15600000Y55090000D01*
X18850000Y55270000D02*
X15780000Y55270000D01*
%TO.N,Net-(R2-Pad1)*%
X7675000Y50895000D02*
X7850000Y51070000D01*
X4600000Y50895000D02*
X7675000Y50895000D01*
%TO.N,Net-(R3-Pad1)*%
X4775000Y27020000D02*
X4600000Y26845000D01*
X7850000Y27020000D02*
X4775000Y27020000D01*
%TO.N,Net-(R4-Pad1)*%
X7675000Y45295000D02*
X7850000Y45470000D01*
X4600000Y45295000D02*
X7675000Y45295000D01*
%TO.N,Net-(R5-Pad1)*%
X4775000Y39420000D02*
X4600000Y39245000D01*
X7850000Y39420000D02*
X4775000Y39420000D01*
%TO.N,/H1SELR*%
X16580000Y48530000D02*
X17200000Y47910000D01*
X14150000Y48530000D02*
X16580000Y48530000D01*
X20334390Y39034994D02*
X19919186Y38619790D01*
X19750000Y45750004D02*
X20334390Y45165614D01*
X20334390Y45165614D02*
X20334390Y39034994D01*
X17200000Y47910000D02*
X17200000Y46919790D01*
X17200000Y46919790D02*
X17250000Y46869790D01*
X24800000Y27650000D02*
X24800000Y29950000D01*
X24169790Y30580210D02*
X24800000Y29950000D01*
X24169790Y31830210D02*
X24169790Y30580210D01*
D35*
X23434799Y38009095D02*
X23225835Y38218059D01*
X23434799Y35082086D02*
X23434799Y38009095D01*
X24169790Y31830210D02*
X24169790Y34347095D01*
X24169790Y34347095D02*
X23434799Y35082086D01*
D33*
%TO.N,/DIRREL1*%
X17070000Y24480000D02*
X17200000Y24610000D01*
X14150000Y24480000D02*
X17070000Y24480000D01*
D35*
X14150000Y24480000D02*
X14150000Y20900000D01*
X14150000Y20900000D02*
X12500000Y19250000D01*
X12500000Y19250000D02*
X12500000Y14500000D01*
X12500000Y13000000D02*
X12500000Y11000000D01*
X72500000Y4519362D02*
X73750000Y5769362D01*
X72500000Y3000000D02*
X72500000Y4519362D01*
X76640000Y8488200D02*
X76640000Y7550000D01*
X76512999Y8615201D02*
X76640000Y8488200D01*
X74015839Y8615201D02*
X76512999Y8615201D01*
X73750000Y8349362D02*
X74015839Y8615201D01*
X73750000Y5769362D02*
X73750000Y8349362D01*
D33*
%TO.N,/H2SELL*%
X17020000Y42930000D02*
X17200000Y43110000D01*
X14150000Y42930000D02*
X17020000Y42930000D01*
X27340000Y32850000D02*
X27340000Y34160000D01*
X27340000Y34160000D02*
X27250000Y34250000D01*
X17250000Y43060000D02*
X17200000Y43110000D01*
X17250000Y42000000D02*
X17250000Y43060000D01*
D35*
X19630210Y42035541D02*
X19630210Y39263512D01*
X19288985Y38922287D02*
X19288985Y36636203D01*
X19630210Y39263512D02*
X19288985Y38922287D01*
X19288985Y36636203D02*
X19736399Y36188789D01*
D33*
%TO.N,/H2SELR*%
X17020000Y36880000D02*
X17250000Y37110000D01*
X14150000Y36880000D02*
X17020000Y36880000D01*
X17500000Y36860000D02*
X17250000Y37110000D01*
X17500000Y36000000D02*
X17500000Y36860000D01*
X23530000Y32850000D02*
X23530000Y34340292D01*
X23530000Y34340292D02*
X22755610Y35114682D01*
X22755610Y35114682D02*
X22755610Y36750000D01*
%TO.N,/H1SELL*%
X25150000Y52730000D02*
X25980000Y52730000D01*
X27011000Y55140000D02*
X28000000Y55140000D01*
X25980000Y54109000D02*
X27011000Y55140000D01*
X25980000Y52730000D02*
X25980000Y54109000D01*
D35*
X24750000Y50250000D02*
X24750000Y52750000D01*
X18950001Y49950001D02*
X19250000Y50250000D01*
X19130202Y40052498D02*
X18950001Y40232699D01*
X19130202Y39447502D02*
X19130202Y40052498D01*
X18950001Y40232699D02*
X18950001Y49950001D01*
X18857174Y39174474D02*
X19130202Y39447502D01*
X20990000Y29857068D02*
X18857174Y31989894D01*
X20990000Y27650000D02*
X20990000Y29857068D01*
X18857174Y31989894D02*
X18857174Y39174474D01*
D33*
%TO.N,Net-(R11-Pad1)*%
X4775000Y33370000D02*
X4600000Y33195000D01*
X7850000Y33370000D02*
X4775000Y33370000D01*
%TO.N,Net-(R12-Pad1)*%
X11640000Y4750000D02*
X11640000Y9640000D01*
X12270000Y10270000D02*
X14650000Y10270000D01*
X11640000Y9640000D02*
X12270000Y10270000D01*
%TO.N,Net-(R13-Pad1)*%
X15480000Y18270000D02*
X14650000Y18270000D01*
X16290000Y17460000D02*
X15480000Y18270000D01*
X16290000Y13200000D02*
X16290000Y17460000D01*
%TO.N,/BRAKE*%
X16960000Y30830000D02*
X17200000Y30590000D01*
X15920000Y34349000D02*
X15920000Y30830000D01*
X17200000Y34640000D02*
X16211000Y34640000D01*
X15920000Y30830000D02*
X16960000Y30830000D01*
X14150000Y30830000D02*
X15920000Y30830000D01*
D35*
X16211000Y34640000D02*
X16035500Y34464500D01*
D33*
X16035500Y34464500D02*
X15920000Y34349000D01*
D35*
X24750000Y45750000D02*
X24800000Y45800000D01*
X24750000Y44000000D02*
X24750000Y45750000D01*
X12011789Y34299471D02*
X12011789Y44011791D01*
%TO.N,/SPWM2_OUT*%
X31250000Y7000000D02*
X31250000Y11500000D01*
X27750000Y37640000D02*
X27890861Y37640000D01*
X27890861Y37640000D02*
X28187311Y37936450D01*
X29840173Y36648801D02*
X29840173Y37895805D01*
X31264360Y18247382D02*
X31264360Y18802940D01*
X30184799Y26081392D02*
X30184799Y36304175D01*
X30619798Y19447502D02*
X30619798Y20060913D01*
X30619798Y20060913D02*
X29887188Y20793523D01*
X31264360Y18802940D02*
X30619798Y19447502D01*
X29887188Y25783781D02*
X30184799Y26081392D01*
X29840173Y37895805D02*
X29879533Y37935165D01*
X29887188Y20793523D02*
X29887188Y25783781D01*
X30184799Y36304175D02*
X29840173Y36648801D01*
D33*
X20950000Y7199986D02*
X20750000Y6999986D01*
X20950000Y7730000D02*
X20950000Y7199986D01*
X20750000Y6500000D02*
X19500000Y5250000D01*
X20750000Y6999986D02*
X20750000Y6500000D01*
%TO.N,/SPWM1_OUT*%
X20950000Y14800000D02*
X21000000Y14750000D01*
X20950000Y15730000D02*
X20950000Y14800000D01*
X18750000Y20390000D02*
X18640000Y20500000D01*
X18750000Y14750000D02*
X18750000Y20390000D01*
X20360000Y24750000D02*
X20360000Y23885409D01*
X20360000Y23885409D02*
X20320626Y23846035D01*
X18640000Y20500000D02*
X18750000Y20610000D01*
X18750000Y20610000D02*
X18750000Y21500000D01*
D32*
%TO.N,Net-(R18-Pad2)*%
X50030899Y24756831D02*
X51356831Y23430899D01*
X51356831Y23430899D02*
X52930898Y23430898D01*
X49200000Y27885000D02*
X50030899Y27054101D01*
X48225000Y27885000D02*
X49200000Y27885000D01*
X50030899Y27054101D02*
X50030899Y24756831D01*
X52930898Y23430898D02*
X55000000Y25500000D01*
%TO.N,Net-(R19-Pad2)*%
X47500000Y59860000D02*
X47500000Y59500000D01*
D33*
X46250000Y57250000D02*
X46865000Y56635000D01*
X46250000Y58750000D02*
X46250000Y57250000D01*
X46865000Y56635000D02*
X48475000Y56635000D01*
X47000000Y59500000D02*
X46250000Y58750000D01*
X47500000Y59500000D02*
X47000000Y59500000D01*
D35*
%TO.N,Net-(R20-Pad2)*%
X22260000Y24870000D02*
X22140000Y24750000D01*
X22260000Y27650000D02*
X22260000Y24870000D01*
D33*
X24311211Y24656293D02*
X24311211Y24506242D01*
X26070000Y26415082D02*
X24311211Y24656293D01*
X26070000Y27650000D02*
X26070000Y26415082D01*
X22140000Y24750000D02*
X22999994Y24750000D01*
X22999994Y24750000D02*
X23000000Y24750006D01*
D35*
%TO.N,Net-(R21-Pad2)*%
X26070000Y32850000D02*
X26070000Y30750000D01*
D32*
X27750000Y35860000D02*
X26070000Y34180000D01*
X26070000Y34180000D02*
X26070000Y32850000D01*
D35*
X22260000Y32850000D02*
X22260000Y31990000D01*
X22260000Y31990000D02*
X23500000Y30750000D01*
D33*
%TO.N,/logic/H1INL*%
X20890000Y2000000D02*
X21499992Y2000000D01*
X23000000Y4250000D02*
X23000000Y3500008D01*
X23385000Y4635000D02*
X23000000Y4250000D01*
X23000000Y3500008D02*
X21499992Y2000000D01*
X24650000Y4635000D02*
X23385000Y4635000D01*
X21140000Y1750000D02*
X20890000Y2000000D01*
X21750000Y1750000D02*
X21140000Y1750000D01*
%TO.N,/logic/H2INL*%
X32361000Y29500000D02*
X31250000Y29500000D01*
X32996000Y30135000D02*
X32361000Y29500000D01*
X34150000Y30135000D02*
X32996000Y30135000D01*
X31300000Y29210000D02*
X31300000Y28450000D01*
%TO.N,/logic/H1INR*%
X24576581Y35783419D02*
X24576581Y35240724D01*
D35*
X25439790Y29430000D02*
X25439790Y34102355D01*
X25439790Y34102355D02*
X25350976Y34191169D01*
X25500000Y29369790D02*
X25439790Y29430000D01*
D33*
X24500000Y35860000D02*
X24576581Y35783419D01*
X23250000Y23000000D02*
X23500000Y23000000D01*
X23655601Y25594399D02*
X23250000Y26000000D01*
X23250000Y23000000D02*
X23655601Y23405601D01*
X23655601Y23405601D02*
X23655601Y25594399D01*
X23591412Y22658588D02*
X23250000Y23000000D01*
X23591412Y19436435D02*
X23591412Y22658588D01*
X23393013Y19238036D02*
X23591412Y19436435D01*
X23496000Y17135000D02*
X23393013Y17237987D01*
X23393013Y17237987D02*
X23393013Y19238036D01*
X24650000Y17135000D02*
X23496000Y17135000D01*
D34*
%TO.N,/logic/H2INR*%
X30135000Y55135000D02*
X30000000Y55000000D01*
X31100000Y55135000D02*
X30135000Y55135000D01*
D33*
X30000000Y51250000D02*
X30000000Y49890000D01*
X30639390Y51889390D02*
X30000000Y51250000D01*
X31942273Y51889390D02*
X30639390Y51889390D01*
X32355610Y52302727D02*
X31942273Y51889390D01*
X32355610Y54157273D02*
X32355610Y52302727D01*
X31377883Y55135000D02*
X32355610Y54157273D01*
X31100000Y55135000D02*
X31377883Y55135000D01*
D32*
%TO.N,/CurrentSensing/VMID*%
X18960000Y63150000D02*
X18960000Y64540000D01*
X18960000Y64540000D02*
X16500000Y67000000D01*
X16500000Y67000000D02*
X16500000Y70750000D01*
D35*
X14750000Y60390000D02*
X15140000Y60390000D01*
X14750000Y60390000D02*
X15110000Y60750000D01*
X15110000Y60750000D02*
X15750000Y60750000D01*
X17690000Y61808602D02*
X18000000Y61498602D01*
X17690000Y63150000D02*
X17690000Y61808602D01*
X18498602Y61498602D02*
X18000000Y61498602D01*
X18960000Y61960000D02*
X18498602Y61498602D01*
X18960000Y63150000D02*
X18960000Y61960000D01*
D33*
%TO.N,Net-(R45-Pad1)*%
X25445000Y58510000D02*
X25600000Y58510000D01*
X24250000Y59705000D02*
X25445000Y58510000D01*
X24250000Y61177597D02*
X24250000Y59705000D01*
X24040000Y61387597D02*
X24250000Y61177597D01*
X24040000Y63150000D02*
X24040000Y61387597D01*
X14750000Y58610000D02*
X14860000Y58610000D01*
X14860000Y58610000D02*
X15929434Y59679434D01*
X15929434Y59679434D02*
X16105849Y59679434D01*
D32*
%TO.N,Net-(R47-Pad1)*%
X23220000Y70451000D02*
X23220000Y71400000D01*
X24040000Y69631000D02*
X23220000Y70451000D01*
X24040000Y68350000D02*
X24040000Y69631000D01*
D33*
X16750000Y72890000D02*
X17860000Y74000000D01*
X23220000Y72389000D02*
X23220000Y71400000D01*
X21609000Y74000000D02*
X23220000Y72389000D01*
X17860000Y74000000D02*
X21609000Y74000000D01*
D32*
%TO.N,Net-(U16-Pad13)*%
X17690000Y68350000D02*
X17690000Y69690000D01*
X17690000Y69690000D02*
X17750000Y69750000D01*
X17750000Y69750000D02*
X18750000Y69750000D01*
X18960000Y69540000D02*
X18960000Y68350000D01*
X18750000Y69750000D02*
X18960000Y69540000D01*
%TO.N,Net-(D6-Pad1)*%
X36250000Y8390000D02*
X36250000Y10000000D01*
X36886280Y10636280D02*
X39000000Y10636280D01*
X36250000Y10000000D02*
X36886280Y10636280D01*
X34943499Y8336501D02*
X34890000Y8390000D01*
X34943499Y5281501D02*
X34943499Y8336501D01*
X36225000Y4000000D02*
X34943499Y5281501D01*
X34890000Y8390000D02*
X36250000Y8390000D01*
X33000000Y8390000D02*
X34890000Y8390000D01*
%TO.N,Net-(D7-Pad1)*%
X71836280Y5913720D02*
X72000000Y5750000D01*
X68250000Y5827440D02*
X68336280Y5913720D01*
X68250000Y5555000D02*
X68250000Y5827440D01*
X64300000Y5913720D02*
X68336280Y5913720D01*
X71750000Y5750000D02*
X71586280Y5913720D01*
X71586280Y5913720D02*
X71836280Y5913720D01*
X71750000Y5555000D02*
X71750000Y5750000D01*
X71750000Y5555000D02*
X72055000Y5555000D01*
X72904101Y6404101D02*
X72904101Y9095899D01*
X72055000Y5555000D02*
X72904101Y6404101D01*
X72000000Y10000000D02*
X71475000Y10000000D01*
X72904101Y9095899D02*
X72000000Y10000000D01*
D33*
X68250000Y5555000D02*
X68250000Y4500000D01*
X71750000Y4500000D02*
X71750000Y5555000D01*
D32*
%TO.N,Net-(D8-Pad1)*%
X34884000Y19140000D02*
X36000000Y19140000D01*
X34693499Y18949499D02*
X34884000Y19140000D01*
X34693499Y16031501D02*
X34693499Y18949499D01*
X36225000Y14500000D02*
X34693499Y16031501D01*
X36390000Y19140000D02*
X38250000Y21000000D01*
X36000000Y19140000D02*
X36390000Y19140000D01*
X33250000Y19140000D02*
X36000000Y19140000D01*
%TO.N,Net-(D9-Pad1)*%
X68383341Y16133341D02*
X68742061Y16492061D01*
X68250000Y16133341D02*
X68383341Y16133341D01*
X64300000Y16492061D02*
X68742061Y16492061D01*
X69133341Y16133341D02*
X69250000Y16250000D01*
X68250000Y16133341D02*
X69133341Y16133341D01*
X71633341Y16250000D02*
X71750000Y16133341D01*
X70750000Y16250000D02*
X71633341Y16250000D01*
X72866000Y16133341D02*
X71750000Y16133341D01*
X72975000Y16242341D02*
X72866000Y16133341D01*
X72975000Y20750000D02*
X72975000Y16242341D01*
%TO.N,Net-(D10-Pad1)*%
X32750000Y42201680D02*
X36000000Y42201680D01*
X36500000Y38000000D02*
X38250000Y39750000D01*
X36225000Y38000000D02*
X36500000Y38000000D01*
X39000000Y39842960D02*
X38407040Y39842960D01*
X36289382Y42201680D02*
X36000000Y42201680D01*
X38407040Y40084022D02*
X36289382Y42201680D01*
X38407040Y39842960D02*
X38407040Y40084022D01*
%TO.N,Net-(D11-Pad1)*%
X71870400Y35120400D02*
X72000000Y35250000D01*
X68250000Y35240800D02*
X68370400Y35120400D01*
X68250000Y35511680D02*
X68250000Y35240800D01*
X68370400Y35120400D02*
X71870400Y35120400D01*
X64300000Y35120400D02*
X68370400Y35120400D01*
X71750000Y35240800D02*
X71870400Y35120400D01*
X71750000Y35511680D02*
X71750000Y35240800D01*
X72904101Y39070899D02*
X71475000Y40500000D01*
X72904101Y35549781D02*
X72904101Y39070899D01*
X72866000Y35511680D02*
X72904101Y35549781D01*
X71750000Y35511680D02*
X72866000Y35511680D01*
%TO.N,Net-(D12-Pad1)*%
X39000000Y49671299D02*
X36218701Y49671299D01*
X39000000Y48025000D02*
X39000000Y49671299D01*
X36225000Y45250000D02*
X39000000Y48025000D01*
D33*
X36000000Y49890000D02*
X36000000Y50100006D01*
X33000000Y50654914D02*
X33047543Y50702457D01*
X33000000Y49890000D02*
X33000000Y50654914D01*
D34*
X36599997Y49890003D02*
X36600000Y49890000D01*
X36599997Y50700003D02*
X36599997Y49890003D01*
D33*
%TO.N,Net-(D13-Pad1)*%
X67858720Y44948739D02*
X68250000Y45340019D01*
X64250000Y44948739D02*
X67858720Y44948739D01*
X68250000Y45340019D02*
X71750000Y45340019D01*
X72840601Y48634399D02*
X71475000Y50000000D01*
X72840601Y45441620D02*
X72840601Y48634399D01*
X72739000Y45340019D02*
X72840601Y45441620D01*
X71750000Y45340019D02*
X72739000Y45340019D01*
D32*
%TO.N,/SDX*%
X17250000Y32810000D02*
X17200000Y32860000D01*
X17250000Y32000000D02*
X17250000Y32810000D01*
D33*
X29946000Y53865000D02*
X31100000Y53865000D01*
X29090601Y52495519D02*
X29090601Y53009601D01*
X29090601Y53009601D02*
X29946000Y53865000D01*
D35*
X17200000Y32860000D02*
X17860000Y32860000D01*
D33*
X24650000Y3365000D02*
X23831410Y3365000D01*
X23831410Y3365000D02*
X23655610Y3540800D01*
D35*
X27390000Y47890000D02*
X27000000Y47500000D01*
X27390000Y48600000D02*
X27390000Y47890000D01*
D33*
X27000000Y50404918D02*
X27672541Y51077459D01*
X27000000Y47500000D02*
X27000000Y50404918D01*
X27672541Y51077459D02*
X29090601Y52495519D01*
X30344399Y21079865D02*
X31250000Y20174264D01*
X34150000Y28865000D02*
X33615000Y28865000D01*
X33615000Y28865000D02*
X30344399Y25594399D01*
X30344399Y25594399D02*
X30344399Y21079865D01*
X31250000Y20174264D02*
X31250000Y19750000D01*
X23000000Y10000000D02*
X23000000Y5500000D01*
X22800003Y10199997D02*
X23000000Y10000000D01*
X22865000Y15865000D02*
X22800003Y15800003D01*
X22800003Y15800003D02*
X22800003Y10199997D01*
X24650000Y15865000D02*
X22865000Y15865000D01*
X22800003Y15800003D02*
X22800003Y18800003D01*
X19424399Y23746563D02*
X19980537Y23190425D01*
X19424399Y29825591D02*
X19424399Y23746563D01*
X19980537Y23190425D02*
X21992090Y23190425D01*
X22800003Y22382512D02*
X22800003Y18800003D01*
X21992090Y23190425D02*
X22800003Y22382512D01*
X19249990Y30000000D02*
X19424399Y29825591D01*
X22800003Y19615316D02*
X22935811Y19751124D01*
X22800003Y18800003D02*
X22800003Y19615316D01*
D35*
X11369798Y47082342D02*
X12011789Y47724333D01*
X11369798Y34008762D02*
X11369798Y47082342D01*
X11750000Y32000000D02*
X11750000Y33628560D01*
X11750000Y33628560D02*
X11369798Y34008762D01*
D33*
%TO.N,Net-(R27-Pad1)*%
X25110000Y47890000D02*
X25110000Y48600000D01*
X26070000Y46930000D02*
X25110000Y47890000D01*
X26070000Y45800000D02*
X26070000Y46930000D01*
D35*
%TO.N,Net-(R30-Pad2)*%
X22260000Y40600000D02*
X22260000Y39740000D01*
D33*
X19110000Y2989000D02*
X19621000Y3500000D01*
X19110000Y2000000D02*
X19110000Y2989000D01*
X19621000Y3500000D02*
X22250000Y3500000D01*
D35*
X22250000Y40590000D02*
X22260000Y40600000D01*
X22250000Y39250000D02*
X22250000Y40590000D01*
X18348359Y29968941D02*
X18348359Y39598359D01*
X18967188Y23541137D02*
X18967188Y29350112D01*
X19322181Y23202188D02*
X19306137Y23202188D01*
X19816555Y22707814D02*
X19322181Y23202188D01*
X18967188Y29350112D02*
X18348359Y29968941D01*
X18348359Y39598359D02*
X18500000Y39750000D01*
X19306137Y23202188D02*
X18967188Y23541137D01*
D33*
X20292186Y22707814D02*
X21792186Y22707814D01*
D35*
X22250000Y3500000D02*
X22369799Y3619799D01*
X20292186Y22707814D02*
X19816555Y22707814D01*
X22369799Y9983608D02*
X22280201Y10073206D01*
X22369799Y3619799D02*
X22369799Y9983608D01*
D33*
X22280201Y22219799D02*
X22280201Y18780201D01*
X21792186Y22707814D02*
X22280201Y22219799D01*
D35*
X22280201Y10073206D02*
X22280201Y18780201D01*
%TO.N,Net-(R31-Pad2)*%
X27340000Y40600000D02*
X27340000Y39660000D01*
X31250000Y31040000D02*
X31250000Y31671387D01*
X31300000Y30990000D02*
X31250000Y31040000D01*
X29744799Y31440210D02*
X29744799Y35991723D01*
X29744799Y35991723D02*
X29249318Y36487204D01*
X29249318Y38901674D02*
X29043580Y39107412D01*
X29249318Y36487204D02*
X29249318Y38901674D01*
X29554589Y31250000D02*
X29744799Y31440210D01*
D32*
%TO.N,Net-(R32-Pad2)*%
X24800000Y37940000D02*
X24500000Y37640000D01*
X24800000Y40600000D02*
X24800000Y37940000D01*
%TO.N,Net-(R33-Pad2)*%
X28610000Y46720000D02*
X30000000Y48110000D01*
X28610000Y45800000D02*
X28610000Y46720000D01*
D35*
%TO.N,Net-(U15-Pad11)*%
X24720775Y32929225D02*
X24720775Y34493666D01*
X25388670Y34821370D02*
X26684799Y36117499D01*
X26684799Y39723548D02*
X26700210Y39738959D01*
X25048479Y34821370D02*
X25388670Y34821370D01*
X26684799Y36117499D02*
X26684799Y39723548D01*
X24720775Y34493666D02*
X25048479Y34821370D01*
X24800000Y32850000D02*
X24720775Y32929225D01*
X27340000Y43439580D02*
X26700210Y42799790D01*
X27340000Y45800000D02*
X27340000Y43439580D01*
X26700210Y39738959D02*
X26700210Y42799790D01*
%TO.N,Net-(U15-Pad8)*%
X26070000Y40600000D02*
X26070000Y36570000D01*
X26070000Y36570000D02*
X26000000Y36500000D01*
X28610000Y34390002D02*
X28500000Y34500002D01*
X28610000Y32850000D02*
X28610000Y34390002D01*
%TO.N,Net-(U15-Pad6)*%
X23530000Y39030000D02*
X23500000Y39000000D01*
X23530000Y40600000D02*
X23530000Y39030000D01*
X27340000Y30088749D02*
X29312988Y32061737D01*
X27340000Y27650000D02*
X27340000Y30088749D01*
X28817512Y36308338D02*
X28817512Y38395591D01*
X28213103Y39000000D02*
X28171387Y39000000D01*
X29312988Y32061737D02*
X29312988Y35812862D01*
X28817512Y38395591D02*
X28213103Y39000000D01*
X29312988Y35812862D02*
X28817512Y36308338D01*
D33*
%TO.N,Net-(U15-Pad3)*%
X20320833Y31459167D02*
X20320833Y34041764D01*
X23530000Y27650000D02*
X23530000Y28250000D01*
X20320833Y34041764D02*
X20302529Y34060068D01*
X23530000Y28250000D02*
X20320833Y31459167D01*
X22100000Y34655606D02*
X22094390Y34649996D01*
X20990000Y39539710D02*
X22100000Y38429710D01*
X22100000Y38429710D02*
X22100000Y34655606D01*
X20990000Y40600000D02*
X20990000Y39539710D01*
%TO.N,Net-(R22-Pad1)*%
X22770000Y60410000D02*
X22750000Y60390000D01*
X22770000Y63150000D02*
X22770000Y60410000D01*
X20250000Y60390000D02*
X22750000Y60390000D01*
%TO.N,Net-(R23-Pad1)*%
X22750000Y68330000D02*
X22770000Y68350000D01*
X22770000Y69579000D02*
X22770000Y68350000D01*
X21239000Y71110000D02*
X22770000Y69579000D01*
X20250000Y71110000D02*
X21239000Y71110000D01*
X22770000Y68350000D02*
X22770000Y65480000D01*
X22770000Y65480000D02*
X23250000Y65000000D01*
X38750000Y63500000D02*
X38250000Y63500000D01*
X38250000Y63500000D02*
X37750000Y63000000D01*
%TD*%
%TO.N,/+VDC_Out*%
X64373000Y66028116D02*
X64325000Y66032843D01*
X63982250Y66031000D01*
X63887000Y65935750D01*
X63887000Y64877000D01*
X63907000Y64877000D01*
X63907000Y64623000D01*
X63887000Y64623000D01*
X63887000Y63564250D01*
X63982250Y63469000D01*
X64325000Y63467157D01*
X64373000Y63471884D01*
X64373000Y63377000D01*
X61750000Y63377000D01*
X61725224Y63374560D01*
X61701399Y63367333D01*
X61679443Y63355597D01*
X61660197Y63339803D01*
X61644403Y63320557D01*
X61632667Y63298601D01*
X61625440Y63274776D01*
X61623000Y63250000D01*
X61623000Y56877000D01*
X60972966Y56877000D01*
X60975487Y56885311D01*
X60982843Y56960000D01*
X60981000Y57237750D01*
X60885750Y57333000D01*
X59152000Y57333000D01*
X59152000Y57313000D01*
X58898000Y57313000D01*
X58898000Y57333000D01*
X57164250Y57333000D01*
X57069000Y57237750D01*
X57067157Y56960000D01*
X57074513Y56885311D01*
X57077034Y56877000D01*
X56627000Y56877000D01*
X56627000Y57960000D01*
X57067157Y57960000D01*
X57069000Y57682250D01*
X57164250Y57587000D01*
X58898000Y57587000D01*
X58898000Y58245750D01*
X59152000Y58245750D01*
X59152000Y57587000D01*
X60885750Y57587000D01*
X60981000Y57682250D01*
X60982843Y57960000D01*
X60975487Y58034689D01*
X60953701Y58106508D01*
X60918322Y58172696D01*
X60870711Y58230711D01*
X60812696Y58278322D01*
X60746508Y58313701D01*
X60674689Y58335487D01*
X60600000Y58342843D01*
X59247250Y58341000D01*
X59152000Y58245750D01*
X58898000Y58245750D01*
X58802750Y58341000D01*
X57450000Y58342843D01*
X57375311Y58335487D01*
X57303492Y58313701D01*
X57237304Y58278322D01*
X57179289Y58230711D01*
X57131678Y58172696D01*
X57096299Y58106508D01*
X57074513Y58034689D01*
X57067157Y57960000D01*
X56627000Y57960000D01*
X56627000Y59500000D01*
X57067157Y59500000D01*
X57074513Y59425311D01*
X57096299Y59353492D01*
X57131678Y59287304D01*
X57179289Y59229289D01*
X57237304Y59181678D01*
X57303492Y59146299D01*
X57375311Y59124513D01*
X57450000Y59117157D01*
X58802750Y59119000D01*
X58898000Y59214250D01*
X58898000Y59873000D01*
X59152000Y59873000D01*
X59152000Y59214250D01*
X59247250Y59119000D01*
X60600000Y59117157D01*
X60674689Y59124513D01*
X60746508Y59146299D01*
X60812696Y59181678D01*
X60870711Y59229289D01*
X60918322Y59287304D01*
X60953701Y59353492D01*
X60975487Y59425311D01*
X60982843Y59500000D01*
X60981000Y59777750D01*
X60885750Y59873000D01*
X59152000Y59873000D01*
X58898000Y59873000D01*
X57164250Y59873000D01*
X57069000Y59777750D01*
X57067157Y59500000D01*
X56627000Y59500000D01*
X56627000Y60500000D01*
X57067157Y60500000D01*
X57069000Y60222250D01*
X57164250Y60127000D01*
X58898000Y60127000D01*
X58898000Y60785750D01*
X59152000Y60785750D01*
X59152000Y60127000D01*
X60885750Y60127000D01*
X60981000Y60222250D01*
X60982843Y60500000D01*
X60975487Y60574689D01*
X60953701Y60646508D01*
X60918322Y60712696D01*
X60870711Y60770711D01*
X60812696Y60818322D01*
X60746508Y60853701D01*
X60674689Y60875487D01*
X60600000Y60882843D01*
X59247250Y60881000D01*
X59152000Y60785750D01*
X58898000Y60785750D01*
X58802750Y60881000D01*
X57450000Y60882843D01*
X57375311Y60875487D01*
X57303492Y60853701D01*
X57237304Y60818322D01*
X57179289Y60770711D01*
X57131678Y60712696D01*
X57096299Y60646508D01*
X57074513Y60574689D01*
X57067157Y60500000D01*
X56627000Y60500000D01*
X56627000Y62040000D01*
X57067157Y62040000D01*
X57074513Y61965311D01*
X57096299Y61893492D01*
X57131678Y61827304D01*
X57179289Y61769289D01*
X57237304Y61721678D01*
X57303492Y61686299D01*
X57375311Y61664513D01*
X57450000Y61657157D01*
X58802750Y61659000D01*
X58898000Y61754250D01*
X58898000Y62413000D01*
X59152000Y62413000D01*
X59152000Y61754250D01*
X59247250Y61659000D01*
X60600000Y61657157D01*
X60674689Y61664513D01*
X60746508Y61686299D01*
X60812696Y61721678D01*
X60870711Y61769289D01*
X60918322Y61827304D01*
X60953701Y61893492D01*
X60975487Y61965311D01*
X60982843Y62040000D01*
X60981000Y62317750D01*
X60885750Y62413000D01*
X59152000Y62413000D01*
X58898000Y62413000D01*
X57164250Y62413000D01*
X57069000Y62317750D01*
X57067157Y62040000D01*
X56627000Y62040000D01*
X56627000Y63040000D01*
X57067157Y63040000D01*
X57069000Y62762250D01*
X57164250Y62667000D01*
X58898000Y62667000D01*
X58898000Y63325750D01*
X59152000Y63325750D01*
X59152000Y62667000D01*
X60885750Y62667000D01*
X60981000Y62762250D01*
X60982843Y63040000D01*
X60975487Y63114689D01*
X60953701Y63186508D01*
X60918322Y63252696D01*
X60870711Y63310711D01*
X60812696Y63358322D01*
X60746508Y63393701D01*
X60674689Y63415487D01*
X60600000Y63422843D01*
X59247250Y63421000D01*
X59152000Y63325750D01*
X58898000Y63325750D01*
X58802750Y63421000D01*
X57450000Y63422843D01*
X57375311Y63415487D01*
X57303492Y63393701D01*
X57237304Y63358322D01*
X57179289Y63310711D01*
X57131678Y63252696D01*
X57096299Y63186508D01*
X57074513Y63114689D01*
X57067157Y63040000D01*
X56627000Y63040000D01*
X56627000Y63850000D01*
X62812157Y63850000D01*
X62819513Y63775311D01*
X62841299Y63703492D01*
X62876678Y63637304D01*
X62924289Y63579289D01*
X62982304Y63531678D01*
X63048492Y63496299D01*
X63120311Y63474513D01*
X63195000Y63467157D01*
X63537750Y63469000D01*
X63633000Y63564250D01*
X63633000Y64623000D01*
X62909250Y64623000D01*
X62814000Y64527750D01*
X62812157Y63850000D01*
X56627000Y63850000D01*
X56627000Y64580000D01*
X57067157Y64580000D01*
X57074513Y64505311D01*
X57096299Y64433492D01*
X57131678Y64367304D01*
X57179289Y64309289D01*
X57237304Y64261678D01*
X57303492Y64226299D01*
X57375311Y64204513D01*
X57450000Y64197157D01*
X58802750Y64199000D01*
X58898000Y64294250D01*
X58898000Y64953000D01*
X59152000Y64953000D01*
X59152000Y64294250D01*
X59247250Y64199000D01*
X60600000Y64197157D01*
X60674689Y64204513D01*
X60746508Y64226299D01*
X60812696Y64261678D01*
X60870711Y64309289D01*
X60918322Y64367304D01*
X60953701Y64433492D01*
X60975487Y64505311D01*
X60982843Y64580000D01*
X60981000Y64857750D01*
X60885750Y64953000D01*
X59152000Y64953000D01*
X58898000Y64953000D01*
X57164250Y64953000D01*
X57069000Y64857750D01*
X57067157Y64580000D01*
X56627000Y64580000D01*
X56627000Y65580000D01*
X57067157Y65580000D01*
X57069000Y65302250D01*
X57164250Y65207000D01*
X58898000Y65207000D01*
X58898000Y65865750D01*
X59152000Y65865750D01*
X59152000Y65207000D01*
X60885750Y65207000D01*
X60981000Y65302250D01*
X60982843Y65580000D01*
X60975949Y65650000D01*
X62812157Y65650000D01*
X62814000Y64972250D01*
X62909250Y64877000D01*
X63633000Y64877000D01*
X63633000Y65935750D01*
X63537750Y66031000D01*
X63195000Y66032843D01*
X63120311Y66025487D01*
X63048492Y66003701D01*
X62982304Y65968322D01*
X62924289Y65920711D01*
X62876678Y65862696D01*
X62841299Y65796508D01*
X62819513Y65724689D01*
X62812157Y65650000D01*
X60975949Y65650000D01*
X60975487Y65654689D01*
X60953701Y65726508D01*
X60918322Y65792696D01*
X60870711Y65850711D01*
X60812696Y65898322D01*
X60746508Y65933701D01*
X60674689Y65955487D01*
X60600000Y65962843D01*
X59247250Y65961000D01*
X59152000Y65865750D01*
X58898000Y65865750D01*
X58802750Y65961000D01*
X57450000Y65962843D01*
X57375311Y65955487D01*
X57303492Y65933701D01*
X57237304Y65898322D01*
X57179289Y65850711D01*
X57131678Y65792696D01*
X57096299Y65726508D01*
X57074513Y65654689D01*
X57067157Y65580000D01*
X56627000Y65580000D01*
X56627000Y65923994D01*
X56649068Y65977271D01*
X56685000Y66157911D01*
X56685000Y66342089D01*
X56678851Y66373000D01*
X64373000Y66373000D01*
X64373000Y66028116D01*
%TA.AperFunction,Conductor*%
D38*
G36*
X64373000Y66028116D02*
G01*
X64325000Y66032843D01*
X63982250Y66031000D01*
X63887000Y65935750D01*
X63887000Y64877000D01*
X63907000Y64877000D01*
X63907000Y64623000D01*
X63887000Y64623000D01*
X63887000Y63564250D01*
X63982250Y63469000D01*
X64325000Y63467157D01*
X64373000Y63471884D01*
X64373000Y63377000D01*
X61750000Y63377000D01*
X61725224Y63374560D01*
X61701399Y63367333D01*
X61679443Y63355597D01*
X61660197Y63339803D01*
X61644403Y63320557D01*
X61632667Y63298601D01*
X61625440Y63274776D01*
X61623000Y63250000D01*
X61623000Y56877000D01*
X60972966Y56877000D01*
X60975487Y56885311D01*
X60982843Y56960000D01*
X60981000Y57237750D01*
X60885750Y57333000D01*
X59152000Y57333000D01*
X59152000Y57313000D01*
X58898000Y57313000D01*
X58898000Y57333000D01*
X57164250Y57333000D01*
X57069000Y57237750D01*
X57067157Y56960000D01*
X57074513Y56885311D01*
X57077034Y56877000D01*
X56627000Y56877000D01*
X56627000Y57960000D01*
X57067157Y57960000D01*
X57069000Y57682250D01*
X57164250Y57587000D01*
X58898000Y57587000D01*
X58898000Y58245750D01*
X59152000Y58245750D01*
X59152000Y57587000D01*
X60885750Y57587000D01*
X60981000Y57682250D01*
X60982843Y57960000D01*
X60975487Y58034689D01*
X60953701Y58106508D01*
X60918322Y58172696D01*
X60870711Y58230711D01*
X60812696Y58278322D01*
X60746508Y58313701D01*
X60674689Y58335487D01*
X60600000Y58342843D01*
X59247250Y58341000D01*
X59152000Y58245750D01*
X58898000Y58245750D01*
X58802750Y58341000D01*
X57450000Y58342843D01*
X57375311Y58335487D01*
X57303492Y58313701D01*
X57237304Y58278322D01*
X57179289Y58230711D01*
X57131678Y58172696D01*
X57096299Y58106508D01*
X57074513Y58034689D01*
X57067157Y57960000D01*
X56627000Y57960000D01*
X56627000Y59500000D01*
X57067157Y59500000D01*
X57074513Y59425311D01*
X57096299Y59353492D01*
X57131678Y59287304D01*
X57179289Y59229289D01*
X57237304Y59181678D01*
X57303492Y59146299D01*
X57375311Y59124513D01*
X57450000Y59117157D01*
X58802750Y59119000D01*
X58898000Y59214250D01*
X58898000Y59873000D01*
X59152000Y59873000D01*
X59152000Y59214250D01*
X59247250Y59119000D01*
X60600000Y59117157D01*
X60674689Y59124513D01*
X60746508Y59146299D01*
X60812696Y59181678D01*
X60870711Y59229289D01*
X60918322Y59287304D01*
X60953701Y59353492D01*
X60975487Y59425311D01*
X60982843Y59500000D01*
X60981000Y59777750D01*
X60885750Y59873000D01*
X59152000Y59873000D01*
X58898000Y59873000D01*
X57164250Y59873000D01*
X57069000Y59777750D01*
X57067157Y59500000D01*
X56627000Y59500000D01*
X56627000Y60500000D01*
X57067157Y60500000D01*
X57069000Y60222250D01*
X57164250Y60127000D01*
X58898000Y60127000D01*
X58898000Y60785750D01*
X59152000Y60785750D01*
X59152000Y60127000D01*
X60885750Y60127000D01*
X60981000Y60222250D01*
X60982843Y60500000D01*
X60975487Y60574689D01*
X60953701Y60646508D01*
X60918322Y60712696D01*
X60870711Y60770711D01*
X60812696Y60818322D01*
X60746508Y60853701D01*
X60674689Y60875487D01*
X60600000Y60882843D01*
X59247250Y60881000D01*
X59152000Y60785750D01*
X58898000Y60785750D01*
X58802750Y60881000D01*
X57450000Y60882843D01*
X57375311Y60875487D01*
X57303492Y60853701D01*
X57237304Y60818322D01*
X57179289Y60770711D01*
X57131678Y60712696D01*
X57096299Y60646508D01*
X57074513Y60574689D01*
X57067157Y60500000D01*
X56627000Y60500000D01*
X56627000Y62040000D01*
X57067157Y62040000D01*
X57074513Y61965311D01*
X57096299Y61893492D01*
X57131678Y61827304D01*
X57179289Y61769289D01*
X57237304Y61721678D01*
X57303492Y61686299D01*
X57375311Y61664513D01*
X57450000Y61657157D01*
X58802750Y61659000D01*
X58898000Y61754250D01*
X58898000Y62413000D01*
X59152000Y62413000D01*
X59152000Y61754250D01*
X59247250Y61659000D01*
X60600000Y61657157D01*
X60674689Y61664513D01*
X60746508Y61686299D01*
X60812696Y61721678D01*
X60870711Y61769289D01*
X60918322Y61827304D01*
X60953701Y61893492D01*
X60975487Y61965311D01*
X60982843Y62040000D01*
X60981000Y62317750D01*
X60885750Y62413000D01*
X59152000Y62413000D01*
X58898000Y62413000D01*
X57164250Y62413000D01*
X57069000Y62317750D01*
X57067157Y62040000D01*
X56627000Y62040000D01*
X56627000Y63040000D01*
X57067157Y63040000D01*
X57069000Y62762250D01*
X57164250Y62667000D01*
X58898000Y62667000D01*
X58898000Y63325750D01*
X59152000Y63325750D01*
X59152000Y62667000D01*
X60885750Y62667000D01*
X60981000Y62762250D01*
X60982843Y63040000D01*
X60975487Y63114689D01*
X60953701Y63186508D01*
X60918322Y63252696D01*
X60870711Y63310711D01*
X60812696Y63358322D01*
X60746508Y63393701D01*
X60674689Y63415487D01*
X60600000Y63422843D01*
X59247250Y63421000D01*
X59152000Y63325750D01*
X58898000Y63325750D01*
X58802750Y63421000D01*
X57450000Y63422843D01*
X57375311Y63415487D01*
X57303492Y63393701D01*
X57237304Y63358322D01*
X57179289Y63310711D01*
X57131678Y63252696D01*
X57096299Y63186508D01*
X57074513Y63114689D01*
X57067157Y63040000D01*
X56627000Y63040000D01*
X56627000Y63850000D01*
X62812157Y63850000D01*
X62819513Y63775311D01*
X62841299Y63703492D01*
X62876678Y63637304D01*
X62924289Y63579289D01*
X62982304Y63531678D01*
X63048492Y63496299D01*
X63120311Y63474513D01*
X63195000Y63467157D01*
X63537750Y63469000D01*
X63633000Y63564250D01*
X63633000Y64623000D01*
X62909250Y64623000D01*
X62814000Y64527750D01*
X62812157Y63850000D01*
X56627000Y63850000D01*
X56627000Y64580000D01*
X57067157Y64580000D01*
X57074513Y64505311D01*
X57096299Y64433492D01*
X57131678Y64367304D01*
X57179289Y64309289D01*
X57237304Y64261678D01*
X57303492Y64226299D01*
X57375311Y64204513D01*
X57450000Y64197157D01*
X58802750Y64199000D01*
X58898000Y64294250D01*
X58898000Y64953000D01*
X59152000Y64953000D01*
X59152000Y64294250D01*
X59247250Y64199000D01*
X60600000Y64197157D01*
X60674689Y64204513D01*
X60746508Y64226299D01*
X60812696Y64261678D01*
X60870711Y64309289D01*
X60918322Y64367304D01*
X60953701Y64433492D01*
X60975487Y64505311D01*
X60982843Y64580000D01*
X60981000Y64857750D01*
X60885750Y64953000D01*
X59152000Y64953000D01*
X58898000Y64953000D01*
X57164250Y64953000D01*
X57069000Y64857750D01*
X57067157Y64580000D01*
X56627000Y64580000D01*
X56627000Y65580000D01*
X57067157Y65580000D01*
X57069000Y65302250D01*
X57164250Y65207000D01*
X58898000Y65207000D01*
X58898000Y65865750D01*
X59152000Y65865750D01*
X59152000Y65207000D01*
X60885750Y65207000D01*
X60981000Y65302250D01*
X60982843Y65580000D01*
X60975949Y65650000D01*
X62812157Y65650000D01*
X62814000Y64972250D01*
X62909250Y64877000D01*
X63633000Y64877000D01*
X63633000Y65935750D01*
X63537750Y66031000D01*
X63195000Y66032843D01*
X63120311Y66025487D01*
X63048492Y66003701D01*
X62982304Y65968322D01*
X62924289Y65920711D01*
X62876678Y65862696D01*
X62841299Y65796508D01*
X62819513Y65724689D01*
X62812157Y65650000D01*
X60975949Y65650000D01*
X60975487Y65654689D01*
X60953701Y65726508D01*
X60918322Y65792696D01*
X60870711Y65850711D01*
X60812696Y65898322D01*
X60746508Y65933701D01*
X60674689Y65955487D01*
X60600000Y65962843D01*
X59247250Y65961000D01*
X59152000Y65865750D01*
X58898000Y65865750D01*
X58802750Y65961000D01*
X57450000Y65962843D01*
X57375311Y65955487D01*
X57303492Y65933701D01*
X57237304Y65898322D01*
X57179289Y65850711D01*
X57131678Y65792696D01*
X57096299Y65726508D01*
X57074513Y65654689D01*
X57067157Y65580000D01*
X56627000Y65580000D01*
X56627000Y65923994D01*
X56649068Y65977271D01*
X56685000Y66157911D01*
X56685000Y66342089D01*
X56678851Y66373000D01*
X64373000Y66373000D01*
X64373000Y66028116D01*
G37*
%TD.AperFunction*%
%TD*%
D33*
%TO.N,/H2/VDD*%
X45373000Y44627000D02*
X42877000Y44627000D01*
X42877000Y53250000D01*
X42874560Y53274776D01*
X42867333Y53298601D01*
X42855597Y53320557D01*
X42839803Y53339803D01*
X42820557Y53355597D01*
X42798601Y53367333D01*
X42774776Y53374560D01*
X42750000Y53377000D01*
X41877000Y53377000D01*
X41877000Y53795000D01*
X42167157Y53795000D01*
X42174513Y53720311D01*
X42196299Y53648492D01*
X42231678Y53582304D01*
X42279289Y53524289D01*
X42337304Y53476678D01*
X42403492Y53441299D01*
X42475311Y53419513D01*
X42550000Y53412157D01*
X43302750Y53414000D01*
X43398000Y53509250D01*
X43398000Y53968000D01*
X43652000Y53968000D01*
X43652000Y53509250D01*
X43747250Y53414000D01*
X44500000Y53412157D01*
X44574689Y53419513D01*
X44646508Y53441299D01*
X44712696Y53476678D01*
X44770711Y53524289D01*
X44818322Y53582304D01*
X44853701Y53648492D01*
X44875487Y53720311D01*
X44882843Y53795000D01*
X44881000Y53872750D01*
X44785750Y53968000D01*
X43652000Y53968000D01*
X43398000Y53968000D01*
X42264250Y53968000D01*
X42169000Y53872750D01*
X42167157Y53795000D01*
X41877000Y53795000D01*
X41877000Y55065000D01*
X42167157Y55065000D01*
X42174513Y54990311D01*
X42196299Y54918492D01*
X42231678Y54852304D01*
X42279289Y54794289D01*
X42337304Y54746678D01*
X42368506Y54730000D01*
X42337304Y54713322D01*
X42279289Y54665711D01*
X42231678Y54607696D01*
X42196299Y54541508D01*
X42174513Y54469689D01*
X42167157Y54395000D01*
X42169000Y54317250D01*
X42264250Y54222000D01*
X43398000Y54222000D01*
X43398000Y54680750D01*
X43348750Y54730000D01*
X43398000Y54779250D01*
X43398000Y55238000D01*
X43652000Y55238000D01*
X43652000Y54779250D01*
X43701250Y54730000D01*
X43652000Y54680750D01*
X43652000Y54222000D01*
X44785750Y54222000D01*
X44881000Y54317250D01*
X44882843Y54395000D01*
X44875487Y54469689D01*
X44853701Y54541508D01*
X44818322Y54607696D01*
X44770711Y54665711D01*
X44712696Y54713322D01*
X44681494Y54730000D01*
X44712696Y54746678D01*
X44770711Y54794289D01*
X44818322Y54852304D01*
X44853701Y54918492D01*
X44875487Y54990311D01*
X44882843Y55065000D01*
X44881000Y55142750D01*
X44785750Y55238000D01*
X43652000Y55238000D01*
X43398000Y55238000D01*
X42264250Y55238000D01*
X42169000Y55142750D01*
X42167157Y55065000D01*
X41877000Y55065000D01*
X41877000Y55611079D01*
X42168388Y55613066D01*
X42169000Y55587250D01*
X42264250Y55492000D01*
X43398000Y55492000D01*
X43398000Y55512000D01*
X43652000Y55512000D01*
X43652000Y55492000D01*
X44785750Y55492000D01*
X44881000Y55587250D01*
X44881658Y55615000D01*
X45373000Y55615000D01*
X45373000Y44627000D01*
%TA.AperFunction,Conductor*%
D38*
G36*
X45373000Y44627000D02*
G01*
X42877000Y44627000D01*
X42877000Y53250000D01*
X42874560Y53274776D01*
X42867333Y53298601D01*
X42855597Y53320557D01*
X42839803Y53339803D01*
X42820557Y53355597D01*
X42798601Y53367333D01*
X42774776Y53374560D01*
X42750000Y53377000D01*
X41877000Y53377000D01*
X41877000Y53795000D01*
X42167157Y53795000D01*
X42174513Y53720311D01*
X42196299Y53648492D01*
X42231678Y53582304D01*
X42279289Y53524289D01*
X42337304Y53476678D01*
X42403492Y53441299D01*
X42475311Y53419513D01*
X42550000Y53412157D01*
X43302750Y53414000D01*
X43398000Y53509250D01*
X43398000Y53968000D01*
X43652000Y53968000D01*
X43652000Y53509250D01*
X43747250Y53414000D01*
X44500000Y53412157D01*
X44574689Y53419513D01*
X44646508Y53441299D01*
X44712696Y53476678D01*
X44770711Y53524289D01*
X44818322Y53582304D01*
X44853701Y53648492D01*
X44875487Y53720311D01*
X44882843Y53795000D01*
X44881000Y53872750D01*
X44785750Y53968000D01*
X43652000Y53968000D01*
X43398000Y53968000D01*
X42264250Y53968000D01*
X42169000Y53872750D01*
X42167157Y53795000D01*
X41877000Y53795000D01*
X41877000Y55065000D01*
X42167157Y55065000D01*
X42174513Y54990311D01*
X42196299Y54918492D01*
X42231678Y54852304D01*
X42279289Y54794289D01*
X42337304Y54746678D01*
X42368506Y54730000D01*
X42337304Y54713322D01*
X42279289Y54665711D01*
X42231678Y54607696D01*
X42196299Y54541508D01*
X42174513Y54469689D01*
X42167157Y54395000D01*
X42169000Y54317250D01*
X42264250Y54222000D01*
X43398000Y54222000D01*
X43398000Y54680750D01*
X43348750Y54730000D01*
X43398000Y54779250D01*
X43398000Y55238000D01*
X43652000Y55238000D01*
X43652000Y54779250D01*
X43701250Y54730000D01*
X43652000Y54680750D01*
X43652000Y54222000D01*
X44785750Y54222000D01*
X44881000Y54317250D01*
X44882843Y54395000D01*
X44875487Y54469689D01*
X44853701Y54541508D01*
X44818322Y54607696D01*
X44770711Y54665711D01*
X44712696Y54713322D01*
X44681494Y54730000D01*
X44712696Y54746678D01*
X44770711Y54794289D01*
X44818322Y54852304D01*
X44853701Y54918492D01*
X44875487Y54990311D01*
X44882843Y55065000D01*
X44881000Y55142750D01*
X44785750Y55238000D01*
X43652000Y55238000D01*
X43398000Y55238000D01*
X42264250Y55238000D01*
X42169000Y55142750D01*
X42167157Y55065000D01*
X41877000Y55065000D01*
X41877000Y55611079D01*
X42168388Y55613066D01*
X42169000Y55587250D01*
X42264250Y55492000D01*
X43398000Y55492000D01*
X43398000Y55512000D01*
X43652000Y55512000D01*
X43652000Y55492000D01*
X44785750Y55492000D01*
X44881000Y55587250D01*
X44881658Y55615000D01*
X45373000Y55615000D01*
X45373000Y44627000D01*
G37*
%TD.AperFunction*%
%TD*%
D33*
%TO.N,/Fused*%
X45373000Y56377000D02*
X44881847Y56377000D01*
X44881000Y56412750D01*
X44785750Y56508000D01*
X43652000Y56508000D01*
X43652000Y56488000D01*
X43398000Y56488000D01*
X43398000Y56508000D01*
X42264250Y56508000D01*
X42169000Y56412750D01*
X42168153Y56377000D01*
X41877000Y56377000D01*
X41877000Y57605000D01*
X42167157Y57605000D01*
X42174513Y57530311D01*
X42196299Y57458492D01*
X42231678Y57392304D01*
X42279289Y57334289D01*
X42337304Y57286678D01*
X42368506Y57270000D01*
X42337304Y57253322D01*
X42279289Y57205711D01*
X42231678Y57147696D01*
X42196299Y57081508D01*
X42174513Y57009689D01*
X42167157Y56935000D01*
X42169000Y56857250D01*
X42264250Y56762000D01*
X43398000Y56762000D01*
X43398000Y57220750D01*
X43348750Y57270000D01*
X43398000Y57319250D01*
X43398000Y57778000D01*
X43652000Y57778000D01*
X43652000Y57319250D01*
X43701250Y57270000D01*
X43652000Y57220750D01*
X43652000Y56762000D01*
X44785750Y56762000D01*
X44881000Y56857250D01*
X44882843Y56935000D01*
X44875487Y57009689D01*
X44853701Y57081508D01*
X44818322Y57147696D01*
X44770711Y57205711D01*
X44712696Y57253322D01*
X44681494Y57270000D01*
X44712696Y57286678D01*
X44770711Y57334289D01*
X44818322Y57392304D01*
X44853701Y57458492D01*
X44875487Y57530311D01*
X44882843Y57605000D01*
X44881000Y57682750D01*
X44785750Y57778000D01*
X43652000Y57778000D01*
X43398000Y57778000D01*
X42264250Y57778000D01*
X42169000Y57682750D01*
X42167157Y57605000D01*
X41877000Y57605000D01*
X41877000Y58205000D01*
X42167157Y58205000D01*
X42169000Y58127250D01*
X42264250Y58032000D01*
X43398000Y58032000D01*
X43398000Y58490750D01*
X43652000Y58490750D01*
X43652000Y58032000D01*
X44785750Y58032000D01*
X44881000Y58127250D01*
X44882843Y58205000D01*
X44875487Y58279689D01*
X44853701Y58351508D01*
X44818322Y58417696D01*
X44770711Y58475711D01*
X44712696Y58523322D01*
X44646508Y58558701D01*
X44574689Y58580487D01*
X44500000Y58587843D01*
X43747250Y58586000D01*
X43652000Y58490750D01*
X43398000Y58490750D01*
X43302750Y58586000D01*
X42550000Y58587843D01*
X42475311Y58580487D01*
X42403492Y58558701D01*
X42337304Y58523322D01*
X42279289Y58475711D01*
X42231678Y58417696D01*
X42196299Y58351508D01*
X42174513Y58279689D01*
X42167157Y58205000D01*
X41877000Y58205000D01*
X41877000Y62123000D01*
X45373000Y62123000D01*
X45373000Y56377000D01*
%TA.AperFunction,Conductor*%
D38*
G36*
X45373000Y56377000D02*
G01*
X44881847Y56377000D01*
X44881000Y56412750D01*
X44785750Y56508000D01*
X43652000Y56508000D01*
X43652000Y56488000D01*
X43398000Y56488000D01*
X43398000Y56508000D01*
X42264250Y56508000D01*
X42169000Y56412750D01*
X42168153Y56377000D01*
X41877000Y56377000D01*
X41877000Y57605000D01*
X42167157Y57605000D01*
X42174513Y57530311D01*
X42196299Y57458492D01*
X42231678Y57392304D01*
X42279289Y57334289D01*
X42337304Y57286678D01*
X42368506Y57270000D01*
X42337304Y57253322D01*
X42279289Y57205711D01*
X42231678Y57147696D01*
X42196299Y57081508D01*
X42174513Y57009689D01*
X42167157Y56935000D01*
X42169000Y56857250D01*
X42264250Y56762000D01*
X43398000Y56762000D01*
X43398000Y57220750D01*
X43348750Y57270000D01*
X43398000Y57319250D01*
X43398000Y57778000D01*
X43652000Y57778000D01*
X43652000Y57319250D01*
X43701250Y57270000D01*
X43652000Y57220750D01*
X43652000Y56762000D01*
X44785750Y56762000D01*
X44881000Y56857250D01*
X44882843Y56935000D01*
X44875487Y57009689D01*
X44853701Y57081508D01*
X44818322Y57147696D01*
X44770711Y57205711D01*
X44712696Y57253322D01*
X44681494Y57270000D01*
X44712696Y57286678D01*
X44770711Y57334289D01*
X44818322Y57392304D01*
X44853701Y57458492D01*
X44875487Y57530311D01*
X44882843Y57605000D01*
X44881000Y57682750D01*
X44785750Y57778000D01*
X43652000Y57778000D01*
X43398000Y57778000D01*
X42264250Y57778000D01*
X42169000Y57682750D01*
X42167157Y57605000D01*
X41877000Y57605000D01*
X41877000Y58205000D01*
X42167157Y58205000D01*
X42169000Y58127250D01*
X42264250Y58032000D01*
X43398000Y58032000D01*
X43398000Y58490750D01*
X43652000Y58490750D01*
X43652000Y58032000D01*
X44785750Y58032000D01*
X44881000Y58127250D01*
X44882843Y58205000D01*
X44875487Y58279689D01*
X44853701Y58351508D01*
X44818322Y58417696D01*
X44770711Y58475711D01*
X44712696Y58523322D01*
X44646508Y58558701D01*
X44574689Y58580487D01*
X44500000Y58587843D01*
X43747250Y58586000D01*
X43652000Y58490750D01*
X43398000Y58490750D01*
X43302750Y58586000D01*
X42550000Y58587843D01*
X42475311Y58580487D01*
X42403492Y58558701D01*
X42337304Y58523322D01*
X42279289Y58475711D01*
X42231678Y58417696D01*
X42196299Y58351508D01*
X42174513Y58279689D01*
X42167157Y58205000D01*
X41877000Y58205000D01*
X41877000Y62123000D01*
X45373000Y62123000D01*
X45373000Y56377000D01*
G37*
%TD.AperFunction*%
%TD*%
D33*
%TO.N,/Fused*%
X46373000Y27627000D02*
X44631847Y27627000D01*
X44631000Y27662750D01*
X44535750Y27758000D01*
X43402000Y27758000D01*
X43402000Y27738000D01*
X43148000Y27738000D01*
X43148000Y27758000D01*
X42014250Y27758000D01*
X41919000Y27662750D01*
X41918153Y27627000D01*
X41877000Y27627000D01*
X41877000Y27890370D01*
X42006440Y28019810D01*
X42014250Y28012000D01*
X43148000Y28012000D01*
X43148000Y28470750D01*
X43098750Y28520000D01*
X43148000Y28569250D01*
X43148000Y29028000D01*
X43402000Y29028000D01*
X43402000Y28569250D01*
X43451250Y28520000D01*
X43402000Y28470750D01*
X43402000Y28012000D01*
X44535750Y28012000D01*
X44631000Y28107250D01*
X44632843Y28185000D01*
X44625487Y28259689D01*
X44603701Y28331508D01*
X44568322Y28397696D01*
X44520711Y28455711D01*
X44462696Y28503322D01*
X44431494Y28520000D01*
X44462696Y28536678D01*
X44520711Y28584289D01*
X44568322Y28642304D01*
X44603701Y28708492D01*
X44625487Y28780311D01*
X44632843Y28855000D01*
X44631000Y28932750D01*
X44535750Y29028000D01*
X43402000Y29028000D01*
X43148000Y29028000D01*
X43128000Y29028000D01*
X43128000Y29282000D01*
X43148000Y29282000D01*
X43148000Y29740750D01*
X43402000Y29740750D01*
X43402000Y29282000D01*
X44535750Y29282000D01*
X44631000Y29377250D01*
X44632843Y29455000D01*
X44625487Y29529689D01*
X44603701Y29601508D01*
X44568322Y29667696D01*
X44520711Y29725711D01*
X44462696Y29773322D01*
X44396508Y29808701D01*
X44324689Y29830487D01*
X44250000Y29837843D01*
X43497250Y29836000D01*
X43402000Y29740750D01*
X43148000Y29740750D01*
X43052750Y29836000D01*
X42969886Y29836203D01*
X43377285Y30243601D01*
X46373000Y30243601D01*
X46373000Y27627000D01*
%TA.AperFunction,Conductor*%
D38*
G36*
X46373000Y27627000D02*
G01*
X44631847Y27627000D01*
X44631000Y27662750D01*
X44535750Y27758000D01*
X43402000Y27758000D01*
X43402000Y27738000D01*
X43148000Y27738000D01*
X43148000Y27758000D01*
X42014250Y27758000D01*
X41919000Y27662750D01*
X41918153Y27627000D01*
X41877000Y27627000D01*
X41877000Y27890370D01*
X42006440Y28019810D01*
X42014250Y28012000D01*
X43148000Y28012000D01*
X43148000Y28470750D01*
X43098750Y28520000D01*
X43148000Y28569250D01*
X43148000Y29028000D01*
X43402000Y29028000D01*
X43402000Y28569250D01*
X43451250Y28520000D01*
X43402000Y28470750D01*
X43402000Y28012000D01*
X44535750Y28012000D01*
X44631000Y28107250D01*
X44632843Y28185000D01*
X44625487Y28259689D01*
X44603701Y28331508D01*
X44568322Y28397696D01*
X44520711Y28455711D01*
X44462696Y28503322D01*
X44431494Y28520000D01*
X44462696Y28536678D01*
X44520711Y28584289D01*
X44568322Y28642304D01*
X44603701Y28708492D01*
X44625487Y28780311D01*
X44632843Y28855000D01*
X44631000Y28932750D01*
X44535750Y29028000D01*
X43402000Y29028000D01*
X43148000Y29028000D01*
X43128000Y29028000D01*
X43128000Y29282000D01*
X43148000Y29282000D01*
X43148000Y29740750D01*
X43402000Y29740750D01*
X43402000Y29282000D01*
X44535750Y29282000D01*
X44631000Y29377250D01*
X44632843Y29455000D01*
X44625487Y29529689D01*
X44603701Y29601508D01*
X44568322Y29667696D01*
X44520711Y29725711D01*
X44462696Y29773322D01*
X44396508Y29808701D01*
X44324689Y29830487D01*
X44250000Y29837843D01*
X43497250Y29836000D01*
X43402000Y29740750D01*
X43148000Y29740750D01*
X43052750Y29836000D01*
X42969886Y29836203D01*
X43377285Y30243601D01*
X46373000Y30243601D01*
X46373000Y27627000D01*
G37*
%TD.AperFunction*%
%TD*%
D33*
%TO.N,/H1/VDD*%
X41397213Y26972017D02*
X41506996Y26913336D01*
X41626118Y26877201D01*
X41750000Y26865000D01*
X41918342Y26865000D01*
X41919000Y26837250D01*
X42014250Y26742000D01*
X43148000Y26742000D01*
X43148000Y26762000D01*
X43402000Y26762000D01*
X43402000Y26742000D01*
X44535750Y26742000D01*
X44631000Y26837250D01*
X44631658Y26865000D01*
X44693308Y26865000D01*
X44727271Y26850932D01*
X44868408Y26822858D01*
X44753615Y16127000D01*
X42749686Y16127000D01*
X42876985Y24498069D01*
X42874922Y24522880D01*
X42868058Y24546811D01*
X42856657Y24568944D01*
X42841158Y24588427D01*
X42822155Y24604512D01*
X42800379Y24616580D01*
X42776668Y24624169D01*
X42750000Y24627000D01*
X41377000Y24627000D01*
X41377000Y25045000D01*
X41917157Y25045000D01*
X41924513Y24970311D01*
X41946299Y24898492D01*
X41981678Y24832304D01*
X42029289Y24774289D01*
X42087304Y24726678D01*
X42153492Y24691299D01*
X42225311Y24669513D01*
X42300000Y24662157D01*
X43052750Y24664000D01*
X43148000Y24759250D01*
X43148000Y25218000D01*
X43402000Y25218000D01*
X43402000Y24759250D01*
X43497250Y24664000D01*
X44250000Y24662157D01*
X44324689Y24669513D01*
X44396508Y24691299D01*
X44462696Y24726678D01*
X44520711Y24774289D01*
X44568322Y24832304D01*
X44603701Y24898492D01*
X44625487Y24970311D01*
X44632843Y25045000D01*
X44631000Y25122750D01*
X44535750Y25218000D01*
X43402000Y25218000D01*
X43148000Y25218000D01*
X42014250Y25218000D01*
X41919000Y25122750D01*
X41917157Y25045000D01*
X41377000Y25045000D01*
X41377000Y26315000D01*
X41917157Y26315000D01*
X41924513Y26240311D01*
X41946299Y26168492D01*
X41981678Y26102304D01*
X42029289Y26044289D01*
X42087304Y25996678D01*
X42118506Y25980000D01*
X42087304Y25963322D01*
X42029289Y25915711D01*
X41981678Y25857696D01*
X41946299Y25791508D01*
X41924513Y25719689D01*
X41917157Y25645000D01*
X41919000Y25567250D01*
X42014250Y25472000D01*
X43148000Y25472000D01*
X43148000Y25930750D01*
X43098750Y25980000D01*
X43148000Y26029250D01*
X43148000Y26488000D01*
X43402000Y26488000D01*
X43402000Y26029250D01*
X43451250Y25980000D01*
X43402000Y25930750D01*
X43402000Y25472000D01*
X44535750Y25472000D01*
X44631000Y25567250D01*
X44632843Y25645000D01*
X44625487Y25719689D01*
X44603701Y25791508D01*
X44568322Y25857696D01*
X44520711Y25915711D01*
X44462696Y25963322D01*
X44431494Y25980000D01*
X44462696Y25996678D01*
X44520711Y26044289D01*
X44568322Y26102304D01*
X44603701Y26168492D01*
X44625487Y26240311D01*
X44632843Y26315000D01*
X44631000Y26392750D01*
X44535750Y26488000D01*
X43402000Y26488000D01*
X43148000Y26488000D01*
X42014250Y26488000D01*
X41919000Y26392750D01*
X41917157Y26315000D01*
X41377000Y26315000D01*
X41377000Y26988605D01*
X41397213Y26972017D01*
%TA.AperFunction,Conductor*%
D38*
G36*
X41397213Y26972017D02*
G01*
X41506996Y26913336D01*
X41626118Y26877201D01*
X41750000Y26865000D01*
X41918342Y26865000D01*
X41919000Y26837250D01*
X42014250Y26742000D01*
X43148000Y26742000D01*
X43148000Y26762000D01*
X43402000Y26762000D01*
X43402000Y26742000D01*
X44535750Y26742000D01*
X44631000Y26837250D01*
X44631658Y26865000D01*
X44693308Y26865000D01*
X44727271Y26850932D01*
X44868408Y26822858D01*
X44753615Y16127000D01*
X42749686Y16127000D01*
X42876985Y24498069D01*
X42874922Y24522880D01*
X42868058Y24546811D01*
X42856657Y24568944D01*
X42841158Y24588427D01*
X42822155Y24604512D01*
X42800379Y24616580D01*
X42776668Y24624169D01*
X42750000Y24627000D01*
X41377000Y24627000D01*
X41377000Y25045000D01*
X41917157Y25045000D01*
X41924513Y24970311D01*
X41946299Y24898492D01*
X41981678Y24832304D01*
X42029289Y24774289D01*
X42087304Y24726678D01*
X42153492Y24691299D01*
X42225311Y24669513D01*
X42300000Y24662157D01*
X43052750Y24664000D01*
X43148000Y24759250D01*
X43148000Y25218000D01*
X43402000Y25218000D01*
X43402000Y24759250D01*
X43497250Y24664000D01*
X44250000Y24662157D01*
X44324689Y24669513D01*
X44396508Y24691299D01*
X44462696Y24726678D01*
X44520711Y24774289D01*
X44568322Y24832304D01*
X44603701Y24898492D01*
X44625487Y24970311D01*
X44632843Y25045000D01*
X44631000Y25122750D01*
X44535750Y25218000D01*
X43402000Y25218000D01*
X43148000Y25218000D01*
X42014250Y25218000D01*
X41919000Y25122750D01*
X41917157Y25045000D01*
X41377000Y25045000D01*
X41377000Y26315000D01*
X41917157Y26315000D01*
X41924513Y26240311D01*
X41946299Y26168492D01*
X41981678Y26102304D01*
X42029289Y26044289D01*
X42087304Y25996678D01*
X42118506Y25980000D01*
X42087304Y25963322D01*
X42029289Y25915711D01*
X41981678Y25857696D01*
X41946299Y25791508D01*
X41924513Y25719689D01*
X41917157Y25645000D01*
X41919000Y25567250D01*
X42014250Y25472000D01*
X43148000Y25472000D01*
X43148000Y25930750D01*
X43098750Y25980000D01*
X43148000Y26029250D01*
X43148000Y26488000D01*
X43402000Y26488000D01*
X43402000Y26029250D01*
X43451250Y25980000D01*
X43402000Y25930750D01*
X43402000Y25472000D01*
X44535750Y25472000D01*
X44631000Y25567250D01*
X44632843Y25645000D01*
X44625487Y25719689D01*
X44603701Y25791508D01*
X44568322Y25857696D01*
X44520711Y25915711D01*
X44462696Y25963322D01*
X44431494Y25980000D01*
X44462696Y25996678D01*
X44520711Y26044289D01*
X44568322Y26102304D01*
X44603701Y26168492D01*
X44625487Y26240311D01*
X44632843Y26315000D01*
X44631000Y26392750D01*
X44535750Y26488000D01*
X43402000Y26488000D01*
X43148000Y26488000D01*
X42014250Y26488000D01*
X41919000Y26392750D01*
X41917157Y26315000D01*
X41377000Y26315000D01*
X41377000Y26988605D01*
X41397213Y26972017D01*
G37*
%TD.AperFunction*%
%TD*%
D33*
%TO.N,GNDPWR*%
X68873000Y21608804D02*
X68869463Y21604494D01*
X68810498Y21494180D01*
X68774188Y21374482D01*
X68761928Y21250000D01*
X68761928Y20250000D01*
X68774188Y20125518D01*
X68810498Y20005820D01*
X68869463Y19895506D01*
X68873000Y19891196D01*
X68873000Y17377000D01*
X66877000Y17377000D01*
X66877000Y18000000D01*
X66874560Y18024776D01*
X66867333Y18048601D01*
X66855597Y18070557D01*
X66839803Y18089803D01*
X66820557Y18105597D01*
X66798601Y18117333D01*
X66774776Y18124560D01*
X66750000Y18127000D01*
X63203833Y18127000D01*
X63129544Y21873000D01*
X68873000Y21873000D01*
X68873000Y21608804D01*
%TA.AperFunction,Conductor*%
D38*
G36*
X68873000Y21608804D02*
G01*
X68869463Y21604494D01*
X68810498Y21494180D01*
X68774188Y21374482D01*
X68761928Y21250000D01*
X68761928Y20250000D01*
X68774188Y20125518D01*
X68810498Y20005820D01*
X68869463Y19895506D01*
X68873000Y19891196D01*
X68873000Y17377000D01*
X66877000Y17377000D01*
X66877000Y18000000D01*
X66874560Y18024776D01*
X66867333Y18048601D01*
X66855597Y18070557D01*
X66839803Y18089803D01*
X66820557Y18105597D01*
X66798601Y18117333D01*
X66774776Y18124560D01*
X66750000Y18127000D01*
X63203833Y18127000D01*
X63129544Y21873000D01*
X68873000Y21873000D01*
X68873000Y21608804D01*
G37*
%TD.AperFunction*%
%TD*%
D33*
%TO.N,GNDPWR*%
X67655820Y11089502D02*
X67545506Y11030537D01*
X67448815Y10951185D01*
X67369463Y10854494D01*
X67310498Y10744180D01*
X67274188Y10624482D01*
X67261928Y10500000D01*
X67261928Y9500000D01*
X67274188Y9375518D01*
X67310498Y9255820D01*
X67369463Y9145506D01*
X67448815Y9048815D01*
X67545506Y8969463D01*
X67655820Y8910498D01*
X67775518Y8874188D01*
X67900000Y8861928D01*
X69123000Y8861928D01*
X69123000Y6756711D01*
X69109482Y6760812D01*
X68985000Y6773072D01*
X67515000Y6773072D01*
X67390518Y6760812D01*
X67319339Y6739220D01*
X67127000Y6739220D01*
X67127000Y8250000D01*
X67124560Y8274776D01*
X67117333Y8298601D01*
X67105597Y8320557D01*
X67089803Y8339803D01*
X67070557Y8355597D01*
X67048601Y8367333D01*
X67024776Y8374560D01*
X67000000Y8377000D01*
X63377000Y8377000D01*
X63377000Y11095000D01*
X67673944Y11095000D01*
X67655820Y11089502D01*
%TA.AperFunction,Conductor*%
D38*
G36*
X67655820Y11089502D02*
G01*
X67545506Y11030537D01*
X67448815Y10951185D01*
X67369463Y10854494D01*
X67310498Y10744180D01*
X67274188Y10624482D01*
X67261928Y10500000D01*
X67261928Y9500000D01*
X67274188Y9375518D01*
X67310498Y9255820D01*
X67369463Y9145506D01*
X67448815Y9048815D01*
X67545506Y8969463D01*
X67655820Y8910498D01*
X67775518Y8874188D01*
X67900000Y8861928D01*
X69123000Y8861928D01*
X69123000Y6756711D01*
X69109482Y6760812D01*
X68985000Y6773072D01*
X67515000Y6773072D01*
X67390518Y6760812D01*
X67319339Y6739220D01*
X67127000Y6739220D01*
X67127000Y8250000D01*
X67124560Y8274776D01*
X67117333Y8298601D01*
X67105597Y8320557D01*
X67089803Y8339803D01*
X67070557Y8355597D01*
X67048601Y8367333D01*
X67024776Y8374560D01*
X67000000Y8377000D01*
X63377000Y8377000D01*
X63377000Y11095000D01*
X67673944Y11095000D01*
X67655820Y11089502D01*
G37*
%TD.AperFunction*%
%TD*%
D33*
%TO.N,GNDPWR*%
X30420821Y64320498D02*
X30540519Y64284188D01*
X30665001Y64271928D01*
X32135001Y64271928D01*
X32259483Y64284188D01*
X32373000Y64318623D01*
X32373000Y62877000D01*
X27575500Y62877000D01*
X27575500Y64271928D01*
X28864999Y64271928D01*
X28989481Y64284188D01*
X29109179Y64320498D01*
X29207402Y64373000D01*
X30322598Y64373000D01*
X30420821Y64320498D01*
%TA.AperFunction,Conductor*%
D38*
G36*
X30420821Y64320498D02*
G01*
X30540519Y64284188D01*
X30665001Y64271928D01*
X32135001Y64271928D01*
X32259483Y64284188D01*
X32373000Y64318623D01*
X32373000Y62877000D01*
X27575500Y62877000D01*
X27575500Y64271928D01*
X28864999Y64271928D01*
X28989481Y64284188D01*
X29109179Y64320498D01*
X29207402Y64373000D01*
X30322598Y64373000D01*
X30420821Y64320498D01*
G37*
%TD.AperFunction*%
%TD*%
D33*
%TO.N,GNDPWR*%
X67261928Y40000000D02*
X67274188Y39875518D01*
X67310498Y39755820D01*
X67369463Y39645506D01*
X67448815Y39548815D01*
X67545506Y39469463D01*
X67655820Y39410498D01*
X67775518Y39374188D01*
X67900000Y39361928D01*
X68495640Y39361928D01*
X69123000Y38734568D01*
X69123000Y37076006D01*
X69100932Y37022729D01*
X69065000Y36842089D01*
X69065000Y36721873D01*
X68985000Y36729752D01*
X67515000Y36729752D01*
X67390518Y36717492D01*
X67270820Y36681182D01*
X67169454Y36627000D01*
X63127000Y36627000D01*
X63127000Y40623000D01*
X67261928Y40623000D01*
X67261928Y40000000D01*
%TA.AperFunction,Conductor*%
D38*
G36*
X67261928Y40000000D02*
G01*
X67274188Y39875518D01*
X67310498Y39755820D01*
X67369463Y39645506D01*
X67448815Y39548815D01*
X67545506Y39469463D01*
X67655820Y39410498D01*
X67775518Y39374188D01*
X67900000Y39361928D01*
X68495640Y39361928D01*
X69123000Y38734568D01*
X69123000Y37076006D01*
X69100932Y37022729D01*
X69065000Y36842089D01*
X69065000Y36721873D01*
X68985000Y36729752D01*
X67515000Y36729752D01*
X67390518Y36717492D01*
X67270820Y36681182D01*
X67169454Y36627000D01*
X63127000Y36627000D01*
X63127000Y40623000D01*
X67261928Y40623000D01*
X67261928Y40000000D01*
G37*
%TD.AperFunction*%
%TD*%
D33*
%TO.N,GNDPWR*%
X67261928Y49500000D02*
X67274188Y49375518D01*
X67310498Y49255820D01*
X67369463Y49145506D01*
X67448815Y49048815D01*
X67545506Y48969463D01*
X67655820Y48910498D01*
X67775518Y48874188D01*
X67900000Y48861928D01*
X68585442Y48861928D01*
X69123000Y48324370D01*
X69123000Y46541730D01*
X69109482Y46545831D01*
X68985000Y46558091D01*
X67515000Y46558091D01*
X67390518Y46545831D01*
X67270820Y46509521D01*
X67160506Y46450556D01*
X67070877Y46377000D01*
X63127000Y46377000D01*
X63127000Y50373000D01*
X67261928Y50373000D01*
X67261928Y49500000D01*
%TA.AperFunction,Conductor*%
D38*
G36*
X67261928Y49500000D02*
G01*
X67274188Y49375518D01*
X67310498Y49255820D01*
X67369463Y49145506D01*
X67448815Y49048815D01*
X67545506Y48969463D01*
X67655820Y48910498D01*
X67775518Y48874188D01*
X67900000Y48861928D01*
X68585442Y48861928D01*
X69123000Y48324370D01*
X69123000Y46541730D01*
X69109482Y46545831D01*
X68985000Y46558091D01*
X67515000Y46558091D01*
X67390518Y46545831D01*
X67270820Y46509521D01*
X67160506Y46450556D01*
X67070877Y46377000D01*
X63127000Y46377000D01*
X63127000Y50373000D01*
X67261928Y50373000D01*
X67261928Y49500000D01*
G37*
%TD.AperFunction*%
%TD*%
D33*
%TO.N,/Fused*%
X88623000Y36817075D02*
X88432925Y36627000D01*
X83377000Y36627000D01*
X83377000Y48146000D01*
X84369000Y48146000D01*
X84369000Y47396000D01*
X84449892Y47082688D01*
X84590354Y46791178D01*
X84784988Y46532672D01*
X85026314Y46317104D01*
X85305058Y46152759D01*
X85497095Y46098469D01*
X85746000Y46135400D01*
X85746000Y48146000D01*
X86254000Y48146000D01*
X86254000Y46135400D01*
X86502905Y46098469D01*
X86694942Y46152759D01*
X86973686Y46317104D01*
X87215012Y46532672D01*
X87409646Y46791178D01*
X87550108Y47082688D01*
X87631000Y47396000D01*
X87631000Y48146000D01*
X86254000Y48146000D01*
X85746000Y48146000D01*
X84369000Y48146000D01*
X83377000Y48146000D01*
X83377000Y49404000D01*
X84369000Y49404000D01*
X84369000Y48654000D01*
X85746000Y48654000D01*
X85746000Y50664600D01*
X86254000Y50664600D01*
X86254000Y48654000D01*
X87631000Y48654000D01*
X87631000Y49404000D01*
X87550108Y49717312D01*
X87409646Y50008822D01*
X87215012Y50267328D01*
X86973686Y50482896D01*
X86694942Y50647241D01*
X86502905Y50701531D01*
X86254000Y50664600D01*
X85746000Y50664600D01*
X85497095Y50701531D01*
X85305058Y50647241D01*
X85026314Y50482896D01*
X84784988Y50267328D01*
X84590354Y50008822D01*
X84449892Y49717312D01*
X84369000Y49404000D01*
X83377000Y49404000D01*
X83377000Y50873000D01*
X88623000Y50873000D01*
X88623000Y36817075D01*
%TA.AperFunction,Conductor*%
D38*
G36*
X88623000Y36817075D02*
G01*
X88432925Y36627000D01*
X83377000Y36627000D01*
X83377000Y48146000D01*
X84369000Y48146000D01*
X84369000Y47396000D01*
X84449892Y47082688D01*
X84590354Y46791178D01*
X84784988Y46532672D01*
X85026314Y46317104D01*
X85305058Y46152759D01*
X85497095Y46098469D01*
X85746000Y46135400D01*
X85746000Y48146000D01*
X86254000Y48146000D01*
X86254000Y46135400D01*
X86502905Y46098469D01*
X86694942Y46152759D01*
X86973686Y46317104D01*
X87215012Y46532672D01*
X87409646Y46791178D01*
X87550108Y47082688D01*
X87631000Y47396000D01*
X87631000Y48146000D01*
X86254000Y48146000D01*
X85746000Y48146000D01*
X84369000Y48146000D01*
X83377000Y48146000D01*
X83377000Y49404000D01*
X84369000Y49404000D01*
X84369000Y48654000D01*
X85746000Y48654000D01*
X85746000Y50664600D01*
X86254000Y50664600D01*
X86254000Y48654000D01*
X87631000Y48654000D01*
X87631000Y49404000D01*
X87550108Y49717312D01*
X87409646Y50008822D01*
X87215012Y50267328D01*
X86973686Y50482896D01*
X86694942Y50647241D01*
X86502905Y50701531D01*
X86254000Y50664600D01*
X85746000Y50664600D01*
X85497095Y50701531D01*
X85305058Y50647241D01*
X85026314Y50482896D01*
X84784988Y50267328D01*
X84590354Y50008822D01*
X84449892Y49717312D01*
X84369000Y49404000D01*
X83377000Y49404000D01*
X83377000Y50873000D01*
X88623000Y50873000D01*
X88623000Y36817075D01*
G37*
%TD.AperFunction*%
%TD*%
D33*
%TO.N,GNDPWR*%
X55865000Y65796744D02*
X55820711Y65850711D01*
X55762696Y65898322D01*
X55696508Y65933701D01*
X55624689Y65955487D01*
X55550000Y65962843D01*
X54197250Y65961000D01*
X54102000Y65865750D01*
X54102000Y65207000D01*
X54122000Y65207000D01*
X54122000Y64953000D01*
X54102000Y64953000D01*
X54102000Y64294250D01*
X54197250Y64199000D01*
X55550000Y64197157D01*
X55624689Y64204513D01*
X55696508Y64226299D01*
X55762696Y64261678D01*
X55820711Y64309289D01*
X55865000Y64363256D01*
X55865000Y63256744D01*
X55820711Y63310711D01*
X55762696Y63358322D01*
X55696508Y63393701D01*
X55624689Y63415487D01*
X55550000Y63422843D01*
X54197250Y63421000D01*
X54102000Y63325750D01*
X54102000Y62667000D01*
X54122000Y62667000D01*
X54122000Y62413000D01*
X54102000Y62413000D01*
X54102000Y61754250D01*
X54197250Y61659000D01*
X55550000Y61657157D01*
X55624689Y61664513D01*
X55696508Y61686299D01*
X55762696Y61721678D01*
X55820711Y61769289D01*
X55865000Y61823256D01*
X55865000Y60716744D01*
X55820711Y60770711D01*
X55762696Y60818322D01*
X55696508Y60853701D01*
X55624689Y60875487D01*
X55550000Y60882843D01*
X54197250Y60881000D01*
X54102000Y60785750D01*
X54102000Y60127000D01*
X54122000Y60127000D01*
X54122000Y59873000D01*
X54102000Y59873000D01*
X54102000Y59214250D01*
X54197250Y59119000D01*
X55550000Y59117157D01*
X55624689Y59124513D01*
X55696508Y59146299D01*
X55762696Y59181678D01*
X55820711Y59229289D01*
X55865000Y59283256D01*
X55865000Y58176744D01*
X55820711Y58230711D01*
X55762696Y58278322D01*
X55696508Y58313701D01*
X55624689Y58335487D01*
X55550000Y58342843D01*
X54197250Y58341000D01*
X54102000Y58245750D01*
X54102000Y57587000D01*
X54122000Y57587000D01*
X54122000Y57333000D01*
X54102000Y57333000D01*
X54102000Y56674250D01*
X54197250Y56579000D01*
X55550000Y56577157D01*
X55624689Y56584513D01*
X55696508Y56606299D01*
X55762696Y56641678D01*
X55820711Y56689289D01*
X55865593Y56743979D01*
X55877201Y56626118D01*
X55913336Y56506996D01*
X55972017Y56397213D01*
X56050987Y56300987D01*
X56147213Y56222017D01*
X56256996Y56163336D01*
X56373000Y56128147D01*
X56373000Y53889000D01*
X52118236Y53889000D01*
X51889000Y54118235D01*
X51889000Y54420000D01*
X52017157Y54420000D01*
X52024513Y54345311D01*
X52046299Y54273492D01*
X52081678Y54207304D01*
X52129289Y54149289D01*
X52187304Y54101678D01*
X52253492Y54066299D01*
X52325311Y54044513D01*
X52400000Y54037157D01*
X53752750Y54039000D01*
X53848000Y54134250D01*
X53848000Y54793000D01*
X54102000Y54793000D01*
X54102000Y54134250D01*
X54197250Y54039000D01*
X55550000Y54037157D01*
X55624689Y54044513D01*
X55696508Y54066299D01*
X55762696Y54101678D01*
X55820711Y54149289D01*
X55868322Y54207304D01*
X55903701Y54273492D01*
X55925487Y54345311D01*
X55932843Y54420000D01*
X55931000Y54697750D01*
X55835750Y54793000D01*
X54102000Y54793000D01*
X53848000Y54793000D01*
X52114250Y54793000D01*
X52019000Y54697750D01*
X52017157Y54420000D01*
X51889000Y54420000D01*
X51889000Y55420000D01*
X52017157Y55420000D01*
X52019000Y55142250D01*
X52114250Y55047000D01*
X53848000Y55047000D01*
X53848000Y55705750D01*
X54102000Y55705750D01*
X54102000Y55047000D01*
X55835750Y55047000D01*
X55931000Y55142250D01*
X55932843Y55420000D01*
X55925487Y55494689D01*
X55903701Y55566508D01*
X55868322Y55632696D01*
X55820711Y55690711D01*
X55762696Y55738322D01*
X55696508Y55773701D01*
X55624689Y55795487D01*
X55550000Y55802843D01*
X54197250Y55801000D01*
X54102000Y55705750D01*
X53848000Y55705750D01*
X53752750Y55801000D01*
X52400000Y55802843D01*
X52325311Y55795487D01*
X52253492Y55773701D01*
X52187304Y55738322D01*
X52129289Y55690711D01*
X52081678Y55632696D01*
X52046299Y55566508D01*
X52024513Y55494689D01*
X52017157Y55420000D01*
X51889000Y55420000D01*
X51889000Y56960000D01*
X52017157Y56960000D01*
X52024513Y56885311D01*
X52046299Y56813492D01*
X52081678Y56747304D01*
X52129289Y56689289D01*
X52187304Y56641678D01*
X52253492Y56606299D01*
X52325311Y56584513D01*
X52400000Y56577157D01*
X53752750Y56579000D01*
X53848000Y56674250D01*
X53848000Y57333000D01*
X52114250Y57333000D01*
X52019000Y57237750D01*
X52017157Y56960000D01*
X51889000Y56960000D01*
X51889000Y57960000D01*
X52017157Y57960000D01*
X52019000Y57682250D01*
X52114250Y57587000D01*
X53848000Y57587000D01*
X53848000Y58245750D01*
X53752750Y58341000D01*
X52400000Y58342843D01*
X52325311Y58335487D01*
X52253492Y58313701D01*
X52187304Y58278322D01*
X52129289Y58230711D01*
X52081678Y58172696D01*
X52046299Y58106508D01*
X52024513Y58034689D01*
X52017157Y57960000D01*
X51889000Y57960000D01*
X51889000Y59500000D01*
X52017157Y59500000D01*
X52024513Y59425311D01*
X52046299Y59353492D01*
X52081678Y59287304D01*
X52129289Y59229289D01*
X52187304Y59181678D01*
X52253492Y59146299D01*
X52325311Y59124513D01*
X52400000Y59117157D01*
X53752750Y59119000D01*
X53848000Y59214250D01*
X53848000Y59873000D01*
X52114250Y59873000D01*
X52019000Y59777750D01*
X52017157Y59500000D01*
X51889000Y59500000D01*
X51889000Y60500000D01*
X52017157Y60500000D01*
X52019000Y60222250D01*
X52114250Y60127000D01*
X53848000Y60127000D01*
X53848000Y60785750D01*
X53752750Y60881000D01*
X52400000Y60882843D01*
X52325311Y60875487D01*
X52253492Y60853701D01*
X52187304Y60818322D01*
X52129289Y60770711D01*
X52081678Y60712696D01*
X52046299Y60646508D01*
X52024513Y60574689D01*
X52017157Y60500000D01*
X51889000Y60500000D01*
X51889000Y61456341D01*
X51893300Y61500001D01*
X51889000Y61543661D01*
X51889000Y61543667D01*
X51877822Y61657157D01*
X51876136Y61674276D01*
X51839266Y61795820D01*
X51825303Y61841851D01*
X51787091Y61913341D01*
X51789574Y62040000D01*
X52017157Y62040000D01*
X52024513Y61965311D01*
X52046299Y61893492D01*
X52081678Y61827304D01*
X52129289Y61769289D01*
X52187304Y61721678D01*
X52253492Y61686299D01*
X52325311Y61664513D01*
X52400000Y61657157D01*
X53752750Y61659000D01*
X53848000Y61754250D01*
X53848000Y62413000D01*
X52114250Y62413000D01*
X52019000Y62317750D01*
X52017157Y62040000D01*
X51789574Y62040000D01*
X51809181Y63040000D01*
X52017157Y63040000D01*
X52019000Y62762250D01*
X52114250Y62667000D01*
X53848000Y62667000D01*
X53848000Y63325750D01*
X53752750Y63421000D01*
X52400000Y63422843D01*
X52325311Y63415487D01*
X52253492Y63393701D01*
X52187304Y63358322D01*
X52129289Y63310711D01*
X52081678Y63252696D01*
X52046299Y63186508D01*
X52024513Y63114689D01*
X52017157Y63040000D01*
X51809181Y63040000D01*
X51839377Y64580000D01*
X52017157Y64580000D01*
X52024513Y64505311D01*
X52046299Y64433492D01*
X52081678Y64367304D01*
X52129289Y64309289D01*
X52187304Y64261678D01*
X52253492Y64226299D01*
X52325311Y64204513D01*
X52400000Y64197157D01*
X53752750Y64199000D01*
X53848000Y64294250D01*
X53848000Y64953000D01*
X52114250Y64953000D01*
X52019000Y64857750D01*
X52017157Y64580000D01*
X51839377Y64580000D01*
X51858985Y65580000D01*
X52017157Y65580000D01*
X52019000Y65302250D01*
X52114250Y65207000D01*
X53848000Y65207000D01*
X53848000Y65865750D01*
X53752750Y65961000D01*
X52400000Y65962843D01*
X52325311Y65955487D01*
X52253492Y65933701D01*
X52187304Y65898322D01*
X52129289Y65850711D01*
X52081678Y65792696D01*
X52046299Y65726508D01*
X52024513Y65654689D01*
X52017157Y65580000D01*
X51858985Y65580000D01*
X51874535Y66373000D01*
X55865000Y66373000D01*
X55865000Y65796744D01*
%TA.AperFunction,Conductor*%
D38*
G36*
X55865000Y65796744D02*
G01*
X55820711Y65850711D01*
X55762696Y65898322D01*
X55696508Y65933701D01*
X55624689Y65955487D01*
X55550000Y65962843D01*
X54197250Y65961000D01*
X54102000Y65865750D01*
X54102000Y65207000D01*
X54122000Y65207000D01*
X54122000Y64953000D01*
X54102000Y64953000D01*
X54102000Y64294250D01*
X54197250Y64199000D01*
X55550000Y64197157D01*
X55624689Y64204513D01*
X55696508Y64226299D01*
X55762696Y64261678D01*
X55820711Y64309289D01*
X55865000Y64363256D01*
X55865000Y63256744D01*
X55820711Y63310711D01*
X55762696Y63358322D01*
X55696508Y63393701D01*
X55624689Y63415487D01*
X55550000Y63422843D01*
X54197250Y63421000D01*
X54102000Y63325750D01*
X54102000Y62667000D01*
X54122000Y62667000D01*
X54122000Y62413000D01*
X54102000Y62413000D01*
X54102000Y61754250D01*
X54197250Y61659000D01*
X55550000Y61657157D01*
X55624689Y61664513D01*
X55696508Y61686299D01*
X55762696Y61721678D01*
X55820711Y61769289D01*
X55865000Y61823256D01*
X55865000Y60716744D01*
X55820711Y60770711D01*
X55762696Y60818322D01*
X55696508Y60853701D01*
X55624689Y60875487D01*
X55550000Y60882843D01*
X54197250Y60881000D01*
X54102000Y60785750D01*
X54102000Y60127000D01*
X54122000Y60127000D01*
X54122000Y59873000D01*
X54102000Y59873000D01*
X54102000Y59214250D01*
X54197250Y59119000D01*
X55550000Y59117157D01*
X55624689Y59124513D01*
X55696508Y59146299D01*
X55762696Y59181678D01*
X55820711Y59229289D01*
X55865000Y59283256D01*
X55865000Y58176744D01*
X55820711Y58230711D01*
X55762696Y58278322D01*
X55696508Y58313701D01*
X55624689Y58335487D01*
X55550000Y58342843D01*
X54197250Y58341000D01*
X54102000Y58245750D01*
X54102000Y57587000D01*
X54122000Y57587000D01*
X54122000Y57333000D01*
X54102000Y57333000D01*
X54102000Y56674250D01*
X54197250Y56579000D01*
X55550000Y56577157D01*
X55624689Y56584513D01*
X55696508Y56606299D01*
X55762696Y56641678D01*
X55820711Y56689289D01*
X55865593Y56743979D01*
X55877201Y56626118D01*
X55913336Y56506996D01*
X55972017Y56397213D01*
X56050987Y56300987D01*
X56147213Y56222017D01*
X56256996Y56163336D01*
X56373000Y56128147D01*
X56373000Y53889000D01*
X52118236Y53889000D01*
X51889000Y54118235D01*
X51889000Y54420000D01*
X52017157Y54420000D01*
X52024513Y54345311D01*
X52046299Y54273492D01*
X52081678Y54207304D01*
X52129289Y54149289D01*
X52187304Y54101678D01*
X52253492Y54066299D01*
X52325311Y54044513D01*
X52400000Y54037157D01*
X53752750Y54039000D01*
X53848000Y54134250D01*
X53848000Y54793000D01*
X54102000Y54793000D01*
X54102000Y54134250D01*
X54197250Y54039000D01*
X55550000Y54037157D01*
X55624689Y54044513D01*
X55696508Y54066299D01*
X55762696Y54101678D01*
X55820711Y54149289D01*
X55868322Y54207304D01*
X55903701Y54273492D01*
X55925487Y54345311D01*
X55932843Y54420000D01*
X55931000Y54697750D01*
X55835750Y54793000D01*
X54102000Y54793000D01*
X53848000Y54793000D01*
X52114250Y54793000D01*
X52019000Y54697750D01*
X52017157Y54420000D01*
X51889000Y54420000D01*
X51889000Y55420000D01*
X52017157Y55420000D01*
X52019000Y55142250D01*
X52114250Y55047000D01*
X53848000Y55047000D01*
X53848000Y55705750D01*
X54102000Y55705750D01*
X54102000Y55047000D01*
X55835750Y55047000D01*
X55931000Y55142250D01*
X55932843Y55420000D01*
X55925487Y55494689D01*
X55903701Y55566508D01*
X55868322Y55632696D01*
X55820711Y55690711D01*
X55762696Y55738322D01*
X55696508Y55773701D01*
X55624689Y55795487D01*
X55550000Y55802843D01*
X54197250Y55801000D01*
X54102000Y55705750D01*
X53848000Y55705750D01*
X53752750Y55801000D01*
X52400000Y55802843D01*
X52325311Y55795487D01*
X52253492Y55773701D01*
X52187304Y55738322D01*
X52129289Y55690711D01*
X52081678Y55632696D01*
X52046299Y55566508D01*
X52024513Y55494689D01*
X52017157Y55420000D01*
X51889000Y55420000D01*
X51889000Y56960000D01*
X52017157Y56960000D01*
X52024513Y56885311D01*
X52046299Y56813492D01*
X52081678Y56747304D01*
X52129289Y56689289D01*
X52187304Y56641678D01*
X52253492Y56606299D01*
X52325311Y56584513D01*
X52400000Y56577157D01*
X53752750Y56579000D01*
X53848000Y56674250D01*
X53848000Y57333000D01*
X52114250Y57333000D01*
X52019000Y57237750D01*
X52017157Y56960000D01*
X51889000Y56960000D01*
X51889000Y57960000D01*
X52017157Y57960000D01*
X52019000Y57682250D01*
X52114250Y57587000D01*
X53848000Y57587000D01*
X53848000Y58245750D01*
X53752750Y58341000D01*
X52400000Y58342843D01*
X52325311Y58335487D01*
X52253492Y58313701D01*
X52187304Y58278322D01*
X52129289Y58230711D01*
X52081678Y58172696D01*
X52046299Y58106508D01*
X52024513Y58034689D01*
X52017157Y57960000D01*
X51889000Y57960000D01*
X51889000Y59500000D01*
X52017157Y59500000D01*
X52024513Y59425311D01*
X52046299Y59353492D01*
X52081678Y59287304D01*
X52129289Y59229289D01*
X52187304Y59181678D01*
X52253492Y59146299D01*
X52325311Y59124513D01*
X52400000Y59117157D01*
X53752750Y59119000D01*
X53848000Y59214250D01*
X53848000Y59873000D01*
X52114250Y59873000D01*
X52019000Y59777750D01*
X52017157Y59500000D01*
X51889000Y59500000D01*
X51889000Y60500000D01*
X52017157Y60500000D01*
X52019000Y60222250D01*
X52114250Y60127000D01*
X53848000Y60127000D01*
X53848000Y60785750D01*
X53752750Y60881000D01*
X52400000Y60882843D01*
X52325311Y60875487D01*
X52253492Y60853701D01*
X52187304Y60818322D01*
X52129289Y60770711D01*
X52081678Y60712696D01*
X52046299Y60646508D01*
X52024513Y60574689D01*
X52017157Y60500000D01*
X51889000Y60500000D01*
X51889000Y61456341D01*
X51893300Y61500001D01*
X51889000Y61543661D01*
X51889000Y61543667D01*
X51877822Y61657157D01*
X51876136Y61674276D01*
X51839266Y61795820D01*
X51825303Y61841851D01*
X51787091Y61913341D01*
X51789574Y62040000D01*
X52017157Y62040000D01*
X52024513Y61965311D01*
X52046299Y61893492D01*
X52081678Y61827304D01*
X52129289Y61769289D01*
X52187304Y61721678D01*
X52253492Y61686299D01*
X52325311Y61664513D01*
X52400000Y61657157D01*
X53752750Y61659000D01*
X53848000Y61754250D01*
X53848000Y62413000D01*
X52114250Y62413000D01*
X52019000Y62317750D01*
X52017157Y62040000D01*
X51789574Y62040000D01*
X51809181Y63040000D01*
X52017157Y63040000D01*
X52019000Y62762250D01*
X52114250Y62667000D01*
X53848000Y62667000D01*
X53848000Y63325750D01*
X53752750Y63421000D01*
X52400000Y63422843D01*
X52325311Y63415487D01*
X52253492Y63393701D01*
X52187304Y63358322D01*
X52129289Y63310711D01*
X52081678Y63252696D01*
X52046299Y63186508D01*
X52024513Y63114689D01*
X52017157Y63040000D01*
X51809181Y63040000D01*
X51839377Y64580000D01*
X52017157Y64580000D01*
X52024513Y64505311D01*
X52046299Y64433492D01*
X52081678Y64367304D01*
X52129289Y64309289D01*
X52187304Y64261678D01*
X52253492Y64226299D01*
X52325311Y64204513D01*
X52400000Y64197157D01*
X53752750Y64199000D01*
X53848000Y64294250D01*
X53848000Y64953000D01*
X52114250Y64953000D01*
X52019000Y64857750D01*
X52017157Y64580000D01*
X51839377Y64580000D01*
X51858985Y65580000D01*
X52017157Y65580000D01*
X52019000Y65302250D01*
X52114250Y65207000D01*
X53848000Y65207000D01*
X53848000Y65865750D01*
X53752750Y65961000D01*
X52400000Y65962843D01*
X52325311Y65955487D01*
X52253492Y65933701D01*
X52187304Y65898322D01*
X52129289Y65850711D01*
X52081678Y65792696D01*
X52046299Y65726508D01*
X52024513Y65654689D01*
X52017157Y65580000D01*
X51858985Y65580000D01*
X51874535Y66373000D01*
X55865000Y66373000D01*
X55865000Y65796744D01*
G37*
%TD.AperFunction*%
%TD*%
D33*
%TO.N,GNDPWR*%
X30268138Y69755682D02*
X30200131Y69699870D01*
X30077041Y69549884D01*
X29985577Y69378767D01*
X29929254Y69193094D01*
X29915001Y69048380D01*
X29915000Y67751621D01*
X29929253Y67606907D01*
X29985576Y67421234D01*
X30011000Y67373668D01*
X30011001Y66033671D01*
X30006700Y65990001D01*
X30023864Y65815727D01*
X30026929Y65805623D01*
X30026929Y64910000D01*
X30039189Y64785518D01*
X30075499Y64665820D01*
X30134464Y64555506D01*
X30193877Y64483111D01*
X30174777Y63127000D01*
X29228801Y63127000D01*
X29246756Y64401837D01*
X29316184Y64458815D01*
X29395536Y64555506D01*
X29454501Y64665820D01*
X29490811Y64785518D01*
X29503071Y64910000D01*
X29503071Y66070000D01*
X29490811Y66194482D01*
X29454501Y66314180D01*
X29395536Y66424494D01*
X29316184Y66521185D01*
X29277058Y66553294D01*
X29325223Y69973000D01*
X30271199Y69973000D01*
X30268138Y69755682D01*
%TA.AperFunction,Conductor*%
D38*
G36*
X30268138Y69755682D02*
G01*
X30200131Y69699870D01*
X30077041Y69549884D01*
X29985577Y69378767D01*
X29929254Y69193094D01*
X29915001Y69048380D01*
X29915000Y67751621D01*
X29929253Y67606907D01*
X29985576Y67421234D01*
X30011000Y67373668D01*
X30011001Y66033671D01*
X30006700Y65990001D01*
X30023864Y65815727D01*
X30026929Y65805623D01*
X30026929Y64910000D01*
X30039189Y64785518D01*
X30075499Y64665820D01*
X30134464Y64555506D01*
X30193877Y64483111D01*
X30174777Y63127000D01*
X29228801Y63127000D01*
X29246756Y64401837D01*
X29316184Y64458815D01*
X29395536Y64555506D01*
X29454501Y64665820D01*
X29490811Y64785518D01*
X29503071Y64910000D01*
X29503071Y66070000D01*
X29490811Y66194482D01*
X29454501Y66314180D01*
X29395536Y66424494D01*
X29316184Y66521185D01*
X29277058Y66553294D01*
X29325223Y69973000D01*
X30271199Y69973000D01*
X30268138Y69755682D01*
G37*
%TD.AperFunction*%
%TD*%
D33*
%TO.N,+VDC*%
X73623000Y63377000D02*
X66127000Y63377000D01*
X66127000Y63471884D01*
X66175000Y63467157D01*
X66517750Y63469000D01*
X66613000Y63564250D01*
X66613000Y64623000D01*
X66867000Y64623000D01*
X66867000Y63564250D01*
X66962250Y63469000D01*
X67305000Y63467157D01*
X67379689Y63474513D01*
X67451508Y63496299D01*
X67517696Y63531678D01*
X67575711Y63579289D01*
X67623322Y63637304D01*
X67658701Y63703492D01*
X67680487Y63775311D01*
X67687843Y63850000D01*
X67686000Y64527750D01*
X67590750Y64623000D01*
X66867000Y64623000D01*
X66613000Y64623000D01*
X66593000Y64623000D01*
X66593000Y64877000D01*
X66613000Y64877000D01*
X66613000Y65935750D01*
X66867000Y65935750D01*
X66867000Y64877000D01*
X67590750Y64877000D01*
X67686000Y64972250D01*
X67687843Y65650000D01*
X67680487Y65724689D01*
X67658701Y65796508D01*
X67623322Y65862696D01*
X67575711Y65920711D01*
X67517696Y65968322D01*
X67451508Y66003701D01*
X67379689Y66025487D01*
X67305000Y66032843D01*
X66962250Y66031000D01*
X66867000Y65935750D01*
X66613000Y65935750D01*
X66517750Y66031000D01*
X66175000Y66032843D01*
X66127000Y66028116D01*
X66127000Y66373000D01*
X73623000Y66373000D01*
X73623000Y63377000D01*
%TA.AperFunction,Conductor*%
D38*
G36*
X73623000Y63377000D02*
G01*
X66127000Y63377000D01*
X66127000Y63471884D01*
X66175000Y63467157D01*
X66517750Y63469000D01*
X66613000Y63564250D01*
X66613000Y64623000D01*
X66867000Y64623000D01*
X66867000Y63564250D01*
X66962250Y63469000D01*
X67305000Y63467157D01*
X67379689Y63474513D01*
X67451508Y63496299D01*
X67517696Y63531678D01*
X67575711Y63579289D01*
X67623322Y63637304D01*
X67658701Y63703492D01*
X67680487Y63775311D01*
X67687843Y63850000D01*
X67686000Y64527750D01*
X67590750Y64623000D01*
X66867000Y64623000D01*
X66613000Y64623000D01*
X66593000Y64623000D01*
X66593000Y64877000D01*
X66613000Y64877000D01*
X66613000Y65935750D01*
X66867000Y65935750D01*
X66867000Y64877000D01*
X67590750Y64877000D01*
X67686000Y64972250D01*
X67687843Y65650000D01*
X67680487Y65724689D01*
X67658701Y65796508D01*
X67623322Y65862696D01*
X67575711Y65920711D01*
X67517696Y65968322D01*
X67451508Y66003701D01*
X67379689Y66025487D01*
X67305000Y66032843D01*
X66962250Y66031000D01*
X66867000Y65935750D01*
X66613000Y65935750D01*
X66517750Y66031000D01*
X66175000Y66032843D01*
X66127000Y66028116D01*
X66127000Y66373000D01*
X73623000Y66373000D01*
X73623000Y63377000D01*
G37*
%TD.AperFunction*%
%TD*%
D39*
X58250000Y24500000D03*
D40*
X20250000Y67250000D03*
X14500000Y61500000D03*
X2000000Y10000000D03*
X1250000Y10000000D03*
X5750000Y55000000D03*
X6500000Y55000000D03*
X38750000Y55500000D03*
X40250000Y60000000D03*
X48500000Y53250000D03*
X17520000Y52730000D03*
X13250000Y7750000D03*
X13250000Y15750000D03*
X7750000Y23500000D03*
X7750000Y29750000D03*
X7750000Y36000000D03*
X7750000Y42000000D03*
X7750000Y47750000D03*
X37646080Y59901647D03*
D39*
X48250000Y24250000D03*
X51750000Y24250000D03*
D40*
X11750000Y63000000D03*
X11750000Y58000000D03*
X11750000Y57250000D03*
X41500000Y23250000D03*
X32250000Y23250000D03*
X21500000Y21500000D03*
X21500000Y19250000D03*
X10750000Y69750000D03*
X10750000Y66750000D03*
X17500000Y57750000D03*
X20250000Y57750000D03*
X40490000Y55990000D03*
X47250000Y57750000D03*
X32750000Y31000000D03*
X32750000Y33750000D03*
X30470392Y36930977D03*
X40250000Y52750000D03*
X31000000Y51000000D03*
X50750000Y26750000D03*
X16500000Y62500000D03*
X16500000Y61930411D03*
D39*
X64500000Y47000000D03*
X66500000Y47000000D03*
X63500000Y48000000D03*
X65500000Y48000000D03*
X65500000Y47000000D03*
X63500000Y47000000D03*
X67250000Y49000000D03*
X67250000Y50000000D03*
X64500000Y48000000D03*
X66250000Y49000000D03*
X66250000Y50000000D03*
X67500000Y48000000D03*
X68500000Y48000000D03*
X66500000Y48000000D03*
X65500000Y37250000D03*
X63500000Y37250000D03*
X67500000Y39250000D03*
X64500000Y37250000D03*
X68500000Y39250000D03*
X66500000Y37250000D03*
X63500000Y38250000D03*
X64500000Y38250000D03*
X65500000Y38250000D03*
X66500000Y39250000D03*
X66500000Y40250000D03*
X68500000Y38250000D03*
X66500000Y38250000D03*
X67500000Y38250000D03*
X67500000Y20500000D03*
X67500000Y21500000D03*
X68500000Y20500000D03*
X63500000Y18500000D03*
X64500000Y18500000D03*
X65500000Y18500000D03*
X66500000Y18500000D03*
D40*
X87750000Y7500000D03*
D39*
X63500000Y19500000D03*
X64500000Y19500000D03*
X65500000Y19500000D03*
X66500000Y19500000D03*
X66500000Y20500000D03*
X66500000Y21500000D03*
X67500000Y19500000D03*
X68500000Y19500000D03*
X63750000Y8750000D03*
X64750000Y8750000D03*
X65750000Y8750000D03*
X66750000Y8750000D03*
X67750000Y8500000D03*
X68750000Y8500000D03*
X66750000Y9750000D03*
X66750000Y10750000D03*
D40*
X16000000Y44750000D03*
X16000000Y28750000D03*
X28500000Y26500000D03*
X23750000Y48500000D03*
X28000000Y52500000D03*
X30000000Y52500000D03*
X16000000Y26500000D03*
X16250000Y49750000D03*
X16000000Y20500000D03*
X17250000Y39749998D03*
X20000000Y37750000D03*
X24250000Y13999984D03*
X26500000Y25750000D03*
X24250000Y11500000D03*
X33250000Y27250000D03*
X21739589Y4750000D03*
X73500000Y3000000D03*
X73500000Y2250010D03*
X31250000Y32750002D03*
X29094390Y40500000D03*
X24749996Y1250000D03*
X27500000Y3750000D03*
X27500000Y1750000D03*
X27500000Y4500000D03*
X28250006Y1750000D03*
X52000000Y63750000D03*
X55500000Y63750000D03*
X52000000Y66250000D03*
X54000000Y66250000D03*
X54000000Y63750000D03*
X55750000Y66250000D03*
X29600000Y67200000D03*
X29800000Y65900000D03*
X29800000Y64700000D03*
X29700000Y63655610D03*
X82000000Y7500000D03*
X28250000Y23750000D03*
X31325000Y23825000D03*
X31325000Y23175000D03*
X27700007Y23450001D03*
X33250000Y57250000D03*
X33250000Y56500010D03*
X31100000Y57650000D03*
X31100000Y57000000D03*
X37750000Y31500000D03*
X37010003Y29409997D03*
X34250000Y20500000D03*
X29342403Y20405610D03*
X30563554Y40835011D03*
X32030575Y57900612D03*
X33500000Y36750000D03*
X36250000Y26500000D03*
D39*
X53625000Y26375000D03*
D40*
X22750000Y57750000D03*
D39*
X37750000Y61500000D03*
X73250000Y66000000D03*
X73250000Y64875000D03*
X73250000Y63750000D03*
D40*
X12730899Y35230899D03*
X19500000Y35250000D03*
X15750000Y64500000D03*
X20250000Y64500000D03*
X31250000Y2000000D03*
X70000000Y2000000D03*
X70000000Y36750000D03*
X57000000Y33250000D03*
X68500000Y51000000D03*
X36243758Y52061211D03*
D39*
X42250000Y61750000D03*
X43500000Y61750000D03*
X45000000Y61750000D03*
X45000000Y60500000D03*
X45000000Y59250000D03*
X43500000Y59250000D03*
X42250000Y59250000D03*
X42250000Y60500000D03*
X43500000Y60500000D03*
D40*
X45000000Y30000000D03*
X46000000Y30000000D03*
X45000000Y29250000D03*
X46000000Y29250000D03*
X45000000Y28500000D03*
X46000000Y28500000D03*
X45000000Y27750000D03*
X46000000Y27750000D03*
X84000000Y39000000D03*
X85000000Y39000000D03*
X86000000Y39000000D03*
X87000000Y39000000D03*
X88000000Y39000000D03*
X88000000Y38000000D03*
X87000000Y38000000D03*
X86000000Y38000000D03*
X85000000Y38000000D03*
X84000000Y38000000D03*
X84000000Y37000000D03*
X85000000Y37000000D03*
X86000000Y37000000D03*
X87000000Y37000000D03*
X88000000Y37000000D03*
X83750000Y50500000D03*
X83750000Y49500000D03*
X83750000Y48500000D03*
X83750000Y47500000D03*
X83750000Y46500000D03*
X88250000Y46500000D03*
X88250000Y47500000D03*
X88250000Y48500000D03*
X88250000Y49500000D03*
X88250000Y50500000D03*
X2000000Y62500000D03*
X5750000Y62500000D03*
X27030890Y59373906D03*
X2000000Y65000000D03*
X5750000Y65000000D03*
X25499998Y60999998D03*
X1500000Y12250000D03*
X7000000Y12250000D03*
X2311212Y15006242D03*
X1094390Y17405610D03*
X3500000Y18250000D03*
X1695150Y22945150D03*
X60000000Y8750000D03*
X54500000Y7750000D03*
X58900000Y9750000D03*
X55600000Y7750000D03*
X60000000Y6750000D03*
X58900000Y6750000D03*
X57800000Y9750000D03*
X60000000Y5750000D03*
X56700000Y10750000D03*
X60000000Y10750000D03*
X55600000Y8750000D03*
X55600000Y5750000D03*
X58900000Y5750000D03*
X56700000Y6750000D03*
X56700000Y7750000D03*
X54500000Y10750000D03*
X58900000Y7750000D03*
X57800000Y10750000D03*
X56700000Y9750000D03*
X54500000Y5750000D03*
X57800000Y8750000D03*
X60000000Y7750000D03*
X54500000Y6750000D03*
X57800000Y6750000D03*
X60000000Y9750000D03*
X56700000Y8750000D03*
X55600000Y6750000D03*
X54500000Y9750000D03*
X57800000Y7750000D03*
X54500000Y8750000D03*
X55600000Y9750000D03*
X55600000Y10750000D03*
X57800000Y5750000D03*
X56700000Y5750000D03*
X58900000Y8750000D03*
X58900000Y10750000D03*
X58900000Y48750000D03*
X60000000Y47750000D03*
X56700000Y49750000D03*
X56700000Y45750000D03*
X58900000Y47750000D03*
X58900000Y45750000D03*
X54500000Y46750000D03*
X57800000Y46750000D03*
X56700000Y46750000D03*
X60000000Y44750000D03*
X57800000Y47750000D03*
X56700000Y47750000D03*
X57800000Y48750000D03*
X54500000Y49750000D03*
X56700000Y48750000D03*
X58900000Y46750000D03*
X55600000Y45750000D03*
X57800000Y49750000D03*
X54500000Y44750000D03*
X60000000Y49750000D03*
X60000000Y46750000D03*
X54500000Y45750000D03*
X60000000Y45750000D03*
X57800000Y45750000D03*
X55600000Y46750000D03*
X55600000Y47750000D03*
X60000000Y48750000D03*
X54500000Y48750000D03*
X54500000Y47750000D03*
X55600000Y48750000D03*
X55600000Y49750000D03*
X57800000Y44750000D03*
X56700000Y44750000D03*
X55600000Y44750000D03*
X58900000Y49750000D03*
X58900000Y44750000D03*
X58900000Y39000000D03*
X60000000Y38000000D03*
X56700000Y40000000D03*
X56700000Y36000000D03*
X58900000Y38000000D03*
X58900000Y36000000D03*
X54500000Y37000000D03*
X57800000Y37000000D03*
X56700000Y37000000D03*
X60000000Y35000000D03*
X57800000Y38000000D03*
X56700000Y38000000D03*
X57800000Y39000000D03*
X54500000Y40000000D03*
X56700000Y39000000D03*
X58900000Y37000000D03*
X55600000Y36000000D03*
X57800000Y40000000D03*
X54500000Y35000000D03*
X60000000Y40000000D03*
X60000000Y37000000D03*
X54500000Y36000000D03*
X60000000Y36000000D03*
X57800000Y36000000D03*
X55600000Y37000000D03*
X55600000Y38000000D03*
X60000000Y39000000D03*
X54500000Y39000000D03*
X54500000Y38000000D03*
X55600000Y39000000D03*
X55600000Y40000000D03*
X57800000Y35000000D03*
X56700000Y35000000D03*
X55600000Y35000000D03*
X58900000Y40000000D03*
X58900000Y35000000D03*
X34006998Y35000000D03*
X37500000Y35000000D03*
X60000000Y19500000D03*
X54500000Y18500000D03*
X58900000Y20500000D03*
X55600000Y18500000D03*
X60000000Y17500000D03*
X58900000Y17500000D03*
X57800000Y20500000D03*
X60000000Y16500000D03*
X56700000Y21500000D03*
X60000000Y21500000D03*
X55600000Y19500000D03*
X55600000Y16500000D03*
X58900000Y16500000D03*
X56700000Y17500000D03*
X56700000Y18500000D03*
X54500000Y21500000D03*
X58900000Y18500000D03*
X57800000Y21500000D03*
X56700000Y20500000D03*
X54500000Y16500000D03*
X57800000Y19500000D03*
X60000000Y18500000D03*
X54500000Y17500000D03*
X57800000Y17500000D03*
X60000000Y20500000D03*
X56700000Y19500000D03*
X55600000Y17500000D03*
X54500000Y20500000D03*
X57800000Y18500000D03*
X54500000Y19500000D03*
X55600000Y20500000D03*
X55600000Y21500000D03*
X57800000Y16500000D03*
X56700000Y16500000D03*
X58900000Y19500000D03*
X58900000Y21500000D03*
X47650000Y20500000D03*
X48750000Y19500000D03*
X45450000Y21500000D03*
X45450000Y17500000D03*
X47650000Y19500000D03*
X47650000Y17500000D03*
X43250000Y18500000D03*
X46550000Y18500000D03*
X45450000Y18500000D03*
X48750000Y16500000D03*
X46550000Y19500000D03*
X45450000Y19500000D03*
X46550000Y20500000D03*
X43250000Y21500000D03*
X45450000Y20500000D03*
X47650000Y18500000D03*
X44350000Y17500000D03*
X46550000Y21500000D03*
X43250000Y16500000D03*
X48750000Y21500000D03*
X48750000Y18500000D03*
X43250000Y17500000D03*
X48750000Y17500000D03*
X46550000Y17500000D03*
X44350000Y18500000D03*
X44350000Y19500000D03*
X48750000Y20500000D03*
X43250000Y20500000D03*
X43250000Y19500000D03*
X44350000Y20500000D03*
X44350000Y21500000D03*
X46550000Y16500000D03*
X45450000Y16500000D03*
X44350000Y16500000D03*
X47650000Y21500000D03*
X47650000Y16500000D03*
X48750000Y8750000D03*
X43250000Y7750000D03*
X47650000Y9750000D03*
X44350000Y7750000D03*
X48750000Y6750000D03*
X47650000Y6750000D03*
X46550000Y9750000D03*
X48750000Y5750000D03*
X45450000Y10750000D03*
X48750000Y10750000D03*
X44350000Y8750000D03*
X44350000Y5750000D03*
X47650000Y5750000D03*
X45450000Y6750000D03*
X45450000Y7750000D03*
X43250000Y10750000D03*
X47650000Y7750000D03*
X46550000Y10750000D03*
X45450000Y9750000D03*
X43250000Y5750000D03*
X46550000Y8750000D03*
X48750000Y7750000D03*
X43250000Y6750000D03*
X46550000Y6750000D03*
X48750000Y9750000D03*
X45450000Y8750000D03*
X44350000Y6750000D03*
X43250000Y9750000D03*
X46550000Y7750000D03*
X43250000Y8750000D03*
X44350000Y9750000D03*
X44350000Y10750000D03*
X46550000Y5750000D03*
X45450000Y5750000D03*
X47650000Y8750000D03*
X47650000Y10750000D03*
X47650000Y39000000D03*
X48750000Y38000000D03*
X45450000Y40000000D03*
X45450000Y36000000D03*
X47650000Y38000000D03*
X47650000Y36000000D03*
X43250000Y37000000D03*
X46550000Y37000000D03*
X45450000Y37000000D03*
X48750000Y35000000D03*
X46550000Y38000000D03*
X45450000Y38000000D03*
X46550000Y39000000D03*
X43250000Y40000000D03*
X45450000Y39000000D03*
X47650000Y37000000D03*
X44350000Y36000000D03*
X46550000Y40000000D03*
X43250000Y35000000D03*
X48750000Y40000000D03*
X48750000Y37000000D03*
X43250000Y36000000D03*
X48750000Y36000000D03*
X46550000Y36000000D03*
X44350000Y37000000D03*
X44350000Y38000000D03*
X48750000Y39000000D03*
X43250000Y39000000D03*
X43250000Y38000000D03*
X44350000Y39000000D03*
X44350000Y40000000D03*
X46550000Y35000000D03*
X45450000Y35000000D03*
X44350000Y35000000D03*
X47650000Y40000000D03*
X47650000Y35000000D03*
X43250000Y49750000D03*
X46550000Y49750000D03*
X45450000Y49750000D03*
X44350000Y49750000D03*
X47650000Y49750000D03*
X48750000Y48750000D03*
X43250000Y48750000D03*
X46550000Y48750000D03*
X45450000Y48750000D03*
X44350000Y48750000D03*
X47650000Y48750000D03*
X48750000Y47750000D03*
X43250000Y47750000D03*
X46550000Y47750000D03*
X45450000Y47750000D03*
X44350000Y47750000D03*
X47650000Y47750000D03*
X48750000Y46750000D03*
X43250000Y46750000D03*
X46550000Y46750000D03*
X45450000Y46750000D03*
X44350000Y46750000D03*
X47650000Y46750000D03*
X48750000Y45750000D03*
X43250000Y45750000D03*
X46550000Y45750000D03*
X45450000Y45750000D03*
X44350000Y45750000D03*
X47650000Y45750000D03*
X47650000Y44750000D03*
X46550000Y44750000D03*
X45450000Y44750000D03*
X44350000Y44750000D03*
X43250000Y44750000D03*
X48750000Y44750000D03*
X48750000Y49750000D03*
X19750000Y45750004D03*
X23225835Y38218059D03*
X19919186Y38619790D03*
X17250000Y46869790D03*
X12500000Y14500000D03*
X12500000Y13000000D03*
X12500000Y11000000D03*
X72500000Y3000000D03*
X27250000Y34250000D03*
X17250000Y42000000D03*
X19630210Y42035541D03*
X19736399Y36188789D03*
X17500000Y36000000D03*
X22755610Y36750000D03*
X19250000Y50250000D03*
X24750000Y50250000D03*
X16035500Y34464500D03*
X24750000Y44000000D03*
X12011789Y34299471D03*
X12011789Y44011791D03*
X31250000Y7000000D03*
X31250000Y11500000D03*
X31264360Y18247382D03*
X28187311Y37936450D03*
X29879533Y37935165D03*
X20750000Y6999986D03*
X21000000Y14750000D03*
X18750000Y14750000D03*
X20320626Y23846035D03*
X18750000Y21500000D03*
X24311211Y24506242D03*
X23000000Y24750006D03*
X26070000Y30750000D03*
X23500000Y30750000D03*
X21750000Y1750000D03*
X31300000Y28450000D03*
X23250000Y26000000D03*
X25500000Y29369790D03*
X25350976Y34191169D03*
X24576581Y35240724D03*
X23500000Y23000000D03*
X30000000Y55000000D03*
X18000000Y61498602D03*
D39*
X15750000Y60750000D03*
D40*
X16105849Y59679434D03*
X24411727Y59438037D03*
X68250000Y4500000D03*
X71750000Y4500000D03*
X69250000Y16250000D03*
X70750000Y16250000D03*
X33047543Y50702457D03*
X36599997Y50700003D03*
X17250000Y32000000D03*
X11750000Y32000000D03*
X12011789Y47724333D03*
X23000000Y5500000D03*
X23655610Y3540800D03*
X27000000Y47500000D03*
X19249990Y30000000D03*
X31250000Y19750000D03*
X22935811Y19751124D03*
X22250000Y39250000D03*
X18500000Y39750000D03*
X27340000Y39660000D03*
X29554589Y31250000D03*
X31250000Y31671387D03*
X29043580Y39107412D03*
X26000000Y36500000D03*
X28500000Y34500002D03*
X23500000Y39000000D03*
X28171387Y39000000D03*
X20302529Y34060068D03*
X22094390Y34649996D03*
D39*
X23250000Y65000000D03*
X37750000Y63000000D03*
X78556810Y44187500D03*
X78556810Y41812500D03*
X76500000Y40625000D03*
X74443190Y41812500D03*
X74443190Y44187500D03*
X76500000Y45375000D03*
X76500000Y43000000D03*
X52056810Y72187500D03*
X52056810Y69812500D03*
X50000000Y68625000D03*
X47943190Y69812500D03*
X47943190Y72187500D03*
X50000000Y73375000D03*
X50000000Y71000000D03*
X97000000Y11120000D03*
X97000000Y16200000D03*
X97000000Y47920000D03*
X97000000Y53000000D03*
X6056810Y5187500D03*
X6056810Y2812500D03*
X4000000Y1625000D03*
X1943190Y2812500D03*
X1943190Y5187500D03*
X4000000Y6375000D03*
X4000000Y4000000D03*
X6056810Y72187500D03*
X6056810Y69812500D03*
X4000000Y68625000D03*
X1943190Y69812500D03*
X1943190Y72187500D03*
X4000000Y73375000D03*
X4000000Y71000000D03*
X81500000Y29000000D03*
X81500000Y24000000D03*
X81500000Y19000000D03*
X89000000Y29000000D03*
X89000000Y24000000D03*
X89000000Y19000000D03*
X81500000Y4000000D03*
X89000000Y4000000D03*
X97000000Y63920000D03*
X97000000Y69000000D03*
X97000000Y27040000D03*
X97000000Y32120000D03*
X97000000Y37200000D03*
X86000000Y48400000D03*
X86000000Y71000000D03*
M02*
