%TF.GenerationSoftware,KiCad,Pcbnew,(5.1.10)-1*%
%TF.CreationDate,2022-11-30T22:02:34+08:00*%
%TF.ProjectId,motor_control,6d6f746f-725f-4636-9f6e-74726f6c2e6b,rev?*%
%TF.SameCoordinates,Original*%
%TF.FileFunction,Soldermask,Bot*%
%TF.FilePolarity,Negative*%
%FSLAX46Y46*%
G04 Gerber Fmt 4.6, Leading zero omitted, Abs format (unit mm)*
G04 Created by KiCad (PCBNEW (5.1.10)-1) date 2022-11-30 22:02:34*
%MOMM*%
%LPD*%
G01*
G04 APERTURE LIST*
%ADD10C,0.100000*%
%ADD11C,0.800000*%
%ADD12C,6.000000*%
%ADD13C,1.000000*%
%ADD14O,3.600000X2.080000*%
%ADD15C,2.500000*%
%ADD16O,2.500000X4.000000*%
G04 APERTURE END LIST*
D10*
G36*
X60500000Y16000000D02*
G01*
X54000000Y16000000D01*
X54000000Y22000000D01*
X60500000Y22000000D01*
X60500000Y16000000D01*
G37*
X60500000Y16000000D02*
X54000000Y16000000D01*
X54000000Y22000000D01*
X60500000Y22000000D01*
X60500000Y16000000D01*
G36*
X60500000Y5500000D02*
G01*
X54000000Y5500000D01*
X54000000Y11500000D01*
X60500000Y11500000D01*
X60500000Y5500000D01*
G37*
X60500000Y5500000D02*
X54000000Y5500000D01*
X54000000Y11500000D01*
X60500000Y11500000D01*
X60500000Y5500000D01*
G36*
X49250000Y5500000D02*
G01*
X42750000Y5500000D01*
X42750000Y11500000D01*
X49250000Y11500000D01*
X49250000Y5500000D01*
G37*
X49250000Y5500000D02*
X42750000Y5500000D01*
X42750000Y11500000D01*
X49250000Y11500000D01*
X49250000Y5500000D01*
G36*
X49250000Y16000000D02*
G01*
X42750000Y16000000D01*
X42750000Y22000000D01*
X49250000Y22000000D01*
X49250000Y16000000D01*
G37*
X49250000Y16000000D02*
X42750000Y16000000D01*
X42750000Y22000000D01*
X49250000Y22000000D01*
X49250000Y16000000D01*
G36*
X60500000Y34500000D02*
G01*
X54000000Y34500000D01*
X54000000Y40500000D01*
X60500000Y40500000D01*
X60500000Y34500000D01*
G37*
X60500000Y34500000D02*
X54000000Y34500000D01*
X54000000Y40500000D01*
X60500000Y40500000D01*
X60500000Y34500000D01*
G36*
X60500000Y44250000D02*
G01*
X54000000Y44250000D01*
X54000000Y50250000D01*
X60500000Y50250000D01*
X60500000Y44250000D01*
G37*
X60500000Y44250000D02*
X54000000Y44250000D01*
X54000000Y50250000D01*
X60500000Y50250000D01*
X60500000Y44250000D01*
G36*
X49250000Y34500000D02*
G01*
X42750000Y34500000D01*
X42750000Y40500000D01*
X49250000Y40500000D01*
X49250000Y34500000D01*
G37*
X49250000Y34500000D02*
X42750000Y34500000D01*
X42750000Y40500000D01*
X49250000Y40500000D01*
X49250000Y34500000D01*
G36*
X49250000Y44250000D02*
G01*
X42750000Y44250000D01*
X42750000Y50250000D01*
X49250000Y50250000D01*
X49250000Y44250000D01*
G37*
X49250000Y44250000D02*
X42750000Y44250000D01*
X42750000Y50250000D01*
X49250000Y50250000D01*
X49250000Y44250000D01*
D11*
%TO.C,SC4*%
X78556810Y44187500D03*
X78556810Y41812500D03*
X76500000Y40625000D03*
X74443190Y41812500D03*
X74443190Y44187500D03*
X76500000Y45375000D03*
D12*
X76500000Y43000000D03*
%TD*%
D11*
%TO.C,SC3*%
X52056810Y72187500D03*
X52056810Y69812500D03*
X50000000Y68625000D03*
X47943190Y69812500D03*
X47943190Y72187500D03*
X50000000Y73375000D03*
D12*
X50000000Y71000000D03*
%TD*%
D13*
%TO.C,TP13*%
X15250000Y60250000D03*
%TD*%
%TO.C,TP12*%
X20250000Y66500000D03*
%TD*%
%TO.C,TP11*%
X2750000Y62500000D03*
%TD*%
%TO.C,TP10*%
X2750000Y65000000D03*
%TD*%
%TO.C,TP9*%
X35500000Y61500000D03*
%TD*%
%TO.C,TP8*%
X35500000Y25250000D03*
%TD*%
%TO.C,TP7*%
X24750000Y13250000D03*
%TD*%
%TO.C,TP6*%
X34000000Y26750000D03*
%TD*%
%TO.C,TP5*%
X29250000Y55000000D03*
%TD*%
%TO.C,TP4*%
X31250000Y28000000D03*
%TD*%
%TO.C,TP3*%
X24250000Y23000000D03*
%TD*%
%TO.C,TP2*%
X21000000Y1750000D03*
%TD*%
D14*
%TO.C,J6*%
X97000000Y11120000D03*
G36*
G01*
X95449600Y17240000D02*
X98550400Y17240000D01*
G75*
G02*
X98800000Y16990400I0J-249600D01*
G01*
X98800000Y15409600D01*
G75*
G02*
X98550400Y15160000I-249600J0D01*
G01*
X95449600Y15160000D01*
G75*
G02*
X95200000Y15409600I0J249600D01*
G01*
X95200000Y16990400D01*
G75*
G02*
X95449600Y17240000I249600J0D01*
G01*
G37*
%TD*%
%TO.C,J5*%
X97000000Y47920000D03*
G36*
G01*
X95449999Y54040000D02*
X98550001Y54040000D01*
G75*
G02*
X98800000Y53790001I0J-249999D01*
G01*
X98800000Y52209999D01*
G75*
G02*
X98550001Y51960000I-249999J0D01*
G01*
X95449999Y51960000D01*
G75*
G02*
X95200000Y52209999I0J249999D01*
G01*
X95200000Y53790001D01*
G75*
G02*
X95449999Y54040000I249999J0D01*
G01*
G37*
%TD*%
D11*
%TO.C,SC2*%
X6056810Y5187500D03*
X6056810Y2812500D03*
X4000000Y1625000D03*
X1943190Y2812500D03*
X1943190Y5187500D03*
X4000000Y6375000D03*
D12*
X4000000Y4000000D03*
%TD*%
D11*
%TO.C,SC1*%
X6056810Y72187500D03*
X6056810Y69812500D03*
X4000000Y68625000D03*
X1943190Y69812500D03*
X1943190Y72187500D03*
X4000000Y73375000D03*
D12*
X4000000Y71000000D03*
%TD*%
D15*
%TO.C,K1*%
X81500000Y29000000D03*
X81500000Y24000000D03*
X81500000Y19000000D03*
X89000000Y29000000D03*
X89000000Y24000000D03*
X89000000Y19000000D03*
X81500000Y4000000D03*
X89000000Y4000000D03*
%TD*%
D14*
%TO.C,J7*%
X97000000Y63920000D03*
G36*
G01*
X95449999Y70040000D02*
X98550001Y70040000D01*
G75*
G02*
X98800000Y69790001I0J-249999D01*
G01*
X98800000Y68209999D01*
G75*
G02*
X98550001Y67960000I-249999J0D01*
G01*
X95449999Y67960000D01*
G75*
G02*
X95200000Y68209999I0J249999D01*
G01*
X95200000Y69790001D01*
G75*
G02*
X95449999Y70040000I249999J0D01*
G01*
G37*
%TD*%
%TO.C,J4*%
X97000000Y27040000D03*
X97000000Y32120000D03*
G36*
G01*
X95449999Y38240000D02*
X98550001Y38240000D01*
G75*
G02*
X98800000Y37990001I0J-249999D01*
G01*
X98800000Y36409999D01*
G75*
G02*
X98550001Y36160000I-249999J0D01*
G01*
X95449999Y36160000D01*
G75*
G02*
X95200000Y36409999I0J249999D01*
G01*
X95200000Y37990001D01*
G75*
G02*
X95449999Y38240000I249999J0D01*
G01*
G37*
%TD*%
D16*
%TO.C,F1*%
X86000000Y48400000D03*
X86000000Y71000000D03*
%TD*%
%TO.C,C15*%
G36*
G01*
X71000000Y60500000D02*
X71000000Y58500000D01*
G75*
G02*
X70750000Y58250000I-250000J0D01*
G01*
X66850000Y58250000D01*
G75*
G02*
X66600000Y58500000I0J250000D01*
G01*
X66600000Y60500000D01*
G75*
G02*
X66850000Y60750000I250000J0D01*
G01*
X70750000Y60750000D01*
G75*
G02*
X71000000Y60500000I0J-250000D01*
G01*
G37*
G36*
G01*
X78400000Y60500000D02*
X78400000Y58500000D01*
G75*
G02*
X78150000Y58250000I-250000J0D01*
G01*
X74250000Y58250000D01*
G75*
G02*
X74000000Y58500000I0J250000D01*
G01*
X74000000Y60500000D01*
G75*
G02*
X74250000Y60750000I250000J0D01*
G01*
X78150000Y60750000D01*
G75*
G02*
X78400000Y60500000I0J-250000D01*
G01*
G37*
%TD*%
%TO.C,C13*%
G36*
G01*
X71000000Y70500000D02*
X71000000Y68500000D01*
G75*
G02*
X70750000Y68250000I-250000J0D01*
G01*
X66850000Y68250000D01*
G75*
G02*
X66600000Y68500000I0J250000D01*
G01*
X66600000Y70500000D01*
G75*
G02*
X66850000Y70750000I250000J0D01*
G01*
X70750000Y70750000D01*
G75*
G02*
X71000000Y70500000I0J-250000D01*
G01*
G37*
G36*
G01*
X78400000Y70500000D02*
X78400000Y68500000D01*
G75*
G02*
X78150000Y68250000I-250000J0D01*
G01*
X74250000Y68250000D01*
G75*
G02*
X74000000Y68500000I0J250000D01*
G01*
X74000000Y70500000D01*
G75*
G02*
X74250000Y70750000I250000J0D01*
G01*
X78150000Y70750000D01*
G75*
G02*
X78400000Y70500000I0J-250000D01*
G01*
G37*
%TD*%
M02*
