M48
; DRILL file {KiCad (5.1.10)-1} date 11/30/22 22:02:34
; FORMAT={-:-/ absolute / metric / decimal}
; #@! TF.CreationDate,2022-11-30T22:02:34+08:00
; #@! TF.GenerationSoftware,Kicad,Pcbnew,(5.1.10)-1
; #@! TF.FileFunction,Plated,1,2,PTH
FMAT,2
METRIC
T1C0.300
T2C0.400
T3C1.300
T4C1.400
T5C1.500
T6C3.500
%
G90
G05
T1
X1.094Y17.406
X1.25Y10.0
X1.5Y12.25
X1.695Y22.945
X2.0Y65.0
X2.0Y62.5
X2.0Y10.0
X2.311Y15.006
X3.5Y18.25
X5.75Y65.0
X5.75Y62.5
X5.75Y55.0
X6.5Y55.0
X7.0Y12.25
X7.75Y47.75
X7.75Y42.0
X7.75Y36.0
X7.75Y29.75
X7.75Y23.5
X10.75Y69.75
X10.75Y66.75
X11.75Y63.0
X11.75Y58.0
X11.75Y57.25
X11.75Y32.0
X12.012Y47.724
X12.012Y44.012
X12.012Y34.299
X12.5Y14.5
X12.5Y13.0
X12.5Y11.0
X12.731Y35.231
X13.25Y15.75
X13.25Y7.75
X14.5Y61.5
X15.75Y64.5
X16.0Y44.75
X16.0Y28.75
X16.0Y26.5
X16.0Y20.5
X16.035Y34.465
X16.106Y59.679
X16.25Y49.75
X16.5Y62.5
X16.5Y61.93
X17.25Y46.87
X17.25Y42.0
X17.25Y39.75
X17.25Y32.0
X17.5Y57.75
X17.5Y36.0
X17.52Y52.73
X18.0Y61.499
X18.5Y39.75
X18.75Y21.5
X18.75Y14.75
X19.25Y30.0
X19.25Y50.25
X19.5Y35.25
X19.63Y42.036
X19.736Y36.189
X19.75Y45.75
X19.919Y38.62
X20.0Y37.75
X20.25Y67.25
X20.25Y64.5
X20.25Y57.75
X20.303Y34.06
X20.321Y23.846
X20.75Y7.0
X21.0Y14.75
X21.5Y21.5
X21.5Y19.25
X21.74Y4.75
X21.75Y1.75
X22.094Y34.65
X22.25Y39.25
X22.75Y57.75
X22.756Y36.75
X22.936Y19.751
X23.0Y24.75
X23.0Y5.5
X23.226Y38.218
X23.25Y26.0
X23.5Y39.0
X23.5Y30.75
X23.5Y23.0
X23.656Y3.541
X23.75Y48.5
X24.25Y14.0
X24.25Y11.5
X24.311Y24.506
X24.412Y59.438
X24.577Y35.241
X24.75Y1.25
X24.75Y50.25
X24.75Y44.0
X25.351Y34.191
X25.5Y61.0
X25.5Y29.37
X26.0Y36.5
X26.07Y30.75
X26.5Y25.75
X27.0Y47.5
X27.031Y59.374
X27.25Y34.25
X27.34Y39.66
X27.5Y4.5
X27.5Y3.75
X27.5Y1.75
X27.7Y23.45
X28.0Y52.5
X28.171Y39.0
X28.187Y37.936
X28.25Y23.75
X28.25Y1.75
X28.5Y34.5
X28.5Y26.5
X29.044Y39.107
X29.094Y40.5
X29.342Y20.406
X29.555Y31.25
X29.6Y67.2
X29.7Y63.656
X29.8Y65.9
X29.8Y64.7
X29.88Y37.935
X30.0Y55.0
X30.0Y52.5
X30.47Y36.931
X30.564Y40.835
X31.0Y51.0
X31.1Y57.65
X31.1Y57.0
X31.25Y32.75
X31.25Y31.671
X31.25Y19.75
X31.25Y11.5
X31.25Y7.0
X31.25Y2.0
X31.264Y18.247
X31.3Y28.45
X31.325Y23.825
X31.325Y23.175
X32.031Y57.901
X32.25Y23.25
X32.75Y33.75
X32.75Y31.0
X33.048Y50.702
X33.25Y57.25
X33.25Y56.5
X33.25Y27.25
X33.5Y36.75
X34.007Y35.0
X34.25Y20.5
X36.244Y52.061
X36.25Y26.5
X36.6Y50.7
X37.01Y29.41
X37.5Y35.0
X37.646Y59.902
X37.75Y31.5
X38.75Y55.5
X40.25Y60.0
X40.25Y52.75
X40.49Y55.99
X41.5Y23.25
X43.25Y49.75
X43.25Y48.75
X43.25Y47.75
X43.25Y46.75
X43.25Y45.75
X43.25Y44.75
X43.25Y40.0
X43.25Y39.0
X43.25Y38.0
X43.25Y37.0
X43.25Y36.0
X43.25Y35.0
X43.25Y21.5
X43.25Y20.5
X43.25Y19.5
X43.25Y18.5
X43.25Y17.5
X43.25Y16.5
X43.25Y10.75
X43.25Y9.75
X43.25Y8.75
X43.25Y7.75
X43.25Y6.75
X43.25Y5.75
X44.35Y49.75
X44.35Y48.75
X44.35Y47.75
X44.35Y46.75
X44.35Y45.75
X44.35Y44.75
X44.35Y40.0
X44.35Y39.0
X44.35Y38.0
X44.35Y37.0
X44.35Y36.0
X44.35Y35.0
X44.35Y21.5
X44.35Y20.5
X44.35Y19.5
X44.35Y18.5
X44.35Y17.5
X44.35Y16.5
X44.35Y10.75
X44.35Y9.75
X44.35Y8.75
X44.35Y7.75
X44.35Y6.75
X44.35Y5.75
X45.0Y30.0
X45.0Y29.25
X45.0Y28.5
X45.0Y27.75
X45.45Y49.75
X45.45Y48.75
X45.45Y47.75
X45.45Y46.75
X45.45Y45.75
X45.45Y44.75
X45.45Y40.0
X45.45Y39.0
X45.45Y38.0
X45.45Y37.0
X45.45Y36.0
X45.45Y35.0
X45.45Y21.5
X45.45Y20.5
X45.45Y19.5
X45.45Y18.5
X45.45Y17.5
X45.45Y16.5
X45.45Y10.75
X45.45Y9.75
X45.45Y8.75
X45.45Y7.75
X45.45Y6.75
X45.45Y5.75
X46.0Y30.0
X46.0Y29.25
X46.0Y28.5
X46.0Y27.75
X46.55Y49.75
X46.55Y48.75
X46.55Y47.75
X46.55Y46.75
X46.55Y45.75
X46.55Y44.75
X46.55Y40.0
X46.55Y39.0
X46.55Y38.0
X46.55Y37.0
X46.55Y36.0
X46.55Y35.0
X46.55Y21.5
X46.55Y20.5
X46.55Y19.5
X46.55Y18.5
X46.55Y17.5
X46.55Y16.5
X46.55Y10.75
X46.55Y9.75
X46.55Y8.75
X46.55Y7.75
X46.55Y6.75
X46.55Y5.75
X47.25Y57.75
X47.65Y49.75
X47.65Y48.75
X47.65Y47.75
X47.65Y46.75
X47.65Y45.75
X47.65Y44.75
X47.65Y40.0
X47.65Y39.0
X47.65Y38.0
X47.65Y37.0
X47.65Y36.0
X47.65Y35.0
X47.65Y21.5
X47.65Y20.5
X47.65Y19.5
X47.65Y18.5
X47.65Y17.5
X47.65Y16.5
X47.65Y10.75
X47.65Y9.75
X47.65Y8.75
X47.65Y7.75
X47.65Y6.75
X47.65Y5.75
X48.5Y53.25
X48.75Y49.75
X48.75Y48.75
X48.75Y47.75
X48.75Y46.75
X48.75Y45.75
X48.75Y44.75
X48.75Y40.0
X48.75Y39.0
X48.75Y38.0
X48.75Y37.0
X48.75Y36.0
X48.75Y35.0
X48.75Y21.5
X48.75Y20.5
X48.75Y19.5
X48.75Y18.5
X48.75Y17.5
X48.75Y16.5
X48.75Y10.75
X48.75Y9.75
X48.75Y8.75
X48.75Y7.75
X48.75Y6.75
X48.75Y5.75
X50.75Y26.75
X52.0Y66.25
X52.0Y63.75
X54.0Y66.25
X54.0Y63.75
X54.5Y49.75
X54.5Y48.75
X54.5Y47.75
X54.5Y46.75
X54.5Y45.75
X54.5Y44.75
X54.5Y40.0
X54.5Y39.0
X54.5Y38.0
X54.5Y37.0
X54.5Y36.0
X54.5Y35.0
X54.5Y21.5
X54.5Y20.5
X54.5Y19.5
X54.5Y18.5
X54.5Y17.5
X54.5Y16.5
X54.5Y10.75
X54.5Y9.75
X54.5Y8.75
X54.5Y7.75
X54.5Y6.75
X54.5Y5.75
X55.5Y63.75
X55.6Y49.75
X55.6Y48.75
X55.6Y47.75
X55.6Y46.75
X55.6Y45.75
X55.6Y44.75
X55.6Y40.0
X55.6Y39.0
X55.6Y38.0
X55.6Y37.0
X55.6Y36.0
X55.6Y35.0
X55.6Y21.5
X55.6Y20.5
X55.6Y19.5
X55.6Y18.5
X55.6Y17.5
X55.6Y16.5
X55.6Y10.75
X55.6Y9.75
X55.6Y8.75
X55.6Y7.75
X55.6Y6.75
X55.6Y5.75
X55.75Y66.25
X56.7Y49.75
X56.7Y48.75
X56.7Y47.75
X56.7Y46.75
X56.7Y45.75
X56.7Y44.75
X56.7Y40.0
X56.7Y39.0
X56.7Y38.0
X56.7Y37.0
X56.7Y36.0
X56.7Y35.0
X56.7Y21.5
X56.7Y20.5
X56.7Y19.5
X56.7Y18.5
X56.7Y17.5
X56.7Y16.5
X56.7Y10.75
X56.7Y9.75
X56.7Y8.75
X56.7Y7.75
X56.7Y6.75
X56.7Y5.75
X57.0Y33.25
X57.8Y49.75
X57.8Y48.75
X57.8Y47.75
X57.8Y46.75
X57.8Y45.75
X57.8Y44.75
X57.8Y40.0
X57.8Y39.0
X57.8Y38.0
X57.8Y37.0
X57.8Y36.0
X57.8Y35.0
X57.8Y21.5
X57.8Y20.5
X57.8Y19.5
X57.8Y18.5
X57.8Y17.5
X57.8Y16.5
X57.8Y10.75
X57.8Y9.75
X57.8Y8.75
X57.8Y7.75
X57.8Y6.75
X57.8Y5.75
X58.9Y49.75
X58.9Y48.75
X58.9Y47.75
X58.9Y46.75
X58.9Y45.75
X58.9Y44.75
X58.9Y40.0
X58.9Y39.0
X58.9Y38.0
X58.9Y37.0
X58.9Y36.0
X58.9Y35.0
X58.9Y21.5
X58.9Y20.5
X58.9Y19.5
X58.9Y18.5
X58.9Y17.5
X58.9Y16.5
X58.9Y10.75
X58.9Y9.75
X58.9Y8.75
X58.9Y7.75
X58.9Y6.75
X58.9Y5.75
X60.0Y49.75
X60.0Y48.75
X60.0Y47.75
X60.0Y46.75
X60.0Y45.75
X60.0Y44.75
X60.0Y40.0
X60.0Y39.0
X60.0Y38.0
X60.0Y37.0
X60.0Y36.0
X60.0Y35.0
X60.0Y21.5
X60.0Y20.5
X60.0Y19.5
X60.0Y18.5
X60.0Y17.5
X60.0Y16.5
X60.0Y10.75
X60.0Y9.75
X60.0Y8.75
X60.0Y7.75
X60.0Y6.75
X60.0Y5.75
X68.25Y4.5
X68.5Y51.0
X69.25Y16.25
X70.0Y36.75
X70.0Y2.0
X70.75Y16.25
X71.75Y4.5
X72.5Y3.0
X73.5Y3.0
X73.5Y2.25
X82.0Y7.5
X83.75Y50.5
X83.75Y49.5
X83.75Y48.5
X83.75Y47.5
X83.75Y46.5
X84.0Y39.0
X84.0Y38.0
X84.0Y37.0
X85.0Y39.0
X85.0Y38.0
X85.0Y37.0
X86.0Y39.0
X86.0Y38.0
X86.0Y37.0
X87.0Y39.0
X87.0Y38.0
X87.0Y37.0
X87.75Y7.5
X88.0Y39.0
X88.0Y38.0
X88.0Y37.0
X88.25Y50.5
X88.25Y49.5
X88.25Y48.5
X88.25Y47.5
X88.25Y46.5
T2
X1.943Y72.188
X1.943Y69.812
X1.943Y5.188
X1.943Y2.812
X4.0Y73.375
X4.0Y68.625
X4.0Y6.375
X4.0Y1.625
X6.057Y72.188
X6.057Y69.812
X6.057Y5.188
X6.057Y2.812
X15.75Y60.75
X23.25Y65.0
X37.75Y63.0
X37.75Y61.5
X42.25Y61.75
X42.25Y60.5
X42.25Y59.25
X43.5Y61.75
X43.5Y60.5
X43.5Y59.25
X45.0Y61.75
X45.0Y60.5
X45.0Y59.25
X47.943Y72.188
X47.943Y69.812
X48.25Y24.25
X50.0Y73.375
X50.0Y68.625
X51.75Y24.25
X52.057Y72.188
X52.057Y69.812
X53.625Y26.375
X58.25Y24.5
X63.5Y48.0
X63.5Y47.0
X63.5Y38.25
X63.5Y37.25
X63.5Y19.5
X63.5Y18.5
X63.75Y8.75
X64.5Y48.0
X64.5Y47.0
X64.5Y38.25
X64.5Y37.25
X64.5Y19.5
X64.5Y18.5
X64.75Y8.75
X65.5Y48.0
X65.5Y47.0
X65.5Y38.25
X65.5Y37.25
X65.5Y19.5
X65.5Y18.5
X65.75Y8.75
X66.25Y50.0
X66.25Y49.0
X66.5Y48.0
X66.5Y47.0
X66.5Y40.25
X66.5Y39.25
X66.5Y38.25
X66.5Y37.25
X66.5Y21.5
X66.5Y20.5
X66.5Y19.5
X66.5Y18.5
X66.75Y10.75
X66.75Y9.75
X66.75Y8.75
X67.25Y50.0
X67.25Y49.0
X67.5Y48.0
X67.5Y39.25
X67.5Y38.25
X67.5Y21.5
X67.5Y20.5
X67.5Y19.5
X67.75Y8.5
X68.5Y48.0
X68.5Y39.25
X68.5Y38.25
X68.5Y20.5
X68.5Y19.5
X68.75Y8.5
X73.25Y66.0
X73.25Y64.875
X73.25Y63.75
X74.443Y44.188
X74.443Y41.812
X76.5Y45.375
X76.5Y40.625
X78.557Y44.188
X78.557Y41.812
T3
X81.5Y29.0
X81.5Y24.0
X81.5Y19.0
X81.5Y4.0
X89.0Y29.0
X89.0Y24.0
X89.0Y19.0
X89.0Y4.0
T4
X97.0Y69.0
X97.0Y63.92
X97.0Y53.0
X97.0Y47.92
X97.0Y37.2
X97.0Y32.12
X97.0Y27.04
X97.0Y16.2
X97.0Y11.12
T5
X86.0Y71.0
X86.0Y48.4
T6
X4.0Y71.0
X4.0Y4.0
X50.0Y71.0
X76.5Y43.0
T0
M30
