%TF.GenerationSoftware,KiCad,Pcbnew,(5.1.10)-1*%
%TF.CreationDate,2022-11-30T22:02:34+08:00*%
%TF.ProjectId,motor_control,6d6f746f-725f-4636-9f6e-74726f6c2e6b,rev?*%
%TF.SameCoordinates,Original*%
%TF.FileFunction,Soldermask,Top*%
%TF.FilePolarity,Negative*%
%FSLAX46Y46*%
G04 Gerber Fmt 4.6, Leading zero omitted, Abs format (unit mm)*
G04 Created by KiCad (PCBNEW (5.1.10)-1) date 2022-11-30 22:02:34*
%MOMM*%
%LPD*%
G01*
G04 APERTURE LIST*
%ADD10R,1.160000X1.470000*%
%ADD11C,0.800000*%
%ADD12C,6.000000*%
%ADD13R,1.130000X1.800000*%
%ADD14R,1.470000X1.160000*%
%ADD15R,1.250000X0.700000*%
%ADD16O,0.700000X1.900000*%
%ADD17O,2.000000X3.500000*%
%ADD18O,0.700000X2.100000*%
%ADD19O,0.600000X1.800000*%
%ADD20R,2.200000X1.200000*%
%ADD21R,6.499990X6.000000*%
%ADD22O,3.600000X2.080000*%
%ADD23R,3.150000X1.000000*%
%ADD24R,3.450000X1.300000*%
%ADD25O,1.800000X0.700000*%
%ADD26R,2.000000X0.640000*%
%ADD27C,2.500000*%
%ADD28O,2.500000X4.000000*%
%ADD29R,1.250000X1.000000*%
G04 APERTURE END LIST*
D10*
%TO.C,R29*%
X80890000Y7500000D03*
X79110000Y7500000D03*
%TD*%
D11*
%TO.C,SC4*%
X78556810Y44187500D03*
X78556810Y41812500D03*
X76500000Y40625000D03*
X74443190Y41812500D03*
X74443190Y44187500D03*
X76500000Y45375000D03*
D12*
X76500000Y43000000D03*
%TD*%
D11*
%TO.C,SC3*%
X52056810Y72187500D03*
X52056810Y69812500D03*
X50000000Y68625000D03*
X47943190Y69812500D03*
X47943190Y72187500D03*
X50000000Y73375000D03*
D12*
X50000000Y71000000D03*
%TD*%
D13*
%TO.C,R28*%
X66740000Y64750000D03*
X63760000Y64750000D03*
%TD*%
D14*
%TO.C,R25*%
X20250000Y71110000D03*
X20250000Y72890000D03*
%TD*%
%TO.C,R24*%
X20250000Y60390000D03*
X20250000Y58610000D03*
%TD*%
D10*
%TO.C,R23*%
X40530000Y63500000D03*
X38750000Y63500000D03*
%TD*%
D14*
%TO.C,R22*%
X22750000Y58610000D03*
X22750000Y60390000D03*
%TD*%
D15*
%TO.C,Q1*%
X77000000Y4000000D03*
X74500000Y3050000D03*
X74500000Y4950000D03*
%TD*%
D16*
%TO.C,U18*%
X30900000Y68400000D03*
D17*
X29400000Y70900000D03*
D18*
X29400000Y68500000D03*
D16*
X27900000Y68400000D03*
%TD*%
D14*
%TO.C,C22*%
X28129999Y63710000D03*
X28129999Y65490000D03*
%TD*%
%TO.C,C21*%
X31400001Y63710000D03*
X31400001Y65490000D03*
%TD*%
D19*
%TO.C,U17*%
X20990000Y45800000D03*
X22260000Y45800000D03*
X23530000Y45800000D03*
X24800000Y45800000D03*
X26070000Y45800000D03*
X27340000Y45800000D03*
X28610000Y45800000D03*
X28610000Y40600000D03*
X27340000Y40600000D03*
X26070000Y40600000D03*
X24800000Y40600000D03*
X23530000Y40600000D03*
X22260000Y40600000D03*
X20990000Y40600000D03*
%TD*%
D10*
%TO.C,R27*%
X26890000Y48600000D03*
X25110000Y48600000D03*
%TD*%
D14*
%TO.C,R26*%
X17200000Y32860000D03*
X17200000Y34640000D03*
%TD*%
D10*
%TO.C,C20*%
X22390000Y48600000D03*
X20610000Y48600000D03*
%TD*%
D20*
%TO.C,Q13*%
X64245830Y49671289D03*
D21*
X57250000Y47309999D03*
D20*
X64250000Y44948739D03*
%TD*%
%TO.C,Q12*%
X39004170Y44948749D03*
D21*
X46000000Y47310039D03*
D20*
X39000000Y49671299D03*
%TD*%
%TO.C,Q11*%
X64295830Y39842950D03*
D21*
X57300000Y37481660D03*
D20*
X64300000Y35120400D03*
%TD*%
%TO.C,Q10*%
X39004170Y35120410D03*
D21*
X46000000Y37481700D03*
D20*
X39000000Y39842960D03*
%TD*%
%TO.C,Q9*%
X64295830Y21214611D03*
D21*
X57300000Y18853321D03*
D20*
X64300000Y16492061D03*
%TD*%
%TO.C,Q8*%
X39004170Y16492071D03*
D21*
X46000000Y18853361D03*
D20*
X39000000Y21214621D03*
%TD*%
%TO.C,Q7*%
X64295830Y10636270D03*
D21*
X57300000Y8274980D03*
D20*
X64300000Y5913720D03*
%TD*%
%TO.C,Q6*%
X39004170Y5913730D03*
D21*
X46000000Y8275020D03*
D20*
X39000000Y10636280D03*
%TD*%
D14*
%TO.C,C1*%
X9500000Y69890000D03*
X9500000Y68110000D03*
%TD*%
D22*
%TO.C,J6*%
X97000000Y11120000D03*
G36*
G01*
X95449600Y17240000D02*
X98550400Y17240000D01*
G75*
G02*
X98800000Y16990400I0J-249600D01*
G01*
X98800000Y15409600D01*
G75*
G02*
X98550400Y15160000I-249600J0D01*
G01*
X95449600Y15160000D01*
G75*
G02*
X95200000Y15409600I0J249600D01*
G01*
X95200000Y16990400D01*
G75*
G02*
X95449600Y17240000I249600J0D01*
G01*
G37*
%TD*%
%TO.C,J5*%
X97000000Y47920000D03*
G36*
G01*
X95449999Y54040000D02*
X98550001Y54040000D01*
G75*
G02*
X98800000Y53790001I0J-249999D01*
G01*
X98800000Y52209999D01*
G75*
G02*
X98550001Y51960000I-249999J0D01*
G01*
X95449999Y51960000D01*
G75*
G02*
X95200000Y52209999I0J249999D01*
G01*
X95200000Y53790001D01*
G75*
G02*
X95449999Y54040000I249999J0D01*
G01*
G37*
%TD*%
D23*
%TO.C,J3*%
X59025000Y54920000D03*
X53975000Y54920000D03*
X59025000Y57460000D03*
X53975000Y57460000D03*
X59025000Y60000000D03*
X53975000Y60000000D03*
X59025000Y62540000D03*
X53975000Y62540000D03*
X59025000Y65080000D03*
X53975000Y65080000D03*
%TD*%
%TO.C,J2*%
X9025000Y9920000D03*
X3975000Y9920000D03*
X9025000Y12460000D03*
X3975000Y12460000D03*
X9025000Y15000000D03*
X3975000Y15000000D03*
X9025000Y17540000D03*
X3975000Y17540000D03*
X9025000Y20080000D03*
X3975000Y20080000D03*
%TD*%
D24*
%TO.C,J1*%
X9175000Y54920000D03*
X3825000Y54920000D03*
X9175000Y57460000D03*
X3825000Y57460000D03*
X9175000Y60000000D03*
X3825000Y60000000D03*
X9175000Y62540000D03*
X3825000Y62540000D03*
X9175000Y65080000D03*
X3825000Y65080000D03*
%TD*%
D19*
%TO.C,U16*%
X17690000Y68350000D03*
X18960000Y68350000D03*
X20230000Y68350000D03*
X21500000Y68350000D03*
X22770000Y68350000D03*
X24040000Y68350000D03*
X25310000Y68350000D03*
X25310000Y63150000D03*
X24040000Y63150000D03*
X22770000Y63150000D03*
X21500000Y63150000D03*
X20230000Y63150000D03*
X18960000Y63150000D03*
X17690000Y63150000D03*
%TD*%
%TO.C,U15*%
X20990000Y32850000D03*
X22260000Y32850000D03*
X23530000Y32850000D03*
X24800000Y32850000D03*
X26070000Y32850000D03*
X27340000Y32850000D03*
X28610000Y32850000D03*
X28610000Y27650000D03*
X27340000Y27650000D03*
X26070000Y27650000D03*
X24800000Y27650000D03*
X23530000Y27650000D03*
X22260000Y27650000D03*
X20990000Y27650000D03*
%TD*%
%TO.C,U14*%
G36*
G01*
X47500000Y57755000D02*
X47500000Y58055000D01*
G75*
G02*
X47650000Y58205000I150000J0D01*
G01*
X49300000Y58205000D01*
G75*
G02*
X49450000Y58055000I0J-150000D01*
G01*
X49450000Y57755000D01*
G75*
G02*
X49300000Y57605000I-150000J0D01*
G01*
X47650000Y57605000D01*
G75*
G02*
X47500000Y57755000I0J150000D01*
G01*
G37*
G36*
G01*
X47500000Y56485000D02*
X47500000Y56785000D01*
G75*
G02*
X47650000Y56935000I150000J0D01*
G01*
X49300000Y56935000D01*
G75*
G02*
X49450000Y56785000I0J-150000D01*
G01*
X49450000Y56485000D01*
G75*
G02*
X49300000Y56335000I-150000J0D01*
G01*
X47650000Y56335000D01*
G75*
G02*
X47500000Y56485000I0J150000D01*
G01*
G37*
G36*
G01*
X47500000Y55215000D02*
X47500000Y55515000D01*
G75*
G02*
X47650000Y55665000I150000J0D01*
G01*
X49300000Y55665000D01*
G75*
G02*
X49450000Y55515000I0J-150000D01*
G01*
X49450000Y55215000D01*
G75*
G02*
X49300000Y55065000I-150000J0D01*
G01*
X47650000Y55065000D01*
G75*
G02*
X47500000Y55215000I0J150000D01*
G01*
G37*
G36*
G01*
X47500000Y53945000D02*
X47500000Y54245000D01*
G75*
G02*
X47650000Y54395000I150000J0D01*
G01*
X49300000Y54395000D01*
G75*
G02*
X49450000Y54245000I0J-150000D01*
G01*
X49450000Y53945000D01*
G75*
G02*
X49300000Y53795000I-150000J0D01*
G01*
X47650000Y53795000D01*
G75*
G02*
X47500000Y53945000I0J150000D01*
G01*
G37*
G36*
G01*
X42550000Y53945000D02*
X42550000Y54245000D01*
G75*
G02*
X42700000Y54395000I150000J0D01*
G01*
X44350000Y54395000D01*
G75*
G02*
X44500000Y54245000I0J-150000D01*
G01*
X44500000Y53945000D01*
G75*
G02*
X44350000Y53795000I-150000J0D01*
G01*
X42700000Y53795000D01*
G75*
G02*
X42550000Y53945000I0J150000D01*
G01*
G37*
G36*
G01*
X42550000Y55215000D02*
X42550000Y55515000D01*
G75*
G02*
X42700000Y55665000I150000J0D01*
G01*
X44350000Y55665000D01*
G75*
G02*
X44500000Y55515000I0J-150000D01*
G01*
X44500000Y55215000D01*
G75*
G02*
X44350000Y55065000I-150000J0D01*
G01*
X42700000Y55065000D01*
G75*
G02*
X42550000Y55215000I0J150000D01*
G01*
G37*
G36*
G01*
X42550000Y56485000D02*
X42550000Y56785000D01*
G75*
G02*
X42700000Y56935000I150000J0D01*
G01*
X44350000Y56935000D01*
G75*
G02*
X44500000Y56785000I0J-150000D01*
G01*
X44500000Y56485000D01*
G75*
G02*
X44350000Y56335000I-150000J0D01*
G01*
X42700000Y56335000D01*
G75*
G02*
X42550000Y56485000I0J150000D01*
G01*
G37*
G36*
G01*
X42550000Y57755000D02*
X42550000Y58055000D01*
G75*
G02*
X42700000Y58205000I150000J0D01*
G01*
X44350000Y58205000D01*
G75*
G02*
X44500000Y58055000I0J-150000D01*
G01*
X44500000Y57755000D01*
G75*
G02*
X44350000Y57605000I-150000J0D01*
G01*
X42700000Y57605000D01*
G75*
G02*
X42550000Y57755000I0J150000D01*
G01*
G37*
%TD*%
%TO.C,U13*%
G36*
G01*
X47250000Y29005000D02*
X47250000Y29305000D01*
G75*
G02*
X47400000Y29455000I150000J0D01*
G01*
X49050000Y29455000D01*
G75*
G02*
X49200000Y29305000I0J-150000D01*
G01*
X49200000Y29005000D01*
G75*
G02*
X49050000Y28855000I-150000J0D01*
G01*
X47400000Y28855000D01*
G75*
G02*
X47250000Y29005000I0J150000D01*
G01*
G37*
G36*
G01*
X47250000Y27735000D02*
X47250000Y28035000D01*
G75*
G02*
X47400000Y28185000I150000J0D01*
G01*
X49050000Y28185000D01*
G75*
G02*
X49200000Y28035000I0J-150000D01*
G01*
X49200000Y27735000D01*
G75*
G02*
X49050000Y27585000I-150000J0D01*
G01*
X47400000Y27585000D01*
G75*
G02*
X47250000Y27735000I0J150000D01*
G01*
G37*
G36*
G01*
X47250000Y26465000D02*
X47250000Y26765000D01*
G75*
G02*
X47400000Y26915000I150000J0D01*
G01*
X49050000Y26915000D01*
G75*
G02*
X49200000Y26765000I0J-150000D01*
G01*
X49200000Y26465000D01*
G75*
G02*
X49050000Y26315000I-150000J0D01*
G01*
X47400000Y26315000D01*
G75*
G02*
X47250000Y26465000I0J150000D01*
G01*
G37*
G36*
G01*
X47250000Y25195000D02*
X47250000Y25495000D01*
G75*
G02*
X47400000Y25645000I150000J0D01*
G01*
X49050000Y25645000D01*
G75*
G02*
X49200000Y25495000I0J-150000D01*
G01*
X49200000Y25195000D01*
G75*
G02*
X49050000Y25045000I-150000J0D01*
G01*
X47400000Y25045000D01*
G75*
G02*
X47250000Y25195000I0J150000D01*
G01*
G37*
G36*
G01*
X42300000Y25195000D02*
X42300000Y25495000D01*
G75*
G02*
X42450000Y25645000I150000J0D01*
G01*
X44100000Y25645000D01*
G75*
G02*
X44250000Y25495000I0J-150000D01*
G01*
X44250000Y25195000D01*
G75*
G02*
X44100000Y25045000I-150000J0D01*
G01*
X42450000Y25045000D01*
G75*
G02*
X42300000Y25195000I0J150000D01*
G01*
G37*
G36*
G01*
X42300000Y26465000D02*
X42300000Y26765000D01*
G75*
G02*
X42450000Y26915000I150000J0D01*
G01*
X44100000Y26915000D01*
G75*
G02*
X44250000Y26765000I0J-150000D01*
G01*
X44250000Y26465000D01*
G75*
G02*
X44100000Y26315000I-150000J0D01*
G01*
X42450000Y26315000D01*
G75*
G02*
X42300000Y26465000I0J150000D01*
G01*
G37*
G36*
G01*
X42300000Y27735000D02*
X42300000Y28035000D01*
G75*
G02*
X42450000Y28185000I150000J0D01*
G01*
X44100000Y28185000D01*
G75*
G02*
X44250000Y28035000I0J-150000D01*
G01*
X44250000Y27735000D01*
G75*
G02*
X44100000Y27585000I-150000J0D01*
G01*
X42450000Y27585000D01*
G75*
G02*
X42300000Y27735000I0J150000D01*
G01*
G37*
G36*
G01*
X42300000Y29005000D02*
X42300000Y29305000D01*
G75*
G02*
X42450000Y29455000I150000J0D01*
G01*
X44100000Y29455000D01*
G75*
G02*
X44250000Y29305000I0J-150000D01*
G01*
X44250000Y29005000D01*
G75*
G02*
X44100000Y28855000I-150000J0D01*
G01*
X42450000Y28855000D01*
G75*
G02*
X42300000Y29005000I0J150000D01*
G01*
G37*
%TD*%
D25*
%TO.C,U12*%
X36300000Y56405000D03*
X36300000Y55135000D03*
X36300000Y53865000D03*
X36300000Y52595000D03*
X31100000Y52595000D03*
X31100000Y53865000D03*
X31100000Y55135000D03*
X31100000Y56405000D03*
%TD*%
%TO.C,U11*%
X29850000Y18405000D03*
X29850000Y17135000D03*
X29850000Y15865000D03*
X29850000Y14595000D03*
X24650000Y14595000D03*
X24650000Y15865000D03*
X24650000Y17135000D03*
X24650000Y18405000D03*
%TD*%
%TO.C,U10*%
X39350000Y31405000D03*
X39350000Y30135000D03*
X39350000Y28865000D03*
X39350000Y27595000D03*
X34150000Y27595000D03*
X34150000Y28865000D03*
X34150000Y30135000D03*
X34150000Y31405000D03*
%TD*%
%TO.C,U9*%
X29850000Y5905000D03*
X29850000Y4635000D03*
X29850000Y3365000D03*
X29850000Y2095000D03*
X24650000Y2095000D03*
X24650000Y3365000D03*
X24650000Y4635000D03*
X24650000Y5905000D03*
%TD*%
D26*
%TO.C,U8*%
X20950000Y18270000D03*
X20950000Y15730000D03*
X14650000Y15730000D03*
X14650000Y18270000D03*
%TD*%
%TO.C,U7*%
X20950000Y10270000D03*
X20950000Y7730000D03*
X14650000Y7730000D03*
X14650000Y10270000D03*
%TD*%
%TO.C,U6*%
X14150000Y33370000D03*
X14150000Y30830000D03*
X7850000Y30830000D03*
X7850000Y33370000D03*
%TD*%
%TO.C,U5*%
X14150000Y39420000D03*
X14150000Y36880000D03*
X7850000Y36880000D03*
X7850000Y39420000D03*
%TD*%
%TO.C,U4*%
X14150000Y45470000D03*
X14150000Y42930000D03*
X7850000Y42930000D03*
X7850000Y45470000D03*
%TD*%
%TO.C,U3*%
X14150000Y27020000D03*
X14150000Y24480000D03*
X7850000Y24480000D03*
X7850000Y27020000D03*
%TD*%
%TO.C,U2*%
X14150000Y51070000D03*
X14150000Y48530000D03*
X7850000Y48530000D03*
X7850000Y51070000D03*
%TD*%
%TO.C,U1*%
X25150000Y55270000D03*
X25150000Y52730000D03*
X18850000Y52730000D03*
X18850000Y55270000D03*
%TD*%
D11*
%TO.C,SC2*%
X6056810Y5187500D03*
X6056810Y2812500D03*
X4000000Y1625000D03*
X1943190Y2812500D03*
X1943190Y5187500D03*
X4000000Y6375000D03*
D12*
X4000000Y4000000D03*
%TD*%
D11*
%TO.C,SC1*%
X6056810Y72187500D03*
X6056810Y69812500D03*
X4000000Y68625000D03*
X1943190Y69812500D03*
X1943190Y72187500D03*
X4000000Y73375000D03*
D12*
X4000000Y71000000D03*
%TD*%
D14*
%TO.C,R57*%
X71750000Y47120019D03*
X71750000Y45340019D03*
%TD*%
%TO.C,R56*%
X36600000Y48110000D03*
X36600000Y49890000D03*
%TD*%
%TO.C,R55*%
X68250000Y47120019D03*
X68250000Y45340019D03*
%TD*%
%TO.C,R54*%
X33500000Y48110000D03*
X33500000Y49890000D03*
%TD*%
%TO.C,R53*%
X68250000Y35511680D03*
X68250000Y37291680D03*
%TD*%
%TO.C,R52*%
X32750000Y42201680D03*
X32750000Y40421680D03*
%TD*%
%TO.C,R51*%
X71750000Y37291680D03*
X71750000Y35511680D03*
%TD*%
%TO.C,R50*%
X36000000Y40421680D03*
X36000000Y42201680D03*
%TD*%
D10*
%TO.C,R49*%
X25000000Y71400000D03*
X23220000Y71400000D03*
%TD*%
D14*
%TO.C,R48*%
X25600000Y60290000D03*
X25600000Y58510000D03*
%TD*%
%TO.C,R47*%
X16750000Y71110000D03*
X16750000Y72890000D03*
%TD*%
%TO.C,R45*%
X14750000Y60390000D03*
X14750000Y58610000D03*
%TD*%
%TO.C,R43*%
X14600000Y62710000D03*
X14600000Y64490000D03*
%TD*%
%TO.C,R42*%
X14600000Y67110000D03*
X14600000Y68890000D03*
%TD*%
%TO.C,R41*%
X71750000Y17913341D03*
X71750000Y16133341D03*
%TD*%
%TO.C,R40*%
X33250000Y17360000D03*
X33250000Y19140000D03*
%TD*%
%TO.C,R39*%
X68250000Y17913341D03*
X68250000Y16133341D03*
%TD*%
%TO.C,R38*%
X36000000Y17360000D03*
X36000000Y19140000D03*
%TD*%
%TO.C,R37*%
X68250000Y5555000D03*
X68250000Y7335000D03*
%TD*%
%TO.C,R36*%
X36250000Y8390000D03*
X36250000Y6610000D03*
%TD*%
%TO.C,R35*%
X71750000Y7335000D03*
X71750000Y5555000D03*
%TD*%
%TO.C,R34*%
X33000000Y6610000D03*
X33000000Y8390000D03*
%TD*%
%TO.C,R33*%
X29500000Y48110000D03*
X29500000Y49890000D03*
%TD*%
%TO.C,R32*%
X24500000Y37640000D03*
X24500000Y35860000D03*
%TD*%
%TO.C,R31*%
X31300000Y30990000D03*
X31300000Y29210000D03*
%TD*%
D10*
%TO.C,R30*%
X19110000Y2000000D03*
X20890000Y2000000D03*
%TD*%
D14*
%TO.C,R21*%
X27750000Y35860000D03*
X27750000Y37640000D03*
%TD*%
D10*
%TO.C,R20*%
X22140000Y24750000D03*
X20360000Y24750000D03*
%TD*%
D14*
%TO.C,R19*%
X47500000Y59860000D03*
X47500000Y61640000D03*
%TD*%
%TO.C,R18*%
X55000000Y25500000D03*
X55000000Y27280000D03*
%TD*%
D10*
%TO.C,R17*%
X74860000Y7550000D03*
X76640000Y7550000D03*
%TD*%
%TO.C,R16*%
X18640000Y20500000D03*
X16860000Y20500000D03*
%TD*%
%TO.C,R15*%
X19110000Y4750000D03*
X20890000Y4750000D03*
%TD*%
D14*
%TO.C,R14*%
X17200000Y30590000D03*
X17200000Y28810000D03*
%TD*%
D10*
%TO.C,R13*%
X14510000Y13200000D03*
X16290000Y13200000D03*
%TD*%
%TO.C,R12*%
X9860000Y4750000D03*
X11640000Y4750000D03*
%TD*%
D14*
%TO.C,R11*%
X4600000Y31415000D03*
X4600000Y33195000D03*
%TD*%
%TO.C,R10*%
X28000000Y55140000D03*
X28000000Y53360000D03*
%TD*%
%TO.C,R9*%
X17250000Y37110000D03*
X17250000Y38890000D03*
%TD*%
%TO.C,R8*%
X17200000Y43110000D03*
X17200000Y44890000D03*
%TD*%
%TO.C,R7*%
X17200000Y24610000D03*
X17200000Y26390000D03*
%TD*%
%TO.C,R6*%
X17200000Y47910000D03*
X17200000Y49690000D03*
%TD*%
%TO.C,R5*%
X4600000Y37465000D03*
X4600000Y39245000D03*
%TD*%
%TO.C,R4*%
X4600000Y43515000D03*
X4600000Y45295000D03*
%TD*%
%TO.C,R3*%
X4600000Y25065000D03*
X4600000Y26845000D03*
%TD*%
%TO.C,R2*%
X4600000Y49115000D03*
X4600000Y50895000D03*
%TD*%
%TO.C,R1*%
X15600000Y53310000D03*
X15600000Y55090000D03*
%TD*%
D27*
%TO.C,K1*%
X81500000Y29000000D03*
X81500000Y24000000D03*
X81500000Y19000000D03*
X89000000Y29000000D03*
X89000000Y24000000D03*
X89000000Y19000000D03*
X81500000Y4000000D03*
X89000000Y4000000D03*
%TD*%
D22*
%TO.C,J7*%
X97000000Y63920000D03*
G36*
G01*
X95449999Y70040000D02*
X98550001Y70040000D01*
G75*
G02*
X98800000Y69790001I0J-249999D01*
G01*
X98800000Y68209999D01*
G75*
G02*
X98550001Y67960000I-249999J0D01*
G01*
X95449999Y67960000D01*
G75*
G02*
X95200000Y68209999I0J249999D01*
G01*
X95200000Y69790001D01*
G75*
G02*
X95449999Y70040000I249999J0D01*
G01*
G37*
%TD*%
%TO.C,J4*%
X97000000Y27040000D03*
X97000000Y32120000D03*
G36*
G01*
X95449999Y38240000D02*
X98550001Y38240000D01*
G75*
G02*
X98800000Y37990001I0J-249999D01*
G01*
X98800000Y36409999D01*
G75*
G02*
X98550001Y36160000I-249999J0D01*
G01*
X95449999Y36160000D01*
G75*
G02*
X95200000Y36409999I0J249999D01*
G01*
X95200000Y37990001D01*
G75*
G02*
X95449999Y38240000I249999J0D01*
G01*
G37*
%TD*%
D28*
%TO.C,F1*%
X86000000Y48400000D03*
X86000000Y71000000D03*
%TD*%
D29*
%TO.C,D13*%
X71475000Y50000000D03*
X68525000Y50000000D03*
%TD*%
%TO.C,D12*%
X36225000Y45250000D03*
X33275000Y45250000D03*
%TD*%
%TO.C,D11*%
X71475000Y40500000D03*
X68525000Y40500000D03*
%TD*%
%TO.C,D10*%
X36225000Y38000000D03*
X33275000Y38000000D03*
%TD*%
%TO.C,D9*%
X72975000Y20750000D03*
X70025000Y20750000D03*
%TD*%
%TO.C,D8*%
X36225000Y14500000D03*
X33275000Y14500000D03*
%TD*%
%TO.C,D7*%
X71475000Y10000000D03*
X68525000Y10000000D03*
%TD*%
%TO.C,D6*%
X36225000Y4000000D03*
X33275000Y4000000D03*
%TD*%
%TO.C,D5*%
X86725000Y1750000D03*
X83775000Y1750000D03*
%TD*%
%TO.C,D4*%
X33375000Y61350000D03*
X36325000Y61350000D03*
%TD*%
%TO.C,D3*%
X31325000Y21800000D03*
X34275000Y21800000D03*
%TD*%
%TO.C,D2*%
X31325000Y24750000D03*
X34275000Y24750000D03*
%TD*%
%TO.C,D1*%
X26775000Y12250000D03*
X29725000Y12250000D03*
%TD*%
D13*
%TO.C,C19*%
X86740000Y7500000D03*
X83760000Y7500000D03*
%TD*%
D14*
%TO.C,C18*%
X17500000Y60390000D03*
X17500000Y58610000D03*
%TD*%
%TO.C,C17*%
X12000000Y69890000D03*
X12000000Y68110000D03*
%TD*%
%TO.C,C16*%
X21000000Y37640000D03*
X21000000Y35860000D03*
%TD*%
D10*
%TO.C,C14*%
X38710000Y54500000D03*
X40490000Y54500000D03*
%TD*%
%TO.C,C12*%
X38610000Y61000000D03*
X40390000Y61000000D03*
%TD*%
D14*
%TO.C,C11*%
X51750000Y25510000D03*
X51750000Y27290000D03*
%TD*%
%TO.C,C10*%
X58250000Y27140000D03*
X58250000Y25360000D03*
%TD*%
D10*
%TO.C,C9*%
X29210000Y59000000D03*
X30990000Y59000000D03*
%TD*%
D13*
%TO.C,C8*%
X33260000Y58950000D03*
X36240000Y58950000D03*
%TD*%
D10*
%TO.C,C7*%
X26360000Y24750000D03*
X28140000Y24750000D03*
%TD*%
D13*
%TO.C,C6*%
X25910000Y21800000D03*
X28890000Y21800000D03*
%TD*%
%TO.C,C5*%
X39690000Y24950000D03*
X36710000Y24950000D03*
%TD*%
%TO.C,C4*%
X27010000Y9250000D03*
X29990000Y9250000D03*
%TD*%
D14*
%TO.C,C3*%
X31250000Y33470000D03*
X31250000Y35250000D03*
%TD*%
%TO.C,C2*%
X24250000Y10640000D03*
X24250000Y8860000D03*
%TD*%
M02*
