%TF.GenerationSoftware,KiCad,Pcbnew,(5.1.10)-1*%
%TF.CreationDate,2022-11-30T22:02:34+08:00*%
%TF.ProjectId,motor_control,6d6f746f-725f-4636-9f6e-74726f6c2e6b,rev?*%
%TF.SameCoordinates,Original*%
%TF.FileFunction,Legend,Bot*%
%TF.FilePolarity,Positive*%
%FSLAX46Y46*%
G04 Gerber Fmt 4.6, Leading zero omitted, Abs format (unit mm)*
G04 Created by KiCad (PCBNEW (5.1.10)-1) date 2022-11-30 22:02:34*
%MOMM*%
%LPD*%
G01*
G04 APERTURE LIST*
%ADD10C,0.150000*%
%ADD11C,0.120000*%
%ADD12C,0.250000*%
G04 APERTURE END LIST*
D10*
X5254761Y49462024D02*
X5302380Y49319167D01*
X5302380Y49081072D01*
X5254761Y48985834D01*
X5207142Y48938215D01*
X5111904Y48890596D01*
X5016666Y48890596D01*
X4921428Y48938215D01*
X4873809Y48985834D01*
X4826190Y49081072D01*
X4778571Y49271548D01*
X4730952Y49366786D01*
X4683333Y49414405D01*
X4588095Y49462024D01*
X4492857Y49462024D01*
X4397619Y49414405D01*
X4350000Y49366786D01*
X4302380Y49271548D01*
X4302380Y49033453D01*
X4350000Y48890596D01*
X5302380Y48462024D02*
X4302380Y48462024D01*
X4302380Y48081072D01*
X4350000Y47985834D01*
X4397619Y47938215D01*
X4492857Y47890596D01*
X4635714Y47890596D01*
X4730952Y47938215D01*
X4778571Y47985834D01*
X4826190Y48081072D01*
X4826190Y48462024D01*
X4302380Y47557262D02*
X5302380Y47319167D01*
X4588095Y47128691D01*
X5302380Y46938215D01*
X4302380Y46700120D01*
X5302380Y46319167D02*
X4302380Y46319167D01*
X5016666Y45985834D01*
X4302380Y45652500D01*
X5302380Y45652500D01*
X5302380Y44414405D02*
X4302380Y44414405D01*
X5016666Y44081072D01*
X4302380Y43747739D01*
X5302380Y43747739D01*
X5302380Y43128691D02*
X5254761Y43223929D01*
X5207142Y43271548D01*
X5111904Y43319167D01*
X4826190Y43319167D01*
X4730952Y43271548D01*
X4683333Y43223929D01*
X4635714Y43128691D01*
X4635714Y42985834D01*
X4683333Y42890596D01*
X4730952Y42842977D01*
X4826190Y42795358D01*
X5111904Y42795358D01*
X5207142Y42842977D01*
X5254761Y42890596D01*
X5302380Y42985834D01*
X5302380Y43128691D01*
X4635714Y42509643D02*
X4635714Y42128691D01*
X4302380Y42366786D02*
X5159523Y42366786D01*
X5254761Y42319167D01*
X5302380Y42223929D01*
X5302380Y42128691D01*
X5302380Y41652501D02*
X5254761Y41747739D01*
X5207142Y41795358D01*
X5111904Y41842977D01*
X4826190Y41842977D01*
X4730952Y41795358D01*
X4683333Y41747739D01*
X4635714Y41652501D01*
X4635714Y41509643D01*
X4683333Y41414405D01*
X4730952Y41366786D01*
X4826190Y41319167D01*
X5111904Y41319167D01*
X5207142Y41366786D01*
X5254761Y41414405D01*
X5302380Y41509643D01*
X5302380Y41652501D01*
X5302380Y40890596D02*
X4635714Y40890596D01*
X4826190Y40890596D02*
X4730952Y40842977D01*
X4683333Y40795358D01*
X4635714Y40700120D01*
X4635714Y40604881D01*
X5207142Y38938215D02*
X5254761Y38985834D01*
X5302380Y39128691D01*
X5302380Y39223929D01*
X5254761Y39366786D01*
X5159523Y39462024D01*
X5064285Y39509643D01*
X4873809Y39557262D01*
X4730952Y39557262D01*
X4540476Y39509643D01*
X4445238Y39462024D01*
X4350000Y39366786D01*
X4302380Y39223929D01*
X4302380Y39128691D01*
X4350000Y38985834D01*
X4397619Y38938215D01*
X5302380Y38366786D02*
X5254761Y38462024D01*
X5207142Y38509643D01*
X5111904Y38557262D01*
X4826190Y38557262D01*
X4730952Y38509643D01*
X4683333Y38462024D01*
X4635714Y38366786D01*
X4635714Y38223929D01*
X4683333Y38128691D01*
X4730952Y38081072D01*
X4826190Y38033453D01*
X5111904Y38033453D01*
X5207142Y38081072D01*
X5254761Y38128691D01*
X5302380Y38223929D01*
X5302380Y38366786D01*
X4635714Y37604881D02*
X5302380Y37604881D01*
X4730952Y37604881D02*
X4683333Y37557262D01*
X4635714Y37462024D01*
X4635714Y37319167D01*
X4683333Y37223929D01*
X4778571Y37176310D01*
X5302380Y37176310D01*
X4635714Y36842977D02*
X4635714Y36462024D01*
X4302380Y36700120D02*
X5159523Y36700120D01*
X5254761Y36652501D01*
X5302380Y36557262D01*
X5302380Y36462024D01*
X5302380Y36128691D02*
X4635714Y36128691D01*
X4826190Y36128691D02*
X4730952Y36081072D01*
X4683333Y36033453D01*
X4635714Y35938215D01*
X4635714Y35842977D01*
X5302380Y35366786D02*
X5254761Y35462024D01*
X5207142Y35509643D01*
X5111904Y35557262D01*
X4826190Y35557262D01*
X4730952Y35509643D01*
X4683333Y35462024D01*
X4635714Y35366786D01*
X4635714Y35223929D01*
X4683333Y35128691D01*
X4730952Y35081072D01*
X4826190Y35033453D01*
X5111904Y35033453D01*
X5207142Y35081072D01*
X5254761Y35128691D01*
X5302380Y35223929D01*
X5302380Y35366786D01*
X5302380Y34462024D02*
X5254761Y34557262D01*
X5159523Y34604881D01*
X4302380Y34604881D01*
X4778571Y32985834D02*
X4826190Y32842977D01*
X4873809Y32795358D01*
X4969047Y32747739D01*
X5111904Y32747739D01*
X5207142Y32795358D01*
X5254761Y32842977D01*
X5302380Y32938215D01*
X5302380Y33319167D01*
X4302380Y33319167D01*
X4302380Y32985834D01*
X4350000Y32890596D01*
X4397619Y32842977D01*
X4492857Y32795358D01*
X4588095Y32795358D01*
X4683333Y32842977D01*
X4730952Y32890596D01*
X4778571Y32985834D01*
X4778571Y33319167D01*
X5302380Y32176310D02*
X5254761Y32271548D01*
X5207142Y32319167D01*
X5111904Y32366786D01*
X4826190Y32366786D01*
X4730952Y32319167D01*
X4683333Y32271548D01*
X4635714Y32176310D01*
X4635714Y32033453D01*
X4683333Y31938215D01*
X4730952Y31890596D01*
X4826190Y31842977D01*
X5111904Y31842977D01*
X5207142Y31890596D01*
X5254761Y31938215D01*
X5302380Y32033453D01*
X5302380Y32176310D01*
X5302380Y30985834D02*
X4778571Y30985834D01*
X4683333Y31033453D01*
X4635714Y31128691D01*
X4635714Y31319167D01*
X4683333Y31414405D01*
X5254761Y30985834D02*
X5302380Y31081072D01*
X5302380Y31319167D01*
X5254761Y31414405D01*
X5159523Y31462024D01*
X5064285Y31462024D01*
X4969047Y31414405D01*
X4921428Y31319167D01*
X4921428Y31081072D01*
X4873809Y30985834D01*
X5302380Y30509643D02*
X4635714Y30509643D01*
X4826190Y30509643D02*
X4730952Y30462024D01*
X4683333Y30414405D01*
X4635714Y30319167D01*
X4635714Y30223929D01*
X5302380Y29462024D02*
X4302380Y29462024D01*
X5254761Y29462024D02*
X5302380Y29557262D01*
X5302380Y29747739D01*
X5254761Y29842977D01*
X5207142Y29890596D01*
X5111904Y29938215D01*
X4826190Y29938215D01*
X4730952Y29890596D01*
X4683333Y29842977D01*
X4635714Y29747739D01*
X4635714Y29557262D01*
X4683333Y29462024D01*
X4302380Y28366786D02*
X5302380Y28033453D01*
X4302380Y27700120D01*
X4302380Y27176310D02*
X4302380Y27081072D01*
X4350000Y26985834D01*
X4397619Y26938215D01*
X4492857Y26890596D01*
X4683333Y26842977D01*
X4921428Y26842977D01*
X5111904Y26890596D01*
X5207142Y26938215D01*
X5254761Y26985834D01*
X5302380Y27081072D01*
X5302380Y27176310D01*
X5254761Y27271548D01*
X5207142Y27319167D01*
X5111904Y27366786D01*
X4921428Y27414405D01*
X4683333Y27414405D01*
X4492857Y27366786D01*
X4397619Y27319167D01*
X4350000Y27271548D01*
X4302380Y27176310D01*
X5207142Y26414405D02*
X5254761Y26366786D01*
X5302380Y26414405D01*
X5254761Y26462024D01*
X5207142Y26414405D01*
X5302380Y26414405D01*
X5302380Y25414405D02*
X5302380Y25985834D01*
X5302380Y25700120D02*
X4302380Y25700120D01*
X4445238Y25795358D01*
X4540476Y25890596D01*
X4588095Y25985834D01*
X6428571Y49081072D02*
X6476190Y48938215D01*
X6523809Y48890596D01*
X6619047Y48842977D01*
X6761904Y48842977D01*
X6857142Y48890596D01*
X6904761Y48938215D01*
X6952380Y49033453D01*
X6952380Y49414405D01*
X5952380Y49414405D01*
X5952380Y49081072D01*
X6000000Y48985834D01*
X6047619Y48938215D01*
X6142857Y48890596D01*
X6238095Y48890596D01*
X6333333Y48938215D01*
X6380952Y48985834D01*
X6428571Y49081072D01*
X6428571Y49414405D01*
X6285714Y48509643D02*
X6952380Y48271548D01*
X6285714Y48033453D02*
X6952380Y48271548D01*
X7190476Y48366786D01*
X7238095Y48414405D01*
X7285714Y48509643D01*
X5952380Y46985834D02*
X5952380Y46319167D01*
X6952380Y46985834D01*
X6952380Y46319167D01*
X6904761Y45557262D02*
X6952380Y45652500D01*
X6952380Y45842977D01*
X6904761Y45938215D01*
X6809523Y45985834D01*
X6428571Y45985834D01*
X6333333Y45938215D01*
X6285714Y45842977D01*
X6285714Y45652500D01*
X6333333Y45557262D01*
X6428571Y45509643D01*
X6523809Y45509643D01*
X6619047Y45985834D01*
X6285714Y45081072D02*
X6952380Y45081072D01*
X6380952Y45081072D02*
X6333333Y45033453D01*
X6285714Y44938215D01*
X6285714Y44795358D01*
X6333333Y44700120D01*
X6428571Y44652500D01*
X6952380Y44652500D01*
X6952380Y44176310D02*
X6285714Y44176310D01*
X5952380Y44176310D02*
X6000000Y44223929D01*
X6047619Y44176310D01*
X6000000Y44128691D01*
X5952380Y44176310D01*
X6047619Y44176310D01*
X6285714Y43700120D02*
X6952380Y43700120D01*
X6380952Y43700120D02*
X6333333Y43652500D01*
X6285714Y43557262D01*
X6285714Y43414405D01*
X6333333Y43319167D01*
X6428571Y43271548D01*
X6952380Y43271548D01*
X6285714Y42366786D02*
X7095238Y42366786D01*
X7190476Y42414405D01*
X7238095Y42462024D01*
X7285714Y42557262D01*
X7285714Y42700120D01*
X7238095Y42795358D01*
X6904761Y42366786D02*
X6952380Y42462024D01*
X6952380Y42652500D01*
X6904761Y42747739D01*
X6857142Y42795358D01*
X6761904Y42842977D01*
X6476190Y42842977D01*
X6380952Y42795358D01*
X6333333Y42747739D01*
X6285714Y42652500D01*
X6285714Y42462024D01*
X6333333Y42366786D01*
X6904761Y41842977D02*
X6952380Y41842977D01*
X7047619Y41890596D01*
X7095238Y41938215D01*
X6952380Y40176310D02*
X6952380Y40652500D01*
X5952380Y40652500D01*
X6285714Y39414405D02*
X6952380Y39414405D01*
X6285714Y39842977D02*
X6809523Y39842977D01*
X6904761Y39795358D01*
X6952380Y39700120D01*
X6952380Y39557262D01*
X6904761Y39462024D01*
X6857142Y39414405D01*
X7333333Y37890596D02*
X7285714Y37938215D01*
X7142857Y38033453D01*
X7047619Y38081072D01*
X6904761Y38128691D01*
X6666666Y38176310D01*
X6476190Y38176310D01*
X6238095Y38128691D01*
X6095238Y38081072D01*
X6000000Y38033453D01*
X5857142Y37938215D01*
X5809523Y37890596D01*
X6428571Y37176310D02*
X6476190Y37033453D01*
X6523809Y36985834D01*
X6619047Y36938215D01*
X6761904Y36938215D01*
X6857142Y36985834D01*
X6904761Y37033453D01*
X6952380Y37128691D01*
X6952380Y37509643D01*
X5952380Y37509643D01*
X5952380Y37176310D01*
X6000000Y37081072D01*
X6047619Y37033453D01*
X6142857Y36985834D01*
X6238095Y36985834D01*
X6333333Y37033453D01*
X6380952Y37081072D01*
X6428571Y37176310D01*
X6428571Y37509643D01*
X6952380Y36509643D02*
X5952380Y36509643D01*
X6285714Y35604881D02*
X6952380Y35604881D01*
X5904761Y35842977D02*
X6619047Y36081072D01*
X6619047Y35462024D01*
X5952380Y35176310D02*
X6952380Y34938215D01*
X6238095Y34747739D01*
X6952380Y34557262D01*
X5952380Y34319167D01*
X5952380Y33747739D02*
X5952380Y33557262D01*
X6000000Y33462024D01*
X6095238Y33366786D01*
X6285714Y33319167D01*
X6619047Y33319167D01*
X6809523Y33366786D01*
X6904761Y33462024D01*
X6952380Y33557262D01*
X6952380Y33747739D01*
X6904761Y33842977D01*
X6809523Y33938215D01*
X6619047Y33985834D01*
X6285714Y33985834D01*
X6095238Y33938215D01*
X6000000Y33842977D01*
X5952380Y33747739D01*
X6952380Y32890596D02*
X5952380Y32890596D01*
X5952380Y32509643D01*
X6000000Y32414405D01*
X6047619Y32366786D01*
X6142857Y32319167D01*
X6285714Y32319167D01*
X6380952Y32366786D01*
X6428571Y32414405D01*
X6476190Y32509643D01*
X6476190Y32890596D01*
X7333333Y31985834D02*
X7285714Y31938215D01*
X7142857Y31842977D01*
X7047619Y31795358D01*
X6904761Y31747739D01*
X6666666Y31700120D01*
X6476190Y31700120D01*
X6238095Y31747739D01*
X6095238Y31795358D01*
X6000000Y31842977D01*
X5857142Y31938215D01*
X5809523Y31985834D01*
X8602380Y49414405D02*
X7602380Y49414405D01*
X8602380Y48842977D01*
X7602380Y48842977D01*
X8602380Y48223929D02*
X8554761Y48319167D01*
X8507142Y48366786D01*
X8411904Y48414405D01*
X8126190Y48414405D01*
X8030952Y48366786D01*
X7983333Y48319167D01*
X7935714Y48223929D01*
X7935714Y48081072D01*
X7983333Y47985834D01*
X8030952Y47938215D01*
X8126190Y47890596D01*
X8411904Y47890596D01*
X8507142Y47938215D01*
X8554761Y47985834D01*
X8602380Y48081072D01*
X8602380Y48223929D01*
X7935714Y47557262D02*
X8602380Y47319167D01*
X7935714Y47081072D01*
X7602380Y46033453D02*
X7602380Y45414405D01*
X7983333Y45747739D01*
X7983333Y45604881D01*
X8030952Y45509643D01*
X8078571Y45462024D01*
X8173809Y45414405D01*
X8411904Y45414405D01*
X8507142Y45462024D01*
X8554761Y45509643D01*
X8602380Y45604881D01*
X8602380Y45890596D01*
X8554761Y45985834D01*
X8507142Y46033453D01*
X7602380Y44795358D02*
X7602380Y44700120D01*
X7650000Y44604881D01*
X7697619Y44557262D01*
X7792857Y44509643D01*
X7983333Y44462024D01*
X8221428Y44462024D01*
X8411904Y44509643D01*
X8507142Y44557262D01*
X8554761Y44604881D01*
X8602380Y44700120D01*
X8602380Y44795358D01*
X8554761Y44890596D01*
X8507142Y44938215D01*
X8411904Y44985834D01*
X8221428Y45033453D01*
X7983333Y45033453D01*
X7792857Y44985834D01*
X7697619Y44938215D01*
X7650000Y44890596D01*
X7602380Y44795358D01*
X8554761Y43985834D02*
X8602380Y43985834D01*
X8697619Y44033453D01*
X8745238Y44081072D01*
X7697619Y42842977D02*
X7650000Y42795358D01*
X7602380Y42700120D01*
X7602380Y42462024D01*
X7650000Y42366786D01*
X7697619Y42319167D01*
X7792857Y42271548D01*
X7888095Y42271548D01*
X8030952Y42319167D01*
X8602380Y42890596D01*
X8602380Y42271548D01*
X7602380Y41652500D02*
X7602380Y41557262D01*
X7650000Y41462024D01*
X7697619Y41414405D01*
X7792857Y41366786D01*
X7983333Y41319167D01*
X8221428Y41319167D01*
X8411904Y41366786D01*
X8507142Y41414405D01*
X8554761Y41462024D01*
X8602380Y41557262D01*
X8602380Y41652500D01*
X8554761Y41747739D01*
X8507142Y41795358D01*
X8411904Y41842977D01*
X8221428Y41890596D01*
X7983333Y41890596D01*
X7792857Y41842977D01*
X7697619Y41795358D01*
X7650000Y41747739D01*
X7602380Y41652500D01*
X7697619Y40938215D02*
X7650000Y40890596D01*
X7602380Y40795358D01*
X7602380Y40557262D01*
X7650000Y40462024D01*
X7697619Y40414405D01*
X7792857Y40366786D01*
X7888095Y40366786D01*
X8030952Y40414405D01*
X8602380Y40985834D01*
X8602380Y40366786D01*
X7697619Y39985834D02*
X7650000Y39938215D01*
X7602380Y39842977D01*
X7602380Y39604881D01*
X7650000Y39509643D01*
X7697619Y39462024D01*
X7792857Y39414405D01*
X7888095Y39414405D01*
X8030952Y39462024D01*
X8602380Y40033453D01*
X8602380Y39414405D01*
X92714285Y26371429D02*
X92676190Y26333334D01*
X92638095Y26219048D01*
X92638095Y26142858D01*
X92676190Y26028572D01*
X92752380Y25952381D01*
X92828571Y25914286D01*
X92980952Y25876191D01*
X93095238Y25876191D01*
X93247619Y25914286D01*
X93323809Y25952381D01*
X93400000Y26028572D01*
X93438095Y26142858D01*
X93438095Y26219048D01*
X93400000Y26333334D01*
X93361904Y26371429D01*
X93438095Y26866667D02*
X93438095Y27019048D01*
X93400000Y27095239D01*
X93323809Y27171429D01*
X93171428Y27209524D01*
X92904761Y27209524D01*
X92752380Y27171429D01*
X92676190Y27095239D01*
X92638095Y27019048D01*
X92638095Y26866667D01*
X92676190Y26790477D01*
X92752380Y26714286D01*
X92904761Y26676191D01*
X93171428Y26676191D01*
X93323809Y26714286D01*
X93400000Y26790477D01*
X93438095Y26866667D01*
X92638095Y27552381D02*
X93438095Y27552381D01*
X92866666Y27819048D01*
X93438095Y28085715D01*
X92638095Y28085715D01*
X92709523Y31714286D02*
X92747619Y31676191D01*
X92861904Y31638096D01*
X92938095Y31638096D01*
X93052380Y31676191D01*
X93128571Y31752381D01*
X93166666Y31828572D01*
X93204761Y31980953D01*
X93204761Y32095239D01*
X93166666Y32247620D01*
X93128571Y32323810D01*
X93052380Y32400000D01*
X92938095Y32438096D01*
X92861904Y32438096D01*
X92747619Y32400000D01*
X92709523Y32361905D01*
X92442857Y32438096D02*
X92252380Y31638096D01*
X92100000Y32209524D01*
X91947619Y31638096D01*
X91757142Y32438096D01*
X92859523Y36964286D02*
X92897619Y36926191D01*
X93011904Y36888096D01*
X93088095Y36888096D01*
X93202380Y36926191D01*
X93278571Y37002381D01*
X93316666Y37078572D01*
X93354761Y37230953D01*
X93354761Y37345239D01*
X93316666Y37497620D01*
X93278571Y37573810D01*
X93202380Y37650000D01*
X93088095Y37688096D01*
X93011904Y37688096D01*
X92897619Y37650000D01*
X92859523Y37611905D01*
X92059523Y36964286D02*
X92097619Y36926191D01*
X92211904Y36888096D01*
X92288095Y36888096D01*
X92402380Y36926191D01*
X92478571Y37002381D01*
X92516666Y37078572D01*
X92554761Y37230953D01*
X92554761Y37345239D01*
X92516666Y37497620D01*
X92478571Y37573810D01*
X92402380Y37650000D01*
X92288095Y37688096D01*
X92211904Y37688096D01*
X92097619Y37650000D01*
X92059523Y37611905D01*
X91792857Y37688096D02*
X91602380Y36888096D01*
X91450000Y37459524D01*
X91297619Y36888096D01*
X91107142Y37688096D01*
X93380952Y53178572D02*
X92619047Y53178572D01*
X93380952Y46678572D02*
X92619047Y46678572D01*
X93000000Y46297620D02*
X93000000Y47059524D01*
X92702380Y68297620D02*
X93702380Y67964286D01*
X92702380Y67630953D01*
X93702380Y67297620D02*
X92702380Y67297620D01*
X93416666Y66964286D01*
X92702380Y66630953D01*
X93702380Y66630953D01*
X93702380Y65726191D02*
X93178571Y65726191D01*
X93083333Y65773810D01*
X93035714Y65869048D01*
X93035714Y66059524D01*
X93083333Y66154762D01*
X93654761Y65726191D02*
X93702380Y65821429D01*
X93702380Y66059524D01*
X93654761Y66154762D01*
X93559523Y66202381D01*
X93464285Y66202381D01*
X93369047Y66154762D01*
X93321428Y66059524D01*
X93321428Y65821429D01*
X93273809Y65726191D01*
X93702380Y65250000D02*
X93035714Y65250000D01*
X92702380Y65250000D02*
X92750000Y65297620D01*
X92797619Y65250000D01*
X92750000Y65202381D01*
X92702380Y65250000D01*
X92797619Y65250000D01*
X93035714Y64773810D02*
X93702380Y64773810D01*
X93130952Y64773810D02*
X93083333Y64726191D01*
X93035714Y64630953D01*
X93035714Y64488096D01*
X93083333Y64392858D01*
X93178571Y64345239D01*
X93702380Y64345239D01*
X93761904Y62750000D02*
X93857142Y62797620D01*
X94000000Y62797620D01*
X94142857Y62750000D01*
X94238095Y62654762D01*
X94285714Y62559524D01*
X94333333Y62369048D01*
X94333333Y62226191D01*
X94285714Y62035715D01*
X94238095Y61940477D01*
X94142857Y61845239D01*
X94000000Y61797620D01*
X93904761Y61797620D01*
X93761904Y61845239D01*
X93714285Y61892858D01*
X93714285Y62226191D01*
X93904761Y62226191D01*
X93285714Y61797620D02*
X93285714Y62797620D01*
X92714285Y61797620D01*
X92714285Y62797620D01*
X92238095Y61797620D02*
X92238095Y62797620D01*
X92000000Y62797620D01*
X91857142Y62750000D01*
X91761904Y62654762D01*
X91714285Y62559524D01*
X91666666Y62369048D01*
X91666666Y62226191D01*
X91714285Y62035715D01*
X91761904Y61940477D01*
X91857142Y61845239D01*
X92000000Y61797620D01*
X92238095Y61797620D01*
X93630952Y69928572D02*
X92869047Y69928572D01*
X93250000Y69547620D02*
X93250000Y70309524D01*
D11*
%TO.C,TP13*%
X15950000Y60250000D02*
G75*
G03*
X15950000Y60250000I-700000J0D01*
G01*
%TO.C,TP12*%
X20950000Y66500000D02*
G75*
G03*
X20950000Y66500000I-700000J0D01*
G01*
%TO.C,TP11*%
X3450000Y62500000D02*
G75*
G03*
X3450000Y62500000I-700000J0D01*
G01*
%TO.C,TP10*%
X3450000Y65000000D02*
G75*
G03*
X3450000Y65000000I-700000J0D01*
G01*
%TO.C,TP9*%
X36200000Y61500000D02*
G75*
G03*
X36200000Y61500000I-700000J0D01*
G01*
%TO.C,TP8*%
X36200000Y25250000D02*
G75*
G03*
X36200000Y25250000I-700000J0D01*
G01*
%TO.C,TP7*%
X25450000Y13250000D02*
G75*
G03*
X25450000Y13250000I-700000J0D01*
G01*
%TO.C,TP6*%
X34700000Y26750000D02*
G75*
G03*
X34700000Y26750000I-700000J0D01*
G01*
%TO.C,TP5*%
X29950000Y55000000D02*
G75*
G03*
X29950000Y55000000I-700000J0D01*
G01*
%TO.C,TP4*%
X31950000Y28000000D02*
G75*
G03*
X31950000Y28000000I-700000J0D01*
G01*
%TO.C,TP3*%
X24950000Y23000000D02*
G75*
G03*
X24950000Y23000000I-700000J0D01*
G01*
%TO.C,TP2*%
X21700000Y1750000D02*
G75*
G03*
X21700000Y1750000I-700000J0D01*
G01*
%TO.C,J6*%
X94090000Y16500000D02*
X94090000Y15900000D01*
X94690000Y16200000D02*
X94090000Y16500000D01*
X94090000Y15900000D02*
X94690000Y16200000D01*
X105610000Y11870000D02*
X107110000Y12120000D01*
X105610000Y10370000D02*
X105610000Y11870000D01*
X107110000Y10120000D02*
X105610000Y10370000D01*
X107110000Y12120000D02*
X107110000Y10120000D01*
X105610000Y16950000D02*
X107110000Y17200000D01*
X105610000Y15450000D02*
X105610000Y16950000D01*
X107110000Y15200000D02*
X105610000Y15450000D01*
X107110000Y17200000D02*
X107110000Y15200000D01*
X105610000Y7470000D02*
X105610000Y19850000D01*
X103810000Y7470000D02*
X105610000Y7470000D01*
X103810000Y19850000D02*
X103810000Y7470000D01*
X105610000Y19850000D02*
X103810000Y19850000D01*
X94890000Y7470000D02*
X94890000Y19850000D01*
X107110000Y7470000D02*
X94890000Y7470000D01*
X107110000Y19850000D02*
X107110000Y7470000D01*
X94890000Y19850000D02*
X107110000Y19850000D01*
%TO.C,J5*%
X94090000Y53300000D02*
X94090000Y52700000D01*
X94690000Y53000000D02*
X94090000Y53300000D01*
X94090000Y52700000D02*
X94690000Y53000000D01*
X105610000Y48670000D02*
X107110000Y48920000D01*
X105610000Y47170000D02*
X105610000Y48670000D01*
X107110000Y46920000D02*
X105610000Y47170000D01*
X107110000Y48920000D02*
X107110000Y46920000D01*
X105610000Y53750000D02*
X107110000Y54000000D01*
X105610000Y52250000D02*
X105610000Y53750000D01*
X107110000Y52000000D02*
X105610000Y52250000D01*
X107110000Y54000000D02*
X107110000Y52000000D01*
X105610000Y44270000D02*
X105610000Y56650000D01*
X103810000Y44270000D02*
X105610000Y44270000D01*
X103810000Y56650000D02*
X103810000Y44270000D01*
X105610000Y56650000D02*
X103810000Y56650000D01*
X94890000Y44270000D02*
X94890000Y56650000D01*
X107110000Y44270000D02*
X94890000Y44270000D01*
X107110000Y56650000D02*
X107110000Y44270000D01*
X94890000Y56650000D02*
X107110000Y56650000D01*
D12*
%TO.C,K1*%
X91700000Y31110000D02*
X78800000Y31110000D01*
X78746000Y1900000D02*
X78746000Y31100000D01*
X91700000Y1900000D02*
X91700000Y31100000D01*
X91700000Y1900000D02*
X78800000Y1900000D01*
D11*
%TO.C,J7*%
X94090000Y69300000D02*
X94090000Y68700000D01*
X94690000Y69000000D02*
X94090000Y69300000D01*
X94090000Y68700000D02*
X94690000Y69000000D01*
X105610000Y64670000D02*
X107110000Y64920000D01*
X105610000Y63170000D02*
X105610000Y64670000D01*
X107110000Y62920000D02*
X105610000Y63170000D01*
X107110000Y64920000D02*
X107110000Y62920000D01*
X105610000Y69750000D02*
X107110000Y70000000D01*
X105610000Y68250000D02*
X105610000Y69750000D01*
X107110000Y68000000D02*
X105610000Y68250000D01*
X107110000Y70000000D02*
X107110000Y68000000D01*
X105610000Y60270000D02*
X105610000Y72650000D01*
X103810000Y60270000D02*
X105610000Y60270000D01*
X103810000Y72650000D02*
X103810000Y60270000D01*
X105610000Y72650000D02*
X103810000Y72650000D01*
X94890000Y60270000D02*
X94890000Y72650000D01*
X107110000Y60270000D02*
X94890000Y60270000D01*
X107110000Y72650000D02*
X107110000Y60270000D01*
X94890000Y72650000D02*
X107110000Y72650000D01*
%TO.C,J4*%
X94090000Y37500000D02*
X94090000Y36900000D01*
X94690000Y37200000D02*
X94090000Y37500000D01*
X94090000Y36900000D02*
X94690000Y37200000D01*
X105610000Y27790000D02*
X107110000Y28040000D01*
X105610000Y26290000D02*
X105610000Y27790000D01*
X107110000Y26040000D02*
X105610000Y26290000D01*
X107110000Y28040000D02*
X107110000Y26040000D01*
X105610000Y32870000D02*
X107110000Y33120000D01*
X105610000Y31370000D02*
X105610000Y32870000D01*
X107110000Y31120000D02*
X105610000Y31370000D01*
X107110000Y33120000D02*
X107110000Y31120000D01*
X105610000Y37950000D02*
X107110000Y38200000D01*
X105610000Y36450000D02*
X105610000Y37950000D01*
X107110000Y36200000D02*
X105610000Y36450000D01*
X107110000Y38200000D02*
X107110000Y36200000D01*
X105610000Y23390000D02*
X105610000Y40850000D01*
X103810000Y23390000D02*
X105610000Y23390000D01*
X103810000Y40850000D02*
X103810000Y23390000D01*
X105610000Y40850000D02*
X103810000Y40850000D01*
X94890000Y23390000D02*
X94890000Y40850000D01*
X107110000Y23390000D02*
X94890000Y23390000D01*
X107110000Y40850000D02*
X107110000Y23390000D01*
X94890000Y40850000D02*
X107110000Y40850000D01*
%TO.C,F1*%
X83500000Y66000000D02*
X81000000Y66000000D01*
X91000000Y66000000D02*
X88500000Y66000000D01*
X91000000Y54000000D02*
X88500000Y54000000D01*
X81000000Y54000000D02*
X83500000Y54000000D01*
X86000000Y64500000D02*
X86000000Y55500000D01*
X83500000Y64500000D02*
X88500000Y64500000D01*
X83500000Y55500000D02*
X88500000Y55500000D01*
X84100000Y50000000D02*
X83500000Y50000000D01*
X87900000Y70000000D02*
X88500000Y70000000D01*
X88500000Y70000000D02*
X88500000Y50000000D01*
X88500000Y50000000D02*
X87900000Y50000000D01*
X83500000Y50000000D02*
X83500000Y70000000D01*
X83500000Y70000000D02*
X84100000Y70000000D01*
X84100000Y47378000D02*
X81000000Y47378000D01*
X87900000Y72000000D02*
X91000000Y72000000D01*
X91000000Y72000000D02*
X91000000Y47400000D01*
X91000000Y47400000D02*
X87900000Y47400000D01*
X81000000Y47400000D02*
X81000000Y72000000D01*
X81000000Y72000000D02*
X84100000Y72000000D01*
%TO.C,C15*%
X77600000Y62510000D02*
X77600000Y61510000D01*
X78100000Y62010000D02*
X77100000Y62010000D01*
X76860000Y56204437D02*
X75795563Y55140000D01*
X76860000Y62795563D02*
X75795563Y63860000D01*
X76860000Y62795563D02*
X76860000Y61010000D01*
X76860000Y56204437D02*
X76860000Y57990000D01*
X75795563Y55140000D02*
X68140000Y55140000D01*
X75795563Y63860000D02*
X68140000Y63860000D01*
X68140000Y63860000D02*
X68140000Y61010000D01*
X68140000Y55140000D02*
X68140000Y57990000D01*
%TO.C,C13*%
X77600000Y72510000D02*
X77600000Y71510000D01*
X78100000Y72010000D02*
X77100000Y72010000D01*
X76860000Y66204437D02*
X75795563Y65140000D01*
X76860000Y72795563D02*
X75795563Y73860000D01*
X76860000Y72795563D02*
X76860000Y71010000D01*
X76860000Y66204437D02*
X76860000Y67990000D01*
X75795563Y65140000D02*
X68140000Y65140000D01*
X75795563Y73860000D02*
X68140000Y73860000D01*
X68140000Y73860000D02*
X68140000Y71010000D01*
X68140000Y65140000D02*
X68140000Y67990000D01*
%TO.C,TP13*%
D10*
X16892857Y62347620D02*
X16559523Y61347620D01*
X16226190Y62347620D01*
X15892857Y61347620D02*
X15892857Y62347620D01*
X15559523Y61633334D01*
X15226190Y62347620D01*
X15226190Y61347620D01*
X14750000Y61347620D02*
X14750000Y62347620D01*
X14273809Y61347620D02*
X14273809Y62347620D01*
X14035714Y62347620D01*
X13892857Y62300000D01*
X13797619Y62204762D01*
X13750000Y62109524D01*
X13702380Y61919048D01*
X13702380Y61776191D01*
X13750000Y61585715D01*
X13797619Y61490477D01*
X13892857Y61395239D01*
X14035714Y61347620D01*
X14273809Y61347620D01*
%TO.C,TP12*%
X21488095Y68550000D02*
X21583333Y68597620D01*
X21726190Y68597620D01*
X21869047Y68550000D01*
X21964285Y68454762D01*
X22011904Y68359524D01*
X22059523Y68169048D01*
X22059523Y68026191D01*
X22011904Y67835715D01*
X21964285Y67740477D01*
X21869047Y67645239D01*
X21726190Y67597620D01*
X21630952Y67597620D01*
X21488095Y67645239D01*
X21440476Y67692858D01*
X21440476Y68026191D01*
X21630952Y68026191D01*
X21011904Y67597620D02*
X21011904Y68597620D01*
X20440476Y67597620D01*
X20440476Y68597620D01*
X19964285Y67597620D02*
X19964285Y68597620D01*
X19726190Y68597620D01*
X19583333Y68550000D01*
X19488095Y68454762D01*
X19440476Y68359524D01*
X19392857Y68169048D01*
X19392857Y68026191D01*
X19440476Y67835715D01*
X19488095Y67740477D01*
X19583333Y67645239D01*
X19726190Y67597620D01*
X19964285Y67597620D01*
X19011904Y67645239D02*
X18869047Y67597620D01*
X18630952Y67597620D01*
X18535714Y67645239D01*
X18488095Y67692858D01*
X18440476Y67788096D01*
X18440476Y67883334D01*
X18488095Y67978572D01*
X18535714Y68026191D01*
X18630952Y68073810D01*
X18821428Y68121429D01*
X18916666Y68169048D01*
X18964285Y68216667D01*
X19011904Y68311905D01*
X19011904Y68407143D01*
X18964285Y68502381D01*
X18916666Y68550000D01*
X18821428Y68597620D01*
X18583333Y68597620D01*
X18440476Y68550000D01*
%TO.C,TP11*%
X7047619Y63047620D02*
X6714285Y62047620D01*
X6380952Y63047620D01*
X6047619Y62047620D02*
X6047619Y63047620D01*
X5571428Y62047620D02*
X5571428Y63047620D01*
X5333333Y63047620D01*
X5190476Y63000000D01*
X5095238Y62904762D01*
X5047619Y62809524D01*
X5000000Y62619048D01*
X5000000Y62476191D01*
X5047619Y62285715D01*
X5095238Y62190477D01*
X5190476Y62095239D01*
X5333333Y62047620D01*
X5571428Y62047620D01*
X4619047Y62952381D02*
X4571428Y63000000D01*
X4476190Y63047620D01*
X4238095Y63047620D01*
X4142857Y63000000D01*
X4095238Y62952381D01*
X4047619Y62857143D01*
X4047619Y62761905D01*
X4095238Y62619048D01*
X4666666Y62047620D01*
X4047619Y62047620D01*
%TO.C,TP10*%
X6797619Y65547620D02*
X6464285Y64547620D01*
X6130952Y65547620D01*
X5797619Y64547620D02*
X5797619Y65547620D01*
X5321428Y64547620D02*
X5321428Y65547620D01*
X5083333Y65547620D01*
X4940476Y65500000D01*
X4845238Y65404762D01*
X4797619Y65309524D01*
X4750000Y65119048D01*
X4750000Y64976191D01*
X4797619Y64785715D01*
X4845238Y64690477D01*
X4940476Y64595239D01*
X5083333Y64547620D01*
X5321428Y64547620D01*
X3797619Y64547620D02*
X4369047Y64547620D01*
X4083333Y64547620D02*
X4083333Y65547620D01*
X4178571Y65404762D01*
X4273809Y65309524D01*
X4369047Y65261905D01*
%TO.C,TP9*%
X37023809Y63597620D02*
X36690476Y62597620D01*
X36357142Y63597620D01*
X36023809Y62597620D02*
X36023809Y63597620D01*
X35595238Y62645239D02*
X35452380Y62597620D01*
X35214285Y62597620D01*
X35119047Y62645239D01*
X35071428Y62692858D01*
X35023809Y62788096D01*
X35023809Y62883334D01*
X35071428Y62978572D01*
X35119047Y63026191D01*
X35214285Y63073810D01*
X35404761Y63121429D01*
X35500000Y63169048D01*
X35547619Y63216667D01*
X35595238Y63311905D01*
X35595238Y63407143D01*
X35547619Y63502381D01*
X35500000Y63550000D01*
X35404761Y63597620D01*
X35166666Y63597620D01*
X35023809Y63550000D01*
X34642857Y63502381D02*
X34595238Y63550000D01*
X34500000Y63597620D01*
X34261904Y63597620D01*
X34166666Y63550000D01*
X34119047Y63502381D01*
X34071428Y63407143D01*
X34071428Y63311905D01*
X34119047Y63169048D01*
X34690476Y62597620D01*
X34071428Y62597620D01*
%TO.C,TP8*%
X37023809Y24047620D02*
X36690476Y23047620D01*
X36357142Y24047620D01*
X36023809Y23047620D02*
X36023809Y24047620D01*
X35595238Y23095239D02*
X35452380Y23047620D01*
X35214285Y23047620D01*
X35119047Y23095239D01*
X35071428Y23142858D01*
X35023809Y23238096D01*
X35023809Y23333334D01*
X35071428Y23428572D01*
X35119047Y23476191D01*
X35214285Y23523810D01*
X35404761Y23571429D01*
X35500000Y23619048D01*
X35547619Y23666667D01*
X35595238Y23761905D01*
X35595238Y23857143D01*
X35547619Y23952381D01*
X35500000Y24000000D01*
X35404761Y24047620D01*
X35166666Y24047620D01*
X35023809Y24000000D01*
X34071428Y23047620D02*
X34642857Y23047620D01*
X34357142Y23047620D02*
X34357142Y24047620D01*
X34452380Y23904762D01*
X34547619Y23809524D01*
X34642857Y23761905D01*
%TO.C,TP7*%
X26011904Y15300000D02*
X26107142Y15347620D01*
X26250000Y15347620D01*
X26392857Y15300000D01*
X26488095Y15204762D01*
X26535714Y15109524D01*
X26583333Y14919048D01*
X26583333Y14776191D01*
X26535714Y14585715D01*
X26488095Y14490477D01*
X26392857Y14395239D01*
X26250000Y14347620D01*
X26154761Y14347620D01*
X26011904Y14395239D01*
X25964285Y14442858D01*
X25964285Y14776191D01*
X26154761Y14776191D01*
X25535714Y14347620D02*
X25535714Y15347620D01*
X24964285Y14347620D01*
X24964285Y15347620D01*
X24488095Y14347620D02*
X24488095Y15347620D01*
X24250000Y15347620D01*
X24107142Y15300000D01*
X24011904Y15204762D01*
X23964285Y15109524D01*
X23916666Y14919048D01*
X23916666Y14776191D01*
X23964285Y14585715D01*
X24011904Y14490477D01*
X24107142Y14395239D01*
X24250000Y14347620D01*
X24488095Y14347620D01*
X23488095Y14347620D02*
X23488095Y15347620D01*
X23107142Y15347620D01*
X23011904Y15300000D01*
X22964285Y15252381D01*
X22916666Y15157143D01*
X22916666Y15014286D01*
X22964285Y14919048D01*
X23011904Y14871429D01*
X23107142Y14823810D01*
X23488095Y14823810D01*
%TO.C,TP6*%
X35261904Y28800000D02*
X35357142Y28847620D01*
X35500000Y28847620D01*
X35642857Y28800000D01*
X35738095Y28704762D01*
X35785714Y28609524D01*
X35833333Y28419048D01*
X35833333Y28276191D01*
X35785714Y28085715D01*
X35738095Y27990477D01*
X35642857Y27895239D01*
X35500000Y27847620D01*
X35404761Y27847620D01*
X35261904Y27895239D01*
X35214285Y27942858D01*
X35214285Y28276191D01*
X35404761Y28276191D01*
X34785714Y27847620D02*
X34785714Y28847620D01*
X34214285Y27847620D01*
X34214285Y28847620D01*
X33738095Y27847620D02*
X33738095Y28847620D01*
X33500000Y28847620D01*
X33357142Y28800000D01*
X33261904Y28704762D01*
X33214285Y28609524D01*
X33166666Y28419048D01*
X33166666Y28276191D01*
X33214285Y28085715D01*
X33261904Y27990477D01*
X33357142Y27895239D01*
X33500000Y27847620D01*
X33738095Y27847620D01*
X32738095Y27847620D02*
X32738095Y28847620D01*
X32357142Y28847620D01*
X32261904Y28800000D01*
X32214285Y28752381D01*
X32166666Y28657143D01*
X32166666Y28514286D01*
X32214285Y28419048D01*
X32261904Y28371429D01*
X32357142Y28323810D01*
X32738095Y28323810D01*
%TO.C,TP5*%
X31273809Y56097620D02*
X31273809Y57097620D01*
X31273809Y56621429D02*
X30702380Y56621429D01*
X30702380Y56097620D02*
X30702380Y57097620D01*
X30273809Y57002381D02*
X30226190Y57050000D01*
X30130952Y57097620D01*
X29892857Y57097620D01*
X29797619Y57050000D01*
X29750000Y57002381D01*
X29702380Y56907143D01*
X29702380Y56811905D01*
X29750000Y56669048D01*
X30321428Y56097620D01*
X29702380Y56097620D01*
X29273809Y56097620D02*
X29273809Y57097620D01*
X28797619Y56097620D02*
X28797619Y57097620D01*
X28226190Y56097620D01*
X28226190Y57097620D01*
X27178571Y56097620D02*
X27511904Y56573810D01*
X27750000Y56097620D02*
X27750000Y57097620D01*
X27369047Y57097620D01*
X27273809Y57050000D01*
X27226190Y57002381D01*
X27178571Y56907143D01*
X27178571Y56764286D01*
X27226190Y56669048D01*
X27273809Y56621429D01*
X27369047Y56573810D01*
X27750000Y56573810D01*
%TO.C,TP4*%
X33178571Y29097620D02*
X33178571Y30097620D01*
X33178571Y29621429D02*
X32607142Y29621429D01*
X32607142Y29097620D02*
X32607142Y30097620D01*
X32178571Y30002381D02*
X32130952Y30050000D01*
X32035714Y30097620D01*
X31797619Y30097620D01*
X31702380Y30050000D01*
X31654761Y30002381D01*
X31607142Y29907143D01*
X31607142Y29811905D01*
X31654761Y29669048D01*
X32226190Y29097620D01*
X31607142Y29097620D01*
X31178571Y29097620D02*
X31178571Y30097620D01*
X30702380Y29097620D02*
X30702380Y30097620D01*
X30130952Y29097620D01*
X30130952Y30097620D01*
X29178571Y29097620D02*
X29654761Y29097620D01*
X29654761Y30097620D01*
%TO.C,TP3*%
X26273809Y24097620D02*
X26273809Y25097620D01*
X26273809Y24621429D02*
X25702380Y24621429D01*
X25702380Y24097620D02*
X25702380Y25097620D01*
X24702380Y24097620D02*
X25273809Y24097620D01*
X24988095Y24097620D02*
X24988095Y25097620D01*
X25083333Y24954762D01*
X25178571Y24859524D01*
X25273809Y24811905D01*
X24273809Y24097620D02*
X24273809Y25097620D01*
X23797619Y24097620D02*
X23797619Y25097620D01*
X23226190Y24097620D01*
X23226190Y25097620D01*
X22178571Y24097620D02*
X22511904Y24573810D01*
X22750000Y24097620D02*
X22750000Y25097620D01*
X22369047Y25097620D01*
X22273809Y25050000D01*
X22226190Y25002381D01*
X22178571Y24907143D01*
X22178571Y24764286D01*
X22226190Y24669048D01*
X22273809Y24621429D01*
X22369047Y24573810D01*
X22750000Y24573810D01*
%TO.C,TP2*%
X22928571Y2847620D02*
X22928571Y3847620D01*
X22928571Y3371429D02*
X22357142Y3371429D01*
X22357142Y2847620D02*
X22357142Y3847620D01*
X21357142Y2847620D02*
X21928571Y2847620D01*
X21642857Y2847620D02*
X21642857Y3847620D01*
X21738095Y3704762D01*
X21833333Y3609524D01*
X21928571Y3561905D01*
X20928571Y2847620D02*
X20928571Y3847620D01*
X20452380Y2847620D02*
X20452380Y3847620D01*
X19880952Y2847620D01*
X19880952Y3847620D01*
X18928571Y2847620D02*
X19404761Y2847620D01*
X19404761Y3847620D01*
%TO.C,J6*%
X92750000Y15517143D02*
X92702380Y15612381D01*
X92702380Y15755239D01*
X92750000Y15898096D01*
X92845238Y15993334D01*
X92940476Y16040953D01*
X93130952Y16088572D01*
X93273809Y16088572D01*
X93464285Y16040953D01*
X93559523Y15993334D01*
X93654761Y15898096D01*
X93702380Y15755239D01*
X93702380Y15660000D01*
X93654761Y15517143D01*
X93607142Y15469524D01*
X93273809Y15469524D01*
X93273809Y15660000D01*
X93702380Y15040953D02*
X93035714Y15040953D01*
X93226190Y15040953D02*
X93130952Y14993334D01*
X93083333Y14945715D01*
X93035714Y14850477D01*
X93035714Y14755239D01*
X93702380Y14279048D02*
X93654761Y14374286D01*
X93607142Y14421905D01*
X93511904Y14469524D01*
X93226190Y14469524D01*
X93130952Y14421905D01*
X93083333Y14374286D01*
X93035714Y14279048D01*
X93035714Y14136191D01*
X93083333Y14040953D01*
X93130952Y13993334D01*
X93226190Y13945715D01*
X93511904Y13945715D01*
X93607142Y13993334D01*
X93654761Y14040953D01*
X93702380Y14136191D01*
X93702380Y14279048D01*
X93035714Y13088572D02*
X93702380Y13088572D01*
X93035714Y13517143D02*
X93559523Y13517143D01*
X93654761Y13469524D01*
X93702380Y13374286D01*
X93702380Y13231429D01*
X93654761Y13136191D01*
X93607142Y13088572D01*
X93035714Y12612381D02*
X93702380Y12612381D01*
X93130952Y12612381D02*
X93083333Y12564762D01*
X93035714Y12469524D01*
X93035714Y12326667D01*
X93083333Y12231429D01*
X93178571Y12183810D01*
X93702380Y12183810D01*
X93702380Y11279048D02*
X92702380Y11279048D01*
X93654761Y11279048D02*
X93702380Y11374286D01*
X93702380Y11564762D01*
X93654761Y11660000D01*
X93607142Y11707620D01*
X93511904Y11755239D01*
X93226190Y11755239D01*
X93130952Y11707620D01*
X93083333Y11660000D01*
X93035714Y11564762D01*
X93035714Y11374286D01*
X93083333Y11279048D01*
%TO.C,J5*%
X93452380Y51714286D02*
X92452380Y51714286D01*
X93166666Y51380953D01*
X92452380Y51047620D01*
X93452380Y51047620D01*
X92452380Y50380953D02*
X92452380Y50190477D01*
X92500000Y50095239D01*
X92595238Y50000000D01*
X92785714Y49952381D01*
X93119047Y49952381D01*
X93309523Y50000000D01*
X93404761Y50095239D01*
X93452380Y50190477D01*
X93452380Y50380953D01*
X93404761Y50476191D01*
X93309523Y50571429D01*
X93119047Y50619048D01*
X92785714Y50619048D01*
X92595238Y50571429D01*
X92500000Y50476191D01*
X92452380Y50380953D01*
X92452380Y49666667D02*
X92452380Y49095239D01*
X93452380Y49380953D02*
X92452380Y49380953D01*
X92547619Y48809524D02*
X92500000Y48761905D01*
X92452380Y48666667D01*
X92452380Y48428572D01*
X92500000Y48333334D01*
X92547619Y48285715D01*
X92642857Y48238096D01*
X92738095Y48238096D01*
X92880952Y48285715D01*
X93452380Y48857143D01*
X93452380Y48238096D01*
%TO.C,K1*%
X92917904Y4590477D02*
X92117904Y4590477D01*
X92917904Y4133334D02*
X92460761Y4476191D01*
X92117904Y4133334D02*
X92575047Y4590477D01*
X92917904Y3371429D02*
X92917904Y3828572D01*
X92917904Y3600000D02*
X92117904Y3600000D01*
X92232190Y3676191D01*
X92308380Y3752381D01*
X92346476Y3828572D01*
%TO.C,J4*%
X93452380Y41964286D02*
X92452380Y41964286D01*
X93166666Y41630953D01*
X92452380Y41297620D01*
X93452380Y41297620D01*
X92452380Y40630953D02*
X92452380Y40440477D01*
X92500000Y40345239D01*
X92595238Y40250000D01*
X92785714Y40202381D01*
X93119047Y40202381D01*
X93309523Y40250000D01*
X93404761Y40345239D01*
X93452380Y40440477D01*
X93452380Y40630953D01*
X93404761Y40726191D01*
X93309523Y40821429D01*
X93119047Y40869048D01*
X92785714Y40869048D01*
X92595238Y40821429D01*
X92500000Y40726191D01*
X92452380Y40630953D01*
X92452380Y39916667D02*
X92452380Y39345239D01*
X93452380Y39630953D02*
X92452380Y39630953D01*
X93452380Y38488096D02*
X93452380Y39059524D01*
X93452380Y38773810D02*
X92452380Y38773810D01*
X92595238Y38869048D01*
X92690476Y38964286D01*
X92738095Y39059524D01*
%TO.C,F1*%
X79973857Y70123667D02*
X79973857Y70390334D01*
X80392904Y70390334D02*
X79592904Y70390334D01*
X79592904Y70009381D01*
X80392904Y69285572D02*
X80392904Y69742715D01*
X80392904Y69514143D02*
X79592904Y69514143D01*
X79707190Y69590334D01*
X79783380Y69666524D01*
X79821476Y69742715D01*
%TO.C,C15*%
X73014285Y64514286D02*
X73052380Y64476191D01*
X73166666Y64438096D01*
X73242857Y64438096D01*
X73357142Y64476191D01*
X73433333Y64552381D01*
X73471428Y64628572D01*
X73509523Y64780953D01*
X73509523Y64895239D01*
X73471428Y65047620D01*
X73433333Y65123810D01*
X73357142Y65200000D01*
X73242857Y65238096D01*
X73166666Y65238096D01*
X73052380Y65200000D01*
X73014285Y65161905D01*
X72252380Y64438096D02*
X72709523Y64438096D01*
X72480952Y64438096D02*
X72480952Y65238096D01*
X72557142Y65123810D01*
X72633333Y65047620D01*
X72709523Y65009524D01*
X71528571Y65238096D02*
X71909523Y65238096D01*
X71947619Y64857143D01*
X71909523Y64895239D01*
X71833333Y64933334D01*
X71642857Y64933334D01*
X71566666Y64895239D01*
X71528571Y64857143D01*
X71490476Y64780953D01*
X71490476Y64590477D01*
X71528571Y64514286D01*
X71566666Y64476191D01*
X71642857Y64438096D01*
X71833333Y64438096D01*
X71909523Y64476191D01*
X71947619Y64514286D01*
%TO.C,C13*%
X73014285Y74514286D02*
X73052380Y74476191D01*
X73166666Y74438096D01*
X73242857Y74438096D01*
X73357142Y74476191D01*
X73433333Y74552381D01*
X73471428Y74628572D01*
X73509523Y74780953D01*
X73509523Y74895239D01*
X73471428Y75047620D01*
X73433333Y75123810D01*
X73357142Y75200000D01*
X73242857Y75238096D01*
X73166666Y75238096D01*
X73052380Y75200000D01*
X73014285Y75161905D01*
X72252380Y74438096D02*
X72709523Y74438096D01*
X72480952Y74438096D02*
X72480952Y75238096D01*
X72557142Y75123810D01*
X72633333Y75047620D01*
X72709523Y75009524D01*
X71985714Y75238096D02*
X71490476Y75238096D01*
X71757142Y74933334D01*
X71642857Y74933334D01*
X71566666Y74895239D01*
X71528571Y74857143D01*
X71490476Y74780953D01*
X71490476Y74590477D01*
X71528571Y74514286D01*
X71566666Y74476191D01*
X71642857Y74438096D01*
X71871428Y74438096D01*
X71947619Y74476191D01*
X71985714Y74514286D01*
%TD*%
M02*
