%TF.GenerationSoftware,KiCad,Pcbnew,(5.1.10)-1*%
%TF.CreationDate,2022-06-02T12:59:49+08:00*%
%TF.ProjectId,motor_control,6d6f746f-725f-4636-9f6e-74726f6c2e6b,rev?*%
%TF.SameCoordinates,Original*%
%TF.FileFunction,Paste,Top*%
%TF.FilePolarity,Positive*%
%FSLAX46Y46*%
G04 Gerber Fmt 4.6, Leading zero omitted, Abs format (unit mm)*
G04 Created by KiCad (PCBNEW (5.1.10)-1) date 2022-06-02 12:59:49*
%MOMM*%
%LPD*%
G01*
G04 APERTURE LIST*
%ADD10R,1.800000X1.130000*%
%ADD11R,1.130000X1.800000*%
%ADD12R,1.160000X2.720000*%
%ADD13R,4.400000X2.200000*%
%ADD14R,3.050000X2.750000*%
%ADD15R,2.200000X1.200000*%
%ADD16R,2.750000X3.050000*%
%ADD17R,1.200000X2.200000*%
%ADD18O,1.800000X0.600000*%
%ADD19R,2.000000X1.780000*%
%ADD20O,2.000000X0.800000*%
%ADD21R,1.160000X1.470000*%
%ADD22R,1.470000X1.160000*%
%ADD23R,3.150000X1.000000*%
G04 APERTURE END LIST*
D10*
%TO.C,R13*%
X40750000Y10510000D03*
X40750000Y13490000D03*
%TD*%
D11*
%TO.C,R9*%
X33160000Y24000000D03*
X36140000Y24000000D03*
%TD*%
D10*
%TO.C,R8*%
X38000000Y52500000D03*
X38000000Y55480000D03*
%TD*%
D12*
%TO.C,C6*%
X47500000Y10750000D03*
X44550000Y10750000D03*
%TD*%
%TO.C,C5*%
X41200000Y24250000D03*
X38250000Y24250000D03*
%TD*%
%TO.C,C4*%
X41225000Y49250000D03*
X38275000Y49250000D03*
%TD*%
D13*
%TO.C,Q2B1*%
X42500000Y22150000D03*
X42500000Y19210000D03*
X42500000Y16270000D03*
%TD*%
%TO.C,Q1B1*%
X40250000Y43850000D03*
X40250000Y40910000D03*
X40250000Y37970000D03*
%TD*%
D14*
%TO.C,Q2*%
X36325000Y31275000D03*
X32975000Y28225000D03*
X36325000Y28225000D03*
X32975000Y31275000D03*
D15*
X40950000Y32030000D03*
X40950000Y27470000D03*
%TD*%
D16*
%TO.C,Q3*%
X36025000Y15675000D03*
X32975000Y19025000D03*
X32975000Y15675000D03*
X36025000Y19025000D03*
D17*
X36780000Y11050000D03*
X32220000Y11050000D03*
%TD*%
D11*
%TO.C,R19*%
X26190000Y54650000D03*
X23210000Y54650000D03*
%TD*%
%TO.C,R18*%
X25990000Y26000000D03*
X23010000Y26000000D03*
%TD*%
%TO.C,R17*%
X26990000Y71000000D03*
X24010000Y71000000D03*
%TD*%
D16*
%TO.C,Q1*%
X46050000Y57650000D03*
X43000000Y61000000D03*
X43000000Y57650000D03*
X46050000Y61000000D03*
D17*
X46805000Y53025000D03*
X42245000Y53025000D03*
%TD*%
%TO.C,U9*%
G36*
G01*
X39255000Y68500000D02*
X39555000Y68500000D01*
G75*
G02*
X39705000Y68350000I0J-150000D01*
G01*
X39705000Y66700000D01*
G75*
G02*
X39555000Y66550000I-150000J0D01*
G01*
X39255000Y66550000D01*
G75*
G02*
X39105000Y66700000I0J150000D01*
G01*
X39105000Y68350000D01*
G75*
G02*
X39255000Y68500000I150000J0D01*
G01*
G37*
G36*
G01*
X37985000Y68500000D02*
X38285000Y68500000D01*
G75*
G02*
X38435000Y68350000I0J-150000D01*
G01*
X38435000Y66700000D01*
G75*
G02*
X38285000Y66550000I-150000J0D01*
G01*
X37985000Y66550000D01*
G75*
G02*
X37835000Y66700000I0J150000D01*
G01*
X37835000Y68350000D01*
G75*
G02*
X37985000Y68500000I150000J0D01*
G01*
G37*
G36*
G01*
X36715000Y68500000D02*
X37015000Y68500000D01*
G75*
G02*
X37165000Y68350000I0J-150000D01*
G01*
X37165000Y66700000D01*
G75*
G02*
X37015000Y66550000I-150000J0D01*
G01*
X36715000Y66550000D01*
G75*
G02*
X36565000Y66700000I0J150000D01*
G01*
X36565000Y68350000D01*
G75*
G02*
X36715000Y68500000I150000J0D01*
G01*
G37*
G36*
G01*
X35445000Y68500000D02*
X35745000Y68500000D01*
G75*
G02*
X35895000Y68350000I0J-150000D01*
G01*
X35895000Y66700000D01*
G75*
G02*
X35745000Y66550000I-150000J0D01*
G01*
X35445000Y66550000D01*
G75*
G02*
X35295000Y66700000I0J150000D01*
G01*
X35295000Y68350000D01*
G75*
G02*
X35445000Y68500000I150000J0D01*
G01*
G37*
G36*
G01*
X35445000Y73450000D02*
X35745000Y73450000D01*
G75*
G02*
X35895000Y73300000I0J-150000D01*
G01*
X35895000Y71650000D01*
G75*
G02*
X35745000Y71500000I-150000J0D01*
G01*
X35445000Y71500000D01*
G75*
G02*
X35295000Y71650000I0J150000D01*
G01*
X35295000Y73300000D01*
G75*
G02*
X35445000Y73450000I150000J0D01*
G01*
G37*
G36*
G01*
X36715000Y73450000D02*
X37015000Y73450000D01*
G75*
G02*
X37165000Y73300000I0J-150000D01*
G01*
X37165000Y71650000D01*
G75*
G02*
X37015000Y71500000I-150000J0D01*
G01*
X36715000Y71500000D01*
G75*
G02*
X36565000Y71650000I0J150000D01*
G01*
X36565000Y73300000D01*
G75*
G02*
X36715000Y73450000I150000J0D01*
G01*
G37*
G36*
G01*
X37985000Y73450000D02*
X38285000Y73450000D01*
G75*
G02*
X38435000Y73300000I0J-150000D01*
G01*
X38435000Y71650000D01*
G75*
G02*
X38285000Y71500000I-150000J0D01*
G01*
X37985000Y71500000D01*
G75*
G02*
X37835000Y71650000I0J150000D01*
G01*
X37835000Y73300000D01*
G75*
G02*
X37985000Y73450000I150000J0D01*
G01*
G37*
G36*
G01*
X39255000Y73450000D02*
X39555000Y73450000D01*
G75*
G02*
X39705000Y73300000I0J-150000D01*
G01*
X39705000Y71650000D01*
G75*
G02*
X39555000Y71500000I-150000J0D01*
G01*
X39255000Y71500000D01*
G75*
G02*
X39105000Y71650000I0J150000D01*
G01*
X39105000Y73300000D01*
G75*
G02*
X39255000Y73450000I150000J0D01*
G01*
G37*
%TD*%
D18*
%TO.C,U8*%
X26600000Y39195000D03*
X26600000Y37925000D03*
X26600000Y36655000D03*
X26600000Y35385000D03*
X26600000Y34115000D03*
X26600000Y32845000D03*
X26600000Y31575000D03*
X26600000Y30305000D03*
X21400000Y30305000D03*
X21400000Y31575000D03*
X21400000Y32845000D03*
X21400000Y34115000D03*
X21400000Y35385000D03*
X21400000Y36655000D03*
X21400000Y37925000D03*
X21400000Y39195000D03*
%TD*%
D19*
%TO.C,U7*%
X25165000Y67040000D03*
X15635000Y61960000D03*
X25165000Y64500000D03*
X15635000Y64500000D03*
X25165000Y61960000D03*
X15635000Y67040000D03*
%TD*%
D20*
%TO.C,U6*%
X25250000Y6270000D03*
X25250000Y3730000D03*
X19250000Y3730000D03*
X19250000Y6270000D03*
%TD*%
%TO.C,U5*%
X25250000Y12270000D03*
X25250000Y9730000D03*
X19250000Y9730000D03*
X19250000Y12270000D03*
%TD*%
D19*
%TO.C,U4*%
X25765000Y22040000D03*
X16235000Y16960000D03*
X25765000Y19500000D03*
X16235000Y19500000D03*
X25765000Y16960000D03*
X16235000Y22040000D03*
%TD*%
D20*
%TO.C,U3*%
X12500000Y32770000D03*
X12500000Y30230000D03*
X6500000Y30230000D03*
X6500000Y32770000D03*
%TD*%
%TO.C,U2*%
X12500000Y42770000D03*
X12500000Y40230000D03*
X6500000Y40230000D03*
X6500000Y42770000D03*
%TD*%
D19*
%TO.C,U1*%
X25765000Y51290000D03*
X16235000Y46210000D03*
X25765000Y48750000D03*
X16235000Y48750000D03*
X25765000Y46210000D03*
X16235000Y51290000D03*
%TD*%
D21*
%TO.C,R20*%
X39280000Y62000000D03*
X37500000Y62000000D03*
%TD*%
%TO.C,R14*%
X18390000Y28000000D03*
X16610000Y28000000D03*
%TD*%
%TO.C,R12*%
X18390000Y32000000D03*
X16610000Y32000000D03*
%TD*%
%TO.C,R11*%
X18390000Y36500000D03*
X16610000Y36500000D03*
%TD*%
%TO.C,R10*%
X18390000Y40500000D03*
X16610000Y40500000D03*
%TD*%
D22*
%TO.C,R7*%
X16500000Y58000000D03*
X16500000Y56220000D03*
%TD*%
%TO.C,R6*%
X16250000Y6390000D03*
X16250000Y4610000D03*
%TD*%
%TO.C,R5*%
X16250000Y12390000D03*
X16250000Y10610000D03*
%TD*%
D21*
%TO.C,R4*%
X16390000Y25000000D03*
X14610000Y25000000D03*
%TD*%
%TO.C,R3*%
X8390000Y36000000D03*
X6610000Y36000000D03*
%TD*%
%TO.C,R2*%
X8500000Y46000000D03*
X6720000Y46000000D03*
%TD*%
D22*
%TO.C,R1*%
X13000000Y49360000D03*
X13000000Y51140000D03*
%TD*%
D23*
%TO.C,J7*%
X9025000Y54920000D03*
X3975000Y54920000D03*
X9025000Y57460000D03*
X3975000Y57460000D03*
X9025000Y60000000D03*
X3975000Y60000000D03*
X9025000Y62540000D03*
X3975000Y62540000D03*
X9025000Y65080000D03*
X3975000Y65080000D03*
%TD*%
%TO.C,J6*%
X9025000Y9920000D03*
X3975000Y9920000D03*
X9025000Y12460000D03*
X3975000Y12460000D03*
X9025000Y15000000D03*
X3975000Y15000000D03*
X9025000Y17540000D03*
X3975000Y17540000D03*
X9025000Y20080000D03*
X3975000Y20080000D03*
%TD*%
%TO.C,J5*%
X59025000Y53920000D03*
X53975000Y53920000D03*
X59025000Y56460000D03*
X53975000Y56460000D03*
X59025000Y59000000D03*
X53975000Y59000000D03*
X59025000Y61540000D03*
X53975000Y61540000D03*
X59025000Y64080000D03*
X53975000Y64080000D03*
%TD*%
D21*
%TO.C,C3*%
X11490000Y68600000D03*
X9710000Y68600000D03*
%TD*%
%TO.C,C2*%
X39190000Y64700000D03*
X37410000Y64700000D03*
%TD*%
%TO.C,C1*%
X39190000Y59300000D03*
X37410000Y59300000D03*
%TD*%
M02*
