%TF.GenerationSoftware,KiCad,Pcbnew,(5.1.10)-1*%
%TF.CreationDate,2022-06-02T12:59:49+08:00*%
%TF.ProjectId,motor_control,6d6f746f-725f-4636-9f6e-74726f6c2e6b,rev?*%
%TF.SameCoordinates,Original*%
%TF.FileFunction,Copper,L2,Bot*%
%TF.FilePolarity,Positive*%
%FSLAX46Y46*%
G04 Gerber Fmt 4.6, Leading zero omitted, Abs format (unit mm)*
G04 Created by KiCad (PCBNEW (5.1.10)-1) date 2022-06-02 12:59:49*
%MOMM*%
%LPD*%
G01*
G04 APERTURE LIST*
%TA.AperFunction,ComponentPad*%
%ADD10O,3.600000X2.080000*%
%TD*%
%TA.AperFunction,ComponentPad*%
%ADD11C,2.500000*%
%TD*%
%TA.AperFunction,ComponentPad*%
%ADD12C,0.800000*%
%TD*%
%TA.AperFunction,ComponentPad*%
%ADD13C,6.000000*%
%TD*%
%TA.AperFunction,ComponentPad*%
%ADD14O,4.000000X2.500000*%
%TD*%
%TA.AperFunction,ViaPad*%
%ADD15C,0.800000*%
%TD*%
%TA.AperFunction,Conductor*%
%ADD16C,0.381000*%
%TD*%
%TA.AperFunction,Conductor*%
%ADD17C,0.254000*%
%TD*%
%TA.AperFunction,Conductor*%
%ADD18C,0.762000*%
%TD*%
%TA.AperFunction,Conductor*%
%ADD19C,1.016000*%
%TD*%
%TA.AperFunction,Conductor*%
%ADD20C,0.508000*%
%TD*%
%TA.AperFunction,Conductor*%
%ADD21C,0.350000*%
%TD*%
%ADD22C,0.350000*%
G04 APERTURE END LIST*
D10*
%TO.P,J9,2*%
%TO.N,GNDPWR*%
X97000000Y48000000D03*
%TO.P,J9,1*%
%TO.N,/AUX1*%
%TA.AperFunction,ComponentPad*%
G36*
G01*
X95449997Y54120000D02*
X98550003Y54120000D01*
G75*
G02*
X98800000Y53870003I0J-249997D01*
G01*
X98800000Y52289997D01*
G75*
G02*
X98550003Y52040000I-249997J0D01*
G01*
X95449997Y52040000D01*
G75*
G02*
X95200000Y52289997I0J249997D01*
G01*
X95200000Y53870003D01*
G75*
G02*
X95449997Y54120000I249997J0D01*
G01*
G37*
%TD.AperFunction*%
%TD*%
D11*
%TO.P,K4,5*%
%TO.N,/MOT2CW*%
X90000000Y3000000D03*
%TO.P,K4,6*%
%TO.N,/AC_MOT2_SW*%
X90000000Y8000000D03*
%TO.P,K4,7*%
%TO.N,/MOT2CCW*%
X90000000Y13000000D03*
%TO.P,K4,4*%
%TO.N,/MOT2CW*%
X82500000Y3000000D03*
%TO.P,K4,3*%
%TO.N,/AC_MOT2_SW*%
X82500000Y8000000D03*
%TO.P,K4,2*%
%TO.N,/MOT2CCW*%
X82500000Y13000000D03*
%TO.P,K4,8*%
%TO.N,Net-(K4-Pad8)*%
X90000000Y28000000D03*
%TO.P,K4,1*%
%TO.N,+12V*%
X82500000Y28000000D03*
%TD*%
%TO.P,K3,5*%
%TO.N,/AC_MOT2_SW*%
X75000000Y3000000D03*
%TO.P,K3,6*%
%TO.N,/AC_MOT2*%
X75000000Y8000000D03*
%TO.P,K3,7*%
%TO.N,Net-(K3-Pad2)*%
X75000000Y13000000D03*
%TO.P,K3,4*%
%TO.N,/AC_MOT2_SW*%
X67500000Y3000000D03*
%TO.P,K3,3*%
%TO.N,/AC_MOT2*%
X67500000Y8000000D03*
%TO.P,K3,2*%
%TO.N,Net-(K3-Pad2)*%
X67500000Y13000000D03*
%TO.P,K3,8*%
%TO.N,Net-(K3-Pad8)*%
X75000000Y28000000D03*
%TO.P,K3,1*%
%TO.N,+12V*%
X67500000Y28000000D03*
%TD*%
%TO.P,K2,5*%
%TO.N,/MOT1CW*%
X90000000Y36000000D03*
%TO.P,K2,6*%
%TO.N,/AC_MOT1_SW*%
X90000000Y41000000D03*
%TO.P,K2,7*%
%TO.N,/MOT1CCW*%
X90000000Y46000000D03*
%TO.P,K2,4*%
%TO.N,/MOT1CW*%
X82500000Y36000000D03*
%TO.P,K2,3*%
%TO.N,/AC_MOT1_SW*%
X82500000Y41000000D03*
%TO.P,K2,2*%
%TO.N,/MOT1CCW*%
X82500000Y46000000D03*
%TO.P,K2,8*%
%TO.N,Net-(K2-Pad8)*%
X90000000Y61000000D03*
%TO.P,K2,1*%
%TO.N,+12V*%
X82500000Y61000000D03*
%TD*%
%TO.P,K1,5*%
%TO.N,/AC_MOT1_SW*%
X75000000Y36000000D03*
%TO.P,K1,6*%
%TO.N,/AC_MOT1*%
X75000000Y41000000D03*
%TO.P,K1,7*%
%TO.N,Net-(K1-Pad2)*%
X75000000Y46000000D03*
%TO.P,K1,4*%
%TO.N,/AC_MOT1_SW*%
X67500000Y36000000D03*
%TO.P,K1,3*%
%TO.N,/AC_MOT1*%
X67500000Y41000000D03*
%TO.P,K1,2*%
%TO.N,Net-(K1-Pad2)*%
X67500000Y46000000D03*
%TO.P,K1,8*%
%TO.N,Net-(K1-Pad8)*%
X75000000Y61000000D03*
%TO.P,K1,1*%
%TO.N,+12V*%
X67500000Y61000000D03*
%TD*%
D10*
%TO.P,J12,2*%
%TO.N,GNDPWR*%
X97000000Y64000000D03*
%TO.P,J12,1*%
%TO.N,VAC*%
%TA.AperFunction,ComponentPad*%
G36*
G01*
X95449997Y70120000D02*
X98550003Y70120000D01*
G75*
G02*
X98800000Y69870003I0J-249997D01*
G01*
X98800000Y68289997D01*
G75*
G02*
X98550003Y68040000I-249997J0D01*
G01*
X95449997Y68040000D01*
G75*
G02*
X95200000Y68289997I0J249997D01*
G01*
X95200000Y69870003D01*
G75*
G02*
X95449997Y70120000I249997J0D01*
G01*
G37*
%TD.AperFunction*%
%TD*%
%TO.P,J11,3*%
%TO.N,GNDPWR*%
X97000000Y6000000D03*
%TO.P,J11,2*%
%TO.N,/MOT2CW*%
X97000000Y11080000D03*
%TO.P,J11,1*%
%TO.N,/MOT2CCW*%
%TA.AperFunction,ComponentPad*%
G36*
G01*
X95449997Y17200000D02*
X98550003Y17200000D01*
G75*
G02*
X98800000Y16950003I0J-249997D01*
G01*
X98800000Y15369997D01*
G75*
G02*
X98550003Y15120000I-249997J0D01*
G01*
X95449997Y15120000D01*
G75*
G02*
X95200000Y15369997I0J249997D01*
G01*
X95200000Y16950003D01*
G75*
G02*
X95449997Y17200000I249997J0D01*
G01*
G37*
%TD.AperFunction*%
%TD*%
%TO.P,J8,3*%
%TO.N,GNDPWR*%
X97000000Y27090000D03*
%TO.P,J8,2*%
%TO.N,/MOT1CW*%
X97000000Y32170000D03*
%TO.P,J8,1*%
%TO.N,/MOT1CCW*%
%TA.AperFunction,ComponentPad*%
G36*
G01*
X95449997Y38290000D02*
X98550003Y38290000D01*
G75*
G02*
X98800000Y38040003I0J-249997D01*
G01*
X98800000Y36459997D01*
G75*
G02*
X98550003Y36210000I-249997J0D01*
G01*
X95449997Y36210000D01*
G75*
G02*
X95200000Y36459997I0J249997D01*
G01*
X95200000Y38040003D01*
G75*
G02*
X95449997Y38290000I249997J0D01*
G01*
G37*
%TD.AperFunction*%
%TD*%
D12*
%TO.P,J2,1*%
%TO.N,Net-(J2-Pad1)*%
X6056810Y5187500D03*
X6056810Y2812500D03*
X4000000Y1625000D03*
X1943190Y2812500D03*
X1943190Y5187500D03*
X4000000Y6375000D03*
D13*
X4000000Y4000000D03*
%TD*%
D12*
%TO.P,J1,1*%
%TO.N,Net-(J1-Pad1)*%
X6056810Y72187500D03*
X6056810Y69812500D03*
X4000000Y68625000D03*
X1943190Y69812500D03*
X1943190Y72187500D03*
X4000000Y73375000D03*
D13*
X4000000Y71000000D03*
%TD*%
D14*
%TO.P,F1,2*%
%TO.N,/AC_in*%
X67900000Y69500000D03*
%TO.P,F1,1*%
%TO.N,VAC*%
X90500000Y69500000D03*
%TD*%
D15*
%TO.N,GNDS*%
X35500000Y66500000D03*
X39250000Y60250002D03*
X6600000Y29400000D03*
X5000000Y40200000D03*
X14600000Y48800000D03*
X14700008Y19500008D03*
X12600000Y68600000D03*
X14100006Y64218990D03*
X36500000Y64218990D03*
X17870001Y9729999D03*
X17869995Y3730005D03*
X4000000Y53749996D03*
X4000004Y53000000D03*
X4000000Y9000000D03*
X4000000Y8250000D03*
%TO.N,+5V*%
X11400000Y65200000D03*
X39200000Y63600000D03*
%TO.N,/AC_in*%
X27000000Y69750000D03*
X38500000Y69750000D03*
X41500000Y62500000D03*
X42700000Y62500000D03*
X43900000Y62500000D03*
X45100000Y62500000D03*
X46300000Y62500000D03*
X47500000Y62500000D03*
X41500000Y61300000D03*
X42700000Y61300000D03*
X43900000Y61300000D03*
X45100000Y61300000D03*
X46300000Y61300000D03*
X47500000Y61300000D03*
X41500000Y60100000D03*
X42700000Y60100000D03*
X43900000Y60100000D03*
X45100000Y60100000D03*
X46300000Y60100000D03*
X47500000Y60100000D03*
X41500000Y58900000D03*
X42700000Y58900000D03*
X43900000Y58900000D03*
X45100000Y58900000D03*
X46300000Y58900000D03*
X47500000Y58900000D03*
X41500000Y57700000D03*
X42700000Y57700000D03*
X43900000Y57700000D03*
X45100000Y57700000D03*
X46300000Y57700000D03*
X47500000Y57700000D03*
X41500000Y56500000D03*
X42700000Y56500000D03*
X43900000Y56500000D03*
X45100000Y56500000D03*
X46300000Y56500000D03*
X47500000Y56500000D03*
%TO.N,+12V*%
X23600000Y29200000D03*
X28200000Y14400000D03*
X23800000Y12200000D03*
X14020000Y42770000D03*
X72000000Y33440990D03*
X26599989Y29200011D03*
X14020000Y43480000D03*
X59000000Y53000000D03*
X58250000Y53000000D03*
X72000000Y32600000D03*
%TO.N,GNDPWR*%
X20250000Y28500000D03*
X21000000Y28500000D03*
X21750000Y28500000D03*
X50250000Y64000000D03*
X50250000Y59000000D03*
X50250000Y56500000D03*
X51250000Y64000000D03*
X51250000Y61500000D03*
X51250000Y59000000D03*
X51250000Y56500000D03*
X51250000Y53750000D03*
X50250000Y61500000D03*
X50250000Y53750000D03*
%TO.N,/RELOUT4*%
X10750000Y15000000D03*
X13750000Y15000000D03*
%TO.N,/RELOUT3*%
X14250000Y16250000D03*
X5624984Y16750000D03*
%TO.N,/ISense1*%
X36500000Y62000000D03*
X27750000Y68500000D03*
X17250000Y69500000D03*
X28250000Y62000000D03*
%TO.N,Net-(Q1-Pad3)*%
X45750000Y53000000D03*
X27750000Y56750000D03*
X39800000Y35400000D03*
X27355490Y41000000D03*
%TO.N,Net-(Q2-Pad3)*%
X25750000Y42500000D03*
X41000000Y35250002D03*
X27555490Y23151490D03*
X40750002Y16250000D03*
%TO.N,/AC_Mot*%
X31750000Y20250000D03*
X26200000Y58000000D03*
X26000000Y24250000D03*
X29880004Y24250000D03*
X31750000Y32750000D03*
X32950000Y32750000D03*
X34150000Y32750000D03*
X35350000Y32750000D03*
X36550000Y32750000D03*
X37750000Y32750000D03*
X31750000Y31550000D03*
X32950000Y31550000D03*
X34150000Y31550000D03*
X35350000Y31550000D03*
X36550000Y31550000D03*
X37750000Y31550000D03*
X31750000Y30350000D03*
X32950000Y30350000D03*
X34150000Y30350000D03*
X35350000Y30350000D03*
X36550000Y30350000D03*
X37750000Y30350000D03*
X31750000Y29150000D03*
X32950000Y29150000D03*
X34150000Y29150000D03*
X35350000Y29150000D03*
X36550000Y29150000D03*
X37750000Y29150000D03*
X31750000Y27950000D03*
X32950000Y27950000D03*
X34150000Y27950000D03*
X35350000Y27950000D03*
X36550000Y27950000D03*
X37750000Y27950000D03*
X31750000Y26750000D03*
X32950000Y26750000D03*
X34150000Y26750000D03*
X35350000Y26750000D03*
X36550000Y26750000D03*
X37750000Y26750000D03*
X32950000Y20250000D03*
X34150000Y20250000D03*
X35350000Y20250000D03*
X36550000Y20250000D03*
X37750000Y20250000D03*
X31750000Y19050000D03*
X32950000Y19050000D03*
X34150000Y19050000D03*
X35350000Y19050000D03*
X36550000Y19050000D03*
X37750000Y19050000D03*
X31750000Y17850000D03*
X32950000Y17850000D03*
X34150000Y17850000D03*
X35350000Y17850000D03*
X36550000Y17850000D03*
X37750000Y17850000D03*
X31750000Y16650000D03*
X32950000Y16650000D03*
X34150000Y16650000D03*
X35350000Y16650000D03*
X36550000Y16650000D03*
X37750000Y16650000D03*
X31750000Y15450000D03*
X32950000Y15450000D03*
X34150000Y15450000D03*
X35350000Y15450000D03*
X36550000Y15450000D03*
X37750000Y15450000D03*
X31750000Y14250000D03*
X32950000Y14250000D03*
X34150000Y14250000D03*
X35350000Y14250000D03*
X36550000Y14250000D03*
X37750000Y14250000D03*
X29000000Y58000000D03*
%TO.N,Net-(Q3-Pad3)*%
X38000000Y11500000D03*
X27920047Y12500000D03*
%TO.N,Net-(R20-Pad2)*%
X38250000Y66250000D03*
X40200000Y66000000D03*
%TO.N,Net-(K1-Pad8)*%
X28200000Y43600000D03*
%TO.N,Net-(K2-Pad8)*%
X27902841Y38097159D03*
%TO.N,Net-(K3-Pad8)*%
X28000000Y36600000D03*
X75000000Y33094510D03*
X75000000Y32000000D03*
%TO.N,Net-(K4-Pad8)*%
X28500000Y28750000D03*
%TD*%
D16*
%TO.N,GNDS*%
X28054011Y64218990D02*
X28619696Y64218990D01*
X28619696Y64218990D02*
X36500000Y64218990D01*
D17*
%TO.N,+5V*%
X11400000Y65200000D02*
X38600000Y65200000D01*
X39200000Y64600000D02*
X39200000Y63600000D01*
X38600000Y65200000D02*
X39200000Y64600000D01*
D16*
%TO.N,/AUX1*%
X96580000Y53500000D02*
X97000000Y53080000D01*
%TO.N,/AC_in*%
X27000000Y69750000D02*
X38500000Y69750000D01*
%TO.N,+12V*%
X26000000Y12200000D02*
X23800000Y12200000D01*
X28200000Y14400000D02*
X26000000Y12200000D01*
D18*
X82500000Y61000000D02*
X72000000Y50500000D01*
X72000000Y50500000D02*
X72000000Y33440990D01*
D19*
X26599978Y29200000D02*
X26599989Y29200011D01*
X23600000Y29200000D02*
X26599978Y29200000D01*
D20*
X56000000Y50750000D02*
X58250000Y53000000D01*
X21290000Y50750000D02*
X56000000Y50750000D01*
X14020000Y43480000D02*
X21290000Y50750000D01*
D18*
X71500000Y28000000D02*
X67500000Y28000000D01*
X82500000Y28000000D02*
X78250000Y28000000D01*
X78250000Y28000000D02*
X76000000Y25750000D01*
X76000000Y25750000D02*
X73750000Y25750000D01*
X73750000Y25750000D02*
X71500000Y28000000D01*
D16*
%TO.N,GNDPWR*%
X20250000Y28500000D02*
X21000000Y28500000D01*
%TO.N,/RELOUT4*%
X10750000Y15000000D02*
X13750000Y15000000D01*
%TO.N,/RELOUT3*%
X14250000Y16250000D02*
X6124984Y16250000D01*
X6124984Y16250000D02*
X5624984Y16750000D01*
%TO.N,/ISense1*%
X26250000Y68500000D02*
X27750000Y68500000D01*
X25250000Y69500000D02*
X26250000Y68500000D01*
X17250000Y69500000D02*
X25250000Y69500000D01*
X28500000Y62000000D02*
X28250000Y62000000D01*
X36500000Y62000000D02*
X28500000Y62000000D01*
%TO.N,Net-(Q1-Pad3)*%
X31500000Y53000000D02*
X27750000Y56750000D01*
X45750000Y53000000D02*
X31500000Y53000000D01*
X39800000Y35400000D02*
X34200000Y41000000D01*
X34200000Y41000000D02*
X27355490Y41000000D01*
%TO.N,Net-(Q2-Pad3)*%
X34315687Y42500000D02*
X41000000Y35815687D01*
X25750000Y42500000D02*
X34315687Y42500000D01*
X41000000Y35815687D02*
X41000000Y35250002D01*
X27555490Y23151490D02*
X39098510Y23151490D01*
X39098510Y23151490D02*
X40750002Y21499998D01*
X40750002Y21499998D02*
X40750002Y16250000D01*
%TO.N,/AC_Mot*%
X26000000Y24250000D02*
X29880004Y24250000D01*
X26200000Y58000000D02*
X29000000Y58000000D01*
%TO.N,Net-(Q3-Pad3)*%
X38000000Y11500000D02*
X28920047Y11500000D01*
X28920047Y11500000D02*
X27920047Y12500000D01*
%TO.N,Net-(R20-Pad2)*%
X39950000Y66250000D02*
X40200000Y66000000D01*
X38250000Y66250000D02*
X39950000Y66250000D01*
%TO.N,Net-(K1-Pad8)*%
X33651491Y49051491D02*
X63051491Y49051491D01*
X63051491Y49051491D02*
X75000000Y61000000D01*
X28200000Y43600000D02*
X33651491Y49051491D01*
%TO.N,Net-(K2-Pad8)*%
X35800881Y38097159D02*
X27902841Y38097159D01*
X78000000Y49000000D02*
X78000000Y36533650D01*
X74588874Y33939012D02*
X72405361Y31755499D01*
X75405362Y33939012D02*
X74588874Y33939012D01*
X90000000Y61000000D02*
X78000000Y49000000D01*
X72405361Y31755499D02*
X42142541Y31755499D01*
X78000000Y36533650D02*
X75405362Y33939012D01*
X42142541Y31755499D02*
X35800881Y38097159D01*
%TO.N,Net-(K3-Pad8)*%
X75000000Y33094510D02*
X75000000Y32000000D01*
X36400000Y36600000D02*
X28000000Y36600000D01*
X41879512Y31120488D02*
X36400000Y36600000D01*
X75000000Y32000000D02*
X74120488Y31120488D01*
X74120488Y31120488D02*
X41879512Y31120488D01*
%TO.N,Net-(K4-Pad8)*%
X86200000Y24200000D02*
X90000000Y28000000D01*
X72080490Y25719510D02*
X73600000Y24200000D01*
X44590876Y25719510D02*
X72080490Y25719510D01*
X43371366Y24500000D02*
X44590876Y25719510D01*
X73600000Y24200000D02*
X86200000Y24200000D01*
X31500000Y24500000D02*
X43371366Y24500000D01*
X28500000Y27500000D02*
X31500000Y24500000D01*
X28500000Y28750000D02*
X28500000Y27500000D01*
%TD*%
D17*
%TO.N,GNDPWR*%
X99036000Y70900362D02*
X98987524Y70926273D01*
X98773049Y70991333D01*
X98550003Y71013301D01*
X95449997Y71013301D01*
X95226951Y70991333D01*
X95012476Y70926273D01*
X94814815Y70820621D01*
X94641563Y70678437D01*
X94499379Y70505185D01*
X94393727Y70307524D01*
X94328667Y70093049D01*
X94306699Y69870003D01*
X94306699Y68289997D01*
X94328667Y68066951D01*
X94393727Y67852476D01*
X94499379Y67654815D01*
X94641563Y67481563D01*
X94814815Y67339379D01*
X95012476Y67233727D01*
X95226951Y67168667D01*
X95449997Y67146699D01*
X98550003Y67146699D01*
X98773049Y67168667D01*
X98987524Y67233727D01*
X99036000Y67259638D01*
X99036000Y54900362D01*
X98987524Y54926273D01*
X98773049Y54991333D01*
X98550003Y55013301D01*
X95449997Y55013301D01*
X95226951Y54991333D01*
X95012476Y54926273D01*
X94814815Y54820621D01*
X94641563Y54678437D01*
X94499379Y54505185D01*
X94393727Y54307524D01*
X94328667Y54093049D01*
X94306699Y53870003D01*
X94306699Y52289997D01*
X94328667Y52066951D01*
X94393727Y51852476D01*
X94499379Y51654815D01*
X94641563Y51481563D01*
X94814815Y51339379D01*
X95012476Y51233727D01*
X95226951Y51168667D01*
X95449997Y51146699D01*
X98550003Y51146699D01*
X98773049Y51168667D01*
X98987524Y51233727D01*
X99036000Y51259638D01*
X99036000Y39070362D01*
X98987524Y39096273D01*
X98773049Y39161333D01*
X98550003Y39183301D01*
X95449997Y39183301D01*
X95226951Y39161333D01*
X95012476Y39096273D01*
X94814815Y38990621D01*
X94641563Y38848437D01*
X94499379Y38675185D01*
X94393727Y38477524D01*
X94328667Y38263049D01*
X94306699Y38040003D01*
X94306699Y36459997D01*
X94328667Y36236951D01*
X94393727Y36022476D01*
X94499379Y35824815D01*
X94641563Y35651563D01*
X94814815Y35509379D01*
X95012476Y35403727D01*
X95226951Y35338667D01*
X95449997Y35316699D01*
X98550003Y35316699D01*
X98773049Y35338667D01*
X98987524Y35403727D01*
X99036001Y35429638D01*
X99036001Y33618251D01*
X98836880Y33781665D01*
X98501768Y33960786D01*
X98138150Y34071088D01*
X97854758Y34099000D01*
X96145242Y34099000D01*
X95861850Y34071088D01*
X95498232Y33960786D01*
X95163120Y33781665D01*
X94869392Y33540608D01*
X94628335Y33246880D01*
X94449214Y32911768D01*
X94338912Y32548150D01*
X94301667Y32170000D01*
X94338912Y31791850D01*
X94449214Y31428232D01*
X94628335Y31093120D01*
X94869392Y30799392D01*
X95163120Y30558335D01*
X95498232Y30379214D01*
X95861850Y30268912D01*
X96145242Y30241000D01*
X97854758Y30241000D01*
X98138150Y30268912D01*
X98501768Y30379214D01*
X98836880Y30558335D01*
X99036001Y30721749D01*
X99036001Y17980362D01*
X98987524Y18006273D01*
X98773049Y18071333D01*
X98550003Y18093301D01*
X95449997Y18093301D01*
X95226951Y18071333D01*
X95012476Y18006273D01*
X94814815Y17900621D01*
X94641563Y17758437D01*
X94499379Y17585185D01*
X94393727Y17387524D01*
X94328667Y17173049D01*
X94306699Y16950003D01*
X94306699Y15369997D01*
X94328667Y15146951D01*
X94393727Y14932476D01*
X94499379Y14734815D01*
X94641563Y14561563D01*
X94814815Y14419379D01*
X95012476Y14313727D01*
X95226951Y14248667D01*
X95449997Y14226699D01*
X98550003Y14226699D01*
X98773049Y14248667D01*
X98987524Y14313727D01*
X99036001Y14339638D01*
X99036001Y12528250D01*
X98836880Y12691665D01*
X98501768Y12870786D01*
X98138150Y12981088D01*
X97854758Y13009000D01*
X96145242Y13009000D01*
X95861850Y12981088D01*
X95498232Y12870786D01*
X95163120Y12691665D01*
X94869392Y12450608D01*
X94628335Y12156880D01*
X94449214Y11821768D01*
X94338912Y11458150D01*
X94301667Y11080000D01*
X94338912Y10701850D01*
X94449214Y10338232D01*
X94628335Y10003120D01*
X94869392Y9709392D01*
X95163120Y9468335D01*
X95498232Y9289214D01*
X95861850Y9178912D01*
X96145242Y9151000D01*
X97854758Y9151000D01*
X98138150Y9178912D01*
X98501768Y9289214D01*
X98836880Y9468335D01*
X99036001Y9631750D01*
X99036001Y964000D01*
X90674139Y964000D01*
X91013197Y1104443D01*
X91363533Y1338530D01*
X91661470Y1636467D01*
X91895557Y1986803D01*
X92056800Y2376077D01*
X92139000Y2789327D01*
X92139000Y3210673D01*
X92056800Y3623923D01*
X91895557Y4013197D01*
X91661470Y4363533D01*
X91363533Y4661470D01*
X91013197Y4895557D01*
X90623923Y5056800D01*
X90210673Y5139000D01*
X89789327Y5139000D01*
X89376077Y5056800D01*
X88986803Y4895557D01*
X88636467Y4661470D01*
X88338530Y4363533D01*
X88104443Y4013197D01*
X87943200Y3623923D01*
X87861000Y3210673D01*
X87861000Y2789327D01*
X87943200Y2376077D01*
X88104443Y1986803D01*
X88338530Y1636467D01*
X88636467Y1338530D01*
X88986803Y1104443D01*
X89325861Y964000D01*
X83174139Y964000D01*
X83513197Y1104443D01*
X83863533Y1338530D01*
X84161470Y1636467D01*
X84395557Y1986803D01*
X84556800Y2376077D01*
X84639000Y2789327D01*
X84639000Y3210673D01*
X84556800Y3623923D01*
X84395557Y4013197D01*
X84161470Y4363533D01*
X83863533Y4661470D01*
X83513197Y4895557D01*
X83123923Y5056800D01*
X82710673Y5139000D01*
X82289327Y5139000D01*
X81876077Y5056800D01*
X81486803Y4895557D01*
X81136467Y4661470D01*
X80838530Y4363533D01*
X80604443Y4013197D01*
X80443200Y3623923D01*
X80361000Y3210673D01*
X80361000Y2789327D01*
X80443200Y2376077D01*
X80604443Y1986803D01*
X80838530Y1636467D01*
X81136467Y1338530D01*
X81486803Y1104443D01*
X81825861Y964000D01*
X75674139Y964000D01*
X76013197Y1104443D01*
X76363533Y1338530D01*
X76661470Y1636467D01*
X76895557Y1986803D01*
X77056800Y2376077D01*
X77139000Y2789327D01*
X77139000Y3210673D01*
X77056800Y3623923D01*
X76895557Y4013197D01*
X76661470Y4363533D01*
X76363533Y4661470D01*
X76013197Y4895557D01*
X75623923Y5056800D01*
X75210673Y5139000D01*
X74789327Y5139000D01*
X74376077Y5056800D01*
X73986803Y4895557D01*
X73636467Y4661470D01*
X73338530Y4363533D01*
X73104443Y4013197D01*
X72943200Y3623923D01*
X72861000Y3210673D01*
X72861000Y2789327D01*
X72943200Y2376077D01*
X73104443Y1986803D01*
X73338530Y1636467D01*
X73636467Y1338530D01*
X73986803Y1104443D01*
X74325861Y964000D01*
X68174139Y964000D01*
X68513197Y1104443D01*
X68863533Y1338530D01*
X69161470Y1636467D01*
X69395557Y1986803D01*
X69556800Y2376077D01*
X69639000Y2789327D01*
X69639000Y3210673D01*
X69556800Y3623923D01*
X69395557Y4013197D01*
X69161470Y4363533D01*
X68863533Y4661470D01*
X68513197Y4895557D01*
X68123923Y5056800D01*
X67710673Y5139000D01*
X67289327Y5139000D01*
X66876077Y5056800D01*
X66486803Y4895557D01*
X66136467Y4661470D01*
X65838530Y4363533D01*
X65604443Y4013197D01*
X65443200Y3623923D01*
X65361000Y3210673D01*
X65361000Y2789327D01*
X65443200Y2376077D01*
X65604443Y1986803D01*
X65838530Y1636467D01*
X66136467Y1338530D01*
X66486803Y1104443D01*
X66825861Y964000D01*
X21132836Y964000D01*
X21127000Y1008328D01*
X21127000Y8210673D01*
X65361000Y8210673D01*
X65361000Y7789327D01*
X65443200Y7376077D01*
X65604443Y6986803D01*
X65838530Y6636467D01*
X66136467Y6338530D01*
X66486803Y6104443D01*
X66876077Y5943200D01*
X67289327Y5861000D01*
X67710673Y5861000D01*
X68123923Y5943200D01*
X68513197Y6104443D01*
X68863533Y6338530D01*
X69161470Y6636467D01*
X69395557Y6986803D01*
X69556800Y7376077D01*
X69639000Y7789327D01*
X69639000Y8210673D01*
X72861000Y8210673D01*
X72861000Y7789327D01*
X72943200Y7376077D01*
X73104443Y6986803D01*
X73338530Y6636467D01*
X73636467Y6338530D01*
X73986803Y6104443D01*
X74376077Y5943200D01*
X74789327Y5861000D01*
X75210673Y5861000D01*
X75623923Y5943200D01*
X76013197Y6104443D01*
X76363533Y6338530D01*
X76661470Y6636467D01*
X76895557Y6986803D01*
X77056800Y7376077D01*
X77139000Y7789327D01*
X77139000Y8210673D01*
X80361000Y8210673D01*
X80361000Y7789327D01*
X80443200Y7376077D01*
X80604443Y6986803D01*
X80838530Y6636467D01*
X81136467Y6338530D01*
X81486803Y6104443D01*
X81876077Y5943200D01*
X82289327Y5861000D01*
X82710673Y5861000D01*
X83123923Y5943200D01*
X83513197Y6104443D01*
X83863533Y6338530D01*
X84161470Y6636467D01*
X84395557Y6986803D01*
X84556800Y7376077D01*
X84639000Y7789327D01*
X84639000Y8210673D01*
X87861000Y8210673D01*
X87861000Y7789327D01*
X87943200Y7376077D01*
X88104443Y6986803D01*
X88338530Y6636467D01*
X88636467Y6338530D01*
X88986803Y6104443D01*
X89376077Y5943200D01*
X89789327Y5861000D01*
X90210673Y5861000D01*
X90623923Y5943200D01*
X91013197Y6104443D01*
X91363533Y6338530D01*
X91661470Y6636467D01*
X91895557Y6986803D01*
X92056800Y7376077D01*
X92139000Y7789327D01*
X92139000Y8210673D01*
X92056800Y8623923D01*
X91895557Y9013197D01*
X91661470Y9363533D01*
X91363533Y9661470D01*
X91013197Y9895557D01*
X90623923Y10056800D01*
X90210673Y10139000D01*
X89789327Y10139000D01*
X89376077Y10056800D01*
X88986803Y9895557D01*
X88636467Y9661470D01*
X88338530Y9363533D01*
X88104443Y9013197D01*
X87943200Y8623923D01*
X87861000Y8210673D01*
X84639000Y8210673D01*
X84556800Y8623923D01*
X84395557Y9013197D01*
X84161470Y9363533D01*
X83863533Y9661470D01*
X83513197Y9895557D01*
X83123923Y10056800D01*
X82710673Y10139000D01*
X82289327Y10139000D01*
X81876077Y10056800D01*
X81486803Y9895557D01*
X81136467Y9661470D01*
X80838530Y9363533D01*
X80604443Y9013197D01*
X80443200Y8623923D01*
X80361000Y8210673D01*
X77139000Y8210673D01*
X77056800Y8623923D01*
X76895557Y9013197D01*
X76661470Y9363533D01*
X76363533Y9661470D01*
X76013197Y9895557D01*
X75623923Y10056800D01*
X75210673Y10139000D01*
X74789327Y10139000D01*
X74376077Y10056800D01*
X73986803Y9895557D01*
X73636467Y9661470D01*
X73338530Y9363533D01*
X73104443Y9013197D01*
X72943200Y8623923D01*
X72861000Y8210673D01*
X69639000Y8210673D01*
X69556800Y8623923D01*
X69395557Y9013197D01*
X69161470Y9363533D01*
X68863533Y9661470D01*
X68513197Y9895557D01*
X68123923Y10056800D01*
X67710673Y10139000D01*
X67289327Y10139000D01*
X66876077Y10056800D01*
X66486803Y9895557D01*
X66136467Y9661470D01*
X65838530Y9363533D01*
X65604443Y9013197D01*
X65443200Y8623923D01*
X65361000Y8210673D01*
X21127000Y8210673D01*
X21127000Y12326955D01*
X22511000Y12326955D01*
X22511000Y12073045D01*
X22560535Y11824013D01*
X22657703Y11589430D01*
X22798768Y11378310D01*
X22978310Y11198768D01*
X23189430Y11057703D01*
X23424013Y10960535D01*
X23673045Y10911000D01*
X23926955Y10911000D01*
X24175987Y10960535D01*
X24410570Y11057703D01*
X24504553Y11120500D01*
X25946971Y11120500D01*
X26000000Y11115277D01*
X26053029Y11120500D01*
X26211619Y11136120D01*
X26415106Y11197847D01*
X26602640Y11298086D01*
X26767015Y11432985D01*
X26800826Y11474184D01*
X26961884Y11635241D01*
X27098357Y11498768D01*
X27309477Y11357703D01*
X27544060Y11260535D01*
X27654920Y11238484D01*
X28119229Y10774174D01*
X28153032Y10732985D01*
X28194221Y10699182D01*
X28194222Y10699181D01*
X28317407Y10598086D01*
X28504941Y10497847D01*
X28708428Y10436120D01*
X28920047Y10415277D01*
X28973076Y10420500D01*
X37295447Y10420500D01*
X37389430Y10357703D01*
X37624013Y10260535D01*
X37873045Y10211000D01*
X38126955Y10211000D01*
X38375987Y10260535D01*
X38610570Y10357703D01*
X38821690Y10498768D01*
X39001232Y10678310D01*
X39142297Y10889430D01*
X39239465Y11124013D01*
X39289000Y11373045D01*
X39289000Y11626955D01*
X39239465Y11875987D01*
X39142297Y12110570D01*
X39001232Y12321690D01*
X38821690Y12501232D01*
X38610570Y12642297D01*
X38375987Y12739465D01*
X38126955Y12789000D01*
X37873045Y12789000D01*
X37624013Y12739465D01*
X37389430Y12642297D01*
X37295447Y12579500D01*
X29367190Y12579500D01*
X29181563Y12765127D01*
X29159512Y12875987D01*
X29062344Y13110570D01*
X28921279Y13321690D01*
X28915293Y13327676D01*
X29021690Y13398768D01*
X29201232Y13578310D01*
X29342297Y13789430D01*
X29439465Y14024013D01*
X29489000Y14273045D01*
X29489000Y14526955D01*
X29439465Y14775987D01*
X29342297Y15010570D01*
X29201232Y15221690D01*
X29021690Y15401232D01*
X28810570Y15542297D01*
X28575987Y15639465D01*
X28326955Y15689000D01*
X28073045Y15689000D01*
X27824013Y15639465D01*
X27589430Y15542297D01*
X27378310Y15401232D01*
X27198768Y15221690D01*
X27057703Y15010570D01*
X26960535Y14775987D01*
X26938484Y14665127D01*
X25552858Y13279500D01*
X24504553Y13279500D01*
X24410570Y13342297D01*
X24175987Y13439465D01*
X23926955Y13489000D01*
X23673045Y13489000D01*
X23424013Y13439465D01*
X23189430Y13342297D01*
X22978310Y13201232D01*
X22798768Y13021690D01*
X22657703Y12810570D01*
X22560535Y12575987D01*
X22511000Y12326955D01*
X21127000Y12326955D01*
X21127000Y27000000D01*
X21125914Y27016577D01*
X21108877Y27145987D01*
X21100296Y27178011D01*
X21050346Y27298601D01*
X21033768Y27327313D01*
X20954308Y27430866D01*
X20930866Y27454308D01*
X20827313Y27533768D01*
X20798601Y27550346D01*
X20678011Y27600296D01*
X20645987Y27608877D01*
X20516577Y27625914D01*
X20500000Y27627000D01*
X20258328Y27627000D01*
X20153743Y27640769D01*
X20064045Y27677923D01*
X19987024Y27737024D01*
X19927923Y27814045D01*
X19890769Y27903743D01*
X19877000Y28008328D01*
X19877000Y34491672D01*
X19890769Y34596257D01*
X19927923Y34685955D01*
X19987024Y34762976D01*
X20064045Y34822077D01*
X20153743Y34859231D01*
X20258328Y34873000D01*
X36600358Y34873000D01*
X37334358Y34139000D01*
X31250000Y34139000D01*
X31133963Y34131395D01*
X31004553Y34114358D01*
X30780385Y34054292D01*
X30659795Y34004342D01*
X30458807Y33888301D01*
X30355254Y33808841D01*
X30191159Y33644746D01*
X30111699Y33541193D01*
X29995658Y33340205D01*
X29945708Y33219615D01*
X29885642Y32995447D01*
X29868605Y32866037D01*
X29861000Y32750000D01*
X29861000Y27665642D01*
X29579500Y27947142D01*
X29579500Y28045447D01*
X29642297Y28139430D01*
X29739465Y28374013D01*
X29789000Y28623045D01*
X29789000Y28876955D01*
X29739465Y29125987D01*
X29642297Y29360570D01*
X29501232Y29571690D01*
X29321690Y29751232D01*
X29110570Y29892297D01*
X28875987Y29989465D01*
X28626955Y30039000D01*
X28373045Y30039000D01*
X28124013Y29989465D01*
X27889430Y29892297D01*
X27833847Y29855158D01*
X27767172Y29979897D01*
X27592596Y30192618D01*
X27379875Y30367194D01*
X27137184Y30496915D01*
X26873848Y30576797D01*
X26599989Y30603771D01*
X26531245Y30597000D01*
X23531375Y30597000D01*
X23326140Y30576786D01*
X23062805Y30496904D01*
X22820113Y30367183D01*
X22607392Y30192608D01*
X22432817Y29979887D01*
X22303096Y29737195D01*
X22223214Y29473860D01*
X22196241Y29200000D01*
X22223214Y28926140D01*
X22303096Y28662805D01*
X22432817Y28420113D01*
X22607392Y28207392D01*
X22820113Y28032817D01*
X23062805Y27903096D01*
X23326140Y27823214D01*
X23531375Y27803000D01*
X26531353Y27803000D01*
X26599978Y27796241D01*
X26668603Y27803000D01*
X26873838Y27823214D01*
X27137173Y27903096D01*
X27379865Y28032817D01*
X27411559Y28058828D01*
X27420500Y28045447D01*
X27420500Y27553029D01*
X27415277Y27500000D01*
X27420500Y27446971D01*
X27436120Y27288381D01*
X27462999Y27199775D01*
X27493985Y27097630D01*
X27497848Y27084894D01*
X27598087Y26897360D01*
X27732986Y26732985D01*
X27774180Y26699178D01*
X29143857Y25329500D01*
X26704553Y25329500D01*
X26610570Y25392297D01*
X26375987Y25489465D01*
X26126955Y25539000D01*
X25873045Y25539000D01*
X25624013Y25489465D01*
X25389430Y25392297D01*
X25178310Y25251232D01*
X24998768Y25071690D01*
X24857703Y24860570D01*
X24760535Y24625987D01*
X24711000Y24376955D01*
X24711000Y24123045D01*
X24760535Y23874013D01*
X24857703Y23639430D01*
X24998768Y23428310D01*
X25178310Y23248768D01*
X25389430Y23107703D01*
X25624013Y23010535D01*
X25873045Y22961000D01*
X26126955Y22961000D01*
X26273336Y22990117D01*
X26316025Y22775503D01*
X26413193Y22540920D01*
X26554258Y22329800D01*
X26733800Y22150258D01*
X26944920Y22009193D01*
X27179503Y21912025D01*
X27428535Y21862490D01*
X27682445Y21862490D01*
X27931477Y21912025D01*
X28166060Y22009193D01*
X28260043Y22071990D01*
X30622390Y22071990D01*
X30605254Y22058841D01*
X30441159Y21894746D01*
X30361699Y21791193D01*
X30245658Y21590205D01*
X30195708Y21469615D01*
X30135642Y21245447D01*
X30118605Y21116037D01*
X30111000Y21000000D01*
X30111000Y14250000D01*
X30118605Y14133963D01*
X30135642Y14004553D01*
X30195708Y13780385D01*
X30245658Y13659795D01*
X30361699Y13458807D01*
X30441159Y13355254D01*
X30605254Y13191159D01*
X30708807Y13111699D01*
X30909795Y12995658D01*
X31030385Y12945708D01*
X31254553Y12885642D01*
X31383963Y12868605D01*
X31500000Y12861000D01*
X37750000Y12861000D01*
X37866037Y12868605D01*
X37995447Y12885642D01*
X38219615Y12945708D01*
X38340205Y12995658D01*
X38541193Y13111699D01*
X38644746Y13191159D01*
X38808841Y13355254D01*
X38888301Y13458807D01*
X39004342Y13659795D01*
X39054292Y13780385D01*
X39114358Y14004553D01*
X39131395Y14133963D01*
X39139000Y14250000D01*
X39139000Y21000000D01*
X39131395Y21116037D01*
X39114358Y21245447D01*
X39054292Y21469615D01*
X39004342Y21590205D01*
X38888301Y21791193D01*
X38808841Y21894746D01*
X38644746Y22058841D01*
X38627610Y22071990D01*
X38651368Y22071990D01*
X39670502Y21052855D01*
X39670503Y16954554D01*
X39607705Y16860570D01*
X39510537Y16625987D01*
X39461002Y16376955D01*
X39461002Y16123045D01*
X39510537Y15874013D01*
X39607705Y15639430D01*
X39748770Y15428310D01*
X39928312Y15248768D01*
X40139432Y15107703D01*
X40374015Y15010535D01*
X40623047Y14961000D01*
X40876957Y14961000D01*
X41125989Y15010535D01*
X41360572Y15107703D01*
X41571692Y15248768D01*
X41751234Y15428310D01*
X41892299Y15639430D01*
X41989467Y15874013D01*
X42039002Y16123045D01*
X42039002Y16376955D01*
X41989467Y16625987D01*
X41892299Y16860570D01*
X41829502Y16954553D01*
X41829502Y21446977D01*
X41834724Y21499999D01*
X41829502Y21553020D01*
X41829502Y21553027D01*
X41813882Y21711617D01*
X41752155Y21915104D01*
X41651916Y22102638D01*
X41517017Y22267013D01*
X41475823Y22300820D01*
X40356142Y23420500D01*
X43318337Y23420500D01*
X43371366Y23415277D01*
X43424395Y23420500D01*
X43582985Y23436120D01*
X43786472Y23497847D01*
X43974006Y23598086D01*
X44138381Y23732985D01*
X44172192Y23774184D01*
X44673000Y24274991D01*
X44673000Y13225000D01*
X44675507Y13199891D01*
X44682798Y13176086D01*
X44694592Y13154160D01*
X44710438Y13134958D01*
X44729725Y13119215D01*
X44751713Y13107538D01*
X44775557Y13100374D01*
X44800340Y13098000D01*
X45102734Y13098809D01*
X45239752Y12986360D01*
X45398535Y12901489D01*
X45570825Y12849225D01*
X45705102Y12836000D01*
X45750000Y12831578D01*
X45794898Y12836000D01*
X62955102Y12836000D01*
X63000000Y12831578D01*
X63044898Y12836000D01*
X63179175Y12849225D01*
X63351465Y12901489D01*
X63510248Y12986360D01*
X63649422Y13100578D01*
X63739775Y13210673D01*
X65361000Y13210673D01*
X65361000Y12789327D01*
X65443200Y12376077D01*
X65604443Y11986803D01*
X65838530Y11636467D01*
X66136467Y11338530D01*
X66486803Y11104443D01*
X66876077Y10943200D01*
X67289327Y10861000D01*
X67710673Y10861000D01*
X68123923Y10943200D01*
X68513197Y11104443D01*
X68863533Y11338530D01*
X69161470Y11636467D01*
X69395557Y11986803D01*
X69556800Y12376077D01*
X69639000Y12789327D01*
X69639000Y13210673D01*
X72861000Y13210673D01*
X72861000Y12789327D01*
X72943200Y12376077D01*
X73104443Y11986803D01*
X73338530Y11636467D01*
X73636467Y11338530D01*
X73986803Y11104443D01*
X74376077Y10943200D01*
X74789327Y10861000D01*
X75210673Y10861000D01*
X75623923Y10943200D01*
X76013197Y11104443D01*
X76363533Y11338530D01*
X76661470Y11636467D01*
X76895557Y11986803D01*
X77056800Y12376077D01*
X77139000Y12789327D01*
X77139000Y13210673D01*
X80361000Y13210673D01*
X80361000Y12789327D01*
X80443200Y12376077D01*
X80604443Y11986803D01*
X80838530Y11636467D01*
X81136467Y11338530D01*
X81486803Y11104443D01*
X81876077Y10943200D01*
X82289327Y10861000D01*
X82710673Y10861000D01*
X83123923Y10943200D01*
X83513197Y11104443D01*
X83863533Y11338530D01*
X84161470Y11636467D01*
X84395557Y11986803D01*
X84556800Y12376077D01*
X84639000Y12789327D01*
X84639000Y13210673D01*
X87861000Y13210673D01*
X87861000Y12789327D01*
X87943200Y12376077D01*
X88104443Y11986803D01*
X88338530Y11636467D01*
X88636467Y11338530D01*
X88986803Y11104443D01*
X89376077Y10943200D01*
X89789327Y10861000D01*
X90210673Y10861000D01*
X90623923Y10943200D01*
X91013197Y11104443D01*
X91363533Y11338530D01*
X91661470Y11636467D01*
X91895557Y11986803D01*
X92056800Y12376077D01*
X92139000Y12789327D01*
X92139000Y13210673D01*
X92056800Y13623923D01*
X91895557Y14013197D01*
X91661470Y14363533D01*
X91363533Y14661470D01*
X91013197Y14895557D01*
X90623923Y15056800D01*
X90210673Y15139000D01*
X89789327Y15139000D01*
X89376077Y15056800D01*
X88986803Y14895557D01*
X88636467Y14661470D01*
X88338530Y14363533D01*
X88104443Y14013197D01*
X87943200Y13623923D01*
X87861000Y13210673D01*
X84639000Y13210673D01*
X84556800Y13623923D01*
X84395557Y14013197D01*
X84161470Y14363533D01*
X83863533Y14661470D01*
X83513197Y14895557D01*
X83123923Y15056800D01*
X82710673Y15139000D01*
X82289327Y15139000D01*
X81876077Y15056800D01*
X81486803Y14895557D01*
X81136467Y14661470D01*
X80838530Y14363533D01*
X80604443Y14013197D01*
X80443200Y13623923D01*
X80361000Y13210673D01*
X77139000Y13210673D01*
X77056800Y13623923D01*
X76895557Y14013197D01*
X76661470Y14363533D01*
X76363533Y14661470D01*
X76013197Y14895557D01*
X75623923Y15056800D01*
X75210673Y15139000D01*
X74789327Y15139000D01*
X74376077Y15056800D01*
X73986803Y14895557D01*
X73636467Y14661470D01*
X73338530Y14363533D01*
X73104443Y14013197D01*
X72943200Y13623923D01*
X72861000Y13210673D01*
X69639000Y13210673D01*
X69556800Y13623923D01*
X69395557Y14013197D01*
X69161470Y14363533D01*
X68863533Y14661470D01*
X68513197Y14895557D01*
X68123923Y15056800D01*
X67710673Y15139000D01*
X67289327Y15139000D01*
X66876077Y15056800D01*
X66486803Y14895557D01*
X66136467Y14661470D01*
X65838530Y14363533D01*
X65604443Y14013197D01*
X65443200Y13623923D01*
X65361000Y13210673D01*
X63739775Y13210673D01*
X63763640Y13239752D01*
X63848511Y13398535D01*
X63900775Y13570825D01*
X63918422Y13750000D01*
X63914000Y13794898D01*
X63914000Y24640010D01*
X71633348Y24640010D01*
X72799182Y23474174D01*
X72832985Y23432985D01*
X72997360Y23298086D01*
X73184894Y23197847D01*
X73337713Y23151490D01*
X73388381Y23136120D01*
X73600000Y23115277D01*
X73653029Y23120500D01*
X86146971Y23120500D01*
X86200000Y23115277D01*
X86253029Y23120500D01*
X86411619Y23136120D01*
X86615106Y23197847D01*
X86802640Y23298086D01*
X86967015Y23432985D01*
X87000827Y23474184D01*
X89454287Y25927643D01*
X89789327Y25861000D01*
X90210673Y25861000D01*
X90623923Y25943200D01*
X91013197Y26104443D01*
X91363533Y26338530D01*
X91661470Y26636467D01*
X91895557Y26986803D01*
X92056800Y27376077D01*
X92139000Y27789327D01*
X92139000Y28210673D01*
X92056800Y28623923D01*
X91895557Y29013197D01*
X91661470Y29363533D01*
X91363533Y29661470D01*
X91013197Y29895557D01*
X90623923Y30056800D01*
X90210673Y30139000D01*
X89789327Y30139000D01*
X89376077Y30056800D01*
X88986803Y29895557D01*
X88636467Y29661470D01*
X88338530Y29363533D01*
X88104443Y29013197D01*
X87943200Y28623923D01*
X87861000Y28210673D01*
X87861000Y27789327D01*
X87927643Y27454287D01*
X85752858Y25279500D01*
X77325550Y25279500D01*
X78776051Y26730000D01*
X80776033Y26730000D01*
X80838530Y26636467D01*
X81136467Y26338530D01*
X81486803Y26104443D01*
X81876077Y25943200D01*
X82289327Y25861000D01*
X82710673Y25861000D01*
X83123923Y25943200D01*
X83513197Y26104443D01*
X83863533Y26338530D01*
X84161470Y26636467D01*
X84395557Y26986803D01*
X84556800Y27376077D01*
X84639000Y27789327D01*
X84639000Y28210673D01*
X84556800Y28623923D01*
X84395557Y29013197D01*
X84161470Y29363533D01*
X83863533Y29661470D01*
X83513197Y29895557D01*
X83123923Y30056800D01*
X82710673Y30139000D01*
X82289327Y30139000D01*
X81876077Y30056800D01*
X81486803Y29895557D01*
X81136467Y29661470D01*
X80838530Y29363533D01*
X80776033Y29270000D01*
X78312380Y29270000D01*
X78250000Y29276144D01*
X78187620Y29270000D01*
X78001037Y29251623D01*
X77761641Y29179003D01*
X77541012Y29061075D01*
X77347630Y28902370D01*
X77307863Y28853914D01*
X77060296Y28606347D01*
X77056800Y28623923D01*
X76895557Y29013197D01*
X76661470Y29363533D01*
X76363533Y29661470D01*
X76013197Y29895557D01*
X75623923Y30056800D01*
X75210673Y30139000D01*
X74789327Y30139000D01*
X74376077Y30056800D01*
X73986803Y29895557D01*
X73636467Y29661470D01*
X73338530Y29363533D01*
X73104443Y29013197D01*
X72943200Y28623923D01*
X72898226Y28397824D01*
X72442141Y28853909D01*
X72402370Y28902370D01*
X72208988Y29061075D01*
X71988359Y29179003D01*
X71748963Y29251623D01*
X71562380Y29270000D01*
X71562373Y29270000D01*
X71500000Y29276143D01*
X71437627Y29270000D01*
X69223967Y29270000D01*
X69161470Y29363533D01*
X68863533Y29661470D01*
X68513197Y29895557D01*
X68162096Y30040988D01*
X74067459Y30040988D01*
X74120488Y30035765D01*
X74173517Y30040988D01*
X74332107Y30056608D01*
X74535594Y30118335D01*
X74723128Y30218574D01*
X74887503Y30353473D01*
X74921314Y30394672D01*
X75265127Y30738484D01*
X75375987Y30760535D01*
X75610570Y30857703D01*
X75821690Y30998768D01*
X76001232Y31178310D01*
X76142297Y31389430D01*
X76239465Y31624013D01*
X76289000Y31873045D01*
X76289000Y32126955D01*
X76239465Y32375987D01*
X76168523Y32547255D01*
X76239465Y32718523D01*
X76289000Y32967555D01*
X76289000Y33221465D01*
X76276633Y33283641D01*
X78725821Y35732828D01*
X78767015Y35766635D01*
X78901914Y35931010D01*
X79002153Y36118544D01*
X79030099Y36210673D01*
X80361000Y36210673D01*
X80361000Y35789327D01*
X80443200Y35376077D01*
X80604443Y34986803D01*
X80838530Y34636467D01*
X81136467Y34338530D01*
X81486803Y34104443D01*
X81876077Y33943200D01*
X82289327Y33861000D01*
X82710673Y33861000D01*
X83123923Y33943200D01*
X83513197Y34104443D01*
X83863533Y34338530D01*
X84161470Y34636467D01*
X84395557Y34986803D01*
X84556800Y35376077D01*
X84639000Y35789327D01*
X84639000Y36210673D01*
X87861000Y36210673D01*
X87861000Y35789327D01*
X87943200Y35376077D01*
X88104443Y34986803D01*
X88338530Y34636467D01*
X88636467Y34338530D01*
X88986803Y34104443D01*
X89376077Y33943200D01*
X89789327Y33861000D01*
X90210673Y33861000D01*
X90623923Y33943200D01*
X91013197Y34104443D01*
X91363533Y34338530D01*
X91661470Y34636467D01*
X91895557Y34986803D01*
X92056800Y35376077D01*
X92139000Y35789327D01*
X92139000Y36210673D01*
X92056800Y36623923D01*
X91895557Y37013197D01*
X91661470Y37363533D01*
X91363533Y37661470D01*
X91013197Y37895557D01*
X90623923Y38056800D01*
X90210673Y38139000D01*
X89789327Y38139000D01*
X89376077Y38056800D01*
X88986803Y37895557D01*
X88636467Y37661470D01*
X88338530Y37363533D01*
X88104443Y37013197D01*
X87943200Y36623923D01*
X87861000Y36210673D01*
X84639000Y36210673D01*
X84556800Y36623923D01*
X84395557Y37013197D01*
X84161470Y37363533D01*
X83863533Y37661470D01*
X83513197Y37895557D01*
X83123923Y38056800D01*
X82710673Y38139000D01*
X82289327Y38139000D01*
X81876077Y38056800D01*
X81486803Y37895557D01*
X81136467Y37661470D01*
X80838530Y37363533D01*
X80604443Y37013197D01*
X80443200Y36623923D01*
X80361000Y36210673D01*
X79030099Y36210673D01*
X79063880Y36322031D01*
X79079500Y36480621D01*
X79079500Y36480628D01*
X79084722Y36533649D01*
X79079500Y36586671D01*
X79079500Y41210673D01*
X80361000Y41210673D01*
X80361000Y40789327D01*
X80443200Y40376077D01*
X80604443Y39986803D01*
X80838530Y39636467D01*
X81136467Y39338530D01*
X81486803Y39104443D01*
X81876077Y38943200D01*
X82289327Y38861000D01*
X82710673Y38861000D01*
X83123923Y38943200D01*
X83513197Y39104443D01*
X83863533Y39338530D01*
X84161470Y39636467D01*
X84395557Y39986803D01*
X84556800Y40376077D01*
X84639000Y40789327D01*
X84639000Y41210673D01*
X87861000Y41210673D01*
X87861000Y40789327D01*
X87943200Y40376077D01*
X88104443Y39986803D01*
X88338530Y39636467D01*
X88636467Y39338530D01*
X88986803Y39104443D01*
X89376077Y38943200D01*
X89789327Y38861000D01*
X90210673Y38861000D01*
X90623923Y38943200D01*
X91013197Y39104443D01*
X91363533Y39338530D01*
X91661470Y39636467D01*
X91895557Y39986803D01*
X92056800Y40376077D01*
X92139000Y40789327D01*
X92139000Y41210673D01*
X92056800Y41623923D01*
X91895557Y42013197D01*
X91661470Y42363533D01*
X91363533Y42661470D01*
X91013197Y42895557D01*
X90623923Y43056800D01*
X90210673Y43139000D01*
X89789327Y43139000D01*
X89376077Y43056800D01*
X88986803Y42895557D01*
X88636467Y42661470D01*
X88338530Y42363533D01*
X88104443Y42013197D01*
X87943200Y41623923D01*
X87861000Y41210673D01*
X84639000Y41210673D01*
X84556800Y41623923D01*
X84395557Y42013197D01*
X84161470Y42363533D01*
X83863533Y42661470D01*
X83513197Y42895557D01*
X83123923Y43056800D01*
X82710673Y43139000D01*
X82289327Y43139000D01*
X81876077Y43056800D01*
X81486803Y42895557D01*
X81136467Y42661470D01*
X80838530Y42363533D01*
X80604443Y42013197D01*
X80443200Y41623923D01*
X80361000Y41210673D01*
X79079500Y41210673D01*
X79079500Y46210673D01*
X80361000Y46210673D01*
X80361000Y45789327D01*
X80443200Y45376077D01*
X80604443Y44986803D01*
X80838530Y44636467D01*
X81136467Y44338530D01*
X81486803Y44104443D01*
X81876077Y43943200D01*
X82289327Y43861000D01*
X82710673Y43861000D01*
X83123923Y43943200D01*
X83513197Y44104443D01*
X83863533Y44338530D01*
X84161470Y44636467D01*
X84395557Y44986803D01*
X84556800Y45376077D01*
X84639000Y45789327D01*
X84639000Y46210673D01*
X87861000Y46210673D01*
X87861000Y45789327D01*
X87943200Y45376077D01*
X88104443Y44986803D01*
X88338530Y44636467D01*
X88636467Y44338530D01*
X88986803Y44104443D01*
X89376077Y43943200D01*
X89789327Y43861000D01*
X90210673Y43861000D01*
X90623923Y43943200D01*
X91013197Y44104443D01*
X91363533Y44338530D01*
X91661470Y44636467D01*
X91895557Y44986803D01*
X92056800Y45376077D01*
X92139000Y45789327D01*
X92139000Y46210673D01*
X92056800Y46623923D01*
X91895557Y47013197D01*
X91661470Y47363533D01*
X91363533Y47661470D01*
X91013197Y47895557D01*
X90623923Y48056800D01*
X90210673Y48139000D01*
X89789327Y48139000D01*
X89376077Y48056800D01*
X88986803Y47895557D01*
X88636467Y47661470D01*
X88338530Y47363533D01*
X88104443Y47013197D01*
X87943200Y46623923D01*
X87861000Y46210673D01*
X84639000Y46210673D01*
X84556800Y46623923D01*
X84395557Y47013197D01*
X84161470Y47363533D01*
X83863533Y47661470D01*
X83513197Y47895557D01*
X83123923Y48056800D01*
X82710673Y48139000D01*
X82289327Y48139000D01*
X81876077Y48056800D01*
X81486803Y47895557D01*
X81136467Y47661470D01*
X80838530Y47363533D01*
X80604443Y47013197D01*
X80443200Y46623923D01*
X80361000Y46210673D01*
X79079500Y46210673D01*
X79079500Y48552858D01*
X89454287Y58927643D01*
X89789327Y58861000D01*
X90210673Y58861000D01*
X90623923Y58943200D01*
X91013197Y59104443D01*
X91363533Y59338530D01*
X91661470Y59636467D01*
X91895557Y59986803D01*
X92056800Y60376077D01*
X92139000Y60789327D01*
X92139000Y61210673D01*
X92056800Y61623923D01*
X91895557Y62013197D01*
X91661470Y62363533D01*
X91363533Y62661470D01*
X91013197Y62895557D01*
X90623923Y63056800D01*
X90210673Y63139000D01*
X89789327Y63139000D01*
X89376077Y63056800D01*
X88986803Y62895557D01*
X88636467Y62661470D01*
X88338530Y62363533D01*
X88104443Y62013197D01*
X87943200Y61623923D01*
X87861000Y61210673D01*
X87861000Y60789327D01*
X87927643Y60454287D01*
X77274185Y49800827D01*
X77232985Y49767015D01*
X77098086Y49602640D01*
X76997847Y49415105D01*
X76997847Y49415104D01*
X76936120Y49211618D01*
X76915277Y49000000D01*
X76920500Y48946971D01*
X76920500Y46952979D01*
X76895557Y47013197D01*
X76661470Y47363533D01*
X76363533Y47661470D01*
X76013197Y47895557D01*
X75623923Y48056800D01*
X75210673Y48139000D01*
X74789327Y48139000D01*
X74376077Y48056800D01*
X73986803Y47895557D01*
X73636467Y47661470D01*
X73338530Y47363533D01*
X73270000Y47260971D01*
X73270000Y49973950D01*
X82178997Y58882946D01*
X82289327Y58861000D01*
X82710673Y58861000D01*
X83123923Y58943200D01*
X83513197Y59104443D01*
X83863533Y59338530D01*
X84161470Y59636467D01*
X84395557Y59986803D01*
X84556800Y60376077D01*
X84639000Y60789327D01*
X84639000Y61210673D01*
X84556800Y61623923D01*
X84395557Y62013197D01*
X84161470Y62363533D01*
X83863533Y62661470D01*
X83513197Y62895557D01*
X83123923Y63056800D01*
X82710673Y63139000D01*
X82289327Y63139000D01*
X81876077Y63056800D01*
X81486803Y62895557D01*
X81136467Y62661470D01*
X80838530Y62363533D01*
X80604443Y62013197D01*
X80443200Y61623923D01*
X80361000Y61210673D01*
X80361000Y60789327D01*
X80382946Y60678997D01*
X71146091Y51442141D01*
X71097630Y51402370D01*
X70938925Y51208987D01*
X70820997Y50988358D01*
X70748377Y50748962D01*
X70730000Y50562379D01*
X70730000Y50562373D01*
X70723857Y50500000D01*
X70730000Y50437627D01*
X70730001Y33663470D01*
X70711000Y33567945D01*
X70711000Y33314035D01*
X70760535Y33065003D01*
X70778971Y33020495D01*
X70760535Y32975987D01*
X70732491Y32834999D01*
X42589685Y32834999D01*
X41402970Y34021714D01*
X41610570Y34107705D01*
X41821690Y34248770D01*
X42001232Y34428312D01*
X42142297Y34639432D01*
X42239465Y34874015D01*
X42250552Y34929751D01*
X42252573Y34930589D01*
X42279318Y34898000D01*
X42332814Y34832814D01*
X42475796Y34715473D01*
X42638922Y34628280D01*
X42815924Y34574587D01*
X43000000Y34556457D01*
X43046125Y34561000D01*
X60703875Y34561000D01*
X60750000Y34556457D01*
X60934076Y34574587D01*
X61111078Y34628280D01*
X61274204Y34715473D01*
X61417186Y34832814D01*
X61534527Y34975796D01*
X61621720Y35138922D01*
X61675413Y35315924D01*
X61689000Y35453874D01*
X61689000Y35453875D01*
X61693543Y35500000D01*
X61689000Y35546126D01*
X61689000Y36210673D01*
X65361000Y36210673D01*
X65361000Y35789327D01*
X65443200Y35376077D01*
X65604443Y34986803D01*
X65838530Y34636467D01*
X66136467Y34338530D01*
X66486803Y34104443D01*
X66876077Y33943200D01*
X67289327Y33861000D01*
X67710673Y33861000D01*
X68123923Y33943200D01*
X68513197Y34104443D01*
X68863533Y34338530D01*
X69161470Y34636467D01*
X69395557Y34986803D01*
X69556800Y35376077D01*
X69639000Y35789327D01*
X69639000Y36210673D01*
X69556800Y36623923D01*
X69395557Y37013197D01*
X69161470Y37363533D01*
X68863533Y37661470D01*
X68513197Y37895557D01*
X68123923Y38056800D01*
X67710673Y38139000D01*
X67289327Y38139000D01*
X66876077Y38056800D01*
X66486803Y37895557D01*
X66136467Y37661470D01*
X65838530Y37363533D01*
X65604443Y37013197D01*
X65443200Y36623923D01*
X65361000Y36210673D01*
X61689000Y36210673D01*
X61689000Y41210673D01*
X65361000Y41210673D01*
X65361000Y40789327D01*
X65443200Y40376077D01*
X65604443Y39986803D01*
X65838530Y39636467D01*
X66136467Y39338530D01*
X66486803Y39104443D01*
X66876077Y38943200D01*
X67289327Y38861000D01*
X67710673Y38861000D01*
X68123923Y38943200D01*
X68513197Y39104443D01*
X68863533Y39338530D01*
X69161470Y39636467D01*
X69395557Y39986803D01*
X69556800Y40376077D01*
X69639000Y40789327D01*
X69639000Y41210673D01*
X69556800Y41623923D01*
X69395557Y42013197D01*
X69161470Y42363533D01*
X68863533Y42661470D01*
X68513197Y42895557D01*
X68123923Y43056800D01*
X67710673Y43139000D01*
X67289327Y43139000D01*
X66876077Y43056800D01*
X66486803Y42895557D01*
X66136467Y42661470D01*
X65838530Y42363533D01*
X65604443Y42013197D01*
X65443200Y41623923D01*
X65361000Y41210673D01*
X61689000Y41210673D01*
X61689000Y46210673D01*
X65361000Y46210673D01*
X65361000Y45789327D01*
X65443200Y45376077D01*
X65604443Y44986803D01*
X65838530Y44636467D01*
X66136467Y44338530D01*
X66486803Y44104443D01*
X66876077Y43943200D01*
X67289327Y43861000D01*
X67710673Y43861000D01*
X68123923Y43943200D01*
X68513197Y44104443D01*
X68863533Y44338530D01*
X69161470Y44636467D01*
X69395557Y44986803D01*
X69556800Y45376077D01*
X69639000Y45789327D01*
X69639000Y46210673D01*
X69556800Y46623923D01*
X69395557Y47013197D01*
X69161470Y47363533D01*
X68863533Y47661470D01*
X68513197Y47895557D01*
X68123923Y48056800D01*
X67710673Y48139000D01*
X67289327Y48139000D01*
X66876077Y48056800D01*
X66486803Y47895557D01*
X66136467Y47661470D01*
X65838530Y47363533D01*
X65604443Y47013197D01*
X65443200Y46623923D01*
X65361000Y46210673D01*
X61689000Y46210673D01*
X61689000Y46453874D01*
X61693543Y46500000D01*
X61675413Y46684076D01*
X61621720Y46861078D01*
X61534527Y47024204D01*
X61417186Y47167186D01*
X61274204Y47284527D01*
X61111078Y47371720D01*
X60934076Y47425413D01*
X60796126Y47439000D01*
X60796125Y47439000D01*
X60750000Y47443543D01*
X60703874Y47439000D01*
X43046126Y47439000D01*
X43000000Y47443543D01*
X42953875Y47439000D01*
X42953874Y47439000D01*
X42815924Y47425413D01*
X42638922Y47371720D01*
X42627000Y47365348D01*
X42627000Y47971991D01*
X62998462Y47971991D01*
X63051491Y47966768D01*
X63104520Y47971991D01*
X63263110Y47987611D01*
X63466597Y48049338D01*
X63654131Y48149577D01*
X63818506Y48284476D01*
X63852318Y48325676D01*
X74454286Y58927643D01*
X74789327Y58861000D01*
X75210673Y58861000D01*
X75623923Y58943200D01*
X76013197Y59104443D01*
X76363533Y59338530D01*
X76661470Y59636467D01*
X76895557Y59986803D01*
X77056800Y60376077D01*
X77139000Y60789327D01*
X77139000Y61210673D01*
X77056800Y61623923D01*
X76895557Y62013197D01*
X76661470Y62363533D01*
X76363533Y62661470D01*
X76013197Y62895557D01*
X75623923Y63056800D01*
X75210673Y63139000D01*
X74789327Y63139000D01*
X74376077Y63056800D01*
X73986803Y62895557D01*
X73636467Y62661470D01*
X73338530Y62363533D01*
X73104443Y62013197D01*
X72943200Y61623923D01*
X72861000Y61210673D01*
X72861000Y60789327D01*
X72927643Y60454286D01*
X62604349Y50130991D01*
X56997436Y50130991D01*
X58626488Y51760043D01*
X58873045Y51711000D01*
X59126955Y51711000D01*
X59375987Y51760535D01*
X59610570Y51857703D01*
X59821690Y51998768D01*
X60001232Y52178310D01*
X60142297Y52389430D01*
X60239465Y52624013D01*
X60289000Y52873045D01*
X60289000Y53126955D01*
X60239465Y53375987D01*
X60142297Y53610570D01*
X60001232Y53821690D01*
X59821690Y54001232D01*
X59610570Y54142297D01*
X59375987Y54239465D01*
X59126955Y54289000D01*
X58873045Y54289000D01*
X58625000Y54239661D01*
X58376955Y54289000D01*
X58123045Y54289000D01*
X57874013Y54239465D01*
X57639430Y54142297D01*
X57428310Y54001232D01*
X57248768Y53821690D01*
X57107703Y53610570D01*
X57011238Y53377684D01*
X55526555Y51893000D01*
X46413396Y51893000D01*
X46571690Y51998768D01*
X46751232Y52178310D01*
X46892297Y52389430D01*
X46989465Y52624013D01*
X47039000Y52873045D01*
X47039000Y53126955D01*
X46989465Y53375987D01*
X46892297Y53610570D01*
X46751232Y53821690D01*
X46571690Y54001232D01*
X46407410Y54111000D01*
X47750000Y54111000D01*
X47866037Y54118605D01*
X47995447Y54135642D01*
X48219615Y54195708D01*
X48340205Y54245658D01*
X48541193Y54361699D01*
X48644746Y54441159D01*
X48808841Y54605254D01*
X48888301Y54708807D01*
X49004342Y54909795D01*
X49054292Y55030385D01*
X49114358Y55254553D01*
X49131395Y55383963D01*
X49139000Y55500000D01*
X49139000Y61210673D01*
X65361000Y61210673D01*
X65361000Y60789327D01*
X65443200Y60376077D01*
X65604443Y59986803D01*
X65838530Y59636467D01*
X66136467Y59338530D01*
X66486803Y59104443D01*
X66876077Y58943200D01*
X67289327Y58861000D01*
X67710673Y58861000D01*
X68123923Y58943200D01*
X68513197Y59104443D01*
X68863533Y59338530D01*
X69161470Y59636467D01*
X69395557Y59986803D01*
X69556800Y60376077D01*
X69639000Y60789327D01*
X69639000Y61210673D01*
X69556800Y61623923D01*
X69395557Y62013197D01*
X69161470Y62363533D01*
X68863533Y62661470D01*
X68513197Y62895557D01*
X68123923Y63056800D01*
X67710673Y63139000D01*
X67289327Y63139000D01*
X66876077Y63056800D01*
X66486803Y62895557D01*
X66136467Y62661470D01*
X65838530Y62363533D01*
X65604443Y62013197D01*
X65443200Y61623923D01*
X65361000Y61210673D01*
X49139000Y61210673D01*
X49139000Y63750000D01*
X49131395Y63866037D01*
X49114358Y63995447D01*
X49054292Y64219615D01*
X49004342Y64340205D01*
X48888301Y64541193D01*
X48808841Y64644746D01*
X48644746Y64808841D01*
X48541193Y64888301D01*
X48340205Y65004342D01*
X48219615Y65054292D01*
X47995447Y65114358D01*
X47866037Y65131395D01*
X47750000Y65139000D01*
X42627000Y65139000D01*
X42627000Y69500000D01*
X65000651Y69500000D01*
X65041950Y69080683D01*
X65164260Y68677480D01*
X65362882Y68305886D01*
X65630181Y67980181D01*
X65955886Y67712882D01*
X66327480Y67514260D01*
X66730683Y67391950D01*
X67044925Y67361000D01*
X68755075Y67361000D01*
X69069317Y67391950D01*
X69472520Y67514260D01*
X69844114Y67712882D01*
X70169819Y67980181D01*
X70437118Y68305886D01*
X70635740Y68677480D01*
X70758050Y69080683D01*
X70799349Y69500000D01*
X87600651Y69500000D01*
X87641950Y69080683D01*
X87764260Y68677480D01*
X87962882Y68305886D01*
X88230181Y67980181D01*
X88555886Y67712882D01*
X88927480Y67514260D01*
X89330683Y67391950D01*
X89644925Y67361000D01*
X91355075Y67361000D01*
X91669317Y67391950D01*
X92072520Y67514260D01*
X92444114Y67712882D01*
X92769819Y67980181D01*
X93037118Y68305886D01*
X93235740Y68677480D01*
X93358050Y69080683D01*
X93399349Y69500000D01*
X93358050Y69919317D01*
X93235740Y70322520D01*
X93037118Y70694114D01*
X92769819Y71019819D01*
X92444114Y71287118D01*
X92072520Y71485740D01*
X91669317Y71608050D01*
X91355075Y71639000D01*
X89644925Y71639000D01*
X89330683Y71608050D01*
X88927480Y71485740D01*
X88555886Y71287118D01*
X88230181Y71019819D01*
X87962882Y70694114D01*
X87764260Y70322520D01*
X87641950Y69919317D01*
X87600651Y69500000D01*
X70799349Y69500000D01*
X70758050Y69919317D01*
X70635740Y70322520D01*
X70437118Y70694114D01*
X70169819Y71019819D01*
X69844114Y71287118D01*
X69472520Y71485740D01*
X69069317Y71608050D01*
X68755075Y71639000D01*
X67044925Y71639000D01*
X66730683Y71608050D01*
X66327480Y71485740D01*
X65955886Y71287118D01*
X65630181Y71019819D01*
X65362882Y70694114D01*
X65164260Y70322520D01*
X65041950Y69919317D01*
X65000651Y69500000D01*
X42627000Y69500000D01*
X42627000Y73991672D01*
X42632836Y74036000D01*
X99036000Y74036000D01*
X99036000Y70900362D01*
%TA.AperFunction,Conductor*%
D21*
G36*
X99036000Y70900362D02*
G01*
X98987524Y70926273D01*
X98773049Y70991333D01*
X98550003Y71013301D01*
X95449997Y71013301D01*
X95226951Y70991333D01*
X95012476Y70926273D01*
X94814815Y70820621D01*
X94641563Y70678437D01*
X94499379Y70505185D01*
X94393727Y70307524D01*
X94328667Y70093049D01*
X94306699Y69870003D01*
X94306699Y68289997D01*
X94328667Y68066951D01*
X94393727Y67852476D01*
X94499379Y67654815D01*
X94641563Y67481563D01*
X94814815Y67339379D01*
X95012476Y67233727D01*
X95226951Y67168667D01*
X95449997Y67146699D01*
X98550003Y67146699D01*
X98773049Y67168667D01*
X98987524Y67233727D01*
X99036000Y67259638D01*
X99036000Y54900362D01*
X98987524Y54926273D01*
X98773049Y54991333D01*
X98550003Y55013301D01*
X95449997Y55013301D01*
X95226951Y54991333D01*
X95012476Y54926273D01*
X94814815Y54820621D01*
X94641563Y54678437D01*
X94499379Y54505185D01*
X94393727Y54307524D01*
X94328667Y54093049D01*
X94306699Y53870003D01*
X94306699Y52289997D01*
X94328667Y52066951D01*
X94393727Y51852476D01*
X94499379Y51654815D01*
X94641563Y51481563D01*
X94814815Y51339379D01*
X95012476Y51233727D01*
X95226951Y51168667D01*
X95449997Y51146699D01*
X98550003Y51146699D01*
X98773049Y51168667D01*
X98987524Y51233727D01*
X99036000Y51259638D01*
X99036000Y39070362D01*
X98987524Y39096273D01*
X98773049Y39161333D01*
X98550003Y39183301D01*
X95449997Y39183301D01*
X95226951Y39161333D01*
X95012476Y39096273D01*
X94814815Y38990621D01*
X94641563Y38848437D01*
X94499379Y38675185D01*
X94393727Y38477524D01*
X94328667Y38263049D01*
X94306699Y38040003D01*
X94306699Y36459997D01*
X94328667Y36236951D01*
X94393727Y36022476D01*
X94499379Y35824815D01*
X94641563Y35651563D01*
X94814815Y35509379D01*
X95012476Y35403727D01*
X95226951Y35338667D01*
X95449997Y35316699D01*
X98550003Y35316699D01*
X98773049Y35338667D01*
X98987524Y35403727D01*
X99036001Y35429638D01*
X99036001Y33618251D01*
X98836880Y33781665D01*
X98501768Y33960786D01*
X98138150Y34071088D01*
X97854758Y34099000D01*
X96145242Y34099000D01*
X95861850Y34071088D01*
X95498232Y33960786D01*
X95163120Y33781665D01*
X94869392Y33540608D01*
X94628335Y33246880D01*
X94449214Y32911768D01*
X94338912Y32548150D01*
X94301667Y32170000D01*
X94338912Y31791850D01*
X94449214Y31428232D01*
X94628335Y31093120D01*
X94869392Y30799392D01*
X95163120Y30558335D01*
X95498232Y30379214D01*
X95861850Y30268912D01*
X96145242Y30241000D01*
X97854758Y30241000D01*
X98138150Y30268912D01*
X98501768Y30379214D01*
X98836880Y30558335D01*
X99036001Y30721749D01*
X99036001Y17980362D01*
X98987524Y18006273D01*
X98773049Y18071333D01*
X98550003Y18093301D01*
X95449997Y18093301D01*
X95226951Y18071333D01*
X95012476Y18006273D01*
X94814815Y17900621D01*
X94641563Y17758437D01*
X94499379Y17585185D01*
X94393727Y17387524D01*
X94328667Y17173049D01*
X94306699Y16950003D01*
X94306699Y15369997D01*
X94328667Y15146951D01*
X94393727Y14932476D01*
X94499379Y14734815D01*
X94641563Y14561563D01*
X94814815Y14419379D01*
X95012476Y14313727D01*
X95226951Y14248667D01*
X95449997Y14226699D01*
X98550003Y14226699D01*
X98773049Y14248667D01*
X98987524Y14313727D01*
X99036001Y14339638D01*
X99036001Y12528250D01*
X98836880Y12691665D01*
X98501768Y12870786D01*
X98138150Y12981088D01*
X97854758Y13009000D01*
X96145242Y13009000D01*
X95861850Y12981088D01*
X95498232Y12870786D01*
X95163120Y12691665D01*
X94869392Y12450608D01*
X94628335Y12156880D01*
X94449214Y11821768D01*
X94338912Y11458150D01*
X94301667Y11080000D01*
X94338912Y10701850D01*
X94449214Y10338232D01*
X94628335Y10003120D01*
X94869392Y9709392D01*
X95163120Y9468335D01*
X95498232Y9289214D01*
X95861850Y9178912D01*
X96145242Y9151000D01*
X97854758Y9151000D01*
X98138150Y9178912D01*
X98501768Y9289214D01*
X98836880Y9468335D01*
X99036001Y9631750D01*
X99036001Y964000D01*
X90674139Y964000D01*
X91013197Y1104443D01*
X91363533Y1338530D01*
X91661470Y1636467D01*
X91895557Y1986803D01*
X92056800Y2376077D01*
X92139000Y2789327D01*
X92139000Y3210673D01*
X92056800Y3623923D01*
X91895557Y4013197D01*
X91661470Y4363533D01*
X91363533Y4661470D01*
X91013197Y4895557D01*
X90623923Y5056800D01*
X90210673Y5139000D01*
X89789327Y5139000D01*
X89376077Y5056800D01*
X88986803Y4895557D01*
X88636467Y4661470D01*
X88338530Y4363533D01*
X88104443Y4013197D01*
X87943200Y3623923D01*
X87861000Y3210673D01*
X87861000Y2789327D01*
X87943200Y2376077D01*
X88104443Y1986803D01*
X88338530Y1636467D01*
X88636467Y1338530D01*
X88986803Y1104443D01*
X89325861Y964000D01*
X83174139Y964000D01*
X83513197Y1104443D01*
X83863533Y1338530D01*
X84161470Y1636467D01*
X84395557Y1986803D01*
X84556800Y2376077D01*
X84639000Y2789327D01*
X84639000Y3210673D01*
X84556800Y3623923D01*
X84395557Y4013197D01*
X84161470Y4363533D01*
X83863533Y4661470D01*
X83513197Y4895557D01*
X83123923Y5056800D01*
X82710673Y5139000D01*
X82289327Y5139000D01*
X81876077Y5056800D01*
X81486803Y4895557D01*
X81136467Y4661470D01*
X80838530Y4363533D01*
X80604443Y4013197D01*
X80443200Y3623923D01*
X80361000Y3210673D01*
X80361000Y2789327D01*
X80443200Y2376077D01*
X80604443Y1986803D01*
X80838530Y1636467D01*
X81136467Y1338530D01*
X81486803Y1104443D01*
X81825861Y964000D01*
X75674139Y964000D01*
X76013197Y1104443D01*
X76363533Y1338530D01*
X76661470Y1636467D01*
X76895557Y1986803D01*
X77056800Y2376077D01*
X77139000Y2789327D01*
X77139000Y3210673D01*
X77056800Y3623923D01*
X76895557Y4013197D01*
X76661470Y4363533D01*
X76363533Y4661470D01*
X76013197Y4895557D01*
X75623923Y5056800D01*
X75210673Y5139000D01*
X74789327Y5139000D01*
X74376077Y5056800D01*
X73986803Y4895557D01*
X73636467Y4661470D01*
X73338530Y4363533D01*
X73104443Y4013197D01*
X72943200Y3623923D01*
X72861000Y3210673D01*
X72861000Y2789327D01*
X72943200Y2376077D01*
X73104443Y1986803D01*
X73338530Y1636467D01*
X73636467Y1338530D01*
X73986803Y1104443D01*
X74325861Y964000D01*
X68174139Y964000D01*
X68513197Y1104443D01*
X68863533Y1338530D01*
X69161470Y1636467D01*
X69395557Y1986803D01*
X69556800Y2376077D01*
X69639000Y2789327D01*
X69639000Y3210673D01*
X69556800Y3623923D01*
X69395557Y4013197D01*
X69161470Y4363533D01*
X68863533Y4661470D01*
X68513197Y4895557D01*
X68123923Y5056800D01*
X67710673Y5139000D01*
X67289327Y5139000D01*
X66876077Y5056800D01*
X66486803Y4895557D01*
X66136467Y4661470D01*
X65838530Y4363533D01*
X65604443Y4013197D01*
X65443200Y3623923D01*
X65361000Y3210673D01*
X65361000Y2789327D01*
X65443200Y2376077D01*
X65604443Y1986803D01*
X65838530Y1636467D01*
X66136467Y1338530D01*
X66486803Y1104443D01*
X66825861Y964000D01*
X21132836Y964000D01*
X21127000Y1008328D01*
X21127000Y8210673D01*
X65361000Y8210673D01*
X65361000Y7789327D01*
X65443200Y7376077D01*
X65604443Y6986803D01*
X65838530Y6636467D01*
X66136467Y6338530D01*
X66486803Y6104443D01*
X66876077Y5943200D01*
X67289327Y5861000D01*
X67710673Y5861000D01*
X68123923Y5943200D01*
X68513197Y6104443D01*
X68863533Y6338530D01*
X69161470Y6636467D01*
X69395557Y6986803D01*
X69556800Y7376077D01*
X69639000Y7789327D01*
X69639000Y8210673D01*
X72861000Y8210673D01*
X72861000Y7789327D01*
X72943200Y7376077D01*
X73104443Y6986803D01*
X73338530Y6636467D01*
X73636467Y6338530D01*
X73986803Y6104443D01*
X74376077Y5943200D01*
X74789327Y5861000D01*
X75210673Y5861000D01*
X75623923Y5943200D01*
X76013197Y6104443D01*
X76363533Y6338530D01*
X76661470Y6636467D01*
X76895557Y6986803D01*
X77056800Y7376077D01*
X77139000Y7789327D01*
X77139000Y8210673D01*
X80361000Y8210673D01*
X80361000Y7789327D01*
X80443200Y7376077D01*
X80604443Y6986803D01*
X80838530Y6636467D01*
X81136467Y6338530D01*
X81486803Y6104443D01*
X81876077Y5943200D01*
X82289327Y5861000D01*
X82710673Y5861000D01*
X83123923Y5943200D01*
X83513197Y6104443D01*
X83863533Y6338530D01*
X84161470Y6636467D01*
X84395557Y6986803D01*
X84556800Y7376077D01*
X84639000Y7789327D01*
X84639000Y8210673D01*
X87861000Y8210673D01*
X87861000Y7789327D01*
X87943200Y7376077D01*
X88104443Y6986803D01*
X88338530Y6636467D01*
X88636467Y6338530D01*
X88986803Y6104443D01*
X89376077Y5943200D01*
X89789327Y5861000D01*
X90210673Y5861000D01*
X90623923Y5943200D01*
X91013197Y6104443D01*
X91363533Y6338530D01*
X91661470Y6636467D01*
X91895557Y6986803D01*
X92056800Y7376077D01*
X92139000Y7789327D01*
X92139000Y8210673D01*
X92056800Y8623923D01*
X91895557Y9013197D01*
X91661470Y9363533D01*
X91363533Y9661470D01*
X91013197Y9895557D01*
X90623923Y10056800D01*
X90210673Y10139000D01*
X89789327Y10139000D01*
X89376077Y10056800D01*
X88986803Y9895557D01*
X88636467Y9661470D01*
X88338530Y9363533D01*
X88104443Y9013197D01*
X87943200Y8623923D01*
X87861000Y8210673D01*
X84639000Y8210673D01*
X84556800Y8623923D01*
X84395557Y9013197D01*
X84161470Y9363533D01*
X83863533Y9661470D01*
X83513197Y9895557D01*
X83123923Y10056800D01*
X82710673Y10139000D01*
X82289327Y10139000D01*
X81876077Y10056800D01*
X81486803Y9895557D01*
X81136467Y9661470D01*
X80838530Y9363533D01*
X80604443Y9013197D01*
X80443200Y8623923D01*
X80361000Y8210673D01*
X77139000Y8210673D01*
X77056800Y8623923D01*
X76895557Y9013197D01*
X76661470Y9363533D01*
X76363533Y9661470D01*
X76013197Y9895557D01*
X75623923Y10056800D01*
X75210673Y10139000D01*
X74789327Y10139000D01*
X74376077Y10056800D01*
X73986803Y9895557D01*
X73636467Y9661470D01*
X73338530Y9363533D01*
X73104443Y9013197D01*
X72943200Y8623923D01*
X72861000Y8210673D01*
X69639000Y8210673D01*
X69556800Y8623923D01*
X69395557Y9013197D01*
X69161470Y9363533D01*
X68863533Y9661470D01*
X68513197Y9895557D01*
X68123923Y10056800D01*
X67710673Y10139000D01*
X67289327Y10139000D01*
X66876077Y10056800D01*
X66486803Y9895557D01*
X66136467Y9661470D01*
X65838530Y9363533D01*
X65604443Y9013197D01*
X65443200Y8623923D01*
X65361000Y8210673D01*
X21127000Y8210673D01*
X21127000Y12326955D01*
X22511000Y12326955D01*
X22511000Y12073045D01*
X22560535Y11824013D01*
X22657703Y11589430D01*
X22798768Y11378310D01*
X22978310Y11198768D01*
X23189430Y11057703D01*
X23424013Y10960535D01*
X23673045Y10911000D01*
X23926955Y10911000D01*
X24175987Y10960535D01*
X24410570Y11057703D01*
X24504553Y11120500D01*
X25946971Y11120500D01*
X26000000Y11115277D01*
X26053029Y11120500D01*
X26211619Y11136120D01*
X26415106Y11197847D01*
X26602640Y11298086D01*
X26767015Y11432985D01*
X26800826Y11474184D01*
X26961884Y11635241D01*
X27098357Y11498768D01*
X27309477Y11357703D01*
X27544060Y11260535D01*
X27654920Y11238484D01*
X28119229Y10774174D01*
X28153032Y10732985D01*
X28194221Y10699182D01*
X28194222Y10699181D01*
X28317407Y10598086D01*
X28504941Y10497847D01*
X28708428Y10436120D01*
X28920047Y10415277D01*
X28973076Y10420500D01*
X37295447Y10420500D01*
X37389430Y10357703D01*
X37624013Y10260535D01*
X37873045Y10211000D01*
X38126955Y10211000D01*
X38375987Y10260535D01*
X38610570Y10357703D01*
X38821690Y10498768D01*
X39001232Y10678310D01*
X39142297Y10889430D01*
X39239465Y11124013D01*
X39289000Y11373045D01*
X39289000Y11626955D01*
X39239465Y11875987D01*
X39142297Y12110570D01*
X39001232Y12321690D01*
X38821690Y12501232D01*
X38610570Y12642297D01*
X38375987Y12739465D01*
X38126955Y12789000D01*
X37873045Y12789000D01*
X37624013Y12739465D01*
X37389430Y12642297D01*
X37295447Y12579500D01*
X29367190Y12579500D01*
X29181563Y12765127D01*
X29159512Y12875987D01*
X29062344Y13110570D01*
X28921279Y13321690D01*
X28915293Y13327676D01*
X29021690Y13398768D01*
X29201232Y13578310D01*
X29342297Y13789430D01*
X29439465Y14024013D01*
X29489000Y14273045D01*
X29489000Y14526955D01*
X29439465Y14775987D01*
X29342297Y15010570D01*
X29201232Y15221690D01*
X29021690Y15401232D01*
X28810570Y15542297D01*
X28575987Y15639465D01*
X28326955Y15689000D01*
X28073045Y15689000D01*
X27824013Y15639465D01*
X27589430Y15542297D01*
X27378310Y15401232D01*
X27198768Y15221690D01*
X27057703Y15010570D01*
X26960535Y14775987D01*
X26938484Y14665127D01*
X25552858Y13279500D01*
X24504553Y13279500D01*
X24410570Y13342297D01*
X24175987Y13439465D01*
X23926955Y13489000D01*
X23673045Y13489000D01*
X23424013Y13439465D01*
X23189430Y13342297D01*
X22978310Y13201232D01*
X22798768Y13021690D01*
X22657703Y12810570D01*
X22560535Y12575987D01*
X22511000Y12326955D01*
X21127000Y12326955D01*
X21127000Y27000000D01*
X21125914Y27016577D01*
X21108877Y27145987D01*
X21100296Y27178011D01*
X21050346Y27298601D01*
X21033768Y27327313D01*
X20954308Y27430866D01*
X20930866Y27454308D01*
X20827313Y27533768D01*
X20798601Y27550346D01*
X20678011Y27600296D01*
X20645987Y27608877D01*
X20516577Y27625914D01*
X20500000Y27627000D01*
X20258328Y27627000D01*
X20153743Y27640769D01*
X20064045Y27677923D01*
X19987024Y27737024D01*
X19927923Y27814045D01*
X19890769Y27903743D01*
X19877000Y28008328D01*
X19877000Y34491672D01*
X19890769Y34596257D01*
X19927923Y34685955D01*
X19987024Y34762976D01*
X20064045Y34822077D01*
X20153743Y34859231D01*
X20258328Y34873000D01*
X36600358Y34873000D01*
X37334358Y34139000D01*
X31250000Y34139000D01*
X31133963Y34131395D01*
X31004553Y34114358D01*
X30780385Y34054292D01*
X30659795Y34004342D01*
X30458807Y33888301D01*
X30355254Y33808841D01*
X30191159Y33644746D01*
X30111699Y33541193D01*
X29995658Y33340205D01*
X29945708Y33219615D01*
X29885642Y32995447D01*
X29868605Y32866037D01*
X29861000Y32750000D01*
X29861000Y27665642D01*
X29579500Y27947142D01*
X29579500Y28045447D01*
X29642297Y28139430D01*
X29739465Y28374013D01*
X29789000Y28623045D01*
X29789000Y28876955D01*
X29739465Y29125987D01*
X29642297Y29360570D01*
X29501232Y29571690D01*
X29321690Y29751232D01*
X29110570Y29892297D01*
X28875987Y29989465D01*
X28626955Y30039000D01*
X28373045Y30039000D01*
X28124013Y29989465D01*
X27889430Y29892297D01*
X27833847Y29855158D01*
X27767172Y29979897D01*
X27592596Y30192618D01*
X27379875Y30367194D01*
X27137184Y30496915D01*
X26873848Y30576797D01*
X26599989Y30603771D01*
X26531245Y30597000D01*
X23531375Y30597000D01*
X23326140Y30576786D01*
X23062805Y30496904D01*
X22820113Y30367183D01*
X22607392Y30192608D01*
X22432817Y29979887D01*
X22303096Y29737195D01*
X22223214Y29473860D01*
X22196241Y29200000D01*
X22223214Y28926140D01*
X22303096Y28662805D01*
X22432817Y28420113D01*
X22607392Y28207392D01*
X22820113Y28032817D01*
X23062805Y27903096D01*
X23326140Y27823214D01*
X23531375Y27803000D01*
X26531353Y27803000D01*
X26599978Y27796241D01*
X26668603Y27803000D01*
X26873838Y27823214D01*
X27137173Y27903096D01*
X27379865Y28032817D01*
X27411559Y28058828D01*
X27420500Y28045447D01*
X27420500Y27553029D01*
X27415277Y27500000D01*
X27420500Y27446971D01*
X27436120Y27288381D01*
X27462999Y27199775D01*
X27493985Y27097630D01*
X27497848Y27084894D01*
X27598087Y26897360D01*
X27732986Y26732985D01*
X27774180Y26699178D01*
X29143857Y25329500D01*
X26704553Y25329500D01*
X26610570Y25392297D01*
X26375987Y25489465D01*
X26126955Y25539000D01*
X25873045Y25539000D01*
X25624013Y25489465D01*
X25389430Y25392297D01*
X25178310Y25251232D01*
X24998768Y25071690D01*
X24857703Y24860570D01*
X24760535Y24625987D01*
X24711000Y24376955D01*
X24711000Y24123045D01*
X24760535Y23874013D01*
X24857703Y23639430D01*
X24998768Y23428310D01*
X25178310Y23248768D01*
X25389430Y23107703D01*
X25624013Y23010535D01*
X25873045Y22961000D01*
X26126955Y22961000D01*
X26273336Y22990117D01*
X26316025Y22775503D01*
X26413193Y22540920D01*
X26554258Y22329800D01*
X26733800Y22150258D01*
X26944920Y22009193D01*
X27179503Y21912025D01*
X27428535Y21862490D01*
X27682445Y21862490D01*
X27931477Y21912025D01*
X28166060Y22009193D01*
X28260043Y22071990D01*
X30622390Y22071990D01*
X30605254Y22058841D01*
X30441159Y21894746D01*
X30361699Y21791193D01*
X30245658Y21590205D01*
X30195708Y21469615D01*
X30135642Y21245447D01*
X30118605Y21116037D01*
X30111000Y21000000D01*
X30111000Y14250000D01*
X30118605Y14133963D01*
X30135642Y14004553D01*
X30195708Y13780385D01*
X30245658Y13659795D01*
X30361699Y13458807D01*
X30441159Y13355254D01*
X30605254Y13191159D01*
X30708807Y13111699D01*
X30909795Y12995658D01*
X31030385Y12945708D01*
X31254553Y12885642D01*
X31383963Y12868605D01*
X31500000Y12861000D01*
X37750000Y12861000D01*
X37866037Y12868605D01*
X37995447Y12885642D01*
X38219615Y12945708D01*
X38340205Y12995658D01*
X38541193Y13111699D01*
X38644746Y13191159D01*
X38808841Y13355254D01*
X38888301Y13458807D01*
X39004342Y13659795D01*
X39054292Y13780385D01*
X39114358Y14004553D01*
X39131395Y14133963D01*
X39139000Y14250000D01*
X39139000Y21000000D01*
X39131395Y21116037D01*
X39114358Y21245447D01*
X39054292Y21469615D01*
X39004342Y21590205D01*
X38888301Y21791193D01*
X38808841Y21894746D01*
X38644746Y22058841D01*
X38627610Y22071990D01*
X38651368Y22071990D01*
X39670502Y21052855D01*
X39670503Y16954554D01*
X39607705Y16860570D01*
X39510537Y16625987D01*
X39461002Y16376955D01*
X39461002Y16123045D01*
X39510537Y15874013D01*
X39607705Y15639430D01*
X39748770Y15428310D01*
X39928312Y15248768D01*
X40139432Y15107703D01*
X40374015Y15010535D01*
X40623047Y14961000D01*
X40876957Y14961000D01*
X41125989Y15010535D01*
X41360572Y15107703D01*
X41571692Y15248768D01*
X41751234Y15428310D01*
X41892299Y15639430D01*
X41989467Y15874013D01*
X42039002Y16123045D01*
X42039002Y16376955D01*
X41989467Y16625987D01*
X41892299Y16860570D01*
X41829502Y16954553D01*
X41829502Y21446977D01*
X41834724Y21499999D01*
X41829502Y21553020D01*
X41829502Y21553027D01*
X41813882Y21711617D01*
X41752155Y21915104D01*
X41651916Y22102638D01*
X41517017Y22267013D01*
X41475823Y22300820D01*
X40356142Y23420500D01*
X43318337Y23420500D01*
X43371366Y23415277D01*
X43424395Y23420500D01*
X43582985Y23436120D01*
X43786472Y23497847D01*
X43974006Y23598086D01*
X44138381Y23732985D01*
X44172192Y23774184D01*
X44673000Y24274991D01*
X44673000Y13225000D01*
X44675507Y13199891D01*
X44682798Y13176086D01*
X44694592Y13154160D01*
X44710438Y13134958D01*
X44729725Y13119215D01*
X44751713Y13107538D01*
X44775557Y13100374D01*
X44800340Y13098000D01*
X45102734Y13098809D01*
X45239752Y12986360D01*
X45398535Y12901489D01*
X45570825Y12849225D01*
X45705102Y12836000D01*
X45750000Y12831578D01*
X45794898Y12836000D01*
X62955102Y12836000D01*
X63000000Y12831578D01*
X63044898Y12836000D01*
X63179175Y12849225D01*
X63351465Y12901489D01*
X63510248Y12986360D01*
X63649422Y13100578D01*
X63739775Y13210673D01*
X65361000Y13210673D01*
X65361000Y12789327D01*
X65443200Y12376077D01*
X65604443Y11986803D01*
X65838530Y11636467D01*
X66136467Y11338530D01*
X66486803Y11104443D01*
X66876077Y10943200D01*
X67289327Y10861000D01*
X67710673Y10861000D01*
X68123923Y10943200D01*
X68513197Y11104443D01*
X68863533Y11338530D01*
X69161470Y11636467D01*
X69395557Y11986803D01*
X69556800Y12376077D01*
X69639000Y12789327D01*
X69639000Y13210673D01*
X72861000Y13210673D01*
X72861000Y12789327D01*
X72943200Y12376077D01*
X73104443Y11986803D01*
X73338530Y11636467D01*
X73636467Y11338530D01*
X73986803Y11104443D01*
X74376077Y10943200D01*
X74789327Y10861000D01*
X75210673Y10861000D01*
X75623923Y10943200D01*
X76013197Y11104443D01*
X76363533Y11338530D01*
X76661470Y11636467D01*
X76895557Y11986803D01*
X77056800Y12376077D01*
X77139000Y12789327D01*
X77139000Y13210673D01*
X80361000Y13210673D01*
X80361000Y12789327D01*
X80443200Y12376077D01*
X80604443Y11986803D01*
X80838530Y11636467D01*
X81136467Y11338530D01*
X81486803Y11104443D01*
X81876077Y10943200D01*
X82289327Y10861000D01*
X82710673Y10861000D01*
X83123923Y10943200D01*
X83513197Y11104443D01*
X83863533Y11338530D01*
X84161470Y11636467D01*
X84395557Y11986803D01*
X84556800Y12376077D01*
X84639000Y12789327D01*
X84639000Y13210673D01*
X87861000Y13210673D01*
X87861000Y12789327D01*
X87943200Y12376077D01*
X88104443Y11986803D01*
X88338530Y11636467D01*
X88636467Y11338530D01*
X88986803Y11104443D01*
X89376077Y10943200D01*
X89789327Y10861000D01*
X90210673Y10861000D01*
X90623923Y10943200D01*
X91013197Y11104443D01*
X91363533Y11338530D01*
X91661470Y11636467D01*
X91895557Y11986803D01*
X92056800Y12376077D01*
X92139000Y12789327D01*
X92139000Y13210673D01*
X92056800Y13623923D01*
X91895557Y14013197D01*
X91661470Y14363533D01*
X91363533Y14661470D01*
X91013197Y14895557D01*
X90623923Y15056800D01*
X90210673Y15139000D01*
X89789327Y15139000D01*
X89376077Y15056800D01*
X88986803Y14895557D01*
X88636467Y14661470D01*
X88338530Y14363533D01*
X88104443Y14013197D01*
X87943200Y13623923D01*
X87861000Y13210673D01*
X84639000Y13210673D01*
X84556800Y13623923D01*
X84395557Y14013197D01*
X84161470Y14363533D01*
X83863533Y14661470D01*
X83513197Y14895557D01*
X83123923Y15056800D01*
X82710673Y15139000D01*
X82289327Y15139000D01*
X81876077Y15056800D01*
X81486803Y14895557D01*
X81136467Y14661470D01*
X80838530Y14363533D01*
X80604443Y14013197D01*
X80443200Y13623923D01*
X80361000Y13210673D01*
X77139000Y13210673D01*
X77056800Y13623923D01*
X76895557Y14013197D01*
X76661470Y14363533D01*
X76363533Y14661470D01*
X76013197Y14895557D01*
X75623923Y15056800D01*
X75210673Y15139000D01*
X74789327Y15139000D01*
X74376077Y15056800D01*
X73986803Y14895557D01*
X73636467Y14661470D01*
X73338530Y14363533D01*
X73104443Y14013197D01*
X72943200Y13623923D01*
X72861000Y13210673D01*
X69639000Y13210673D01*
X69556800Y13623923D01*
X69395557Y14013197D01*
X69161470Y14363533D01*
X68863533Y14661470D01*
X68513197Y14895557D01*
X68123923Y15056800D01*
X67710673Y15139000D01*
X67289327Y15139000D01*
X66876077Y15056800D01*
X66486803Y14895557D01*
X66136467Y14661470D01*
X65838530Y14363533D01*
X65604443Y14013197D01*
X65443200Y13623923D01*
X65361000Y13210673D01*
X63739775Y13210673D01*
X63763640Y13239752D01*
X63848511Y13398535D01*
X63900775Y13570825D01*
X63918422Y13750000D01*
X63914000Y13794898D01*
X63914000Y24640010D01*
X71633348Y24640010D01*
X72799182Y23474174D01*
X72832985Y23432985D01*
X72997360Y23298086D01*
X73184894Y23197847D01*
X73337713Y23151490D01*
X73388381Y23136120D01*
X73600000Y23115277D01*
X73653029Y23120500D01*
X86146971Y23120500D01*
X86200000Y23115277D01*
X86253029Y23120500D01*
X86411619Y23136120D01*
X86615106Y23197847D01*
X86802640Y23298086D01*
X86967015Y23432985D01*
X87000827Y23474184D01*
X89454287Y25927643D01*
X89789327Y25861000D01*
X90210673Y25861000D01*
X90623923Y25943200D01*
X91013197Y26104443D01*
X91363533Y26338530D01*
X91661470Y26636467D01*
X91895557Y26986803D01*
X92056800Y27376077D01*
X92139000Y27789327D01*
X92139000Y28210673D01*
X92056800Y28623923D01*
X91895557Y29013197D01*
X91661470Y29363533D01*
X91363533Y29661470D01*
X91013197Y29895557D01*
X90623923Y30056800D01*
X90210673Y30139000D01*
X89789327Y30139000D01*
X89376077Y30056800D01*
X88986803Y29895557D01*
X88636467Y29661470D01*
X88338530Y29363533D01*
X88104443Y29013197D01*
X87943200Y28623923D01*
X87861000Y28210673D01*
X87861000Y27789327D01*
X87927643Y27454287D01*
X85752858Y25279500D01*
X77325550Y25279500D01*
X78776051Y26730000D01*
X80776033Y26730000D01*
X80838530Y26636467D01*
X81136467Y26338530D01*
X81486803Y26104443D01*
X81876077Y25943200D01*
X82289327Y25861000D01*
X82710673Y25861000D01*
X83123923Y25943200D01*
X83513197Y26104443D01*
X83863533Y26338530D01*
X84161470Y26636467D01*
X84395557Y26986803D01*
X84556800Y27376077D01*
X84639000Y27789327D01*
X84639000Y28210673D01*
X84556800Y28623923D01*
X84395557Y29013197D01*
X84161470Y29363533D01*
X83863533Y29661470D01*
X83513197Y29895557D01*
X83123923Y30056800D01*
X82710673Y30139000D01*
X82289327Y30139000D01*
X81876077Y30056800D01*
X81486803Y29895557D01*
X81136467Y29661470D01*
X80838530Y29363533D01*
X80776033Y29270000D01*
X78312380Y29270000D01*
X78250000Y29276144D01*
X78187620Y29270000D01*
X78001037Y29251623D01*
X77761641Y29179003D01*
X77541012Y29061075D01*
X77347630Y28902370D01*
X77307863Y28853914D01*
X77060296Y28606347D01*
X77056800Y28623923D01*
X76895557Y29013197D01*
X76661470Y29363533D01*
X76363533Y29661470D01*
X76013197Y29895557D01*
X75623923Y30056800D01*
X75210673Y30139000D01*
X74789327Y30139000D01*
X74376077Y30056800D01*
X73986803Y29895557D01*
X73636467Y29661470D01*
X73338530Y29363533D01*
X73104443Y29013197D01*
X72943200Y28623923D01*
X72898226Y28397824D01*
X72442141Y28853909D01*
X72402370Y28902370D01*
X72208988Y29061075D01*
X71988359Y29179003D01*
X71748963Y29251623D01*
X71562380Y29270000D01*
X71562373Y29270000D01*
X71500000Y29276143D01*
X71437627Y29270000D01*
X69223967Y29270000D01*
X69161470Y29363533D01*
X68863533Y29661470D01*
X68513197Y29895557D01*
X68162096Y30040988D01*
X74067459Y30040988D01*
X74120488Y30035765D01*
X74173517Y30040988D01*
X74332107Y30056608D01*
X74535594Y30118335D01*
X74723128Y30218574D01*
X74887503Y30353473D01*
X74921314Y30394672D01*
X75265127Y30738484D01*
X75375987Y30760535D01*
X75610570Y30857703D01*
X75821690Y30998768D01*
X76001232Y31178310D01*
X76142297Y31389430D01*
X76239465Y31624013D01*
X76289000Y31873045D01*
X76289000Y32126955D01*
X76239465Y32375987D01*
X76168523Y32547255D01*
X76239465Y32718523D01*
X76289000Y32967555D01*
X76289000Y33221465D01*
X76276633Y33283641D01*
X78725821Y35732828D01*
X78767015Y35766635D01*
X78901914Y35931010D01*
X79002153Y36118544D01*
X79030099Y36210673D01*
X80361000Y36210673D01*
X80361000Y35789327D01*
X80443200Y35376077D01*
X80604443Y34986803D01*
X80838530Y34636467D01*
X81136467Y34338530D01*
X81486803Y34104443D01*
X81876077Y33943200D01*
X82289327Y33861000D01*
X82710673Y33861000D01*
X83123923Y33943200D01*
X83513197Y34104443D01*
X83863533Y34338530D01*
X84161470Y34636467D01*
X84395557Y34986803D01*
X84556800Y35376077D01*
X84639000Y35789327D01*
X84639000Y36210673D01*
X87861000Y36210673D01*
X87861000Y35789327D01*
X87943200Y35376077D01*
X88104443Y34986803D01*
X88338530Y34636467D01*
X88636467Y34338530D01*
X88986803Y34104443D01*
X89376077Y33943200D01*
X89789327Y33861000D01*
X90210673Y33861000D01*
X90623923Y33943200D01*
X91013197Y34104443D01*
X91363533Y34338530D01*
X91661470Y34636467D01*
X91895557Y34986803D01*
X92056800Y35376077D01*
X92139000Y35789327D01*
X92139000Y36210673D01*
X92056800Y36623923D01*
X91895557Y37013197D01*
X91661470Y37363533D01*
X91363533Y37661470D01*
X91013197Y37895557D01*
X90623923Y38056800D01*
X90210673Y38139000D01*
X89789327Y38139000D01*
X89376077Y38056800D01*
X88986803Y37895557D01*
X88636467Y37661470D01*
X88338530Y37363533D01*
X88104443Y37013197D01*
X87943200Y36623923D01*
X87861000Y36210673D01*
X84639000Y36210673D01*
X84556800Y36623923D01*
X84395557Y37013197D01*
X84161470Y37363533D01*
X83863533Y37661470D01*
X83513197Y37895557D01*
X83123923Y38056800D01*
X82710673Y38139000D01*
X82289327Y38139000D01*
X81876077Y38056800D01*
X81486803Y37895557D01*
X81136467Y37661470D01*
X80838530Y37363533D01*
X80604443Y37013197D01*
X80443200Y36623923D01*
X80361000Y36210673D01*
X79030099Y36210673D01*
X79063880Y36322031D01*
X79079500Y36480621D01*
X79079500Y36480628D01*
X79084722Y36533649D01*
X79079500Y36586671D01*
X79079500Y41210673D01*
X80361000Y41210673D01*
X80361000Y40789327D01*
X80443200Y40376077D01*
X80604443Y39986803D01*
X80838530Y39636467D01*
X81136467Y39338530D01*
X81486803Y39104443D01*
X81876077Y38943200D01*
X82289327Y38861000D01*
X82710673Y38861000D01*
X83123923Y38943200D01*
X83513197Y39104443D01*
X83863533Y39338530D01*
X84161470Y39636467D01*
X84395557Y39986803D01*
X84556800Y40376077D01*
X84639000Y40789327D01*
X84639000Y41210673D01*
X87861000Y41210673D01*
X87861000Y40789327D01*
X87943200Y40376077D01*
X88104443Y39986803D01*
X88338530Y39636467D01*
X88636467Y39338530D01*
X88986803Y39104443D01*
X89376077Y38943200D01*
X89789327Y38861000D01*
X90210673Y38861000D01*
X90623923Y38943200D01*
X91013197Y39104443D01*
X91363533Y39338530D01*
X91661470Y39636467D01*
X91895557Y39986803D01*
X92056800Y40376077D01*
X92139000Y40789327D01*
X92139000Y41210673D01*
X92056800Y41623923D01*
X91895557Y42013197D01*
X91661470Y42363533D01*
X91363533Y42661470D01*
X91013197Y42895557D01*
X90623923Y43056800D01*
X90210673Y43139000D01*
X89789327Y43139000D01*
X89376077Y43056800D01*
X88986803Y42895557D01*
X88636467Y42661470D01*
X88338530Y42363533D01*
X88104443Y42013197D01*
X87943200Y41623923D01*
X87861000Y41210673D01*
X84639000Y41210673D01*
X84556800Y41623923D01*
X84395557Y42013197D01*
X84161470Y42363533D01*
X83863533Y42661470D01*
X83513197Y42895557D01*
X83123923Y43056800D01*
X82710673Y43139000D01*
X82289327Y43139000D01*
X81876077Y43056800D01*
X81486803Y42895557D01*
X81136467Y42661470D01*
X80838530Y42363533D01*
X80604443Y42013197D01*
X80443200Y41623923D01*
X80361000Y41210673D01*
X79079500Y41210673D01*
X79079500Y46210673D01*
X80361000Y46210673D01*
X80361000Y45789327D01*
X80443200Y45376077D01*
X80604443Y44986803D01*
X80838530Y44636467D01*
X81136467Y44338530D01*
X81486803Y44104443D01*
X81876077Y43943200D01*
X82289327Y43861000D01*
X82710673Y43861000D01*
X83123923Y43943200D01*
X83513197Y44104443D01*
X83863533Y44338530D01*
X84161470Y44636467D01*
X84395557Y44986803D01*
X84556800Y45376077D01*
X84639000Y45789327D01*
X84639000Y46210673D01*
X87861000Y46210673D01*
X87861000Y45789327D01*
X87943200Y45376077D01*
X88104443Y44986803D01*
X88338530Y44636467D01*
X88636467Y44338530D01*
X88986803Y44104443D01*
X89376077Y43943200D01*
X89789327Y43861000D01*
X90210673Y43861000D01*
X90623923Y43943200D01*
X91013197Y44104443D01*
X91363533Y44338530D01*
X91661470Y44636467D01*
X91895557Y44986803D01*
X92056800Y45376077D01*
X92139000Y45789327D01*
X92139000Y46210673D01*
X92056800Y46623923D01*
X91895557Y47013197D01*
X91661470Y47363533D01*
X91363533Y47661470D01*
X91013197Y47895557D01*
X90623923Y48056800D01*
X90210673Y48139000D01*
X89789327Y48139000D01*
X89376077Y48056800D01*
X88986803Y47895557D01*
X88636467Y47661470D01*
X88338530Y47363533D01*
X88104443Y47013197D01*
X87943200Y46623923D01*
X87861000Y46210673D01*
X84639000Y46210673D01*
X84556800Y46623923D01*
X84395557Y47013197D01*
X84161470Y47363533D01*
X83863533Y47661470D01*
X83513197Y47895557D01*
X83123923Y48056800D01*
X82710673Y48139000D01*
X82289327Y48139000D01*
X81876077Y48056800D01*
X81486803Y47895557D01*
X81136467Y47661470D01*
X80838530Y47363533D01*
X80604443Y47013197D01*
X80443200Y46623923D01*
X80361000Y46210673D01*
X79079500Y46210673D01*
X79079500Y48552858D01*
X89454287Y58927643D01*
X89789327Y58861000D01*
X90210673Y58861000D01*
X90623923Y58943200D01*
X91013197Y59104443D01*
X91363533Y59338530D01*
X91661470Y59636467D01*
X91895557Y59986803D01*
X92056800Y60376077D01*
X92139000Y60789327D01*
X92139000Y61210673D01*
X92056800Y61623923D01*
X91895557Y62013197D01*
X91661470Y62363533D01*
X91363533Y62661470D01*
X91013197Y62895557D01*
X90623923Y63056800D01*
X90210673Y63139000D01*
X89789327Y63139000D01*
X89376077Y63056800D01*
X88986803Y62895557D01*
X88636467Y62661470D01*
X88338530Y62363533D01*
X88104443Y62013197D01*
X87943200Y61623923D01*
X87861000Y61210673D01*
X87861000Y60789327D01*
X87927643Y60454287D01*
X77274185Y49800827D01*
X77232985Y49767015D01*
X77098086Y49602640D01*
X76997847Y49415105D01*
X76997847Y49415104D01*
X76936120Y49211618D01*
X76915277Y49000000D01*
X76920500Y48946971D01*
X76920500Y46952979D01*
X76895557Y47013197D01*
X76661470Y47363533D01*
X76363533Y47661470D01*
X76013197Y47895557D01*
X75623923Y48056800D01*
X75210673Y48139000D01*
X74789327Y48139000D01*
X74376077Y48056800D01*
X73986803Y47895557D01*
X73636467Y47661470D01*
X73338530Y47363533D01*
X73270000Y47260971D01*
X73270000Y49973950D01*
X82178997Y58882946D01*
X82289327Y58861000D01*
X82710673Y58861000D01*
X83123923Y58943200D01*
X83513197Y59104443D01*
X83863533Y59338530D01*
X84161470Y59636467D01*
X84395557Y59986803D01*
X84556800Y60376077D01*
X84639000Y60789327D01*
X84639000Y61210673D01*
X84556800Y61623923D01*
X84395557Y62013197D01*
X84161470Y62363533D01*
X83863533Y62661470D01*
X83513197Y62895557D01*
X83123923Y63056800D01*
X82710673Y63139000D01*
X82289327Y63139000D01*
X81876077Y63056800D01*
X81486803Y62895557D01*
X81136467Y62661470D01*
X80838530Y62363533D01*
X80604443Y62013197D01*
X80443200Y61623923D01*
X80361000Y61210673D01*
X80361000Y60789327D01*
X80382946Y60678997D01*
X71146091Y51442141D01*
X71097630Y51402370D01*
X70938925Y51208987D01*
X70820997Y50988358D01*
X70748377Y50748962D01*
X70730000Y50562379D01*
X70730000Y50562373D01*
X70723857Y50500000D01*
X70730000Y50437627D01*
X70730001Y33663470D01*
X70711000Y33567945D01*
X70711000Y33314035D01*
X70760535Y33065003D01*
X70778971Y33020495D01*
X70760535Y32975987D01*
X70732491Y32834999D01*
X42589685Y32834999D01*
X41402970Y34021714D01*
X41610570Y34107705D01*
X41821690Y34248770D01*
X42001232Y34428312D01*
X42142297Y34639432D01*
X42239465Y34874015D01*
X42250552Y34929751D01*
X42252573Y34930589D01*
X42279318Y34898000D01*
X42332814Y34832814D01*
X42475796Y34715473D01*
X42638922Y34628280D01*
X42815924Y34574587D01*
X43000000Y34556457D01*
X43046125Y34561000D01*
X60703875Y34561000D01*
X60750000Y34556457D01*
X60934076Y34574587D01*
X61111078Y34628280D01*
X61274204Y34715473D01*
X61417186Y34832814D01*
X61534527Y34975796D01*
X61621720Y35138922D01*
X61675413Y35315924D01*
X61689000Y35453874D01*
X61689000Y35453875D01*
X61693543Y35500000D01*
X61689000Y35546126D01*
X61689000Y36210673D01*
X65361000Y36210673D01*
X65361000Y35789327D01*
X65443200Y35376077D01*
X65604443Y34986803D01*
X65838530Y34636467D01*
X66136467Y34338530D01*
X66486803Y34104443D01*
X66876077Y33943200D01*
X67289327Y33861000D01*
X67710673Y33861000D01*
X68123923Y33943200D01*
X68513197Y34104443D01*
X68863533Y34338530D01*
X69161470Y34636467D01*
X69395557Y34986803D01*
X69556800Y35376077D01*
X69639000Y35789327D01*
X69639000Y36210673D01*
X69556800Y36623923D01*
X69395557Y37013197D01*
X69161470Y37363533D01*
X68863533Y37661470D01*
X68513197Y37895557D01*
X68123923Y38056800D01*
X67710673Y38139000D01*
X67289327Y38139000D01*
X66876077Y38056800D01*
X66486803Y37895557D01*
X66136467Y37661470D01*
X65838530Y37363533D01*
X65604443Y37013197D01*
X65443200Y36623923D01*
X65361000Y36210673D01*
X61689000Y36210673D01*
X61689000Y41210673D01*
X65361000Y41210673D01*
X65361000Y40789327D01*
X65443200Y40376077D01*
X65604443Y39986803D01*
X65838530Y39636467D01*
X66136467Y39338530D01*
X66486803Y39104443D01*
X66876077Y38943200D01*
X67289327Y38861000D01*
X67710673Y38861000D01*
X68123923Y38943200D01*
X68513197Y39104443D01*
X68863533Y39338530D01*
X69161470Y39636467D01*
X69395557Y39986803D01*
X69556800Y40376077D01*
X69639000Y40789327D01*
X69639000Y41210673D01*
X69556800Y41623923D01*
X69395557Y42013197D01*
X69161470Y42363533D01*
X68863533Y42661470D01*
X68513197Y42895557D01*
X68123923Y43056800D01*
X67710673Y43139000D01*
X67289327Y43139000D01*
X66876077Y43056800D01*
X66486803Y42895557D01*
X66136467Y42661470D01*
X65838530Y42363533D01*
X65604443Y42013197D01*
X65443200Y41623923D01*
X65361000Y41210673D01*
X61689000Y41210673D01*
X61689000Y46210673D01*
X65361000Y46210673D01*
X65361000Y45789327D01*
X65443200Y45376077D01*
X65604443Y44986803D01*
X65838530Y44636467D01*
X66136467Y44338530D01*
X66486803Y44104443D01*
X66876077Y43943200D01*
X67289327Y43861000D01*
X67710673Y43861000D01*
X68123923Y43943200D01*
X68513197Y44104443D01*
X68863533Y44338530D01*
X69161470Y44636467D01*
X69395557Y44986803D01*
X69556800Y45376077D01*
X69639000Y45789327D01*
X69639000Y46210673D01*
X69556800Y46623923D01*
X69395557Y47013197D01*
X69161470Y47363533D01*
X68863533Y47661470D01*
X68513197Y47895557D01*
X68123923Y48056800D01*
X67710673Y48139000D01*
X67289327Y48139000D01*
X66876077Y48056800D01*
X66486803Y47895557D01*
X66136467Y47661470D01*
X65838530Y47363533D01*
X65604443Y47013197D01*
X65443200Y46623923D01*
X65361000Y46210673D01*
X61689000Y46210673D01*
X61689000Y46453874D01*
X61693543Y46500000D01*
X61675413Y46684076D01*
X61621720Y46861078D01*
X61534527Y47024204D01*
X61417186Y47167186D01*
X61274204Y47284527D01*
X61111078Y47371720D01*
X60934076Y47425413D01*
X60796126Y47439000D01*
X60796125Y47439000D01*
X60750000Y47443543D01*
X60703874Y47439000D01*
X43046126Y47439000D01*
X43000000Y47443543D01*
X42953875Y47439000D01*
X42953874Y47439000D01*
X42815924Y47425413D01*
X42638922Y47371720D01*
X42627000Y47365348D01*
X42627000Y47971991D01*
X62998462Y47971991D01*
X63051491Y47966768D01*
X63104520Y47971991D01*
X63263110Y47987611D01*
X63466597Y48049338D01*
X63654131Y48149577D01*
X63818506Y48284476D01*
X63852318Y48325676D01*
X74454286Y58927643D01*
X74789327Y58861000D01*
X75210673Y58861000D01*
X75623923Y58943200D01*
X76013197Y59104443D01*
X76363533Y59338530D01*
X76661470Y59636467D01*
X76895557Y59986803D01*
X77056800Y60376077D01*
X77139000Y60789327D01*
X77139000Y61210673D01*
X77056800Y61623923D01*
X76895557Y62013197D01*
X76661470Y62363533D01*
X76363533Y62661470D01*
X76013197Y62895557D01*
X75623923Y63056800D01*
X75210673Y63139000D01*
X74789327Y63139000D01*
X74376077Y63056800D01*
X73986803Y62895557D01*
X73636467Y62661470D01*
X73338530Y62363533D01*
X73104443Y62013197D01*
X72943200Y61623923D01*
X72861000Y61210673D01*
X72861000Y60789327D01*
X72927643Y60454286D01*
X62604349Y50130991D01*
X56997436Y50130991D01*
X58626488Y51760043D01*
X58873045Y51711000D01*
X59126955Y51711000D01*
X59375987Y51760535D01*
X59610570Y51857703D01*
X59821690Y51998768D01*
X60001232Y52178310D01*
X60142297Y52389430D01*
X60239465Y52624013D01*
X60289000Y52873045D01*
X60289000Y53126955D01*
X60239465Y53375987D01*
X60142297Y53610570D01*
X60001232Y53821690D01*
X59821690Y54001232D01*
X59610570Y54142297D01*
X59375987Y54239465D01*
X59126955Y54289000D01*
X58873045Y54289000D01*
X58625000Y54239661D01*
X58376955Y54289000D01*
X58123045Y54289000D01*
X57874013Y54239465D01*
X57639430Y54142297D01*
X57428310Y54001232D01*
X57248768Y53821690D01*
X57107703Y53610570D01*
X57011238Y53377684D01*
X55526555Y51893000D01*
X46413396Y51893000D01*
X46571690Y51998768D01*
X46751232Y52178310D01*
X46892297Y52389430D01*
X46989465Y52624013D01*
X47039000Y52873045D01*
X47039000Y53126955D01*
X46989465Y53375987D01*
X46892297Y53610570D01*
X46751232Y53821690D01*
X46571690Y54001232D01*
X46407410Y54111000D01*
X47750000Y54111000D01*
X47866037Y54118605D01*
X47995447Y54135642D01*
X48219615Y54195708D01*
X48340205Y54245658D01*
X48541193Y54361699D01*
X48644746Y54441159D01*
X48808841Y54605254D01*
X48888301Y54708807D01*
X49004342Y54909795D01*
X49054292Y55030385D01*
X49114358Y55254553D01*
X49131395Y55383963D01*
X49139000Y55500000D01*
X49139000Y61210673D01*
X65361000Y61210673D01*
X65361000Y60789327D01*
X65443200Y60376077D01*
X65604443Y59986803D01*
X65838530Y59636467D01*
X66136467Y59338530D01*
X66486803Y59104443D01*
X66876077Y58943200D01*
X67289327Y58861000D01*
X67710673Y58861000D01*
X68123923Y58943200D01*
X68513197Y59104443D01*
X68863533Y59338530D01*
X69161470Y59636467D01*
X69395557Y59986803D01*
X69556800Y60376077D01*
X69639000Y60789327D01*
X69639000Y61210673D01*
X69556800Y61623923D01*
X69395557Y62013197D01*
X69161470Y62363533D01*
X68863533Y62661470D01*
X68513197Y62895557D01*
X68123923Y63056800D01*
X67710673Y63139000D01*
X67289327Y63139000D01*
X66876077Y63056800D01*
X66486803Y62895557D01*
X66136467Y62661470D01*
X65838530Y62363533D01*
X65604443Y62013197D01*
X65443200Y61623923D01*
X65361000Y61210673D01*
X49139000Y61210673D01*
X49139000Y63750000D01*
X49131395Y63866037D01*
X49114358Y63995447D01*
X49054292Y64219615D01*
X49004342Y64340205D01*
X48888301Y64541193D01*
X48808841Y64644746D01*
X48644746Y64808841D01*
X48541193Y64888301D01*
X48340205Y65004342D01*
X48219615Y65054292D01*
X47995447Y65114358D01*
X47866037Y65131395D01*
X47750000Y65139000D01*
X42627000Y65139000D01*
X42627000Y69500000D01*
X65000651Y69500000D01*
X65041950Y69080683D01*
X65164260Y68677480D01*
X65362882Y68305886D01*
X65630181Y67980181D01*
X65955886Y67712882D01*
X66327480Y67514260D01*
X66730683Y67391950D01*
X67044925Y67361000D01*
X68755075Y67361000D01*
X69069317Y67391950D01*
X69472520Y67514260D01*
X69844114Y67712882D01*
X70169819Y67980181D01*
X70437118Y68305886D01*
X70635740Y68677480D01*
X70758050Y69080683D01*
X70799349Y69500000D01*
X87600651Y69500000D01*
X87641950Y69080683D01*
X87764260Y68677480D01*
X87962882Y68305886D01*
X88230181Y67980181D01*
X88555886Y67712882D01*
X88927480Y67514260D01*
X89330683Y67391950D01*
X89644925Y67361000D01*
X91355075Y67361000D01*
X91669317Y67391950D01*
X92072520Y67514260D01*
X92444114Y67712882D01*
X92769819Y67980181D01*
X93037118Y68305886D01*
X93235740Y68677480D01*
X93358050Y69080683D01*
X93399349Y69500000D01*
X93358050Y69919317D01*
X93235740Y70322520D01*
X93037118Y70694114D01*
X92769819Y71019819D01*
X92444114Y71287118D01*
X92072520Y71485740D01*
X91669317Y71608050D01*
X91355075Y71639000D01*
X89644925Y71639000D01*
X89330683Y71608050D01*
X88927480Y71485740D01*
X88555886Y71287118D01*
X88230181Y71019819D01*
X87962882Y70694114D01*
X87764260Y70322520D01*
X87641950Y69919317D01*
X87600651Y69500000D01*
X70799349Y69500000D01*
X70758050Y69919317D01*
X70635740Y70322520D01*
X70437118Y70694114D01*
X70169819Y71019819D01*
X69844114Y71287118D01*
X69472520Y71485740D01*
X69069317Y71608050D01*
X68755075Y71639000D01*
X67044925Y71639000D01*
X66730683Y71608050D01*
X66327480Y71485740D01*
X65955886Y71287118D01*
X65630181Y71019819D01*
X65362882Y70694114D01*
X65164260Y70322520D01*
X65041950Y69919317D01*
X65000651Y69500000D01*
X42627000Y69500000D01*
X42627000Y73991672D01*
X42632836Y74036000D01*
X99036000Y74036000D01*
X99036000Y70900362D01*
G37*
%TD.AperFunction*%
%TD*%
D17*
%TO.N,GNDS*%
X39512979Y74262354D02*
X39572079Y74185333D01*
X39609233Y74095634D01*
X39623000Y73991061D01*
X39623000Y67075500D01*
X38877503Y67075500D01*
X38740256Y67167205D01*
X38551898Y67245226D01*
X38351939Y67285000D01*
X38148061Y67285000D01*
X37948102Y67245226D01*
X37759744Y67167205D01*
X37590226Y67053937D01*
X37446063Y66909774D01*
X37332795Y66740256D01*
X37254774Y66551898D01*
X37215000Y66351939D01*
X37215000Y66148061D01*
X37252010Y65962000D01*
X12101711Y65962000D01*
X12059774Y66003937D01*
X11890256Y66117205D01*
X11701898Y66195226D01*
X11501939Y66235000D01*
X11298061Y66235000D01*
X11098102Y66195226D01*
X10909744Y66117205D01*
X10740226Y66003937D01*
X10596063Y65859774D01*
X10482795Y65690256D01*
X10404774Y65501898D01*
X10365000Y65301939D01*
X10365000Y65098061D01*
X10404774Y64898102D01*
X10482795Y64709744D01*
X10596063Y64540226D01*
X10740226Y64396063D01*
X10909744Y64282795D01*
X11098102Y64204774D01*
X11298061Y64165000D01*
X11501939Y64165000D01*
X11701898Y64204774D01*
X11890256Y64282795D01*
X12059774Y64396063D01*
X12101711Y64438000D01*
X38284370Y64438000D01*
X38429329Y64293040D01*
X38396063Y64259774D01*
X38282795Y64090256D01*
X38204774Y63901898D01*
X38165000Y63701939D01*
X38165000Y63498061D01*
X38204774Y63298102D01*
X38282795Y63109744D01*
X38396063Y62940226D01*
X38540226Y62796063D01*
X38709744Y62682795D01*
X38898102Y62604774D01*
X39098061Y62565000D01*
X39301939Y62565000D01*
X39501898Y62604774D01*
X39623000Y62654936D01*
X39623000Y53825500D01*
X31841934Y53825500D01*
X28777429Y56890004D01*
X28756927Y56993073D01*
X28898061Y56965000D01*
X29101939Y56965000D01*
X29301898Y57004774D01*
X29490256Y57082795D01*
X29659774Y57196063D01*
X29803937Y57340226D01*
X29917205Y57509744D01*
X29995226Y57698102D01*
X30035000Y57898061D01*
X30035000Y58101939D01*
X29995226Y58301898D01*
X29917205Y58490256D01*
X29803937Y58659774D01*
X29659774Y58803937D01*
X29490256Y58917205D01*
X29301898Y58995226D01*
X29101939Y59035000D01*
X28898061Y59035000D01*
X28698102Y58995226D01*
X28509744Y58917205D01*
X28372497Y58825500D01*
X26827503Y58825500D01*
X26690256Y58917205D01*
X26501898Y58995226D01*
X26301939Y59035000D01*
X26098061Y59035000D01*
X25898102Y58995226D01*
X25709744Y58917205D01*
X25540226Y58803937D01*
X25396063Y58659774D01*
X25282795Y58490256D01*
X25204774Y58301898D01*
X25165000Y58101939D01*
X25165000Y57898061D01*
X25204774Y57698102D01*
X25282795Y57509744D01*
X25396063Y57340226D01*
X25540226Y57196063D01*
X25709744Y57082795D01*
X25898102Y57004774D01*
X26098061Y56965000D01*
X26301939Y56965000D01*
X26501898Y57004774D01*
X26690256Y57082795D01*
X26797160Y57154226D01*
X26754774Y57051898D01*
X26715000Y56851939D01*
X26715000Y56648061D01*
X26754774Y56448102D01*
X26832795Y56259744D01*
X26946063Y56090226D01*
X27090226Y55946063D01*
X27259744Y55832795D01*
X27448102Y55754774D01*
X27609996Y55722571D01*
X30887611Y52444955D01*
X30913459Y52413459D01*
X30944955Y52387611D01*
X30944958Y52387608D01*
X31039157Y52310301D01*
X31182566Y52233647D01*
X31338174Y52186444D01*
X31459447Y52174500D01*
X31459449Y52174500D01*
X31500000Y52170506D01*
X31540550Y52174500D01*
X39623000Y52174500D01*
X39623000Y51639000D01*
X21333668Y51639000D01*
X21290000Y51643301D01*
X21115725Y51626136D01*
X21064892Y51610716D01*
X20948149Y51575303D01*
X20793709Y51492753D01*
X20658341Y51381659D01*
X20630506Y51347742D01*
X13767895Y44485130D01*
X13718102Y44475226D01*
X13529744Y44397205D01*
X13360226Y44283937D01*
X13216063Y44139774D01*
X13102795Y43970256D01*
X13024774Y43781898D01*
X12985000Y43581939D01*
X12985000Y43378061D01*
X13024774Y43178102D01*
X13046770Y43125000D01*
X13024774Y43071898D01*
X12985000Y42871939D01*
X12985000Y42668061D01*
X13024774Y42468102D01*
X13102795Y42279744D01*
X13216063Y42110226D01*
X13360226Y41966063D01*
X13529744Y41852795D01*
X13718102Y41774774D01*
X13918061Y41735000D01*
X14121939Y41735000D01*
X14321898Y41774774D01*
X14510256Y41852795D01*
X14679774Y41966063D01*
X14823937Y42110226D01*
X14937205Y42279744D01*
X15015226Y42468102D01*
X15055000Y42668061D01*
X15055000Y42871939D01*
X15015226Y43071898D01*
X14993230Y43125000D01*
X15015226Y43178102D01*
X15025130Y43227895D01*
X21658236Y49861000D01*
X33476324Y49861000D01*
X33334057Y49817844D01*
X33190648Y49741190D01*
X33118833Y49682252D01*
X33064950Y49638032D01*
X33039098Y49606531D01*
X28059996Y44627429D01*
X27898102Y44595226D01*
X27709744Y44517205D01*
X27540226Y44403937D01*
X27396063Y44259774D01*
X27282795Y44090256D01*
X27204774Y43901898D01*
X27165000Y43701939D01*
X27165000Y43498061D01*
X27199324Y43325500D01*
X26377503Y43325500D01*
X26240256Y43417205D01*
X26051898Y43495226D01*
X25851939Y43535000D01*
X25648061Y43535000D01*
X25448102Y43495226D01*
X25259744Y43417205D01*
X25090226Y43303937D01*
X24946063Y43159774D01*
X24832795Y42990256D01*
X24754774Y42801898D01*
X24715000Y42601939D01*
X24715000Y42398061D01*
X24754774Y42198102D01*
X24832795Y42009744D01*
X24946063Y41840226D01*
X25090226Y41696063D01*
X25259744Y41582795D01*
X25448102Y41504774D01*
X25648061Y41465000D01*
X25851939Y41465000D01*
X26051898Y41504774D01*
X26240256Y41582795D01*
X26377503Y41674500D01*
X26566279Y41674500D01*
X26551553Y41659774D01*
X26438285Y41490256D01*
X26360264Y41301898D01*
X26320490Y41101939D01*
X26320490Y40898061D01*
X26360264Y40698102D01*
X26438285Y40509744D01*
X26551553Y40340226D01*
X26695716Y40196063D01*
X26865234Y40082795D01*
X27053592Y40004774D01*
X27253551Y39965000D01*
X27457429Y39965000D01*
X27657388Y40004774D01*
X27845746Y40082795D01*
X27982993Y40174500D01*
X33858068Y40174500D01*
X35109909Y38922659D01*
X28530344Y38922659D01*
X28393097Y39014364D01*
X28204739Y39092385D01*
X28004780Y39132159D01*
X27800902Y39132159D01*
X27600943Y39092385D01*
X27412585Y39014364D01*
X27243067Y38901096D01*
X27098904Y38756933D01*
X26985636Y38587415D01*
X26907615Y38399057D01*
X26867841Y38199098D01*
X26867841Y37995220D01*
X26907615Y37795261D01*
X26985636Y37606903D01*
X27098904Y37437385D01*
X27236289Y37300000D01*
X27196063Y37259774D01*
X27082795Y37090256D01*
X27004774Y36901898D01*
X26965000Y36701939D01*
X26965000Y36627245D01*
X19249981Y36627015D01*
X19233405Y36625928D01*
X19103998Y36608888D01*
X19071975Y36600307D01*
X18951388Y36550355D01*
X18922676Y36533777D01*
X18819126Y36454317D01*
X18795684Y36430874D01*
X18716228Y36327322D01*
X18699652Y36298611D01*
X18649703Y36178022D01*
X18641122Y36145998D01*
X18624086Y36016591D01*
X18623000Y36000015D01*
X18623000Y27000000D01*
X18624086Y26983423D01*
X18641123Y26854013D01*
X18649704Y26821989D01*
X18699654Y26701399D01*
X18716232Y26672687D01*
X18795692Y26569134D01*
X18819134Y26545692D01*
X18922687Y26466232D01*
X18951399Y26449654D01*
X19071989Y26399704D01*
X19104013Y26391123D01*
X19233423Y26374086D01*
X19250000Y26373000D01*
X19741672Y26373000D01*
X19846257Y26359231D01*
X19935955Y26322077D01*
X20012976Y26262976D01*
X20072077Y26185955D01*
X20109231Y26096257D01*
X20111000Y26082820D01*
X20111000Y1000000D01*
X20114624Y944706D01*
X20109231Y903743D01*
X20072077Y814045D01*
X20012976Y737024D01*
X19977758Y710000D01*
X5555950Y710000D01*
X5721818Y778705D01*
X6317177Y1176511D01*
X6823489Y1682823D01*
X7221295Y2278182D01*
X7495309Y2939710D01*
X7635000Y3641984D01*
X7635000Y4358016D01*
X7495309Y5060290D01*
X7221295Y5721818D01*
X6823489Y6317177D01*
X6317177Y6823489D01*
X5721818Y7221295D01*
X5060290Y7495309D01*
X4358016Y7635000D01*
X3641984Y7635000D01*
X2939710Y7495309D01*
X2278182Y7221295D01*
X1682823Y6823489D01*
X1176511Y6317177D01*
X778705Y5721818D01*
X710000Y5555950D01*
X710000Y16851939D01*
X4589984Y16851939D01*
X4589984Y16648061D01*
X4629758Y16448102D01*
X4707779Y16259744D01*
X4821047Y16090226D01*
X4965210Y15946063D01*
X5134728Y15832795D01*
X5323086Y15754774D01*
X5484980Y15722572D01*
X5512590Y15694961D01*
X5538443Y15663459D01*
X5569943Y15637608D01*
X5664141Y15560301D01*
X5807550Y15483647D01*
X5963158Y15436444D01*
X6084431Y15424500D01*
X6084433Y15424500D01*
X6124984Y15420506D01*
X6165534Y15424500D01*
X9805558Y15424500D01*
X9754774Y15301898D01*
X9715000Y15101939D01*
X9715000Y14898061D01*
X9754774Y14698102D01*
X9832795Y14509744D01*
X9946063Y14340226D01*
X10090226Y14196063D01*
X10259744Y14082795D01*
X10448102Y14004774D01*
X10648061Y13965000D01*
X10851939Y13965000D01*
X11051898Y14004774D01*
X11240256Y14082795D01*
X11377503Y14174500D01*
X13122497Y14174500D01*
X13259744Y14082795D01*
X13448102Y14004774D01*
X13648061Y13965000D01*
X13851939Y13965000D01*
X14051898Y14004774D01*
X14240256Y14082795D01*
X14409774Y14196063D01*
X14553937Y14340226D01*
X14667205Y14509744D01*
X14745226Y14698102D01*
X14785000Y14898061D01*
X14785000Y15101939D01*
X14745226Y15301898D01*
X14733574Y15330027D01*
X14740256Y15332795D01*
X14909774Y15446063D01*
X15053937Y15590226D01*
X15167205Y15759744D01*
X15245226Y15948102D01*
X15285000Y16148061D01*
X15285000Y16351939D01*
X15245226Y16551898D01*
X15167205Y16740256D01*
X15053937Y16909774D01*
X14909774Y17053937D01*
X14740256Y17167205D01*
X14551898Y17245226D01*
X14351939Y17285000D01*
X14148061Y17285000D01*
X13948102Y17245226D01*
X13759744Y17167205D01*
X13622497Y17075500D01*
X6610434Y17075500D01*
X6542189Y17240256D01*
X6428921Y17409774D01*
X6284758Y17553937D01*
X6115240Y17667205D01*
X5926882Y17745226D01*
X5726923Y17785000D01*
X5523045Y17785000D01*
X5323086Y17745226D01*
X5134728Y17667205D01*
X4965210Y17553937D01*
X4821047Y17409774D01*
X4707779Y17240256D01*
X4629758Y17051898D01*
X4589984Y16851939D01*
X710000Y16851939D01*
X710000Y62101939D01*
X27215000Y62101939D01*
X27215000Y61898061D01*
X27254774Y61698102D01*
X27332795Y61509744D01*
X27446063Y61340226D01*
X27590226Y61196063D01*
X27759744Y61082795D01*
X27948102Y61004774D01*
X28148061Y60965000D01*
X28351939Y60965000D01*
X28551898Y61004774D01*
X28740256Y61082795D01*
X28877503Y61174500D01*
X35872497Y61174500D01*
X36009744Y61082795D01*
X36198102Y61004774D01*
X36398061Y60965000D01*
X36601939Y60965000D01*
X36801898Y61004774D01*
X36990256Y61082795D01*
X37159774Y61196063D01*
X37303937Y61340226D01*
X37417205Y61509744D01*
X37495226Y61698102D01*
X37535000Y61898061D01*
X37535000Y62101939D01*
X37495226Y62301898D01*
X37417205Y62490256D01*
X37303937Y62659774D01*
X37159774Y62803937D01*
X36990256Y62917205D01*
X36801898Y62995226D01*
X36601939Y63035000D01*
X36398061Y63035000D01*
X36198102Y62995226D01*
X36009744Y62917205D01*
X35872497Y62825500D01*
X28877503Y62825500D01*
X28740256Y62917205D01*
X28551898Y62995226D01*
X28351939Y63035000D01*
X28148061Y63035000D01*
X27948102Y62995226D01*
X27759744Y62917205D01*
X27590226Y62803937D01*
X27446063Y62659774D01*
X27332795Y62490256D01*
X27254774Y62301898D01*
X27215000Y62101939D01*
X710000Y62101939D01*
X710000Y69444050D01*
X778705Y69278182D01*
X1176511Y68682823D01*
X1682823Y68176511D01*
X2278182Y67778705D01*
X2939710Y67504691D01*
X3641984Y67365000D01*
X4358016Y67365000D01*
X5060290Y67504691D01*
X5721818Y67778705D01*
X6317177Y68176511D01*
X6823489Y68682823D01*
X7221295Y69278182D01*
X7355399Y69601939D01*
X16215000Y69601939D01*
X16215000Y69398061D01*
X16254774Y69198102D01*
X16332795Y69009744D01*
X16446063Y68840226D01*
X16590226Y68696063D01*
X16759744Y68582795D01*
X16948102Y68504774D01*
X17148061Y68465000D01*
X17351939Y68465000D01*
X17551898Y68504774D01*
X17740256Y68582795D01*
X17877503Y68674500D01*
X24908067Y68674500D01*
X25637611Y67944955D01*
X25663459Y67913459D01*
X25694955Y67887611D01*
X25694958Y67887608D01*
X25789157Y67810301D01*
X25848269Y67778705D01*
X25932566Y67733647D01*
X26088174Y67686444D01*
X26209447Y67674500D01*
X26209449Y67674500D01*
X26250000Y67670506D01*
X26290550Y67674500D01*
X27122497Y67674500D01*
X27259744Y67582795D01*
X27448102Y67504774D01*
X27648061Y67465000D01*
X27851939Y67465000D01*
X28051898Y67504774D01*
X28240256Y67582795D01*
X28409774Y67696063D01*
X28553937Y67840226D01*
X28667205Y68009744D01*
X28745226Y68198102D01*
X28785000Y68398061D01*
X28785000Y68601939D01*
X28745226Y68801898D01*
X28694442Y68924500D01*
X37872497Y68924500D01*
X38009744Y68832795D01*
X38198102Y68754774D01*
X38398061Y68715000D01*
X38601939Y68715000D01*
X38801898Y68754774D01*
X38990256Y68832795D01*
X39159774Y68946063D01*
X39303937Y69090226D01*
X39417205Y69259744D01*
X39495226Y69448102D01*
X39535000Y69648061D01*
X39535000Y69851939D01*
X39495226Y70051898D01*
X39417205Y70240256D01*
X39303937Y70409774D01*
X39159774Y70553937D01*
X38990256Y70667205D01*
X38801898Y70745226D01*
X38601939Y70785000D01*
X38398061Y70785000D01*
X38198102Y70745226D01*
X38009744Y70667205D01*
X37872497Y70575500D01*
X27627503Y70575500D01*
X27490256Y70667205D01*
X27301898Y70745226D01*
X27101939Y70785000D01*
X26898061Y70785000D01*
X26698102Y70745226D01*
X26509744Y70667205D01*
X26340226Y70553937D01*
X26196063Y70409774D01*
X26082795Y70240256D01*
X26004774Y70051898D01*
X25981673Y69935760D01*
X25862398Y70055035D01*
X25836541Y70086541D01*
X25710842Y70189699D01*
X25567434Y70266353D01*
X25411826Y70313556D01*
X25290553Y70325500D01*
X25290550Y70325500D01*
X25250000Y70329494D01*
X25209450Y70325500D01*
X17877503Y70325500D01*
X17740256Y70417205D01*
X17551898Y70495226D01*
X17351939Y70535000D01*
X17148061Y70535000D01*
X16948102Y70495226D01*
X16759744Y70417205D01*
X16590226Y70303937D01*
X16446063Y70159774D01*
X16332795Y69990256D01*
X16254774Y69801898D01*
X16215000Y69601939D01*
X7355399Y69601939D01*
X7495309Y69939710D01*
X7635000Y70641984D01*
X7635000Y71358016D01*
X7495309Y72060290D01*
X7221295Y72721818D01*
X6823489Y73317177D01*
X6317177Y73823489D01*
X5721818Y74221295D01*
X5555950Y74290000D01*
X39476951Y74290000D01*
X39512979Y74262354D01*
%TA.AperFunction,Conductor*%
D21*
G36*
X39512979Y74262354D02*
G01*
X39572079Y74185333D01*
X39609233Y74095634D01*
X39623000Y73991061D01*
X39623000Y67075500D01*
X38877503Y67075500D01*
X38740256Y67167205D01*
X38551898Y67245226D01*
X38351939Y67285000D01*
X38148061Y67285000D01*
X37948102Y67245226D01*
X37759744Y67167205D01*
X37590226Y67053937D01*
X37446063Y66909774D01*
X37332795Y66740256D01*
X37254774Y66551898D01*
X37215000Y66351939D01*
X37215000Y66148061D01*
X37252010Y65962000D01*
X12101711Y65962000D01*
X12059774Y66003937D01*
X11890256Y66117205D01*
X11701898Y66195226D01*
X11501939Y66235000D01*
X11298061Y66235000D01*
X11098102Y66195226D01*
X10909744Y66117205D01*
X10740226Y66003937D01*
X10596063Y65859774D01*
X10482795Y65690256D01*
X10404774Y65501898D01*
X10365000Y65301939D01*
X10365000Y65098061D01*
X10404774Y64898102D01*
X10482795Y64709744D01*
X10596063Y64540226D01*
X10740226Y64396063D01*
X10909744Y64282795D01*
X11098102Y64204774D01*
X11298061Y64165000D01*
X11501939Y64165000D01*
X11701898Y64204774D01*
X11890256Y64282795D01*
X12059774Y64396063D01*
X12101711Y64438000D01*
X38284370Y64438000D01*
X38429329Y64293040D01*
X38396063Y64259774D01*
X38282795Y64090256D01*
X38204774Y63901898D01*
X38165000Y63701939D01*
X38165000Y63498061D01*
X38204774Y63298102D01*
X38282795Y63109744D01*
X38396063Y62940226D01*
X38540226Y62796063D01*
X38709744Y62682795D01*
X38898102Y62604774D01*
X39098061Y62565000D01*
X39301939Y62565000D01*
X39501898Y62604774D01*
X39623000Y62654936D01*
X39623000Y53825500D01*
X31841934Y53825500D01*
X28777429Y56890004D01*
X28756927Y56993073D01*
X28898061Y56965000D01*
X29101939Y56965000D01*
X29301898Y57004774D01*
X29490256Y57082795D01*
X29659774Y57196063D01*
X29803937Y57340226D01*
X29917205Y57509744D01*
X29995226Y57698102D01*
X30035000Y57898061D01*
X30035000Y58101939D01*
X29995226Y58301898D01*
X29917205Y58490256D01*
X29803937Y58659774D01*
X29659774Y58803937D01*
X29490256Y58917205D01*
X29301898Y58995226D01*
X29101939Y59035000D01*
X28898061Y59035000D01*
X28698102Y58995226D01*
X28509744Y58917205D01*
X28372497Y58825500D01*
X26827503Y58825500D01*
X26690256Y58917205D01*
X26501898Y58995226D01*
X26301939Y59035000D01*
X26098061Y59035000D01*
X25898102Y58995226D01*
X25709744Y58917205D01*
X25540226Y58803937D01*
X25396063Y58659774D01*
X25282795Y58490256D01*
X25204774Y58301898D01*
X25165000Y58101939D01*
X25165000Y57898061D01*
X25204774Y57698102D01*
X25282795Y57509744D01*
X25396063Y57340226D01*
X25540226Y57196063D01*
X25709744Y57082795D01*
X25898102Y57004774D01*
X26098061Y56965000D01*
X26301939Y56965000D01*
X26501898Y57004774D01*
X26690256Y57082795D01*
X26797160Y57154226D01*
X26754774Y57051898D01*
X26715000Y56851939D01*
X26715000Y56648061D01*
X26754774Y56448102D01*
X26832795Y56259744D01*
X26946063Y56090226D01*
X27090226Y55946063D01*
X27259744Y55832795D01*
X27448102Y55754774D01*
X27609996Y55722571D01*
X30887611Y52444955D01*
X30913459Y52413459D01*
X30944955Y52387611D01*
X30944958Y52387608D01*
X31039157Y52310301D01*
X31182566Y52233647D01*
X31338174Y52186444D01*
X31459447Y52174500D01*
X31459449Y52174500D01*
X31500000Y52170506D01*
X31540550Y52174500D01*
X39623000Y52174500D01*
X39623000Y51639000D01*
X21333668Y51639000D01*
X21290000Y51643301D01*
X21115725Y51626136D01*
X21064892Y51610716D01*
X20948149Y51575303D01*
X20793709Y51492753D01*
X20658341Y51381659D01*
X20630506Y51347742D01*
X13767895Y44485130D01*
X13718102Y44475226D01*
X13529744Y44397205D01*
X13360226Y44283937D01*
X13216063Y44139774D01*
X13102795Y43970256D01*
X13024774Y43781898D01*
X12985000Y43581939D01*
X12985000Y43378061D01*
X13024774Y43178102D01*
X13046770Y43125000D01*
X13024774Y43071898D01*
X12985000Y42871939D01*
X12985000Y42668061D01*
X13024774Y42468102D01*
X13102795Y42279744D01*
X13216063Y42110226D01*
X13360226Y41966063D01*
X13529744Y41852795D01*
X13718102Y41774774D01*
X13918061Y41735000D01*
X14121939Y41735000D01*
X14321898Y41774774D01*
X14510256Y41852795D01*
X14679774Y41966063D01*
X14823937Y42110226D01*
X14937205Y42279744D01*
X15015226Y42468102D01*
X15055000Y42668061D01*
X15055000Y42871939D01*
X15015226Y43071898D01*
X14993230Y43125000D01*
X15015226Y43178102D01*
X15025130Y43227895D01*
X21658236Y49861000D01*
X33476324Y49861000D01*
X33334057Y49817844D01*
X33190648Y49741190D01*
X33118833Y49682252D01*
X33064950Y49638032D01*
X33039098Y49606531D01*
X28059996Y44627429D01*
X27898102Y44595226D01*
X27709744Y44517205D01*
X27540226Y44403937D01*
X27396063Y44259774D01*
X27282795Y44090256D01*
X27204774Y43901898D01*
X27165000Y43701939D01*
X27165000Y43498061D01*
X27199324Y43325500D01*
X26377503Y43325500D01*
X26240256Y43417205D01*
X26051898Y43495226D01*
X25851939Y43535000D01*
X25648061Y43535000D01*
X25448102Y43495226D01*
X25259744Y43417205D01*
X25090226Y43303937D01*
X24946063Y43159774D01*
X24832795Y42990256D01*
X24754774Y42801898D01*
X24715000Y42601939D01*
X24715000Y42398061D01*
X24754774Y42198102D01*
X24832795Y42009744D01*
X24946063Y41840226D01*
X25090226Y41696063D01*
X25259744Y41582795D01*
X25448102Y41504774D01*
X25648061Y41465000D01*
X25851939Y41465000D01*
X26051898Y41504774D01*
X26240256Y41582795D01*
X26377503Y41674500D01*
X26566279Y41674500D01*
X26551553Y41659774D01*
X26438285Y41490256D01*
X26360264Y41301898D01*
X26320490Y41101939D01*
X26320490Y40898061D01*
X26360264Y40698102D01*
X26438285Y40509744D01*
X26551553Y40340226D01*
X26695716Y40196063D01*
X26865234Y40082795D01*
X27053592Y40004774D01*
X27253551Y39965000D01*
X27457429Y39965000D01*
X27657388Y40004774D01*
X27845746Y40082795D01*
X27982993Y40174500D01*
X33858068Y40174500D01*
X35109909Y38922659D01*
X28530344Y38922659D01*
X28393097Y39014364D01*
X28204739Y39092385D01*
X28004780Y39132159D01*
X27800902Y39132159D01*
X27600943Y39092385D01*
X27412585Y39014364D01*
X27243067Y38901096D01*
X27098904Y38756933D01*
X26985636Y38587415D01*
X26907615Y38399057D01*
X26867841Y38199098D01*
X26867841Y37995220D01*
X26907615Y37795261D01*
X26985636Y37606903D01*
X27098904Y37437385D01*
X27236289Y37300000D01*
X27196063Y37259774D01*
X27082795Y37090256D01*
X27004774Y36901898D01*
X26965000Y36701939D01*
X26965000Y36627245D01*
X19249981Y36627015D01*
X19233405Y36625928D01*
X19103998Y36608888D01*
X19071975Y36600307D01*
X18951388Y36550355D01*
X18922676Y36533777D01*
X18819126Y36454317D01*
X18795684Y36430874D01*
X18716228Y36327322D01*
X18699652Y36298611D01*
X18649703Y36178022D01*
X18641122Y36145998D01*
X18624086Y36016591D01*
X18623000Y36000015D01*
X18623000Y27000000D01*
X18624086Y26983423D01*
X18641123Y26854013D01*
X18649704Y26821989D01*
X18699654Y26701399D01*
X18716232Y26672687D01*
X18795692Y26569134D01*
X18819134Y26545692D01*
X18922687Y26466232D01*
X18951399Y26449654D01*
X19071989Y26399704D01*
X19104013Y26391123D01*
X19233423Y26374086D01*
X19250000Y26373000D01*
X19741672Y26373000D01*
X19846257Y26359231D01*
X19935955Y26322077D01*
X20012976Y26262976D01*
X20072077Y26185955D01*
X20109231Y26096257D01*
X20111000Y26082820D01*
X20111000Y1000000D01*
X20114624Y944706D01*
X20109231Y903743D01*
X20072077Y814045D01*
X20012976Y737024D01*
X19977758Y710000D01*
X5555950Y710000D01*
X5721818Y778705D01*
X6317177Y1176511D01*
X6823489Y1682823D01*
X7221295Y2278182D01*
X7495309Y2939710D01*
X7635000Y3641984D01*
X7635000Y4358016D01*
X7495309Y5060290D01*
X7221295Y5721818D01*
X6823489Y6317177D01*
X6317177Y6823489D01*
X5721818Y7221295D01*
X5060290Y7495309D01*
X4358016Y7635000D01*
X3641984Y7635000D01*
X2939710Y7495309D01*
X2278182Y7221295D01*
X1682823Y6823489D01*
X1176511Y6317177D01*
X778705Y5721818D01*
X710000Y5555950D01*
X710000Y16851939D01*
X4589984Y16851939D01*
X4589984Y16648061D01*
X4629758Y16448102D01*
X4707779Y16259744D01*
X4821047Y16090226D01*
X4965210Y15946063D01*
X5134728Y15832795D01*
X5323086Y15754774D01*
X5484980Y15722572D01*
X5512590Y15694961D01*
X5538443Y15663459D01*
X5569943Y15637608D01*
X5664141Y15560301D01*
X5807550Y15483647D01*
X5963158Y15436444D01*
X6084431Y15424500D01*
X6084433Y15424500D01*
X6124984Y15420506D01*
X6165534Y15424500D01*
X9805558Y15424500D01*
X9754774Y15301898D01*
X9715000Y15101939D01*
X9715000Y14898061D01*
X9754774Y14698102D01*
X9832795Y14509744D01*
X9946063Y14340226D01*
X10090226Y14196063D01*
X10259744Y14082795D01*
X10448102Y14004774D01*
X10648061Y13965000D01*
X10851939Y13965000D01*
X11051898Y14004774D01*
X11240256Y14082795D01*
X11377503Y14174500D01*
X13122497Y14174500D01*
X13259744Y14082795D01*
X13448102Y14004774D01*
X13648061Y13965000D01*
X13851939Y13965000D01*
X14051898Y14004774D01*
X14240256Y14082795D01*
X14409774Y14196063D01*
X14553937Y14340226D01*
X14667205Y14509744D01*
X14745226Y14698102D01*
X14785000Y14898061D01*
X14785000Y15101939D01*
X14745226Y15301898D01*
X14733574Y15330027D01*
X14740256Y15332795D01*
X14909774Y15446063D01*
X15053937Y15590226D01*
X15167205Y15759744D01*
X15245226Y15948102D01*
X15285000Y16148061D01*
X15285000Y16351939D01*
X15245226Y16551898D01*
X15167205Y16740256D01*
X15053937Y16909774D01*
X14909774Y17053937D01*
X14740256Y17167205D01*
X14551898Y17245226D01*
X14351939Y17285000D01*
X14148061Y17285000D01*
X13948102Y17245226D01*
X13759744Y17167205D01*
X13622497Y17075500D01*
X6610434Y17075500D01*
X6542189Y17240256D01*
X6428921Y17409774D01*
X6284758Y17553937D01*
X6115240Y17667205D01*
X5926882Y17745226D01*
X5726923Y17785000D01*
X5523045Y17785000D01*
X5323086Y17745226D01*
X5134728Y17667205D01*
X4965210Y17553937D01*
X4821047Y17409774D01*
X4707779Y17240256D01*
X4629758Y17051898D01*
X4589984Y16851939D01*
X710000Y16851939D01*
X710000Y62101939D01*
X27215000Y62101939D01*
X27215000Y61898061D01*
X27254774Y61698102D01*
X27332795Y61509744D01*
X27446063Y61340226D01*
X27590226Y61196063D01*
X27759744Y61082795D01*
X27948102Y61004774D01*
X28148061Y60965000D01*
X28351939Y60965000D01*
X28551898Y61004774D01*
X28740256Y61082795D01*
X28877503Y61174500D01*
X35872497Y61174500D01*
X36009744Y61082795D01*
X36198102Y61004774D01*
X36398061Y60965000D01*
X36601939Y60965000D01*
X36801898Y61004774D01*
X36990256Y61082795D01*
X37159774Y61196063D01*
X37303937Y61340226D01*
X37417205Y61509744D01*
X37495226Y61698102D01*
X37535000Y61898061D01*
X37535000Y62101939D01*
X37495226Y62301898D01*
X37417205Y62490256D01*
X37303937Y62659774D01*
X37159774Y62803937D01*
X36990256Y62917205D01*
X36801898Y62995226D01*
X36601939Y63035000D01*
X36398061Y63035000D01*
X36198102Y62995226D01*
X36009744Y62917205D01*
X35872497Y62825500D01*
X28877503Y62825500D01*
X28740256Y62917205D01*
X28551898Y62995226D01*
X28351939Y63035000D01*
X28148061Y63035000D01*
X27948102Y62995226D01*
X27759744Y62917205D01*
X27590226Y62803937D01*
X27446063Y62659774D01*
X27332795Y62490256D01*
X27254774Y62301898D01*
X27215000Y62101939D01*
X710000Y62101939D01*
X710000Y69444050D01*
X778705Y69278182D01*
X1176511Y68682823D01*
X1682823Y68176511D01*
X2278182Y67778705D01*
X2939710Y67504691D01*
X3641984Y67365000D01*
X4358016Y67365000D01*
X5060290Y67504691D01*
X5721818Y67778705D01*
X6317177Y68176511D01*
X6823489Y68682823D01*
X7221295Y69278182D01*
X7355399Y69601939D01*
X16215000Y69601939D01*
X16215000Y69398061D01*
X16254774Y69198102D01*
X16332795Y69009744D01*
X16446063Y68840226D01*
X16590226Y68696063D01*
X16759744Y68582795D01*
X16948102Y68504774D01*
X17148061Y68465000D01*
X17351939Y68465000D01*
X17551898Y68504774D01*
X17740256Y68582795D01*
X17877503Y68674500D01*
X24908067Y68674500D01*
X25637611Y67944955D01*
X25663459Y67913459D01*
X25694955Y67887611D01*
X25694958Y67887608D01*
X25789157Y67810301D01*
X25848269Y67778705D01*
X25932566Y67733647D01*
X26088174Y67686444D01*
X26209447Y67674500D01*
X26209449Y67674500D01*
X26250000Y67670506D01*
X26290550Y67674500D01*
X27122497Y67674500D01*
X27259744Y67582795D01*
X27448102Y67504774D01*
X27648061Y67465000D01*
X27851939Y67465000D01*
X28051898Y67504774D01*
X28240256Y67582795D01*
X28409774Y67696063D01*
X28553937Y67840226D01*
X28667205Y68009744D01*
X28745226Y68198102D01*
X28785000Y68398061D01*
X28785000Y68601939D01*
X28745226Y68801898D01*
X28694442Y68924500D01*
X37872497Y68924500D01*
X38009744Y68832795D01*
X38198102Y68754774D01*
X38398061Y68715000D01*
X38601939Y68715000D01*
X38801898Y68754774D01*
X38990256Y68832795D01*
X39159774Y68946063D01*
X39303937Y69090226D01*
X39417205Y69259744D01*
X39495226Y69448102D01*
X39535000Y69648061D01*
X39535000Y69851939D01*
X39495226Y70051898D01*
X39417205Y70240256D01*
X39303937Y70409774D01*
X39159774Y70553937D01*
X38990256Y70667205D01*
X38801898Y70745226D01*
X38601939Y70785000D01*
X38398061Y70785000D01*
X38198102Y70745226D01*
X38009744Y70667205D01*
X37872497Y70575500D01*
X27627503Y70575500D01*
X27490256Y70667205D01*
X27301898Y70745226D01*
X27101939Y70785000D01*
X26898061Y70785000D01*
X26698102Y70745226D01*
X26509744Y70667205D01*
X26340226Y70553937D01*
X26196063Y70409774D01*
X26082795Y70240256D01*
X26004774Y70051898D01*
X25981673Y69935760D01*
X25862398Y70055035D01*
X25836541Y70086541D01*
X25710842Y70189699D01*
X25567434Y70266353D01*
X25411826Y70313556D01*
X25290553Y70325500D01*
X25290550Y70325500D01*
X25250000Y70329494D01*
X25209450Y70325500D01*
X17877503Y70325500D01*
X17740256Y70417205D01*
X17551898Y70495226D01*
X17351939Y70535000D01*
X17148061Y70535000D01*
X16948102Y70495226D01*
X16759744Y70417205D01*
X16590226Y70303937D01*
X16446063Y70159774D01*
X16332795Y69990256D01*
X16254774Y69801898D01*
X16215000Y69601939D01*
X7355399Y69601939D01*
X7495309Y69939710D01*
X7635000Y70641984D01*
X7635000Y71358016D01*
X7495309Y72060290D01*
X7221295Y72721818D01*
X6823489Y73317177D01*
X6317177Y73823489D01*
X5721818Y74221295D01*
X5555950Y74290000D01*
X39476951Y74290000D01*
X39512979Y74262354D01*
G37*
%TD.AperFunction*%
%TD*%
D17*
%TO.N,/AC_in*%
X47846257Y64109231D02*
X47935955Y64072077D01*
X48012976Y64012976D01*
X48072077Y63935955D01*
X48109231Y63846257D01*
X48123000Y63741672D01*
X48123000Y55508328D01*
X48109231Y55403743D01*
X48072077Y55314045D01*
X48012976Y55237024D01*
X47935955Y55177923D01*
X47846257Y55140769D01*
X47741672Y55127000D01*
X41258328Y55127000D01*
X41153743Y55140769D01*
X41064045Y55177923D01*
X40987024Y55237024D01*
X40927923Y55314045D01*
X40890769Y55403743D01*
X40877000Y55508328D01*
X40877000Y63741672D01*
X40890769Y63846257D01*
X40927923Y63935955D01*
X40987024Y64012976D01*
X41064045Y64072077D01*
X41153743Y64109231D01*
X41258328Y64123000D01*
X47741672Y64123000D01*
X47846257Y64109231D01*
%TA.AperFunction,Conductor*%
D21*
G36*
X47846257Y64109231D02*
G01*
X47935955Y64072077D01*
X48012976Y64012976D01*
X48072077Y63935955D01*
X48109231Y63846257D01*
X48123000Y63741672D01*
X48123000Y55508328D01*
X48109231Y55403743D01*
X48072077Y55314045D01*
X48012976Y55237024D01*
X47935955Y55177923D01*
X47846257Y55140769D01*
X47741672Y55127000D01*
X41258328Y55127000D01*
X41153743Y55140769D01*
X41064045Y55177923D01*
X40987024Y55237024D01*
X40927923Y55314045D01*
X40890769Y55403743D01*
X40877000Y55508328D01*
X40877000Y63741672D01*
X40890769Y63846257D01*
X40927923Y63935955D01*
X40987024Y64012976D01*
X41064045Y64072077D01*
X41153743Y64109231D01*
X41258328Y64123000D01*
X47741672Y64123000D01*
X47846257Y64109231D01*
G37*
%TD.AperFunction*%
%TD*%
D17*
%TO.N,/AC_Mot*%
X38596257Y33109231D02*
X38685955Y33072077D01*
X38762976Y33012976D01*
X38822077Y32935955D01*
X38859231Y32846257D01*
X38873000Y32741672D01*
X38873000Y26258328D01*
X38859231Y26153743D01*
X38822077Y26064045D01*
X38762976Y25987024D01*
X38685955Y25927923D01*
X38596257Y25890769D01*
X38491672Y25877000D01*
X31715435Y25877000D01*
X31610850Y25890769D01*
X31521155Y25927922D01*
X31437472Y25992134D01*
X30992134Y26437472D01*
X30927922Y26521155D01*
X30890769Y26610850D01*
X30877000Y26715435D01*
X30877000Y32741672D01*
X30890769Y32846257D01*
X30927923Y32935955D01*
X30987024Y33012976D01*
X31064045Y33072077D01*
X31153743Y33109231D01*
X31258328Y33123000D01*
X38491672Y33123000D01*
X38596257Y33109231D01*
%TA.AperFunction,Conductor*%
D21*
G36*
X38596257Y33109231D02*
G01*
X38685955Y33072077D01*
X38762976Y33012976D01*
X38822077Y32935955D01*
X38859231Y32846257D01*
X38873000Y32741672D01*
X38873000Y26258328D01*
X38859231Y26153743D01*
X38822077Y26064045D01*
X38762976Y25987024D01*
X38685955Y25927923D01*
X38596257Y25890769D01*
X38491672Y25877000D01*
X31715435Y25877000D01*
X31610850Y25890769D01*
X31521155Y25927922D01*
X31437472Y25992134D01*
X30992134Y26437472D01*
X30927922Y26521155D01*
X30890769Y26610850D01*
X30877000Y26715435D01*
X30877000Y32741672D01*
X30890769Y32846257D01*
X30927923Y32935955D01*
X30987024Y33012976D01*
X31064045Y33072077D01*
X31153743Y33109231D01*
X31258328Y33123000D01*
X38491672Y33123000D01*
X38596257Y33109231D01*
G37*
%TD.AperFunction*%
%TD*%
D17*
%TO.N,/AC_Mot*%
X37846257Y21359231D02*
X37935955Y21322077D01*
X38012976Y21262976D01*
X38072077Y21185955D01*
X38109231Y21096257D01*
X38123000Y20991672D01*
X38123000Y14258328D01*
X38109231Y14153743D01*
X38072077Y14064045D01*
X38012976Y13987024D01*
X37935955Y13927923D01*
X37846257Y13890769D01*
X37741672Y13877000D01*
X31508328Y13877000D01*
X31403743Y13890769D01*
X31314045Y13927923D01*
X31237024Y13987024D01*
X31177923Y14064045D01*
X31140769Y14153743D01*
X31127000Y14258328D01*
X31127000Y20991672D01*
X31140769Y21096257D01*
X31177923Y21185955D01*
X31237024Y21262976D01*
X31314045Y21322077D01*
X31403743Y21359231D01*
X31508328Y21373000D01*
X37741672Y21373000D01*
X37846257Y21359231D01*
%TA.AperFunction,Conductor*%
D21*
G36*
X37846257Y21359231D02*
G01*
X37935955Y21322077D01*
X38012976Y21262976D01*
X38072077Y21185955D01*
X38109231Y21096257D01*
X38123000Y20991672D01*
X38123000Y14258328D01*
X38109231Y14153743D01*
X38072077Y14064045D01*
X38012976Y13987024D01*
X37935955Y13927923D01*
X37846257Y13890769D01*
X37741672Y13877000D01*
X31508328Y13877000D01*
X31403743Y13890769D01*
X31314045Y13927923D01*
X31237024Y13987024D01*
X31177923Y14064045D01*
X31140769Y14153743D01*
X31127000Y14258328D01*
X31127000Y20991672D01*
X31140769Y21096257D01*
X31177923Y21185955D01*
X31237024Y21262976D01*
X31314045Y21322077D01*
X31403743Y21359231D01*
X31508328Y21373000D01*
X37741672Y21373000D01*
X37846257Y21359231D01*
G37*
%TD.AperFunction*%
%TD*%
D22*
X35500000Y66500000D03*
X39250000Y60250002D03*
X6600000Y29400000D03*
X5000000Y40200000D03*
X14600000Y48800000D03*
X14700008Y19500008D03*
X12600000Y68600000D03*
X14100006Y64218990D03*
X36500000Y64218990D03*
X17870001Y9729999D03*
X17869995Y3730005D03*
X4000000Y53749996D03*
X4000004Y53000000D03*
X4000000Y9000000D03*
X4000000Y8250000D03*
X11400000Y65200000D03*
X39200000Y63600000D03*
X27000000Y69750000D03*
X38500000Y69750000D03*
X41500000Y62500000D03*
X42700000Y62500000D03*
X43900000Y62500000D03*
X45100000Y62500000D03*
X46300000Y62500000D03*
X47500000Y62500000D03*
X41500000Y61300000D03*
X42700000Y61300000D03*
X43900000Y61300000D03*
X45100000Y61300000D03*
X46300000Y61300000D03*
X47500000Y61300000D03*
X41500000Y60100000D03*
X42700000Y60100000D03*
X43900000Y60100000D03*
X45100000Y60100000D03*
X46300000Y60100000D03*
X47500000Y60100000D03*
X41500000Y58900000D03*
X42700000Y58900000D03*
X43900000Y58900000D03*
X45100000Y58900000D03*
X46300000Y58900000D03*
X47500000Y58900000D03*
X41500000Y57700000D03*
X42700000Y57700000D03*
X43900000Y57700000D03*
X45100000Y57700000D03*
X46300000Y57700000D03*
X47500000Y57700000D03*
X41500000Y56500000D03*
X42700000Y56500000D03*
X43900000Y56500000D03*
X45100000Y56500000D03*
X46300000Y56500000D03*
X47500000Y56500000D03*
X23600000Y29200000D03*
X28200000Y14400000D03*
X23800000Y12200000D03*
X14020000Y42770000D03*
X72000000Y33440990D03*
X26599989Y29200011D03*
X14020000Y43480000D03*
X59000000Y53000000D03*
X58250000Y53000000D03*
X72000000Y32600000D03*
X20250000Y28500000D03*
X21000000Y28500000D03*
X21750000Y28500000D03*
X50250000Y64000000D03*
X50250000Y59000000D03*
X50250000Y56500000D03*
X51250000Y64000000D03*
X51250000Y61500000D03*
X51250000Y59000000D03*
X51250000Y56500000D03*
X51250000Y53750000D03*
X50250000Y61500000D03*
X50250000Y53750000D03*
X10750000Y15000000D03*
X13750000Y15000000D03*
X14250000Y16250000D03*
X5624984Y16750000D03*
X36500000Y62000000D03*
X27750000Y68500000D03*
X17250000Y69500000D03*
X28250000Y62000000D03*
X45750000Y53000000D03*
X27750000Y56750000D03*
X39800000Y35400000D03*
X27355490Y41000000D03*
X25750000Y42500000D03*
X41000000Y35250002D03*
X27555490Y23151490D03*
X40750002Y16250000D03*
X31750000Y20250000D03*
X26200000Y58000000D03*
X26000000Y24250000D03*
X29880004Y24250000D03*
X31750000Y32750000D03*
X32950000Y32750000D03*
X34150000Y32750000D03*
X35350000Y32750000D03*
X36550000Y32750000D03*
X37750000Y32750000D03*
X31750000Y31550000D03*
X32950000Y31550000D03*
X34150000Y31550000D03*
X35350000Y31550000D03*
X36550000Y31550000D03*
X37750000Y31550000D03*
X31750000Y30350000D03*
X32950000Y30350000D03*
X34150000Y30350000D03*
X35350000Y30350000D03*
X36550000Y30350000D03*
X37750000Y30350000D03*
X31750000Y29150000D03*
X32950000Y29150000D03*
X34150000Y29150000D03*
X35350000Y29150000D03*
X36550000Y29150000D03*
X37750000Y29150000D03*
X31750000Y27950000D03*
X32950000Y27950000D03*
X34150000Y27950000D03*
X35350000Y27950000D03*
X36550000Y27950000D03*
X37750000Y27950000D03*
X31750000Y26750000D03*
X32950000Y26750000D03*
X34150000Y26750000D03*
X35350000Y26750000D03*
X36550000Y26750000D03*
X37750000Y26750000D03*
X32950000Y20250000D03*
X34150000Y20250000D03*
X35350000Y20250000D03*
X36550000Y20250000D03*
X37750000Y20250000D03*
X31750000Y19050000D03*
X32950000Y19050000D03*
X34150000Y19050000D03*
X35350000Y19050000D03*
X36550000Y19050000D03*
X37750000Y19050000D03*
X31750000Y17850000D03*
X32950000Y17850000D03*
X34150000Y17850000D03*
X35350000Y17850000D03*
X36550000Y17850000D03*
X37750000Y17850000D03*
X31750000Y16650000D03*
X32950000Y16650000D03*
X34150000Y16650000D03*
X35350000Y16650000D03*
X36550000Y16650000D03*
X37750000Y16650000D03*
X31750000Y15450000D03*
X32950000Y15450000D03*
X34150000Y15450000D03*
X35350000Y15450000D03*
X36550000Y15450000D03*
X37750000Y15450000D03*
X31750000Y14250000D03*
X32950000Y14250000D03*
X34150000Y14250000D03*
X35350000Y14250000D03*
X36550000Y14250000D03*
X37750000Y14250000D03*
X29000000Y58000000D03*
X38000000Y11500000D03*
X27920047Y12500000D03*
X38250000Y66250000D03*
X40200000Y66000000D03*
X28200000Y43600000D03*
X27902841Y38097159D03*
X28000000Y36600000D03*
X75000000Y33094510D03*
X75000000Y32000000D03*
X28500000Y28750000D03*
X59160000Y19210000D03*
X56910000Y40910000D03*
X97000000Y48000000D03*
X97000000Y53080000D03*
X90000000Y3000000D03*
X90000000Y8000000D03*
X90000000Y13000000D03*
X82500000Y3000000D03*
X82500000Y8000000D03*
X82500000Y13000000D03*
X90000000Y28000000D03*
X82500000Y28000000D03*
X75000000Y3000000D03*
X75000000Y8000000D03*
X75000000Y13000000D03*
X67500000Y3000000D03*
X67500000Y8000000D03*
X67500000Y13000000D03*
X75000000Y28000000D03*
X67500000Y28000000D03*
X90000000Y36000000D03*
X90000000Y41000000D03*
X90000000Y46000000D03*
X82500000Y36000000D03*
X82500000Y41000000D03*
X82500000Y46000000D03*
X90000000Y61000000D03*
X82500000Y61000000D03*
X75000000Y36000000D03*
X75000000Y41000000D03*
X75000000Y46000000D03*
X67500000Y36000000D03*
X67500000Y41000000D03*
X67500000Y46000000D03*
X75000000Y61000000D03*
X67500000Y61000000D03*
X97000000Y64000000D03*
X97000000Y69080000D03*
X97000000Y6000000D03*
X97000000Y11080000D03*
X97000000Y16160000D03*
X97000000Y27090000D03*
X97000000Y32170000D03*
X97000000Y37250000D03*
X6056810Y5187500D03*
X6056810Y2812500D03*
X4000000Y1625000D03*
X1943190Y2812500D03*
X1943190Y5187500D03*
X4000000Y6375000D03*
X4000000Y4000000D03*
X6056810Y72187500D03*
X6056810Y69812500D03*
X4000000Y68625000D03*
X1943190Y69812500D03*
X1943190Y72187500D03*
X4000000Y73375000D03*
X4000000Y71000000D03*
X67900000Y69500000D03*
X90500000Y69500000D03*
M02*
