%TF.GenerationSoftware,KiCad,Pcbnew,(5.1.10)-1*%
%TF.CreationDate,2022-06-02T12:59:49+08:00*%
%TF.ProjectId,motor_control,6d6f746f-725f-4636-9f6e-74726f6c2e6b,rev?*%
%TF.SameCoordinates,Original*%
%TF.FileFunction,Copper,L1,Top*%
%TF.FilePolarity,Positive*%
%FSLAX46Y46*%
G04 Gerber Fmt 4.6, Leading zero omitted, Abs format (unit mm)*
G04 Created by KiCad (PCBNEW (5.1.10)-1) date 2022-06-02 12:59:49*
%MOMM*%
%LPD*%
G01*
G04 APERTURE LIST*
%TA.AperFunction,SMDPad,CuDef*%
%ADD10R,1.800000X1.130000*%
%TD*%
%TA.AperFunction,SMDPad,CuDef*%
%ADD11R,1.130000X1.800000*%
%TD*%
%TA.AperFunction,SMDPad,CuDef*%
%ADD12R,1.160000X2.720000*%
%TD*%
%TA.AperFunction,SMDPad,CuDef*%
%ADD13R,4.400000X2.200000*%
%TD*%
%TA.AperFunction,SMDPad,CuDef*%
%ADD14R,6.400000X5.800000*%
%TD*%
%TA.AperFunction,SMDPad,CuDef*%
%ADD15R,2.200000X1.200000*%
%TD*%
%TA.AperFunction,SMDPad,CuDef*%
%ADD16R,5.800000X6.400000*%
%TD*%
%TA.AperFunction,SMDPad,CuDef*%
%ADD17R,1.200000X2.200000*%
%TD*%
%TA.AperFunction,ComponentPad*%
%ADD18O,3.600000X2.080000*%
%TD*%
%TA.AperFunction,SMDPad,CuDef*%
%ADD19O,1.800000X0.600000*%
%TD*%
%TA.AperFunction,SMDPad,CuDef*%
%ADD20R,2.000000X1.780000*%
%TD*%
%TA.AperFunction,SMDPad,CuDef*%
%ADD21O,2.000000X0.800000*%
%TD*%
%TA.AperFunction,SMDPad,CuDef*%
%ADD22R,1.160000X1.470000*%
%TD*%
%TA.AperFunction,SMDPad,CuDef*%
%ADD23R,1.470000X1.160000*%
%TD*%
%TA.AperFunction,ComponentPad*%
%ADD24C,2.500000*%
%TD*%
%TA.AperFunction,SMDPad,CuDef*%
%ADD25R,3.150000X1.000000*%
%TD*%
%TA.AperFunction,ComponentPad*%
%ADD26C,0.800000*%
%TD*%
%TA.AperFunction,ComponentPad*%
%ADD27C,6.000000*%
%TD*%
%TA.AperFunction,ComponentPad*%
%ADD28O,4.000000X2.500000*%
%TD*%
%TA.AperFunction,ViaPad*%
%ADD29C,0.800000*%
%TD*%
%TA.AperFunction,Conductor*%
%ADD30C,0.381000*%
%TD*%
%TA.AperFunction,Conductor*%
%ADD31C,0.508000*%
%TD*%
%TA.AperFunction,Conductor*%
%ADD32C,0.762000*%
%TD*%
%TA.AperFunction,Conductor*%
%ADD33C,0.254000*%
%TD*%
%TA.AperFunction,Conductor*%
%ADD34C,3.810000*%
%TD*%
%TA.AperFunction,Conductor*%
%ADD35C,0.350000*%
%TD*%
%ADD36C,0.350000*%
G04 APERTURE END LIST*
D10*
%TO.P,R13,2*%
%TO.N,Net-(C6-Pad1)*%
X40750000Y10510000D03*
%TO.P,R13,1*%
%TO.N,/AC_Mot*%
X40750000Y13490000D03*
%TD*%
D11*
%TO.P,R9,1*%
%TO.N,/AC_Mot*%
X33160000Y24000000D03*
%TO.P,R9,2*%
%TO.N,Net-(C5-Pad1)*%
X36140000Y24000000D03*
%TD*%
D10*
%TO.P,R8,2*%
%TO.N,Net-(C4-Pad1)*%
X38000000Y52500000D03*
%TO.P,R8,1*%
%TO.N,/AC_in*%
X38000000Y55480000D03*
%TD*%
D12*
%TO.P,C6,2*%
%TO.N,/AC_MOT2*%
X47500000Y10750000D03*
%TO.P,C6,1*%
%TO.N,Net-(C6-Pad1)*%
X44550000Y10750000D03*
%TD*%
%TO.P,C5,2*%
%TO.N,/AC_MOT1*%
X41200000Y24250000D03*
%TO.P,C5,1*%
%TO.N,Net-(C5-Pad1)*%
X38250000Y24250000D03*
%TD*%
%TO.P,C4,2*%
%TO.N,/AUX1*%
X41225000Y49250000D03*
%TO.P,C4,1*%
%TO.N,Net-(C4-Pad1)*%
X38275000Y49250000D03*
%TD*%
D13*
%TO.P,Q2B1,1*%
%TO.N,/AC_MOT1*%
X42500000Y22150000D03*
%TO.P,Q2B1,2*%
%TO.N,/AC_Mot*%
X42500000Y19210000D03*
%TO.P,Q2B1,3*%
%TO.N,Net-(Q2-Pad3)*%
X42500000Y16270000D03*
%TD*%
%TO.P,Q1B1,1*%
%TO.N,/AUX1*%
X40250000Y43850000D03*
%TO.P,Q1B1,2*%
%TO.N,/AC_in*%
X40250000Y40910000D03*
%TO.P,Q1B1,3*%
%TO.N,Net-(Q1-Pad3)*%
X40250000Y37970000D03*
%TD*%
D14*
%TO.P,Q2,2*%
%TO.N,/AC_Mot*%
X34650000Y29750000D03*
D15*
%TO.P,Q2,3*%
%TO.N,Net-(Q2-Pad3)*%
X40950000Y32030000D03*
%TO.P,Q2,1*%
%TO.N,/AC_MOT1*%
X40950000Y27470000D03*
%TD*%
D16*
%TO.P,Q3,2*%
%TO.N,/AC_Mot*%
X34500000Y17350000D03*
D17*
%TO.P,Q3,3*%
%TO.N,Net-(Q3-Pad3)*%
X36780000Y11050000D03*
%TO.P,Q3,1*%
%TO.N,/AC_MOT2*%
X32220000Y11050000D03*
%TD*%
D11*
%TO.P,R19,2*%
%TO.N,/AC_Mot*%
X26190000Y54650000D03*
%TO.P,R19,1*%
%TO.N,Net-(R19-Pad1)*%
X23210000Y54650000D03*
%TD*%
%TO.P,R18,2*%
%TO.N,/AC_Mot*%
X25990000Y26000000D03*
%TO.P,R18,1*%
%TO.N,Net-(R18-Pad1)*%
X23010000Y26000000D03*
%TD*%
%TO.P,R17,2*%
%TO.N,/AC_in*%
X26990000Y71000000D03*
%TO.P,R17,1*%
%TO.N,Net-(R17-Pad1)*%
X24010000Y71000000D03*
%TD*%
D16*
%TO.P,Q1,2*%
%TO.N,/AC_in*%
X44525000Y59325000D03*
D17*
%TO.P,Q1,3*%
%TO.N,Net-(Q1-Pad3)*%
X46805000Y53025000D03*
%TO.P,Q1,1*%
%TO.N,/AUX1*%
X42245000Y53025000D03*
%TD*%
D18*
%TO.P,J9,2*%
%TO.N,GNDPWR*%
X97000000Y48000000D03*
%TO.P,J9,1*%
%TO.N,/AUX1*%
%TA.AperFunction,ComponentPad*%
G36*
G01*
X95449997Y54120000D02*
X98550003Y54120000D01*
G75*
G02*
X98800000Y53870003I0J-249997D01*
G01*
X98800000Y52289997D01*
G75*
G02*
X98550003Y52040000I-249997J0D01*
G01*
X95449997Y52040000D01*
G75*
G02*
X95200000Y52289997I0J249997D01*
G01*
X95200000Y53870003D01*
G75*
G02*
X95449997Y54120000I249997J0D01*
G01*
G37*
%TD.AperFunction*%
%TD*%
%TO.P,U9,8*%
%TO.N,+5V*%
%TA.AperFunction,SMDPad,CuDef*%
G36*
G01*
X39255000Y68500000D02*
X39555000Y68500000D01*
G75*
G02*
X39705000Y68350000I0J-150000D01*
G01*
X39705000Y66700000D01*
G75*
G02*
X39555000Y66550000I-150000J0D01*
G01*
X39255000Y66550000D01*
G75*
G02*
X39105000Y66700000I0J150000D01*
G01*
X39105000Y68350000D01*
G75*
G02*
X39255000Y68500000I150000J0D01*
G01*
G37*
%TD.AperFunction*%
%TO.P,U9,7*%
%TO.N,Net-(R20-Pad2)*%
%TA.AperFunction,SMDPad,CuDef*%
G36*
G01*
X37985000Y68500000D02*
X38285000Y68500000D01*
G75*
G02*
X38435000Y68350000I0J-150000D01*
G01*
X38435000Y66700000D01*
G75*
G02*
X38285000Y66550000I-150000J0D01*
G01*
X37985000Y66550000D01*
G75*
G02*
X37835000Y66700000I0J150000D01*
G01*
X37835000Y68350000D01*
G75*
G02*
X37985000Y68500000I150000J0D01*
G01*
G37*
%TD.AperFunction*%
%TO.P,U9,6*%
%TO.N,Net-(C1-Pad1)*%
%TA.AperFunction,SMDPad,CuDef*%
G36*
G01*
X36715000Y68500000D02*
X37015000Y68500000D01*
G75*
G02*
X37165000Y68350000I0J-150000D01*
G01*
X37165000Y66700000D01*
G75*
G02*
X37015000Y66550000I-150000J0D01*
G01*
X36715000Y66550000D01*
G75*
G02*
X36565000Y66700000I0J150000D01*
G01*
X36565000Y68350000D01*
G75*
G02*
X36715000Y68500000I150000J0D01*
G01*
G37*
%TD.AperFunction*%
%TO.P,U9,5*%
%TO.N,GNDS*%
%TA.AperFunction,SMDPad,CuDef*%
G36*
G01*
X35445000Y68500000D02*
X35745000Y68500000D01*
G75*
G02*
X35895000Y68350000I0J-150000D01*
G01*
X35895000Y66700000D01*
G75*
G02*
X35745000Y66550000I-150000J0D01*
G01*
X35445000Y66550000D01*
G75*
G02*
X35295000Y66700000I0J150000D01*
G01*
X35295000Y68350000D01*
G75*
G02*
X35445000Y68500000I150000J0D01*
G01*
G37*
%TD.AperFunction*%
%TO.P,U9,4*%
%TO.N,/AC_Mot*%
%TA.AperFunction,SMDPad,CuDef*%
G36*
G01*
X35445000Y73450000D02*
X35745000Y73450000D01*
G75*
G02*
X35895000Y73300000I0J-150000D01*
G01*
X35895000Y71650000D01*
G75*
G02*
X35745000Y71500000I-150000J0D01*
G01*
X35445000Y71500000D01*
G75*
G02*
X35295000Y71650000I0J150000D01*
G01*
X35295000Y73300000D01*
G75*
G02*
X35445000Y73450000I150000J0D01*
G01*
G37*
%TD.AperFunction*%
%TO.P,U9,3*%
%TA.AperFunction,SMDPad,CuDef*%
G36*
G01*
X36715000Y73450000D02*
X37015000Y73450000D01*
G75*
G02*
X37165000Y73300000I0J-150000D01*
G01*
X37165000Y71650000D01*
G75*
G02*
X37015000Y71500000I-150000J0D01*
G01*
X36715000Y71500000D01*
G75*
G02*
X36565000Y71650000I0J150000D01*
G01*
X36565000Y73300000D01*
G75*
G02*
X36715000Y73450000I150000J0D01*
G01*
G37*
%TD.AperFunction*%
%TO.P,U9,2*%
%TO.N,/AC_in*%
%TA.AperFunction,SMDPad,CuDef*%
G36*
G01*
X37985000Y73450000D02*
X38285000Y73450000D01*
G75*
G02*
X38435000Y73300000I0J-150000D01*
G01*
X38435000Y71650000D01*
G75*
G02*
X38285000Y71500000I-150000J0D01*
G01*
X37985000Y71500000D01*
G75*
G02*
X37835000Y71650000I0J150000D01*
G01*
X37835000Y73300000D01*
G75*
G02*
X37985000Y73450000I150000J0D01*
G01*
G37*
%TD.AperFunction*%
%TO.P,U9,1*%
%TA.AperFunction,SMDPad,CuDef*%
G36*
G01*
X39255000Y73450000D02*
X39555000Y73450000D01*
G75*
G02*
X39705000Y73300000I0J-150000D01*
G01*
X39705000Y71650000D01*
G75*
G02*
X39555000Y71500000I-150000J0D01*
G01*
X39255000Y71500000D01*
G75*
G02*
X39105000Y71650000I0J150000D01*
G01*
X39105000Y73300000D01*
G75*
G02*
X39255000Y73450000I150000J0D01*
G01*
G37*
%TD.AperFunction*%
%TD*%
D19*
%TO.P,U8,16*%
%TO.N,Net-(K1-Pad8)*%
X26600000Y39195000D03*
%TO.P,U8,15*%
%TO.N,Net-(K2-Pad8)*%
X26600000Y37925000D03*
%TO.P,U8,14*%
%TO.N,Net-(K3-Pad8)*%
X26600000Y36655000D03*
%TO.P,U8,13*%
%TO.N,Net-(K4-Pad8)*%
X26600000Y35385000D03*
%TO.P,U8,12*%
%TO.N,Net-(U8-Pad12)*%
X26600000Y34115000D03*
%TO.P,U8,11*%
%TO.N,Net-(U8-Pad11)*%
X26600000Y32845000D03*
%TO.P,U8,10*%
%TO.N,Net-(U8-Pad10)*%
X26600000Y31575000D03*
%TO.P,U8,9*%
%TO.N,+12V*%
X26600000Y30305000D03*
%TO.P,U8,8*%
%TO.N,GNDPWR*%
X21400000Y30305000D03*
%TO.P,U8,7*%
X21400000Y31575000D03*
%TO.P,U8,6*%
X21400000Y32845000D03*
%TO.P,U8,5*%
X21400000Y34115000D03*
%TO.P,U8,4*%
%TO.N,Net-(R14-Pad2)*%
X21400000Y35385000D03*
%TO.P,U8,3*%
%TO.N,Net-(R12-Pad2)*%
X21400000Y36655000D03*
%TO.P,U8,2*%
%TO.N,Net-(R11-Pad2)*%
X21400000Y37925000D03*
%TO.P,U8,1*%
%TO.N,Net-(R10-Pad2)*%
X21400000Y39195000D03*
%TD*%
D20*
%TO.P,U7,6*%
%TO.N,Net-(R17-Pad1)*%
X25165000Y67040000D03*
%TO.P,U7,3*%
%TO.N,Net-(U7-Pad3)*%
X15635000Y61960000D03*
%TO.P,U7,5*%
%TO.N,Net-(U7-Pad5)*%
X25165000Y64500000D03*
%TO.P,U7,2*%
%TO.N,GNDS*%
X15635000Y64500000D03*
%TO.P,U7,4*%
%TO.N,Net-(Q1-Pad3)*%
X25165000Y61960000D03*
%TO.P,U7,1*%
%TO.N,Net-(R7-Pad2)*%
X15635000Y67040000D03*
%TD*%
D21*
%TO.P,U6,4*%
%TO.N,+12V*%
X25250000Y6270000D03*
%TO.P,U6,3*%
%TO.N,Net-(R14-Pad1)*%
X25250000Y3730000D03*
%TO.P,U6,2*%
%TO.N,GNDS*%
X19250000Y3730000D03*
%TO.P,U6,1*%
%TO.N,Net-(R6-Pad2)*%
X19250000Y6270000D03*
%TD*%
%TO.P,U5,4*%
%TO.N,+12V*%
X25250000Y12270000D03*
%TO.P,U5,3*%
%TO.N,Net-(R12-Pad1)*%
X25250000Y9730000D03*
%TO.P,U5,2*%
%TO.N,GNDS*%
X19250000Y9730000D03*
%TO.P,U5,1*%
%TO.N,Net-(R5-Pad2)*%
X19250000Y12270000D03*
%TD*%
D20*
%TO.P,U4,6*%
%TO.N,Net-(R18-Pad1)*%
X25765000Y22040000D03*
%TO.P,U4,3*%
%TO.N,Net-(U4-Pad3)*%
X16235000Y16960000D03*
%TO.P,U4,5*%
%TO.N,Net-(U4-Pad5)*%
X25765000Y19500000D03*
%TO.P,U4,2*%
%TO.N,GNDS*%
X16235000Y19500000D03*
%TO.P,U4,4*%
%TO.N,Net-(Q3-Pad3)*%
X25765000Y16960000D03*
%TO.P,U4,1*%
%TO.N,Net-(R4-Pad2)*%
X16235000Y22040000D03*
%TD*%
D21*
%TO.P,U3,4*%
%TO.N,+12V*%
X12500000Y32770000D03*
%TO.P,U3,3*%
%TO.N,Net-(R11-Pad1)*%
X12500000Y30230000D03*
%TO.P,U3,2*%
%TO.N,GNDS*%
X6500000Y30230000D03*
%TO.P,U3,1*%
%TO.N,Net-(R3-Pad2)*%
X6500000Y32770000D03*
%TD*%
%TO.P,U2,4*%
%TO.N,+12V*%
X12500000Y42770000D03*
%TO.P,U2,3*%
%TO.N,Net-(R10-Pad1)*%
X12500000Y40230000D03*
%TO.P,U2,2*%
%TO.N,GNDS*%
X6500000Y40230000D03*
%TO.P,U2,1*%
%TO.N,Net-(R2-Pad2)*%
X6500000Y42770000D03*
%TD*%
D20*
%TO.P,U1,6*%
%TO.N,Net-(R19-Pad1)*%
X25765000Y51290000D03*
%TO.P,U1,3*%
%TO.N,Net-(U1-Pad3)*%
X16235000Y46210000D03*
%TO.P,U1,5*%
%TO.N,Net-(U1-Pad5)*%
X25765000Y48750000D03*
%TO.P,U1,2*%
%TO.N,GNDS*%
X16235000Y48750000D03*
%TO.P,U1,4*%
%TO.N,Net-(Q2-Pad3)*%
X25765000Y46210000D03*
%TO.P,U1,1*%
%TO.N,Net-(R1-Pad1)*%
X16235000Y51290000D03*
%TD*%
D22*
%TO.P,R20,2*%
%TO.N,Net-(R20-Pad2)*%
X39280000Y62000000D03*
%TO.P,R20,1*%
%TO.N,/ISense1*%
X37500000Y62000000D03*
%TD*%
%TO.P,R14,2*%
%TO.N,Net-(R14-Pad2)*%
X18390000Y28000000D03*
%TO.P,R14,1*%
%TO.N,Net-(R14-Pad1)*%
X16610000Y28000000D03*
%TD*%
%TO.P,R12,2*%
%TO.N,Net-(R12-Pad2)*%
X18390000Y32000000D03*
%TO.P,R12,1*%
%TO.N,Net-(R12-Pad1)*%
X16610000Y32000000D03*
%TD*%
%TO.P,R11,2*%
%TO.N,Net-(R11-Pad2)*%
X18390000Y36500000D03*
%TO.P,R11,1*%
%TO.N,Net-(R11-Pad1)*%
X16610000Y36500000D03*
%TD*%
%TO.P,R10,2*%
%TO.N,Net-(R10-Pad2)*%
X18390000Y40500000D03*
%TO.P,R10,1*%
%TO.N,Net-(R10-Pad1)*%
X16610000Y40500000D03*
%TD*%
D23*
%TO.P,R7,2*%
%TO.N,Net-(R7-Pad2)*%
X16500000Y58000000D03*
%TO.P,R7,1*%
%TO.N,/RELOUT5*%
X16500000Y56220000D03*
%TD*%
%TO.P,R6,2*%
%TO.N,Net-(R6-Pad2)*%
X16250000Y6390000D03*
%TO.P,R6,1*%
%TO.N,/RELOUT4*%
X16250000Y4610000D03*
%TD*%
%TO.P,R5,2*%
%TO.N,Net-(R5-Pad2)*%
X16250000Y12390000D03*
%TO.P,R5,1*%
%TO.N,/RELOUT3*%
X16250000Y10610000D03*
%TD*%
D22*
%TO.P,R4,2*%
%TO.N,Net-(R4-Pad2)*%
X16390000Y25000000D03*
%TO.P,R4,1*%
%TO.N,/SPWM2*%
X14610000Y25000000D03*
%TD*%
%TO.P,R3,2*%
%TO.N,Net-(R3-Pad2)*%
X8390000Y36000000D03*
%TO.P,R3,1*%
%TO.N,/RELOUT2*%
X6610000Y36000000D03*
%TD*%
%TO.P,R2,2*%
%TO.N,Net-(R2-Pad2)*%
X8500000Y46000000D03*
%TO.P,R2,1*%
%TO.N,/RELOUT1*%
X6720000Y46000000D03*
%TD*%
D23*
%TO.P,R1,2*%
%TO.N,/SPWM1*%
X13000000Y49360000D03*
%TO.P,R1,1*%
%TO.N,Net-(R1-Pad1)*%
X13000000Y51140000D03*
%TD*%
D24*
%TO.P,K4,5*%
%TO.N,/MOT2CW*%
X90000000Y3000000D03*
%TO.P,K4,6*%
%TO.N,/AC_MOT2_SW*%
X90000000Y8000000D03*
%TO.P,K4,7*%
%TO.N,/MOT2CCW*%
X90000000Y13000000D03*
%TO.P,K4,4*%
%TO.N,/MOT2CW*%
X82500000Y3000000D03*
%TO.P,K4,3*%
%TO.N,/AC_MOT2_SW*%
X82500000Y8000000D03*
%TO.P,K4,2*%
%TO.N,/MOT2CCW*%
X82500000Y13000000D03*
%TO.P,K4,8*%
%TO.N,Net-(K4-Pad8)*%
X90000000Y28000000D03*
%TO.P,K4,1*%
%TO.N,+12V*%
X82500000Y28000000D03*
%TD*%
%TO.P,K3,5*%
%TO.N,/AC_MOT2_SW*%
X75000000Y3000000D03*
%TO.P,K3,6*%
%TO.N,/AC_MOT2*%
X75000000Y8000000D03*
%TO.P,K3,7*%
%TO.N,Net-(K3-Pad2)*%
X75000000Y13000000D03*
%TO.P,K3,4*%
%TO.N,/AC_MOT2_SW*%
X67500000Y3000000D03*
%TO.P,K3,3*%
%TO.N,/AC_MOT2*%
X67500000Y8000000D03*
%TO.P,K3,2*%
%TO.N,Net-(K3-Pad2)*%
X67500000Y13000000D03*
%TO.P,K3,8*%
%TO.N,Net-(K3-Pad8)*%
X75000000Y28000000D03*
%TO.P,K3,1*%
%TO.N,+12V*%
X67500000Y28000000D03*
%TD*%
%TO.P,K2,5*%
%TO.N,/MOT1CW*%
X90000000Y36000000D03*
%TO.P,K2,6*%
%TO.N,/AC_MOT1_SW*%
X90000000Y41000000D03*
%TO.P,K2,7*%
%TO.N,/MOT1CCW*%
X90000000Y46000000D03*
%TO.P,K2,4*%
%TO.N,/MOT1CW*%
X82500000Y36000000D03*
%TO.P,K2,3*%
%TO.N,/AC_MOT1_SW*%
X82500000Y41000000D03*
%TO.P,K2,2*%
%TO.N,/MOT1CCW*%
X82500000Y46000000D03*
%TO.P,K2,8*%
%TO.N,Net-(K2-Pad8)*%
X90000000Y61000000D03*
%TO.P,K2,1*%
%TO.N,+12V*%
X82500000Y61000000D03*
%TD*%
%TO.P,K1,5*%
%TO.N,/AC_MOT1_SW*%
X75000000Y36000000D03*
%TO.P,K1,6*%
%TO.N,/AC_MOT1*%
X75000000Y41000000D03*
%TO.P,K1,7*%
%TO.N,Net-(K1-Pad2)*%
X75000000Y46000000D03*
%TO.P,K1,4*%
%TO.N,/AC_MOT1_SW*%
X67500000Y36000000D03*
%TO.P,K1,3*%
%TO.N,/AC_MOT1*%
X67500000Y41000000D03*
%TO.P,K1,2*%
%TO.N,Net-(K1-Pad2)*%
X67500000Y46000000D03*
%TO.P,K1,8*%
%TO.N,Net-(K1-Pad8)*%
X75000000Y61000000D03*
%TO.P,K1,1*%
%TO.N,+12V*%
X67500000Y61000000D03*
%TD*%
D18*
%TO.P,J12,2*%
%TO.N,GNDPWR*%
X97000000Y64000000D03*
%TO.P,J12,1*%
%TO.N,VAC*%
%TA.AperFunction,ComponentPad*%
G36*
G01*
X95449997Y70120000D02*
X98550003Y70120000D01*
G75*
G02*
X98800000Y69870003I0J-249997D01*
G01*
X98800000Y68289997D01*
G75*
G02*
X98550003Y68040000I-249997J0D01*
G01*
X95449997Y68040000D01*
G75*
G02*
X95200000Y68289997I0J249997D01*
G01*
X95200000Y69870003D01*
G75*
G02*
X95449997Y70120000I249997J0D01*
G01*
G37*
%TD.AperFunction*%
%TD*%
%TO.P,J11,3*%
%TO.N,GNDPWR*%
X97000000Y6000000D03*
%TO.P,J11,2*%
%TO.N,/MOT2CW*%
X97000000Y11080000D03*
%TO.P,J11,1*%
%TO.N,/MOT2CCW*%
%TA.AperFunction,ComponentPad*%
G36*
G01*
X95449997Y17200000D02*
X98550003Y17200000D01*
G75*
G02*
X98800000Y16950003I0J-249997D01*
G01*
X98800000Y15369997D01*
G75*
G02*
X98550003Y15120000I-249997J0D01*
G01*
X95449997Y15120000D01*
G75*
G02*
X95200000Y15369997I0J249997D01*
G01*
X95200000Y16950003D01*
G75*
G02*
X95449997Y17200000I249997J0D01*
G01*
G37*
%TD.AperFunction*%
%TD*%
%TO.P,J8,3*%
%TO.N,GNDPWR*%
X97000000Y27090000D03*
%TO.P,J8,2*%
%TO.N,/MOT1CW*%
X97000000Y32170000D03*
%TO.P,J8,1*%
%TO.N,/MOT1CCW*%
%TA.AperFunction,ComponentPad*%
G36*
G01*
X95449997Y38290000D02*
X98550003Y38290000D01*
G75*
G02*
X98800000Y38040003I0J-249997D01*
G01*
X98800000Y36459997D01*
G75*
G02*
X98550003Y36210000I-249997J0D01*
G01*
X95449997Y36210000D01*
G75*
G02*
X95200000Y36459997I0J249997D01*
G01*
X95200000Y38040003D01*
G75*
G02*
X95449997Y38290000I249997J0D01*
G01*
G37*
%TD.AperFunction*%
%TD*%
D25*
%TO.P,J7,10*%
%TO.N,Net-(J7-Pad10)*%
X9025000Y54920000D03*
%TO.P,J7,9*%
%TO.N,GNDS*%
X3975000Y54920000D03*
%TO.P,J7,8*%
%TO.N,Net-(J7-Pad8)*%
X9025000Y57460000D03*
%TO.P,J7,7*%
%TO.N,Net-(J7-Pad7)*%
X3975000Y57460000D03*
%TO.P,J7,6*%
%TO.N,Net-(J7-Pad6)*%
X9025000Y60000000D03*
%TO.P,J7,5*%
%TO.N,Net-(J7-Pad5)*%
X3975000Y60000000D03*
%TO.P,J7,4*%
%TO.N,Net-(J7-Pad4)*%
X9025000Y62540000D03*
%TO.P,J7,3*%
%TO.N,Net-(J7-Pad3)*%
X3975000Y62540000D03*
%TO.P,J7,2*%
%TO.N,+5V*%
X9025000Y65080000D03*
%TO.P,J7,1*%
%TO.N,/ISense1*%
X3975000Y65080000D03*
%TD*%
%TO.P,J6,10*%
%TO.N,/SPWM2*%
X9025000Y9920000D03*
%TO.P,J6,9*%
%TO.N,GNDS*%
X3975000Y9920000D03*
%TO.P,J6,8*%
%TO.N,/RELOUT6*%
X9025000Y12460000D03*
%TO.P,J6,7*%
%TO.N,/SPWM1*%
X3975000Y12460000D03*
%TO.P,J6,6*%
%TO.N,/RELOUT4*%
X9025000Y15000000D03*
%TO.P,J6,5*%
%TO.N,/RELOUT5*%
X3975000Y15000000D03*
%TO.P,J6,4*%
%TO.N,/RELOUT2*%
X9025000Y17540000D03*
%TO.P,J6,3*%
%TO.N,/RELOUT3*%
X3975000Y17540000D03*
%TO.P,J6,2*%
%TO.N,+3V3*%
X9025000Y20080000D03*
%TO.P,J6,1*%
%TO.N,/RELOUT1*%
X3975000Y20080000D03*
%TD*%
%TO.P,J5,10*%
%TO.N,+12V*%
X59025000Y53920000D03*
%TO.P,J5,9*%
%TO.N,GNDPWR*%
X53975000Y53920000D03*
%TO.P,J5,8*%
%TO.N,VAC*%
X59025000Y56460000D03*
%TO.P,J5,7*%
%TO.N,GNDPWR*%
X53975000Y56460000D03*
%TO.P,J5,6*%
%TO.N,VAC*%
X59025000Y59000000D03*
%TO.P,J5,5*%
%TO.N,GNDPWR*%
X53975000Y59000000D03*
%TO.P,J5,4*%
%TO.N,VAC*%
X59025000Y61540000D03*
%TO.P,J5,3*%
%TO.N,GNDPWR*%
X53975000Y61540000D03*
%TO.P,J5,2*%
%TO.N,VAC*%
X59025000Y64080000D03*
%TO.P,J5,1*%
%TO.N,GNDPWR*%
X53975000Y64080000D03*
%TD*%
D26*
%TO.P,J2,1*%
%TO.N,Net-(J2-Pad1)*%
X6056810Y5187500D03*
X6056810Y2812500D03*
X4000000Y1625000D03*
X1943190Y2812500D03*
X1943190Y5187500D03*
X4000000Y6375000D03*
D27*
X4000000Y4000000D03*
%TD*%
D26*
%TO.P,J1,1*%
%TO.N,Net-(J1-Pad1)*%
X6056810Y72187500D03*
X6056810Y69812500D03*
X4000000Y68625000D03*
X1943190Y69812500D03*
X1943190Y72187500D03*
X4000000Y73375000D03*
D27*
X4000000Y71000000D03*
%TD*%
D28*
%TO.P,F1,2*%
%TO.N,/AC_in*%
X67900000Y69500000D03*
%TO.P,F1,1*%
%TO.N,VAC*%
X90500000Y69500000D03*
%TD*%
D22*
%TO.P,C3,2*%
%TO.N,GNDS*%
X11490000Y68600000D03*
%TO.P,C3,1*%
%TO.N,/ISense1*%
X9710000Y68600000D03*
%TD*%
%TO.P,C2,2*%
%TO.N,+5V*%
X39190000Y64700000D03*
%TO.P,C2,1*%
%TO.N,GNDS*%
X37410000Y64700000D03*
%TD*%
%TO.P,C1,2*%
%TO.N,GNDS*%
X39190000Y59300000D03*
%TO.P,C1,1*%
%TO.N,Net-(C1-Pad1)*%
X37410000Y59300000D03*
%TD*%
D29*
%TO.N,GNDS*%
X35500000Y66500000D03*
X39250000Y60250002D03*
X6600000Y29400000D03*
X5000000Y40200000D03*
X14600000Y48800000D03*
X14700008Y19500008D03*
X12600000Y68600000D03*
X14100006Y64218990D03*
X36500000Y64218990D03*
X17870001Y9729999D03*
X17869995Y3730005D03*
X4000000Y53749996D03*
X4000004Y53000000D03*
X4000000Y9000000D03*
X4000000Y8250000D03*
%TO.N,+5V*%
X11400000Y65200000D03*
X39200000Y63600000D03*
%TO.N,/AC_in*%
X27000000Y69750000D03*
X38500000Y69750000D03*
X41500000Y62500000D03*
X42700000Y62500000D03*
X43900000Y62500000D03*
X45100000Y62500000D03*
X46300000Y62500000D03*
X47500000Y62500000D03*
X41500000Y61300000D03*
X42700000Y61300000D03*
X43900000Y61300000D03*
X45100000Y61300000D03*
X46300000Y61300000D03*
X47500000Y61300000D03*
X41500000Y60100000D03*
X42700000Y60100000D03*
X43900000Y60100000D03*
X45100000Y60100000D03*
X46300000Y60100000D03*
X47500000Y60100000D03*
X41500000Y58900000D03*
X42700000Y58900000D03*
X43900000Y58900000D03*
X45100000Y58900000D03*
X46300000Y58900000D03*
X47500000Y58900000D03*
X41500000Y57700000D03*
X42700000Y57700000D03*
X43900000Y57700000D03*
X45100000Y57700000D03*
X46300000Y57700000D03*
X47500000Y57700000D03*
X41500000Y56500000D03*
X42700000Y56500000D03*
X43900000Y56500000D03*
X45100000Y56500000D03*
X46300000Y56500000D03*
X47500000Y56500000D03*
%TO.N,+12V*%
X23600000Y29200000D03*
X28200000Y14400000D03*
X23800000Y12200000D03*
X14020000Y42770000D03*
X72000000Y33440990D03*
X26599989Y29200011D03*
X14020000Y43480000D03*
X59000000Y53000000D03*
X58250000Y53000000D03*
X72000000Y32600000D03*
%TO.N,GNDPWR*%
X20250000Y28500000D03*
X21000000Y28500000D03*
X21750000Y28500000D03*
X50250000Y64000000D03*
X50250000Y59000000D03*
X50250000Y56500000D03*
X51250000Y64000000D03*
X51250000Y61500000D03*
X51250000Y59000000D03*
X51250000Y56500000D03*
X51250000Y53750000D03*
X50250000Y61500000D03*
X50250000Y53750000D03*
%TO.N,/RELOUT4*%
X10750000Y15000000D03*
X13750000Y15000000D03*
%TO.N,/RELOUT3*%
X14250000Y16250000D03*
X5624984Y16750000D03*
%TO.N,/ISense1*%
X36500000Y62000000D03*
X27750000Y68500000D03*
X17250000Y69500000D03*
X28250000Y62000000D03*
%TO.N,Net-(Q1-Pad3)*%
X45750000Y53000000D03*
X27750000Y56750000D03*
X39800000Y35400000D03*
X27355490Y41000000D03*
%TO.N,Net-(Q2-Pad3)*%
X25750000Y42500000D03*
X41000000Y35250002D03*
X27555490Y23151490D03*
X40750002Y16250000D03*
%TO.N,/AC_Mot*%
X31750000Y20250000D03*
X26200000Y58000000D03*
X26000000Y24250000D03*
X29880004Y24250000D03*
X31750000Y32750000D03*
X32950000Y32750000D03*
X34150000Y32750000D03*
X35350000Y32750000D03*
X36550000Y32750000D03*
X37750000Y32750000D03*
X31750000Y31550000D03*
X32950000Y31550000D03*
X34150000Y31550000D03*
X35350000Y31550000D03*
X36550000Y31550000D03*
X37750000Y31550000D03*
X31750000Y30350000D03*
X32950000Y30350000D03*
X34150000Y30350000D03*
X35350000Y30350000D03*
X36550000Y30350000D03*
X37750000Y30350000D03*
X31750000Y29150000D03*
X32950000Y29150000D03*
X34150000Y29150000D03*
X35350000Y29150000D03*
X36550000Y29150000D03*
X37750000Y29150000D03*
X31750000Y27950000D03*
X32950000Y27950000D03*
X34150000Y27950000D03*
X35350000Y27950000D03*
X36550000Y27950000D03*
X37750000Y27950000D03*
X31750000Y26750000D03*
X32950000Y26750000D03*
X34150000Y26750000D03*
X35350000Y26750000D03*
X36550000Y26750000D03*
X37750000Y26750000D03*
X32950000Y20250000D03*
X34150000Y20250000D03*
X35350000Y20250000D03*
X36550000Y20250000D03*
X37750000Y20250000D03*
X31750000Y19050000D03*
X32950000Y19050000D03*
X34150000Y19050000D03*
X35350000Y19050000D03*
X36550000Y19050000D03*
X37750000Y19050000D03*
X31750000Y17850000D03*
X32950000Y17850000D03*
X34150000Y17850000D03*
X35350000Y17850000D03*
X36550000Y17850000D03*
X37750000Y17850000D03*
X31750000Y16650000D03*
X32950000Y16650000D03*
X34150000Y16650000D03*
X35350000Y16650000D03*
X36550000Y16650000D03*
X37750000Y16650000D03*
X31750000Y15450000D03*
X32950000Y15450000D03*
X34150000Y15450000D03*
X35350000Y15450000D03*
X36550000Y15450000D03*
X37750000Y15450000D03*
X31750000Y14250000D03*
X32950000Y14250000D03*
X34150000Y14250000D03*
X35350000Y14250000D03*
X36550000Y14250000D03*
X37750000Y14250000D03*
X29000000Y58000000D03*
%TO.N,Net-(Q3-Pad3)*%
X38000000Y11500000D03*
X27920047Y12500000D03*
%TO.N,Net-(R20-Pad2)*%
X38250000Y66250000D03*
X40200000Y66000000D03*
%TO.N,Net-(K1-Pad8)*%
X28200000Y43600000D03*
%TO.N,Net-(K2-Pad8)*%
X27902841Y38097159D03*
%TO.N,Net-(K3-Pad8)*%
X28000000Y36600000D03*
X75000000Y33094510D03*
X75000000Y32000000D03*
%TO.N,Net-(K4-Pad8)*%
X28500000Y28750000D03*
%TD*%
D30*
%TO.N,GNDS*%
X35595000Y66595000D02*
X35500000Y66500000D01*
X35595000Y67525000D02*
X35595000Y66595000D01*
X39190000Y59300000D02*
X39190000Y60190002D01*
X39190000Y60190002D02*
X39250000Y60250002D01*
D31*
X6500000Y29500000D02*
X6600000Y29400000D01*
X6500000Y30230000D02*
X6500000Y29500000D01*
X5030000Y40230000D02*
X5000000Y40200000D01*
X6500000Y40230000D02*
X5030000Y40230000D01*
X14650000Y48750000D02*
X14600000Y48800000D01*
X16235000Y48750000D02*
X14650000Y48750000D01*
X16235000Y19500000D02*
X14700016Y19500000D01*
X14700016Y19500000D02*
X14700008Y19500008D01*
X11490000Y68600000D02*
X12600000Y68600000D01*
D30*
X36981010Y64700000D02*
X36500000Y64218990D01*
X37410000Y64700000D02*
X36981010Y64700000D01*
D31*
X14381016Y64500000D02*
X14100006Y64218990D01*
X15635000Y64500000D02*
X14381016Y64500000D01*
X19250000Y9730000D02*
X18435686Y9729999D01*
X18435686Y9729999D02*
X17870001Y9729999D01*
X19250000Y3730000D02*
X17870000Y3730000D01*
X17870000Y3730000D02*
X17869995Y3730005D01*
D32*
X3975000Y53774996D02*
X4000000Y53749996D01*
X3975000Y54920000D02*
X3975000Y53774996D01*
X4000000Y53749996D02*
X4000000Y53000004D01*
X4000000Y53000004D02*
X4000004Y53000000D01*
X3975000Y9920000D02*
X3975000Y9025000D01*
X3975000Y9025000D02*
X4000000Y9000000D01*
X3975000Y8275000D02*
X4000000Y8250000D01*
X3975000Y9920000D02*
X3975000Y8275000D01*
D30*
%TO.N,Net-(C1-Pad1)*%
X37410000Y59300000D02*
X35500000Y61210000D01*
X36865000Y66550000D02*
X36865000Y67525000D01*
X35500000Y65185000D02*
X36865000Y66550000D01*
X35500000Y61210000D02*
X35500000Y65185000D01*
%TO.N,+5V*%
X39190000Y67310000D02*
X39405000Y67525000D01*
X39190000Y64700000D02*
X39190000Y67310000D01*
D31*
X11280000Y65080000D02*
X11400000Y65200000D01*
X9025000Y65080000D02*
X11280000Y65080000D01*
D33*
X39200000Y64690000D02*
X39190000Y64700000D01*
X39200000Y63600000D02*
X39200000Y64690000D01*
D34*
%TO.N,/MOT1CW*%
X93920000Y32080000D02*
X90000000Y36000000D01*
X97000000Y32080000D02*
X97000000Y32080000D01*
X90000000Y36000000D02*
X83000000Y36000000D01*
X97000000Y32080000D02*
X93920000Y32080000D01*
%TO.N,/MOT1CCW*%
X97000000Y40250000D02*
X97000000Y38000000D01*
X91250000Y46000000D02*
X97000000Y40250000D01*
X83000000Y46000000D02*
X91250000Y46000000D01*
%TO.N,/MOT2CW*%
X82500000Y3000000D02*
X90000000Y3000000D01*
%TO.N,/MOT2CCW*%
X93160000Y16160000D02*
X90000000Y13000000D01*
X97000000Y16160000D02*
X93160000Y16160000D01*
X90000000Y13000000D02*
X82500000Y13000000D01*
D32*
%TO.N,/AC_in*%
X27000000Y70990000D02*
X26990000Y71000000D01*
X27000000Y69750000D02*
X27000000Y70990000D01*
D30*
%TO.N,+12V*%
X10750000Y34520000D02*
X12500000Y32770000D01*
X10750000Y41500000D02*
X10750000Y34520000D01*
X12020000Y42770000D02*
X10750000Y41500000D01*
X12500000Y42770000D02*
X12020000Y42770000D01*
X25250000Y12270000D02*
X23870000Y12270000D01*
X23870000Y12270000D02*
X23200000Y11600000D01*
X23200000Y11600000D02*
X23200000Y7000000D01*
X23930000Y6270000D02*
X25250000Y6270000D01*
X23200000Y7000000D02*
X23930000Y6270000D01*
D32*
X67500000Y60058000D02*
X67500000Y61000000D01*
X61362000Y53920000D02*
X67500000Y60058000D01*
X59025000Y53920000D02*
X61362000Y53920000D01*
X23600000Y38917303D02*
X23600000Y29200000D01*
X19747303Y42770000D02*
X23600000Y38917303D01*
X14020000Y42770000D02*
X19747303Y42770000D01*
X67500000Y28000000D02*
X72000000Y32500000D01*
D30*
X28200000Y14400000D02*
X28599999Y14799999D01*
X28599999Y14799999D02*
X28599999Y27200001D01*
X28599999Y27200001D02*
X26599989Y29200011D01*
D32*
X26600000Y29200022D02*
X26599989Y29200011D01*
X26600000Y30000000D02*
X26600000Y29200022D01*
X12500000Y42770000D02*
X14020000Y42770000D01*
X14020000Y42770000D02*
X14020000Y43480000D01*
D30*
X58250000Y53000000D02*
X58250000Y53500000D01*
D32*
X58250000Y53000000D02*
X59000000Y53000000D01*
X59000000Y53895000D02*
X59025000Y53920000D01*
X59000000Y53000000D02*
X59000000Y53895000D01*
X58250000Y53145000D02*
X59025000Y53920000D01*
X58250000Y53000000D02*
X58250000Y53145000D01*
X58250000Y53000000D02*
X58250000Y53750000D01*
X80250000Y58750000D02*
X82500000Y61000000D01*
X69750000Y58750000D02*
X80250000Y58750000D01*
X67500000Y61000000D02*
X69750000Y58750000D01*
X72000000Y33440990D02*
X72000000Y32600000D01*
X72000000Y32500000D02*
X72000000Y32600000D01*
D30*
%TO.N,GNDPWR*%
X20250000Y32750000D02*
X20250000Y31500000D01*
X20250000Y34000000D02*
X20250000Y32750000D01*
X21000000Y28500000D02*
X21750000Y28500000D01*
D32*
X20250000Y28500000D02*
X21750000Y28500000D01*
D31*
X20365000Y34115000D02*
X20250000Y34000000D01*
X21400000Y34115000D02*
X20365000Y34115000D01*
X20345000Y32845000D02*
X20250000Y32750000D01*
X21400000Y32845000D02*
X20345000Y32845000D01*
X20325000Y31575000D02*
X20250000Y31500000D01*
X21400000Y31575000D02*
X20325000Y31575000D01*
X21400000Y30305000D02*
X20305000Y30305000D01*
X20250000Y30250000D02*
X20250000Y34000000D01*
X20305000Y30305000D02*
X20250000Y30250000D01*
X20250000Y28500000D02*
X20250000Y30250000D01*
D32*
X53975000Y64080000D02*
X53975000Y53920000D01*
D30*
%TO.N,/SPWM2*%
X9025000Y9920000D02*
X10981000Y9920000D01*
X12905499Y11844499D02*
X12905499Y23295499D01*
X12905499Y23295499D02*
X14610000Y25000000D01*
X10981000Y9920000D02*
X12905499Y11844499D01*
%TO.N,/SPWM1*%
X12000000Y15000000D02*
X10750000Y13750000D01*
X12000000Y27250000D02*
X12000000Y15000000D01*
X9750000Y29500000D02*
X12000000Y27250000D01*
X9750000Y42148041D02*
X9750000Y29500000D01*
X13000000Y45398041D02*
X9750000Y42148041D01*
X13000000Y49360000D02*
X13000000Y45398041D01*
X5860000Y12460000D02*
X7150000Y13750000D01*
X3975000Y12460000D02*
X5860000Y12460000D01*
X10750000Y13750000D02*
X7150000Y13750000D01*
%TO.N,/RELOUT4*%
X9025000Y15000000D02*
X10750000Y15000000D01*
X15914898Y4610000D02*
X16250000Y4610000D01*
X13750000Y6774898D02*
X15914898Y4610000D01*
X13750000Y15000000D02*
X13750000Y6774898D01*
%TO.N,/RELOUT5*%
X2019000Y15000000D02*
X1500000Y15519000D01*
X3975000Y15000000D02*
X2019000Y15000000D01*
X14824898Y56220000D02*
X16500000Y56220000D01*
X1500000Y42895102D02*
X14824898Y56220000D01*
X1500000Y15519000D02*
X1500000Y42895102D01*
%TO.N,/RELOUT2*%
X4500000Y33890000D02*
X6610000Y36000000D01*
X4500000Y23750000D02*
X4500000Y33890000D01*
X6500000Y21750000D02*
X4500000Y23750000D01*
X6500000Y18109000D02*
X6500000Y21750000D01*
X7069000Y17540000D02*
X6500000Y18109000D01*
X9025000Y17540000D02*
X7069000Y17540000D01*
%TO.N,/RELOUT3*%
X14250000Y16250000D02*
X14649999Y15850001D01*
X14649999Y15850001D02*
X14649999Y11094001D01*
X14649999Y11094001D02*
X15134000Y10610000D01*
X15134000Y10610000D02*
X16250000Y10610000D01*
X3975000Y17540000D02*
X4834984Y17540000D01*
X4834984Y17540000D02*
X5624984Y16750000D01*
%TO.N,/RELOUT1*%
X3614990Y42894990D02*
X3614990Y20440010D01*
X6720000Y46000000D02*
X3614990Y42894990D01*
X3614990Y20440010D02*
X3975000Y20080000D01*
%TO.N,/ISense1*%
X27209501Y63040499D02*
X28250000Y62000000D01*
X27209501Y67959501D02*
X27209501Y63040499D01*
X27750000Y68500000D02*
X27209501Y67959501D01*
X3975000Y65080000D02*
X5580000Y65080000D01*
X37500000Y62000000D02*
X36500000Y62000000D01*
X6190000Y65080000D02*
X9710000Y68600000D01*
X3975000Y65080000D02*
X6190000Y65080000D01*
X9710000Y69716000D02*
X10194000Y70200000D01*
X9710000Y68600000D02*
X9710000Y69716000D01*
X16550000Y70200000D02*
X17250000Y69500000D01*
X10194000Y70200000D02*
X16550000Y70200000D01*
%TO.N,Net-(Q1-Pad3)*%
X45775000Y53025000D02*
X45750000Y53000000D01*
X46805000Y53025000D02*
X45775000Y53025000D01*
X40250000Y35850000D02*
X39800000Y35400000D01*
X40250000Y37970000D02*
X40250000Y35850000D01*
X25765000Y61960000D02*
X27750000Y59975000D01*
X27750000Y59975000D02*
X27750000Y56750000D01*
X27750000Y44399864D02*
X27355490Y44005354D01*
X27750000Y56750000D02*
X27750000Y44399864D01*
X27355490Y44005354D02*
X27355490Y41000000D01*
%TO.N,Net-(Q2-Pad3)*%
X25750000Y46195000D02*
X25765000Y46210000D01*
X25750000Y42500000D02*
X25750000Y46195000D01*
X40950000Y32030000D02*
X40950000Y35200002D01*
X40950000Y35200002D02*
X41000000Y35250002D01*
X25750000Y42500000D02*
X24425511Y41175511D01*
X24425511Y41175511D02*
X24425511Y30124627D01*
X24425511Y30124627D02*
X27555490Y26994648D01*
X27555490Y26994648D02*
X27555490Y23151490D01*
X42500000Y16270000D02*
X40770002Y16270000D01*
X40770002Y16270000D02*
X40750002Y16250000D01*
%TO.N,/AC_Mot*%
X26190000Y57990000D02*
X26200000Y58000000D01*
X26190000Y54650000D02*
X26190000Y57990000D01*
X25990000Y24260000D02*
X26000000Y24250000D01*
X25990000Y26000000D02*
X25990000Y24260000D01*
D32*
X29000000Y58000000D02*
X30200000Y58000000D01*
X38510000Y13490000D02*
X37750000Y14250000D01*
X40750000Y13490000D02*
X38510000Y13490000D01*
X39260000Y13490000D02*
X38500000Y14250000D01*
X40750000Y13490000D02*
X39260000Y13490000D01*
D30*
%TO.N,Net-(Q3-Pad3)*%
X37230000Y11500000D02*
X36780000Y11050000D01*
X38000000Y11500000D02*
X37230000Y11500000D01*
X25765000Y16960000D02*
X25765000Y14986206D01*
X27920047Y12831159D02*
X27920047Y12500000D01*
X25765000Y14986206D02*
X27920047Y12831159D01*
%TO.N,Net-(R1-Pad1)*%
X16085000Y51140000D02*
X16235000Y51290000D01*
X13000000Y51140000D02*
X16085000Y51140000D01*
%TO.N,Net-(R2-Pad2)*%
X8500000Y44770000D02*
X8500000Y46000000D01*
X6500000Y42770000D02*
X8500000Y44770000D01*
%TO.N,Net-(R3-Pad2)*%
X6500000Y32770000D02*
X7270000Y32770000D01*
X8390000Y33890000D02*
X8390000Y36000000D01*
X7270000Y32770000D02*
X8390000Y33890000D01*
%TO.N,Net-(R4-Pad2)*%
X16235000Y24845000D02*
X16390000Y25000000D01*
X16235000Y22040000D02*
X16235000Y24845000D01*
%TO.N,Net-(R5-Pad2)*%
X19130000Y12390000D02*
X19250000Y12270000D01*
X16250000Y12390000D02*
X19130000Y12390000D01*
%TO.N,Net-(R6-Pad2)*%
X19130000Y6390000D02*
X19250000Y6270000D01*
X16250000Y6390000D02*
X19130000Y6390000D01*
%TO.N,Net-(R7-Pad2)*%
X16500000Y58000000D02*
X17800000Y58000000D01*
X17800000Y58000000D02*
X18600000Y58800000D01*
X18600000Y58800000D02*
X18600000Y65600000D01*
X17160000Y67040000D02*
X15635000Y67040000D01*
X18600000Y65600000D02*
X17160000Y67040000D01*
%TO.N,Net-(R10-Pad2)*%
X19695000Y39195000D02*
X18390000Y40500000D01*
X21400000Y39195000D02*
X19695000Y39195000D01*
%TO.N,Net-(R10-Pad1)*%
X12500000Y40230000D02*
X16730000Y40230000D01*
%TO.N,Net-(R11-Pad2)*%
X19815000Y37925000D02*
X21400000Y37925000D01*
X18390000Y36500000D02*
X19815000Y37925000D01*
%TO.N,Net-(R11-Pad1)*%
X12500000Y30230000D02*
X13980000Y30230000D01*
X13980000Y30230000D02*
X14750000Y31000000D01*
X14750000Y34640000D02*
X16610000Y36500000D01*
X14750000Y31000000D02*
X14750000Y34640000D01*
%TO.N,Net-(R12-Pad2)*%
X20800000Y36655000D02*
X21400000Y36655000D01*
X18390000Y34245000D02*
X20800000Y36655000D01*
X18390000Y32000000D02*
X18390000Y34245000D01*
D33*
%TO.N,Net-(R12-Pad1)*%
X17190802Y26200000D02*
X23600000Y19790802D01*
X16610000Y32000000D02*
X15400000Y30790000D01*
X26631009Y11111009D02*
X25250000Y9730000D01*
X26631009Y12593505D02*
X26631009Y11111009D01*
X15400000Y30790000D02*
X15400000Y27209198D01*
X23600000Y19790802D02*
X23600000Y15624514D01*
X16409198Y26200000D02*
X17190802Y26200000D01*
X15400000Y27209198D02*
X16409198Y26200000D01*
X23600000Y15624514D02*
X26631009Y12593505D01*
D30*
%TO.N,Net-(R14-Pad2)*%
X18390000Y28000000D02*
X19551489Y29161489D01*
X19551489Y29161489D02*
X19551489Y34289332D01*
X19551489Y34289332D02*
X20647157Y35385000D01*
X20647157Y35385000D02*
X21400000Y35385000D01*
D33*
%TO.N,Net-(R14-Pad1)*%
X25250000Y3730000D02*
X27139021Y5619021D01*
X24108011Y15834939D02*
X24108011Y20346989D01*
X24108011Y20346989D02*
X16610000Y27845000D01*
X27139021Y12803929D02*
X24108011Y15834939D01*
X16610000Y27845000D02*
X16610000Y28000000D01*
X27139021Y5619021D02*
X27139021Y12803929D01*
D30*
%TO.N,Net-(R17-Pad1)*%
X24010000Y68795000D02*
X25765000Y67040000D01*
X24010000Y71000000D02*
X24010000Y68795000D01*
%TO.N,Net-(R18-Pad1)*%
X23010000Y24795000D02*
X25765000Y22040000D01*
X23010000Y26000000D02*
X23010000Y24795000D01*
%TO.N,Net-(R19-Pad1)*%
X23210000Y53845000D02*
X25765000Y51290000D01*
X23210000Y54650000D02*
X23210000Y53845000D01*
%TO.N,Net-(R20-Pad2)*%
X38135000Y66365000D02*
X38250000Y66250000D01*
X38135000Y67525000D02*
X38135000Y66365000D01*
X40599999Y65600001D02*
X40200000Y66000000D01*
X40599999Y63319999D02*
X40599999Y65600001D01*
X39280000Y62000000D02*
X40599999Y63319999D01*
D34*
%TO.N,/AC_MOT1_SW*%
X81393411Y41000000D02*
X89500000Y41000000D01*
X76393411Y36000000D02*
X81393411Y41000000D01*
X68000000Y36000000D02*
X76393411Y36000000D01*
%TO.N,/AC_MOT2_SW*%
X81393412Y8000000D02*
X89250000Y8000000D01*
X76393412Y3000000D02*
X81393412Y8000000D01*
X68000000Y3000000D02*
X76393412Y3000000D01*
%TO.N,/AC_MOT2*%
X67500000Y8000000D02*
X75000000Y8000000D01*
D32*
X47500000Y10750000D02*
X47500000Y7250000D01*
D30*
%TO.N,Net-(K1-Pad8)*%
X26600000Y39195000D02*
X27795000Y39195000D01*
X27795000Y39195000D02*
X28200000Y39600000D01*
X28200000Y39600000D02*
X28200000Y43600000D01*
%TO.N,Net-(K2-Pad8)*%
X26600000Y37925000D02*
X27730682Y37925000D01*
X27730682Y37925000D02*
X27902841Y38097159D01*
%TO.N,Net-(K3-Pad8)*%
X27945000Y36655000D02*
X28000000Y36600000D01*
X26600000Y36655000D02*
X27945000Y36655000D01*
X75000000Y28000000D02*
X75000000Y33094510D01*
%TO.N,Net-(K4-Pad8)*%
X27881000Y35385000D02*
X28500000Y34766000D01*
X28500000Y34766000D02*
X28500000Y28750000D01*
X26600000Y35385000D02*
X27881000Y35385000D01*
D32*
%TO.N,Net-(C4-Pad1)*%
X38275000Y52275000D02*
X38500000Y52500000D01*
X38275000Y49250000D02*
X38275000Y52275000D01*
%TO.N,Net-(C5-Pad1)*%
X38125000Y24000000D02*
X38675000Y24550000D01*
X36140000Y24000000D02*
X38125000Y24000000D01*
%TO.N,Net-(C6-Pad1)*%
X40750000Y10510000D02*
X43010001Y10510000D01*
X44310000Y10510000D02*
X44550000Y10750000D01*
X40750000Y10510000D02*
X44310000Y10510000D01*
%TD*%
D33*
%TO.N,/AC_in*%
X70348382Y73859316D02*
X70437851Y73822384D01*
X70514758Y73763617D01*
X70573898Y73686993D01*
X70611262Y73597708D01*
X70625450Y73493510D01*
X70650546Y68310153D01*
X70637201Y68205196D01*
X70600262Y68115091D01*
X70541197Y68037665D01*
X70464061Y67978228D01*
X70374137Y67940853D01*
X70269239Y67927000D01*
X48515317Y67927000D01*
X48498838Y67925926D01*
X48370183Y67909090D01*
X48338337Y67900611D01*
X48218346Y67851239D01*
X48189752Y67834848D01*
X48086506Y67756262D01*
X48063094Y67733069D01*
X47983544Y67630564D01*
X47966887Y67602125D01*
X47916392Y67482602D01*
X47907614Y67450836D01*
X47889573Y67322345D01*
X47888345Y67305877D01*
X47777727Y55504777D01*
X47763147Y55400938D01*
X47725587Y55312033D01*
X47666413Y55235784D01*
X47589620Y55177332D01*
X47500360Y55140605D01*
X47396393Y55127000D01*
X39750000Y55127000D01*
X39733423Y55125914D01*
X39604013Y55108877D01*
X39571989Y55100296D01*
X39451399Y55050346D01*
X39422687Y55033768D01*
X39319134Y54954308D01*
X39295692Y54930866D01*
X39216232Y54827313D01*
X39199654Y54798601D01*
X39149704Y54678011D01*
X39141123Y54645987D01*
X39124086Y54516577D01*
X39123000Y54500000D01*
X39123000Y53852389D01*
X39120432Y53832883D01*
X39115000Y53750000D01*
X39115000Y53663354D01*
X39024482Y53690812D01*
X38900000Y53703072D01*
X37100000Y53703072D01*
X36975518Y53690812D01*
X36855820Y53654502D01*
X36745506Y53595537D01*
X36648815Y53516185D01*
X36569463Y53419494D01*
X36510498Y53309180D01*
X36474188Y53189482D01*
X36461928Y53065000D01*
X36461928Y51935000D01*
X36474188Y51810518D01*
X36510498Y51690820D01*
X36569463Y51580506D01*
X36648815Y51483815D01*
X36745506Y51404463D01*
X36855820Y51345498D01*
X36975518Y51309188D01*
X37100000Y51296928D01*
X37259001Y51296928D01*
X37259001Y51073647D01*
X37243815Y51061185D01*
X37164463Y50964494D01*
X37105498Y50854180D01*
X37069188Y50734482D01*
X37056928Y50610000D01*
X37056928Y47890000D01*
X37069188Y47765518D01*
X37105498Y47645820D01*
X37164463Y47535506D01*
X37243815Y47438815D01*
X37340506Y47359463D01*
X37450820Y47300498D01*
X37570518Y47264188D01*
X37695000Y47251928D01*
X38855000Y47251928D01*
X38979482Y47264188D01*
X39099180Y47300498D01*
X39115000Y47308954D01*
X39115000Y45588072D01*
X38050000Y45588072D01*
X37925518Y45575812D01*
X37805820Y45539502D01*
X37695506Y45480537D01*
X37598815Y45401185D01*
X37519463Y45304494D01*
X37460498Y45194180D01*
X37424188Y45074482D01*
X37411928Y44950000D01*
X37411928Y42750000D01*
X37424188Y42625518D01*
X37460498Y42505820D01*
X37519463Y42395506D01*
X37598815Y42298815D01*
X37695506Y42219463D01*
X37805820Y42160498D01*
X37925518Y42124188D01*
X38050000Y42111928D01*
X39262855Y42111928D01*
X39295692Y42069134D01*
X39319134Y42045692D01*
X39422687Y41966232D01*
X39451399Y41949654D01*
X39571989Y41899704D01*
X39604013Y41891123D01*
X39733423Y41874086D01*
X39750000Y41873000D01*
X42415631Y41873000D01*
X42432230Y39877000D01*
X34758328Y39877000D01*
X34653743Y39890769D01*
X34564045Y39927923D01*
X34487024Y39987024D01*
X34427923Y40064045D01*
X34390769Y40153743D01*
X34385000Y40197563D01*
X34385000Y57552437D01*
X34390769Y57596257D01*
X34427923Y57685955D01*
X34487024Y57762976D01*
X34564045Y57822077D01*
X34653743Y57859231D01*
X34758328Y57873000D01*
X40626105Y57873000D01*
X40642604Y57874076D01*
X40771413Y57890953D01*
X40803295Y57899454D01*
X40923409Y57948944D01*
X40952027Y57965371D01*
X41055336Y58044134D01*
X41078755Y58067379D01*
X41158287Y58170098D01*
X41174928Y58198593D01*
X41225313Y58318334D01*
X41234051Y58350152D01*
X41251889Y58478831D01*
X41253088Y58495321D01*
X41285617Y62854183D01*
X41289697Y62859155D01*
X41299597Y62877677D01*
X41366352Y63002565D01*
X41413555Y63158173D01*
X41425499Y63279446D01*
X41425499Y63279458D01*
X41429492Y63319998D01*
X41425499Y63360538D01*
X41425499Y65559451D01*
X41429493Y65600002D01*
X41422549Y65670506D01*
X41413555Y65761827D01*
X41366352Y65917435D01*
X41309273Y66024220D01*
X41326982Y68397186D01*
X41326985Y68397658D01*
X41326999Y68401390D01*
X41327000Y68401866D01*
X41327000Y68800000D01*
X41325436Y68819867D01*
X41305859Y68943474D01*
X41299573Y68967563D01*
X41293581Y68981264D01*
X41236765Y69092771D01*
X41223342Y69113739D01*
X41213410Y69124917D01*
X41124917Y69213410D01*
X41105671Y69229204D01*
X41092771Y69236765D01*
X40981264Y69293581D01*
X40958080Y69302655D01*
X40943474Y69305859D01*
X40819867Y69325436D01*
X40800000Y69327000D01*
X38308328Y69327000D01*
X38203743Y69340769D01*
X38114045Y69377923D01*
X38037024Y69437024D01*
X37977923Y69514045D01*
X37940769Y69603743D01*
X37927000Y69708328D01*
X37927000Y73491672D01*
X37940769Y73596257D01*
X37977923Y73685955D01*
X38037024Y73762976D01*
X38114045Y73822077D01*
X38203743Y73859231D01*
X38308328Y73873000D01*
X70244118Y73873000D01*
X70348382Y73859316D01*
%TA.AperFunction,Conductor*%
D35*
G36*
X70348382Y73859316D02*
G01*
X70437851Y73822384D01*
X70514758Y73763617D01*
X70573898Y73686993D01*
X70611262Y73597708D01*
X70625450Y73493510D01*
X70650546Y68310153D01*
X70637201Y68205196D01*
X70600262Y68115091D01*
X70541197Y68037665D01*
X70464061Y67978228D01*
X70374137Y67940853D01*
X70269239Y67927000D01*
X48515317Y67927000D01*
X48498838Y67925926D01*
X48370183Y67909090D01*
X48338337Y67900611D01*
X48218346Y67851239D01*
X48189752Y67834848D01*
X48086506Y67756262D01*
X48063094Y67733069D01*
X47983544Y67630564D01*
X47966887Y67602125D01*
X47916392Y67482602D01*
X47907614Y67450836D01*
X47889573Y67322345D01*
X47888345Y67305877D01*
X47777727Y55504777D01*
X47763147Y55400938D01*
X47725587Y55312033D01*
X47666413Y55235784D01*
X47589620Y55177332D01*
X47500360Y55140605D01*
X47396393Y55127000D01*
X39750000Y55127000D01*
X39733423Y55125914D01*
X39604013Y55108877D01*
X39571989Y55100296D01*
X39451399Y55050346D01*
X39422687Y55033768D01*
X39319134Y54954308D01*
X39295692Y54930866D01*
X39216232Y54827313D01*
X39199654Y54798601D01*
X39149704Y54678011D01*
X39141123Y54645987D01*
X39124086Y54516577D01*
X39123000Y54500000D01*
X39123000Y53852389D01*
X39120432Y53832883D01*
X39115000Y53750000D01*
X39115000Y53663354D01*
X39024482Y53690812D01*
X38900000Y53703072D01*
X37100000Y53703072D01*
X36975518Y53690812D01*
X36855820Y53654502D01*
X36745506Y53595537D01*
X36648815Y53516185D01*
X36569463Y53419494D01*
X36510498Y53309180D01*
X36474188Y53189482D01*
X36461928Y53065000D01*
X36461928Y51935000D01*
X36474188Y51810518D01*
X36510498Y51690820D01*
X36569463Y51580506D01*
X36648815Y51483815D01*
X36745506Y51404463D01*
X36855820Y51345498D01*
X36975518Y51309188D01*
X37100000Y51296928D01*
X37259001Y51296928D01*
X37259001Y51073647D01*
X37243815Y51061185D01*
X37164463Y50964494D01*
X37105498Y50854180D01*
X37069188Y50734482D01*
X37056928Y50610000D01*
X37056928Y47890000D01*
X37069188Y47765518D01*
X37105498Y47645820D01*
X37164463Y47535506D01*
X37243815Y47438815D01*
X37340506Y47359463D01*
X37450820Y47300498D01*
X37570518Y47264188D01*
X37695000Y47251928D01*
X38855000Y47251928D01*
X38979482Y47264188D01*
X39099180Y47300498D01*
X39115000Y47308954D01*
X39115000Y45588072D01*
X38050000Y45588072D01*
X37925518Y45575812D01*
X37805820Y45539502D01*
X37695506Y45480537D01*
X37598815Y45401185D01*
X37519463Y45304494D01*
X37460498Y45194180D01*
X37424188Y45074482D01*
X37411928Y44950000D01*
X37411928Y42750000D01*
X37424188Y42625518D01*
X37460498Y42505820D01*
X37519463Y42395506D01*
X37598815Y42298815D01*
X37695506Y42219463D01*
X37805820Y42160498D01*
X37925518Y42124188D01*
X38050000Y42111928D01*
X39262855Y42111928D01*
X39295692Y42069134D01*
X39319134Y42045692D01*
X39422687Y41966232D01*
X39451399Y41949654D01*
X39571989Y41899704D01*
X39604013Y41891123D01*
X39733423Y41874086D01*
X39750000Y41873000D01*
X42415631Y41873000D01*
X42432230Y39877000D01*
X34758328Y39877000D01*
X34653743Y39890769D01*
X34564045Y39927923D01*
X34487024Y39987024D01*
X34427923Y40064045D01*
X34390769Y40153743D01*
X34385000Y40197563D01*
X34385000Y57552437D01*
X34390769Y57596257D01*
X34427923Y57685955D01*
X34487024Y57762976D01*
X34564045Y57822077D01*
X34653743Y57859231D01*
X34758328Y57873000D01*
X40626105Y57873000D01*
X40642604Y57874076D01*
X40771413Y57890953D01*
X40803295Y57899454D01*
X40923409Y57948944D01*
X40952027Y57965371D01*
X41055336Y58044134D01*
X41078755Y58067379D01*
X41158287Y58170098D01*
X41174928Y58198593D01*
X41225313Y58318334D01*
X41234051Y58350152D01*
X41251889Y58478831D01*
X41253088Y58495321D01*
X41285617Y62854183D01*
X41289697Y62859155D01*
X41299597Y62877677D01*
X41366352Y63002565D01*
X41413555Y63158173D01*
X41425499Y63279446D01*
X41425499Y63279458D01*
X41429492Y63319998D01*
X41425499Y63360538D01*
X41425499Y65559451D01*
X41429493Y65600002D01*
X41422549Y65670506D01*
X41413555Y65761827D01*
X41366352Y65917435D01*
X41309273Y66024220D01*
X41326982Y68397186D01*
X41326985Y68397658D01*
X41326999Y68401390D01*
X41327000Y68401866D01*
X41327000Y68800000D01*
X41325436Y68819867D01*
X41305859Y68943474D01*
X41299573Y68967563D01*
X41293581Y68981264D01*
X41236765Y69092771D01*
X41223342Y69113739D01*
X41213410Y69124917D01*
X41124917Y69213410D01*
X41105671Y69229204D01*
X41092771Y69236765D01*
X40981264Y69293581D01*
X40958080Y69302655D01*
X40943474Y69305859D01*
X40819867Y69325436D01*
X40800000Y69327000D01*
X38308328Y69327000D01*
X38203743Y69340769D01*
X38114045Y69377923D01*
X38037024Y69437024D01*
X37977923Y69514045D01*
X37940769Y69603743D01*
X37927000Y69708328D01*
X37927000Y73491672D01*
X37940769Y73596257D01*
X37977923Y73685955D01*
X38037024Y73762976D01*
X38114045Y73822077D01*
X38203743Y73859231D01*
X38308328Y73873000D01*
X70244118Y73873000D01*
X70348382Y73859316D01*
G37*
%TD.AperFunction*%
%TD*%
D33*
%TO.N,VAC*%
X98596257Y73859231D02*
X98685955Y73822077D01*
X98762976Y73762976D01*
X98822077Y73685955D01*
X98859231Y73596257D01*
X98873000Y73491672D01*
X98873000Y66508328D01*
X98859231Y66403743D01*
X98822077Y66314045D01*
X98762976Y66237024D01*
X98685955Y66177923D01*
X98596257Y66140769D01*
X98491672Y66127000D01*
X89700000Y66127000D01*
X89683423Y66125914D01*
X89554013Y66108877D01*
X89521989Y66100296D01*
X89401399Y66050346D01*
X89372687Y66033768D01*
X89269134Y65954308D01*
X89245692Y65930866D01*
X89166232Y65827313D01*
X89149654Y65798601D01*
X89099704Y65678011D01*
X89091123Y65645987D01*
X89074086Y65516577D01*
X89073000Y65500000D01*
X89073000Y63308328D01*
X89059231Y63203743D01*
X89022077Y63114045D01*
X88962976Y63037024D01*
X88885955Y62977923D01*
X88796257Y62940769D01*
X88691672Y62927000D01*
X66300000Y62927000D01*
X66283423Y62925914D01*
X66154013Y62908877D01*
X66121989Y62900296D01*
X66001399Y62850346D01*
X65972687Y62833768D01*
X65869134Y62754308D01*
X65845692Y62730866D01*
X65766232Y62627313D01*
X65749654Y62598601D01*
X65699704Y62478011D01*
X65691123Y62445987D01*
X65674086Y62316577D01*
X65673000Y62300000D01*
X65673000Y61477244D01*
X65615000Y61185656D01*
X65615000Y60814344D01*
X65673000Y60522756D01*
X65673000Y59667841D01*
X63746402Y57741242D01*
X63490542Y57739110D01*
X63408142Y57733048D01*
X63279549Y57715118D01*
X63120573Y57671335D01*
X63000931Y57620899D01*
X62858591Y57537661D01*
X62755970Y57458122D01*
X62639858Y57341039D01*
X62561176Y57237758D01*
X62479127Y57094728D01*
X62429690Y56974670D01*
X62387233Y56815336D01*
X62370375Y56686597D01*
X62365000Y56604149D01*
X62365000Y56359840D01*
X61132293Y55127133D01*
X58008283Y55127493D01*
X57903707Y55141272D01*
X57814024Y55178429D01*
X57737008Y55237534D01*
X57677914Y55314554D01*
X57674638Y55322463D01*
X58739250Y55325000D01*
X58898000Y55483750D01*
X58898000Y56333000D01*
X59152000Y56333000D01*
X59152000Y55483750D01*
X59310750Y55325000D01*
X60600000Y55321928D01*
X60724482Y55334188D01*
X60844180Y55370498D01*
X60954494Y55429463D01*
X61051185Y55508815D01*
X61130537Y55605506D01*
X61189502Y55715820D01*
X61225812Y55835518D01*
X61238072Y55960000D01*
X61235000Y56174250D01*
X61076250Y56333000D01*
X59152000Y56333000D01*
X58898000Y56333000D01*
X58878000Y56333000D01*
X58878000Y56587000D01*
X58898000Y56587000D01*
X58898000Y57436250D01*
X59152000Y57436250D01*
X59152000Y56587000D01*
X61076250Y56587000D01*
X61235000Y56745750D01*
X61238072Y56960000D01*
X61225812Y57084482D01*
X61189502Y57204180D01*
X61130537Y57314494D01*
X61051185Y57411185D01*
X60954494Y57490537D01*
X60844180Y57549502D01*
X60724482Y57585812D01*
X60600000Y57598072D01*
X59310750Y57595000D01*
X59152000Y57436250D01*
X58898000Y57436250D01*
X58739250Y57595000D01*
X57627000Y57597650D01*
X57627000Y57862350D01*
X58739250Y57865000D01*
X58898000Y58023750D01*
X58898000Y58873000D01*
X59152000Y58873000D01*
X59152000Y58023750D01*
X59310750Y57865000D01*
X60600000Y57861928D01*
X60724482Y57874188D01*
X60844180Y57910498D01*
X60954494Y57969463D01*
X61051185Y58048815D01*
X61130537Y58145506D01*
X61189502Y58255820D01*
X61225812Y58375518D01*
X61238072Y58500000D01*
X61235000Y58714250D01*
X61076250Y58873000D01*
X59152000Y58873000D01*
X58898000Y58873000D01*
X58878000Y58873000D01*
X58878000Y59127000D01*
X58898000Y59127000D01*
X58898000Y59976250D01*
X59152000Y59976250D01*
X59152000Y59127000D01*
X61076250Y59127000D01*
X61235000Y59285750D01*
X61238072Y59500000D01*
X61225812Y59624482D01*
X61189502Y59744180D01*
X61130537Y59854494D01*
X61051185Y59951185D01*
X60954494Y60030537D01*
X60844180Y60089502D01*
X60724482Y60125812D01*
X60600000Y60138072D01*
X59310750Y60135000D01*
X59152000Y59976250D01*
X58898000Y59976250D01*
X58739250Y60135000D01*
X57627000Y60137650D01*
X57627000Y60402350D01*
X58739250Y60405000D01*
X58898000Y60563750D01*
X58898000Y61413000D01*
X59152000Y61413000D01*
X59152000Y60563750D01*
X59310750Y60405000D01*
X60600000Y60401928D01*
X60724482Y60414188D01*
X60844180Y60450498D01*
X60954494Y60509463D01*
X61051185Y60588815D01*
X61130537Y60685506D01*
X61189502Y60795820D01*
X61225812Y60915518D01*
X61238072Y61040000D01*
X61235000Y61254250D01*
X61076250Y61413000D01*
X59152000Y61413000D01*
X58898000Y61413000D01*
X58878000Y61413000D01*
X58878000Y61667000D01*
X58898000Y61667000D01*
X58898000Y62516250D01*
X59152000Y62516250D01*
X59152000Y61667000D01*
X61076250Y61667000D01*
X61235000Y61825750D01*
X61238072Y62040000D01*
X61225812Y62164482D01*
X61189502Y62284180D01*
X61130537Y62394494D01*
X61051185Y62491185D01*
X60954494Y62570537D01*
X60844180Y62629502D01*
X60724482Y62665812D01*
X60600000Y62678072D01*
X59310750Y62675000D01*
X59152000Y62516250D01*
X58898000Y62516250D01*
X58739250Y62675000D01*
X57627000Y62677650D01*
X57627000Y62942350D01*
X58739250Y62945000D01*
X58898000Y63103750D01*
X58898000Y63953000D01*
X59152000Y63953000D01*
X59152000Y63103750D01*
X59310750Y62945000D01*
X60600000Y62941928D01*
X60724482Y62954188D01*
X60844180Y62990498D01*
X60954494Y63049463D01*
X61051185Y63128815D01*
X61130537Y63225506D01*
X61189502Y63335820D01*
X61225812Y63455518D01*
X61238072Y63580000D01*
X61235000Y63794250D01*
X61076250Y63953000D01*
X59152000Y63953000D01*
X58898000Y63953000D01*
X58878000Y63953000D01*
X58878000Y64207000D01*
X58898000Y64207000D01*
X58898000Y65056250D01*
X59152000Y65056250D01*
X59152000Y64207000D01*
X61076250Y64207000D01*
X61235000Y64365750D01*
X61238072Y64580000D01*
X61225812Y64704482D01*
X61189502Y64824180D01*
X61130537Y64934494D01*
X61051185Y65031185D01*
X60954494Y65110537D01*
X60844180Y65169502D01*
X60724482Y65205812D01*
X60600000Y65218072D01*
X59310750Y65215000D01*
X59152000Y65056250D01*
X58898000Y65056250D01*
X58739250Y65215000D01*
X57627000Y65217650D01*
X57627000Y66491138D01*
X57640768Y66595721D01*
X57677919Y66685414D01*
X57737018Y66762436D01*
X57814042Y66821540D01*
X57903733Y66858695D01*
X58008310Y66872465D01*
X72900021Y66872983D01*
X72916597Y66874070D01*
X73046003Y66891110D01*
X73078027Y66899692D01*
X73198614Y66949645D01*
X73227324Y66966221D01*
X73330874Y67045680D01*
X73354317Y67069124D01*
X73433773Y67172677D01*
X73450349Y67201388D01*
X73500297Y67321976D01*
X73508878Y67354000D01*
X73525914Y67483407D01*
X73527000Y67499983D01*
X73527000Y73491672D01*
X73540769Y73596257D01*
X73577923Y73685955D01*
X73637024Y73762976D01*
X73714045Y73822077D01*
X73803743Y73859231D01*
X73908328Y73873000D01*
X98491672Y73873000D01*
X98596257Y73859231D01*
%TA.AperFunction,Conductor*%
D35*
G36*
X98596257Y73859231D02*
G01*
X98685955Y73822077D01*
X98762976Y73762976D01*
X98822077Y73685955D01*
X98859231Y73596257D01*
X98873000Y73491672D01*
X98873000Y66508328D01*
X98859231Y66403743D01*
X98822077Y66314045D01*
X98762976Y66237024D01*
X98685955Y66177923D01*
X98596257Y66140769D01*
X98491672Y66127000D01*
X89700000Y66127000D01*
X89683423Y66125914D01*
X89554013Y66108877D01*
X89521989Y66100296D01*
X89401399Y66050346D01*
X89372687Y66033768D01*
X89269134Y65954308D01*
X89245692Y65930866D01*
X89166232Y65827313D01*
X89149654Y65798601D01*
X89099704Y65678011D01*
X89091123Y65645987D01*
X89074086Y65516577D01*
X89073000Y65500000D01*
X89073000Y63308328D01*
X89059231Y63203743D01*
X89022077Y63114045D01*
X88962976Y63037024D01*
X88885955Y62977923D01*
X88796257Y62940769D01*
X88691672Y62927000D01*
X66300000Y62927000D01*
X66283423Y62925914D01*
X66154013Y62908877D01*
X66121989Y62900296D01*
X66001399Y62850346D01*
X65972687Y62833768D01*
X65869134Y62754308D01*
X65845692Y62730866D01*
X65766232Y62627313D01*
X65749654Y62598601D01*
X65699704Y62478011D01*
X65691123Y62445987D01*
X65674086Y62316577D01*
X65673000Y62300000D01*
X65673000Y61477244D01*
X65615000Y61185656D01*
X65615000Y60814344D01*
X65673000Y60522756D01*
X65673000Y59667841D01*
X63746402Y57741242D01*
X63490542Y57739110D01*
X63408142Y57733048D01*
X63279549Y57715118D01*
X63120573Y57671335D01*
X63000931Y57620899D01*
X62858591Y57537661D01*
X62755970Y57458122D01*
X62639858Y57341039D01*
X62561176Y57237758D01*
X62479127Y57094728D01*
X62429690Y56974670D01*
X62387233Y56815336D01*
X62370375Y56686597D01*
X62365000Y56604149D01*
X62365000Y56359840D01*
X61132293Y55127133D01*
X58008283Y55127493D01*
X57903707Y55141272D01*
X57814024Y55178429D01*
X57737008Y55237534D01*
X57677914Y55314554D01*
X57674638Y55322463D01*
X58739250Y55325000D01*
X58898000Y55483750D01*
X58898000Y56333000D01*
X59152000Y56333000D01*
X59152000Y55483750D01*
X59310750Y55325000D01*
X60600000Y55321928D01*
X60724482Y55334188D01*
X60844180Y55370498D01*
X60954494Y55429463D01*
X61051185Y55508815D01*
X61130537Y55605506D01*
X61189502Y55715820D01*
X61225812Y55835518D01*
X61238072Y55960000D01*
X61235000Y56174250D01*
X61076250Y56333000D01*
X59152000Y56333000D01*
X58898000Y56333000D01*
X58878000Y56333000D01*
X58878000Y56587000D01*
X58898000Y56587000D01*
X58898000Y57436250D01*
X59152000Y57436250D01*
X59152000Y56587000D01*
X61076250Y56587000D01*
X61235000Y56745750D01*
X61238072Y56960000D01*
X61225812Y57084482D01*
X61189502Y57204180D01*
X61130537Y57314494D01*
X61051185Y57411185D01*
X60954494Y57490537D01*
X60844180Y57549502D01*
X60724482Y57585812D01*
X60600000Y57598072D01*
X59310750Y57595000D01*
X59152000Y57436250D01*
X58898000Y57436250D01*
X58739250Y57595000D01*
X57627000Y57597650D01*
X57627000Y57862350D01*
X58739250Y57865000D01*
X58898000Y58023750D01*
X58898000Y58873000D01*
X59152000Y58873000D01*
X59152000Y58023750D01*
X59310750Y57865000D01*
X60600000Y57861928D01*
X60724482Y57874188D01*
X60844180Y57910498D01*
X60954494Y57969463D01*
X61051185Y58048815D01*
X61130537Y58145506D01*
X61189502Y58255820D01*
X61225812Y58375518D01*
X61238072Y58500000D01*
X61235000Y58714250D01*
X61076250Y58873000D01*
X59152000Y58873000D01*
X58898000Y58873000D01*
X58878000Y58873000D01*
X58878000Y59127000D01*
X58898000Y59127000D01*
X58898000Y59976250D01*
X59152000Y59976250D01*
X59152000Y59127000D01*
X61076250Y59127000D01*
X61235000Y59285750D01*
X61238072Y59500000D01*
X61225812Y59624482D01*
X61189502Y59744180D01*
X61130537Y59854494D01*
X61051185Y59951185D01*
X60954494Y60030537D01*
X60844180Y60089502D01*
X60724482Y60125812D01*
X60600000Y60138072D01*
X59310750Y60135000D01*
X59152000Y59976250D01*
X58898000Y59976250D01*
X58739250Y60135000D01*
X57627000Y60137650D01*
X57627000Y60402350D01*
X58739250Y60405000D01*
X58898000Y60563750D01*
X58898000Y61413000D01*
X59152000Y61413000D01*
X59152000Y60563750D01*
X59310750Y60405000D01*
X60600000Y60401928D01*
X60724482Y60414188D01*
X60844180Y60450498D01*
X60954494Y60509463D01*
X61051185Y60588815D01*
X61130537Y60685506D01*
X61189502Y60795820D01*
X61225812Y60915518D01*
X61238072Y61040000D01*
X61235000Y61254250D01*
X61076250Y61413000D01*
X59152000Y61413000D01*
X58898000Y61413000D01*
X58878000Y61413000D01*
X58878000Y61667000D01*
X58898000Y61667000D01*
X58898000Y62516250D01*
X59152000Y62516250D01*
X59152000Y61667000D01*
X61076250Y61667000D01*
X61235000Y61825750D01*
X61238072Y62040000D01*
X61225812Y62164482D01*
X61189502Y62284180D01*
X61130537Y62394494D01*
X61051185Y62491185D01*
X60954494Y62570537D01*
X60844180Y62629502D01*
X60724482Y62665812D01*
X60600000Y62678072D01*
X59310750Y62675000D01*
X59152000Y62516250D01*
X58898000Y62516250D01*
X58739250Y62675000D01*
X57627000Y62677650D01*
X57627000Y62942350D01*
X58739250Y62945000D01*
X58898000Y63103750D01*
X58898000Y63953000D01*
X59152000Y63953000D01*
X59152000Y63103750D01*
X59310750Y62945000D01*
X60600000Y62941928D01*
X60724482Y62954188D01*
X60844180Y62990498D01*
X60954494Y63049463D01*
X61051185Y63128815D01*
X61130537Y63225506D01*
X61189502Y63335820D01*
X61225812Y63455518D01*
X61238072Y63580000D01*
X61235000Y63794250D01*
X61076250Y63953000D01*
X59152000Y63953000D01*
X58898000Y63953000D01*
X58878000Y63953000D01*
X58878000Y64207000D01*
X58898000Y64207000D01*
X58898000Y65056250D01*
X59152000Y65056250D01*
X59152000Y64207000D01*
X61076250Y64207000D01*
X61235000Y64365750D01*
X61238072Y64580000D01*
X61225812Y64704482D01*
X61189502Y64824180D01*
X61130537Y64934494D01*
X61051185Y65031185D01*
X60954494Y65110537D01*
X60844180Y65169502D01*
X60724482Y65205812D01*
X60600000Y65218072D01*
X59310750Y65215000D01*
X59152000Y65056250D01*
X58898000Y65056250D01*
X58739250Y65215000D01*
X57627000Y65217650D01*
X57627000Y66491138D01*
X57640768Y66595721D01*
X57677919Y66685414D01*
X57737018Y66762436D01*
X57814042Y66821540D01*
X57903733Y66858695D01*
X58008310Y66872465D01*
X72900021Y66872983D01*
X72916597Y66874070D01*
X73046003Y66891110D01*
X73078027Y66899692D01*
X73198614Y66949645D01*
X73227324Y66966221D01*
X73330874Y67045680D01*
X73354317Y67069124D01*
X73433773Y67172677D01*
X73450349Y67201388D01*
X73500297Y67321976D01*
X73508878Y67354000D01*
X73525914Y67483407D01*
X73527000Y67499983D01*
X73527000Y73491672D01*
X73540769Y73596257D01*
X73577923Y73685955D01*
X73637024Y73762976D01*
X73714045Y73822077D01*
X73803743Y73859231D01*
X73908328Y73873000D01*
X98491672Y73873000D01*
X98596257Y73859231D01*
G37*
%TD.AperFunction*%
%TD*%
D33*
%TO.N,/AUX1*%
X98593756Y57255697D02*
X98684152Y57218914D01*
X98761870Y57159876D01*
X98821551Y57082656D01*
X98859087Y56992569D01*
X98873000Y56887448D01*
X98873000Y50908328D01*
X98859231Y50803743D01*
X98822077Y50714045D01*
X98762976Y50637024D01*
X98685955Y50577923D01*
X98596257Y50540769D01*
X98491672Y50527000D01*
X94700000Y50527000D01*
X94683423Y50525914D01*
X94554013Y50508877D01*
X94521989Y50500296D01*
X94401399Y50450346D01*
X94372687Y50433768D01*
X94269134Y50354308D01*
X94245692Y50330866D01*
X94166232Y50227313D01*
X94149654Y50198601D01*
X94099704Y50078011D01*
X94091123Y50045987D01*
X94074086Y49916577D01*
X94073000Y49900000D01*
X94073000Y49108283D01*
X94059233Y49003706D01*
X94022083Y48914012D01*
X93962989Y48836994D01*
X93885971Y48777890D01*
X93796280Y48740732D01*
X93691709Y48726956D01*
X66249946Y48724624D01*
X66233370Y48723536D01*
X66103969Y48706489D01*
X66071948Y48697907D01*
X65951367Y48647952D01*
X65922657Y48631374D01*
X65819114Y48551914D01*
X65795674Y48528471D01*
X65716222Y48424920D01*
X65699646Y48396209D01*
X65649701Y48275624D01*
X65641121Y48243602D01*
X65624086Y48114200D01*
X65623000Y48097624D01*
X65623000Y47509395D01*
X65609233Y47404818D01*
X65572084Y47315125D01*
X65512990Y47238105D01*
X65435977Y47179004D01*
X65346287Y47141844D01*
X65241715Y47128067D01*
X61324122Y47127659D01*
X61320417Y47130691D01*
X61298444Y47142397D01*
X61274610Y47149593D01*
X61249831Y47152000D01*
X42499831Y47127000D01*
X42474189Y47124349D01*
X42450425Y47116924D01*
X42428567Y47105006D01*
X42409454Y47089053D01*
X42393820Y47069677D01*
X42382267Y47047623D01*
X42375239Y47023740D01*
X42373004Y46998944D01*
X42407452Y42856535D01*
X40262530Y42832702D01*
X40157079Y42845494D01*
X40066446Y42882154D01*
X39988499Y42941165D01*
X39928627Y43018448D01*
X39890962Y43108672D01*
X39877000Y43213969D01*
X39877000Y53741672D01*
X39890769Y53846257D01*
X39927923Y53935955D01*
X39987024Y54012976D01*
X40064045Y54072077D01*
X40153743Y54109231D01*
X40258328Y54123000D01*
X43741672Y54123000D01*
X43846257Y54109231D01*
X43935955Y54072077D01*
X44012976Y54012976D01*
X44072077Y53935955D01*
X44109231Y53846257D01*
X44123000Y53741672D01*
X44123000Y51900000D01*
X44124086Y51883423D01*
X44141123Y51754013D01*
X44149704Y51721989D01*
X44199654Y51601399D01*
X44216232Y51572687D01*
X44295692Y51469134D01*
X44319134Y51445692D01*
X44422687Y51366232D01*
X44451399Y51349654D01*
X44571989Y51299704D01*
X44604013Y51291123D01*
X44733423Y51274086D01*
X44750000Y51273000D01*
X49125000Y51273000D01*
X49149776Y51275440D01*
X49173601Y51282667D01*
X49226634Y51304634D01*
X49248590Y51316370D01*
X49267836Y51332164D01*
X49283630Y51351410D01*
X49295366Y51373366D01*
X49315577Y51422159D01*
X62495457Y51326652D01*
X62512118Y51327628D01*
X62642232Y51343880D01*
X62674453Y51352306D01*
X62795867Y51401826D01*
X62824791Y51418339D01*
X62929156Y51497722D01*
X62952792Y51521187D01*
X63032930Y51624974D01*
X63049653Y51653778D01*
X63100051Y51774831D01*
X63108709Y51806991D01*
X63125903Y51936983D01*
X63127000Y51953636D01*
X63127000Y54248160D01*
X65875801Y56996960D01*
X98488529Y57268733D01*
X98593756Y57255697D01*
%TA.AperFunction,Conductor*%
D35*
G36*
X98593756Y57255697D02*
G01*
X98684152Y57218914D01*
X98761870Y57159876D01*
X98821551Y57082656D01*
X98859087Y56992569D01*
X98873000Y56887448D01*
X98873000Y50908328D01*
X98859231Y50803743D01*
X98822077Y50714045D01*
X98762976Y50637024D01*
X98685955Y50577923D01*
X98596257Y50540769D01*
X98491672Y50527000D01*
X94700000Y50527000D01*
X94683423Y50525914D01*
X94554013Y50508877D01*
X94521989Y50500296D01*
X94401399Y50450346D01*
X94372687Y50433768D01*
X94269134Y50354308D01*
X94245692Y50330866D01*
X94166232Y50227313D01*
X94149654Y50198601D01*
X94099704Y50078011D01*
X94091123Y50045987D01*
X94074086Y49916577D01*
X94073000Y49900000D01*
X94073000Y49108283D01*
X94059233Y49003706D01*
X94022083Y48914012D01*
X93962989Y48836994D01*
X93885971Y48777890D01*
X93796280Y48740732D01*
X93691709Y48726956D01*
X66249946Y48724624D01*
X66233370Y48723536D01*
X66103969Y48706489D01*
X66071948Y48697907D01*
X65951367Y48647952D01*
X65922657Y48631374D01*
X65819114Y48551914D01*
X65795674Y48528471D01*
X65716222Y48424920D01*
X65699646Y48396209D01*
X65649701Y48275624D01*
X65641121Y48243602D01*
X65624086Y48114200D01*
X65623000Y48097624D01*
X65623000Y47509395D01*
X65609233Y47404818D01*
X65572084Y47315125D01*
X65512990Y47238105D01*
X65435977Y47179004D01*
X65346287Y47141844D01*
X65241715Y47128067D01*
X61324122Y47127659D01*
X61320417Y47130691D01*
X61298444Y47142397D01*
X61274610Y47149593D01*
X61249831Y47152000D01*
X42499831Y47127000D01*
X42474189Y47124349D01*
X42450425Y47116924D01*
X42428567Y47105006D01*
X42409454Y47089053D01*
X42393820Y47069677D01*
X42382267Y47047623D01*
X42375239Y47023740D01*
X42373004Y46998944D01*
X42407452Y42856535D01*
X40262530Y42832702D01*
X40157079Y42845494D01*
X40066446Y42882154D01*
X39988499Y42941165D01*
X39928627Y43018448D01*
X39890962Y43108672D01*
X39877000Y43213969D01*
X39877000Y53741672D01*
X39890769Y53846257D01*
X39927923Y53935955D01*
X39987024Y54012976D01*
X40064045Y54072077D01*
X40153743Y54109231D01*
X40258328Y54123000D01*
X43741672Y54123000D01*
X43846257Y54109231D01*
X43935955Y54072077D01*
X44012976Y54012976D01*
X44072077Y53935955D01*
X44109231Y53846257D01*
X44123000Y53741672D01*
X44123000Y51900000D01*
X44124086Y51883423D01*
X44141123Y51754013D01*
X44149704Y51721989D01*
X44199654Y51601399D01*
X44216232Y51572687D01*
X44295692Y51469134D01*
X44319134Y51445692D01*
X44422687Y51366232D01*
X44451399Y51349654D01*
X44571989Y51299704D01*
X44604013Y51291123D01*
X44733423Y51274086D01*
X44750000Y51273000D01*
X49125000Y51273000D01*
X49149776Y51275440D01*
X49173601Y51282667D01*
X49226634Y51304634D01*
X49248590Y51316370D01*
X49267836Y51332164D01*
X49283630Y51351410D01*
X49295366Y51373366D01*
X49315577Y51422159D01*
X62495457Y51326652D01*
X62512118Y51327628D01*
X62642232Y51343880D01*
X62674453Y51352306D01*
X62795867Y51401826D01*
X62824791Y51418339D01*
X62929156Y51497722D01*
X62952792Y51521187D01*
X63032930Y51624974D01*
X63049653Y51653778D01*
X63100051Y51774831D01*
X63108709Y51806991D01*
X63125903Y51936983D01*
X63127000Y51953636D01*
X63127000Y54248160D01*
X65875801Y56996960D01*
X98488529Y57268733D01*
X98593756Y57255697D01*
G37*
%TD.AperFunction*%
%TD*%
D33*
%TO.N,/AC_Mot*%
X36692012Y73868622D02*
X36796521Y73854778D01*
X36886146Y73817584D01*
X36963094Y73758476D01*
X37022134Y73681474D01*
X37059247Y73591821D01*
X37073000Y73487294D01*
X37073000Y69703501D01*
X37059231Y69598916D01*
X37022077Y69509218D01*
X36962976Y69432197D01*
X36885955Y69373096D01*
X36796257Y69335942D01*
X36691672Y69322173D01*
X35000000Y69322173D01*
X34983423Y69321087D01*
X34854013Y69304050D01*
X34821989Y69295469D01*
X34701399Y69245519D01*
X34672687Y69228941D01*
X34569134Y69149481D01*
X34545692Y69126039D01*
X34466232Y69022486D01*
X34449654Y68993774D01*
X34399704Y68873184D01*
X34391123Y68841160D01*
X34374086Y68711750D01*
X34373000Y68695173D01*
X34373000Y58884992D01*
X34359357Y58798856D01*
X34324356Y58730162D01*
X34269838Y58675644D01*
X34201144Y58640643D01*
X33989252Y58607082D01*
X33965162Y58600796D01*
X33951462Y58594804D01*
X33846924Y58541539D01*
X33825956Y58528116D01*
X33814778Y58518184D01*
X33731816Y58435222D01*
X33716022Y58415976D01*
X33708461Y58403076D01*
X33655196Y58298538D01*
X33646122Y58275354D01*
X33642918Y58260748D01*
X33624564Y58144867D01*
X33623000Y58125000D01*
X33623000Y39500000D01*
X33624086Y39483423D01*
X33641123Y39354013D01*
X33649704Y39321989D01*
X33699654Y39201399D01*
X33716232Y39172687D01*
X33795692Y39069134D01*
X33819134Y39045692D01*
X33922687Y38966232D01*
X33951399Y38949654D01*
X34071989Y38899704D01*
X34104013Y38891123D01*
X34233423Y38874086D01*
X34250000Y38873000D01*
X36741672Y38873000D01*
X36846257Y38859231D01*
X36935955Y38822077D01*
X37012976Y38762976D01*
X37072077Y38685955D01*
X37109231Y38596257D01*
X37123000Y38491672D01*
X37123000Y36500000D01*
X37124086Y36483423D01*
X37141123Y36354013D01*
X37149704Y36321989D01*
X37199654Y36201399D01*
X37216232Y36172687D01*
X37295692Y36069134D01*
X37319134Y36045692D01*
X37422687Y35966232D01*
X37451399Y35949654D01*
X37571989Y35899704D01*
X37604013Y35891123D01*
X37733423Y35874086D01*
X37750000Y35873000D01*
X38491672Y35873000D01*
X38596257Y35859231D01*
X38685955Y35822077D01*
X38762976Y35762976D01*
X38806551Y35706188D01*
X38804774Y35701898D01*
X38765000Y35501939D01*
X38765000Y35298061D01*
X38804774Y35098102D01*
X38873000Y34933391D01*
X38873000Y30602389D01*
X38870432Y30582883D01*
X38865000Y30500000D01*
X38865000Y26244625D01*
X38830000Y26248072D01*
X37670000Y26248072D01*
X37545518Y26235812D01*
X37425820Y26199502D01*
X37315506Y26140537D01*
X37218815Y26061185D01*
X37139463Y25964494D01*
X37080498Y25854180D01*
X37044188Y25734482D01*
X37031928Y25610000D01*
X37031928Y25445272D01*
X36949180Y25489502D01*
X36829482Y25525812D01*
X36705000Y25538072D01*
X35575000Y25538072D01*
X35450518Y25525812D01*
X35330820Y25489502D01*
X35220506Y25430537D01*
X35123815Y25351185D01*
X35044463Y25254494D01*
X34985498Y25144180D01*
X34949188Y25024482D01*
X34936928Y24900000D01*
X34936928Y23100000D01*
X34949188Y22975518D01*
X34985498Y22855820D01*
X35044463Y22745506D01*
X35123815Y22648815D01*
X35220506Y22569463D01*
X35330820Y22510498D01*
X35450518Y22474188D01*
X35575000Y22461928D01*
X36705000Y22461928D01*
X36829482Y22474188D01*
X36949180Y22510498D01*
X37059494Y22569463D01*
X37102463Y22604727D01*
X37139463Y22535506D01*
X37218815Y22438815D01*
X37315506Y22359463D01*
X37425820Y22300498D01*
X37545518Y22264188D01*
X37670000Y22251928D01*
X38830000Y22251928D01*
X38865000Y22255375D01*
X38865000Y21500000D01*
X38870432Y21417117D01*
X38873000Y21397611D01*
X38873000Y20750000D01*
X38874086Y20733423D01*
X38891123Y20604013D01*
X38899704Y20571989D01*
X38949654Y20451399D01*
X38966232Y20422687D01*
X39045692Y20319134D01*
X39069134Y20295692D01*
X39172687Y20216232D01*
X39201399Y20199654D01*
X39321989Y20149704D01*
X39354013Y20141123D01*
X39483423Y20124086D01*
X39500000Y20123000D01*
X44241672Y20123000D01*
X44346257Y20109231D01*
X44435955Y20072077D01*
X44512976Y20012976D01*
X44572077Y19935955D01*
X44609231Y19846257D01*
X44623000Y19741672D01*
X44623000Y18508328D01*
X44609231Y18403743D01*
X44572077Y18314045D01*
X44512976Y18237024D01*
X44435955Y18177923D01*
X44346257Y18140769D01*
X44241672Y18127000D01*
X39500000Y18127000D01*
X39483423Y18125914D01*
X39354013Y18108877D01*
X39321989Y18100296D01*
X39201399Y18050346D01*
X39172687Y18033768D01*
X39069134Y17954308D01*
X39045692Y17930866D01*
X38966232Y17827313D01*
X38949654Y17798601D01*
X38899704Y17678011D01*
X38891123Y17645987D01*
X38874086Y17516577D01*
X38873000Y17500000D01*
X38873000Y14258328D01*
X38859231Y14153743D01*
X38822077Y14064045D01*
X38762976Y13987024D01*
X38685955Y13927923D01*
X38596257Y13890769D01*
X38491672Y13877000D01*
X29758328Y13877000D01*
X29653743Y13890769D01*
X29564045Y13927923D01*
X29487024Y13987024D01*
X29427923Y14064045D01*
X29390769Y14153743D01*
X29377000Y14258328D01*
X29377000Y14517667D01*
X29413555Y14638173D01*
X29425499Y14759446D01*
X29425499Y14759448D01*
X29429493Y14799998D01*
X29425499Y14840549D01*
X29425499Y27159451D01*
X29429493Y27200002D01*
X29421196Y27284243D01*
X29413555Y27361827D01*
X29377000Y27482333D01*
X29377000Y28199573D01*
X29417205Y28259744D01*
X29495226Y28448102D01*
X29535000Y28648061D01*
X29535000Y28851939D01*
X29495226Y29051898D01*
X29417205Y29240256D01*
X29377000Y29300427D01*
X29377000Y73493442D01*
X29390783Y73598075D01*
X29427978Y73687816D01*
X29487141Y73764860D01*
X29564238Y73823954D01*
X29654010Y73861069D01*
X29758660Y73874761D01*
X36692012Y73868622D01*
%TA.AperFunction,Conductor*%
D35*
G36*
X36692012Y73868622D02*
G01*
X36796521Y73854778D01*
X36886146Y73817584D01*
X36963094Y73758476D01*
X37022134Y73681474D01*
X37059247Y73591821D01*
X37073000Y73487294D01*
X37073000Y69703501D01*
X37059231Y69598916D01*
X37022077Y69509218D01*
X36962976Y69432197D01*
X36885955Y69373096D01*
X36796257Y69335942D01*
X36691672Y69322173D01*
X35000000Y69322173D01*
X34983423Y69321087D01*
X34854013Y69304050D01*
X34821989Y69295469D01*
X34701399Y69245519D01*
X34672687Y69228941D01*
X34569134Y69149481D01*
X34545692Y69126039D01*
X34466232Y69022486D01*
X34449654Y68993774D01*
X34399704Y68873184D01*
X34391123Y68841160D01*
X34374086Y68711750D01*
X34373000Y68695173D01*
X34373000Y58884992D01*
X34359357Y58798856D01*
X34324356Y58730162D01*
X34269838Y58675644D01*
X34201144Y58640643D01*
X33989252Y58607082D01*
X33965162Y58600796D01*
X33951462Y58594804D01*
X33846924Y58541539D01*
X33825956Y58528116D01*
X33814778Y58518184D01*
X33731816Y58435222D01*
X33716022Y58415976D01*
X33708461Y58403076D01*
X33655196Y58298538D01*
X33646122Y58275354D01*
X33642918Y58260748D01*
X33624564Y58144867D01*
X33623000Y58125000D01*
X33623000Y39500000D01*
X33624086Y39483423D01*
X33641123Y39354013D01*
X33649704Y39321989D01*
X33699654Y39201399D01*
X33716232Y39172687D01*
X33795692Y39069134D01*
X33819134Y39045692D01*
X33922687Y38966232D01*
X33951399Y38949654D01*
X34071989Y38899704D01*
X34104013Y38891123D01*
X34233423Y38874086D01*
X34250000Y38873000D01*
X36741672Y38873000D01*
X36846257Y38859231D01*
X36935955Y38822077D01*
X37012976Y38762976D01*
X37072077Y38685955D01*
X37109231Y38596257D01*
X37123000Y38491672D01*
X37123000Y36500000D01*
X37124086Y36483423D01*
X37141123Y36354013D01*
X37149704Y36321989D01*
X37199654Y36201399D01*
X37216232Y36172687D01*
X37295692Y36069134D01*
X37319134Y36045692D01*
X37422687Y35966232D01*
X37451399Y35949654D01*
X37571989Y35899704D01*
X37604013Y35891123D01*
X37733423Y35874086D01*
X37750000Y35873000D01*
X38491672Y35873000D01*
X38596257Y35859231D01*
X38685955Y35822077D01*
X38762976Y35762976D01*
X38806551Y35706188D01*
X38804774Y35701898D01*
X38765000Y35501939D01*
X38765000Y35298061D01*
X38804774Y35098102D01*
X38873000Y34933391D01*
X38873000Y30602389D01*
X38870432Y30582883D01*
X38865000Y30500000D01*
X38865000Y26244625D01*
X38830000Y26248072D01*
X37670000Y26248072D01*
X37545518Y26235812D01*
X37425820Y26199502D01*
X37315506Y26140537D01*
X37218815Y26061185D01*
X37139463Y25964494D01*
X37080498Y25854180D01*
X37044188Y25734482D01*
X37031928Y25610000D01*
X37031928Y25445272D01*
X36949180Y25489502D01*
X36829482Y25525812D01*
X36705000Y25538072D01*
X35575000Y25538072D01*
X35450518Y25525812D01*
X35330820Y25489502D01*
X35220506Y25430537D01*
X35123815Y25351185D01*
X35044463Y25254494D01*
X34985498Y25144180D01*
X34949188Y25024482D01*
X34936928Y24900000D01*
X34936928Y23100000D01*
X34949188Y22975518D01*
X34985498Y22855820D01*
X35044463Y22745506D01*
X35123815Y22648815D01*
X35220506Y22569463D01*
X35330820Y22510498D01*
X35450518Y22474188D01*
X35575000Y22461928D01*
X36705000Y22461928D01*
X36829482Y22474188D01*
X36949180Y22510498D01*
X37059494Y22569463D01*
X37102463Y22604727D01*
X37139463Y22535506D01*
X37218815Y22438815D01*
X37315506Y22359463D01*
X37425820Y22300498D01*
X37545518Y22264188D01*
X37670000Y22251928D01*
X38830000Y22251928D01*
X38865000Y22255375D01*
X38865000Y21500000D01*
X38870432Y21417117D01*
X38873000Y21397611D01*
X38873000Y20750000D01*
X38874086Y20733423D01*
X38891123Y20604013D01*
X38899704Y20571989D01*
X38949654Y20451399D01*
X38966232Y20422687D01*
X39045692Y20319134D01*
X39069134Y20295692D01*
X39172687Y20216232D01*
X39201399Y20199654D01*
X39321989Y20149704D01*
X39354013Y20141123D01*
X39483423Y20124086D01*
X39500000Y20123000D01*
X44241672Y20123000D01*
X44346257Y20109231D01*
X44435955Y20072077D01*
X44512976Y20012976D01*
X44572077Y19935955D01*
X44609231Y19846257D01*
X44623000Y19741672D01*
X44623000Y18508328D01*
X44609231Y18403743D01*
X44572077Y18314045D01*
X44512976Y18237024D01*
X44435955Y18177923D01*
X44346257Y18140769D01*
X44241672Y18127000D01*
X39500000Y18127000D01*
X39483423Y18125914D01*
X39354013Y18108877D01*
X39321989Y18100296D01*
X39201399Y18050346D01*
X39172687Y18033768D01*
X39069134Y17954308D01*
X39045692Y17930866D01*
X38966232Y17827313D01*
X38949654Y17798601D01*
X38899704Y17678011D01*
X38891123Y17645987D01*
X38874086Y17516577D01*
X38873000Y17500000D01*
X38873000Y14258328D01*
X38859231Y14153743D01*
X38822077Y14064045D01*
X38762976Y13987024D01*
X38685955Y13927923D01*
X38596257Y13890769D01*
X38491672Y13877000D01*
X29758328Y13877000D01*
X29653743Y13890769D01*
X29564045Y13927923D01*
X29487024Y13987024D01*
X29427923Y14064045D01*
X29390769Y14153743D01*
X29377000Y14258328D01*
X29377000Y14517667D01*
X29413555Y14638173D01*
X29425499Y14759446D01*
X29425499Y14759448D01*
X29429493Y14799998D01*
X29425499Y14840549D01*
X29425499Y27159451D01*
X29429493Y27200002D01*
X29421196Y27284243D01*
X29413555Y27361827D01*
X29377000Y27482333D01*
X29377000Y28199573D01*
X29417205Y28259744D01*
X29495226Y28448102D01*
X29535000Y28648061D01*
X29535000Y28851939D01*
X29495226Y29051898D01*
X29417205Y29240256D01*
X29377000Y29300427D01*
X29377000Y73493442D01*
X29390783Y73598075D01*
X29427978Y73687816D01*
X29487141Y73764860D01*
X29564238Y73823954D01*
X29654010Y73861069D01*
X29758660Y73874761D01*
X36692012Y73868622D01*
G37*
%TD.AperFunction*%
%TD*%
D33*
%TO.N,/AC_MOT1*%
X76346257Y43359231D02*
X76435955Y43322077D01*
X76512976Y43262976D01*
X76572077Y43185955D01*
X76609231Y43096257D01*
X76623000Y42991672D01*
X76623000Y39462480D01*
X75787520Y38627000D01*
X66000000Y38627000D01*
X65983423Y38625914D01*
X65854013Y38608877D01*
X65821989Y38600296D01*
X65701399Y38550346D01*
X65672687Y38533768D01*
X65569134Y38454308D01*
X65545692Y38430866D01*
X65466232Y38327313D01*
X65449654Y38298601D01*
X65399704Y38178011D01*
X65391123Y38145987D01*
X65374086Y38016577D01*
X65373000Y38000000D01*
X65373000Y27503551D01*
X65359396Y27399583D01*
X65322676Y27310334D01*
X65264232Y27233541D01*
X65187993Y27174367D01*
X65099099Y27136802D01*
X64995270Y27122211D01*
X45294045Y26935096D01*
X45277578Y26933866D01*
X45149099Y26915812D01*
X45117336Y26907031D01*
X44997827Y26856528D01*
X44969393Y26839871D01*
X44866902Y26760321D01*
X44843711Y26736908D01*
X44765137Y26633665D01*
X44748750Y26605074D01*
X44699385Y26485091D01*
X44690906Y26453246D01*
X44674073Y26324601D01*
X44673000Y26308124D01*
X44673000Y21508328D01*
X44659231Y21403743D01*
X44622077Y21314045D01*
X44562976Y21237024D01*
X44485955Y21177923D01*
X44396257Y21140769D01*
X44291672Y21127000D01*
X40008328Y21127000D01*
X39903743Y21140769D01*
X39814045Y21177923D01*
X39737024Y21237024D01*
X39677923Y21314045D01*
X39640769Y21403743D01*
X39627000Y21508328D01*
X39627000Y30491672D01*
X39640769Y30596257D01*
X39677923Y30685955D01*
X39737024Y30762976D01*
X39814045Y30822077D01*
X39903743Y30859231D01*
X40008328Y30873000D01*
X42000000Y30873000D01*
X42016577Y30874086D01*
X42145987Y30891123D01*
X42178011Y30899704D01*
X42298601Y30949654D01*
X42327313Y30966232D01*
X42430866Y31045692D01*
X42454308Y31069134D01*
X42533768Y31172687D01*
X42550346Y31201399D01*
X42600296Y31321989D01*
X42608877Y31354013D01*
X42625914Y31483423D01*
X42627000Y31500000D01*
X42627000Y33991672D01*
X42640769Y34096257D01*
X42677923Y34185955D01*
X42737024Y34262976D01*
X42814045Y34322077D01*
X42903743Y34359231D01*
X43008328Y34373000D01*
X60900000Y34373000D01*
X60916577Y34374086D01*
X61045987Y34391123D01*
X61078011Y34399704D01*
X61198601Y34449654D01*
X61227313Y34466232D01*
X61330866Y34545692D01*
X61354308Y34569134D01*
X61433768Y34672687D01*
X61450346Y34701399D01*
X61500296Y34821989D01*
X61508877Y34854013D01*
X61525914Y34983423D01*
X61527000Y35000000D01*
X61527000Y42991672D01*
X61540769Y43096257D01*
X61577923Y43185955D01*
X61637024Y43262976D01*
X61714045Y43322077D01*
X61803743Y43359231D01*
X61908328Y43373000D01*
X76241672Y43373000D01*
X76346257Y43359231D01*
%TA.AperFunction,Conductor*%
D35*
G36*
X76346257Y43359231D02*
G01*
X76435955Y43322077D01*
X76512976Y43262976D01*
X76572077Y43185955D01*
X76609231Y43096257D01*
X76623000Y42991672D01*
X76623000Y39462480D01*
X75787520Y38627000D01*
X66000000Y38627000D01*
X65983423Y38625914D01*
X65854013Y38608877D01*
X65821989Y38600296D01*
X65701399Y38550346D01*
X65672687Y38533768D01*
X65569134Y38454308D01*
X65545692Y38430866D01*
X65466232Y38327313D01*
X65449654Y38298601D01*
X65399704Y38178011D01*
X65391123Y38145987D01*
X65374086Y38016577D01*
X65373000Y38000000D01*
X65373000Y27503551D01*
X65359396Y27399583D01*
X65322676Y27310334D01*
X65264232Y27233541D01*
X65187993Y27174367D01*
X65099099Y27136802D01*
X64995270Y27122211D01*
X45294045Y26935096D01*
X45277578Y26933866D01*
X45149099Y26915812D01*
X45117336Y26907031D01*
X44997827Y26856528D01*
X44969393Y26839871D01*
X44866902Y26760321D01*
X44843711Y26736908D01*
X44765137Y26633665D01*
X44748750Y26605074D01*
X44699385Y26485091D01*
X44690906Y26453246D01*
X44674073Y26324601D01*
X44673000Y26308124D01*
X44673000Y21508328D01*
X44659231Y21403743D01*
X44622077Y21314045D01*
X44562976Y21237024D01*
X44485955Y21177923D01*
X44396257Y21140769D01*
X44291672Y21127000D01*
X40008328Y21127000D01*
X39903743Y21140769D01*
X39814045Y21177923D01*
X39737024Y21237024D01*
X39677923Y21314045D01*
X39640769Y21403743D01*
X39627000Y21508328D01*
X39627000Y30491672D01*
X39640769Y30596257D01*
X39677923Y30685955D01*
X39737024Y30762976D01*
X39814045Y30822077D01*
X39903743Y30859231D01*
X40008328Y30873000D01*
X42000000Y30873000D01*
X42016577Y30874086D01*
X42145987Y30891123D01*
X42178011Y30899704D01*
X42298601Y30949654D01*
X42327313Y30966232D01*
X42430866Y31045692D01*
X42454308Y31069134D01*
X42533768Y31172687D01*
X42550346Y31201399D01*
X42600296Y31321989D01*
X42608877Y31354013D01*
X42625914Y31483423D01*
X42627000Y31500000D01*
X42627000Y33991672D01*
X42640769Y34096257D01*
X42677923Y34185955D01*
X42737024Y34262976D01*
X42814045Y34322077D01*
X42903743Y34359231D01*
X43008328Y34373000D01*
X60900000Y34373000D01*
X60916577Y34374086D01*
X61045987Y34391123D01*
X61078011Y34399704D01*
X61198601Y34449654D01*
X61227313Y34466232D01*
X61330866Y34545692D01*
X61354308Y34569134D01*
X61433768Y34672687D01*
X61450346Y34701399D01*
X61500296Y34821989D01*
X61508877Y34854013D01*
X61525914Y34983423D01*
X61527000Y35000000D01*
X61527000Y42991672D01*
X61540769Y43096257D01*
X61577923Y43185955D01*
X61637024Y43262976D01*
X61714045Y43322077D01*
X61803743Y43359231D01*
X61908328Y43373000D01*
X76241672Y43373000D01*
X76346257Y43359231D01*
G37*
%TD.AperFunction*%
%TD*%
D33*
%TO.N,/MOT2CW*%
X99096257Y13609231D02*
X99185955Y13572077D01*
X99262976Y13512976D01*
X99290001Y13477757D01*
X99290001Y8272243D01*
X99262976Y8237024D01*
X99185955Y8177923D01*
X99096257Y8140769D01*
X98991672Y8127000D01*
X95000000Y8127000D01*
X94983423Y8125914D01*
X94854013Y8108877D01*
X94821989Y8100296D01*
X94701399Y8050346D01*
X94672687Y8033768D01*
X94569134Y7954308D01*
X94545692Y7930866D01*
X94466232Y7827313D01*
X94449654Y7798601D01*
X94399704Y7678011D01*
X94391123Y7645987D01*
X94374086Y7516577D01*
X94373000Y7500000D01*
X94373000Y3965435D01*
X94359231Y3860850D01*
X94322078Y3771155D01*
X94257866Y3687472D01*
X91812528Y1242134D01*
X91728845Y1177922D01*
X91639150Y1140769D01*
X91534565Y1127000D01*
X81008328Y1127000D01*
X80903743Y1140769D01*
X80814045Y1177923D01*
X80737024Y1237024D01*
X80677923Y1314045D01*
X80640769Y1403743D01*
X80627000Y1508328D01*
X80627000Y3641486D01*
X81858514Y4873000D01*
X90306697Y4873000D01*
X90322274Y4873959D01*
X90444007Y4889004D01*
X90474226Y4896589D01*
X90588633Y4940820D01*
X90616095Y4955534D01*
X90716291Y5026288D01*
X90728462Y5036058D01*
X91521765Y5757243D01*
X91533947Y5769968D01*
X91622477Y5876330D01*
X91641009Y5906199D01*
X91696993Y6032754D01*
X91706628Y6066557D01*
X91725778Y6203610D01*
X91727000Y6221185D01*
X91727000Y7243603D01*
X91812561Y7450166D01*
X91885000Y7814344D01*
X91885000Y8185656D01*
X91812561Y8549834D01*
X91727000Y8756397D01*
X91727000Y10804896D01*
X91738506Y10900648D01*
X91769681Y10983782D01*
X91823971Y11063487D01*
X92978590Y12386488D01*
X94211557Y13619455D01*
X94215364Y13620000D01*
X97124771Y13620000D01*
X97155230Y13623000D01*
X98991672Y13623000D01*
X99096257Y13609231D01*
%TA.AperFunction,Conductor*%
D35*
G36*
X99096257Y13609231D02*
G01*
X99185955Y13572077D01*
X99262976Y13512976D01*
X99290001Y13477757D01*
X99290001Y8272243D01*
X99262976Y8237024D01*
X99185955Y8177923D01*
X99096257Y8140769D01*
X98991672Y8127000D01*
X95000000Y8127000D01*
X94983423Y8125914D01*
X94854013Y8108877D01*
X94821989Y8100296D01*
X94701399Y8050346D01*
X94672687Y8033768D01*
X94569134Y7954308D01*
X94545692Y7930866D01*
X94466232Y7827313D01*
X94449654Y7798601D01*
X94399704Y7678011D01*
X94391123Y7645987D01*
X94374086Y7516577D01*
X94373000Y7500000D01*
X94373000Y3965435D01*
X94359231Y3860850D01*
X94322078Y3771155D01*
X94257866Y3687472D01*
X91812528Y1242134D01*
X91728845Y1177922D01*
X91639150Y1140769D01*
X91534565Y1127000D01*
X81008328Y1127000D01*
X80903743Y1140769D01*
X80814045Y1177923D01*
X80737024Y1237024D01*
X80677923Y1314045D01*
X80640769Y1403743D01*
X80627000Y1508328D01*
X80627000Y3641486D01*
X81858514Y4873000D01*
X90306697Y4873000D01*
X90322274Y4873959D01*
X90444007Y4889004D01*
X90474226Y4896589D01*
X90588633Y4940820D01*
X90616095Y4955534D01*
X90716291Y5026288D01*
X90728462Y5036058D01*
X91521765Y5757243D01*
X91533947Y5769968D01*
X91622477Y5876330D01*
X91641009Y5906199D01*
X91696993Y6032754D01*
X91706628Y6066557D01*
X91725778Y6203610D01*
X91727000Y6221185D01*
X91727000Y7243603D01*
X91812561Y7450166D01*
X91885000Y7814344D01*
X91885000Y8185656D01*
X91812561Y8549834D01*
X91727000Y8756397D01*
X91727000Y10804896D01*
X91738506Y10900648D01*
X91769681Y10983782D01*
X91823971Y11063487D01*
X92978590Y12386488D01*
X94211557Y13619455D01*
X94215364Y13620000D01*
X97124771Y13620000D01*
X97155230Y13623000D01*
X98991672Y13623000D01*
X99096257Y13609231D01*
G37*
%TD.AperFunction*%
%TD*%
D33*
%TO.N,/AC_MOT2*%
X35346257Y12359231D02*
X35435955Y12322077D01*
X35512976Y12262976D01*
X35548496Y12216686D01*
X35541928Y12150000D01*
X35541928Y9950000D01*
X35554188Y9825518D01*
X35590498Y9705820D01*
X35649463Y9595506D01*
X35728815Y9498815D01*
X35825506Y9419463D01*
X35935820Y9360498D01*
X36055518Y9324188D01*
X36180000Y9311928D01*
X37380000Y9311928D01*
X37504482Y9324188D01*
X37624180Y9360498D01*
X37720340Y9411897D01*
X37856104Y9480296D01*
X37877133Y9493623D01*
X37888081Y9503233D01*
X37998465Y9611954D01*
X38014405Y9631079D01*
X38021886Y9643580D01*
X38093688Y9780873D01*
X38103008Y9803959D01*
X38106302Y9818151D01*
X38132627Y9970834D01*
X38134459Y9990485D01*
X38138334Y10245764D01*
X38159592Y10369063D01*
X38212935Y10471059D01*
X38233315Y10491132D01*
X38301898Y10504774D01*
X38490256Y10582795D01*
X38550427Y10623000D01*
X39211928Y10623000D01*
X39211928Y9945000D01*
X39224188Y9820518D01*
X39260498Y9700820D01*
X39319463Y9590506D01*
X39398815Y9493815D01*
X39495506Y9414463D01*
X39605820Y9355498D01*
X39725518Y9319188D01*
X39850000Y9306928D01*
X41650000Y9306928D01*
X41774482Y9319188D01*
X41894180Y9355498D01*
X42004494Y9414463D01*
X42101185Y9493815D01*
X42101337Y9494000D01*
X43331928Y9494000D01*
X43331928Y9390000D01*
X43344188Y9265518D01*
X43380498Y9145820D01*
X43439463Y9035506D01*
X43518815Y8938815D01*
X43615506Y8859463D01*
X43725820Y8800498D01*
X43845518Y8764188D01*
X43970000Y8751928D01*
X45130000Y8751928D01*
X45254482Y8764188D01*
X45374180Y8800498D01*
X45484494Y8859463D01*
X45581185Y8938815D01*
X45660537Y9035506D01*
X45719502Y9145820D01*
X45755812Y9265518D01*
X45768072Y9390000D01*
X45768072Y10623000D01*
X77224445Y10623000D01*
X77328798Y10609292D01*
X77418333Y10572296D01*
X77495273Y10513434D01*
X77554404Y10436692D01*
X77591708Y10347288D01*
X77605776Y10242983D01*
X77614159Y7812848D01*
X75341311Y5540000D01*
X67875229Y5540000D01*
X67502073Y5503247D01*
X67085890Y5377000D01*
X65750000Y5377000D01*
X65733423Y5375914D01*
X65604013Y5358877D01*
X65571989Y5350296D01*
X65451399Y5300346D01*
X65422687Y5283768D01*
X65319134Y5204308D01*
X65295692Y5180866D01*
X65216232Y5077313D01*
X65199654Y5048601D01*
X65149704Y4928011D01*
X65141123Y4895987D01*
X65124086Y4766577D01*
X65123000Y4750000D01*
X65123000Y1758328D01*
X65109231Y1653743D01*
X65072077Y1564045D01*
X65012976Y1487024D01*
X64935955Y1427923D01*
X64846257Y1390769D01*
X64741672Y1377000D01*
X29758328Y1377000D01*
X29653743Y1390769D01*
X29564045Y1427923D01*
X29487024Y1487024D01*
X29427923Y1564045D01*
X29390769Y1653743D01*
X29377000Y1758328D01*
X29377000Y11991672D01*
X29390769Y12096257D01*
X29427923Y12185955D01*
X29487024Y12262976D01*
X29564045Y12322077D01*
X29653743Y12359231D01*
X29758328Y12373000D01*
X35241672Y12373000D01*
X35346257Y12359231D01*
%TA.AperFunction,Conductor*%
D35*
G36*
X35346257Y12359231D02*
G01*
X35435955Y12322077D01*
X35512976Y12262976D01*
X35548496Y12216686D01*
X35541928Y12150000D01*
X35541928Y9950000D01*
X35554188Y9825518D01*
X35590498Y9705820D01*
X35649463Y9595506D01*
X35728815Y9498815D01*
X35825506Y9419463D01*
X35935820Y9360498D01*
X36055518Y9324188D01*
X36180000Y9311928D01*
X37380000Y9311928D01*
X37504482Y9324188D01*
X37624180Y9360498D01*
X37720340Y9411897D01*
X37856104Y9480296D01*
X37877133Y9493623D01*
X37888081Y9503233D01*
X37998465Y9611954D01*
X38014405Y9631079D01*
X38021886Y9643580D01*
X38093688Y9780873D01*
X38103008Y9803959D01*
X38106302Y9818151D01*
X38132627Y9970834D01*
X38134459Y9990485D01*
X38138334Y10245764D01*
X38159592Y10369063D01*
X38212935Y10471059D01*
X38233315Y10491132D01*
X38301898Y10504774D01*
X38490256Y10582795D01*
X38550427Y10623000D01*
X39211928Y10623000D01*
X39211928Y9945000D01*
X39224188Y9820518D01*
X39260498Y9700820D01*
X39319463Y9590506D01*
X39398815Y9493815D01*
X39495506Y9414463D01*
X39605820Y9355498D01*
X39725518Y9319188D01*
X39850000Y9306928D01*
X41650000Y9306928D01*
X41774482Y9319188D01*
X41894180Y9355498D01*
X42004494Y9414463D01*
X42101185Y9493815D01*
X42101337Y9494000D01*
X43331928Y9494000D01*
X43331928Y9390000D01*
X43344188Y9265518D01*
X43380498Y9145820D01*
X43439463Y9035506D01*
X43518815Y8938815D01*
X43615506Y8859463D01*
X43725820Y8800498D01*
X43845518Y8764188D01*
X43970000Y8751928D01*
X45130000Y8751928D01*
X45254482Y8764188D01*
X45374180Y8800498D01*
X45484494Y8859463D01*
X45581185Y8938815D01*
X45660537Y9035506D01*
X45719502Y9145820D01*
X45755812Y9265518D01*
X45768072Y9390000D01*
X45768072Y10623000D01*
X77224445Y10623000D01*
X77328798Y10609292D01*
X77418333Y10572296D01*
X77495273Y10513434D01*
X77554404Y10436692D01*
X77591708Y10347288D01*
X77605776Y10242983D01*
X77614159Y7812848D01*
X75341311Y5540000D01*
X67875229Y5540000D01*
X67502073Y5503247D01*
X67085890Y5377000D01*
X65750000Y5377000D01*
X65733423Y5375914D01*
X65604013Y5358877D01*
X65571989Y5350296D01*
X65451399Y5300346D01*
X65422687Y5283768D01*
X65319134Y5204308D01*
X65295692Y5180866D01*
X65216232Y5077313D01*
X65199654Y5048601D01*
X65149704Y4928011D01*
X65141123Y4895987D01*
X65124086Y4766577D01*
X65123000Y4750000D01*
X65123000Y1758328D01*
X65109231Y1653743D01*
X65072077Y1564045D01*
X65012976Y1487024D01*
X64935955Y1427923D01*
X64846257Y1390769D01*
X64741672Y1377000D01*
X29758328Y1377000D01*
X29653743Y1390769D01*
X29564045Y1427923D01*
X29487024Y1487024D01*
X29427923Y1564045D01*
X29390769Y1653743D01*
X29377000Y1758328D01*
X29377000Y11991672D01*
X29390769Y12096257D01*
X29427923Y12185955D01*
X29487024Y12262976D01*
X29564045Y12322077D01*
X29653743Y12359231D01*
X29758328Y12373000D01*
X35241672Y12373000D01*
X35346257Y12359231D01*
G37*
%TD.AperFunction*%
%TD*%
D33*
%TO.N,GNDPWR*%
X55096257Y66859231D02*
X55185955Y66822077D01*
X55262976Y66762976D01*
X55322077Y66685955D01*
X55359231Y66596257D01*
X55373000Y66491672D01*
X55373000Y65217650D01*
X54260750Y65215000D01*
X54102000Y65056250D01*
X54102000Y64207000D01*
X54122000Y64207000D01*
X54122000Y63953000D01*
X54102000Y63953000D01*
X54102000Y63103750D01*
X54260750Y62945000D01*
X55373000Y62942350D01*
X55373000Y62677650D01*
X54260750Y62675000D01*
X54102000Y62516250D01*
X54102000Y61667000D01*
X54122000Y61667000D01*
X54122000Y61413000D01*
X54102000Y61413000D01*
X54102000Y60563750D01*
X54260750Y60405000D01*
X55373000Y60402350D01*
X55373000Y60137650D01*
X54260750Y60135000D01*
X54102000Y59976250D01*
X54102000Y59127000D01*
X54122000Y59127000D01*
X54122000Y58873000D01*
X54102000Y58873000D01*
X54102000Y58023750D01*
X54260750Y57865000D01*
X55373000Y57862350D01*
X55373000Y57597650D01*
X54260750Y57595000D01*
X54102000Y57436250D01*
X54102000Y56587000D01*
X54122000Y56587000D01*
X54122000Y56333000D01*
X54102000Y56333000D01*
X54102000Y55483750D01*
X54260750Y55325000D01*
X55373000Y55322350D01*
X55373000Y55057650D01*
X54260750Y55055000D01*
X54102000Y54896250D01*
X54102000Y54047000D01*
X54122000Y54047000D01*
X54122000Y53793000D01*
X54102000Y53793000D01*
X54102000Y52943750D01*
X54260750Y52785000D01*
X55297893Y52782529D01*
X55262976Y52737024D01*
X55185955Y52677923D01*
X55096257Y52640769D01*
X54991672Y52627000D01*
X49508328Y52627000D01*
X49403743Y52640769D01*
X49314045Y52677923D01*
X49237024Y52737024D01*
X49177923Y52814045D01*
X49140769Y52903743D01*
X49127000Y53008328D01*
X49127000Y53420000D01*
X51761928Y53420000D01*
X51774188Y53295518D01*
X51810498Y53175820D01*
X51869463Y53065506D01*
X51948815Y52968815D01*
X52045506Y52889463D01*
X52155820Y52830498D01*
X52275518Y52794188D01*
X52400000Y52781928D01*
X53689250Y52785000D01*
X53848000Y52943750D01*
X53848000Y53793000D01*
X51923750Y53793000D01*
X51765000Y53634250D01*
X51761928Y53420000D01*
X49127000Y53420000D01*
X49127000Y54420000D01*
X51761928Y54420000D01*
X51765000Y54205750D01*
X51923750Y54047000D01*
X53848000Y54047000D01*
X53848000Y54896250D01*
X53689250Y55055000D01*
X52400000Y55058072D01*
X52275518Y55045812D01*
X52155820Y55009502D01*
X52045506Y54950537D01*
X51948815Y54871185D01*
X51869463Y54774494D01*
X51810498Y54664180D01*
X51774188Y54544482D01*
X51761928Y54420000D01*
X49127000Y54420000D01*
X49127000Y55960000D01*
X51761928Y55960000D01*
X51774188Y55835518D01*
X51810498Y55715820D01*
X51869463Y55605506D01*
X51948815Y55508815D01*
X52045506Y55429463D01*
X52155820Y55370498D01*
X52275518Y55334188D01*
X52400000Y55321928D01*
X53689250Y55325000D01*
X53848000Y55483750D01*
X53848000Y56333000D01*
X51923750Y56333000D01*
X51765000Y56174250D01*
X51761928Y55960000D01*
X49127000Y55960000D01*
X49127000Y56960000D01*
X51761928Y56960000D01*
X51765000Y56745750D01*
X51923750Y56587000D01*
X53848000Y56587000D01*
X53848000Y57436250D01*
X53689250Y57595000D01*
X52400000Y57598072D01*
X52275518Y57585812D01*
X52155820Y57549502D01*
X52045506Y57490537D01*
X51948815Y57411185D01*
X51869463Y57314494D01*
X51810498Y57204180D01*
X51774188Y57084482D01*
X51761928Y56960000D01*
X49127000Y56960000D01*
X49127000Y58500000D01*
X51761928Y58500000D01*
X51774188Y58375518D01*
X51810498Y58255820D01*
X51869463Y58145506D01*
X51948815Y58048815D01*
X52045506Y57969463D01*
X52155820Y57910498D01*
X52275518Y57874188D01*
X52400000Y57861928D01*
X53689250Y57865000D01*
X53848000Y58023750D01*
X53848000Y58873000D01*
X51923750Y58873000D01*
X51765000Y58714250D01*
X51761928Y58500000D01*
X49127000Y58500000D01*
X49127000Y59500000D01*
X51761928Y59500000D01*
X51765000Y59285750D01*
X51923750Y59127000D01*
X53848000Y59127000D01*
X53848000Y59976250D01*
X53689250Y60135000D01*
X52400000Y60138072D01*
X52275518Y60125812D01*
X52155820Y60089502D01*
X52045506Y60030537D01*
X51948815Y59951185D01*
X51869463Y59854494D01*
X51810498Y59744180D01*
X51774188Y59624482D01*
X51761928Y59500000D01*
X49127000Y59500000D01*
X49127000Y61040000D01*
X51761928Y61040000D01*
X51774188Y60915518D01*
X51810498Y60795820D01*
X51869463Y60685506D01*
X51948815Y60588815D01*
X52045506Y60509463D01*
X52155820Y60450498D01*
X52275518Y60414188D01*
X52400000Y60401928D01*
X53689250Y60405000D01*
X53848000Y60563750D01*
X53848000Y61413000D01*
X51923750Y61413000D01*
X51765000Y61254250D01*
X51761928Y61040000D01*
X49127000Y61040000D01*
X49127000Y62040000D01*
X51761928Y62040000D01*
X51765000Y61825750D01*
X51923750Y61667000D01*
X53848000Y61667000D01*
X53848000Y62516250D01*
X53689250Y62675000D01*
X52400000Y62678072D01*
X52275518Y62665812D01*
X52155820Y62629502D01*
X52045506Y62570537D01*
X51948815Y62491185D01*
X51869463Y62394494D01*
X51810498Y62284180D01*
X51774188Y62164482D01*
X51761928Y62040000D01*
X49127000Y62040000D01*
X49127000Y63580000D01*
X51761928Y63580000D01*
X51774188Y63455518D01*
X51810498Y63335820D01*
X51869463Y63225506D01*
X51948815Y63128815D01*
X52045506Y63049463D01*
X52155820Y62990498D01*
X52275518Y62954188D01*
X52400000Y62941928D01*
X53689250Y62945000D01*
X53848000Y63103750D01*
X53848000Y63953000D01*
X51923750Y63953000D01*
X51765000Y63794250D01*
X51761928Y63580000D01*
X49127000Y63580000D01*
X49127000Y64580000D01*
X51761928Y64580000D01*
X51765000Y64365750D01*
X51923750Y64207000D01*
X53848000Y64207000D01*
X53848000Y65056250D01*
X53689250Y65215000D01*
X52400000Y65218072D01*
X52275518Y65205812D01*
X52155820Y65169502D01*
X52045506Y65110537D01*
X51948815Y65031185D01*
X51869463Y64934494D01*
X51810498Y64824180D01*
X51774188Y64704482D01*
X51761928Y64580000D01*
X49127000Y64580000D01*
X49127000Y66491672D01*
X49140769Y66596257D01*
X49177923Y66685955D01*
X49237024Y66762976D01*
X49314045Y66822077D01*
X49403743Y66859231D01*
X49508328Y66873000D01*
X54991672Y66873000D01*
X55096257Y66859231D01*
%TA.AperFunction,Conductor*%
D35*
G36*
X55096257Y66859231D02*
G01*
X55185955Y66822077D01*
X55262976Y66762976D01*
X55322077Y66685955D01*
X55359231Y66596257D01*
X55373000Y66491672D01*
X55373000Y65217650D01*
X54260750Y65215000D01*
X54102000Y65056250D01*
X54102000Y64207000D01*
X54122000Y64207000D01*
X54122000Y63953000D01*
X54102000Y63953000D01*
X54102000Y63103750D01*
X54260750Y62945000D01*
X55373000Y62942350D01*
X55373000Y62677650D01*
X54260750Y62675000D01*
X54102000Y62516250D01*
X54102000Y61667000D01*
X54122000Y61667000D01*
X54122000Y61413000D01*
X54102000Y61413000D01*
X54102000Y60563750D01*
X54260750Y60405000D01*
X55373000Y60402350D01*
X55373000Y60137650D01*
X54260750Y60135000D01*
X54102000Y59976250D01*
X54102000Y59127000D01*
X54122000Y59127000D01*
X54122000Y58873000D01*
X54102000Y58873000D01*
X54102000Y58023750D01*
X54260750Y57865000D01*
X55373000Y57862350D01*
X55373000Y57597650D01*
X54260750Y57595000D01*
X54102000Y57436250D01*
X54102000Y56587000D01*
X54122000Y56587000D01*
X54122000Y56333000D01*
X54102000Y56333000D01*
X54102000Y55483750D01*
X54260750Y55325000D01*
X55373000Y55322350D01*
X55373000Y55057650D01*
X54260750Y55055000D01*
X54102000Y54896250D01*
X54102000Y54047000D01*
X54122000Y54047000D01*
X54122000Y53793000D01*
X54102000Y53793000D01*
X54102000Y52943750D01*
X54260750Y52785000D01*
X55297893Y52782529D01*
X55262976Y52737024D01*
X55185955Y52677923D01*
X55096257Y52640769D01*
X54991672Y52627000D01*
X49508328Y52627000D01*
X49403743Y52640769D01*
X49314045Y52677923D01*
X49237024Y52737024D01*
X49177923Y52814045D01*
X49140769Y52903743D01*
X49127000Y53008328D01*
X49127000Y53420000D01*
X51761928Y53420000D01*
X51774188Y53295518D01*
X51810498Y53175820D01*
X51869463Y53065506D01*
X51948815Y52968815D01*
X52045506Y52889463D01*
X52155820Y52830498D01*
X52275518Y52794188D01*
X52400000Y52781928D01*
X53689250Y52785000D01*
X53848000Y52943750D01*
X53848000Y53793000D01*
X51923750Y53793000D01*
X51765000Y53634250D01*
X51761928Y53420000D01*
X49127000Y53420000D01*
X49127000Y54420000D01*
X51761928Y54420000D01*
X51765000Y54205750D01*
X51923750Y54047000D01*
X53848000Y54047000D01*
X53848000Y54896250D01*
X53689250Y55055000D01*
X52400000Y55058072D01*
X52275518Y55045812D01*
X52155820Y55009502D01*
X52045506Y54950537D01*
X51948815Y54871185D01*
X51869463Y54774494D01*
X51810498Y54664180D01*
X51774188Y54544482D01*
X51761928Y54420000D01*
X49127000Y54420000D01*
X49127000Y55960000D01*
X51761928Y55960000D01*
X51774188Y55835518D01*
X51810498Y55715820D01*
X51869463Y55605506D01*
X51948815Y55508815D01*
X52045506Y55429463D01*
X52155820Y55370498D01*
X52275518Y55334188D01*
X52400000Y55321928D01*
X53689250Y55325000D01*
X53848000Y55483750D01*
X53848000Y56333000D01*
X51923750Y56333000D01*
X51765000Y56174250D01*
X51761928Y55960000D01*
X49127000Y55960000D01*
X49127000Y56960000D01*
X51761928Y56960000D01*
X51765000Y56745750D01*
X51923750Y56587000D01*
X53848000Y56587000D01*
X53848000Y57436250D01*
X53689250Y57595000D01*
X52400000Y57598072D01*
X52275518Y57585812D01*
X52155820Y57549502D01*
X52045506Y57490537D01*
X51948815Y57411185D01*
X51869463Y57314494D01*
X51810498Y57204180D01*
X51774188Y57084482D01*
X51761928Y56960000D01*
X49127000Y56960000D01*
X49127000Y58500000D01*
X51761928Y58500000D01*
X51774188Y58375518D01*
X51810498Y58255820D01*
X51869463Y58145506D01*
X51948815Y58048815D01*
X52045506Y57969463D01*
X52155820Y57910498D01*
X52275518Y57874188D01*
X52400000Y57861928D01*
X53689250Y57865000D01*
X53848000Y58023750D01*
X53848000Y58873000D01*
X51923750Y58873000D01*
X51765000Y58714250D01*
X51761928Y58500000D01*
X49127000Y58500000D01*
X49127000Y59500000D01*
X51761928Y59500000D01*
X51765000Y59285750D01*
X51923750Y59127000D01*
X53848000Y59127000D01*
X53848000Y59976250D01*
X53689250Y60135000D01*
X52400000Y60138072D01*
X52275518Y60125812D01*
X52155820Y60089502D01*
X52045506Y60030537D01*
X51948815Y59951185D01*
X51869463Y59854494D01*
X51810498Y59744180D01*
X51774188Y59624482D01*
X51761928Y59500000D01*
X49127000Y59500000D01*
X49127000Y61040000D01*
X51761928Y61040000D01*
X51774188Y60915518D01*
X51810498Y60795820D01*
X51869463Y60685506D01*
X51948815Y60588815D01*
X52045506Y60509463D01*
X52155820Y60450498D01*
X52275518Y60414188D01*
X52400000Y60401928D01*
X53689250Y60405000D01*
X53848000Y60563750D01*
X53848000Y61413000D01*
X51923750Y61413000D01*
X51765000Y61254250D01*
X51761928Y61040000D01*
X49127000Y61040000D01*
X49127000Y62040000D01*
X51761928Y62040000D01*
X51765000Y61825750D01*
X51923750Y61667000D01*
X53848000Y61667000D01*
X53848000Y62516250D01*
X53689250Y62675000D01*
X52400000Y62678072D01*
X52275518Y62665812D01*
X52155820Y62629502D01*
X52045506Y62570537D01*
X51948815Y62491185D01*
X51869463Y62394494D01*
X51810498Y62284180D01*
X51774188Y62164482D01*
X51761928Y62040000D01*
X49127000Y62040000D01*
X49127000Y63580000D01*
X51761928Y63580000D01*
X51774188Y63455518D01*
X51810498Y63335820D01*
X51869463Y63225506D01*
X51948815Y63128815D01*
X52045506Y63049463D01*
X52155820Y62990498D01*
X52275518Y62954188D01*
X52400000Y62941928D01*
X53689250Y62945000D01*
X53848000Y63103750D01*
X53848000Y63953000D01*
X51923750Y63953000D01*
X51765000Y63794250D01*
X51761928Y63580000D01*
X49127000Y63580000D01*
X49127000Y64580000D01*
X51761928Y64580000D01*
X51765000Y64365750D01*
X51923750Y64207000D01*
X53848000Y64207000D01*
X53848000Y65056250D01*
X53689250Y65215000D01*
X52400000Y65218072D01*
X52275518Y65205812D01*
X52155820Y65169502D01*
X52045506Y65110537D01*
X51948815Y65031185D01*
X51869463Y64934494D01*
X51810498Y64824180D01*
X51774188Y64704482D01*
X51761928Y64580000D01*
X49127000Y64580000D01*
X49127000Y66491672D01*
X49140769Y66596257D01*
X49177923Y66685955D01*
X49237024Y66762976D01*
X49314045Y66822077D01*
X49403743Y66859231D01*
X49508328Y66873000D01*
X54991672Y66873000D01*
X55096257Y66859231D01*
G37*
%TD.AperFunction*%
%TD*%
D36*
X35500000Y66500000D03*
X39250000Y60250002D03*
X6600000Y29400000D03*
X5000000Y40200000D03*
X14600000Y48800000D03*
X14700008Y19500008D03*
X12600000Y68600000D03*
X14100006Y64218990D03*
X36500000Y64218990D03*
X17870001Y9729999D03*
X17869995Y3730005D03*
X4000000Y53749996D03*
X4000004Y53000000D03*
X4000000Y9000000D03*
X4000000Y8250000D03*
X11400000Y65200000D03*
X39200000Y63600000D03*
X27000000Y69750000D03*
X38500000Y69750000D03*
X41500000Y62500000D03*
X42700000Y62500000D03*
X43900000Y62500000D03*
X45100000Y62500000D03*
X46300000Y62500000D03*
X47500000Y62500000D03*
X41500000Y61300000D03*
X42700000Y61300000D03*
X43900000Y61300000D03*
X45100000Y61300000D03*
X46300000Y61300000D03*
X47500000Y61300000D03*
X41500000Y60100000D03*
X42700000Y60100000D03*
X43900000Y60100000D03*
X45100000Y60100000D03*
X46300000Y60100000D03*
X47500000Y60100000D03*
X41500000Y58900000D03*
X42700000Y58900000D03*
X43900000Y58900000D03*
X45100000Y58900000D03*
X46300000Y58900000D03*
X47500000Y58900000D03*
X41500000Y57700000D03*
X42700000Y57700000D03*
X43900000Y57700000D03*
X45100000Y57700000D03*
X46300000Y57700000D03*
X47500000Y57700000D03*
X41500000Y56500000D03*
X42700000Y56500000D03*
X43900000Y56500000D03*
X45100000Y56500000D03*
X46300000Y56500000D03*
X47500000Y56500000D03*
X23600000Y29200000D03*
X28200000Y14400000D03*
X23800000Y12200000D03*
X14020000Y42770000D03*
X72000000Y33440990D03*
X26599989Y29200011D03*
X14020000Y43480000D03*
X59000000Y53000000D03*
X58250000Y53000000D03*
X72000000Y32600000D03*
X20250000Y28500000D03*
X21000000Y28500000D03*
X21750000Y28500000D03*
X50250000Y64000000D03*
X50250000Y59000000D03*
X50250000Y56500000D03*
X51250000Y64000000D03*
X51250000Y61500000D03*
X51250000Y59000000D03*
X51250000Y56500000D03*
X51250000Y53750000D03*
X50250000Y61500000D03*
X50250000Y53750000D03*
X10750000Y15000000D03*
X13750000Y15000000D03*
X14250000Y16250000D03*
X5624984Y16750000D03*
X36500000Y62000000D03*
X27750000Y68500000D03*
X17250000Y69500000D03*
X28250000Y62000000D03*
X45750000Y53000000D03*
X27750000Y56750000D03*
X39800000Y35400000D03*
X27355490Y41000000D03*
X25750000Y42500000D03*
X41000000Y35250002D03*
X27555490Y23151490D03*
X40750002Y16250000D03*
X31750000Y20250000D03*
X26200000Y58000000D03*
X26000000Y24250000D03*
X29880004Y24250000D03*
X31750000Y32750000D03*
X32950000Y32750000D03*
X34150000Y32750000D03*
X35350000Y32750000D03*
X36550000Y32750000D03*
X37750000Y32750000D03*
X31750000Y31550000D03*
X32950000Y31550000D03*
X34150000Y31550000D03*
X35350000Y31550000D03*
X36550000Y31550000D03*
X37750000Y31550000D03*
X31750000Y30350000D03*
X32950000Y30350000D03*
X34150000Y30350000D03*
X35350000Y30350000D03*
X36550000Y30350000D03*
X37750000Y30350000D03*
X31750000Y29150000D03*
X32950000Y29150000D03*
X34150000Y29150000D03*
X35350000Y29150000D03*
X36550000Y29150000D03*
X37750000Y29150000D03*
X31750000Y27950000D03*
X32950000Y27950000D03*
X34150000Y27950000D03*
X35350000Y27950000D03*
X36550000Y27950000D03*
X37750000Y27950000D03*
X31750000Y26750000D03*
X32950000Y26750000D03*
X34150000Y26750000D03*
X35350000Y26750000D03*
X36550000Y26750000D03*
X37750000Y26750000D03*
X32950000Y20250000D03*
X34150000Y20250000D03*
X35350000Y20250000D03*
X36550000Y20250000D03*
X37750000Y20250000D03*
X31750000Y19050000D03*
X32950000Y19050000D03*
X34150000Y19050000D03*
X35350000Y19050000D03*
X36550000Y19050000D03*
X37750000Y19050000D03*
X31750000Y17850000D03*
X32950000Y17850000D03*
X34150000Y17850000D03*
X35350000Y17850000D03*
X36550000Y17850000D03*
X37750000Y17850000D03*
X31750000Y16650000D03*
X32950000Y16650000D03*
X34150000Y16650000D03*
X35350000Y16650000D03*
X36550000Y16650000D03*
X37750000Y16650000D03*
X31750000Y15450000D03*
X32950000Y15450000D03*
X34150000Y15450000D03*
X35350000Y15450000D03*
X36550000Y15450000D03*
X37750000Y15450000D03*
X31750000Y14250000D03*
X32950000Y14250000D03*
X34150000Y14250000D03*
X35350000Y14250000D03*
X36550000Y14250000D03*
X37750000Y14250000D03*
X29000000Y58000000D03*
X38000000Y11500000D03*
X27920047Y12500000D03*
X38250000Y66250000D03*
X40200000Y66000000D03*
X28200000Y43600000D03*
X27902841Y38097159D03*
X28000000Y36600000D03*
X75000000Y33094510D03*
X75000000Y32000000D03*
X28500000Y28750000D03*
X59160000Y19210000D03*
X56910000Y40910000D03*
X97000000Y48000000D03*
X97000000Y53080000D03*
X90000000Y3000000D03*
X90000000Y8000000D03*
X90000000Y13000000D03*
X82500000Y3000000D03*
X82500000Y8000000D03*
X82500000Y13000000D03*
X90000000Y28000000D03*
X82500000Y28000000D03*
X75000000Y3000000D03*
X75000000Y8000000D03*
X75000000Y13000000D03*
X67500000Y3000000D03*
X67500000Y8000000D03*
X67500000Y13000000D03*
X75000000Y28000000D03*
X67500000Y28000000D03*
X90000000Y36000000D03*
X90000000Y41000000D03*
X90000000Y46000000D03*
X82500000Y36000000D03*
X82500000Y41000000D03*
X82500000Y46000000D03*
X90000000Y61000000D03*
X82500000Y61000000D03*
X75000000Y36000000D03*
X75000000Y41000000D03*
X75000000Y46000000D03*
X67500000Y36000000D03*
X67500000Y41000000D03*
X67500000Y46000000D03*
X75000000Y61000000D03*
X67500000Y61000000D03*
X97000000Y64000000D03*
X97000000Y69080000D03*
X97000000Y6000000D03*
X97000000Y11080000D03*
X97000000Y16160000D03*
X97000000Y27090000D03*
X97000000Y32170000D03*
X97000000Y37250000D03*
X6056810Y5187500D03*
X6056810Y2812500D03*
X4000000Y1625000D03*
X1943190Y2812500D03*
X1943190Y5187500D03*
X4000000Y6375000D03*
X4000000Y4000000D03*
X6056810Y72187500D03*
X6056810Y69812500D03*
X4000000Y68625000D03*
X1943190Y69812500D03*
X1943190Y72187500D03*
X4000000Y73375000D03*
X4000000Y71000000D03*
X67900000Y69500000D03*
X90500000Y69500000D03*
M02*
