%TF.GenerationSoftware,KiCad,Pcbnew,(5.1.10)-1*%
%TF.CreationDate,2022-06-02T12:59:49+08:00*%
%TF.ProjectId,motor_control,6d6f746f-725f-4636-9f6e-74726f6c2e6b,rev?*%
%TF.SameCoordinates,Original*%
%TF.FileFunction,Legend,Top*%
%TF.FilePolarity,Positive*%
%FSLAX46Y46*%
G04 Gerber Fmt 4.6, Leading zero omitted, Abs format (unit mm)*
G04 Created by KiCad (PCBNEW (5.1.10)-1) date 2022-06-02 12:59:49*
%MOMM*%
%LPD*%
G01*
G04 APERTURE LIST*
%ADD10C,0.150000*%
%ADD11C,0.120000*%
%ADD12C,0.200000*%
%ADD13C,0.254000*%
%ADD14C,0.300000*%
%ADD15C,0.400000*%
G04 APERTURE END LIST*
D10*
X62547619Y9214286D02*
X63547619Y9214286D01*
X62833333Y8880953D01*
X63547619Y8547620D01*
X62547619Y8547620D01*
X63547619Y7880953D02*
X63547619Y7690477D01*
X63500000Y7595239D01*
X63404761Y7500000D01*
X63214285Y7452381D01*
X62880952Y7452381D01*
X62690476Y7500000D01*
X62595238Y7595239D01*
X62547619Y7690477D01*
X62547619Y7880953D01*
X62595238Y7976191D01*
X62690476Y8071429D01*
X62880952Y8119048D01*
X63214285Y8119048D01*
X63404761Y8071429D01*
X63500000Y7976191D01*
X63547619Y7880953D01*
X63547619Y7166667D02*
X63547619Y6595239D01*
X62547619Y6880953D02*
X63547619Y6880953D01*
X63452380Y6309524D02*
X63500000Y6261905D01*
X63547619Y6166667D01*
X63547619Y5928572D01*
X63500000Y5833334D01*
X63452380Y5785715D01*
X63357142Y5738096D01*
X63261904Y5738096D01*
X63119047Y5785715D01*
X62547619Y6357143D01*
X62547619Y5738096D01*
X63452380Y29285715D02*
X62452380Y29285715D01*
X63166666Y29619048D01*
X62452380Y29952381D01*
X63452380Y29952381D01*
X62452380Y30619048D02*
X62452380Y30809524D01*
X62500000Y30904762D01*
X62595238Y31000000D01*
X62785714Y31047620D01*
X63119047Y31047620D01*
X63309523Y31000000D01*
X63404761Y30904762D01*
X63452380Y30809524D01*
X63452380Y30619048D01*
X63404761Y30523810D01*
X63309523Y30428572D01*
X63119047Y30380953D01*
X62785714Y30380953D01*
X62595238Y30428572D01*
X62500000Y30523810D01*
X62452380Y30619048D01*
X62452380Y31333334D02*
X62452380Y31904762D01*
X63452380Y31619048D02*
X62452380Y31619048D01*
X63452380Y32761905D02*
X63452380Y32190477D01*
X63452380Y32476191D02*
X62452380Y32476191D01*
X62595238Y32380953D01*
X62690476Y32285715D01*
X62738095Y32190477D01*
X35916666Y41928572D02*
X35916666Y42404762D01*
X36202380Y41833334D02*
X35202380Y42166667D01*
X36202380Y42500000D01*
X36107142Y43404762D02*
X36154761Y43357143D01*
X36202380Y43214286D01*
X36202380Y43119048D01*
X36154761Y42976191D01*
X36059523Y42880953D01*
X35964285Y42833334D01*
X35773809Y42785715D01*
X35630952Y42785715D01*
X35440476Y42833334D01*
X35345238Y42880953D01*
X35250000Y42976191D01*
X35202380Y43119048D01*
X35202380Y43214286D01*
X35250000Y43357143D01*
X35297619Y43404762D01*
X36202380Y45071429D02*
X36202380Y44595239D01*
X35202380Y44595239D01*
X35678571Y46500000D02*
X35678571Y46166667D01*
X36202380Y46166667D02*
X35202380Y46166667D01*
X35202380Y46642858D01*
X35535714Y47452381D02*
X36202380Y47452381D01*
X35535714Y47023810D02*
X36059523Y47023810D01*
X36154761Y47071429D01*
X36202380Y47166667D01*
X36202380Y47309524D01*
X36154761Y47404762D01*
X36107142Y47452381D01*
X36154761Y47880953D02*
X36202380Y47976191D01*
X36202380Y48166667D01*
X36154761Y48261905D01*
X36059523Y48309524D01*
X36011904Y48309524D01*
X35916666Y48261905D01*
X35869047Y48166667D01*
X35869047Y48023810D01*
X35821428Y47928572D01*
X35726190Y47880953D01*
X35678571Y47880953D01*
X35583333Y47928572D01*
X35535714Y48023810D01*
X35535714Y48166667D01*
X35583333Y48261905D01*
X36154761Y49119048D02*
X36202380Y49023810D01*
X36202380Y48833334D01*
X36154761Y48738096D01*
X36059523Y48690477D01*
X35678571Y48690477D01*
X35583333Y48738096D01*
X35535714Y48833334D01*
X35535714Y49023810D01*
X35583333Y49119048D01*
X35678571Y49166667D01*
X35773809Y49166667D01*
X35869047Y48690477D01*
X36202380Y50023810D02*
X35202380Y50023810D01*
X36154761Y50023810D02*
X36202380Y49928572D01*
X36202380Y49738096D01*
X36154761Y49642858D01*
X36107142Y49595239D01*
X36011904Y49547620D01*
X35726190Y49547620D01*
X35630952Y49595239D01*
X35583333Y49642858D01*
X35535714Y49738096D01*
X35535714Y49928572D01*
X35583333Y50023810D01*
X31666666Y63702381D02*
X31666666Y64178572D01*
X31952380Y63607143D02*
X30952380Y63940477D01*
X31952380Y64273810D01*
X31857142Y65178572D02*
X31904761Y65130953D01*
X31952380Y64988096D01*
X31952380Y64892858D01*
X31904761Y64750000D01*
X31809523Y64654762D01*
X31714285Y64607143D01*
X31523809Y64559524D01*
X31380952Y64559524D01*
X31190476Y64607143D01*
X31095238Y64654762D01*
X31000000Y64750000D01*
X30952380Y64892858D01*
X30952380Y64988096D01*
X31000000Y65130953D01*
X31047619Y65178572D01*
X31952380Y66845239D02*
X31952380Y66369048D01*
X30952380Y66369048D01*
X31904761Y67892858D02*
X31952380Y68035715D01*
X31952380Y68273810D01*
X31904761Y68369048D01*
X31857142Y68416667D01*
X31761904Y68464286D01*
X31666666Y68464286D01*
X31571428Y68416667D01*
X31523809Y68369048D01*
X31476190Y68273810D01*
X31428571Y68083334D01*
X31380952Y67988096D01*
X31333333Y67940477D01*
X31238095Y67892858D01*
X31142857Y67892858D01*
X31047619Y67940477D01*
X31000000Y67988096D01*
X30952380Y68083334D01*
X30952380Y68321429D01*
X31000000Y68464286D01*
X31904761Y69273810D02*
X31952380Y69178572D01*
X31952380Y68988096D01*
X31904761Y68892858D01*
X31809523Y68845239D01*
X31428571Y68845239D01*
X31333333Y68892858D01*
X31285714Y68988096D01*
X31285714Y69178572D01*
X31333333Y69273810D01*
X31428571Y69321429D01*
X31523809Y69321429D01*
X31619047Y68845239D01*
X31285714Y69750000D02*
X31952380Y69750000D01*
X31380952Y69750000D02*
X31333333Y69797620D01*
X31285714Y69892858D01*
X31285714Y70035715D01*
X31333333Y70130953D01*
X31428571Y70178572D01*
X31952380Y70178572D01*
X31904761Y70607143D02*
X31952380Y70702381D01*
X31952380Y70892858D01*
X31904761Y70988096D01*
X31809523Y71035715D01*
X31761904Y71035715D01*
X31666666Y70988096D01*
X31619047Y70892858D01*
X31619047Y70750000D01*
X31571428Y70654762D01*
X31476190Y70607143D01*
X31428571Y70607143D01*
X31333333Y70654762D01*
X31285714Y70750000D01*
X31285714Y70892858D01*
X31333333Y70988096D01*
X31904761Y71845239D02*
X31952380Y71750000D01*
X31952380Y71559524D01*
X31904761Y71464286D01*
X31809523Y71416667D01*
X31428571Y71416667D01*
X31333333Y71464286D01*
X31285714Y71559524D01*
X31285714Y71750000D01*
X31333333Y71845239D01*
X31428571Y71892858D01*
X31523809Y71892858D01*
X31619047Y71416667D01*
X31952380Y72750000D02*
X30952380Y72750000D01*
X31904761Y72750000D02*
X31952380Y72654762D01*
X31952380Y72464286D01*
X31904761Y72369048D01*
X31857142Y72321429D01*
X31761904Y72273810D01*
X31476190Y72273810D01*
X31380952Y72321429D01*
X31333333Y72369048D01*
X31285714Y72464286D01*
X31285714Y72654762D01*
X31333333Y72750000D01*
X50178571Y68833334D02*
X50654761Y68833334D01*
X50083333Y68547620D02*
X50416666Y69547620D01*
X50750000Y68547620D01*
X51654761Y68642858D02*
X51607142Y68595239D01*
X51464285Y68547620D01*
X51369047Y68547620D01*
X51226190Y68595239D01*
X51130952Y68690477D01*
X51083333Y68785715D01*
X51035714Y68976191D01*
X51035714Y69119048D01*
X51083333Y69309524D01*
X51130952Y69404762D01*
X51226190Y69500000D01*
X51369047Y69547620D01*
X51464285Y69547620D01*
X51607142Y69500000D01*
X51654761Y69452381D01*
X53321428Y68547620D02*
X52845238Y68547620D01*
X52845238Y69547620D01*
X54750000Y69071429D02*
X54416666Y69071429D01*
X54416666Y68547620D02*
X54416666Y69547620D01*
X54892857Y69547620D01*
X55702380Y69214286D02*
X55702380Y68547620D01*
X55273809Y69214286D02*
X55273809Y68690477D01*
X55321428Y68595239D01*
X55416666Y68547620D01*
X55559523Y68547620D01*
X55654761Y68595239D01*
X55702380Y68642858D01*
X56130952Y68595239D02*
X56226190Y68547620D01*
X56416666Y68547620D01*
X56511904Y68595239D01*
X56559523Y68690477D01*
X56559523Y68738096D01*
X56511904Y68833334D01*
X56416666Y68880953D01*
X56273809Y68880953D01*
X56178571Y68928572D01*
X56130952Y69023810D01*
X56130952Y69071429D01*
X56178571Y69166667D01*
X56273809Y69214286D01*
X56416666Y69214286D01*
X56511904Y69166667D01*
X57369047Y68595239D02*
X57273809Y68547620D01*
X57083333Y68547620D01*
X56988095Y68595239D01*
X56940476Y68690477D01*
X56940476Y69071429D01*
X56988095Y69166667D01*
X57083333Y69214286D01*
X57273809Y69214286D01*
X57369047Y69166667D01*
X57416666Y69071429D01*
X57416666Y68976191D01*
X56940476Y68880953D01*
X58273809Y68547620D02*
X58273809Y69547620D01*
X58273809Y68595239D02*
X58178571Y68547620D01*
X57988095Y68547620D01*
X57892857Y68595239D01*
X57845238Y68642858D01*
X57797619Y68738096D01*
X57797619Y69023810D01*
X57845238Y69119048D01*
X57892857Y69166667D01*
X57988095Y69214286D01*
X58178571Y69214286D01*
X58273809Y69166667D01*
X93452380Y5119048D02*
X92452380Y5119048D01*
X93166666Y5452381D01*
X92452380Y5785715D01*
X93452380Y5785715D01*
X92547619Y6214286D02*
X92500000Y6261905D01*
X92452380Y6357143D01*
X92452380Y6595239D01*
X92500000Y6690477D01*
X92547619Y6738096D01*
X92642857Y6785715D01*
X92738095Y6785715D01*
X92880952Y6738096D01*
X93452380Y6166667D01*
X93452380Y6785715D01*
X93357142Y7785715D02*
X93404761Y7738096D01*
X93452380Y7595239D01*
X93452380Y7500000D01*
X93404761Y7357143D01*
X93309523Y7261905D01*
X93214285Y7214286D01*
X93023809Y7166667D01*
X92880952Y7166667D01*
X92690476Y7214286D01*
X92595238Y7261905D01*
X92500000Y7357143D01*
X92452380Y7500000D01*
X92452380Y7595239D01*
X92500000Y7738096D01*
X92547619Y7785715D01*
X92452380Y8119048D02*
X93452380Y8357143D01*
X92738095Y8547620D01*
X93452380Y8738096D01*
X92452380Y8976191D01*
X89136294Y15496531D02*
X88429187Y16203638D01*
X89169965Y15934264D01*
X88900591Y16675043D01*
X89607698Y15967936D01*
X89270981Y16910745D02*
X89270981Y16978088D01*
X89304652Y17079104D01*
X89473011Y17247462D01*
X89574026Y17281134D01*
X89641370Y17281134D01*
X89742385Y17247462D01*
X89809729Y17180119D01*
X89877072Y17045432D01*
X89877072Y16237310D01*
X90314805Y16675043D01*
X90954568Y17449493D02*
X90954568Y17382149D01*
X90887225Y17247462D01*
X90819881Y17180119D01*
X90685194Y17112775D01*
X90550507Y17112775D01*
X90449492Y17146447D01*
X90281133Y17247462D01*
X90180118Y17348478D01*
X90079103Y17516836D01*
X90045431Y17617852D01*
X90045431Y17752539D01*
X90112774Y17887226D01*
X90180118Y17954569D01*
X90314805Y18021913D01*
X90382148Y18021913D01*
X91661675Y18156600D02*
X91661675Y18089256D01*
X91594331Y17954569D01*
X91526988Y17887226D01*
X91392301Y17819882D01*
X91257614Y17819882D01*
X91156599Y17853554D01*
X90988240Y17954569D01*
X90887225Y18055584D01*
X90786209Y18223943D01*
X90752538Y18324958D01*
X90752538Y18459645D01*
X90819881Y18594332D01*
X90887225Y18661676D01*
X91021912Y18729019D01*
X91089255Y18729019D01*
X91257614Y19032065D02*
X92133079Y18493317D01*
X91762690Y19133080D01*
X92402453Y18762691D01*
X91863705Y19638157D01*
X91100084Y34010153D02*
X91807190Y34717260D01*
X91537816Y33976481D01*
X92278595Y34245855D01*
X91571488Y33538749D01*
X92278595Y32831642D02*
X91874534Y33235703D01*
X92076564Y33033672D02*
X92783671Y33740779D01*
X92615312Y33707107D01*
X92480625Y33707107D01*
X92379610Y33740779D01*
X93053045Y32191878D02*
X92985702Y32191878D01*
X92851015Y32259222D01*
X92783671Y32326565D01*
X92716328Y32461252D01*
X92716328Y32595939D01*
X92750000Y32696955D01*
X92851015Y32865313D01*
X92952030Y32966329D01*
X93120389Y33067344D01*
X93221404Y33101016D01*
X93356091Y33101016D01*
X93490778Y33033672D01*
X93558122Y32966329D01*
X93625465Y32831642D01*
X93625465Y32764298D01*
X93928511Y32595939D02*
X93389763Y31720474D01*
X94029526Y32090863D01*
X93659137Y31451100D01*
X94534602Y31989848D01*
X92106767Y44753470D02*
X92813874Y45460576D01*
X92544500Y44719798D01*
X93285278Y44989172D01*
X92578172Y44282065D01*
X93756683Y44517767D02*
X93891370Y44383080D01*
X93925042Y44282065D01*
X93925042Y44147378D01*
X93824026Y43979019D01*
X93588324Y43743317D01*
X93419965Y43642302D01*
X93285278Y43642302D01*
X93184263Y43675974D01*
X93049576Y43810661D01*
X93015904Y43911676D01*
X93015904Y44046363D01*
X93116920Y44214722D01*
X93352622Y44450424D01*
X93520981Y44551439D01*
X93655668Y44551439D01*
X93756683Y44517767D01*
X94261759Y44012691D02*
X94665820Y43608630D01*
X93756683Y43103554D02*
X94463790Y43810661D01*
X94564805Y42295432D02*
X94160744Y42699493D01*
X94362774Y42497462D02*
X95069881Y43204569D01*
X94901522Y43170897D01*
X94766835Y43170897D01*
X94665820Y43204569D01*
X95339255Y41655669D02*
X95271912Y41655669D01*
X95137225Y41723012D01*
X95069881Y41790356D01*
X95002538Y41925043D01*
X95002538Y42059730D01*
X95036209Y42160745D01*
X95137225Y42329104D01*
X95238240Y42430119D01*
X95406599Y42531134D01*
X95507614Y42564806D01*
X95642301Y42564806D01*
X95776988Y42497462D01*
X95844331Y42430119D01*
X95911675Y42295432D01*
X95911675Y42228088D01*
X96046362Y40948562D02*
X95979018Y40948562D01*
X95844331Y41015905D01*
X95776988Y41083249D01*
X95709644Y41217936D01*
X95709644Y41352623D01*
X95743316Y41453638D01*
X95844331Y41621997D01*
X95945347Y41723012D01*
X96113705Y41824027D01*
X96214721Y41857699D01*
X96349408Y41857699D01*
X96484095Y41790356D01*
X96551438Y41723012D01*
X96618782Y41588325D01*
X96618782Y41520982D01*
X96921827Y41352623D02*
X96383079Y40477157D01*
X97022843Y40847547D01*
X96652453Y40207783D01*
X97527919Y40746531D01*
X83976190Y64583334D02*
X84452380Y64583334D01*
X83880952Y64297620D02*
X84214285Y65297620D01*
X84547619Y64297620D01*
X85452380Y64392858D02*
X85404761Y64345239D01*
X85261904Y64297620D01*
X85166666Y64297620D01*
X85023809Y64345239D01*
X84928571Y64440477D01*
X84880952Y64535715D01*
X84833333Y64726191D01*
X84833333Y64869048D01*
X84880952Y65059524D01*
X84928571Y65154762D01*
X85023809Y65250000D01*
X85166666Y65297620D01*
X85261904Y65297620D01*
X85404761Y65250000D01*
X85452380Y65202381D01*
X87119047Y64297620D02*
X86642857Y64297620D01*
X86642857Y65297620D01*
X85785714Y52833334D02*
X86261904Y52833334D01*
X85690476Y52547620D02*
X86023809Y53547620D01*
X86357142Y52547620D01*
X86690476Y53547620D02*
X86690476Y52738096D01*
X86738095Y52642858D01*
X86785714Y52595239D01*
X86880952Y52547620D01*
X87071428Y52547620D01*
X87166666Y52595239D01*
X87214285Y52642858D01*
X87261904Y52738096D01*
X87261904Y53547620D01*
X87642857Y53547620D02*
X88309523Y52547620D01*
X88309523Y53547620D02*
X87642857Y52547620D01*
X89214285Y52547620D02*
X88642857Y52547620D01*
X88928571Y52547620D02*
X88928571Y53547620D01*
X88833333Y53404762D01*
X88738095Y53309524D01*
X88642857Y53261905D01*
D11*
X30000000Y1200000D02*
X30000000Y8600000D01*
X60400000Y1200000D02*
X30000000Y1200000D01*
X60400000Y8600000D02*
X60400000Y1200000D01*
X30000000Y8600000D02*
X60400000Y8600000D01*
D10*
X31307023Y7022620D02*
X30973690Y7498810D01*
X30735595Y7022620D02*
X30735595Y8022620D01*
X31116547Y8022620D01*
X31211785Y7975000D01*
X31259404Y7927381D01*
X31307023Y7832143D01*
X31307023Y7689286D01*
X31259404Y7594048D01*
X31211785Y7546429D01*
X31116547Y7498810D01*
X30735595Y7498810D01*
X31878452Y7022620D02*
X31783214Y7070239D01*
X31735595Y7117858D01*
X31687976Y7213096D01*
X31687976Y7498810D01*
X31735595Y7594048D01*
X31783214Y7641667D01*
X31878452Y7689286D01*
X32021309Y7689286D01*
X32116547Y7641667D01*
X32164166Y7594048D01*
X32211785Y7498810D01*
X32211785Y7213096D01*
X32164166Y7117858D01*
X32116547Y7070239D01*
X32021309Y7022620D01*
X31878452Y7022620D01*
X32497500Y7689286D02*
X32878452Y7689286D01*
X32640357Y8022620D02*
X32640357Y7165477D01*
X32687976Y7070239D01*
X32783214Y7022620D01*
X32878452Y7022620D01*
X33640357Y7022620D02*
X33640357Y7546429D01*
X33592738Y7641667D01*
X33497500Y7689286D01*
X33307023Y7689286D01*
X33211785Y7641667D01*
X33640357Y7070239D02*
X33545119Y7022620D01*
X33307023Y7022620D01*
X33211785Y7070239D01*
X33164166Y7165477D01*
X33164166Y7260715D01*
X33211785Y7355953D01*
X33307023Y7403572D01*
X33545119Y7403572D01*
X33640357Y7451191D01*
X33973690Y7689286D02*
X34354642Y7689286D01*
X34116547Y8022620D02*
X34116547Y7165477D01*
X34164166Y7070239D01*
X34259404Y7022620D01*
X34354642Y7022620D01*
X34830833Y7022620D02*
X34735595Y7070239D01*
X34687976Y7117858D01*
X34640357Y7213096D01*
X34640357Y7498810D01*
X34687976Y7594048D01*
X34735595Y7641667D01*
X34830833Y7689286D01*
X34973690Y7689286D01*
X35068928Y7641667D01*
X35116547Y7594048D01*
X35164166Y7498810D01*
X35164166Y7213096D01*
X35116547Y7117858D01*
X35068928Y7070239D01*
X34973690Y7022620D01*
X34830833Y7022620D01*
X35592738Y7022620D02*
X35592738Y7689286D01*
X35592738Y7498810D02*
X35640357Y7594048D01*
X35687976Y7641667D01*
X35783214Y7689286D01*
X35878452Y7689286D01*
X36973690Y7022620D02*
X36973690Y8022620D01*
X37449880Y7689286D02*
X37449880Y7022620D01*
X37449880Y7594048D02*
X37497500Y7641667D01*
X37592738Y7689286D01*
X37735595Y7689286D01*
X37830833Y7641667D01*
X37878452Y7546429D01*
X37878452Y7022620D01*
X38211785Y7689286D02*
X38592738Y7689286D01*
X38354642Y8022620D02*
X38354642Y7165477D01*
X38402261Y7070239D01*
X38497500Y7022620D01*
X38592738Y7022620D01*
X39307023Y7070239D02*
X39211785Y7022620D01*
X39021309Y7022620D01*
X38926071Y7070239D01*
X38878452Y7165477D01*
X38878452Y7546429D01*
X38926071Y7641667D01*
X39021309Y7689286D01*
X39211785Y7689286D01*
X39307023Y7641667D01*
X39354642Y7546429D01*
X39354642Y7451191D01*
X38878452Y7355953D01*
X39783214Y7022620D02*
X39783214Y7689286D01*
X39783214Y7498810D02*
X39830833Y7594048D01*
X39878452Y7641667D01*
X39973690Y7689286D01*
X40068928Y7689286D01*
X40259404Y7689286D02*
X40640357Y7689286D01*
X40402261Y7022620D02*
X40402261Y7879762D01*
X40449880Y7975000D01*
X40545119Y8022620D01*
X40640357Y8022620D01*
X41402261Y7022620D02*
X41402261Y7546429D01*
X41354642Y7641667D01*
X41259404Y7689286D01*
X41068928Y7689286D01*
X40973690Y7641667D01*
X41402261Y7070239D02*
X41307023Y7022620D01*
X41068928Y7022620D01*
X40973690Y7070239D01*
X40926071Y7165477D01*
X40926071Y7260715D01*
X40973690Y7355953D01*
X41068928Y7403572D01*
X41307023Y7403572D01*
X41402261Y7451191D01*
X42307023Y7070239D02*
X42211785Y7022620D01*
X42021309Y7022620D01*
X41926071Y7070239D01*
X41878452Y7117858D01*
X41830833Y7213096D01*
X41830833Y7498810D01*
X41878452Y7594048D01*
X41926071Y7641667D01*
X42021309Y7689286D01*
X42211785Y7689286D01*
X42307023Y7641667D01*
X43116547Y7070239D02*
X43021309Y7022620D01*
X42830833Y7022620D01*
X42735595Y7070239D01*
X42687976Y7165477D01*
X42687976Y7546429D01*
X42735595Y7641667D01*
X42830833Y7689286D01*
X43021309Y7689286D01*
X43116547Y7641667D01*
X43164166Y7546429D01*
X43164166Y7451191D01*
X42687976Y7355953D01*
X44354642Y7022620D02*
X44354642Y8022620D01*
X44687976Y7308334D01*
X45021309Y8022620D01*
X45021309Y7022620D01*
X45640357Y7022620D02*
X45545119Y7070239D01*
X45497500Y7117858D01*
X45449880Y7213096D01*
X45449880Y7498810D01*
X45497500Y7594048D01*
X45545119Y7641667D01*
X45640357Y7689286D01*
X45783214Y7689286D01*
X45878452Y7641667D01*
X45926071Y7594048D01*
X45973690Y7498810D01*
X45973690Y7213096D01*
X45926071Y7117858D01*
X45878452Y7070239D01*
X45783214Y7022620D01*
X45640357Y7022620D01*
X46259404Y7689286D02*
X46640357Y7689286D01*
X46402261Y8022620D02*
X46402261Y7165477D01*
X46449880Y7070239D01*
X46545119Y7022620D01*
X46640357Y7022620D01*
X47116547Y7022620D02*
X47021309Y7070239D01*
X46973690Y7117858D01*
X46926071Y7213096D01*
X46926071Y7498810D01*
X46973690Y7594048D01*
X47021309Y7641667D01*
X47116547Y7689286D01*
X47259404Y7689286D01*
X47354642Y7641667D01*
X47402261Y7594048D01*
X47449880Y7498810D01*
X47449880Y7213096D01*
X47402261Y7117858D01*
X47354642Y7070239D01*
X47259404Y7022620D01*
X47116547Y7022620D01*
X47878452Y7022620D02*
X47878452Y7689286D01*
X47878452Y7498810D02*
X47926071Y7594048D01*
X47973690Y7641667D01*
X48068928Y7689286D01*
X48164166Y7689286D01*
X49830833Y7117858D02*
X49783214Y7070239D01*
X49640357Y7022620D01*
X49545119Y7022620D01*
X49402261Y7070239D01*
X49307023Y7165477D01*
X49259404Y7260715D01*
X49211785Y7451191D01*
X49211785Y7594048D01*
X49259404Y7784524D01*
X49307023Y7879762D01*
X49402261Y7975000D01*
X49545119Y8022620D01*
X49640357Y8022620D01*
X49783214Y7975000D01*
X49830833Y7927381D01*
X50402261Y7022620D02*
X50307023Y7070239D01*
X50259404Y7117858D01*
X50211785Y7213096D01*
X50211785Y7498810D01*
X50259404Y7594048D01*
X50307023Y7641667D01*
X50402261Y7689286D01*
X50545119Y7689286D01*
X50640357Y7641667D01*
X50687976Y7594048D01*
X50735595Y7498810D01*
X50735595Y7213096D01*
X50687976Y7117858D01*
X50640357Y7070239D01*
X50545119Y7022620D01*
X50402261Y7022620D01*
X51164166Y7689286D02*
X51164166Y7022620D01*
X51164166Y7594048D02*
X51211785Y7641667D01*
X51307023Y7689286D01*
X51449880Y7689286D01*
X51545119Y7641667D01*
X51592738Y7546429D01*
X51592738Y7022620D01*
X51926071Y7689286D02*
X52307023Y7689286D01*
X52068928Y8022620D02*
X52068928Y7165477D01*
X52116547Y7070239D01*
X52211785Y7022620D01*
X52307023Y7022620D01*
X52640357Y7022620D02*
X52640357Y7689286D01*
X52640357Y7498810D02*
X52687976Y7594048D01*
X52735595Y7641667D01*
X52830833Y7689286D01*
X52926071Y7689286D01*
X53402261Y7022620D02*
X53307023Y7070239D01*
X53259404Y7117858D01*
X53211785Y7213096D01*
X53211785Y7498810D01*
X53259404Y7594048D01*
X53307023Y7641667D01*
X53402261Y7689286D01*
X53545119Y7689286D01*
X53640357Y7641667D01*
X53687976Y7594048D01*
X53735595Y7498810D01*
X53735595Y7213096D01*
X53687976Y7117858D01*
X53640357Y7070239D01*
X53545119Y7022620D01*
X53402261Y7022620D01*
X54307023Y7022620D02*
X54211785Y7070239D01*
X54164166Y7165477D01*
X54164166Y8022620D01*
X55783214Y7546429D02*
X55926071Y7498810D01*
X55973690Y7451191D01*
X56021309Y7355953D01*
X56021309Y7213096D01*
X55973690Y7117858D01*
X55926071Y7070239D01*
X55830833Y7022620D01*
X55449880Y7022620D01*
X55449880Y8022620D01*
X55783214Y8022620D01*
X55878452Y7975000D01*
X55926071Y7927381D01*
X55973690Y7832143D01*
X55973690Y7736905D01*
X55926071Y7641667D01*
X55878452Y7594048D01*
X55783214Y7546429D01*
X55449880Y7546429D01*
X56592738Y7022620D02*
X56497499Y7070239D01*
X56449880Y7117858D01*
X56402261Y7213096D01*
X56402261Y7498810D01*
X56449880Y7594048D01*
X56497499Y7641667D01*
X56592738Y7689286D01*
X56735595Y7689286D01*
X56830833Y7641667D01*
X56878452Y7594048D01*
X56926071Y7498810D01*
X56926071Y7213096D01*
X56878452Y7117858D01*
X56830833Y7070239D01*
X56735595Y7022620D01*
X56592738Y7022620D01*
X57783214Y7022620D02*
X57783214Y7546429D01*
X57735595Y7641667D01*
X57640357Y7689286D01*
X57449880Y7689286D01*
X57354642Y7641667D01*
X57783214Y7070239D02*
X57687976Y7022620D01*
X57449880Y7022620D01*
X57354642Y7070239D01*
X57307023Y7165477D01*
X57307023Y7260715D01*
X57354642Y7355953D01*
X57449880Y7403572D01*
X57687976Y7403572D01*
X57783214Y7451191D01*
X58259404Y7022620D02*
X58259404Y7689286D01*
X58259404Y7498810D02*
X58307023Y7594048D01*
X58354642Y7641667D01*
X58449880Y7689286D01*
X58545119Y7689286D01*
X59307023Y7022620D02*
X59307023Y8022620D01*
X59307023Y7070239D02*
X59211785Y7022620D01*
X59021309Y7022620D01*
X58926071Y7070239D01*
X58878452Y7117858D01*
X58830833Y7213096D01*
X58830833Y7498810D01*
X58878452Y7594048D01*
X58926071Y7641667D01*
X59021309Y7689286D01*
X59211785Y7689286D01*
X59307023Y7641667D01*
X30592738Y6372620D02*
X31164166Y6372620D01*
X30878452Y5372620D02*
X30878452Y6372620D01*
X32068928Y5372620D02*
X31735595Y5848810D01*
X31497500Y5372620D02*
X31497500Y6372620D01*
X31878452Y6372620D01*
X31973690Y6325000D01*
X32021309Y6277381D01*
X32068928Y6182143D01*
X32068928Y6039286D01*
X32021309Y5944048D01*
X31973690Y5896429D01*
X31878452Y5848810D01*
X31497500Y5848810D01*
X32497500Y5372620D02*
X32497500Y6372620D01*
X32926071Y5658334D02*
X33402261Y5658334D01*
X32830833Y5372620D02*
X33164166Y6372620D01*
X33497500Y5372620D01*
X34402261Y5467858D02*
X34354642Y5420239D01*
X34211785Y5372620D01*
X34116547Y5372620D01*
X33973690Y5420239D01*
X33878452Y5515477D01*
X33830833Y5610715D01*
X33783214Y5801191D01*
X33783214Y5944048D01*
X33830833Y6134524D01*
X33878452Y6229762D01*
X33973690Y6325000D01*
X34116547Y6372620D01*
X34211785Y6372620D01*
X34354642Y6325000D01*
X34402261Y6277381D01*
X35449880Y6372620D02*
X35783214Y5372620D01*
X36116547Y6372620D01*
X36830833Y5420239D02*
X36735595Y5372620D01*
X36545119Y5372620D01*
X36449880Y5420239D01*
X36402261Y5515477D01*
X36402261Y5896429D01*
X36449880Y5991667D01*
X36545119Y6039286D01*
X36735595Y6039286D01*
X36830833Y5991667D01*
X36878452Y5896429D01*
X36878452Y5801191D01*
X36402261Y5705953D01*
X37307023Y5372620D02*
X37307023Y6039286D01*
X37307023Y5848810D02*
X37354642Y5944048D01*
X37402261Y5991667D01*
X37497500Y6039286D01*
X37592738Y6039286D01*
X37878452Y5420239D02*
X37973690Y5372620D01*
X38164166Y5372620D01*
X38259404Y5420239D01*
X38307023Y5515477D01*
X38307023Y5563096D01*
X38259404Y5658334D01*
X38164166Y5705953D01*
X38021309Y5705953D01*
X37926071Y5753572D01*
X37878452Y5848810D01*
X37878452Y5896429D01*
X37926071Y5991667D01*
X38021309Y6039286D01*
X38164166Y6039286D01*
X38259404Y5991667D01*
X38735595Y5372620D02*
X38735595Y6039286D01*
X38735595Y6372620D02*
X38687976Y6325000D01*
X38735595Y6277381D01*
X38783214Y6325000D01*
X38735595Y6372620D01*
X38735595Y6277381D01*
X39354642Y5372620D02*
X39259404Y5420239D01*
X39211785Y5467858D01*
X39164166Y5563096D01*
X39164166Y5848810D01*
X39211785Y5944048D01*
X39259404Y5991667D01*
X39354642Y6039286D01*
X39497500Y6039286D01*
X39592738Y5991667D01*
X39640357Y5944048D01*
X39687976Y5848810D01*
X39687976Y5563096D01*
X39640357Y5467858D01*
X39592738Y5420239D01*
X39497500Y5372620D01*
X39354642Y5372620D01*
X40116547Y6039286D02*
X40116547Y5372620D01*
X40116547Y5944048D02*
X40164166Y5991667D01*
X40259404Y6039286D01*
X40402261Y6039286D01*
X40497500Y5991667D01*
X40545119Y5896429D01*
X40545119Y5372620D01*
X42307023Y5372620D02*
X41735595Y5372620D01*
X42021309Y5372620D02*
X42021309Y6372620D01*
X41926071Y6229762D01*
X41830833Y6134524D01*
X41735595Y6086905D01*
X42735595Y5467858D02*
X42783214Y5420239D01*
X42735595Y5372620D01*
X42687976Y5420239D01*
X42735595Y5467858D01*
X42735595Y5372620D01*
X43402261Y6372620D02*
X43497500Y6372620D01*
X43592738Y6325000D01*
X43640357Y6277381D01*
X43687976Y6182143D01*
X43735595Y5991667D01*
X43735595Y5753572D01*
X43687976Y5563096D01*
X43640357Y5467858D01*
X43592738Y5420239D01*
X43497500Y5372620D01*
X43402261Y5372620D01*
X43307023Y5420239D01*
X43259404Y5467858D01*
X43211785Y5563096D01*
X43164166Y5753572D01*
X43164166Y5991667D01*
X43211785Y6182143D01*
X43259404Y6277381D01*
X43307023Y6325000D01*
X43402261Y6372620D01*
X45878452Y6372620D02*
X46068928Y6372620D01*
X46164166Y6325000D01*
X46259404Y6229762D01*
X46307023Y6039286D01*
X46307023Y5705953D01*
X46259404Y5515477D01*
X46164166Y5420239D01*
X46068928Y5372620D01*
X45878452Y5372620D01*
X45783214Y5420239D01*
X45687976Y5515477D01*
X45640357Y5705953D01*
X45640357Y6039286D01*
X45687976Y6229762D01*
X45783214Y6325000D01*
X45878452Y6372620D01*
X47164166Y6039286D02*
X47164166Y5372620D01*
X46735595Y6039286D02*
X46735595Y5515477D01*
X46783214Y5420239D01*
X46878452Y5372620D01*
X47021309Y5372620D01*
X47116547Y5420239D01*
X47164166Y5467858D01*
X47497500Y6039286D02*
X47878452Y6039286D01*
X47640357Y6372620D02*
X47640357Y5515477D01*
X47687976Y5420239D01*
X47783214Y5372620D01*
X47878452Y5372620D01*
X48211785Y6039286D02*
X48211785Y5039286D01*
X48211785Y5991667D02*
X48307023Y6039286D01*
X48497500Y6039286D01*
X48592738Y5991667D01*
X48640357Y5944048D01*
X48687976Y5848810D01*
X48687976Y5563096D01*
X48640357Y5467858D01*
X48592738Y5420239D01*
X48497500Y5372620D01*
X48307023Y5372620D01*
X48211785Y5420239D01*
X49545119Y6039286D02*
X49545119Y5372620D01*
X49116547Y6039286D02*
X49116547Y5515477D01*
X49164166Y5420239D01*
X49259404Y5372620D01*
X49402261Y5372620D01*
X49497500Y5420239D01*
X49545119Y5467858D01*
X49878452Y6039286D02*
X50259404Y6039286D01*
X50021309Y6372620D02*
X50021309Y5515477D01*
X50068928Y5420239D01*
X50164166Y5372620D01*
X50259404Y5372620D01*
X50592738Y5467858D02*
X50640357Y5420239D01*
X50592738Y5372620D01*
X50545119Y5420239D01*
X50592738Y5467858D01*
X50592738Y5372620D01*
X50592738Y5991667D02*
X50640357Y5944048D01*
X50592738Y5896429D01*
X50545119Y5944048D01*
X50592738Y5991667D01*
X50592738Y5896429D01*
X51783214Y6277381D02*
X51830833Y6325000D01*
X51926071Y6372620D01*
X52164166Y6372620D01*
X52259404Y6325000D01*
X52307023Y6277381D01*
X52354642Y6182143D01*
X52354642Y6086905D01*
X52307023Y5944048D01*
X51735595Y5372620D01*
X52354642Y5372620D01*
X52783214Y5372620D02*
X52783214Y6372620D01*
X53116547Y5658334D01*
X53449880Y6372620D01*
X53449880Y5372620D01*
X54449880Y5372620D02*
X53878452Y5372620D01*
X54164166Y5372620D02*
X54164166Y6372620D01*
X54068928Y6229762D01*
X53973690Y6134524D01*
X53878452Y6086905D01*
X54830833Y5658334D02*
X55307023Y5658334D01*
X54735595Y5372620D02*
X55068928Y6372620D01*
X55402261Y5372620D01*
X56449880Y5658334D02*
X56926071Y5658334D01*
X56354642Y5372620D02*
X56687976Y6372620D01*
X57021309Y5372620D01*
X57926071Y5467858D02*
X57878452Y5420239D01*
X57735595Y5372620D01*
X57640357Y5372620D01*
X57497499Y5420239D01*
X57402261Y5515477D01*
X57354642Y5610715D01*
X57307023Y5801191D01*
X57307023Y5944048D01*
X57354642Y6134524D01*
X57402261Y6229762D01*
X57497499Y6325000D01*
X57640357Y6372620D01*
X57735595Y6372620D01*
X57878452Y6325000D01*
X57926071Y6277381D01*
X31068928Y4246429D02*
X31211785Y4198810D01*
X31259404Y4151191D01*
X31307023Y4055953D01*
X31307023Y3913096D01*
X31259404Y3817858D01*
X31211785Y3770239D01*
X31116547Y3722620D01*
X30735595Y3722620D01*
X30735595Y4722620D01*
X31068928Y4722620D01*
X31164166Y4675000D01*
X31211785Y4627381D01*
X31259404Y4532143D01*
X31259404Y4436905D01*
X31211785Y4341667D01*
X31164166Y4294048D01*
X31068928Y4246429D01*
X30735595Y4246429D01*
X31640357Y4389286D02*
X31878452Y3722620D01*
X32116547Y4389286D02*
X31878452Y3722620D01*
X31783214Y3484524D01*
X31735595Y3436905D01*
X31640357Y3389286D01*
X33735595Y3722620D02*
X33259404Y3722620D01*
X33259404Y4722620D01*
X34497500Y4389286D02*
X34497500Y3722620D01*
X34068928Y4389286D02*
X34068928Y3865477D01*
X34116547Y3770239D01*
X34211785Y3722620D01*
X34354642Y3722620D01*
X34449880Y3770239D01*
X34497500Y3817858D01*
X35021309Y3770239D02*
X35021309Y3722620D01*
X34973690Y3627381D01*
X34926071Y3579762D01*
X36116547Y4722620D02*
X36783214Y4722620D01*
X36116547Y3722620D01*
X36783214Y3722620D01*
X37545119Y3770239D02*
X37449880Y3722620D01*
X37259404Y3722620D01*
X37164166Y3770239D01*
X37116547Y3865477D01*
X37116547Y4246429D01*
X37164166Y4341667D01*
X37259404Y4389286D01*
X37449880Y4389286D01*
X37545119Y4341667D01*
X37592738Y4246429D01*
X37592738Y4151191D01*
X37116547Y4055953D01*
X38021309Y4389286D02*
X38021309Y3722620D01*
X38021309Y4294048D02*
X38068928Y4341667D01*
X38164166Y4389286D01*
X38307023Y4389286D01*
X38402261Y4341667D01*
X38449880Y4246429D01*
X38449880Y3722620D01*
X38926071Y3722620D02*
X38926071Y4389286D01*
X38926071Y4722620D02*
X38878452Y4675000D01*
X38926071Y4627381D01*
X38973690Y4675000D01*
X38926071Y4722620D01*
X38926071Y4627381D01*
X39402261Y4389286D02*
X39402261Y3722620D01*
X39402261Y4294048D02*
X39449880Y4341667D01*
X39545119Y4389286D01*
X39687976Y4389286D01*
X39783214Y4341667D01*
X39830833Y4246429D01*
X39830833Y3722620D01*
X40735595Y4389286D02*
X40735595Y3579762D01*
X40687976Y3484524D01*
X40640357Y3436905D01*
X40545119Y3389286D01*
X40402261Y3389286D01*
X40307023Y3436905D01*
X40735595Y3770239D02*
X40640357Y3722620D01*
X40449880Y3722620D01*
X40354642Y3770239D01*
X40307023Y3817858D01*
X40259404Y3913096D01*
X40259404Y4198810D01*
X40307023Y4294048D01*
X40354642Y4341667D01*
X40449880Y4389286D01*
X40640357Y4389286D01*
X40735595Y4341667D01*
X42259404Y3341667D02*
X42211785Y3389286D01*
X42116547Y3532143D01*
X42068928Y3627381D01*
X42021309Y3770239D01*
X41973690Y4008334D01*
X41973690Y4198810D01*
X42021309Y4436905D01*
X42068928Y4579762D01*
X42116547Y4675000D01*
X42211785Y4817858D01*
X42259404Y4865477D01*
X42973690Y4246429D02*
X43116547Y4198810D01*
X43164166Y4151191D01*
X43211785Y4055953D01*
X43211785Y3913096D01*
X43164166Y3817858D01*
X43116547Y3770239D01*
X43021309Y3722620D01*
X42640357Y3722620D01*
X42640357Y4722620D01*
X42973690Y4722620D01*
X43068928Y4675000D01*
X43116547Y4627381D01*
X43164166Y4532143D01*
X43164166Y4436905D01*
X43116547Y4341667D01*
X43068928Y4294048D01*
X42973690Y4246429D01*
X42640357Y4246429D01*
X43640357Y3722620D02*
X43640357Y4722620D01*
X44545119Y4389286D02*
X44545119Y3722620D01*
X44307023Y4770239D02*
X44068928Y4055953D01*
X44687976Y4055953D01*
X44973690Y4722620D02*
X45211785Y3722620D01*
X45402261Y4436905D01*
X45592738Y3722620D01*
X45830833Y4722620D01*
X46402261Y4722620D02*
X46592738Y4722620D01*
X46687976Y4675000D01*
X46783214Y4579762D01*
X46830833Y4389286D01*
X46830833Y4055953D01*
X46783214Y3865477D01*
X46687976Y3770239D01*
X46592738Y3722620D01*
X46402261Y3722620D01*
X46307023Y3770239D01*
X46211785Y3865477D01*
X46164166Y4055953D01*
X46164166Y4389286D01*
X46211785Y4579762D01*
X46307023Y4675000D01*
X46402261Y4722620D01*
X47259404Y3722620D02*
X47259404Y4722620D01*
X47640357Y4722620D01*
X47735595Y4675000D01*
X47783214Y4627381D01*
X47830833Y4532143D01*
X47830833Y4389286D01*
X47783214Y4294048D01*
X47735595Y4246429D01*
X47640357Y4198810D01*
X47259404Y4198810D01*
X48164166Y3341667D02*
X48211785Y3389286D01*
X48307023Y3532143D01*
X48354642Y3627381D01*
X48402261Y3770239D01*
X48449880Y4008334D01*
X48449880Y4198810D01*
X48402261Y4436905D01*
X48354642Y4579762D01*
X48307023Y4675000D01*
X48211785Y4817858D01*
X48164166Y4865477D01*
X31259404Y2072620D02*
X30687976Y2072620D01*
X30973690Y2072620D02*
X30973690Y3072620D01*
X30878452Y2929762D01*
X30783214Y2834524D01*
X30687976Y2786905D01*
X31592738Y3072620D02*
X32259404Y3072620D01*
X31830833Y2072620D01*
X33402261Y2072620D02*
X33402261Y3072620D01*
X33735595Y2358334D01*
X34068928Y3072620D01*
X34068928Y2072620D01*
X34973690Y2072620D02*
X34973690Y2596429D01*
X34926071Y2691667D01*
X34830833Y2739286D01*
X34640357Y2739286D01*
X34545119Y2691667D01*
X34973690Y2120239D02*
X34878452Y2072620D01*
X34640357Y2072620D01*
X34545119Y2120239D01*
X34497500Y2215477D01*
X34497500Y2310715D01*
X34545119Y2405953D01*
X34640357Y2453572D01*
X34878452Y2453572D01*
X34973690Y2501191D01*
X35354642Y2739286D02*
X35592738Y2072620D01*
X35830833Y2739286D02*
X35592738Y2072620D01*
X35497500Y1834524D01*
X35449880Y1786905D01*
X35354642Y1739286D01*
X36259404Y2120239D02*
X36259404Y2072620D01*
X36211785Y1977381D01*
X36164166Y1929762D01*
X37402261Y2977381D02*
X37449880Y3025000D01*
X37545119Y3072620D01*
X37783214Y3072620D01*
X37878452Y3025000D01*
X37926071Y2977381D01*
X37973690Y2882143D01*
X37973690Y2786905D01*
X37926071Y2644048D01*
X37354642Y2072620D01*
X37973690Y2072620D01*
X38592738Y3072620D02*
X38687976Y3072620D01*
X38783214Y3025000D01*
X38830833Y2977381D01*
X38878452Y2882143D01*
X38926071Y2691667D01*
X38926071Y2453572D01*
X38878452Y2263096D01*
X38830833Y2167858D01*
X38783214Y2120239D01*
X38687976Y2072620D01*
X38592738Y2072620D01*
X38497500Y2120239D01*
X38449880Y2167858D01*
X38402261Y2263096D01*
X38354642Y2453572D01*
X38354642Y2691667D01*
X38402261Y2882143D01*
X38449880Y2977381D01*
X38497500Y3025000D01*
X38592738Y3072620D01*
X39307023Y2977381D02*
X39354642Y3025000D01*
X39449880Y3072620D01*
X39687976Y3072620D01*
X39783214Y3025000D01*
X39830833Y2977381D01*
X39878452Y2882143D01*
X39878452Y2786905D01*
X39830833Y2644048D01*
X39259404Y2072620D01*
X39878452Y2072620D01*
X40259404Y2977381D02*
X40307023Y3025000D01*
X40402261Y3072620D01*
X40640357Y3072620D01*
X40735595Y3025000D01*
X40783214Y2977381D01*
X40830833Y2882143D01*
X40830833Y2786905D01*
X40783214Y2644048D01*
X40211785Y2072620D01*
X40830833Y2072620D01*
X42021309Y2072620D02*
X42021309Y2739286D01*
X42021309Y3072620D02*
X41973690Y3025000D01*
X42021309Y2977381D01*
X42068928Y3025000D01*
X42021309Y3072620D01*
X42021309Y2977381D01*
X42497500Y2739286D02*
X42497500Y2072620D01*
X42497500Y2644048D02*
X42545119Y2691667D01*
X42640357Y2739286D01*
X42783214Y2739286D01*
X42878452Y2691667D01*
X42926071Y2596429D01*
X42926071Y2072620D01*
X44116547Y2120239D02*
X44259404Y2072620D01*
X44497499Y2072620D01*
X44592738Y2120239D01*
X44640357Y2167858D01*
X44687976Y2263096D01*
X44687976Y2358334D01*
X44640357Y2453572D01*
X44592738Y2501191D01*
X44497499Y2548810D01*
X44307023Y2596429D01*
X44211785Y2644048D01*
X44164166Y2691667D01*
X44116547Y2786905D01*
X44116547Y2882143D01*
X44164166Y2977381D01*
X44211785Y3025000D01*
X44307023Y3072620D01*
X44545119Y3072620D01*
X44687976Y3025000D01*
X45116547Y2072620D02*
X45116547Y3072620D01*
X45116547Y2596429D02*
X45687976Y2596429D01*
X45687976Y2072620D02*
X45687976Y3072620D01*
D11*
X49500000Y53750000D02*
X51750000Y53750000D01*
X49500000Y58250000D02*
X49500000Y53750000D01*
X49500000Y64000000D02*
X51750000Y64000000D01*
X49500000Y60000000D02*
X49500000Y64000000D01*
D10*
X49238095Y59500000D02*
X49142857Y59547620D01*
X49000000Y59547620D01*
X48857142Y59500000D01*
X48761904Y59404762D01*
X48714285Y59309524D01*
X48666666Y59119048D01*
X48666666Y58976191D01*
X48714285Y58785715D01*
X48761904Y58690477D01*
X48857142Y58595239D01*
X49000000Y58547620D01*
X49095238Y58547620D01*
X49238095Y58595239D01*
X49285714Y58642858D01*
X49285714Y58976191D01*
X49095238Y58976191D01*
X49714285Y58547620D02*
X49714285Y59547620D01*
X50285714Y58547620D01*
X50285714Y59547620D01*
X50761904Y58547620D02*
X50761904Y59547620D01*
X51000000Y59547620D01*
X51142857Y59500000D01*
X51238095Y59404762D01*
X51285714Y59309524D01*
X51333333Y59119048D01*
X51333333Y58976191D01*
X51285714Y58785715D01*
X51238095Y58690477D01*
X51142857Y58595239D01*
X51000000Y58547620D01*
X50761904Y58547620D01*
D11*
X63000000Y56250000D02*
X61750000Y56250000D01*
X63000000Y59000000D02*
X63000000Y56250000D01*
X63000000Y64250000D02*
X61750000Y64250000D01*
X63000000Y60750000D02*
X63000000Y64250000D01*
D10*
X61488095Y53928572D02*
X62250000Y53928572D01*
X61869047Y53547620D02*
X61869047Y54309524D01*
X63250000Y53547620D02*
X62678571Y53547620D01*
X62964285Y53547620D02*
X62964285Y54547620D01*
X62869047Y54404762D01*
X62773809Y54309524D01*
X62678571Y54261905D01*
X63630952Y54452381D02*
X63678571Y54500000D01*
X63773809Y54547620D01*
X64011904Y54547620D01*
X64107142Y54500000D01*
X64154761Y54452381D01*
X64202380Y54357143D01*
X64202380Y54261905D01*
X64154761Y54119048D01*
X63583333Y53547620D01*
X64202380Y53547620D01*
X64488095Y54547620D02*
X64821428Y53547620D01*
X65154761Y54547620D01*
X61738095Y60297620D02*
X62071428Y59297620D01*
X62404761Y60297620D01*
X62690476Y59583334D02*
X63166666Y59583334D01*
X62595238Y59297620D02*
X62928571Y60297620D01*
X63261904Y59297620D01*
X64166666Y59392858D02*
X64119047Y59345239D01*
X63976190Y59297620D01*
X63880952Y59297620D01*
X63738095Y59345239D01*
X63642857Y59440477D01*
X63595238Y59535715D01*
X63547619Y59726191D01*
X63547619Y59869048D01*
X63595238Y60059524D01*
X63642857Y60154762D01*
X63738095Y60250000D01*
X63880952Y60297620D01*
X63976190Y60297620D01*
X64119047Y60250000D01*
X64166666Y60202381D01*
X54523809Y51047620D02*
X54523809Y52047620D01*
X54904761Y52047620D01*
X55000000Y52000000D01*
X55047619Y51952381D01*
X55095238Y51857143D01*
X55095238Y51714286D01*
X55047619Y51619048D01*
X55000000Y51571429D01*
X54904761Y51523810D01*
X54523809Y51523810D01*
X55666666Y51047620D02*
X55571428Y51095239D01*
X55523809Y51142858D01*
X55476190Y51238096D01*
X55476190Y51523810D01*
X55523809Y51619048D01*
X55571428Y51666667D01*
X55666666Y51714286D01*
X55809523Y51714286D01*
X55904761Y51666667D01*
X55952380Y51619048D01*
X56000000Y51523810D01*
X56000000Y51238096D01*
X55952380Y51142858D01*
X55904761Y51095239D01*
X55809523Y51047620D01*
X55666666Y51047620D01*
X56333333Y51714286D02*
X56523809Y51047620D01*
X56714285Y51523810D01*
X56904761Y51047620D01*
X57095238Y51714286D01*
X57857142Y51095239D02*
X57761904Y51047620D01*
X57571428Y51047620D01*
X57476190Y51095239D01*
X57428571Y51190477D01*
X57428571Y51571429D01*
X57476190Y51666667D01*
X57571428Y51714286D01*
X57761904Y51714286D01*
X57857142Y51666667D01*
X57904761Y51571429D01*
X57904761Y51476191D01*
X57428571Y51380953D01*
X58333333Y51047620D02*
X58333333Y51714286D01*
X58333333Y51523810D02*
X58380952Y51619048D01*
X58428571Y51666667D01*
X58523809Y51714286D01*
X58619047Y51714286D01*
X6845238Y6892858D02*
X6797619Y6845239D01*
X6654761Y6797620D01*
X6559523Y6797620D01*
X6416666Y6845239D01*
X6321428Y6940477D01*
X6273809Y7035715D01*
X6226190Y7226191D01*
X6226190Y7369048D01*
X6273809Y7559524D01*
X6321428Y7654762D01*
X6416666Y7750000D01*
X6559523Y7797620D01*
X6654761Y7797620D01*
X6797619Y7750000D01*
X6845238Y7702381D01*
X7416666Y6797620D02*
X7321428Y6845239D01*
X7273809Y6892858D01*
X7226190Y6988096D01*
X7226190Y7273810D01*
X7273809Y7369048D01*
X7321428Y7416667D01*
X7416666Y7464286D01*
X7559523Y7464286D01*
X7654761Y7416667D01*
X7702380Y7369048D01*
X7750000Y7273810D01*
X7750000Y6988096D01*
X7702380Y6892858D01*
X7654761Y6845239D01*
X7559523Y6797620D01*
X7416666Y6797620D01*
X8178571Y7464286D02*
X8178571Y6797620D01*
X8178571Y7369048D02*
X8226190Y7416667D01*
X8321428Y7464286D01*
X8464285Y7464286D01*
X8559523Y7416667D01*
X8607142Y7321429D01*
X8607142Y6797620D01*
X8940476Y7464286D02*
X9321428Y7464286D01*
X9083333Y7797620D02*
X9083333Y6940477D01*
X9130952Y6845239D01*
X9226190Y6797620D01*
X9321428Y6797620D01*
X9654761Y6797620D02*
X9654761Y7464286D01*
X9654761Y7273810D02*
X9702380Y7369048D01*
X9750000Y7416667D01*
X9845238Y7464286D01*
X9940476Y7464286D01*
X10416666Y6797620D02*
X10321428Y6845239D01*
X10273809Y6892858D01*
X10226190Y6988096D01*
X10226190Y7273810D01*
X10273809Y7369048D01*
X10321428Y7416667D01*
X10416666Y7464286D01*
X10559523Y7464286D01*
X10654761Y7416667D01*
X10702380Y7369048D01*
X10750000Y7273810D01*
X10750000Y6988096D01*
X10702380Y6892858D01*
X10654761Y6845239D01*
X10559523Y6797620D01*
X10416666Y6797620D01*
X11321428Y6797620D02*
X11226190Y6845239D01*
X11178571Y6940477D01*
X11178571Y7797620D01*
X4166666Y51595239D02*
X4309523Y51547620D01*
X4547619Y51547620D01*
X4642857Y51595239D01*
X4690476Y51642858D01*
X4738095Y51738096D01*
X4738095Y51833334D01*
X4690476Y51928572D01*
X4642857Y51976191D01*
X4547619Y52023810D01*
X4357142Y52071429D01*
X4261904Y52119048D01*
X4214285Y52166667D01*
X4166666Y52261905D01*
X4166666Y52357143D01*
X4214285Y52452381D01*
X4261904Y52500000D01*
X4357142Y52547620D01*
X4595238Y52547620D01*
X4738095Y52500000D01*
X5547619Y51595239D02*
X5452380Y51547620D01*
X5261904Y51547620D01*
X5166666Y51595239D01*
X5119047Y51690477D01*
X5119047Y52071429D01*
X5166666Y52166667D01*
X5261904Y52214286D01*
X5452380Y52214286D01*
X5547619Y52166667D01*
X5595238Y52071429D01*
X5595238Y51976191D01*
X5119047Y51880953D01*
X6023809Y52214286D02*
X6023809Y51547620D01*
X6023809Y52119048D02*
X6071428Y52166667D01*
X6166666Y52214286D01*
X6309523Y52214286D01*
X6404761Y52166667D01*
X6452380Y52071429D01*
X6452380Y51547620D01*
X6880952Y51595239D02*
X6976190Y51547620D01*
X7166666Y51547620D01*
X7261904Y51595239D01*
X7309523Y51690477D01*
X7309523Y51738096D01*
X7261904Y51833334D01*
X7166666Y51880953D01*
X7023809Y51880953D01*
X6928571Y51928572D01*
X6880952Y52023810D01*
X6880952Y52071429D01*
X6928571Y52166667D01*
X7023809Y52214286D01*
X7166666Y52214286D01*
X7261904Y52166667D01*
X7880952Y51547620D02*
X7785714Y51595239D01*
X7738095Y51642858D01*
X7690476Y51738096D01*
X7690476Y52023810D01*
X7738095Y52119048D01*
X7785714Y52166667D01*
X7880952Y52214286D01*
X8023809Y52214286D01*
X8119047Y52166667D01*
X8166666Y52119048D01*
X8214285Y52023810D01*
X8214285Y51738096D01*
X8166666Y51642858D01*
X8119047Y51595239D01*
X8023809Y51547620D01*
X7880952Y51547620D01*
X8642857Y51547620D02*
X8642857Y52214286D01*
X8642857Y52023810D02*
X8690476Y52119048D01*
X8738095Y52166667D01*
X8833333Y52214286D01*
X8928571Y52214286D01*
X10714285Y66178572D02*
X11476190Y66178572D01*
X11095238Y65797620D02*
X11095238Y66559524D01*
X12428571Y66797620D02*
X11952380Y66797620D01*
X11904761Y66321429D01*
X11952380Y66369048D01*
X12047619Y66416667D01*
X12285714Y66416667D01*
X12380952Y66369048D01*
X12428571Y66321429D01*
X12476190Y66226191D01*
X12476190Y65988096D01*
X12428571Y65892858D01*
X12380952Y65845239D01*
X12285714Y65797620D01*
X12047619Y65797620D01*
X11952380Y65845239D01*
X11904761Y65892858D01*
X12761904Y66797620D02*
X13095238Y65797620D01*
X13428571Y66797620D01*
D12*
%TO.C,R13*%
X41950000Y11000000D02*
X41950000Y9645000D01*
X39550000Y11000000D02*
X39550000Y9645000D01*
X39550000Y14355000D02*
X39550000Y13000000D01*
X39550000Y14355000D02*
X41950000Y14355000D01*
X39550000Y9645000D02*
X41950000Y9645000D01*
X41950000Y14355000D02*
X41950000Y13000000D01*
%TO.C,R9*%
X32295000Y25200000D02*
X33650000Y25200000D01*
X37005000Y22800000D02*
X37005000Y25200000D01*
X32295000Y22800000D02*
X32295000Y25200000D01*
X32295000Y22800000D02*
X33650000Y22800000D01*
X35650000Y22800000D02*
X37005000Y22800000D01*
X35650000Y25200000D02*
X37005000Y25200000D01*
%TO.C,R8*%
X39200000Y52990000D02*
X39200000Y51635000D01*
X36800000Y52990000D02*
X36800000Y51635000D01*
X36800000Y56345000D02*
X36800000Y54990000D01*
X36800000Y56345000D02*
X39200000Y56345000D01*
X36800000Y51635000D02*
X39200000Y51635000D01*
X39200000Y56345000D02*
X39200000Y54990000D01*
%TO.C,C6*%
X43670000Y9490000D02*
X43670000Y12010000D01*
X48380000Y9490000D02*
X48380000Y12010000D01*
X44070000Y12410000D02*
X45125000Y12410000D01*
X46925000Y12410000D02*
X47980000Y12410000D01*
X46925000Y9090000D02*
X47980000Y9090000D01*
X44070000Y9090000D02*
X45125000Y9090000D01*
X43670000Y12010000D02*
G75*
G02*
X44070000Y12410000I400000J0D01*
G01*
X44070000Y9090000D02*
G75*
G02*
X43670000Y9490000I0J400000D01*
G01*
X48380000Y9490000D02*
G75*
G02*
X47980000Y9090000I-400000J0D01*
G01*
X47980000Y12410000D02*
G75*
G02*
X48380000Y12010000I0J-400000D01*
G01*
%TO.C,C5*%
X37370000Y22990000D02*
X37370000Y25510000D01*
X42080000Y22990000D02*
X42080000Y25510000D01*
X37770000Y25910000D02*
X38825000Y25910000D01*
X40625000Y25910000D02*
X41680000Y25910000D01*
X40625000Y22590000D02*
X41680000Y22590000D01*
X37770000Y22590000D02*
X38825000Y22590000D01*
X37370000Y25510000D02*
G75*
G02*
X37770000Y25910000I400000J0D01*
G01*
X37770000Y22590000D02*
G75*
G02*
X37370000Y22990000I0J400000D01*
G01*
X42080000Y22990000D02*
G75*
G02*
X41680000Y22590000I-400000J0D01*
G01*
X41680000Y25910000D02*
G75*
G02*
X42080000Y25510000I0J-400000D01*
G01*
%TO.C,C4*%
X37395000Y47990000D02*
X37395000Y50510000D01*
X42105000Y47990000D02*
X42105000Y50510000D01*
X37795000Y50910000D02*
X38850000Y50910000D01*
X40650000Y50910000D02*
X41705000Y50910000D01*
X40650000Y47590000D02*
X41705000Y47590000D01*
X37795000Y47590000D02*
X38850000Y47590000D01*
X37395000Y50510000D02*
G75*
G02*
X37795000Y50910000I400000J0D01*
G01*
X37795000Y47590000D02*
G75*
G02*
X37395000Y47990000I0J400000D01*
G01*
X42105000Y47990000D02*
G75*
G02*
X41705000Y47590000I-400000J0D01*
G01*
X41705000Y50910000D02*
G75*
G02*
X42105000Y50510000I0J-400000D01*
G01*
D11*
%TO.C,Q2B1*%
X46190000Y16670000D02*
X43566000Y16670000D01*
X46190000Y19210000D02*
X43566000Y19210000D01*
X46190000Y21750000D02*
X43550000Y21750000D01*
X62080000Y14090000D02*
X46190000Y14090000D01*
X62080000Y24330000D02*
X46190000Y24330000D01*
X62080000Y24330000D02*
X62080000Y14090000D01*
X46190000Y24330000D02*
X46190000Y14090000D01*
%TO.C,Q1B1*%
X43940000Y38370000D02*
X41316000Y38370000D01*
X43940000Y40910000D02*
X41316000Y40910000D01*
X43940000Y43450000D02*
X41300000Y43450000D01*
X59830000Y35790000D02*
X43940000Y35790000D01*
X59830000Y46030000D02*
X43940000Y46030000D01*
X59830000Y46030000D02*
X59830000Y35790000D01*
X43940000Y46030000D02*
X43940000Y35790000D01*
%TO.C,Q2*%
X37720000Y26300000D02*
X39220000Y26300000D01*
X39220000Y26300000D02*
X39220000Y26570000D01*
X39220000Y26570000D02*
X42050000Y26570000D01*
X37720000Y33200000D02*
X39220000Y33200000D01*
X39220000Y33200000D02*
X39220000Y32930000D01*
X39220000Y32930000D02*
X40320000Y32930000D01*
%TO.C,Q3*%
X31050000Y14280000D02*
X31050000Y12780000D01*
X31050000Y12780000D02*
X31320000Y12780000D01*
X31320000Y12780000D02*
X31320000Y9950000D01*
X37950000Y14280000D02*
X37950000Y12780000D01*
X37950000Y12780000D02*
X37680000Y12780000D01*
X37680000Y12780000D02*
X37680000Y11680000D01*
D12*
%TO.C,R19*%
X22345000Y55850000D02*
X23700000Y55850000D01*
X27055000Y53450000D02*
X27055000Y55850000D01*
X22345000Y53450000D02*
X22345000Y55850000D01*
X22345000Y53450000D02*
X23700000Y53450000D01*
X25700000Y53450000D02*
X27055000Y53450000D01*
X25700000Y55850000D02*
X27055000Y55850000D01*
%TO.C,R18*%
X22145000Y27200000D02*
X23500000Y27200000D01*
X26855000Y24800000D02*
X26855000Y27200000D01*
X22145000Y24800000D02*
X22145000Y27200000D01*
X22145000Y24800000D02*
X23500000Y24800000D01*
X25500000Y24800000D02*
X26855000Y24800000D01*
X25500000Y27200000D02*
X26855000Y27200000D01*
%TO.C,R17*%
X23145000Y72200000D02*
X24500000Y72200000D01*
X27855000Y69800000D02*
X27855000Y72200000D01*
X23145000Y69800000D02*
X23145000Y72200000D01*
X23145000Y69800000D02*
X24500000Y69800000D01*
X26500000Y69800000D02*
X27855000Y69800000D01*
X26500000Y72200000D02*
X27855000Y72200000D01*
D11*
%TO.C,Q1*%
X41075000Y56255000D02*
X41075000Y54755000D01*
X41075000Y54755000D02*
X41345000Y54755000D01*
X41345000Y54755000D02*
X41345000Y51925000D01*
X47975000Y56255000D02*
X47975000Y54755000D01*
X47975000Y54755000D02*
X47705000Y54755000D01*
X47705000Y54755000D02*
X47705000Y53655000D01*
%TO.C,U9*%
X40060000Y70000000D02*
X40060000Y73450000D01*
X40060000Y70000000D02*
X40060000Y68050000D01*
X34940000Y70000000D02*
X34940000Y71950000D01*
X34940000Y70000000D02*
X34940000Y68050000D01*
D13*
%TO.C,U8*%
X22600000Y39725000D02*
X22600000Y29775000D01*
X25400000Y39725000D02*
X25400000Y29775000D01*
X22600000Y39725000D02*
X25400000Y39725000D01*
X22600000Y29775000D02*
X25400000Y29775000D01*
D14*
X21250000Y40000000D02*
G75*
G03*
X21250000Y40000000I-150000J0D01*
G01*
D15*
X23500000Y39050000D02*
G75*
G03*
X23500000Y39050000I-200000J0D01*
G01*
D11*
%TO.C,U7*%
X23635000Y68370000D02*
X21400000Y68370000D01*
X23635000Y60630000D02*
X23635000Y68370000D01*
X17165000Y60630000D02*
X23635000Y60630000D01*
X17165000Y68370000D02*
X17165000Y60630000D01*
X19400000Y68370000D02*
X17165000Y68370000D01*
X21400000Y68370000D02*
G75*
G02*
X19400000Y68370000I-1000000J0D01*
G01*
D13*
%TO.C,U6*%
X20650000Y3000000D02*
X20650000Y7000000D01*
X20650000Y3000000D02*
X23850000Y3000000D01*
X23850000Y3000000D02*
X23850000Y7000000D01*
X20650000Y7000000D02*
X23850000Y7000000D01*
D14*
X19000000Y7200000D02*
G75*
G03*
X19000000Y7200000I-150000J0D01*
G01*
D15*
X21550000Y6300000D02*
G75*
G03*
X21550000Y6300000I-200000J0D01*
G01*
D13*
%TO.C,U5*%
X20650000Y9000000D02*
X20650000Y13000000D01*
X20650000Y9000000D02*
X23850000Y9000000D01*
X23850000Y9000000D02*
X23850000Y13000000D01*
X20650000Y13000000D02*
X23850000Y13000000D01*
D14*
X19000000Y13200000D02*
G75*
G03*
X19000000Y13200000I-150000J0D01*
G01*
D15*
X21550000Y12300000D02*
G75*
G03*
X21550000Y12300000I-200000J0D01*
G01*
D11*
%TO.C,U4*%
X24235000Y23370000D02*
X22000000Y23370000D01*
X24235000Y15630000D02*
X24235000Y23370000D01*
X17765000Y15630000D02*
X24235000Y15630000D01*
X17765000Y23370000D02*
X17765000Y15630000D01*
X20000000Y23370000D02*
X17765000Y23370000D01*
X22000000Y23370000D02*
G75*
G02*
X20000000Y23370000I-1000000J0D01*
G01*
D13*
%TO.C,U3*%
X7900000Y29500000D02*
X7900000Y33500000D01*
X7900000Y29500000D02*
X11100000Y29500000D01*
X11100000Y29500000D02*
X11100000Y33500000D01*
X7900000Y33500000D02*
X11100000Y33500000D01*
D14*
X6250000Y33700000D02*
G75*
G03*
X6250000Y33700000I-150000J0D01*
G01*
D15*
X8800000Y32800000D02*
G75*
G03*
X8800000Y32800000I-200000J0D01*
G01*
D13*
%TO.C,U2*%
X7900000Y39500000D02*
X7900000Y43500000D01*
X7900000Y39500000D02*
X11100000Y39500000D01*
X11100000Y39500000D02*
X11100000Y43500000D01*
X7900000Y43500000D02*
X11100000Y43500000D01*
D14*
X6250000Y43700000D02*
G75*
G03*
X6250000Y43700000I-150000J0D01*
G01*
D15*
X8800000Y42800000D02*
G75*
G03*
X8800000Y42800000I-200000J0D01*
G01*
D11*
%TO.C,U1*%
X24235000Y52620000D02*
X22000000Y52620000D01*
X24235000Y44880000D02*
X24235000Y52620000D01*
X17765000Y44880000D02*
X24235000Y44880000D01*
X17765000Y52620000D02*
X17765000Y44880000D01*
X20000000Y52620000D02*
X17765000Y52620000D01*
X22000000Y52620000D02*
G75*
G02*
X20000000Y52620000I-1000000J0D01*
G01*
D12*
%TO.C,R20*%
X36620000Y63035000D02*
X37940000Y63035000D01*
X38840000Y63035000D02*
X40160000Y63035000D01*
X38840000Y60965000D02*
X40160000Y60965000D01*
X36620000Y60965000D02*
X37940000Y60965000D01*
X36620000Y60965000D02*
X36620000Y63035000D01*
X40160000Y60965000D02*
X40160000Y63035000D01*
%TO.C,R14*%
X15730000Y29035000D02*
X17050000Y29035000D01*
X17950000Y29035000D02*
X19270000Y29035000D01*
X17950000Y26965000D02*
X19270000Y26965000D01*
X15730000Y26965000D02*
X17050000Y26965000D01*
X15730000Y26965000D02*
X15730000Y29035000D01*
X19270000Y26965000D02*
X19270000Y29035000D01*
%TO.C,R12*%
X15730000Y33035000D02*
X17050000Y33035000D01*
X17950000Y33035000D02*
X19270000Y33035000D01*
X17950000Y30965000D02*
X19270000Y30965000D01*
X15730000Y30965000D02*
X17050000Y30965000D01*
X15730000Y30965000D02*
X15730000Y33035000D01*
X19270000Y30965000D02*
X19270000Y33035000D01*
%TO.C,R11*%
X15730000Y37535000D02*
X17050000Y37535000D01*
X17950000Y37535000D02*
X19270000Y37535000D01*
X17950000Y35465000D02*
X19270000Y35465000D01*
X15730000Y35465000D02*
X17050000Y35465000D01*
X15730000Y35465000D02*
X15730000Y37535000D01*
X19270000Y35465000D02*
X19270000Y37535000D01*
%TO.C,R10*%
X15730000Y41535000D02*
X17050000Y41535000D01*
X17950000Y41535000D02*
X19270000Y41535000D01*
X17950000Y39465000D02*
X19270000Y39465000D01*
X15730000Y39465000D02*
X17050000Y39465000D01*
X15730000Y39465000D02*
X15730000Y41535000D01*
X19270000Y39465000D02*
X19270000Y41535000D01*
%TO.C,R7*%
X15465000Y55340000D02*
X15465000Y56660000D01*
X15465000Y57560000D02*
X15465000Y58880000D01*
X17535000Y57560000D02*
X17535000Y58880000D01*
X17535000Y55340000D02*
X17535000Y56660000D01*
X17535000Y55340000D02*
X15465000Y55340000D01*
X17535000Y58880000D02*
X15465000Y58880000D01*
%TO.C,R6*%
X15215000Y3730000D02*
X15215000Y5050000D01*
X15215000Y5950000D02*
X15215000Y7270000D01*
X17285000Y5950000D02*
X17285000Y7270000D01*
X17285000Y3730000D02*
X17285000Y5050000D01*
X17285000Y3730000D02*
X15215000Y3730000D01*
X17285000Y7270000D02*
X15215000Y7270000D01*
%TO.C,R5*%
X15215000Y9730000D02*
X15215000Y11050000D01*
X15215000Y11950000D02*
X15215000Y13270000D01*
X17285000Y11950000D02*
X17285000Y13270000D01*
X17285000Y9730000D02*
X17285000Y11050000D01*
X17285000Y9730000D02*
X15215000Y9730000D01*
X17285000Y13270000D02*
X15215000Y13270000D01*
%TO.C,R4*%
X13730000Y26035000D02*
X15050000Y26035000D01*
X15950000Y26035000D02*
X17270000Y26035000D01*
X15950000Y23965000D02*
X17270000Y23965000D01*
X13730000Y23965000D02*
X15050000Y23965000D01*
X13730000Y23965000D02*
X13730000Y26035000D01*
X17270000Y23965000D02*
X17270000Y26035000D01*
%TO.C,R3*%
X5730000Y37035000D02*
X7050000Y37035000D01*
X7950000Y37035000D02*
X9270000Y37035000D01*
X7950000Y34965000D02*
X9270000Y34965000D01*
X5730000Y34965000D02*
X7050000Y34965000D01*
X5730000Y34965000D02*
X5730000Y37035000D01*
X9270000Y34965000D02*
X9270000Y37035000D01*
%TO.C,R2*%
X5840000Y47035000D02*
X7160000Y47035000D01*
X8060000Y47035000D02*
X9380000Y47035000D01*
X8060000Y44965000D02*
X9380000Y44965000D01*
X5840000Y44965000D02*
X7160000Y44965000D01*
X5840000Y44965000D02*
X5840000Y47035000D01*
X9380000Y44965000D02*
X9380000Y47035000D01*
%TO.C,R1*%
X14035000Y52020000D02*
X14035000Y50700000D01*
X14035000Y49800000D02*
X14035000Y48480000D01*
X11965000Y49800000D02*
X11965000Y48480000D01*
X11965000Y52020000D02*
X11965000Y50700000D01*
X11965000Y52020000D02*
X14035000Y52020000D01*
X11965000Y48480000D02*
X14035000Y48480000D01*
D11*
%TO.C,J7*%
X9100000Y56700000D02*
X9100000Y55680000D01*
X3900000Y56700000D02*
X3900000Y55680000D01*
X9100000Y59240000D02*
X9100000Y58220000D01*
X3900000Y59240000D02*
X3900000Y58220000D01*
X9100000Y61780000D02*
X9100000Y60760000D01*
X3900000Y61780000D02*
X3900000Y60760000D01*
X9100000Y64320000D02*
X9100000Y63300000D01*
X3900000Y64320000D02*
X3900000Y63300000D01*
X9100000Y54160000D02*
X9100000Y53590000D01*
X3900000Y54160000D02*
X3900000Y53590000D01*
X9100000Y66410000D02*
X9100000Y65840000D01*
X3900000Y66410000D02*
X3900000Y65840000D01*
X2460000Y65840000D02*
X3900000Y65840000D01*
X3900000Y53590000D02*
X9100000Y53590000D01*
X3900000Y66410000D02*
X9100000Y66410000D01*
%TO.C,J6*%
X9100000Y11700000D02*
X9100000Y10680000D01*
X3900000Y11700000D02*
X3900000Y10680000D01*
X9100000Y14240000D02*
X9100000Y13220000D01*
X3900000Y14240000D02*
X3900000Y13220000D01*
X9100000Y16780000D02*
X9100000Y15760000D01*
X3900000Y16780000D02*
X3900000Y15760000D01*
X9100000Y19320000D02*
X9100000Y18300000D01*
X3900000Y19320000D02*
X3900000Y18300000D01*
X9100000Y9160000D02*
X9100000Y8590000D01*
X3900000Y9160000D02*
X3900000Y8590000D01*
X9100000Y21410000D02*
X9100000Y20840000D01*
X3900000Y21410000D02*
X3900000Y20840000D01*
X2460000Y20840000D02*
X3900000Y20840000D01*
X3900000Y8590000D02*
X9100000Y8590000D01*
X3900000Y21410000D02*
X9100000Y21410000D01*
%TO.C,J5*%
X59100000Y55700000D02*
X59100000Y54680000D01*
X53900000Y55700000D02*
X53900000Y54680000D01*
X59100000Y58240000D02*
X59100000Y57220000D01*
X53900000Y58240000D02*
X53900000Y57220000D01*
X59100000Y60780000D02*
X59100000Y59760000D01*
X53900000Y60780000D02*
X53900000Y59760000D01*
X59100000Y63320000D02*
X59100000Y62300000D01*
X53900000Y63320000D02*
X53900000Y62300000D01*
X59100000Y53160000D02*
X59100000Y52590000D01*
X53900000Y53160000D02*
X53900000Y52590000D01*
X59100000Y65410000D02*
X59100000Y64840000D01*
X53900000Y65410000D02*
X53900000Y64840000D01*
X52460000Y64840000D02*
X53900000Y64840000D01*
X53900000Y52590000D02*
X59100000Y52590000D01*
X53900000Y65410000D02*
X59100000Y65410000D01*
D12*
%TO.C,C3*%
X8830000Y67965000D02*
X8830000Y69235000D01*
X9230000Y67565000D02*
X10150000Y67565000D01*
X12370000Y67965000D02*
X12370000Y69235000D01*
X11050000Y67565000D02*
X11970000Y67565000D01*
X11050000Y69635000D02*
X11970000Y69635000D01*
X9230000Y69635000D02*
X10150000Y69635000D01*
X8830000Y69235010D02*
G75*
G02*
X9230000Y69635010I400000J0D01*
G01*
X9230000Y67565000D02*
G75*
G02*
X8830000Y67965000I0J400000D01*
G01*
X12370000Y67965000D02*
G75*
G02*
X11970000Y67565000I-400000J0D01*
G01*
X11970000Y69635000D02*
G75*
G02*
X12370000Y69235000I0J-400000D01*
G01*
%TO.C,C2*%
X36530000Y64065000D02*
X36530000Y65335000D01*
X36930000Y63665000D02*
X37850000Y63665000D01*
X40070000Y64065000D02*
X40070000Y65335000D01*
X38750000Y63665000D02*
X39670000Y63665000D01*
X38750000Y65735000D02*
X39670000Y65735000D01*
X36930000Y65735000D02*
X37850000Y65735000D01*
X36530000Y65335010D02*
G75*
G02*
X36930000Y65735010I400000J0D01*
G01*
X36930000Y63665000D02*
G75*
G02*
X36530000Y64065000I0J400000D01*
G01*
X40070000Y64065000D02*
G75*
G02*
X39670000Y63665000I-400000J0D01*
G01*
X39670000Y65735000D02*
G75*
G02*
X40070000Y65335000I0J-400000D01*
G01*
%TO.C,C1*%
X36530000Y58665000D02*
X36530000Y59935000D01*
X36930000Y58265000D02*
X37850000Y58265000D01*
X40070000Y58665000D02*
X40070000Y59935000D01*
X38750000Y58265000D02*
X39670000Y58265000D01*
X38750000Y60335000D02*
X39670000Y60335000D01*
X36930000Y60335000D02*
X37850000Y60335000D01*
X36530000Y59935010D02*
G75*
G02*
X36930000Y60335010I400000J0D01*
G01*
X36930000Y58265000D02*
G75*
G02*
X36530000Y58665000I0J400000D01*
G01*
X40070000Y58665000D02*
G75*
G02*
X39670000Y58265000I-400000J0D01*
G01*
X39670000Y60335000D02*
G75*
G02*
X40070000Y59935000I0J-400000D01*
G01*
%TO.C,R13*%
D10*
X43452380Y11607143D02*
X42976190Y11273810D01*
X43452380Y11035715D02*
X42452380Y11035715D01*
X42452380Y11416667D01*
X42500000Y11511905D01*
X42547619Y11559524D01*
X42642857Y11607143D01*
X42785714Y11607143D01*
X42880952Y11559524D01*
X42928571Y11511905D01*
X42976190Y11416667D01*
X42976190Y11035715D01*
X43452380Y12559524D02*
X43452380Y11988096D01*
X43452380Y12273810D02*
X42452380Y12273810D01*
X42595238Y12178572D01*
X42690476Y12083334D01*
X42738095Y11988096D01*
X42452380Y12892858D02*
X42452380Y13511905D01*
X42833333Y13178572D01*
X42833333Y13321429D01*
X42880952Y13416667D01*
X42928571Y13464286D01*
X43023809Y13511905D01*
X43261904Y13511905D01*
X43357142Y13464286D01*
X43404761Y13416667D01*
X43452380Y13321429D01*
X43452380Y13035715D01*
X43404761Y12940477D01*
X43357142Y12892858D01*
%TO.C,R9*%
X34583333Y21547620D02*
X34250000Y22023810D01*
X34011904Y21547620D02*
X34011904Y22547620D01*
X34392857Y22547620D01*
X34488095Y22500000D01*
X34535714Y22452381D01*
X34583333Y22357143D01*
X34583333Y22214286D01*
X34535714Y22119048D01*
X34488095Y22071429D01*
X34392857Y22023810D01*
X34011904Y22023810D01*
X35059523Y21547620D02*
X35250000Y21547620D01*
X35345238Y21595239D01*
X35392857Y21642858D01*
X35488095Y21785715D01*
X35535714Y21976191D01*
X35535714Y22357143D01*
X35488095Y22452381D01*
X35440476Y22500000D01*
X35345238Y22547620D01*
X35154761Y22547620D01*
X35059523Y22500000D01*
X35011904Y22452381D01*
X34964285Y22357143D01*
X34964285Y22119048D01*
X35011904Y22023810D01*
X35059523Y21976191D01*
X35154761Y21928572D01*
X35345238Y21928572D01*
X35440476Y21976191D01*
X35488095Y22023810D01*
X35535714Y22119048D01*
%TO.C,R8*%
X37833333Y56547620D02*
X37500000Y57023810D01*
X37261904Y56547620D02*
X37261904Y57547620D01*
X37642857Y57547620D01*
X37738095Y57500000D01*
X37785714Y57452381D01*
X37833333Y57357143D01*
X37833333Y57214286D01*
X37785714Y57119048D01*
X37738095Y57071429D01*
X37642857Y57023810D01*
X37261904Y57023810D01*
X38404761Y57119048D02*
X38309523Y57166667D01*
X38261904Y57214286D01*
X38214285Y57309524D01*
X38214285Y57357143D01*
X38261904Y57452381D01*
X38309523Y57500000D01*
X38404761Y57547620D01*
X38595238Y57547620D01*
X38690476Y57500000D01*
X38738095Y57452381D01*
X38785714Y57357143D01*
X38785714Y57309524D01*
X38738095Y57214286D01*
X38690476Y57166667D01*
X38595238Y57119048D01*
X38404761Y57119048D01*
X38309523Y57071429D01*
X38261904Y57023810D01*
X38214285Y56928572D01*
X38214285Y56738096D01*
X38261904Y56642858D01*
X38309523Y56595239D01*
X38404761Y56547620D01*
X38595238Y56547620D01*
X38690476Y56595239D01*
X38738095Y56642858D01*
X38785714Y56738096D01*
X38785714Y56928572D01*
X38738095Y57023810D01*
X38690476Y57071429D01*
X38595238Y57119048D01*
%TO.C,C6*%
X49383332Y10392858D02*
X49335713Y10345239D01*
X49192856Y10297620D01*
X49097618Y10297620D01*
X48954760Y10345239D01*
X48859522Y10440477D01*
X48811903Y10535715D01*
X48764284Y10726191D01*
X48764284Y10869048D01*
X48811903Y11059524D01*
X48859522Y11154762D01*
X48954760Y11250000D01*
X49097618Y11297620D01*
X49192856Y11297620D01*
X49335713Y11250000D01*
X49383332Y11202381D01*
X50240475Y11297620D02*
X50049999Y11297620D01*
X49954760Y11250000D01*
X49907141Y11202381D01*
X49811903Y11059524D01*
X49764284Y10869048D01*
X49764284Y10488096D01*
X49811903Y10392858D01*
X49859522Y10345239D01*
X49954760Y10297620D01*
X50145237Y10297620D01*
X50240475Y10345239D01*
X50288094Y10392858D01*
X50335713Y10488096D01*
X50335713Y10726191D01*
X50288094Y10821429D01*
X50240475Y10869048D01*
X50145237Y10916667D01*
X49954760Y10916667D01*
X49859522Y10869048D01*
X49811903Y10821429D01*
X49764284Y10726191D01*
%TO.C,C5*%
X43083333Y25142858D02*
X43035714Y25095239D01*
X42892857Y25047620D01*
X42797619Y25047620D01*
X42654761Y25095239D01*
X42559523Y25190477D01*
X42511904Y25285715D01*
X42464285Y25476191D01*
X42464285Y25619048D01*
X42511904Y25809524D01*
X42559523Y25904762D01*
X42654761Y26000000D01*
X42797619Y26047620D01*
X42892857Y26047620D01*
X43035714Y26000000D01*
X43083333Y25952381D01*
X43988095Y26047620D02*
X43511904Y26047620D01*
X43464285Y25571429D01*
X43511904Y25619048D01*
X43607142Y25666667D01*
X43845238Y25666667D01*
X43940476Y25619048D01*
X43988095Y25571429D01*
X44035714Y25476191D01*
X44035714Y25238096D01*
X43988095Y25142858D01*
X43940476Y25095239D01*
X43845238Y25047620D01*
X43607142Y25047620D01*
X43511904Y25095239D01*
X43464285Y25142858D01*
%TO.C,C4*%
X40833333Y46142858D02*
X40785714Y46095239D01*
X40642857Y46047620D01*
X40547619Y46047620D01*
X40404761Y46095239D01*
X40309523Y46190477D01*
X40261904Y46285715D01*
X40214285Y46476191D01*
X40214285Y46619048D01*
X40261904Y46809524D01*
X40309523Y46904762D01*
X40404761Y47000000D01*
X40547619Y47047620D01*
X40642857Y47047620D01*
X40785714Y47000000D01*
X40833333Y46952381D01*
X41690476Y46714286D02*
X41690476Y46047620D01*
X41452380Y47095239D02*
X41214285Y46380953D01*
X41833333Y46380953D01*
%TO.C,Q2B1*%
X53178571Y11952381D02*
X53083333Y12000000D01*
X52988095Y12095239D01*
X52845238Y12238096D01*
X52750000Y12285715D01*
X52654761Y12285715D01*
X52702380Y12047620D02*
X52607142Y12095239D01*
X52511904Y12190477D01*
X52464285Y12380953D01*
X52464285Y12714286D01*
X52511904Y12904762D01*
X52607142Y13000000D01*
X52702380Y13047620D01*
X52892857Y13047620D01*
X52988095Y13000000D01*
X53083333Y12904762D01*
X53130952Y12714286D01*
X53130952Y12380953D01*
X53083333Y12190477D01*
X52988095Y12095239D01*
X52892857Y12047620D01*
X52702380Y12047620D01*
X53511904Y12952381D02*
X53559523Y13000000D01*
X53654761Y13047620D01*
X53892857Y13047620D01*
X53988095Y13000000D01*
X54035714Y12952381D01*
X54083333Y12857143D01*
X54083333Y12761905D01*
X54035714Y12619048D01*
X53464285Y12047620D01*
X54083333Y12047620D01*
X54845238Y12571429D02*
X54988095Y12523810D01*
X55035714Y12476191D01*
X55083333Y12380953D01*
X55083333Y12238096D01*
X55035714Y12142858D01*
X54988095Y12095239D01*
X54892857Y12047620D01*
X54511904Y12047620D01*
X54511904Y13047620D01*
X54845238Y13047620D01*
X54940476Y13000000D01*
X54988095Y12952381D01*
X55035714Y12857143D01*
X55035714Y12761905D01*
X54988095Y12666667D01*
X54940476Y12619048D01*
X54845238Y12571429D01*
X54511904Y12571429D01*
X56035714Y12047620D02*
X55464285Y12047620D01*
X55750000Y12047620D02*
X55750000Y13047620D01*
X55654761Y12904762D01*
X55559523Y12809524D01*
X55464285Y12761905D01*
%TO.C,Q1B1*%
X62947619Y44328572D02*
X62900000Y44233334D01*
X62804761Y44138096D01*
X62661904Y43995239D01*
X62614285Y43900000D01*
X62614285Y43804762D01*
X62852380Y43852381D02*
X62804761Y43757143D01*
X62709523Y43661905D01*
X62519047Y43614286D01*
X62185714Y43614286D01*
X61995238Y43661905D01*
X61900000Y43757143D01*
X61852380Y43852381D01*
X61852380Y44042858D01*
X61900000Y44138096D01*
X61995238Y44233334D01*
X62185714Y44280953D01*
X62519047Y44280953D01*
X62709523Y44233334D01*
X62804761Y44138096D01*
X62852380Y44042858D01*
X62852380Y43852381D01*
X62852380Y45233334D02*
X62852380Y44661905D01*
X62852380Y44947620D02*
X61852380Y44947620D01*
X61995238Y44852381D01*
X62090476Y44757143D01*
X62138095Y44661905D01*
X62328571Y45995239D02*
X62376190Y46138096D01*
X62423809Y46185715D01*
X62519047Y46233334D01*
X62661904Y46233334D01*
X62757142Y46185715D01*
X62804761Y46138096D01*
X62852380Y46042858D01*
X62852380Y45661905D01*
X61852380Y45661905D01*
X61852380Y45995239D01*
X61900000Y46090477D01*
X61947619Y46138096D01*
X62042857Y46185715D01*
X62138095Y46185715D01*
X62233333Y46138096D01*
X62280952Y46090477D01*
X62328571Y45995239D01*
X62328571Y45661905D01*
X62852380Y47185715D02*
X62852380Y46614286D01*
X62852380Y46900000D02*
X61852380Y46900000D01*
X61995238Y46804762D01*
X62090476Y46709524D01*
X62138095Y46614286D01*
%TO.C,Q2*%
X30797619Y29654762D02*
X30750000Y29559524D01*
X30654761Y29464286D01*
X30511904Y29321429D01*
X30464285Y29226191D01*
X30464285Y29130953D01*
X30702380Y29178572D02*
X30654761Y29083334D01*
X30559523Y28988096D01*
X30369047Y28940477D01*
X30035714Y28940477D01*
X29845238Y28988096D01*
X29750000Y29083334D01*
X29702380Y29178572D01*
X29702380Y29369048D01*
X29750000Y29464286D01*
X29845238Y29559524D01*
X30035714Y29607143D01*
X30369047Y29607143D01*
X30559523Y29559524D01*
X30654761Y29464286D01*
X30702380Y29369048D01*
X30702380Y29178572D01*
X29797619Y29988096D02*
X29750000Y30035715D01*
X29702380Y30130953D01*
X29702380Y30369048D01*
X29750000Y30464286D01*
X29797619Y30511905D01*
X29892857Y30559524D01*
X29988095Y30559524D01*
X30130952Y30511905D01*
X30702380Y29940477D01*
X30702380Y30559524D01*
%TO.C,Q3*%
X30547619Y15154762D02*
X30500000Y15059524D01*
X30404761Y14964286D01*
X30261904Y14821429D01*
X30214285Y14726191D01*
X30214285Y14630953D01*
X30452380Y14678572D02*
X30404761Y14583334D01*
X30309523Y14488096D01*
X30119047Y14440477D01*
X29785714Y14440477D01*
X29595238Y14488096D01*
X29500000Y14583334D01*
X29452380Y14678572D01*
X29452380Y14869048D01*
X29500000Y14964286D01*
X29595238Y15059524D01*
X29785714Y15107143D01*
X30119047Y15107143D01*
X30309523Y15059524D01*
X30404761Y14964286D01*
X30452380Y14869048D01*
X30452380Y14678572D01*
X29452380Y15440477D02*
X29452380Y16059524D01*
X29833333Y15726191D01*
X29833333Y15869048D01*
X29880952Y15964286D01*
X29928571Y16011905D01*
X30023809Y16059524D01*
X30261904Y16059524D01*
X30357142Y16011905D01*
X30404761Y15964286D01*
X30452380Y15869048D01*
X30452380Y15583334D01*
X30404761Y15488096D01*
X30357142Y15440477D01*
%TO.C,R19*%
X24057142Y56447620D02*
X23723809Y56923810D01*
X23485714Y56447620D02*
X23485714Y57447620D01*
X23866666Y57447620D01*
X23961904Y57400000D01*
X24009523Y57352381D01*
X24057142Y57257143D01*
X24057142Y57114286D01*
X24009523Y57019048D01*
X23961904Y56971429D01*
X23866666Y56923810D01*
X23485714Y56923810D01*
X25009523Y56447620D02*
X24438095Y56447620D01*
X24723809Y56447620D02*
X24723809Y57447620D01*
X24628571Y57304762D01*
X24533333Y57209524D01*
X24438095Y57161905D01*
X25485714Y56447620D02*
X25676190Y56447620D01*
X25771428Y56495239D01*
X25819047Y56542858D01*
X25914285Y56685715D01*
X25961904Y56876191D01*
X25961904Y57257143D01*
X25914285Y57352381D01*
X25866666Y57400000D01*
X25771428Y57447620D01*
X25580952Y57447620D01*
X25485714Y57400000D01*
X25438095Y57352381D01*
X25390476Y57257143D01*
X25390476Y57019048D01*
X25438095Y56923810D01*
X25485714Y56876191D01*
X25580952Y56828572D01*
X25771428Y56828572D01*
X25866666Y56876191D01*
X25914285Y56923810D01*
X25961904Y57019048D01*
%TO.C,R18*%
X27857142Y25547620D02*
X27523809Y26023810D01*
X27285714Y25547620D02*
X27285714Y26547620D01*
X27666666Y26547620D01*
X27761904Y26500000D01*
X27809523Y26452381D01*
X27857142Y26357143D01*
X27857142Y26214286D01*
X27809523Y26119048D01*
X27761904Y26071429D01*
X27666666Y26023810D01*
X27285714Y26023810D01*
X28809523Y25547620D02*
X28238095Y25547620D01*
X28523809Y25547620D02*
X28523809Y26547620D01*
X28428571Y26404762D01*
X28333333Y26309524D01*
X28238095Y26261905D01*
X29380952Y26119048D02*
X29285714Y26166667D01*
X29238095Y26214286D01*
X29190476Y26309524D01*
X29190476Y26357143D01*
X29238095Y26452381D01*
X29285714Y26500000D01*
X29380952Y26547620D01*
X29571428Y26547620D01*
X29666666Y26500000D01*
X29714285Y26452381D01*
X29761904Y26357143D01*
X29761904Y26309524D01*
X29714285Y26214286D01*
X29666666Y26166667D01*
X29571428Y26119048D01*
X29380952Y26119048D01*
X29285714Y26071429D01*
X29238095Y26023810D01*
X29190476Y25928572D01*
X29190476Y25738096D01*
X29238095Y25642858D01*
X29285714Y25595239D01*
X29380952Y25547620D01*
X29571428Y25547620D01*
X29666666Y25595239D01*
X29714285Y25642858D01*
X29761904Y25738096D01*
X29761904Y25928572D01*
X29714285Y26023810D01*
X29666666Y26071429D01*
X29571428Y26119048D01*
%TO.C,R17*%
X23878523Y72396896D02*
X23545190Y72873086D01*
X23307095Y72396896D02*
X23307095Y73396896D01*
X23688047Y73396896D01*
X23783285Y73349276D01*
X23830904Y73301657D01*
X23878523Y73206419D01*
X23878523Y73063562D01*
X23830904Y72968324D01*
X23783285Y72920705D01*
X23688047Y72873086D01*
X23307095Y72873086D01*
X24830904Y72396896D02*
X24259476Y72396896D01*
X24545190Y72396896D02*
X24545190Y73396896D01*
X24449952Y73254038D01*
X24354714Y73158800D01*
X24259476Y73111181D01*
X25164238Y73396896D02*
X25830904Y73396896D01*
X25402333Y72396896D01*
%TO.C,Q1*%
X44404761Y63202381D02*
X44309523Y63250000D01*
X44214285Y63345239D01*
X44071428Y63488096D01*
X43976190Y63535715D01*
X43880952Y63535715D01*
X43928571Y63297620D02*
X43833333Y63345239D01*
X43738095Y63440477D01*
X43690476Y63630953D01*
X43690476Y63964286D01*
X43738095Y64154762D01*
X43833333Y64250000D01*
X43928571Y64297620D01*
X44119047Y64297620D01*
X44214285Y64250000D01*
X44309523Y64154762D01*
X44357142Y63964286D01*
X44357142Y63630953D01*
X44309523Y63440477D01*
X44214285Y63345239D01*
X44119047Y63297620D01*
X43928571Y63297620D01*
X45309523Y63297620D02*
X44738095Y63297620D01*
X45023809Y63297620D02*
X45023809Y64297620D01*
X44928571Y64154762D01*
X44833333Y64059524D01*
X44738095Y64011905D01*
%TO.C,U9*%
X40352380Y69238096D02*
X41161904Y69238096D01*
X41257142Y69285715D01*
X41304761Y69333334D01*
X41352380Y69428572D01*
X41352380Y69619048D01*
X41304761Y69714286D01*
X41257142Y69761905D01*
X41161904Y69809524D01*
X40352380Y69809524D01*
X41352380Y70333334D02*
X41352380Y70523810D01*
X41304761Y70619048D01*
X41257142Y70666667D01*
X41114285Y70761905D01*
X40923809Y70809524D01*
X40542857Y70809524D01*
X40447619Y70761905D01*
X40400000Y70714286D01*
X40352380Y70619048D01*
X40352380Y70428572D01*
X40400000Y70333334D01*
X40447619Y70285715D01*
X40542857Y70238096D01*
X40780952Y70238096D01*
X40876190Y70285715D01*
X40923809Y70333334D01*
X40971428Y70428572D01*
X40971428Y70619048D01*
X40923809Y70714286D01*
X40876190Y70761905D01*
X40780952Y70809524D01*
%TO.C,U8*%
X23238095Y41547620D02*
X23238095Y40738096D01*
X23285714Y40642858D01*
X23333333Y40595239D01*
X23428571Y40547620D01*
X23619047Y40547620D01*
X23714285Y40595239D01*
X23761904Y40642858D01*
X23809523Y40738096D01*
X23809523Y41547620D01*
X24428571Y41119048D02*
X24333333Y41166667D01*
X24285714Y41214286D01*
X24238095Y41309524D01*
X24238095Y41357143D01*
X24285714Y41452381D01*
X24333333Y41500000D01*
X24428571Y41547620D01*
X24619047Y41547620D01*
X24714285Y41500000D01*
X24761904Y41452381D01*
X24809523Y41357143D01*
X24809523Y41309524D01*
X24761904Y41214286D01*
X24714285Y41166667D01*
X24619047Y41119048D01*
X24428571Y41119048D01*
X24333333Y41071429D01*
X24285714Y41023810D01*
X24238095Y40928572D01*
X24238095Y40738096D01*
X24285714Y40642858D01*
X24333333Y40595239D01*
X24428571Y40547620D01*
X24619047Y40547620D01*
X24714285Y40595239D01*
X24761904Y40642858D01*
X24809523Y40738096D01*
X24809523Y40928572D01*
X24761904Y41023810D01*
X24714285Y41071429D01*
X24619047Y41119048D01*
%TO.C,U7*%
X19638095Y69917620D02*
X19638095Y69108096D01*
X19685714Y69012858D01*
X19733333Y68965239D01*
X19828571Y68917620D01*
X20019047Y68917620D01*
X20114285Y68965239D01*
X20161904Y69012858D01*
X20209523Y69108096D01*
X20209523Y69917620D01*
X20590476Y69917620D02*
X21257142Y69917620D01*
X20828571Y68917620D01*
%TO.C,U6*%
X18862876Y8596896D02*
X18862876Y7787372D01*
X18910495Y7692134D01*
X18958114Y7644515D01*
X19053352Y7596896D01*
X19243828Y7596896D01*
X19339066Y7644515D01*
X19386685Y7692134D01*
X19434304Y7787372D01*
X19434304Y8596896D01*
X20339066Y8596896D02*
X20148590Y8596896D01*
X20053352Y8549276D01*
X20005733Y8501657D01*
X19910495Y8358800D01*
X19862876Y8168324D01*
X19862876Y7787372D01*
X19910495Y7692134D01*
X19958114Y7644515D01*
X20053352Y7596896D01*
X20243828Y7596896D01*
X20339066Y7644515D01*
X20386685Y7692134D01*
X20434304Y7787372D01*
X20434304Y8025467D01*
X20386685Y8120705D01*
X20339066Y8168324D01*
X20243828Y8215943D01*
X20053352Y8215943D01*
X19958114Y8168324D01*
X19910495Y8120705D01*
X19862876Y8025467D01*
%TO.C,U5*%
X18862876Y14596896D02*
X18862876Y13787372D01*
X18910495Y13692134D01*
X18958114Y13644515D01*
X19053352Y13596896D01*
X19243828Y13596896D01*
X19339066Y13644515D01*
X19386685Y13692134D01*
X19434304Y13787372D01*
X19434304Y14596896D01*
X20386685Y14596896D02*
X19910495Y14596896D01*
X19862876Y14120705D01*
X19910495Y14168324D01*
X20005733Y14215943D01*
X20243828Y14215943D01*
X20339066Y14168324D01*
X20386685Y14120705D01*
X20434304Y14025467D01*
X20434304Y13787372D01*
X20386685Y13692134D01*
X20339066Y13644515D01*
X20243828Y13596896D01*
X20005733Y13596896D01*
X19910495Y13644515D01*
X19862876Y13692134D01*
%TO.C,U4*%
X20238095Y24917620D02*
X20238095Y24108096D01*
X20285714Y24012858D01*
X20333333Y23965239D01*
X20428571Y23917620D01*
X20619047Y23917620D01*
X20714285Y23965239D01*
X20761904Y24012858D01*
X20809523Y24108096D01*
X20809523Y24917620D01*
X21714285Y24584286D02*
X21714285Y23917620D01*
X21476190Y24965239D02*
X21238095Y24250953D01*
X21857142Y24250953D01*
%TO.C,U3*%
X8738095Y29047620D02*
X8738095Y28238096D01*
X8785714Y28142858D01*
X8833333Y28095239D01*
X8928571Y28047620D01*
X9119047Y28047620D01*
X9214285Y28095239D01*
X9261904Y28142858D01*
X9309523Y28238096D01*
X9309523Y29047620D01*
X9690476Y29047620D02*
X10309523Y29047620D01*
X9976190Y28666667D01*
X10119047Y28666667D01*
X10214285Y28619048D01*
X10261904Y28571429D01*
X10309523Y28476191D01*
X10309523Y28238096D01*
X10261904Y28142858D01*
X10214285Y28095239D01*
X10119047Y28047620D01*
X9833333Y28047620D01*
X9738095Y28095239D01*
X9690476Y28142858D01*
%TO.C,U2*%
X8738095Y39047620D02*
X8738095Y38238096D01*
X8785714Y38142858D01*
X8833333Y38095239D01*
X8928571Y38047620D01*
X9119047Y38047620D01*
X9214285Y38095239D01*
X9261904Y38142858D01*
X9309523Y38238096D01*
X9309523Y39047620D01*
X9738095Y38952381D02*
X9785714Y39000000D01*
X9880952Y39047620D01*
X10119047Y39047620D01*
X10214285Y39000000D01*
X10261904Y38952381D01*
X10309523Y38857143D01*
X10309523Y38761905D01*
X10261904Y38619048D01*
X9690476Y38047620D01*
X10309523Y38047620D01*
%TO.C,U1*%
X20238095Y54167620D02*
X20238095Y53358096D01*
X20285714Y53262858D01*
X20333333Y53215239D01*
X20428571Y53167620D01*
X20619047Y53167620D01*
X20714285Y53215239D01*
X20761904Y53262858D01*
X20809523Y53358096D01*
X20809523Y54167620D01*
X21809523Y53167620D02*
X21238095Y53167620D01*
X21523809Y53167620D02*
X21523809Y54167620D01*
X21428571Y54024762D01*
X21333333Y53929524D01*
X21238095Y53881905D01*
%TO.C,R20*%
X34247142Y61547620D02*
X33913809Y62023810D01*
X33675714Y61547620D02*
X33675714Y62547620D01*
X34056666Y62547620D01*
X34151904Y62500000D01*
X34199523Y62452381D01*
X34247142Y62357143D01*
X34247142Y62214286D01*
X34199523Y62119048D01*
X34151904Y62071429D01*
X34056666Y62023810D01*
X33675714Y62023810D01*
X34628095Y62452381D02*
X34675714Y62500000D01*
X34770952Y62547620D01*
X35009047Y62547620D01*
X35104285Y62500000D01*
X35151904Y62452381D01*
X35199523Y62357143D01*
X35199523Y62261905D01*
X35151904Y62119048D01*
X34580476Y61547620D01*
X35199523Y61547620D01*
X35818571Y62547620D02*
X35913809Y62547620D01*
X36009047Y62500000D01*
X36056666Y62452381D01*
X36104285Y62357143D01*
X36151904Y62166667D01*
X36151904Y61928572D01*
X36104285Y61738096D01*
X36056666Y61642858D01*
X36009047Y61595239D01*
X35913809Y61547620D01*
X35818571Y61547620D01*
X35723333Y61595239D01*
X35675714Y61642858D01*
X35628095Y61738096D01*
X35580476Y61928572D01*
X35580476Y62166667D01*
X35628095Y62357143D01*
X35675714Y62452381D01*
X35723333Y62500000D01*
X35818571Y62547620D01*
%TO.C,R14*%
X16463523Y29231896D02*
X16130190Y29708086D01*
X15892095Y29231896D02*
X15892095Y30231896D01*
X16273047Y30231896D01*
X16368285Y30184276D01*
X16415904Y30136657D01*
X16463523Y30041419D01*
X16463523Y29898562D01*
X16415904Y29803324D01*
X16368285Y29755705D01*
X16273047Y29708086D01*
X15892095Y29708086D01*
X17415904Y29231896D02*
X16844476Y29231896D01*
X17130190Y29231896D02*
X17130190Y30231896D01*
X17034952Y30089038D01*
X16939714Y29993800D01*
X16844476Y29946181D01*
X18273047Y29898562D02*
X18273047Y29231896D01*
X18034952Y30279515D02*
X17796857Y29565229D01*
X18415904Y29565229D01*
%TO.C,R12*%
X16463523Y33231896D02*
X16130190Y33708086D01*
X15892095Y33231896D02*
X15892095Y34231896D01*
X16273047Y34231896D01*
X16368285Y34184276D01*
X16415904Y34136657D01*
X16463523Y34041419D01*
X16463523Y33898562D01*
X16415904Y33803324D01*
X16368285Y33755705D01*
X16273047Y33708086D01*
X15892095Y33708086D01*
X17415904Y33231896D02*
X16844476Y33231896D01*
X17130190Y33231896D02*
X17130190Y34231896D01*
X17034952Y34089038D01*
X16939714Y33993800D01*
X16844476Y33946181D01*
X17796857Y34136657D02*
X17844476Y34184276D01*
X17939714Y34231896D01*
X18177809Y34231896D01*
X18273047Y34184276D01*
X18320666Y34136657D01*
X18368285Y34041419D01*
X18368285Y33946181D01*
X18320666Y33803324D01*
X17749238Y33231896D01*
X18368285Y33231896D01*
%TO.C,R11*%
X16463523Y37731896D02*
X16130190Y38208086D01*
X15892095Y37731896D02*
X15892095Y38731896D01*
X16273047Y38731896D01*
X16368285Y38684276D01*
X16415904Y38636657D01*
X16463523Y38541419D01*
X16463523Y38398562D01*
X16415904Y38303324D01*
X16368285Y38255705D01*
X16273047Y38208086D01*
X15892095Y38208086D01*
X17415904Y37731896D02*
X16844476Y37731896D01*
X17130190Y37731896D02*
X17130190Y38731896D01*
X17034952Y38589038D01*
X16939714Y38493800D01*
X16844476Y38446181D01*
X18368285Y37731896D02*
X17796857Y37731896D01*
X18082571Y37731896D02*
X18082571Y38731896D01*
X17987333Y38589038D01*
X17892095Y38493800D01*
X17796857Y38446181D01*
%TO.C,R10*%
X16463523Y41731896D02*
X16130190Y42208086D01*
X15892095Y41731896D02*
X15892095Y42731896D01*
X16273047Y42731896D01*
X16368285Y42684276D01*
X16415904Y42636657D01*
X16463523Y42541419D01*
X16463523Y42398562D01*
X16415904Y42303324D01*
X16368285Y42255705D01*
X16273047Y42208086D01*
X15892095Y42208086D01*
X17415904Y41731896D02*
X16844476Y41731896D01*
X17130190Y41731896D02*
X17130190Y42731896D01*
X17034952Y42589038D01*
X16939714Y42493800D01*
X16844476Y42446181D01*
X18034952Y42731896D02*
X18130190Y42731896D01*
X18225428Y42684276D01*
X18273047Y42636657D01*
X18320666Y42541419D01*
X18368285Y42350943D01*
X18368285Y42112848D01*
X18320666Y41922372D01*
X18273047Y41827134D01*
X18225428Y41779515D01*
X18130190Y41731896D01*
X18034952Y41731896D01*
X17939714Y41779515D01*
X17892095Y41827134D01*
X17844476Y41922372D01*
X17796857Y42112848D01*
X17796857Y42350943D01*
X17844476Y42541419D01*
X17892095Y42636657D01*
X17939714Y42684276D01*
X18034952Y42731896D01*
%TO.C,R7*%
X15152380Y56933334D02*
X14676190Y56600000D01*
X15152380Y56361905D02*
X14152380Y56361905D01*
X14152380Y56742858D01*
X14200000Y56838096D01*
X14247619Y56885715D01*
X14342857Y56933334D01*
X14485714Y56933334D01*
X14580952Y56885715D01*
X14628571Y56838096D01*
X14676190Y56742858D01*
X14676190Y56361905D01*
X14152380Y57266667D02*
X14152380Y57933334D01*
X15152380Y57504762D01*
%TO.C,R6*%
X16083333Y7547620D02*
X15750000Y8023810D01*
X15511904Y7547620D02*
X15511904Y8547620D01*
X15892857Y8547620D01*
X15988095Y8500000D01*
X16035714Y8452381D01*
X16083333Y8357143D01*
X16083333Y8214286D01*
X16035714Y8119048D01*
X15988095Y8071429D01*
X15892857Y8023810D01*
X15511904Y8023810D01*
X16940476Y8547620D02*
X16750000Y8547620D01*
X16654761Y8500000D01*
X16607142Y8452381D01*
X16511904Y8309524D01*
X16464285Y8119048D01*
X16464285Y7738096D01*
X16511904Y7642858D01*
X16559523Y7595239D01*
X16654761Y7547620D01*
X16845238Y7547620D01*
X16940476Y7595239D01*
X16988095Y7642858D01*
X17035714Y7738096D01*
X17035714Y7976191D01*
X16988095Y8071429D01*
X16940476Y8119048D01*
X16845238Y8166667D01*
X16654761Y8166667D01*
X16559523Y8119048D01*
X16511904Y8071429D01*
X16464285Y7976191D01*
%TO.C,R5*%
X16083333Y13797620D02*
X15750000Y14273810D01*
X15511904Y13797620D02*
X15511904Y14797620D01*
X15892857Y14797620D01*
X15988095Y14750000D01*
X16035714Y14702381D01*
X16083333Y14607143D01*
X16083333Y14464286D01*
X16035714Y14369048D01*
X15988095Y14321429D01*
X15892857Y14273810D01*
X15511904Y14273810D01*
X16988095Y14797620D02*
X16511904Y14797620D01*
X16464285Y14321429D01*
X16511904Y14369048D01*
X16607142Y14416667D01*
X16845238Y14416667D01*
X16940476Y14369048D01*
X16988095Y14321429D01*
X17035714Y14226191D01*
X17035714Y13988096D01*
X16988095Y13892858D01*
X16940476Y13845239D01*
X16845238Y13797620D01*
X16607142Y13797620D01*
X16511904Y13845239D01*
X16464285Y13892858D01*
%TO.C,R4*%
X18333333Y24547620D02*
X18000000Y25023810D01*
X17761904Y24547620D02*
X17761904Y25547620D01*
X18142857Y25547620D01*
X18238095Y25500000D01*
X18285714Y25452381D01*
X18333333Y25357143D01*
X18333333Y25214286D01*
X18285714Y25119048D01*
X18238095Y25071429D01*
X18142857Y25023810D01*
X17761904Y25023810D01*
X19190476Y25214286D02*
X19190476Y24547620D01*
X18952380Y25595239D02*
X18714285Y24880953D01*
X19333333Y24880953D01*
%TO.C,R3*%
X6939714Y37231896D02*
X6606381Y37708086D01*
X6368285Y37231896D02*
X6368285Y38231896D01*
X6749238Y38231896D01*
X6844476Y38184276D01*
X6892095Y38136657D01*
X6939714Y38041419D01*
X6939714Y37898562D01*
X6892095Y37803324D01*
X6844476Y37755705D01*
X6749238Y37708086D01*
X6368285Y37708086D01*
X7273047Y38231896D02*
X7892095Y38231896D01*
X7558761Y37850943D01*
X7701619Y37850943D01*
X7796857Y37803324D01*
X7844476Y37755705D01*
X7892095Y37660467D01*
X7892095Y37422372D01*
X7844476Y37327134D01*
X7796857Y37279515D01*
X7701619Y37231896D01*
X7415904Y37231896D01*
X7320666Y37279515D01*
X7273047Y37327134D01*
%TO.C,R2*%
X7049714Y47231896D02*
X6716381Y47708086D01*
X6478285Y47231896D02*
X6478285Y48231896D01*
X6859238Y48231896D01*
X6954476Y48184276D01*
X7002095Y48136657D01*
X7049714Y48041419D01*
X7049714Y47898562D01*
X7002095Y47803324D01*
X6954476Y47755705D01*
X6859238Y47708086D01*
X6478285Y47708086D01*
X7430666Y48136657D02*
X7478285Y48184276D01*
X7573523Y48231896D01*
X7811619Y48231896D01*
X7906857Y48184276D01*
X7954476Y48136657D01*
X8002095Y48041419D01*
X8002095Y47946181D01*
X7954476Y47803324D01*
X7383047Y47231896D01*
X8002095Y47231896D01*
%TO.C,R1*%
X13452380Y47083334D02*
X12976190Y46750000D01*
X13452380Y46511905D02*
X12452380Y46511905D01*
X12452380Y46892858D01*
X12500000Y46988096D01*
X12547619Y47035715D01*
X12642857Y47083334D01*
X12785714Y47083334D01*
X12880952Y47035715D01*
X12928571Y46988096D01*
X12976190Y46892858D01*
X12976190Y46511905D01*
X13452380Y48035715D02*
X13452380Y47464286D01*
X13452380Y47750000D02*
X12452380Y47750000D01*
X12595238Y47654762D01*
X12690476Y47559524D01*
X12738095Y47464286D01*
%TO.C,J7*%
X6166666Y67957620D02*
X6166666Y67243334D01*
X6119047Y67100477D01*
X6023809Y67005239D01*
X5880952Y66957620D01*
X5785714Y66957620D01*
X6547619Y67957620D02*
X7214285Y67957620D01*
X6785714Y66957620D01*
%TO.C,J6*%
X6166666Y22957620D02*
X6166666Y22243334D01*
X6119047Y22100477D01*
X6023809Y22005239D01*
X5880952Y21957620D01*
X5785714Y21957620D01*
X7071428Y22957620D02*
X6880952Y22957620D01*
X6785714Y22910000D01*
X6738095Y22862381D01*
X6642857Y22719524D01*
X6595238Y22529048D01*
X6595238Y22148096D01*
X6642857Y22052858D01*
X6690476Y22005239D01*
X6785714Y21957620D01*
X6976190Y21957620D01*
X7071428Y22005239D01*
X7119047Y22052858D01*
X7166666Y22148096D01*
X7166666Y22386191D01*
X7119047Y22481429D01*
X7071428Y22529048D01*
X6976190Y22576667D01*
X6785714Y22576667D01*
X6690476Y22529048D01*
X6642857Y22481429D01*
X6595238Y22386191D01*
%TO.C,J5*%
X56166666Y66957620D02*
X56166666Y66243334D01*
X56119047Y66100477D01*
X56023809Y66005239D01*
X55880952Y65957620D01*
X55785714Y65957620D01*
X57119047Y66957620D02*
X56642857Y66957620D01*
X56595238Y66481429D01*
X56642857Y66529048D01*
X56738095Y66576667D01*
X56976190Y66576667D01*
X57071428Y66529048D01*
X57119047Y66481429D01*
X57166666Y66386191D01*
X57166666Y66148096D01*
X57119047Y66052858D01*
X57071428Y66005239D01*
X56976190Y65957620D01*
X56738095Y65957620D01*
X56642857Y66005239D01*
X56595238Y66052858D01*
%TO.C,C3*%
X10039714Y69927134D02*
X9992095Y69879515D01*
X9849238Y69831896D01*
X9754000Y69831896D01*
X9611142Y69879515D01*
X9515904Y69974753D01*
X9468285Y70069991D01*
X9420666Y70260467D01*
X9420666Y70403324D01*
X9468285Y70593800D01*
X9515904Y70689038D01*
X9611142Y70784276D01*
X9754000Y70831896D01*
X9849238Y70831896D01*
X9992095Y70784276D01*
X10039714Y70736657D01*
X10373047Y70831896D02*
X10992095Y70831896D01*
X10658761Y70450943D01*
X10801619Y70450943D01*
X10896857Y70403324D01*
X10944476Y70355705D01*
X10992095Y70260467D01*
X10992095Y70022372D01*
X10944476Y69927134D01*
X10896857Y69879515D01*
X10801619Y69831896D01*
X10515904Y69831896D01*
X10420666Y69879515D01*
X10373047Y69927134D01*
%TO.C,C2*%
X34883333Y64342858D02*
X34835714Y64295239D01*
X34692857Y64247620D01*
X34597619Y64247620D01*
X34454761Y64295239D01*
X34359523Y64390477D01*
X34311904Y64485715D01*
X34264285Y64676191D01*
X34264285Y64819048D01*
X34311904Y65009524D01*
X34359523Y65104762D01*
X34454761Y65200000D01*
X34597619Y65247620D01*
X34692857Y65247620D01*
X34835714Y65200000D01*
X34883333Y65152381D01*
X35264285Y65152381D02*
X35311904Y65200000D01*
X35407142Y65247620D01*
X35645238Y65247620D01*
X35740476Y65200000D01*
X35788095Y65152381D01*
X35835714Y65057143D01*
X35835714Y64961905D01*
X35788095Y64819048D01*
X35216666Y64247620D01*
X35835714Y64247620D01*
%TO.C,C1*%
X35907142Y59133334D02*
X35954761Y59085715D01*
X36002380Y58942858D01*
X36002380Y58847620D01*
X35954761Y58704762D01*
X35859523Y58609524D01*
X35764285Y58561905D01*
X35573809Y58514286D01*
X35430952Y58514286D01*
X35240476Y58561905D01*
X35145238Y58609524D01*
X35050000Y58704762D01*
X35002380Y58847620D01*
X35002380Y58942858D01*
X35050000Y59085715D01*
X35097619Y59133334D01*
X36002380Y60085715D02*
X36002380Y59514286D01*
X36002380Y59800000D02*
X35002380Y59800000D01*
X35145238Y59704762D01*
X35240476Y59609524D01*
X35288095Y59514286D01*
%TD*%
M02*
