M48
; DRILL file {KiCad (5.1.10)-1} date 06/02/22 12:59:50
; FORMAT={-:-/ absolute / metric / decimal}
; #@! TF.CreationDate,2022-06-02T12:59:50+08:00
; #@! TF.GenerationSoftware,Kicad,Pcbnew,(5.1.10)-1
; #@! TF.FileFunction,Plated,1,2,PTH
FMAT,2
METRIC
T1C0.400
T2C1.300
T3C1.400
T4C1.500
T5C3.500
%
G90
G05
T1
X1.943Y72.188
X1.943Y69.812
X1.943Y5.188
X1.943Y2.812
X4.0Y73.375
X4.0Y68.625
X4.0Y53.75
X4.0Y9.0
X4.0Y8.25
X4.0Y6.375
X4.0Y1.625
X4.0Y53.0
X5.0Y40.2
X5.625Y16.75
X6.057Y72.188
X6.057Y69.812
X6.057Y5.188
X6.057Y2.812
X6.6Y29.4
X10.75Y15.0
X11.4Y65.2
X12.6Y68.6
X13.75Y15.0
X14.02Y43.48
X14.02Y42.77
X14.1Y64.219
X14.25Y16.25
X14.6Y48.8
X14.7Y19.5
X17.25Y69.5
X17.87Y3.73
X17.87Y9.73
X20.25Y28.5
X21.0Y28.5
X21.75Y28.5
X23.6Y29.2
X23.8Y12.2
X25.75Y42.5
X26.0Y24.25
X26.2Y58.0
X26.6Y29.2
X27.0Y69.75
X27.355Y41.0
X27.555Y23.151
X27.75Y68.5
X27.75Y56.75
X27.903Y38.097
X27.92Y12.5
X28.0Y36.6
X28.2Y43.6
X28.2Y14.4
X28.25Y62.0
X28.5Y28.75
X29.0Y58.0
X29.88Y24.25
X31.75Y32.75
X31.75Y31.55
X31.75Y30.35
X31.75Y29.15
X31.75Y27.95
X31.75Y26.75
X31.75Y20.25
X31.75Y19.05
X31.75Y17.85
X31.75Y16.65
X31.75Y15.45
X31.75Y14.25
X32.95Y32.75
X32.95Y31.55
X32.95Y30.35
X32.95Y29.15
X32.95Y27.95
X32.95Y26.75
X32.95Y20.25
X32.95Y19.05
X32.95Y17.85
X32.95Y16.65
X32.95Y15.45
X32.95Y14.25
X34.15Y32.75
X34.15Y31.55
X34.15Y30.35
X34.15Y29.15
X34.15Y27.95
X34.15Y26.75
X34.15Y20.25
X34.15Y19.05
X34.15Y17.85
X34.15Y16.65
X34.15Y15.45
X34.15Y14.25
X35.35Y32.75
X35.35Y31.55
X35.35Y30.35
X35.35Y29.15
X35.35Y27.95
X35.35Y26.75
X35.35Y20.25
X35.35Y19.05
X35.35Y17.85
X35.35Y16.65
X35.35Y15.45
X35.35Y14.25
X35.5Y66.5
X36.5Y64.219
X36.5Y62.0
X36.55Y32.75
X36.55Y31.55
X36.55Y30.35
X36.55Y29.15
X36.55Y27.95
X36.55Y26.75
X36.55Y20.25
X36.55Y19.05
X36.55Y17.85
X36.55Y16.65
X36.55Y15.45
X36.55Y14.25
X37.75Y32.75
X37.75Y31.55
X37.75Y30.35
X37.75Y29.15
X37.75Y27.95
X37.75Y26.75
X37.75Y20.25
X37.75Y19.05
X37.75Y17.85
X37.75Y16.65
X37.75Y15.45
X37.75Y14.25
X38.0Y11.5
X38.25Y66.25
X38.5Y69.75
X39.2Y63.6
X39.25Y60.25
X39.8Y35.4
X40.2Y66.0
X40.75Y16.25
X41.0Y35.25
X41.5Y62.5
X41.5Y61.3
X41.5Y60.1
X41.5Y58.9
X41.5Y57.7
X41.5Y56.5
X42.7Y62.5
X42.7Y61.3
X42.7Y60.1
X42.7Y58.9
X42.7Y57.7
X42.7Y56.5
X43.9Y62.5
X43.9Y61.3
X43.9Y60.1
X43.9Y58.9
X43.9Y57.7
X43.9Y56.5
X45.1Y62.5
X45.1Y61.3
X45.1Y60.1
X45.1Y58.9
X45.1Y57.7
X45.1Y56.5
X45.75Y53.0
X46.3Y62.5
X46.3Y61.3
X46.3Y60.1
X46.3Y58.9
X46.3Y57.7
X46.3Y56.5
X47.5Y62.5
X47.5Y61.3
X47.5Y60.1
X47.5Y58.9
X47.5Y57.7
X47.5Y56.5
X50.25Y64.0
X50.25Y61.5
X50.25Y59.0
X50.25Y56.5
X50.25Y53.75
X51.25Y64.0
X51.25Y61.5
X51.25Y59.0
X51.25Y56.5
X51.25Y53.75
X58.25Y53.0
X59.0Y53.0
X72.0Y33.441
X72.0Y32.6
X75.0Y33.095
X75.0Y32.0
T2
X67.5Y61.0
X67.5Y46.0
X67.5Y41.0
X67.5Y36.0
X67.5Y28.0
X67.5Y13.0
X67.5Y8.0
X67.5Y3.0
X75.0Y61.0
X75.0Y46.0
X75.0Y41.0
X75.0Y36.0
X75.0Y28.0
X75.0Y13.0
X75.0Y8.0
X75.0Y3.0
X82.5Y61.0
X82.5Y46.0
X82.5Y41.0
X82.5Y36.0
X82.5Y28.0
X82.5Y13.0
X82.5Y8.0
X82.5Y3.0
X90.0Y61.0
X90.0Y46.0
X90.0Y41.0
X90.0Y36.0
X90.0Y28.0
X90.0Y13.0
X90.0Y8.0
X90.0Y3.0
T3
X97.0Y69.08
X97.0Y64.0
X97.0Y53.08
X97.0Y48.0
X97.0Y37.25
X97.0Y32.17
X97.0Y27.09
X97.0Y16.16
X97.0Y11.08
X97.0Y6.0
T4
X67.9Y69.5
X90.5Y69.5
T5
X4.0Y71.0
X4.0Y4.0
T0
M30
